G75*
%MOIN*%
%OFA0B0*%
%FSLAX25Y25*%
%IPPOS*%
%LPD*%
%AMOC8*
5,1,8,0,0,1.08239X$1,22.5*
%
%ADD10C,0.05543*%
%ADD11C,0.07087*%
%ADD12C,0.04756*%
%ADD13C,0.03100*%
%ADD14C,0.11000*%
%ADD15C,0.01000*%
%ADD16C,0.02800*%
%ADD17C,0.06000*%
%ADD18C,0.01500*%
%ADD19C,0.15000*%
%ADD20C,0.03000*%
%ADD21C,0.03118*%
%ADD22C,0.07500*%
D10*
X0019923Y0129426D03*
X0019064Y0149092D03*
D11*
X0008273Y0152562D03*
X0009475Y0125029D03*
D12*
X0130300Y0190100D03*
X0130300Y0197600D03*
X0130300Y0205100D03*
X0137800Y0205100D03*
X0137800Y0197600D03*
X0137800Y0190100D03*
X0181100Y0164600D03*
X0188600Y0164600D03*
X0188600Y0157100D03*
X0181100Y0157100D03*
X0181100Y0149600D03*
X0188600Y0149600D03*
X0191100Y0197500D03*
X0191100Y0205000D03*
X0245700Y0206900D03*
X0245700Y0199400D03*
X0245700Y0191900D03*
X0245700Y0184400D03*
D13*
X0234700Y0171300D03*
X0219200Y0172200D03*
X0210300Y0180600D03*
X0202700Y0181400D03*
X0201900Y0188850D03*
X0219700Y0183900D03*
X0207600Y0147300D03*
X0207200Y0142500D03*
X0213500Y0127850D03*
X0210650Y0123750D03*
X0205250Y0125100D03*
X0206700Y0119000D03*
X0216950Y0122700D03*
X0230750Y0144050D03*
X0242000Y0147100D03*
X0243100Y0141950D03*
X0183350Y0136700D03*
X0178050Y0136750D03*
X0173350Y0134300D03*
X0179400Y0132000D03*
X0174350Y0140700D03*
X0180500Y0141900D03*
X0160700Y0163200D03*
X0147800Y0163200D03*
X0169000Y0179200D03*
X0149800Y0190750D03*
X0142700Y0193000D03*
X0106200Y0176100D03*
X0100600Y0175900D03*
X0094600Y0176200D03*
X0088150Y0180300D03*
X0106850Y0160750D03*
X0111000Y0160900D03*
X0116800Y0157650D03*
X0142850Y0127250D03*
X0142700Y0119600D03*
X0152100Y0123100D03*
X0152400Y0104500D03*
X0127700Y0117850D03*
X0127850Y0123300D03*
X0105050Y0112400D03*
X0092800Y0106500D03*
X0085700Y0105200D03*
X0079500Y0103800D03*
X0075100Y0106000D03*
X0068900Y0104300D03*
X0062300Y0093000D03*
X0065500Y0090000D03*
X0070400Y0090100D03*
X0075500Y0091000D03*
X0083700Y0092600D03*
X0066600Y0078000D03*
X0059500Y0076700D03*
X0057044Y0079856D03*
X0044800Y0078400D03*
X0041800Y0072700D03*
X0034900Y0068800D03*
X0034350Y0063400D03*
X0029850Y0055850D03*
X0022150Y0060800D03*
X0011800Y0081700D03*
X0034600Y0085900D03*
X0045200Y0090700D03*
X0035400Y0105300D03*
X0026400Y0116400D03*
X0011100Y0135100D03*
X0036700Y0156350D03*
X0045700Y0150400D03*
X0050300Y0142400D03*
X0055350Y0151450D03*
X0079800Y0141000D03*
X0062800Y0127000D03*
X0071800Y0122200D03*
X0083700Y0116600D03*
X0110600Y0089200D03*
X0109600Y0085400D03*
X0108600Y0081600D03*
X0087200Y0073700D03*
X0092500Y0057900D03*
X0097150Y0056600D03*
X0106200Y0054000D03*
X0090900Y0041150D03*
X0077800Y0045400D03*
X0074800Y0040900D03*
X0065700Y0042100D03*
X0061300Y0041200D03*
X0061000Y0058700D03*
X0078350Y0059250D03*
X0121300Y0030400D03*
X0126000Y0030050D03*
X0103650Y0010200D03*
X0110400Y0008450D03*
X0118250Y0006600D03*
X0097750Y0010350D03*
X0089800Y0011250D03*
X0084300Y0009400D03*
X0079900Y0012450D03*
X0084450Y0014700D03*
X0087300Y0018650D03*
X0080100Y0017800D03*
X0125300Y0055400D03*
X0134600Y0058400D03*
X0140600Y0056600D03*
X0138900Y0052900D03*
X0148300Y0056800D03*
X0137800Y0076800D03*
X0147850Y0019800D03*
X0053000Y0106000D03*
X0082100Y0157000D03*
D14*
X0095400Y0146200D02*
X0105050Y0136550D01*
X0105050Y0135850D01*
X0105050Y0112400D01*
X0114650Y0112400D01*
X0118350Y0108700D01*
X0133150Y0108700D01*
X0135750Y0111300D01*
X0145700Y0111200D01*
X0146750Y0112250D01*
X0161250Y0113450D01*
X0163900Y0110800D01*
X0187975Y0134875D01*
X0197550Y0143450D01*
X0197550Y0149450D01*
X0205700Y0157600D01*
X0207200Y0159100D01*
X0226029Y0159100D01*
X0227378Y0160449D01*
X0227378Y0160522D01*
X0225400Y0162450D01*
X0163900Y0110800D02*
X0163900Y0105500D01*
X0163900Y0082850D01*
X0157600Y0076550D01*
X0157600Y0058050D01*
X0157600Y0042600D01*
X0157250Y0042950D01*
X0119450Y0042950D01*
X0118100Y0044300D01*
X0111250Y0044300D01*
D15*
X0058741Y0013981D02*
X0015650Y0013981D01*
X0014760Y0014979D02*
X0058812Y0014979D01*
X0058741Y0014807D02*
X0058741Y0013193D01*
X0059359Y0011701D01*
X0060501Y0010559D01*
X0061993Y0009941D01*
X0063607Y0009941D01*
X0065099Y0010559D01*
X0066241Y0011701D01*
X0066859Y0013193D01*
X0066859Y0014807D01*
X0066241Y0016299D01*
X0065099Y0017441D01*
X0063607Y0018059D01*
X0061993Y0018059D01*
X0060501Y0017441D01*
X0059359Y0016299D01*
X0058741Y0014807D01*
X0059226Y0015978D02*
X0013871Y0015978D01*
X0013613Y0016267D02*
X0010617Y0077806D01*
X0010994Y0077650D01*
X0012606Y0077650D01*
X0014094Y0078267D01*
X0015233Y0079406D01*
X0015850Y0080894D01*
X0015850Y0082506D01*
X0015233Y0083994D01*
X0014094Y0085133D01*
X0012606Y0085750D01*
X0010994Y0085750D01*
X0010246Y0085440D01*
X0008613Y0118986D01*
X0010677Y0118986D01*
X0012898Y0119906D01*
X0014598Y0121606D01*
X0015518Y0123827D01*
X0015518Y0126231D01*
X0014598Y0128452D01*
X0012898Y0130152D01*
X0010677Y0131072D01*
X0008273Y0131072D01*
X0008029Y0130971D01*
X0007616Y0139451D01*
X0007281Y0146518D01*
X0009475Y0146518D01*
X0011696Y0147438D01*
X0013396Y0149138D01*
X0013793Y0150096D01*
X0013793Y0148043D01*
X0014595Y0146106D01*
X0016078Y0144623D01*
X0018016Y0143820D01*
X0020113Y0143820D01*
X0022051Y0144623D01*
X0023534Y0146106D01*
X0024336Y0148043D01*
X0024336Y0150141D01*
X0023534Y0152078D01*
X0022051Y0153561D01*
X0020113Y0154364D01*
X0018016Y0154364D01*
X0016078Y0153561D01*
X0014595Y0152078D01*
X0014316Y0151404D01*
X0014316Y0153764D01*
X0013396Y0155985D01*
X0011696Y0157685D01*
X0010598Y0158140D01*
X0012898Y0157524D01*
X0015638Y0157524D01*
X0018284Y0158233D01*
X0020657Y0159603D01*
X0022594Y0161540D01*
X0023964Y0163913D01*
X0024673Y0166559D01*
X0024673Y0169299D01*
X0023964Y0171946D01*
X0022594Y0174318D01*
X0020657Y0176256D01*
X0018284Y0177626D01*
X0015638Y0178335D01*
X0012898Y0178335D01*
X0010251Y0177626D01*
X0007879Y0176256D01*
X0005962Y0174339D01*
X0005762Y0178538D01*
X0076824Y0182013D01*
X0076825Y0182012D01*
X0077712Y0182056D01*
X0078610Y0182100D01*
X0078612Y0182101D01*
X0078613Y0182101D01*
X0078998Y0182283D01*
X0079350Y0182300D01*
X0079349Y0182449D01*
X0079418Y0182482D01*
X0080228Y0182865D01*
X0080230Y0182867D01*
X0080231Y0182867D01*
X0080831Y0183530D01*
X0081431Y0184191D01*
X0081432Y0184193D01*
X0081433Y0184195D01*
X0081733Y0185035D01*
X0082034Y0185877D01*
X0082034Y0185879D01*
X0082035Y0185880D01*
X0081991Y0186760D01*
X0081947Y0187665D01*
X0081946Y0187667D01*
X0080994Y0206842D01*
X0135680Y0209502D01*
X0135037Y0209235D01*
X0133665Y0207863D01*
X0133455Y0207358D01*
X0133312Y0207572D01*
X0132772Y0208112D01*
X0132137Y0208537D01*
X0131431Y0208829D01*
X0130682Y0208978D01*
X0130489Y0208978D01*
X0130489Y0205289D01*
X0130111Y0205289D01*
X0130111Y0208978D01*
X0129918Y0208978D01*
X0129169Y0208829D01*
X0128463Y0208537D01*
X0127828Y0208112D01*
X0127288Y0207572D01*
X0126863Y0206937D01*
X0126571Y0206231D01*
X0126422Y0205482D01*
X0126422Y0205289D01*
X0130111Y0205289D01*
X0130111Y0204911D01*
X0126422Y0204911D01*
X0126422Y0204718D01*
X0126571Y0203969D01*
X0126863Y0203263D01*
X0127288Y0202628D01*
X0127828Y0202088D01*
X0128042Y0201945D01*
X0127537Y0201735D01*
X0126165Y0200363D01*
X0125422Y0198570D01*
X0125422Y0196630D01*
X0126165Y0194837D01*
X0127152Y0193850D01*
X0126165Y0192863D01*
X0125422Y0191070D01*
X0125422Y0189130D01*
X0126165Y0187337D01*
X0127537Y0185965D01*
X0129330Y0185222D01*
X0131270Y0185222D01*
X0133063Y0185965D01*
X0134050Y0186952D01*
X0135037Y0185965D01*
X0136830Y0185222D01*
X0138770Y0185222D01*
X0140563Y0185965D01*
X0141935Y0187337D01*
X0142604Y0188950D01*
X0143506Y0188950D01*
X0144994Y0189567D01*
X0146133Y0190706D01*
X0146750Y0192194D01*
X0146750Y0193806D01*
X0146133Y0195294D01*
X0144994Y0196433D01*
X0143506Y0197050D01*
X0142678Y0197050D01*
X0142678Y0198570D01*
X0141935Y0200363D01*
X0140948Y0201350D01*
X0141935Y0202337D01*
X0142678Y0204130D01*
X0142678Y0206070D01*
X0141935Y0207863D01*
X0140563Y0209235D01*
X0139475Y0209686D01*
X0196907Y0212479D01*
X0197585Y0212447D01*
X0197795Y0212522D01*
X0198018Y0212533D01*
X0198631Y0212823D01*
X0199270Y0213052D01*
X0199435Y0213202D01*
X0199637Y0213298D01*
X0200092Y0213800D01*
X0200594Y0214256D01*
X0200690Y0214458D01*
X0200840Y0214624D01*
X0201069Y0215262D01*
X0201358Y0215875D01*
X0201368Y0216098D01*
X0201444Y0216309D01*
X0201411Y0216986D01*
X0202247Y0234487D01*
X0235937Y0232639D01*
X0234768Y0231964D01*
X0232831Y0230027D01*
X0231461Y0227654D01*
X0230752Y0225008D01*
X0230752Y0222268D01*
X0231461Y0219621D01*
X0232831Y0217249D01*
X0234768Y0215311D01*
X0237141Y0213941D01*
X0239788Y0213232D01*
X0242527Y0213232D01*
X0245174Y0213941D01*
X0247547Y0215311D01*
X0249484Y0217249D01*
X0250854Y0219621D01*
X0251563Y0222268D01*
X0251563Y0225008D01*
X0250854Y0227654D01*
X0249484Y0230027D01*
X0247547Y0231964D01*
X0247475Y0232006D01*
X0252826Y0231712D01*
X0250578Y0185012D01*
X0250578Y0185370D01*
X0249835Y0187163D01*
X0248848Y0188150D01*
X0249835Y0189137D01*
X0250578Y0190930D01*
X0250578Y0192870D01*
X0249835Y0194663D01*
X0248848Y0195650D01*
X0249835Y0196637D01*
X0250578Y0198430D01*
X0250578Y0200370D01*
X0249835Y0202163D01*
X0248463Y0203535D01*
X0247958Y0203745D01*
X0248172Y0203888D01*
X0248712Y0204428D01*
X0249137Y0205063D01*
X0249429Y0205769D01*
X0249578Y0206518D01*
X0249578Y0206711D01*
X0245889Y0206711D01*
X0245889Y0207089D01*
X0245511Y0207089D01*
X0245511Y0210778D01*
X0245318Y0210778D01*
X0244569Y0210629D01*
X0243863Y0210337D01*
X0243228Y0209912D01*
X0242688Y0209372D01*
X0242263Y0208737D01*
X0241971Y0208031D01*
X0241822Y0207282D01*
X0241822Y0207089D01*
X0245511Y0207089D01*
X0245511Y0206711D01*
X0241822Y0206711D01*
X0241822Y0206518D01*
X0241971Y0205769D01*
X0242263Y0205063D01*
X0242688Y0204428D01*
X0243228Y0203888D01*
X0243442Y0203745D01*
X0242937Y0203535D01*
X0241565Y0202163D01*
X0240822Y0200370D01*
X0240822Y0198430D01*
X0241565Y0196637D01*
X0242552Y0195650D01*
X0241565Y0194663D01*
X0240822Y0192870D01*
X0240822Y0190930D01*
X0241565Y0189137D01*
X0242552Y0188150D01*
X0241565Y0187163D01*
X0240822Y0185370D01*
X0240822Y0183430D01*
X0241565Y0181637D01*
X0242937Y0180265D01*
X0244730Y0179522D01*
X0246670Y0179522D01*
X0248463Y0180265D01*
X0249835Y0181637D01*
X0250492Y0183222D01*
X0247916Y0129703D01*
X0220678Y0121117D01*
X0221000Y0121894D01*
X0221000Y0123506D01*
X0220383Y0124994D01*
X0219244Y0126133D01*
X0217756Y0126750D01*
X0217428Y0126750D01*
X0217550Y0127044D01*
X0217550Y0128656D01*
X0216933Y0130144D01*
X0215794Y0131283D01*
X0214306Y0131900D01*
X0212694Y0131900D01*
X0211206Y0131283D01*
X0210067Y0130144D01*
X0209450Y0128656D01*
X0209450Y0127637D01*
X0208710Y0127330D01*
X0208683Y0127394D01*
X0207544Y0128533D01*
X0206056Y0129150D01*
X0204444Y0129150D01*
X0202956Y0128533D01*
X0201817Y0127394D01*
X0201200Y0125906D01*
X0201200Y0124294D01*
X0201817Y0122806D01*
X0202956Y0121667D01*
X0203439Y0121466D01*
X0203267Y0121294D01*
X0202650Y0119806D01*
X0202650Y0118194D01*
X0203267Y0116706D01*
X0204086Y0115887D01*
X0203149Y0115592D01*
X0199148Y0114487D01*
X0199148Y0114487D01*
X0194695Y0112369D01*
X0193550Y0112050D01*
X0192635Y0111389D01*
X0191503Y0110851D01*
X0184606Y0105943D01*
X0183404Y0104722D01*
X0181850Y0103600D01*
X0180980Y0102262D01*
X0178666Y0099912D01*
X0178666Y0099912D01*
X0173864Y0092941D01*
X0173864Y0092941D01*
X0172231Y0089369D01*
X0171916Y0088871D01*
X0171862Y0088562D01*
X0171732Y0088277D01*
X0171722Y0088011D01*
X0171650Y0087900D01*
X0170930Y0083182D01*
X0166782Y0059255D01*
X0166737Y0059177D01*
X0166630Y0058376D01*
X0166492Y0057579D01*
X0166512Y0057492D01*
X0166012Y0053763D01*
X0165992Y0044628D01*
X0167165Y0035568D01*
X0169510Y0026739D01*
X0170952Y0023235D01*
X0170957Y0023119D01*
X0171291Y0022411D01*
X0171589Y0021688D01*
X0171594Y0021683D01*
X0172238Y0020098D01*
X0173289Y0015450D01*
X0173403Y0013516D01*
X0173430Y0012967D01*
X0173433Y0012172D01*
X0173473Y0012077D01*
X0173794Y0005500D01*
X0142027Y0005500D01*
X0142949Y0006422D01*
X0144318Y0008795D01*
X0145028Y0011441D01*
X0145028Y0014181D01*
X0144318Y0016827D01*
X0142949Y0019200D01*
X0141011Y0021138D01*
X0138638Y0022507D01*
X0135992Y0023217D01*
X0133252Y0023217D01*
X0130606Y0022507D01*
X0128233Y0021138D01*
X0126296Y0019200D01*
X0124926Y0016827D01*
X0124217Y0014181D01*
X0124217Y0011441D01*
X0124926Y0008795D01*
X0126296Y0006422D01*
X0127217Y0005500D01*
X0113178Y0005500D01*
X0113833Y0006156D01*
X0114450Y0007644D01*
X0114450Y0009256D01*
X0113833Y0010744D01*
X0112694Y0011883D01*
X0111206Y0012500D01*
X0109594Y0012500D01*
X0108106Y0011883D01*
X0107562Y0011339D01*
X0107083Y0012494D01*
X0105944Y0013633D01*
X0104456Y0014250D01*
X0102844Y0014250D01*
X0101356Y0013633D01*
X0100775Y0013053D01*
X0100044Y0013783D01*
X0098556Y0014400D01*
X0096944Y0014400D01*
X0095456Y0013783D01*
X0094317Y0012644D01*
X0093850Y0011518D01*
X0093850Y0012056D01*
X0093233Y0013544D01*
X0092094Y0014683D01*
X0090606Y0015300D01*
X0089678Y0015300D01*
X0090733Y0016356D01*
X0091350Y0017844D01*
X0091350Y0019456D01*
X0090733Y0020944D01*
X0089594Y0022083D01*
X0088106Y0022700D01*
X0086494Y0022700D01*
X0085006Y0022083D01*
X0083867Y0020944D01*
X0083520Y0020108D01*
X0082394Y0021233D01*
X0080906Y0021850D01*
X0079294Y0021850D01*
X0077806Y0021233D01*
X0076667Y0020094D01*
X0076050Y0018606D01*
X0076050Y0016994D01*
X0076667Y0015506D01*
X0076947Y0015225D01*
X0076467Y0014744D01*
X0075850Y0013256D01*
X0075850Y0011644D01*
X0076467Y0010156D01*
X0077606Y0009017D01*
X0079094Y0008400D01*
X0080331Y0008400D01*
X0080867Y0007106D01*
X0082006Y0005967D01*
X0083132Y0005500D01*
X0023205Y0005500D01*
X0013613Y0016267D01*
X0013579Y0016976D02*
X0060036Y0016976D01*
X0061789Y0017975D02*
X0013530Y0017975D01*
X0013482Y0018973D02*
X0076202Y0018973D01*
X0076050Y0017975D02*
X0063811Y0017975D01*
X0065564Y0016976D02*
X0076058Y0016976D01*
X0076471Y0015978D02*
X0066374Y0015978D01*
X0066788Y0014979D02*
X0076702Y0014979D01*
X0076150Y0013981D02*
X0066859Y0013981D01*
X0066772Y0012982D02*
X0075850Y0012982D01*
X0075850Y0011984D02*
X0066358Y0011984D01*
X0065525Y0010985D02*
X0076123Y0010985D01*
X0076636Y0009987D02*
X0063718Y0009987D01*
X0061882Y0009987D02*
X0019208Y0009987D01*
X0018318Y0010985D02*
X0060075Y0010985D01*
X0059242Y0011984D02*
X0017429Y0011984D01*
X0016539Y0012982D02*
X0058828Y0012982D01*
X0045841Y0025201D02*
X0046459Y0026693D01*
X0046459Y0028307D01*
X0045841Y0029799D01*
X0044699Y0030941D01*
X0043207Y0031559D01*
X0041593Y0031559D01*
X0040101Y0030941D01*
X0038959Y0029799D01*
X0038341Y0028307D01*
X0038341Y0026693D01*
X0038959Y0025201D01*
X0040101Y0024059D01*
X0041593Y0023441D01*
X0043207Y0023441D01*
X0044699Y0024059D01*
X0045841Y0025201D01*
X0045605Y0024964D02*
X0170240Y0024964D01*
X0170651Y0023966D02*
X0044474Y0023966D01*
X0046157Y0025963D02*
X0083240Y0025963D01*
X0083293Y0025941D02*
X0084907Y0025941D01*
X0086399Y0026559D01*
X0087541Y0027701D01*
X0088159Y0029193D01*
X0088159Y0030807D01*
X0087541Y0032299D01*
X0086399Y0033441D01*
X0084907Y0034059D01*
X0083293Y0034059D01*
X0081801Y0033441D01*
X0080659Y0032299D01*
X0080041Y0030807D01*
X0080041Y0029193D01*
X0080659Y0027701D01*
X0081801Y0026559D01*
X0083293Y0025941D01*
X0084960Y0025963D02*
X0169829Y0025963D01*
X0169510Y0026739D02*
X0169510Y0026739D01*
X0169451Y0026961D02*
X0128639Y0026961D01*
X0128294Y0026617D02*
X0129433Y0027756D01*
X0130050Y0029244D01*
X0130050Y0030856D01*
X0129433Y0032344D01*
X0128294Y0033483D01*
X0126806Y0034100D01*
X0125194Y0034100D01*
X0123874Y0033553D01*
X0123594Y0033833D01*
X0122106Y0034450D01*
X0120494Y0034450D01*
X0119006Y0033833D01*
X0117867Y0032694D01*
X0117250Y0031206D01*
X0117250Y0029594D01*
X0117867Y0028106D01*
X0119006Y0026967D01*
X0120494Y0026350D01*
X0122106Y0026350D01*
X0123426Y0026897D01*
X0123706Y0026617D01*
X0125194Y0026000D01*
X0126806Y0026000D01*
X0128294Y0026617D01*
X0129518Y0027960D02*
X0169185Y0027960D01*
X0168920Y0028958D02*
X0129931Y0028958D01*
X0130050Y0029957D02*
X0168655Y0029957D01*
X0168390Y0030955D02*
X0130009Y0030955D01*
X0129595Y0031954D02*
X0168125Y0031954D01*
X0167859Y0032952D02*
X0128825Y0032952D01*
X0127166Y0033951D02*
X0167594Y0033951D01*
X0167329Y0034949D02*
X0012704Y0034949D01*
X0012752Y0033951D02*
X0083031Y0033951D01*
X0081312Y0032952D02*
X0012801Y0032952D01*
X0012850Y0031954D02*
X0080516Y0031954D01*
X0080102Y0030955D02*
X0044665Y0030955D01*
X0045684Y0029957D02*
X0080041Y0029957D01*
X0080138Y0028958D02*
X0046189Y0028958D01*
X0046459Y0027960D02*
X0080552Y0027960D01*
X0081398Y0026961D02*
X0046459Y0026961D01*
X0040326Y0023966D02*
X0013239Y0023966D01*
X0013190Y0024964D02*
X0039195Y0024964D01*
X0038643Y0025963D02*
X0013141Y0025963D01*
X0013093Y0026961D02*
X0038341Y0026961D01*
X0038341Y0027960D02*
X0013044Y0027960D01*
X0012995Y0028958D02*
X0038611Y0028958D01*
X0039116Y0029957D02*
X0012947Y0029957D01*
X0012898Y0030955D02*
X0040135Y0030955D01*
X0057867Y0038906D02*
X0059006Y0037767D01*
X0060494Y0037150D01*
X0062106Y0037150D01*
X0063594Y0037767D01*
X0064175Y0038348D01*
X0064894Y0038050D01*
X0066506Y0038050D01*
X0067994Y0038667D01*
X0069133Y0039806D01*
X0069750Y0041294D01*
X0069750Y0042906D01*
X0069133Y0044394D01*
X0067994Y0045533D01*
X0066506Y0046150D01*
X0064894Y0046150D01*
X0063406Y0045533D01*
X0062825Y0044952D01*
X0062106Y0045250D01*
X0060494Y0045250D01*
X0059006Y0044633D01*
X0057867Y0043494D01*
X0057250Y0042006D01*
X0057250Y0040394D01*
X0057867Y0038906D01*
X0057851Y0038943D02*
X0012509Y0038943D01*
X0012558Y0037945D02*
X0058828Y0037945D01*
X0057437Y0039942D02*
X0012461Y0039942D01*
X0012412Y0040940D02*
X0057250Y0040940D01*
X0057250Y0041939D02*
X0012364Y0041939D01*
X0012315Y0042937D02*
X0057636Y0042937D01*
X0058308Y0043936D02*
X0012266Y0043936D01*
X0012218Y0044934D02*
X0059733Y0044934D01*
X0064371Y0045933D02*
X0012169Y0045933D01*
X0012120Y0046932D02*
X0074051Y0046932D01*
X0073750Y0046206D02*
X0073750Y0044849D01*
X0072506Y0044333D01*
X0071367Y0043194D01*
X0070750Y0041706D01*
X0070750Y0040094D01*
X0071367Y0038606D01*
X0072506Y0037467D01*
X0073994Y0036850D01*
X0075606Y0036850D01*
X0077094Y0037467D01*
X0078233Y0038606D01*
X0078850Y0040094D01*
X0078850Y0041451D01*
X0080094Y0041967D01*
X0081233Y0043106D01*
X0081850Y0044594D01*
X0081850Y0046206D01*
X0081233Y0047694D01*
X0080094Y0048833D01*
X0078606Y0049450D01*
X0076994Y0049450D01*
X0075506Y0048833D01*
X0074367Y0047694D01*
X0073750Y0046206D01*
X0073750Y0045933D02*
X0067029Y0045933D01*
X0068593Y0044934D02*
X0073750Y0044934D01*
X0072108Y0043936D02*
X0069323Y0043936D01*
X0069737Y0042937D02*
X0071260Y0042937D01*
X0070847Y0041939D02*
X0069750Y0041939D01*
X0069603Y0040940D02*
X0070750Y0040940D01*
X0070813Y0039942D02*
X0069190Y0039942D01*
X0068271Y0038943D02*
X0071227Y0038943D01*
X0072028Y0037945D02*
X0063772Y0037945D01*
X0073762Y0036946D02*
X0012607Y0036946D01*
X0012655Y0035948D02*
X0167116Y0035948D01*
X0167165Y0035568D02*
X0167165Y0035568D01*
X0166986Y0036946D02*
X0075838Y0036946D01*
X0077572Y0037945D02*
X0166857Y0037945D01*
X0166728Y0038943D02*
X0078373Y0038943D01*
X0078787Y0039942D02*
X0166599Y0039942D01*
X0166469Y0040940D02*
X0078850Y0040940D01*
X0080027Y0041939D02*
X0166340Y0041939D01*
X0166211Y0042937D02*
X0081065Y0042937D01*
X0081577Y0043936D02*
X0166082Y0043936D01*
X0165992Y0044628D02*
X0165992Y0044628D01*
X0165993Y0044934D02*
X0081850Y0044934D01*
X0081850Y0045933D02*
X0165995Y0045933D01*
X0165997Y0046932D02*
X0081549Y0046932D01*
X0080998Y0047930D02*
X0166000Y0047930D01*
X0166002Y0048929D02*
X0139895Y0048929D01*
X0139706Y0048850D02*
X0141194Y0049467D01*
X0142333Y0050606D01*
X0142950Y0052094D01*
X0142950Y0053222D01*
X0144033Y0054306D01*
X0144650Y0055794D01*
X0144650Y0057406D01*
X0144033Y0058894D01*
X0142894Y0060033D01*
X0141406Y0060650D01*
X0139794Y0060650D01*
X0138307Y0060034D01*
X0138033Y0060694D01*
X0136894Y0061833D01*
X0135406Y0062450D01*
X0133794Y0062450D01*
X0132306Y0061833D01*
X0131167Y0060694D01*
X0130550Y0059206D01*
X0130550Y0057594D01*
X0131167Y0056106D01*
X0132306Y0054967D01*
X0133794Y0054350D01*
X0135117Y0054350D01*
X0134850Y0053706D01*
X0134850Y0052094D01*
X0135467Y0050606D01*
X0136606Y0049467D01*
X0138094Y0048850D01*
X0139706Y0048850D01*
X0137905Y0048929D02*
X0079864Y0048929D01*
X0075736Y0048929D02*
X0012023Y0048929D01*
X0011975Y0049927D02*
X0136145Y0049927D01*
X0135334Y0050926D02*
X0108853Y0050926D01*
X0108494Y0050567D02*
X0109633Y0051706D01*
X0110250Y0053194D01*
X0110250Y0054806D01*
X0109633Y0056294D01*
X0108494Y0057433D01*
X0107006Y0058050D01*
X0105394Y0058050D01*
X0103906Y0057433D01*
X0102767Y0056294D01*
X0102150Y0054806D01*
X0102150Y0053194D01*
X0102767Y0051706D01*
X0103906Y0050567D01*
X0105394Y0049950D01*
X0107006Y0049950D01*
X0108494Y0050567D01*
X0109724Y0051924D02*
X0123108Y0051924D01*
X0123006Y0051967D02*
X0124494Y0051350D01*
X0126106Y0051350D01*
X0127594Y0051967D01*
X0128733Y0053106D01*
X0129350Y0054594D01*
X0129350Y0056206D01*
X0128733Y0057694D01*
X0127594Y0058833D01*
X0126106Y0059450D01*
X0124494Y0059450D01*
X0123006Y0058833D01*
X0121867Y0057694D01*
X0121250Y0056206D01*
X0121250Y0054594D01*
X0121867Y0053106D01*
X0123006Y0051967D01*
X0122050Y0052923D02*
X0110137Y0052923D01*
X0110250Y0053921D02*
X0121529Y0053921D01*
X0121250Y0054920D02*
X0110203Y0054920D01*
X0109789Y0055918D02*
X0121250Y0055918D01*
X0121545Y0056917D02*
X0109011Y0056917D01*
X0107331Y0057915D02*
X0122088Y0057915D01*
X0123200Y0058914D02*
X0100564Y0058914D01*
X0100583Y0058894D02*
X0099444Y0060033D01*
X0097956Y0060650D01*
X0096344Y0060650D01*
X0095731Y0060396D01*
X0094794Y0061333D01*
X0093306Y0061950D01*
X0091694Y0061950D01*
X0090206Y0061333D01*
X0089067Y0060194D01*
X0088450Y0058706D01*
X0088450Y0057094D01*
X0089067Y0055606D01*
X0090206Y0054467D01*
X0091694Y0053850D01*
X0093306Y0053850D01*
X0093919Y0054104D01*
X0094856Y0053167D01*
X0096344Y0052550D01*
X0097956Y0052550D01*
X0099444Y0053167D01*
X0100583Y0054306D01*
X0101200Y0055794D01*
X0101200Y0057406D01*
X0100583Y0058894D01*
X0100989Y0057915D02*
X0105069Y0057915D01*
X0103389Y0056917D02*
X0101200Y0056917D01*
X0101200Y0055918D02*
X0102611Y0055918D01*
X0102197Y0054920D02*
X0100838Y0054920D01*
X0100199Y0053921D02*
X0102150Y0053921D01*
X0102263Y0052923D02*
X0098855Y0052923D01*
X0102676Y0051924D02*
X0011877Y0051924D01*
X0011926Y0050926D02*
X0103547Y0050926D01*
X0099565Y0059912D02*
X0130843Y0059912D01*
X0130550Y0058914D02*
X0127400Y0058914D01*
X0128512Y0057915D02*
X0130550Y0057915D01*
X0130831Y0056917D02*
X0129055Y0056917D01*
X0129350Y0055918D02*
X0131354Y0055918D01*
X0132419Y0054920D02*
X0129350Y0054920D01*
X0129071Y0053921D02*
X0134939Y0053921D01*
X0134850Y0052923D02*
X0128550Y0052923D01*
X0127492Y0051924D02*
X0134921Y0051924D01*
X0141655Y0049927D02*
X0166004Y0049927D01*
X0166006Y0050926D02*
X0142466Y0050926D01*
X0142879Y0051924D02*
X0166008Y0051924D01*
X0166011Y0052923D02*
X0142950Y0052923D01*
X0143649Y0053921D02*
X0166034Y0053921D01*
X0166012Y0053763D02*
X0166012Y0053763D01*
X0166167Y0054920D02*
X0144288Y0054920D01*
X0144650Y0055918D02*
X0166301Y0055918D01*
X0166435Y0056917D02*
X0144650Y0056917D01*
X0144439Y0057915D02*
X0166550Y0057915D01*
X0166702Y0058914D02*
X0144014Y0058914D01*
X0143015Y0059912D02*
X0166896Y0059912D01*
X0167069Y0060911D02*
X0137817Y0060911D01*
X0136711Y0061909D02*
X0167242Y0061909D01*
X0167416Y0062908D02*
X0080103Y0062908D01*
X0080644Y0062683D02*
X0079156Y0063300D01*
X0078740Y0063300D01*
X0079041Y0063601D01*
X0079659Y0065093D01*
X0079659Y0066707D01*
X0079041Y0068199D01*
X0078379Y0068862D01*
X0080501Y0070635D01*
X0080241Y0070007D01*
X0080241Y0068393D01*
X0080859Y0066901D01*
X0082001Y0065759D01*
X0083493Y0065141D01*
X0085107Y0065141D01*
X0086599Y0065759D01*
X0087741Y0066901D01*
X0088359Y0068393D01*
X0088359Y0069796D01*
X0089494Y0070267D01*
X0090633Y0071406D01*
X0091250Y0072894D01*
X0091250Y0074506D01*
X0090633Y0075994D01*
X0090387Y0076241D01*
X0090907Y0076241D01*
X0092399Y0076859D01*
X0093541Y0078001D01*
X0094159Y0079493D01*
X0094159Y0081107D01*
X0093541Y0082599D01*
X0092399Y0083741D01*
X0090907Y0084359D01*
X0089293Y0084359D01*
X0088860Y0084180D01*
X0087999Y0085041D01*
X0086507Y0085659D01*
X0084893Y0085659D01*
X0083401Y0085041D01*
X0082960Y0084600D01*
X0081803Y0084600D01*
X0080701Y0084143D01*
X0064516Y0067959D01*
X0063893Y0067959D01*
X0062401Y0067341D01*
X0061259Y0066199D01*
X0060641Y0064707D01*
X0060641Y0063093D01*
X0060783Y0062750D01*
X0060194Y0062750D01*
X0058706Y0062133D01*
X0057567Y0060994D01*
X0056950Y0059506D01*
X0056950Y0057894D01*
X0057567Y0056406D01*
X0058706Y0055267D01*
X0060194Y0054650D01*
X0061806Y0054650D01*
X0063294Y0055267D01*
X0063694Y0055666D01*
X0063701Y0055659D01*
X0065193Y0055041D01*
X0066807Y0055041D01*
X0068299Y0055659D01*
X0069441Y0056801D01*
X0070059Y0058293D01*
X0070059Y0058916D01*
X0070299Y0059157D01*
X0071143Y0060001D01*
X0071600Y0061103D01*
X0071600Y0063197D01*
X0072139Y0063648D01*
X0072159Y0063601D01*
X0073301Y0062459D01*
X0074793Y0061841D01*
X0075213Y0061841D01*
X0074917Y0061544D01*
X0074300Y0060056D01*
X0074300Y0058444D01*
X0074917Y0056956D01*
X0076056Y0055817D01*
X0077544Y0055200D01*
X0079156Y0055200D01*
X0080644Y0055817D01*
X0081783Y0056956D01*
X0082400Y0058444D01*
X0082400Y0060056D01*
X0081783Y0061544D01*
X0080644Y0062683D01*
X0081418Y0061909D02*
X0091596Y0061909D01*
X0093404Y0061909D02*
X0132489Y0061909D01*
X0131383Y0060911D02*
X0095217Y0060911D01*
X0089783Y0060911D02*
X0082046Y0060911D01*
X0082400Y0059912D02*
X0088950Y0059912D01*
X0088536Y0058914D02*
X0082400Y0058914D01*
X0082181Y0057915D02*
X0088450Y0057915D01*
X0088524Y0056917D02*
X0081744Y0056917D01*
X0080746Y0055918D02*
X0088937Y0055918D01*
X0089753Y0054920D02*
X0062456Y0054920D01*
X0059543Y0054920D02*
X0011732Y0054920D01*
X0011683Y0055918D02*
X0058054Y0055918D01*
X0057355Y0056917D02*
X0023358Y0056917D01*
X0022956Y0056750D02*
X0024444Y0057367D01*
X0025583Y0058506D01*
X0026200Y0059994D01*
X0026200Y0061606D01*
X0025583Y0063094D01*
X0024444Y0064233D01*
X0022956Y0064850D01*
X0021344Y0064850D01*
X0019856Y0064233D01*
X0018717Y0063094D01*
X0018100Y0061606D01*
X0018100Y0059994D01*
X0018717Y0058506D01*
X0019856Y0057367D01*
X0021344Y0056750D01*
X0022956Y0056750D01*
X0020942Y0056917D02*
X0011634Y0056917D01*
X0011586Y0057915D02*
X0019307Y0057915D01*
X0018548Y0058914D02*
X0011537Y0058914D01*
X0011489Y0059912D02*
X0018134Y0059912D01*
X0018100Y0060911D02*
X0011440Y0060911D01*
X0011391Y0061909D02*
X0018226Y0061909D01*
X0018639Y0062908D02*
X0011343Y0062908D01*
X0011294Y0063906D02*
X0019529Y0063906D01*
X0024771Y0063906D02*
X0030300Y0063906D01*
X0030300Y0064206D02*
X0030300Y0062594D01*
X0030917Y0061106D01*
X0032056Y0059967D01*
X0033544Y0059350D01*
X0035156Y0059350D01*
X0036644Y0059967D01*
X0037783Y0061106D01*
X0038400Y0062594D01*
X0038400Y0064206D01*
X0037783Y0065694D01*
X0037653Y0065825D01*
X0038333Y0066506D01*
X0038950Y0067994D01*
X0038950Y0069606D01*
X0038797Y0069976D01*
X0039506Y0069267D01*
X0040994Y0068650D01*
X0042606Y0068650D01*
X0044094Y0069267D01*
X0045233Y0070406D01*
X0045850Y0071894D01*
X0059565Y0071894D01*
X0059259Y0072201D02*
X0060401Y0071059D01*
X0061893Y0070441D01*
X0063507Y0070441D01*
X0064999Y0071059D01*
X0066141Y0072201D01*
X0066759Y0073693D01*
X0066759Y0073950D01*
X0067406Y0073950D01*
X0068894Y0074567D01*
X0070033Y0075706D01*
X0070650Y0077194D01*
X0070650Y0078806D01*
X0070033Y0080294D01*
X0068894Y0081433D01*
X0067406Y0082050D01*
X0065794Y0082050D01*
X0064306Y0081433D01*
X0063167Y0080294D01*
X0062718Y0079210D01*
X0061794Y0080133D01*
X0061094Y0080423D01*
X0061094Y0080662D01*
X0060478Y0082150D01*
X0059338Y0083289D01*
X0057850Y0083906D01*
X0056238Y0083906D01*
X0054750Y0083289D01*
X0053611Y0082150D01*
X0052994Y0080662D01*
X0052994Y0079050D01*
X0053611Y0077562D01*
X0054750Y0076422D01*
X0055450Y0076133D01*
X0055450Y0075894D01*
X0056067Y0074406D01*
X0057206Y0073267D01*
X0058694Y0072650D01*
X0059073Y0072650D01*
X0059259Y0072201D01*
X0058108Y0072893D02*
X0045850Y0072893D01*
X0045850Y0073506D02*
X0045500Y0074350D01*
X0045606Y0074350D01*
X0047094Y0074967D01*
X0048233Y0076106D01*
X0048850Y0077594D01*
X0048850Y0079206D01*
X0048233Y0080694D01*
X0047094Y0081833D01*
X0045606Y0082450D01*
X0043994Y0082450D01*
X0042506Y0081833D01*
X0041367Y0080694D01*
X0040750Y0079206D01*
X0040750Y0077594D01*
X0041100Y0076750D01*
X0040994Y0076750D01*
X0039506Y0076133D01*
X0038367Y0074994D01*
X0037750Y0073506D01*
X0037750Y0071894D01*
X0037533Y0071894D01*
X0037750Y0071894D02*
X0037903Y0071524D01*
X0037194Y0072233D01*
X0035706Y0072850D01*
X0034094Y0072850D01*
X0032606Y0072233D01*
X0031467Y0071094D01*
X0030850Y0069606D01*
X0030850Y0067994D01*
X0031467Y0066506D01*
X0031597Y0066375D01*
X0030917Y0065694D01*
X0030300Y0064206D01*
X0030590Y0064905D02*
X0011245Y0064905D01*
X0011197Y0065903D02*
X0031126Y0065903D01*
X0031303Y0066902D02*
X0011148Y0066902D01*
X0011100Y0067900D02*
X0030889Y0067900D01*
X0030850Y0068899D02*
X0011051Y0068899D01*
X0011002Y0069897D02*
X0030971Y0069897D01*
X0031384Y0070896D02*
X0010954Y0070896D01*
X0010905Y0071894D02*
X0032267Y0071894D01*
X0028900Y0075450D02*
X0028900Y0056800D01*
X0029850Y0055850D01*
X0032187Y0059912D02*
X0026166Y0059912D01*
X0026200Y0060911D02*
X0031112Y0060911D01*
X0030584Y0061909D02*
X0026074Y0061909D01*
X0025661Y0062908D02*
X0030300Y0062908D01*
X0025752Y0058914D02*
X0056950Y0058914D01*
X0056950Y0057915D02*
X0024993Y0057915D01*
X0036513Y0059912D02*
X0057118Y0059912D01*
X0057532Y0060911D02*
X0037588Y0060911D01*
X0038116Y0061909D02*
X0058482Y0061909D01*
X0060718Y0062908D02*
X0038400Y0062908D01*
X0038400Y0063906D02*
X0060641Y0063906D01*
X0060723Y0064905D02*
X0038110Y0064905D01*
X0037731Y0065903D02*
X0061136Y0065903D01*
X0061961Y0066902D02*
X0038497Y0066902D01*
X0038911Y0067900D02*
X0063751Y0067900D01*
X0065456Y0068899D02*
X0043206Y0068899D01*
X0044725Y0069897D02*
X0066455Y0069897D01*
X0067453Y0070896D02*
X0064605Y0070896D01*
X0065835Y0071894D02*
X0068452Y0071894D01*
X0069450Y0072893D02*
X0066428Y0072893D01*
X0066759Y0073891D02*
X0070449Y0073891D01*
X0071447Y0074890D02*
X0069217Y0074890D01*
X0070109Y0075888D02*
X0072446Y0075888D01*
X0073444Y0076887D02*
X0070523Y0076887D01*
X0070650Y0077885D02*
X0074443Y0077885D01*
X0075441Y0078884D02*
X0070618Y0078884D01*
X0070204Y0079882D02*
X0076440Y0079882D01*
X0077438Y0080881D02*
X0069447Y0080881D01*
X0067817Y0081879D02*
X0078437Y0081879D01*
X0079435Y0082878D02*
X0059750Y0082878D01*
X0060590Y0081879D02*
X0065383Y0081879D01*
X0063753Y0080881D02*
X0061003Y0080881D01*
X0062045Y0079882D02*
X0062996Y0079882D01*
X0064694Y0085950D02*
X0066306Y0085950D01*
X0067794Y0086567D01*
X0068000Y0086772D01*
X0068106Y0086667D01*
X0069594Y0086050D01*
X0071206Y0086050D01*
X0072694Y0086667D01*
X0073480Y0087453D01*
X0074694Y0086950D01*
X0076306Y0086950D01*
X0077794Y0087567D01*
X0078933Y0088706D01*
X0079550Y0090194D01*
X0079550Y0091806D01*
X0078933Y0093294D01*
X0077794Y0094433D01*
X0076306Y0095050D01*
X0074694Y0095050D01*
X0073206Y0094433D01*
X0072420Y0093647D01*
X0071206Y0094150D01*
X0069594Y0094150D01*
X0068106Y0093533D01*
X0067900Y0093328D01*
X0067794Y0093433D01*
X0066306Y0094050D01*
X0066249Y0094050D01*
X0065733Y0095294D01*
X0064594Y0096433D01*
X0063106Y0097050D01*
X0061494Y0097050D01*
X0060006Y0096433D01*
X0058867Y0095294D01*
X0058250Y0093806D01*
X0058250Y0092194D01*
X0058867Y0090706D01*
X0060006Y0089567D01*
X0061494Y0088950D01*
X0061551Y0088950D01*
X0062067Y0087706D01*
X0063206Y0086567D01*
X0064694Y0085950D01*
X0062900Y0086872D02*
X0046541Y0086872D01*
X0046006Y0086650D02*
X0047494Y0087267D01*
X0048633Y0088406D01*
X0049250Y0089894D01*
X0049250Y0091506D01*
X0048633Y0092994D01*
X0047494Y0094133D01*
X0046006Y0094750D01*
X0044394Y0094750D01*
X0042906Y0094133D01*
X0041767Y0092994D01*
X0041150Y0091506D01*
X0041150Y0089894D01*
X0041767Y0088406D01*
X0042906Y0087267D01*
X0044394Y0086650D01*
X0046006Y0086650D01*
X0043858Y0086872D02*
X0038581Y0086872D01*
X0038650Y0086706D02*
X0038033Y0088194D01*
X0036894Y0089333D01*
X0035406Y0089950D01*
X0033794Y0089950D01*
X0032306Y0089333D01*
X0031167Y0088194D01*
X0030550Y0086706D01*
X0030550Y0085094D01*
X0031167Y0083606D01*
X0032306Y0082467D01*
X0033794Y0081850D01*
X0035406Y0081850D01*
X0036894Y0082467D01*
X0038033Y0083606D01*
X0038650Y0085094D01*
X0038650Y0086706D01*
X0038650Y0085873D02*
X0105550Y0085873D01*
X0105550Y0086206D02*
X0105550Y0084594D01*
X0105643Y0084370D01*
X0105167Y0083894D01*
X0104550Y0082406D01*
X0104550Y0080794D01*
X0105167Y0079306D01*
X0106306Y0078167D01*
X0107794Y0077550D01*
X0109406Y0077550D01*
X0110894Y0078167D01*
X0112033Y0079306D01*
X0112650Y0080794D01*
X0112650Y0082406D01*
X0112557Y0082630D01*
X0113033Y0083106D01*
X0113650Y0084594D01*
X0113650Y0086206D01*
X0113557Y0086430D01*
X0114033Y0086906D01*
X0114650Y0088394D01*
X0114650Y0090006D01*
X0114033Y0091494D01*
X0112894Y0092633D01*
X0111406Y0093250D01*
X0109794Y0093250D01*
X0108306Y0092633D01*
X0107167Y0091494D01*
X0106550Y0090006D01*
X0106550Y0088394D01*
X0106643Y0088170D01*
X0106167Y0087694D01*
X0105550Y0086206D01*
X0105826Y0086872D02*
X0072900Y0086872D01*
X0078098Y0087870D02*
X0106343Y0087870D01*
X0106550Y0088869D02*
X0085276Y0088869D01*
X0085994Y0089167D02*
X0084506Y0088550D01*
X0082894Y0088550D01*
X0081406Y0089167D01*
X0080267Y0090306D01*
X0079650Y0091794D01*
X0079650Y0093406D01*
X0080267Y0094894D01*
X0081406Y0096033D01*
X0082894Y0096650D01*
X0084506Y0096650D01*
X0085994Y0096033D01*
X0087133Y0094894D01*
X0087750Y0093406D01*
X0087750Y0091794D01*
X0087133Y0090306D01*
X0085994Y0089167D01*
X0086695Y0089868D02*
X0106550Y0089868D01*
X0106906Y0090866D02*
X0087365Y0090866D01*
X0087750Y0091865D02*
X0107537Y0091865D01*
X0108860Y0092863D02*
X0087750Y0092863D01*
X0087561Y0093862D02*
X0174498Y0093862D01*
X0173828Y0092863D02*
X0112340Y0092863D01*
X0113663Y0091865D02*
X0173372Y0091865D01*
X0172915Y0090866D02*
X0114294Y0090866D01*
X0114650Y0089868D02*
X0172459Y0089868D01*
X0171916Y0088869D02*
X0114650Y0088869D01*
X0114433Y0087870D02*
X0171645Y0087870D01*
X0171493Y0086872D02*
X0114000Y0086872D01*
X0113650Y0085873D02*
X0171341Y0085873D01*
X0171188Y0084875D02*
X0113650Y0084875D01*
X0113353Y0083876D02*
X0171036Y0083876D01*
X0170877Y0082878D02*
X0112805Y0082878D01*
X0112650Y0081879D02*
X0170704Y0081879D01*
X0170531Y0080881D02*
X0112650Y0080881D01*
X0112272Y0079882D02*
X0135155Y0079882D01*
X0135506Y0080233D02*
X0134367Y0079094D01*
X0133750Y0077606D01*
X0133750Y0075994D01*
X0134367Y0074506D01*
X0135506Y0073367D01*
X0136994Y0072750D01*
X0138606Y0072750D01*
X0140094Y0073367D01*
X0141233Y0074506D01*
X0141850Y0075994D01*
X0141850Y0077606D01*
X0141233Y0079094D01*
X0140094Y0080233D01*
X0138606Y0080850D01*
X0136994Y0080850D01*
X0135506Y0080233D01*
X0134279Y0078884D02*
X0111611Y0078884D01*
X0110215Y0077885D02*
X0133866Y0077885D01*
X0133750Y0076887D02*
X0092427Y0076887D01*
X0093426Y0077885D02*
X0106985Y0077885D01*
X0105589Y0078884D02*
X0093907Y0078884D01*
X0094159Y0079882D02*
X0104928Y0079882D01*
X0104550Y0080881D02*
X0094159Y0080881D01*
X0093839Y0081879D02*
X0104550Y0081879D01*
X0104746Y0082878D02*
X0093262Y0082878D01*
X0092073Y0083876D02*
X0105159Y0083876D01*
X0105550Y0084875D02*
X0088165Y0084875D01*
X0085700Y0081600D02*
X0082400Y0081600D01*
X0064700Y0063900D01*
X0068600Y0064600D02*
X0068600Y0061700D01*
X0066000Y0059100D01*
X0068558Y0055918D02*
X0075954Y0055918D01*
X0074956Y0056917D02*
X0069489Y0056917D01*
X0069903Y0057915D02*
X0074519Y0057915D01*
X0074300Y0058914D02*
X0070059Y0058914D01*
X0071055Y0059912D02*
X0074300Y0059912D01*
X0074654Y0060911D02*
X0071520Y0060911D01*
X0071600Y0061909D02*
X0074628Y0061909D01*
X0072852Y0062908D02*
X0071600Y0062908D01*
X0068600Y0064600D02*
X0083200Y0076800D01*
X0090100Y0080300D01*
X0090677Y0075888D02*
X0133794Y0075888D01*
X0134208Y0074890D02*
X0091091Y0074890D01*
X0091250Y0073891D02*
X0134981Y0073891D01*
X0136650Y0072893D02*
X0091249Y0072893D01*
X0090836Y0071894D02*
X0168973Y0071894D01*
X0168800Y0070896D02*
X0090123Y0070896D01*
X0088603Y0069897D02*
X0168627Y0069897D01*
X0168454Y0068899D02*
X0088359Y0068899D01*
X0088155Y0067900D02*
X0168281Y0067900D01*
X0168108Y0066902D02*
X0087742Y0066902D01*
X0086744Y0065903D02*
X0167935Y0065903D01*
X0167762Y0064905D02*
X0079581Y0064905D01*
X0079659Y0065903D02*
X0081856Y0065903D01*
X0080858Y0066902D02*
X0079579Y0066902D01*
X0079165Y0067900D02*
X0080445Y0067900D01*
X0080241Y0068899D02*
X0078423Y0068899D01*
X0079618Y0069897D02*
X0080241Y0069897D01*
X0079168Y0063906D02*
X0167589Y0063906D01*
X0169146Y0072893D02*
X0138950Y0072893D01*
X0140619Y0073891D02*
X0169319Y0073891D01*
X0169492Y0074890D02*
X0141392Y0074890D01*
X0141806Y0075888D02*
X0169666Y0075888D01*
X0169839Y0076887D02*
X0141850Y0076887D01*
X0141734Y0077885D02*
X0170012Y0077885D01*
X0170185Y0078884D02*
X0141321Y0078884D01*
X0140445Y0079882D02*
X0170358Y0079882D01*
X0175186Y0094860D02*
X0087148Y0094860D01*
X0086169Y0095859D02*
X0175874Y0095859D01*
X0176562Y0096857D02*
X0063571Y0096857D01*
X0065169Y0095859D02*
X0081231Y0095859D01*
X0080252Y0094860D02*
X0076764Y0094860D01*
X0078366Y0093862D02*
X0079839Y0093862D01*
X0079650Y0092863D02*
X0079112Y0092863D01*
X0079526Y0091865D02*
X0079650Y0091865D01*
X0079550Y0090866D02*
X0080035Y0090866D01*
X0079415Y0089868D02*
X0080705Y0089868D01*
X0082124Y0088869D02*
X0079001Y0088869D01*
X0080434Y0083876D02*
X0057921Y0083876D01*
X0056167Y0083876D02*
X0038145Y0083876D01*
X0038559Y0084875D02*
X0083235Y0084875D01*
X0074236Y0094860D02*
X0065913Y0094860D01*
X0066761Y0093862D02*
X0068898Y0093862D01*
X0071902Y0093862D02*
X0072634Y0093862D01*
X0069706Y0100250D02*
X0071194Y0100867D01*
X0072333Y0102006D01*
X0072636Y0102736D01*
X0072806Y0102567D01*
X0074294Y0101950D01*
X0075883Y0101950D01*
X0076067Y0101506D01*
X0077206Y0100367D01*
X0078694Y0099750D01*
X0080306Y0099750D01*
X0081794Y0100367D01*
X0082933Y0101506D01*
X0083148Y0102024D01*
X0083406Y0101767D01*
X0084894Y0101150D01*
X0086506Y0101150D01*
X0087994Y0101767D01*
X0089133Y0102906D01*
X0089582Y0103990D01*
X0090506Y0103067D01*
X0091994Y0102450D01*
X0093606Y0102450D01*
X0095094Y0103067D01*
X0096233Y0104206D01*
X0096850Y0105694D01*
X0096850Y0107306D01*
X0096233Y0108794D01*
X0095094Y0109933D01*
X0093606Y0110550D01*
X0091994Y0110550D01*
X0090506Y0109933D01*
X0089367Y0108794D01*
X0088918Y0107710D01*
X0087994Y0108633D01*
X0086506Y0109250D01*
X0084894Y0109250D01*
X0083406Y0108633D01*
X0082267Y0107494D01*
X0082052Y0106976D01*
X0081794Y0107233D01*
X0080306Y0107850D01*
X0078717Y0107850D01*
X0078533Y0108294D01*
X0077394Y0109433D01*
X0075906Y0110050D01*
X0074294Y0110050D01*
X0072806Y0109433D01*
X0071667Y0108294D01*
X0071364Y0107564D01*
X0071194Y0107733D01*
X0069706Y0108350D01*
X0068094Y0108350D01*
X0066606Y0107733D01*
X0065467Y0106594D01*
X0064850Y0105106D01*
X0064850Y0103494D01*
X0065467Y0102006D01*
X0066606Y0100867D01*
X0068094Y0100250D01*
X0069706Y0100250D01*
X0071157Y0100851D02*
X0076721Y0100851D01*
X0075924Y0101850D02*
X0072177Y0101850D01*
X0066643Y0100851D02*
X0009495Y0100851D01*
X0009544Y0099853D02*
X0078447Y0099853D01*
X0080553Y0099853D02*
X0178625Y0099853D01*
X0177937Y0098854D02*
X0009593Y0098854D01*
X0009641Y0097856D02*
X0177250Y0097856D01*
X0179591Y0100851D02*
X0082279Y0100851D01*
X0083076Y0101850D02*
X0083323Y0101850D01*
X0088077Y0101850D02*
X0180575Y0101850D01*
X0181362Y0102848D02*
X0094567Y0102848D01*
X0095874Y0103847D02*
X0182192Y0103847D01*
X0183525Y0104845D02*
X0096498Y0104845D01*
X0096850Y0105844D02*
X0184508Y0105844D01*
X0184606Y0105943D02*
X0184606Y0105943D01*
X0185870Y0106842D02*
X0096850Y0106842D01*
X0096628Y0107841D02*
X0187273Y0107841D01*
X0188676Y0108839D02*
X0096188Y0108839D01*
X0095190Y0109838D02*
X0190079Y0109838D01*
X0191483Y0110836D02*
X0009009Y0110836D01*
X0009058Y0109838D02*
X0051682Y0109838D01*
X0052194Y0110050D02*
X0050706Y0109433D01*
X0049567Y0108294D01*
X0048950Y0106806D01*
X0048950Y0105194D01*
X0049567Y0103706D01*
X0050706Y0102567D01*
X0052194Y0101950D01*
X0053806Y0101950D01*
X0055294Y0102567D01*
X0056433Y0103706D01*
X0057050Y0105194D01*
X0057050Y0106806D01*
X0056433Y0108294D01*
X0055294Y0109433D01*
X0053806Y0110050D01*
X0052194Y0110050D01*
X0054318Y0109838D02*
X0073782Y0109838D01*
X0072212Y0108839D02*
X0055888Y0108839D01*
X0056621Y0107841D02*
X0066865Y0107841D01*
X0065715Y0106842D02*
X0057035Y0106842D01*
X0057050Y0105844D02*
X0065156Y0105844D01*
X0064850Y0104845D02*
X0056905Y0104845D01*
X0056492Y0103847D02*
X0064850Y0103847D01*
X0065118Y0102848D02*
X0055576Y0102848D01*
X0050424Y0102848D02*
X0009398Y0102848D01*
X0009447Y0101850D02*
X0065623Y0101850D01*
X0061029Y0096857D02*
X0009690Y0096857D01*
X0009738Y0095859D02*
X0059431Y0095859D01*
X0058687Y0094860D02*
X0009787Y0094860D01*
X0009836Y0093862D02*
X0042634Y0093862D01*
X0041712Y0092863D02*
X0009884Y0092863D01*
X0009933Y0091865D02*
X0041299Y0091865D01*
X0041150Y0090866D02*
X0009982Y0090866D01*
X0010030Y0089868D02*
X0033595Y0089868D01*
X0035605Y0089868D02*
X0041161Y0089868D01*
X0041575Y0088869D02*
X0037359Y0088869D01*
X0038167Y0087870D02*
X0042302Y0087870D01*
X0048098Y0087870D02*
X0061998Y0087870D01*
X0061585Y0088869D02*
X0048825Y0088869D01*
X0049239Y0089868D02*
X0059705Y0089868D01*
X0058800Y0090866D02*
X0049250Y0090866D01*
X0049101Y0091865D02*
X0058387Y0091865D01*
X0058250Y0092863D02*
X0048688Y0092863D01*
X0047766Y0093862D02*
X0058273Y0093862D01*
X0049508Y0103847D02*
X0009350Y0103847D01*
X0009301Y0104845D02*
X0049095Y0104845D01*
X0048950Y0105844D02*
X0009252Y0105844D01*
X0009204Y0106842D02*
X0048965Y0106842D01*
X0049379Y0107841D02*
X0009155Y0107841D01*
X0009107Y0108839D02*
X0050112Y0108839D01*
X0060506Y0123567D02*
X0059367Y0124706D01*
X0058750Y0126194D01*
X0058750Y0127806D01*
X0059367Y0129294D01*
X0060506Y0130433D01*
X0061994Y0131050D01*
X0063606Y0131050D01*
X0065094Y0130433D01*
X0066233Y0129294D01*
X0066850Y0127806D01*
X0066850Y0126194D01*
X0066233Y0124706D01*
X0065094Y0123567D01*
X0063606Y0122950D01*
X0061994Y0122950D01*
X0060506Y0123567D01*
X0060256Y0123817D02*
X0015514Y0123817D01*
X0015518Y0124815D02*
X0017278Y0124815D01*
X0016937Y0124957D02*
X0015454Y0126440D01*
X0014651Y0128377D01*
X0014651Y0130474D01*
X0015454Y0132412D01*
X0016937Y0133895D01*
X0018875Y0134697D01*
X0020972Y0134697D01*
X0022909Y0133895D01*
X0024392Y0132412D01*
X0025195Y0130474D01*
X0025195Y0128377D01*
X0024392Y0126440D01*
X0022909Y0124957D01*
X0020972Y0124154D01*
X0018875Y0124154D01*
X0016937Y0124957D01*
X0016080Y0125814D02*
X0015518Y0125814D01*
X0015300Y0126812D02*
X0015277Y0126812D01*
X0014886Y0127811D02*
X0014864Y0127811D01*
X0014651Y0128809D02*
X0014241Y0128809D01*
X0014651Y0129808D02*
X0013242Y0129808D01*
X0014789Y0130806D02*
X0011319Y0130806D01*
X0007988Y0131805D02*
X0015203Y0131805D01*
X0015846Y0132803D02*
X0007940Y0132803D01*
X0007891Y0133802D02*
X0016844Y0133802D01*
X0023002Y0133802D02*
X0248113Y0133802D01*
X0248065Y0132803D02*
X0024001Y0132803D01*
X0024644Y0131805D02*
X0212465Y0131805D01*
X0210729Y0130806D02*
X0144847Y0130806D01*
X0145144Y0130683D02*
X0143656Y0131300D01*
X0142044Y0131300D01*
X0140556Y0130683D01*
X0139417Y0129544D01*
X0138800Y0128056D01*
X0138800Y0126444D01*
X0139417Y0124956D01*
X0140556Y0123817D01*
X0141426Y0123456D01*
X0140406Y0123033D01*
X0139267Y0121894D01*
X0138650Y0120406D01*
X0138650Y0118794D01*
X0139267Y0117306D01*
X0140406Y0116167D01*
X0141894Y0115550D01*
X0143506Y0115550D01*
X0144994Y0116167D01*
X0146133Y0117306D01*
X0146750Y0118794D01*
X0146750Y0120406D01*
X0146133Y0121894D01*
X0144994Y0123033D01*
X0144124Y0123394D01*
X0145144Y0123817D01*
X0146283Y0124956D01*
X0146900Y0126444D01*
X0146900Y0128056D01*
X0146283Y0129544D01*
X0145144Y0130683D01*
X0146020Y0129808D02*
X0209927Y0129808D01*
X0209514Y0128809D02*
X0206878Y0128809D01*
X0208267Y0127811D02*
X0209450Y0127811D01*
X0214535Y0131805D02*
X0248017Y0131805D01*
X0247969Y0130806D02*
X0216271Y0130806D01*
X0217073Y0129808D02*
X0247921Y0129808D01*
X0245080Y0128809D02*
X0217486Y0128809D01*
X0217550Y0127811D02*
X0241913Y0127811D01*
X0238745Y0126812D02*
X0217454Y0126812D01*
X0219564Y0125814D02*
X0235578Y0125814D01*
X0232410Y0124815D02*
X0220457Y0124815D01*
X0220871Y0123817D02*
X0229242Y0123817D01*
X0226075Y0122818D02*
X0221000Y0122818D01*
X0220969Y0121820D02*
X0222907Y0121820D01*
X0209494Y0139067D02*
X0208006Y0138450D01*
X0206394Y0138450D01*
X0204906Y0139067D01*
X0203767Y0140206D01*
X0203150Y0141694D01*
X0203150Y0143306D01*
X0203767Y0144794D01*
X0204111Y0145139D01*
X0203550Y0146494D01*
X0203550Y0148106D01*
X0204167Y0149594D01*
X0205306Y0150733D01*
X0206794Y0151350D01*
X0208406Y0151350D01*
X0209894Y0150733D01*
X0211033Y0149594D01*
X0211650Y0148106D01*
X0211650Y0146494D01*
X0211033Y0145006D01*
X0210689Y0144661D01*
X0211250Y0143306D01*
X0211250Y0141694D01*
X0210633Y0140206D01*
X0209494Y0139067D01*
X0208837Y0138795D02*
X0240528Y0138795D01*
X0240806Y0138517D02*
X0242294Y0137900D01*
X0243906Y0137900D01*
X0245394Y0138517D01*
X0246533Y0139656D01*
X0247150Y0141144D01*
X0247150Y0142756D01*
X0246533Y0144244D01*
X0245591Y0145186D01*
X0246050Y0146294D01*
X0246050Y0147906D01*
X0245433Y0149394D01*
X0244294Y0150533D01*
X0242806Y0151150D01*
X0241194Y0151150D01*
X0239706Y0150533D01*
X0238567Y0149394D01*
X0237950Y0147906D01*
X0237950Y0146294D01*
X0238567Y0144806D01*
X0239509Y0143864D01*
X0239050Y0142756D01*
X0239050Y0141144D01*
X0239667Y0139656D01*
X0240806Y0138517D01*
X0239610Y0139793D02*
X0210221Y0139793D01*
X0210876Y0140792D02*
X0239196Y0140792D01*
X0239050Y0141790D02*
X0211250Y0141790D01*
X0211250Y0142789D02*
X0239064Y0142789D01*
X0239477Y0143787D02*
X0211051Y0143787D01*
X0210813Y0144786D02*
X0238587Y0144786D01*
X0238161Y0145784D02*
X0211356Y0145784D01*
X0211650Y0146783D02*
X0237950Y0146783D01*
X0237950Y0147781D02*
X0211650Y0147781D01*
X0211371Y0148780D02*
X0238312Y0148780D01*
X0238951Y0149778D02*
X0210849Y0149778D01*
X0209790Y0150777D02*
X0240293Y0150777D01*
X0243707Y0150777D02*
X0248930Y0150777D01*
X0248978Y0151775D02*
X0192979Y0151775D01*
X0192735Y0152363D02*
X0191748Y0153350D01*
X0192735Y0154337D01*
X0193478Y0156130D01*
X0193478Y0158070D01*
X0192735Y0159863D01*
X0191748Y0160850D01*
X0192735Y0161837D01*
X0193478Y0163630D01*
X0193478Y0165570D01*
X0192735Y0167363D01*
X0191363Y0168735D01*
X0189570Y0169478D01*
X0187630Y0169478D01*
X0185837Y0168735D01*
X0184465Y0167363D01*
X0184255Y0166858D01*
X0184112Y0167072D01*
X0183572Y0167612D01*
X0182937Y0168037D01*
X0182231Y0168329D01*
X0181482Y0168478D01*
X0181289Y0168478D01*
X0181289Y0164789D01*
X0180911Y0164789D01*
X0180911Y0168478D01*
X0180718Y0168478D01*
X0179969Y0168329D01*
X0179263Y0168037D01*
X0178628Y0167612D01*
X0178088Y0167072D01*
X0177663Y0166437D01*
X0177371Y0165731D01*
X0177222Y0164982D01*
X0177222Y0164789D01*
X0180911Y0164789D01*
X0180911Y0164411D01*
X0177222Y0164411D01*
X0177222Y0164218D01*
X0177371Y0163469D01*
X0177663Y0162763D01*
X0178088Y0162128D01*
X0178628Y0161588D01*
X0178842Y0161445D01*
X0178337Y0161235D01*
X0176965Y0159863D01*
X0176222Y0158070D01*
X0176222Y0156130D01*
X0176965Y0154337D01*
X0177952Y0153350D01*
X0176965Y0152363D01*
X0176222Y0150570D01*
X0176222Y0148630D01*
X0176965Y0146837D01*
X0178337Y0145465D01*
X0180130Y0144722D01*
X0182070Y0144722D01*
X0183863Y0145465D01*
X0184850Y0146452D01*
X0185837Y0145465D01*
X0187630Y0144722D01*
X0189570Y0144722D01*
X0191363Y0145465D01*
X0192735Y0146837D01*
X0193478Y0148630D01*
X0193478Y0150570D01*
X0192735Y0152363D01*
X0192325Y0152774D02*
X0249026Y0152774D01*
X0249074Y0153772D02*
X0192171Y0153772D01*
X0192915Y0154771D02*
X0249122Y0154771D01*
X0249170Y0155769D02*
X0193329Y0155769D01*
X0193478Y0156768D02*
X0249219Y0156768D01*
X0249267Y0157766D02*
X0193478Y0157766D01*
X0193190Y0158765D02*
X0249315Y0158765D01*
X0249363Y0159763D02*
X0192777Y0159763D01*
X0191837Y0160762D02*
X0249411Y0160762D01*
X0249459Y0161760D02*
X0192659Y0161760D01*
X0193117Y0162759D02*
X0249507Y0162759D01*
X0249555Y0163757D02*
X0193478Y0163757D01*
X0193478Y0164756D02*
X0249603Y0164756D01*
X0249651Y0165754D02*
X0193402Y0165754D01*
X0192988Y0166753D02*
X0249699Y0166753D01*
X0249747Y0167751D02*
X0236716Y0167751D01*
X0236994Y0167867D02*
X0238133Y0169006D01*
X0238750Y0170494D01*
X0238750Y0172106D01*
X0238133Y0173594D01*
X0236994Y0174733D01*
X0235506Y0175350D01*
X0233894Y0175350D01*
X0232406Y0174733D01*
X0231267Y0173594D01*
X0230650Y0172106D01*
X0230650Y0170494D01*
X0231267Y0169006D01*
X0232406Y0167867D01*
X0233894Y0167250D01*
X0235506Y0167250D01*
X0236994Y0167867D01*
X0237877Y0168750D02*
X0249795Y0168750D01*
X0249843Y0169748D02*
X0238441Y0169748D01*
X0238750Y0170747D02*
X0249891Y0170747D01*
X0249939Y0171745D02*
X0238750Y0171745D01*
X0238486Y0172744D02*
X0249987Y0172744D01*
X0250036Y0173742D02*
X0237985Y0173742D01*
X0236976Y0174741D02*
X0250084Y0174741D01*
X0250132Y0175739D02*
X0221238Y0175739D01*
X0221494Y0175633D02*
X0220006Y0176250D01*
X0218394Y0176250D01*
X0216906Y0175633D01*
X0215767Y0174494D01*
X0215150Y0173006D01*
X0215150Y0171394D01*
X0215767Y0169906D01*
X0216906Y0168767D01*
X0218394Y0168150D01*
X0220006Y0168150D01*
X0221494Y0168767D01*
X0222633Y0169906D01*
X0223250Y0171394D01*
X0223250Y0173006D01*
X0222633Y0174494D01*
X0221494Y0175633D01*
X0222387Y0174741D02*
X0232424Y0174741D01*
X0231415Y0173742D02*
X0222945Y0173742D01*
X0223250Y0172744D02*
X0230914Y0172744D01*
X0230650Y0171745D02*
X0223250Y0171745D01*
X0222982Y0170747D02*
X0230650Y0170747D01*
X0230959Y0169748D02*
X0222476Y0169748D01*
X0221454Y0168750D02*
X0231523Y0168750D01*
X0232684Y0167751D02*
X0192347Y0167751D01*
X0191328Y0168750D02*
X0216946Y0168750D01*
X0215924Y0169748D02*
X0024553Y0169748D01*
X0024673Y0168750D02*
X0185872Y0168750D01*
X0184853Y0167751D02*
X0183364Y0167751D01*
X0181289Y0167751D02*
X0180911Y0167751D01*
X0180911Y0166753D02*
X0181289Y0166753D01*
X0181289Y0165754D02*
X0180911Y0165754D01*
X0180911Y0164756D02*
X0164439Y0164756D01*
X0164133Y0165494D02*
X0162994Y0166633D01*
X0161506Y0167250D01*
X0159894Y0167250D01*
X0158406Y0166633D01*
X0157267Y0165494D01*
X0156650Y0164006D01*
X0156650Y0162394D01*
X0157267Y0160906D01*
X0158406Y0159767D01*
X0159894Y0159150D01*
X0161506Y0159150D01*
X0162994Y0159767D01*
X0164133Y0160906D01*
X0164750Y0162394D01*
X0164750Y0164006D01*
X0164133Y0165494D01*
X0163873Y0165754D02*
X0177381Y0165754D01*
X0177875Y0166753D02*
X0162706Y0166753D01*
X0164750Y0163757D02*
X0177314Y0163757D01*
X0177666Y0162759D02*
X0164750Y0162759D01*
X0164487Y0161760D02*
X0178455Y0161760D01*
X0177863Y0160762D02*
X0163989Y0160762D01*
X0162986Y0159763D02*
X0176923Y0159763D01*
X0176510Y0158765D02*
X0114499Y0158765D01*
X0114433Y0158606D02*
X0115050Y0160094D01*
X0115050Y0161706D01*
X0114433Y0163194D01*
X0113294Y0164333D01*
X0111806Y0164950D01*
X0110194Y0164950D01*
X0108744Y0164349D01*
X0107656Y0164800D01*
X0106044Y0164800D01*
X0104556Y0164183D01*
X0103417Y0163044D01*
X0102800Y0161556D01*
X0102800Y0159944D01*
X0103417Y0158456D01*
X0104556Y0157317D01*
X0106044Y0156700D01*
X0107656Y0156700D01*
X0109106Y0157301D01*
X0110194Y0156850D01*
X0111806Y0156850D01*
X0113294Y0157467D01*
X0114433Y0158606D01*
X0113594Y0157766D02*
X0176222Y0157766D01*
X0176222Y0156768D02*
X0107819Y0156768D01*
X0105881Y0156768D02*
X0086150Y0156768D01*
X0086150Y0156194D02*
X0085533Y0154706D01*
X0084394Y0153567D01*
X0082906Y0152950D01*
X0081294Y0152950D01*
X0079806Y0153567D01*
X0078667Y0154706D01*
X0078050Y0156194D01*
X0078050Y0157806D01*
X0078667Y0159294D01*
X0079806Y0160433D01*
X0081294Y0161050D01*
X0082906Y0161050D01*
X0084394Y0160433D01*
X0085533Y0159294D01*
X0086150Y0157806D01*
X0086150Y0156194D01*
X0085974Y0155769D02*
X0176371Y0155769D01*
X0176785Y0154771D02*
X0085560Y0154771D01*
X0084600Y0153772D02*
X0177529Y0153772D01*
X0177375Y0152774D02*
X0059185Y0152774D01*
X0059400Y0152256D02*
X0058783Y0153744D01*
X0057644Y0154883D01*
X0056156Y0155500D01*
X0054544Y0155500D01*
X0053056Y0154883D01*
X0051917Y0153744D01*
X0051300Y0152256D01*
X0051300Y0150644D01*
X0051917Y0149156D01*
X0053056Y0148017D01*
X0054544Y0147400D01*
X0056156Y0147400D01*
X0057644Y0148017D01*
X0058783Y0149156D01*
X0059400Y0150644D01*
X0059400Y0152256D01*
X0059400Y0151775D02*
X0176721Y0151775D01*
X0176308Y0150777D02*
X0059400Y0150777D01*
X0059041Y0149778D02*
X0176222Y0149778D01*
X0176222Y0148780D02*
X0058407Y0148780D01*
X0057076Y0147781D02*
X0176574Y0147781D01*
X0177019Y0146783D02*
X0047550Y0146783D01*
X0047994Y0146967D02*
X0049133Y0148106D01*
X0049750Y0149594D01*
X0049750Y0151206D01*
X0049133Y0152694D01*
X0047994Y0153833D01*
X0046506Y0154450D01*
X0044894Y0154450D01*
X0043406Y0153833D01*
X0042267Y0152694D01*
X0041650Y0151206D01*
X0041650Y0149594D01*
X0042267Y0148106D01*
X0043406Y0146967D01*
X0044894Y0146350D01*
X0046506Y0146350D01*
X0047994Y0146967D01*
X0048006Y0145833D02*
X0046867Y0144694D01*
X0046250Y0143206D01*
X0046250Y0141594D01*
X0046867Y0140106D01*
X0048006Y0138967D01*
X0049494Y0138350D01*
X0051106Y0138350D01*
X0052594Y0138967D01*
X0053733Y0140106D01*
X0054350Y0141594D01*
X0054350Y0143206D01*
X0053733Y0144694D01*
X0052594Y0145833D01*
X0051106Y0146450D01*
X0049494Y0146450D01*
X0048006Y0145833D01*
X0047957Y0145784D02*
X0023212Y0145784D01*
X0023814Y0146783D02*
X0043850Y0146783D01*
X0042591Y0147781D02*
X0024227Y0147781D01*
X0024336Y0148780D02*
X0041987Y0148780D01*
X0041650Y0149778D02*
X0024336Y0149778D01*
X0024073Y0150777D02*
X0041650Y0150777D01*
X0041886Y0151775D02*
X0023659Y0151775D01*
X0022838Y0152774D02*
X0042346Y0152774D01*
X0043345Y0153772D02*
X0021541Y0153772D01*
X0016588Y0153772D02*
X0014313Y0153772D01*
X0014316Y0152774D02*
X0015291Y0152774D01*
X0014470Y0151775D02*
X0014316Y0151775D01*
X0013793Y0149778D02*
X0013661Y0149778D01*
X0013793Y0148780D02*
X0013037Y0148780D01*
X0013901Y0147781D02*
X0012039Y0147781D01*
X0010113Y0146783D02*
X0014315Y0146783D01*
X0014917Y0145784D02*
X0007316Y0145784D01*
X0007363Y0144786D02*
X0015916Y0144786D01*
X0022213Y0144786D02*
X0046958Y0144786D01*
X0046491Y0143787D02*
X0007411Y0143787D01*
X0007458Y0142789D02*
X0046250Y0142789D01*
X0046250Y0141790D02*
X0007505Y0141790D01*
X0007553Y0140792D02*
X0046583Y0140792D01*
X0047179Y0139793D02*
X0007600Y0139793D01*
X0007648Y0138795D02*
X0048421Y0138795D01*
X0052179Y0138795D02*
X0076330Y0138795D01*
X0076367Y0138706D02*
X0077506Y0137567D01*
X0078994Y0136950D01*
X0080606Y0136950D01*
X0082094Y0137567D01*
X0083233Y0138706D01*
X0083850Y0140194D01*
X0083850Y0141806D01*
X0083233Y0143294D01*
X0082094Y0144433D01*
X0080606Y0145050D01*
X0078994Y0145050D01*
X0077506Y0144433D01*
X0076367Y0143294D01*
X0075750Y0141806D01*
X0075750Y0140194D01*
X0076367Y0138706D01*
X0075916Y0139793D02*
X0053421Y0139793D01*
X0054017Y0140792D02*
X0075750Y0140792D01*
X0075750Y0141790D02*
X0054350Y0141790D01*
X0054350Y0142789D02*
X0076157Y0142789D01*
X0076860Y0143787D02*
X0054109Y0143787D01*
X0053642Y0144786D02*
X0078356Y0144786D01*
X0081244Y0144786D02*
X0179976Y0144786D01*
X0178017Y0145784D02*
X0052643Y0145784D01*
X0053624Y0147781D02*
X0048809Y0147781D01*
X0049413Y0148780D02*
X0052293Y0148780D01*
X0051659Y0149778D02*
X0049750Y0149778D01*
X0049750Y0150777D02*
X0051300Y0150777D01*
X0051300Y0151775D02*
X0049514Y0151775D01*
X0049054Y0152774D02*
X0051515Y0152774D01*
X0051945Y0153772D02*
X0048055Y0153772D01*
X0052943Y0154771D02*
X0013899Y0154771D01*
X0013486Y0155769D02*
X0078226Y0155769D01*
X0078050Y0156768D02*
X0012613Y0156768D01*
X0011992Y0157766D02*
X0011500Y0157766D01*
X0016543Y0157766D02*
X0078050Y0157766D01*
X0078447Y0158765D02*
X0019206Y0158765D01*
X0020817Y0159763D02*
X0079136Y0159763D01*
X0080599Y0160762D02*
X0021816Y0160762D01*
X0022721Y0161760D02*
X0102885Y0161760D01*
X0102800Y0160762D02*
X0083601Y0160762D01*
X0085064Y0159763D02*
X0102875Y0159763D01*
X0103289Y0158765D02*
X0085753Y0158765D01*
X0086150Y0157766D02*
X0104106Y0157766D01*
X0103298Y0162759D02*
X0023298Y0162759D01*
X0023874Y0163757D02*
X0104130Y0163757D01*
X0105938Y0164756D02*
X0024190Y0164756D01*
X0024458Y0165754D02*
X0144627Y0165754D01*
X0144367Y0165494D02*
X0143750Y0164006D01*
X0143750Y0162394D01*
X0144367Y0160906D01*
X0145506Y0159767D01*
X0146994Y0159150D01*
X0148606Y0159150D01*
X0150094Y0159767D01*
X0151233Y0160906D01*
X0151850Y0162394D01*
X0151850Y0164006D01*
X0151233Y0165494D01*
X0150094Y0166633D01*
X0148606Y0167250D01*
X0146994Y0167250D01*
X0145506Y0166633D01*
X0144367Y0165494D01*
X0144061Y0164756D02*
X0112274Y0164756D01*
X0113870Y0163757D02*
X0143750Y0163757D01*
X0143750Y0162759D02*
X0114614Y0162759D01*
X0115027Y0161760D02*
X0144013Y0161760D01*
X0144511Y0160762D02*
X0115050Y0160762D01*
X0114913Y0159763D02*
X0145514Y0159763D01*
X0150086Y0159763D02*
X0158414Y0159763D01*
X0157411Y0160762D02*
X0151089Y0160762D01*
X0151587Y0161760D02*
X0156913Y0161760D01*
X0156650Y0162759D02*
X0151850Y0162759D01*
X0151850Y0163757D02*
X0156650Y0163757D01*
X0156961Y0164756D02*
X0151539Y0164756D01*
X0150973Y0165754D02*
X0157527Y0165754D01*
X0158694Y0166753D02*
X0149806Y0166753D01*
X0145794Y0166753D02*
X0024673Y0166753D01*
X0024673Y0167751D02*
X0178836Y0167751D01*
X0181100Y0164600D02*
X0186900Y0170400D01*
X0192500Y0170400D01*
X0205300Y0157600D01*
X0205700Y0157600D01*
X0205410Y0150777D02*
X0193392Y0150777D01*
X0193478Y0149778D02*
X0204351Y0149778D01*
X0203829Y0148780D02*
X0193478Y0148780D01*
X0193126Y0147781D02*
X0203550Y0147781D01*
X0203550Y0146783D02*
X0192681Y0146783D01*
X0191683Y0145784D02*
X0203844Y0145784D01*
X0203763Y0144786D02*
X0189724Y0144786D01*
X0187476Y0144786D02*
X0182224Y0144786D01*
X0184183Y0145784D02*
X0185517Y0145784D01*
X0203150Y0142789D02*
X0083443Y0142789D01*
X0083850Y0141790D02*
X0203150Y0141790D01*
X0203524Y0140792D02*
X0083850Y0140792D01*
X0083684Y0139793D02*
X0204179Y0139793D01*
X0205563Y0138795D02*
X0083270Y0138795D01*
X0082324Y0137796D02*
X0248305Y0137796D01*
X0248257Y0136798D02*
X0007745Y0136798D01*
X0007697Y0137796D02*
X0077276Y0137796D01*
X0082740Y0143787D02*
X0203349Y0143787D01*
X0203622Y0128809D02*
X0146588Y0128809D01*
X0146900Y0127811D02*
X0202233Y0127811D01*
X0201576Y0126812D02*
X0153721Y0126812D01*
X0154394Y0126533D02*
X0152906Y0127150D01*
X0151294Y0127150D01*
X0149806Y0126533D01*
X0148667Y0125394D01*
X0148050Y0123906D01*
X0148050Y0122294D01*
X0148667Y0120806D01*
X0149806Y0119667D01*
X0151294Y0119050D01*
X0152906Y0119050D01*
X0154394Y0119667D01*
X0155533Y0120806D01*
X0156150Y0122294D01*
X0156150Y0123906D01*
X0155533Y0125394D01*
X0154394Y0126533D01*
X0155114Y0125814D02*
X0201200Y0125814D01*
X0201200Y0124815D02*
X0155773Y0124815D01*
X0156150Y0123817D02*
X0201398Y0123817D01*
X0201811Y0122818D02*
X0156150Y0122818D01*
X0155953Y0121820D02*
X0202803Y0121820D01*
X0203071Y0120821D02*
X0155540Y0120821D01*
X0154550Y0119823D02*
X0202657Y0119823D01*
X0202650Y0118824D02*
X0146750Y0118824D01*
X0146750Y0119823D02*
X0149650Y0119823D01*
X0148660Y0120821D02*
X0146578Y0120821D01*
X0146164Y0121820D02*
X0148247Y0121820D01*
X0148050Y0122818D02*
X0145209Y0122818D01*
X0145144Y0123817D02*
X0148050Y0123817D01*
X0148427Y0124815D02*
X0146143Y0124815D01*
X0146639Y0125814D02*
X0149086Y0125814D01*
X0150479Y0126812D02*
X0146900Y0126812D01*
X0140556Y0123817D02*
X0131900Y0123817D01*
X0131900Y0124106D02*
X0131283Y0125594D01*
X0130144Y0126733D01*
X0128656Y0127350D01*
X0127044Y0127350D01*
X0125556Y0126733D01*
X0124417Y0125594D01*
X0123800Y0124106D01*
X0123800Y0122494D01*
X0124417Y0121006D01*
X0124772Y0120650D01*
X0124267Y0120144D01*
X0123650Y0118656D01*
X0123650Y0117044D01*
X0124267Y0115556D01*
X0125406Y0114417D01*
X0126894Y0113800D01*
X0128506Y0113800D01*
X0129994Y0114417D01*
X0131133Y0115556D01*
X0131750Y0117044D01*
X0131750Y0118656D01*
X0131133Y0120144D01*
X0130778Y0120500D01*
X0131283Y0121006D01*
X0131900Y0122494D01*
X0131900Y0124106D01*
X0131606Y0124815D02*
X0139557Y0124815D01*
X0139061Y0125814D02*
X0131064Y0125814D01*
X0129953Y0126812D02*
X0138800Y0126812D01*
X0138800Y0127811D02*
X0066848Y0127811D01*
X0066850Y0126812D02*
X0125747Y0126812D01*
X0124636Y0125814D02*
X0073658Y0125814D01*
X0074094Y0125633D02*
X0072606Y0126250D01*
X0070994Y0126250D01*
X0069506Y0125633D01*
X0068367Y0124494D01*
X0067750Y0123006D01*
X0067750Y0121394D01*
X0068367Y0119906D01*
X0069506Y0118767D01*
X0070994Y0118150D01*
X0072606Y0118150D01*
X0074094Y0118767D01*
X0075233Y0119906D01*
X0075850Y0121394D01*
X0075850Y0123006D01*
X0075233Y0124494D01*
X0074094Y0125633D01*
X0074912Y0124815D02*
X0124094Y0124815D01*
X0123800Y0123817D02*
X0075514Y0123817D01*
X0075850Y0122818D02*
X0123800Y0122818D01*
X0124079Y0121820D02*
X0075850Y0121820D01*
X0075613Y0120821D02*
X0124601Y0120821D01*
X0124134Y0119823D02*
X0075150Y0119823D01*
X0074152Y0118824D02*
X0123720Y0118824D01*
X0123650Y0117826D02*
X0030193Y0117826D01*
X0030450Y0117206D02*
X0029833Y0118694D01*
X0028694Y0119833D01*
X0027206Y0120450D01*
X0025594Y0120450D01*
X0024106Y0119833D01*
X0022967Y0118694D01*
X0022350Y0117206D01*
X0022350Y0115594D01*
X0022967Y0114106D01*
X0024106Y0112967D01*
X0025594Y0112350D01*
X0027206Y0112350D01*
X0028694Y0112967D01*
X0029833Y0114106D01*
X0030450Y0115594D01*
X0030450Y0117206D01*
X0030450Y0116827D02*
X0123740Y0116827D01*
X0124154Y0115829D02*
X0030450Y0115829D01*
X0030133Y0114830D02*
X0124992Y0114830D01*
X0126818Y0113832D02*
X0029559Y0113832D01*
X0028372Y0112833D02*
X0195671Y0112833D01*
X0197771Y0113832D02*
X0128582Y0113832D01*
X0130408Y0114830D02*
X0200392Y0114830D01*
X0203216Y0116827D02*
X0145655Y0116827D01*
X0146349Y0117826D02*
X0202803Y0117826D01*
X0203902Y0115829D02*
X0144179Y0115829D01*
X0141221Y0115829D02*
X0131246Y0115829D01*
X0131660Y0116827D02*
X0139745Y0116827D01*
X0139051Y0117826D02*
X0131750Y0117826D01*
X0131680Y0118824D02*
X0138650Y0118824D01*
X0138650Y0119823D02*
X0131266Y0119823D01*
X0131099Y0120821D02*
X0138822Y0120821D01*
X0139236Y0121820D02*
X0131621Y0121820D01*
X0131900Y0122818D02*
X0140191Y0122818D01*
X0139112Y0128809D02*
X0066434Y0128809D01*
X0065720Y0129808D02*
X0139680Y0129808D01*
X0140853Y0130806D02*
X0064194Y0130806D01*
X0061406Y0130806D02*
X0025057Y0130806D01*
X0025195Y0129808D02*
X0059880Y0129808D01*
X0059166Y0128809D02*
X0025195Y0128809D01*
X0024960Y0127811D02*
X0058752Y0127811D01*
X0058750Y0126812D02*
X0024547Y0126812D01*
X0023767Y0125814D02*
X0058908Y0125814D01*
X0059321Y0124815D02*
X0022568Y0124815D01*
X0024095Y0119823D02*
X0012699Y0119823D01*
X0013814Y0120821D02*
X0067987Y0120821D01*
X0067750Y0121820D02*
X0014687Y0121820D01*
X0015101Y0122818D02*
X0067750Y0122818D01*
X0068086Y0123817D02*
X0065344Y0123817D01*
X0066279Y0124815D02*
X0068688Y0124815D01*
X0069942Y0125814D02*
X0066692Y0125814D01*
X0068450Y0119823D02*
X0028705Y0119823D01*
X0029703Y0118824D02*
X0069448Y0118824D01*
X0076418Y0109838D02*
X0090410Y0109838D01*
X0089412Y0108839D02*
X0087497Y0108839D01*
X0088787Y0107841D02*
X0088972Y0107841D01*
X0089523Y0103847D02*
X0089726Y0103847D01*
X0089076Y0102848D02*
X0091033Y0102848D01*
X0083903Y0108839D02*
X0077988Y0108839D01*
X0080328Y0107841D02*
X0082613Y0107841D01*
X0087900Y0112400D02*
X0105050Y0112400D01*
X0087900Y0112400D02*
X0083700Y0116600D01*
X0071479Y0107841D02*
X0070935Y0107841D01*
X0054339Y0082878D02*
X0037305Y0082878D01*
X0035477Y0081879D02*
X0042617Y0081879D01*
X0041553Y0080881D02*
X0015844Y0080881D01*
X0015850Y0081879D02*
X0033723Y0081879D01*
X0031895Y0082878D02*
X0015696Y0082878D01*
X0015282Y0083876D02*
X0031054Y0083876D01*
X0030641Y0084875D02*
X0014353Y0084875D01*
X0010225Y0085873D02*
X0030550Y0085873D01*
X0030619Y0086872D02*
X0010176Y0086872D01*
X0010127Y0087870D02*
X0031033Y0087870D01*
X0031841Y0088869D02*
X0010079Y0088869D01*
X0015431Y0079882D02*
X0041030Y0079882D01*
X0040750Y0078884D02*
X0014711Y0078884D01*
X0013174Y0077885D02*
X0040750Y0077885D01*
X0041043Y0076887D02*
X0010662Y0076887D01*
X0010711Y0075888D02*
X0039261Y0075888D01*
X0038323Y0074890D02*
X0010759Y0074890D01*
X0010808Y0073891D02*
X0037910Y0073891D01*
X0037750Y0072893D02*
X0010857Y0072893D01*
X0011780Y0053921D02*
X0091523Y0053921D01*
X0093477Y0053921D02*
X0094101Y0053921D01*
X0095445Y0052923D02*
X0011829Y0052923D01*
X0012072Y0047930D02*
X0074602Y0047930D01*
X0085169Y0033951D02*
X0119289Y0033951D01*
X0118125Y0032952D02*
X0086888Y0032952D01*
X0087684Y0031954D02*
X0117560Y0031954D01*
X0117250Y0030955D02*
X0088098Y0030955D01*
X0088159Y0029957D02*
X0117250Y0029957D01*
X0117513Y0028958D02*
X0088062Y0028958D01*
X0087648Y0027960D02*
X0118013Y0027960D01*
X0119019Y0026961D02*
X0086802Y0026961D01*
X0084891Y0021969D02*
X0013336Y0021969D01*
X0013287Y0022967D02*
X0132322Y0022967D01*
X0129673Y0021969D02*
X0089709Y0021969D01*
X0090707Y0020970D02*
X0128066Y0020970D01*
X0127067Y0019972D02*
X0091136Y0019972D01*
X0091350Y0018973D02*
X0126165Y0018973D01*
X0125588Y0017975D02*
X0091350Y0017975D01*
X0090990Y0016976D02*
X0125012Y0016976D01*
X0124698Y0015978D02*
X0090355Y0015978D01*
X0091380Y0014979D02*
X0124430Y0014979D01*
X0124217Y0013981D02*
X0105106Y0013981D01*
X0106595Y0012982D02*
X0124217Y0012982D01*
X0124217Y0011984D02*
X0112452Y0011984D01*
X0113592Y0010985D02*
X0124339Y0010985D01*
X0124606Y0009987D02*
X0114147Y0009987D01*
X0114450Y0008988D02*
X0124874Y0008988D01*
X0125390Y0007990D02*
X0114450Y0007990D01*
X0114179Y0006991D02*
X0125967Y0006991D01*
X0126725Y0005993D02*
X0113670Y0005993D01*
X0108348Y0011984D02*
X0107295Y0011984D01*
X0102194Y0013981D02*
X0099568Y0013981D01*
X0095932Y0013981D02*
X0092797Y0013981D01*
X0093466Y0012982D02*
X0094655Y0012982D01*
X0094043Y0011984D02*
X0093850Y0011984D01*
X0083893Y0020970D02*
X0082657Y0020970D01*
X0077543Y0020970D02*
X0013384Y0020970D01*
X0013433Y0019972D02*
X0076616Y0019972D01*
X0077675Y0008988D02*
X0020097Y0008988D01*
X0020987Y0007990D02*
X0080501Y0007990D01*
X0080981Y0006991D02*
X0021876Y0006991D01*
X0022766Y0005993D02*
X0081980Y0005993D01*
X0123311Y0033951D02*
X0124834Y0033951D01*
X0136922Y0022967D02*
X0145290Y0022967D01*
X0145556Y0023233D02*
X0144417Y0022094D01*
X0143800Y0020606D01*
X0143800Y0018994D01*
X0144417Y0017506D01*
X0145556Y0016367D01*
X0147044Y0015750D01*
X0148656Y0015750D01*
X0150144Y0016367D01*
X0151283Y0017506D01*
X0151900Y0018994D01*
X0151900Y0020606D01*
X0151283Y0022094D01*
X0150144Y0023233D01*
X0148656Y0023850D01*
X0147044Y0023850D01*
X0145556Y0023233D01*
X0144365Y0021969D02*
X0139571Y0021969D01*
X0141178Y0020970D02*
X0143951Y0020970D01*
X0143800Y0019972D02*
X0142177Y0019972D01*
X0143080Y0018973D02*
X0143809Y0018973D01*
X0143656Y0017975D02*
X0144222Y0017975D01*
X0144233Y0016976D02*
X0144946Y0016976D01*
X0144546Y0015978D02*
X0146495Y0015978D01*
X0144814Y0014979D02*
X0173317Y0014979D01*
X0173375Y0013981D02*
X0145028Y0013981D01*
X0145028Y0012982D02*
X0173429Y0012982D01*
X0173478Y0011984D02*
X0145028Y0011984D01*
X0144905Y0010985D02*
X0173526Y0010985D01*
X0173575Y0009987D02*
X0144638Y0009987D01*
X0144370Y0008988D02*
X0173624Y0008988D01*
X0173673Y0007990D02*
X0143854Y0007990D01*
X0143277Y0006991D02*
X0173722Y0006991D01*
X0173770Y0005993D02*
X0142519Y0005993D01*
X0149205Y0015978D02*
X0173170Y0015978D01*
X0172944Y0016976D02*
X0150754Y0016976D01*
X0151478Y0017975D02*
X0172718Y0017975D01*
X0172492Y0018973D02*
X0151891Y0018973D01*
X0151900Y0019972D02*
X0172266Y0019972D01*
X0171883Y0020970D02*
X0151749Y0020970D01*
X0151335Y0021969D02*
X0171473Y0021969D01*
X0171029Y0022967D02*
X0150410Y0022967D01*
X0152400Y0104500D02*
X0154400Y0105500D01*
X0163900Y0105500D01*
X0191503Y0110851D02*
X0191503Y0110851D01*
X0193252Y0111835D02*
X0008961Y0111835D01*
X0008912Y0112833D02*
X0024428Y0112833D01*
X0023241Y0113832D02*
X0008863Y0113832D01*
X0008815Y0114830D02*
X0022666Y0114830D01*
X0022350Y0115829D02*
X0008766Y0115829D01*
X0008718Y0116827D02*
X0022350Y0116827D01*
X0022607Y0117826D02*
X0008669Y0117826D01*
X0008620Y0118824D02*
X0023097Y0118824D01*
X0007843Y0134801D02*
X0248161Y0134801D01*
X0248209Y0135799D02*
X0007794Y0135799D01*
X0024285Y0170747D02*
X0215418Y0170747D01*
X0215150Y0171745D02*
X0024018Y0171745D01*
X0023503Y0172744D02*
X0092360Y0172744D01*
X0092306Y0172767D02*
X0093794Y0172150D01*
X0095406Y0172150D01*
X0096894Y0172767D01*
X0097450Y0173322D01*
X0098306Y0172467D01*
X0099794Y0171850D01*
X0101406Y0171850D01*
X0102894Y0172467D01*
X0103500Y0173072D01*
X0103906Y0172667D01*
X0105394Y0172050D01*
X0107006Y0172050D01*
X0108494Y0172667D01*
X0109633Y0173806D01*
X0110250Y0175294D01*
X0110250Y0176906D01*
X0109633Y0178394D01*
X0108494Y0179533D01*
X0107006Y0180150D01*
X0105394Y0180150D01*
X0103906Y0179533D01*
X0103300Y0178928D01*
X0102894Y0179333D01*
X0101406Y0179950D01*
X0099794Y0179950D01*
X0098306Y0179333D01*
X0097750Y0178778D01*
X0096894Y0179633D01*
X0095406Y0180250D01*
X0093794Y0180250D01*
X0092306Y0179633D01*
X0091167Y0178494D01*
X0090550Y0177006D01*
X0090550Y0175394D01*
X0091167Y0173906D01*
X0092306Y0172767D01*
X0091330Y0173742D02*
X0022927Y0173742D01*
X0022171Y0174741D02*
X0090821Y0174741D01*
X0090550Y0175739D02*
X0021173Y0175739D01*
X0019821Y0176738D02*
X0090550Y0176738D01*
X0090853Y0177737D02*
X0017870Y0177737D01*
X0010666Y0177737D02*
X0005800Y0177737D01*
X0005848Y0176738D02*
X0008714Y0176738D01*
X0007362Y0175739D02*
X0005895Y0175739D01*
X0005943Y0174741D02*
X0006364Y0174741D01*
X0009782Y0178735D02*
X0091407Y0178735D01*
X0092548Y0179734D02*
X0030204Y0179734D01*
X0050626Y0180732D02*
X0155824Y0180732D01*
X0156059Y0181299D02*
X0155441Y0179807D01*
X0155441Y0178193D01*
X0156059Y0176701D01*
X0157201Y0175559D01*
X0158693Y0174941D01*
X0160307Y0174941D01*
X0161799Y0175559D01*
X0162136Y0175896D01*
X0162993Y0175541D01*
X0164607Y0175541D01*
X0166099Y0176159D01*
X0166206Y0176266D01*
X0166706Y0175767D01*
X0168194Y0175150D01*
X0169806Y0175150D01*
X0171294Y0175767D01*
X0172433Y0176906D01*
X0173050Y0178394D01*
X0173050Y0180006D01*
X0172433Y0181494D01*
X0171294Y0182633D01*
X0169806Y0183250D01*
X0168194Y0183250D01*
X0166706Y0182633D01*
X0166606Y0182534D01*
X0166099Y0183041D01*
X0164607Y0183659D01*
X0162993Y0183659D01*
X0161501Y0183041D01*
X0161164Y0182704D01*
X0160307Y0183059D01*
X0158693Y0183059D01*
X0157201Y0182441D01*
X0156059Y0181299D01*
X0156490Y0181731D02*
X0071048Y0181731D01*
X0079940Y0182729D02*
X0157896Y0182729D01*
X0161104Y0182729D02*
X0161189Y0182729D01*
X0166411Y0182729D02*
X0166937Y0182729D01*
X0171063Y0182729D02*
X0198867Y0182729D01*
X0198650Y0182206D02*
X0198650Y0180594D01*
X0199267Y0179106D01*
X0200406Y0177967D01*
X0201894Y0177350D01*
X0203506Y0177350D01*
X0204994Y0177967D01*
X0206133Y0179106D01*
X0206334Y0179591D01*
X0206867Y0178306D01*
X0208006Y0177167D01*
X0209494Y0176550D01*
X0211106Y0176550D01*
X0212594Y0177167D01*
X0213733Y0178306D01*
X0214350Y0179794D01*
X0214350Y0181406D01*
X0213733Y0182894D01*
X0212594Y0184033D01*
X0211106Y0184650D01*
X0209494Y0184650D01*
X0208006Y0184033D01*
X0206867Y0182894D01*
X0206666Y0182409D01*
X0206133Y0183694D01*
X0204994Y0184833D01*
X0203506Y0185450D01*
X0201894Y0185450D01*
X0200406Y0184833D01*
X0199267Y0183694D01*
X0198650Y0182206D01*
X0198650Y0181731D02*
X0172197Y0181731D01*
X0172749Y0180732D02*
X0198650Y0180732D01*
X0199007Y0179734D02*
X0173050Y0179734D01*
X0173050Y0178735D02*
X0199637Y0178735D01*
X0200961Y0177737D02*
X0172777Y0177737D01*
X0172266Y0176738D02*
X0209041Y0176738D01*
X0207436Y0177737D02*
X0204439Y0177737D01*
X0205763Y0178735D02*
X0206689Y0178735D01*
X0206798Y0182729D02*
X0206533Y0182729D01*
X0206100Y0183728D02*
X0207700Y0183728D01*
X0205101Y0184726D02*
X0215658Y0184726D01*
X0215650Y0184706D02*
X0215650Y0183094D01*
X0216267Y0181606D01*
X0217406Y0180467D01*
X0218894Y0179850D01*
X0220506Y0179850D01*
X0221994Y0180467D01*
X0223133Y0181606D01*
X0223750Y0183094D01*
X0223750Y0184706D01*
X0223133Y0186194D01*
X0221994Y0187333D01*
X0220506Y0187950D01*
X0218894Y0187950D01*
X0217406Y0187333D01*
X0216267Y0186194D01*
X0215650Y0184706D01*
X0215650Y0183728D02*
X0212900Y0183728D01*
X0213802Y0182729D02*
X0215801Y0182729D01*
X0216215Y0181731D02*
X0214215Y0181731D01*
X0214350Y0180732D02*
X0217140Y0180732D01*
X0214325Y0179734D02*
X0244219Y0179734D01*
X0242469Y0180732D02*
X0222260Y0180732D01*
X0223185Y0181731D02*
X0241526Y0181731D01*
X0241112Y0182729D02*
X0223599Y0182729D01*
X0223750Y0183728D02*
X0240822Y0183728D01*
X0240822Y0184726D02*
X0223742Y0184726D01*
X0223328Y0185725D02*
X0240969Y0185725D01*
X0241382Y0186723D02*
X0222604Y0186723D01*
X0221057Y0187722D02*
X0242123Y0187722D01*
X0241981Y0188720D02*
X0142508Y0188720D01*
X0142095Y0187722D02*
X0218343Y0187722D01*
X0216796Y0186723D02*
X0141322Y0186723D01*
X0139984Y0185725D02*
X0216072Y0185725D01*
X0213911Y0178735D02*
X0250276Y0178735D01*
X0250228Y0177737D02*
X0213164Y0177737D01*
X0211559Y0176738D02*
X0250180Y0176738D01*
X0250324Y0179734D02*
X0247181Y0179734D01*
X0248930Y0180732D02*
X0250372Y0180732D01*
X0250420Y0181731D02*
X0249874Y0181731D01*
X0250288Y0182729D02*
X0250468Y0182729D01*
X0250431Y0185725D02*
X0250612Y0185725D01*
X0250660Y0186723D02*
X0250018Y0186723D01*
X0250708Y0187722D02*
X0249277Y0187722D01*
X0249419Y0188720D02*
X0250756Y0188720D01*
X0250805Y0189719D02*
X0250076Y0189719D01*
X0250490Y0190717D02*
X0250853Y0190717D01*
X0250901Y0191716D02*
X0250578Y0191716D01*
X0250578Y0192714D02*
X0250949Y0192714D01*
X0250997Y0193713D02*
X0250229Y0193713D01*
X0249787Y0194711D02*
X0251045Y0194711D01*
X0251093Y0195710D02*
X0248908Y0195710D01*
X0249865Y0196708D02*
X0251141Y0196708D01*
X0251189Y0197707D02*
X0250278Y0197707D01*
X0250578Y0198705D02*
X0251237Y0198705D01*
X0251285Y0199704D02*
X0250578Y0199704D01*
X0250440Y0200702D02*
X0251333Y0200702D01*
X0251381Y0201701D02*
X0250027Y0201701D01*
X0249299Y0202699D02*
X0251429Y0202699D01*
X0251477Y0203698D02*
X0248071Y0203698D01*
X0248892Y0204696D02*
X0251525Y0204696D01*
X0251573Y0205695D02*
X0249398Y0205695D01*
X0249578Y0206693D02*
X0251622Y0206693D01*
X0251670Y0207692D02*
X0249496Y0207692D01*
X0249429Y0208031D02*
X0249137Y0208737D01*
X0248712Y0209372D01*
X0248172Y0209912D01*
X0247537Y0210337D01*
X0246831Y0210629D01*
X0246082Y0210778D01*
X0245889Y0210778D01*
X0245889Y0207089D01*
X0249578Y0207089D01*
X0249578Y0207282D01*
X0249429Y0208031D01*
X0249156Y0208690D02*
X0251718Y0208690D01*
X0251766Y0209689D02*
X0248395Y0209689D01*
X0246537Y0210687D02*
X0251814Y0210687D01*
X0251862Y0211686D02*
X0180597Y0211686D01*
X0186965Y0207763D02*
X0186222Y0205970D01*
X0186222Y0204030D01*
X0186965Y0202237D01*
X0187952Y0201250D01*
X0186965Y0200263D01*
X0186222Y0198470D01*
X0186222Y0196530D01*
X0186965Y0194737D01*
X0188337Y0193365D01*
X0190130Y0192622D01*
X0192070Y0192622D01*
X0193863Y0193365D01*
X0195235Y0194737D01*
X0195978Y0196530D01*
X0195978Y0198470D01*
X0195235Y0200263D01*
X0194248Y0201250D01*
X0195235Y0202237D01*
X0195978Y0204030D01*
X0195978Y0205970D01*
X0195235Y0207763D01*
X0193863Y0209135D01*
X0192070Y0209878D01*
X0190130Y0209878D01*
X0188337Y0209135D01*
X0186965Y0207763D01*
X0186935Y0207692D02*
X0142006Y0207692D01*
X0142420Y0206693D02*
X0186522Y0206693D01*
X0186222Y0205695D02*
X0142678Y0205695D01*
X0142678Y0204696D02*
X0186222Y0204696D01*
X0186360Y0203698D02*
X0142499Y0203698D01*
X0142085Y0202699D02*
X0186773Y0202699D01*
X0187501Y0201701D02*
X0141299Y0201701D01*
X0141596Y0200702D02*
X0187404Y0200702D01*
X0186733Y0199704D02*
X0142208Y0199704D01*
X0142622Y0198705D02*
X0186319Y0198705D01*
X0186222Y0197707D02*
X0142678Y0197707D01*
X0144331Y0196708D02*
X0186222Y0196708D01*
X0186562Y0195710D02*
X0145718Y0195710D01*
X0146375Y0194711D02*
X0186990Y0194711D01*
X0187989Y0193713D02*
X0146750Y0193713D01*
X0146750Y0192714D02*
X0189907Y0192714D01*
X0192293Y0192714D02*
X0240822Y0192714D01*
X0240822Y0191716D02*
X0146552Y0191716D01*
X0146138Y0190717D02*
X0240910Y0190717D01*
X0241324Y0189719D02*
X0145146Y0189719D01*
X0135616Y0185725D02*
X0132484Y0185725D01*
X0133822Y0186723D02*
X0134278Y0186723D01*
X0128116Y0185725D02*
X0081980Y0185725D01*
X0081993Y0186723D02*
X0126778Y0186723D01*
X0126005Y0187722D02*
X0081943Y0187722D01*
X0081894Y0188720D02*
X0125592Y0188720D01*
X0125422Y0189719D02*
X0081844Y0189719D01*
X0081795Y0190717D02*
X0125422Y0190717D01*
X0125689Y0191716D02*
X0081745Y0191716D01*
X0081695Y0192714D02*
X0126103Y0192714D01*
X0127014Y0193713D02*
X0081646Y0193713D01*
X0081596Y0194711D02*
X0126290Y0194711D01*
X0125803Y0195710D02*
X0081547Y0195710D01*
X0081497Y0196708D02*
X0125422Y0196708D01*
X0125422Y0197707D02*
X0081447Y0197707D01*
X0081398Y0198705D02*
X0125478Y0198705D01*
X0125892Y0199704D02*
X0081348Y0199704D01*
X0081299Y0200702D02*
X0126504Y0200702D01*
X0127502Y0201701D02*
X0081249Y0201701D01*
X0081199Y0202699D02*
X0127240Y0202699D01*
X0126683Y0203698D02*
X0081150Y0203698D01*
X0081100Y0204696D02*
X0126426Y0204696D01*
X0126464Y0205695D02*
X0081051Y0205695D01*
X0081001Y0206693D02*
X0126763Y0206693D01*
X0127408Y0207692D02*
X0098465Y0207692D01*
X0118998Y0208690D02*
X0128834Y0208690D01*
X0130111Y0208690D02*
X0130489Y0208690D01*
X0130489Y0207692D02*
X0130111Y0207692D01*
X0130111Y0206693D02*
X0130489Y0206693D01*
X0130489Y0205695D02*
X0130111Y0205695D01*
X0131766Y0208690D02*
X0134492Y0208690D01*
X0133594Y0207692D02*
X0133192Y0207692D01*
X0139531Y0209689D02*
X0189673Y0209689D01*
X0187892Y0208690D02*
X0141108Y0208690D01*
X0160064Y0210687D02*
X0244863Y0210687D01*
X0245511Y0210687D02*
X0245889Y0210687D01*
X0245889Y0209689D02*
X0245511Y0209689D01*
X0245511Y0208690D02*
X0245889Y0208690D01*
X0245889Y0207692D02*
X0245511Y0207692D01*
X0243005Y0209689D02*
X0192527Y0209689D01*
X0194308Y0208690D02*
X0242244Y0208690D01*
X0241904Y0207692D02*
X0195265Y0207692D01*
X0195678Y0206693D02*
X0241822Y0206693D01*
X0242002Y0205695D02*
X0195978Y0205695D01*
X0195978Y0204696D02*
X0242508Y0204696D01*
X0243329Y0203698D02*
X0195840Y0203698D01*
X0195427Y0202699D02*
X0242101Y0202699D01*
X0241373Y0201701D02*
X0194699Y0201701D01*
X0194796Y0200702D02*
X0240960Y0200702D01*
X0240822Y0199704D02*
X0195467Y0199704D01*
X0195881Y0198705D02*
X0240822Y0198705D01*
X0241122Y0197707D02*
X0195978Y0197707D01*
X0195978Y0196708D02*
X0241535Y0196708D01*
X0242492Y0195710D02*
X0195638Y0195710D01*
X0195210Y0194711D02*
X0241613Y0194711D01*
X0241171Y0193713D02*
X0194211Y0193713D01*
X0200299Y0184726D02*
X0081623Y0184726D01*
X0081010Y0183728D02*
X0199300Y0183728D01*
X0216013Y0174741D02*
X0110021Y0174741D01*
X0110250Y0175739D02*
X0157020Y0175739D01*
X0156043Y0176738D02*
X0110250Y0176738D01*
X0109906Y0177737D02*
X0155630Y0177737D01*
X0155441Y0178735D02*
X0109293Y0178735D01*
X0108011Y0179734D02*
X0155441Y0179734D01*
X0161980Y0175739D02*
X0162513Y0175739D01*
X0165087Y0175739D02*
X0166771Y0175739D01*
X0171229Y0175739D02*
X0217162Y0175739D01*
X0215455Y0173742D02*
X0109570Y0173742D01*
X0108572Y0172744D02*
X0215150Y0172744D01*
X0245049Y0149778D02*
X0248882Y0149778D01*
X0248834Y0148780D02*
X0245688Y0148780D01*
X0246050Y0147781D02*
X0248786Y0147781D01*
X0248738Y0146783D02*
X0246050Y0146783D01*
X0245839Y0145784D02*
X0248690Y0145784D01*
X0248642Y0144786D02*
X0245992Y0144786D01*
X0246723Y0143787D02*
X0248594Y0143787D01*
X0248546Y0142789D02*
X0247136Y0142789D01*
X0247150Y0141790D02*
X0248498Y0141790D01*
X0248450Y0140792D02*
X0247004Y0140792D01*
X0246590Y0139793D02*
X0248401Y0139793D01*
X0248353Y0138795D02*
X0245672Y0138795D01*
X0251910Y0212684D02*
X0198339Y0212684D01*
X0199986Y0213683D02*
X0238106Y0213683D01*
X0235859Y0214681D02*
X0200860Y0214681D01*
X0201266Y0215680D02*
X0234400Y0215680D01*
X0233401Y0216678D02*
X0201426Y0216678D01*
X0201444Y0217677D02*
X0232584Y0217677D01*
X0232007Y0218675D02*
X0201491Y0218675D01*
X0201539Y0219674D02*
X0231447Y0219674D01*
X0231179Y0220672D02*
X0201587Y0220672D01*
X0201635Y0221671D02*
X0230912Y0221671D01*
X0230752Y0222670D02*
X0201682Y0222670D01*
X0201730Y0223668D02*
X0230752Y0223668D01*
X0230752Y0224667D02*
X0201778Y0224667D01*
X0201825Y0225665D02*
X0230928Y0225665D01*
X0231196Y0226664D02*
X0201873Y0226664D01*
X0201921Y0227662D02*
X0231466Y0227662D01*
X0232042Y0228661D02*
X0201969Y0228661D01*
X0202016Y0229659D02*
X0232619Y0229659D01*
X0233462Y0230658D02*
X0202064Y0230658D01*
X0202112Y0231656D02*
X0234460Y0231656D01*
X0235647Y0232655D02*
X0202159Y0232655D01*
X0202207Y0233653D02*
X0217445Y0233653D01*
X0244209Y0213683D02*
X0251958Y0213683D01*
X0252006Y0214681D02*
X0246456Y0214681D01*
X0247915Y0215680D02*
X0252054Y0215680D01*
X0252102Y0216678D02*
X0248914Y0216678D01*
X0249731Y0217677D02*
X0252150Y0217677D01*
X0252198Y0218675D02*
X0250308Y0218675D01*
X0250868Y0219674D02*
X0252246Y0219674D01*
X0252294Y0220672D02*
X0251135Y0220672D01*
X0251403Y0221671D02*
X0252342Y0221671D01*
X0252391Y0222670D02*
X0251563Y0222670D01*
X0251563Y0223668D02*
X0252439Y0223668D01*
X0252487Y0224667D02*
X0251563Y0224667D01*
X0251387Y0225665D02*
X0252535Y0225665D01*
X0252583Y0226664D02*
X0251119Y0226664D01*
X0250849Y0227662D02*
X0252631Y0227662D01*
X0252679Y0228661D02*
X0250273Y0228661D01*
X0249696Y0229659D02*
X0252727Y0229659D01*
X0252775Y0230658D02*
X0248853Y0230658D01*
X0247855Y0231656D02*
X0252823Y0231656D01*
X0109726Y0164756D02*
X0107762Y0164756D01*
X0103828Y0172744D02*
X0103171Y0172744D01*
X0098028Y0172744D02*
X0096840Y0172744D01*
X0096652Y0179734D02*
X0099272Y0179734D01*
X0101928Y0179734D02*
X0104389Y0179734D01*
X0078640Y0154771D02*
X0057757Y0154771D01*
X0058755Y0153772D02*
X0079600Y0153772D01*
X0093500Y0144700D02*
X0093550Y0144750D01*
X0097300Y0144750D01*
X0097350Y0144800D01*
X0097350Y0145200D01*
X0053499Y0081879D02*
X0046983Y0081879D01*
X0048047Y0080881D02*
X0053085Y0080881D01*
X0052994Y0079882D02*
X0048570Y0079882D01*
X0048850Y0078884D02*
X0053063Y0078884D01*
X0053477Y0077885D02*
X0048850Y0077885D01*
X0048557Y0076887D02*
X0054286Y0076887D01*
X0055452Y0075888D02*
X0048016Y0075888D01*
X0046909Y0074890D02*
X0055866Y0074890D01*
X0056581Y0073891D02*
X0045690Y0073891D01*
X0045850Y0073506D02*
X0045850Y0071894D01*
X0045436Y0070896D02*
X0060794Y0070896D01*
X0040394Y0068899D02*
X0038950Y0068899D01*
X0038875Y0069897D02*
X0038829Y0069897D01*
D16*
X0028900Y0075450D03*
X0028900Y0080100D03*
X0024250Y0080100D03*
X0024200Y0075450D03*
X0093500Y0144700D03*
X0093500Y0148650D03*
X0097450Y0148650D03*
X0097450Y0144700D03*
X0111250Y0044300D03*
X0115200Y0044300D03*
X0115200Y0040350D03*
X0111250Y0040350D03*
X0225400Y0158450D03*
X0229350Y0158450D03*
X0229350Y0162450D03*
X0225400Y0162450D03*
D17*
X0095400Y0146200D02*
X0093450Y0148150D01*
X0093500Y0148650D01*
D18*
X0093500Y0158300D01*
X0088250Y0163550D01*
X0088250Y0180200D01*
X0088150Y0180300D01*
X0145450Y0180300D01*
X0149800Y0190750D01*
X0154000Y0188850D01*
X0201900Y0188850D01*
X0225400Y0162450D02*
X0226050Y0161800D01*
X0226050Y0154802D01*
X0230750Y0150102D01*
X0230750Y0144050D01*
X0157600Y0058050D02*
X0149550Y0058050D01*
X0148300Y0056800D01*
X0111250Y0044300D02*
X0111250Y0012900D01*
X0118250Y0006600D01*
X0035400Y0105300D02*
X0021350Y0114500D01*
X0018352Y0120570D01*
X0013200Y0131000D01*
X0011100Y0135100D01*
X0025150Y0141100D01*
X0036700Y0153650D01*
X0036700Y0156350D01*
X0064200Y0156350D01*
X0088150Y0180300D01*
X0116800Y0157650D02*
X0105050Y0141200D01*
X0105050Y0135850D01*
D19*
X0178050Y0136750D02*
X0187975Y0136625D01*
X0187975Y0134875D01*
D20*
X0027500Y0080050D02*
X0027500Y0078700D01*
X0024300Y0075500D01*
X0024200Y0075450D01*
X0027500Y0080050D02*
X0014050Y0093500D01*
X0014050Y0116268D01*
X0018352Y0120570D01*
D21*
X0062700Y0074500D03*
X0064700Y0063900D03*
X0066000Y0059100D03*
X0075600Y0065900D03*
X0084300Y0069200D03*
X0085700Y0081600D03*
X0090100Y0080300D03*
X0102400Y0115900D03*
X0102600Y0128100D03*
X0159500Y0179000D03*
X0163800Y0179600D03*
X0027200Y0045600D03*
X0027200Y0036400D03*
X0042400Y0027500D03*
X0039900Y0020800D03*
X0062800Y0014000D03*
X0084100Y0030000D03*
D22*
X0015400Y0093600D03*
X0104800Y0122200D03*
X0156400Y0012600D03*
X0245700Y0175100D03*
M02*
