G75*
%MOIN*%
%OFA0B0*%
%FSLAX25Y25*%
%IPPOS*%
%LPD*%
%AMOC8*
5,1,8,0,0,1.08239X$1,22.5*
%
%ADD10C,0.12611*%
%ADD11C,0.06343*%
%ADD12C,0.07887*%
%ADD13R,0.04737X0.05131*%
%ADD14R,0.07898X0.07099*%
%ADD15R,0.07099X0.07898*%
%ADD16R,0.09900X0.05900*%
%ADD17R,0.26400X0.24000*%
%ADD18C,0.05556*%
%ADD19R,0.06706X0.16548*%
%ADD20R,0.06706X0.04737*%
%ADD21C,0.03900*%
%ADD22C,0.03600*%
%ADD23C,0.03918*%
%ADD24C,0.08300*%
D10*
X0134622Y0012811D03*
X0014268Y0167929D03*
X0241157Y0223638D03*
D11*
X0019064Y0149092D03*
X0019923Y0129426D03*
D12*
X0009475Y0125029D03*
X0008273Y0152562D03*
D13*
X0061345Y0083429D03*
X0068038Y0083429D03*
X0073204Y0079100D03*
X0079896Y0079100D03*
X0079146Y0071100D03*
X0072454Y0071100D03*
D14*
X0101200Y0048098D03*
X0101200Y0036902D03*
X0125200Y0036802D03*
X0125200Y0047998D03*
X0215400Y0154802D03*
X0215400Y0165998D03*
X0239400Y0165998D03*
X0239400Y0154802D03*
D15*
X0100998Y0158600D03*
X0089802Y0158600D03*
X0089802Y0134700D03*
X0100998Y0134700D03*
D16*
X0146100Y0134750D03*
X0146100Y0152750D03*
D17*
X0121350Y0143750D03*
D18*
X0130300Y0190100D03*
X0130300Y0197600D03*
X0130300Y0205100D03*
X0137800Y0205100D03*
X0137800Y0197600D03*
X0137800Y0190100D03*
X0181100Y0164600D03*
X0188600Y0164600D03*
X0188600Y0157100D03*
X0181100Y0157100D03*
X0181100Y0149600D03*
X0188600Y0149600D03*
X0191100Y0197500D03*
X0191100Y0205000D03*
X0245700Y0206900D03*
X0245700Y0199400D03*
X0245700Y0191900D03*
X0245700Y0184400D03*
D19*
X0027205Y0020700D03*
D20*
X0052795Y0020700D03*
X0052795Y0011645D03*
X0052795Y0029755D03*
D21*
X0061300Y0041200D03*
X0065700Y0042100D03*
X0074800Y0040900D03*
X0077800Y0045400D03*
X0090900Y0041150D03*
X0097150Y0056600D03*
X0092500Y0057900D03*
X0078350Y0059250D03*
X0087200Y0073700D03*
X0075500Y0091000D03*
X0070400Y0090100D03*
X0065500Y0090000D03*
X0062300Y0093000D03*
X0068900Y0104300D03*
X0075100Y0106000D03*
X0079500Y0103800D03*
X0085700Y0105200D03*
X0092800Y0106500D03*
X0083700Y0116600D03*
X0071800Y0122200D03*
X0062800Y0127000D03*
X0079800Y0141000D03*
X0082100Y0157000D03*
X0094600Y0176200D03*
X0100600Y0175900D03*
X0106200Y0176100D03*
X0106850Y0160750D03*
X0111000Y0160900D03*
X0116800Y0157650D03*
X0088150Y0180300D03*
X0055350Y0151450D03*
X0045700Y0150400D03*
X0050300Y0142400D03*
X0036700Y0156350D03*
X0011100Y0135100D03*
X0026400Y0116400D03*
X0035400Y0105300D03*
X0045200Y0090700D03*
X0034600Y0085900D03*
X0044800Y0078400D03*
X0041800Y0072700D03*
X0034900Y0068800D03*
X0034350Y0063400D03*
X0029850Y0055850D03*
X0022150Y0060800D03*
X0011800Y0081700D03*
X0053000Y0106000D03*
X0057044Y0079856D03*
X0059500Y0076700D03*
X0066600Y0078000D03*
X0083700Y0092600D03*
X0105050Y0112400D03*
X0127700Y0117850D03*
X0127850Y0123300D03*
X0142700Y0119600D03*
X0142850Y0127250D03*
X0152100Y0123100D03*
X0152400Y0104500D03*
X0179400Y0132000D03*
X0178050Y0136750D03*
X0173350Y0134300D03*
X0174350Y0140700D03*
X0180500Y0141900D03*
X0183350Y0136700D03*
X0205250Y0125100D03*
X0210650Y0123750D03*
X0213500Y0127850D03*
X0216950Y0122700D03*
X0206700Y0119000D03*
X0207200Y0142500D03*
X0207600Y0147300D03*
X0230750Y0144050D03*
X0242000Y0147100D03*
X0243100Y0141950D03*
X0234700Y0171300D03*
X0219200Y0172200D03*
X0210300Y0180600D03*
X0202700Y0181400D03*
X0201900Y0188850D03*
X0219700Y0183900D03*
X0169000Y0179200D03*
X0160700Y0163200D03*
X0147800Y0163200D03*
X0149800Y0190750D03*
X0142700Y0193000D03*
X0110600Y0089200D03*
X0109600Y0085400D03*
X0108600Y0081600D03*
X0125300Y0055400D03*
X0134600Y0058400D03*
X0140600Y0056600D03*
X0138900Y0052900D03*
X0148300Y0056800D03*
X0137800Y0076800D03*
X0106200Y0054000D03*
X0121300Y0030400D03*
X0126000Y0030050D03*
X0103650Y0010200D03*
X0110400Y0008450D03*
X0118250Y0006600D03*
X0097750Y0010350D03*
X0089800Y0011250D03*
X0084300Y0009400D03*
X0079900Y0012450D03*
X0084450Y0014700D03*
X0087300Y0018650D03*
X0080100Y0017800D03*
X0061000Y0058700D03*
X0147850Y0019800D03*
D22*
X0115200Y0040350D03*
X0111250Y0040350D03*
X0111250Y0044300D03*
X0115200Y0044300D03*
X0028900Y0075450D03*
X0028900Y0080100D03*
X0024250Y0080100D03*
X0024200Y0075450D03*
X0093500Y0144700D03*
X0093500Y0148650D03*
X0097450Y0148650D03*
X0097450Y0144700D03*
X0225400Y0158450D03*
X0229350Y0158450D03*
X0229350Y0162450D03*
X0225400Y0162450D03*
D23*
X0163800Y0179600D03*
X0159500Y0179000D03*
X0102600Y0128100D03*
X0102400Y0115900D03*
X0090100Y0080300D03*
X0085700Y0081600D03*
X0084300Y0069200D03*
X0075600Y0065900D03*
X0064700Y0063900D03*
X0066000Y0059100D03*
X0062700Y0074500D03*
X0027200Y0045600D03*
X0027200Y0036400D03*
X0042400Y0027500D03*
X0039900Y0020800D03*
X0062800Y0014000D03*
X0084100Y0030000D03*
D24*
X0015400Y0093600D03*
X0104800Y0122200D03*
X0156400Y0012600D03*
X0245700Y0175100D03*
M02*
