G75*
%MOIN*%
%OFA0B0*%
%FSLAX25Y25*%
%IPPOS*%
%LPD*%
%AMOC8*
5,1,8,0,0,1.08239X$1,22.5*
%
%ADD10R,0.02362X0.03346*%
%ADD11R,0.02756X0.03150*%
%ADD12R,0.03346X0.02362*%
%ADD13R,0.03150X0.02756*%
%ADD14R,0.08268X0.08268*%
%ADD15C,0.01378*%
%ADD16R,0.01000X0.05906*%
%ADD17R,0.05906X0.01000*%
%ADD18R,0.03543X0.02756*%
%ADD19R,0.04331X0.03937*%
%ADD20R,0.03937X0.04331*%
%ADD21R,0.04724X0.05512*%
%ADD22R,0.01575X0.05315*%
%ADD23C,0.05543*%
%ADD24C,0.07087*%
%ADD25C,0.04500*%
%ADD26R,0.04724X0.01378*%
%ADD27R,0.02756X0.03543*%
%ADD28C,0.04756*%
%ADD29C,0.01000*%
%ADD30C,0.03100*%
%ADD31C,0.01500*%
%ADD32C,0.02800*%
%ADD33C,0.03118*%
%ADD34C,0.04000*%
%ADD35C,0.07500*%
%ADD36C,0.03000*%
%ADD37C,0.02500*%
%ADD38C,0.05000*%
%ADD39C,0.06000*%
%ADD40C,0.11000*%
%ADD41C,0.07500*%
%ADD42C,0.01310*%
%ADD43C,0.02000*%
D10*
G36*
X0149364Y0078427D02*
X0148954Y0076102D01*
X0145660Y0076683D01*
X0146070Y0079008D01*
X0149364Y0078427D01*
G37*
G36*
X0150184Y0083080D02*
X0149774Y0080755D01*
X0146480Y0081336D01*
X0146890Y0083661D01*
X0150184Y0083080D01*
G37*
G36*
X0151005Y0087732D02*
X0150595Y0085407D01*
X0147301Y0085988D01*
X0147711Y0088313D01*
X0151005Y0087732D01*
G37*
G36*
X0151825Y0092385D02*
X0151415Y0090060D01*
X0148121Y0090641D01*
X0148531Y0092966D01*
X0151825Y0092385D01*
G37*
G36*
X0152645Y0097038D02*
X0152235Y0094713D01*
X0148941Y0095294D01*
X0149351Y0097619D01*
X0152645Y0097038D01*
G37*
G36*
X0153466Y0101690D02*
X0153056Y0099365D01*
X0149762Y0099946D01*
X0150172Y0102271D01*
X0153466Y0101690D01*
G37*
G36*
X0114365Y0183160D02*
X0116722Y0183284D01*
X0116897Y0179944D01*
X0114540Y0179820D01*
X0114365Y0183160D01*
G37*
G36*
X0109647Y0182913D02*
X0112004Y0183037D01*
X0112179Y0179697D01*
X0109822Y0179573D01*
X0109647Y0182913D01*
G37*
G36*
X0104929Y0182665D02*
X0107286Y0182789D01*
X0107461Y0179449D01*
X0105104Y0179325D01*
X0104929Y0182665D01*
G37*
G36*
X0100211Y0182418D02*
X0102568Y0182542D01*
X0102743Y0179202D01*
X0100386Y0179078D01*
X0100211Y0182418D01*
G37*
G36*
X0095493Y0182171D02*
X0097850Y0182295D01*
X0098025Y0178955D01*
X0095668Y0178831D01*
X0095493Y0182171D01*
G37*
G36*
X0090775Y0181924D02*
X0093132Y0182048D01*
X0093307Y0178708D01*
X0090950Y0178584D01*
X0090775Y0181924D01*
G37*
G36*
X0063184Y0159538D02*
X0065541Y0159662D01*
X0065716Y0156322D01*
X0063359Y0156198D01*
X0063184Y0159538D01*
G37*
G36*
X0058466Y0159291D02*
X0060823Y0159415D01*
X0060998Y0156075D01*
X0058641Y0155951D01*
X0058466Y0159291D01*
G37*
G36*
X0053748Y0159043D02*
X0056105Y0159167D01*
X0056280Y0155827D01*
X0053923Y0155703D01*
X0053748Y0159043D01*
G37*
G36*
X0049030Y0158796D02*
X0051387Y0158920D01*
X0051562Y0155580D01*
X0049205Y0155456D01*
X0049030Y0158796D01*
G37*
G36*
X0044312Y0158549D02*
X0046669Y0158673D01*
X0046844Y0155333D01*
X0044487Y0155209D01*
X0044312Y0158549D01*
G37*
G36*
X0039594Y0158301D02*
X0041951Y0158425D01*
X0042126Y0155085D01*
X0039769Y0154961D01*
X0039594Y0158301D01*
G37*
G36*
X0153767Y0185861D02*
X0156124Y0185985D01*
X0156299Y0182645D01*
X0153942Y0182521D01*
X0153767Y0185861D01*
G37*
G36*
X0158485Y0186108D02*
X0160842Y0186232D01*
X0161017Y0182892D01*
X0158660Y0182768D01*
X0158485Y0186108D01*
G37*
G36*
X0163203Y0186355D02*
X0165560Y0186479D01*
X0165735Y0183139D01*
X0163378Y0183015D01*
X0163203Y0186355D01*
G37*
G36*
X0167921Y0186602D02*
X0170278Y0186726D01*
X0170453Y0183386D01*
X0168096Y0183262D01*
X0167921Y0186602D01*
G37*
G36*
X0172639Y0186850D02*
X0174996Y0186974D01*
X0175171Y0183634D01*
X0172814Y0183510D01*
X0172639Y0186850D01*
G37*
G36*
X0177357Y0187097D02*
X0179714Y0187221D01*
X0179889Y0183881D01*
X0177532Y0183757D01*
X0177357Y0187097D01*
G37*
X0205724Y0188795D03*
X0210449Y0188795D03*
X0215173Y0188795D03*
X0219898Y0188795D03*
X0224622Y0188795D03*
X0229346Y0188795D03*
D11*
X0235055Y0206906D03*
X0200016Y0206906D03*
G36*
X0181918Y0205373D02*
X0184669Y0205517D01*
X0184834Y0202373D01*
X0182083Y0202229D01*
X0181918Y0205373D01*
G37*
G36*
X0146927Y0203539D02*
X0149678Y0203683D01*
X0149843Y0200539D01*
X0147092Y0200395D01*
X0146927Y0203539D01*
G37*
G36*
X0118926Y0201436D02*
X0121677Y0201580D01*
X0121842Y0198436D01*
X0119091Y0198292D01*
X0118926Y0201436D01*
G37*
G36*
X0083935Y0199602D02*
X0086686Y0199746D01*
X0086851Y0196602D01*
X0084100Y0196458D01*
X0083935Y0199602D01*
G37*
G36*
X0067745Y0177814D02*
X0070496Y0177958D01*
X0070661Y0174814D01*
X0067910Y0174670D01*
X0067745Y0177814D01*
G37*
G36*
X0032754Y0175980D02*
X0035505Y0176124D01*
X0035670Y0172980D01*
X0032919Y0172836D01*
X0032754Y0175980D01*
G37*
G36*
X0166146Y0069871D02*
X0165667Y0067158D01*
X0162566Y0067705D01*
X0163045Y0070418D01*
X0166146Y0069871D01*
G37*
G36*
X0172230Y0104378D02*
X0171751Y0101665D01*
X0168650Y0102212D01*
X0169129Y0104925D01*
X0172230Y0104378D01*
G37*
D12*
X0145488Y0052181D03*
X0145488Y0047457D03*
X0145488Y0042732D03*
X0145488Y0038008D03*
X0145488Y0033283D03*
X0145488Y0028559D03*
D13*
X0163598Y0022850D03*
X0163598Y0057890D03*
D14*
X0113205Y0042339D03*
X0026591Y0077772D03*
X0095488Y0146669D03*
X0227378Y0160449D03*
D15*
X0221177Y0161728D02*
X0215665Y0161728D01*
X0215665Y0159169D02*
X0221177Y0159169D01*
X0221177Y0156610D02*
X0215665Y0156610D01*
X0215665Y0164287D02*
X0221177Y0164287D01*
X0223539Y0166650D02*
X0223539Y0172162D01*
X0226098Y0172162D02*
X0226098Y0166650D01*
X0228657Y0166650D02*
X0228657Y0172162D01*
X0231217Y0172162D02*
X0231217Y0166650D01*
X0233579Y0164287D02*
X0239091Y0164287D01*
X0239091Y0161728D02*
X0233579Y0161728D01*
X0233579Y0159169D02*
X0239091Y0159169D01*
X0239091Y0156610D02*
X0233579Y0156610D01*
X0231217Y0154248D02*
X0231217Y0148736D01*
X0228657Y0148736D02*
X0228657Y0154248D01*
X0226098Y0154248D02*
X0226098Y0148736D01*
X0223539Y0148736D02*
X0223539Y0154248D01*
X0117043Y0054051D02*
X0117043Y0048539D01*
X0114484Y0048539D02*
X0114484Y0054051D01*
X0111925Y0054051D02*
X0111925Y0048539D01*
X0109366Y0048539D02*
X0109366Y0054051D01*
X0107004Y0046177D02*
X0101492Y0046177D01*
X0101492Y0043618D02*
X0107004Y0043618D01*
X0107004Y0041059D02*
X0101492Y0041059D01*
X0101492Y0038500D02*
X0107004Y0038500D01*
X0109366Y0036138D02*
X0109366Y0030626D01*
X0111925Y0030626D02*
X0111925Y0036138D01*
X0114484Y0036138D02*
X0114484Y0030626D01*
X0117043Y0030626D02*
X0117043Y0036138D01*
X0119405Y0038500D02*
X0124917Y0038500D01*
X0124917Y0041059D02*
X0119405Y0041059D01*
X0119405Y0043618D02*
X0124917Y0043618D01*
X0124917Y0046177D02*
X0119405Y0046177D01*
X0038303Y0073933D02*
X0032791Y0073933D01*
X0032791Y0076492D02*
X0038303Y0076492D01*
X0038303Y0079051D02*
X0032791Y0079051D01*
X0032791Y0081610D02*
X0038303Y0081610D01*
X0030429Y0083972D02*
X0030429Y0089484D01*
X0027870Y0089484D02*
X0027870Y0083972D01*
X0025311Y0083972D02*
X0025311Y0089484D01*
X0022752Y0089484D02*
X0022752Y0083972D01*
X0020390Y0081610D02*
X0014878Y0081610D01*
X0014878Y0079051D02*
X0020390Y0079051D01*
X0020390Y0076492D02*
X0014878Y0076492D01*
X0014878Y0073933D02*
X0020390Y0073933D01*
X0022752Y0071571D02*
X0022752Y0066059D01*
X0025311Y0066059D02*
X0025311Y0071571D01*
X0027870Y0071571D02*
X0027870Y0066059D01*
X0030429Y0066059D02*
X0030429Y0071571D01*
X0091650Y0134957D02*
X0091650Y0140469D01*
X0094209Y0140469D02*
X0094209Y0134957D01*
X0096768Y0134957D02*
X0096768Y0140469D01*
X0099327Y0140469D02*
X0099327Y0134957D01*
X0101689Y0142831D02*
X0107201Y0142831D01*
X0107201Y0145390D02*
X0101689Y0145390D01*
X0101689Y0147949D02*
X0107201Y0147949D01*
X0107201Y0150508D02*
X0101689Y0150508D01*
X0099327Y0152870D02*
X0099327Y0158382D01*
X0096768Y0158382D02*
X0096768Y0152870D01*
X0094209Y0152870D02*
X0094209Y0158382D01*
X0091650Y0158382D02*
X0091650Y0152870D01*
X0089287Y0150508D02*
X0083775Y0150508D01*
X0083775Y0147949D02*
X0089287Y0147949D01*
X0089287Y0145390D02*
X0083775Y0145390D01*
X0083775Y0142831D02*
X0089287Y0142831D01*
D16*
X0088598Y0098441D03*
X0086630Y0098441D03*
X0084661Y0098441D03*
X0082693Y0098441D03*
X0080724Y0098441D03*
X0078756Y0098441D03*
X0076787Y0098441D03*
X0074819Y0098441D03*
X0072850Y0098441D03*
X0070882Y0098441D03*
X0068913Y0098441D03*
X0066945Y0098441D03*
X0064976Y0098441D03*
X0063008Y0098441D03*
X0061039Y0098441D03*
X0059071Y0098441D03*
X0059071Y0053165D03*
X0061039Y0053165D03*
X0063008Y0053165D03*
X0064976Y0053165D03*
X0066945Y0053165D03*
X0068913Y0053165D03*
X0070882Y0053165D03*
X0072850Y0053165D03*
X0074819Y0053165D03*
X0076787Y0053165D03*
X0078756Y0053165D03*
X0080724Y0053165D03*
X0082693Y0053165D03*
X0084661Y0053165D03*
X0086630Y0053165D03*
X0088598Y0053165D03*
D17*
X0096472Y0061039D03*
X0096472Y0063008D03*
X0096472Y0064976D03*
X0096472Y0066945D03*
X0096472Y0068913D03*
X0096472Y0070882D03*
X0096472Y0072850D03*
X0096472Y0074819D03*
X0096472Y0076787D03*
X0096472Y0078756D03*
X0096472Y0080724D03*
X0096472Y0082693D03*
X0096472Y0084661D03*
X0096472Y0086630D03*
X0096472Y0088598D03*
X0096472Y0090567D03*
X0051197Y0090567D03*
X0051197Y0088598D03*
X0051197Y0086630D03*
X0051197Y0084661D03*
X0051197Y0082693D03*
X0051197Y0080724D03*
X0051197Y0078756D03*
X0051197Y0076787D03*
X0051197Y0074819D03*
X0051197Y0072850D03*
X0051197Y0070882D03*
X0051197Y0068913D03*
X0051197Y0066945D03*
X0051197Y0064976D03*
X0051197Y0063008D03*
X0051197Y0061039D03*
D18*
X0040370Y0061433D03*
X0040370Y0066551D03*
X0040370Y0088992D03*
X0040370Y0094110D03*
X0052181Y0112614D03*
X0052181Y0117732D03*
X0060055Y0117732D03*
X0060055Y0112614D03*
X0067929Y0112614D03*
X0067929Y0117732D03*
X0075803Y0117732D03*
X0075803Y0112614D03*
X0042339Y0125157D03*
X0042339Y0130275D03*
X0034265Y0121506D03*
X0034265Y0116388D03*
D19*
X0067150Y0032246D03*
X0067150Y0025554D03*
X0075100Y0025554D03*
X0075100Y0032246D03*
X0093947Y0016648D03*
X0100640Y0016648D03*
X0105833Y0016664D03*
X0112526Y0016664D03*
X0210689Y0136958D03*
X0217382Y0136958D03*
X0222564Y0136978D03*
X0229257Y0136978D03*
D20*
X0032400Y0018754D03*
X0032400Y0025446D03*
X0051000Y0020346D03*
X0051000Y0013654D03*
X0119110Y0011433D03*
X0119110Y0018126D03*
X0057496Y0126984D03*
X0050803Y0126984D03*
X0121079Y0129380D03*
X0121079Y0136073D03*
X0121069Y0141306D03*
X0121069Y0147999D03*
X0121093Y0153156D03*
X0121093Y0159849D03*
X0235852Y0138336D03*
X0235852Y0131643D03*
D21*
X0047457Y0048638D03*
X0041157Y0048638D03*
X0041157Y0039976D03*
X0047457Y0039976D03*
D22*
G36*
X0017097Y0133244D02*
X0017029Y0134816D01*
X0022337Y0135048D01*
X0022405Y0133476D01*
X0017097Y0133244D01*
G37*
G36*
X0016985Y0135800D02*
X0016917Y0137372D01*
X0022225Y0137604D01*
X0022293Y0136032D01*
X0016985Y0135800D01*
G37*
G36*
X0016874Y0138357D02*
X0016806Y0139929D01*
X0022114Y0140161D01*
X0022182Y0138589D01*
X0016874Y0138357D01*
G37*
G36*
X0016762Y0140914D02*
X0016694Y0142486D01*
X0022002Y0142718D01*
X0022070Y0141146D01*
X0016762Y0140914D01*
G37*
G36*
X0016651Y0143470D02*
X0016583Y0145042D01*
X0021891Y0145274D01*
X0021959Y0143702D01*
X0016651Y0143470D01*
G37*
D23*
X0019064Y0149092D03*
X0019923Y0129426D03*
D24*
X0009475Y0125029D03*
X0008273Y0152562D03*
D25*
X0034639Y0141932D03*
X0034265Y0134595D03*
X0028559Y0099500D03*
X0020600Y0099500D03*
D26*
X0142752Y0145315D03*
X0142752Y0147874D03*
X0142752Y0150433D03*
X0142752Y0152992D03*
X0142752Y0155551D03*
X0142752Y0158110D03*
X0142752Y0160669D03*
X0142752Y0163228D03*
X0165783Y0163228D03*
X0165783Y0160669D03*
X0165783Y0158110D03*
X0165783Y0155551D03*
X0165783Y0152992D03*
X0165783Y0150433D03*
X0165783Y0147874D03*
X0165783Y0145315D03*
D27*
X0090173Y0111236D03*
X0085055Y0111236D03*
X0087708Y0045446D03*
X0092826Y0045446D03*
D28*
X0181100Y0149600D03*
X0188600Y0149600D03*
X0188600Y0157100D03*
X0181100Y0157100D03*
X0181100Y0164600D03*
X0188600Y0164600D03*
X0191100Y0197500D03*
X0191100Y0205000D03*
X0137800Y0205100D03*
X0137800Y0197600D03*
X0137800Y0190100D03*
X0130300Y0190100D03*
X0130300Y0197600D03*
X0130300Y0205100D03*
X0245700Y0206900D03*
X0245700Y0199400D03*
X0245700Y0191900D03*
X0245700Y0184400D03*
D29*
X0228700Y0169406D02*
X0228657Y0169406D01*
X0226098Y0169406D02*
X0226000Y0169406D01*
X0225400Y0162450D02*
X0227378Y0160522D01*
X0227378Y0160449D01*
X0218421Y0159169D02*
X0211769Y0159169D01*
X0202300Y0149700D01*
X0202300Y0147400D01*
X0168200Y0113300D01*
X0121700Y0113300D01*
X0098967Y0090567D01*
X0096472Y0090567D01*
X0096474Y0088600D02*
X0099900Y0088600D01*
X0122700Y0111400D01*
X0169000Y0111400D01*
X0204200Y0146600D01*
X0204200Y0148800D01*
X0212010Y0156610D01*
X0218421Y0156610D01*
X0218421Y0159169D02*
X0218191Y0159400D01*
X0225404Y0146656D02*
X0225807Y0146548D01*
X0225807Y0145576D01*
X0226241Y0144528D01*
X0226400Y0144370D01*
X0226400Y0141200D01*
X0226246Y0141046D01*
X0226221Y0141046D01*
X0225442Y0140267D01*
X0225308Y0140344D01*
X0224927Y0140446D01*
X0223048Y0140446D01*
X0223048Y0137462D01*
X0222080Y0137462D01*
X0222080Y0140446D01*
X0220201Y0140446D01*
X0219936Y0140375D01*
X0219745Y0140427D01*
X0217866Y0140427D01*
X0217866Y0137443D01*
X0216898Y0137443D01*
X0216898Y0140427D01*
X0215500Y0140427D01*
X0215500Y0142200D01*
X0219050Y0145750D01*
X0223950Y0145750D01*
X0224185Y0145985D01*
X0225119Y0146372D01*
X0225404Y0146656D01*
X0225807Y0145784D02*
X0223984Y0145784D01*
X0226135Y0144786D02*
X0218086Y0144786D01*
X0217087Y0143787D02*
X0226400Y0143787D01*
X0226400Y0142789D02*
X0216089Y0142789D01*
X0215500Y0141790D02*
X0226400Y0141790D01*
X0225967Y0140792D02*
X0215500Y0140792D01*
X0216898Y0139793D02*
X0217866Y0139793D01*
X0217866Y0138795D02*
X0216898Y0138795D01*
X0216898Y0137796D02*
X0217866Y0137796D01*
X0217866Y0137443D02*
X0221047Y0137443D01*
X0221047Y0137462D01*
X0222079Y0137462D01*
X0222079Y0136494D01*
X0218898Y0136494D01*
X0218898Y0136474D01*
X0217866Y0136474D01*
X0217866Y0133490D01*
X0219745Y0133490D01*
X0220010Y0133561D01*
X0220201Y0133509D01*
X0222080Y0133509D01*
X0222080Y0136494D01*
X0223048Y0136494D01*
X0223048Y0133509D01*
X0224927Y0133509D01*
X0224950Y0133516D01*
X0224950Y0125750D01*
X0218754Y0120511D01*
X0212523Y0118547D01*
X0204600Y0116500D01*
X0202250Y0118150D01*
X0200800Y0124400D01*
X0203200Y0127500D01*
X0208150Y0131550D01*
X0215500Y0132100D01*
X0215500Y0133490D01*
X0216898Y0133490D01*
X0216898Y0136474D01*
X0217866Y0136474D01*
X0217866Y0137443D01*
X0217866Y0136798D02*
X0222079Y0136798D01*
X0222080Y0137796D02*
X0223048Y0137796D01*
X0223048Y0138795D02*
X0222080Y0138795D01*
X0222080Y0139793D02*
X0223048Y0139793D01*
X0223048Y0135799D02*
X0222080Y0135799D01*
X0222080Y0134801D02*
X0223048Y0134801D01*
X0223048Y0133802D02*
X0222080Y0133802D01*
X0220200Y0134600D02*
X0227100Y0127700D01*
X0239800Y0127700D01*
X0241450Y0129350D01*
X0241450Y0135300D01*
X0248050Y0141500D01*
X0249150Y0156450D01*
X0243872Y0161728D01*
X0236335Y0161728D01*
X0236335Y0159169D02*
X0242231Y0159169D01*
X0246600Y0154800D01*
X0245350Y0144400D01*
X0243100Y0141950D01*
X0242000Y0147100D02*
X0236335Y0152765D01*
X0236335Y0156610D01*
X0236335Y0164287D02*
X0238700Y0165587D01*
X0219700Y0183900D02*
X0219700Y0188598D01*
X0219898Y0188795D01*
X0215173Y0188795D02*
X0215173Y0185473D01*
X0210300Y0180600D01*
X0203054Y0181400D02*
X0210449Y0188795D01*
X0203054Y0181400D02*
X0202700Y0181400D01*
X0188600Y0157100D02*
X0184900Y0153400D01*
X0178100Y0153400D01*
X0173390Y0158110D01*
X0165783Y0158110D01*
X0165783Y0160669D02*
X0177531Y0160669D01*
X0181100Y0157100D01*
X0181100Y0149600D02*
X0177800Y0149600D01*
X0174408Y0152992D01*
X0165783Y0152992D01*
X0165783Y0150433D02*
X0172867Y0150433D01*
X0177800Y0145500D01*
X0184500Y0145500D01*
X0188600Y0149600D01*
X0206300Y0143300D02*
X0206400Y0143300D01*
X0207200Y0142500D01*
X0206300Y0143300D02*
X0170600Y0107600D01*
X0124700Y0107600D01*
X0101761Y0084661D01*
X0096472Y0084661D01*
X0096643Y0086600D02*
X0100800Y0086600D01*
X0123700Y0109500D01*
X0169800Y0109500D01*
X0207600Y0147300D01*
X0216898Y0135799D02*
X0217866Y0135799D01*
X0217866Y0134801D02*
X0216898Y0134801D01*
X0216898Y0133802D02*
X0217866Y0133802D01*
X0215500Y0132803D02*
X0224950Y0132803D01*
X0224950Y0131805D02*
X0211557Y0131805D01*
X0207241Y0130806D02*
X0224950Y0130806D01*
X0224950Y0129808D02*
X0206021Y0129808D01*
X0204800Y0128809D02*
X0224950Y0128809D01*
X0224950Y0127811D02*
X0203580Y0127811D01*
X0202668Y0126812D02*
X0224950Y0126812D01*
X0224950Y0125814D02*
X0201895Y0125814D01*
X0201122Y0124815D02*
X0223845Y0124815D01*
X0222664Y0123817D02*
X0200935Y0123817D01*
X0201167Y0122818D02*
X0221483Y0122818D01*
X0220302Y0121820D02*
X0201399Y0121820D01*
X0201630Y0120821D02*
X0219121Y0120821D01*
X0216572Y0119823D02*
X0201862Y0119823D01*
X0202094Y0118824D02*
X0213404Y0118824D01*
X0209733Y0117826D02*
X0202712Y0117826D01*
X0204134Y0116827D02*
X0205867Y0116827D01*
X0165783Y0163228D02*
X0161100Y0163228D01*
X0160700Y0163200D01*
X0160700Y0170900D01*
X0169000Y0179200D01*
X0169000Y0184807D01*
X0169187Y0184994D01*
X0164469Y0184747D02*
X0163800Y0184078D01*
X0163800Y0179600D01*
X0159751Y0179851D02*
X0159751Y0184500D01*
X0159751Y0179851D02*
X0159500Y0179000D01*
X0152600Y0173600D02*
X0137800Y0188400D01*
X0137800Y0190100D01*
X0134000Y0193900D02*
X0141800Y0193900D01*
X0142700Y0193000D01*
X0137100Y0186100D02*
X0134300Y0186100D01*
X0130300Y0190100D01*
X0134000Y0193900D02*
X0130300Y0197600D01*
X0137100Y0186100D02*
X0150800Y0172400D01*
X0150800Y0159200D01*
X0147151Y0155551D01*
X0142752Y0155551D01*
X0142752Y0158110D02*
X0146700Y0158110D01*
X0146700Y0160500D01*
X0142752Y0160500D01*
X0142752Y0160669D01*
X0142752Y0163228D02*
X0146700Y0163228D01*
X0146700Y0163200D01*
X0147800Y0163200D01*
X0146700Y0163200D02*
X0146700Y0160500D01*
X0152600Y0158000D02*
X0147592Y0152992D01*
X0142752Y0152992D01*
X0152600Y0158000D02*
X0152600Y0173600D01*
X0124900Y0162950D02*
X0124900Y0144300D01*
X0121906Y0141306D01*
X0121069Y0141306D01*
X0121913Y0142150D01*
X0121554Y0141791D02*
X0124538Y0141791D01*
X0124538Y0143150D01*
X0128650Y0143150D01*
X0146500Y0141450D01*
X0154950Y0134850D01*
X0154550Y0116650D01*
X0132868Y0115900D01*
X0122741Y0115900D01*
X0122500Y0124850D01*
X0123356Y0125115D01*
X0123917Y0125115D01*
X0124169Y0125366D01*
X0124600Y0125500D01*
X0124600Y0125798D01*
X0125147Y0126345D01*
X0125147Y0132416D01*
X0124368Y0133195D01*
X0124445Y0133329D01*
X0124547Y0133710D01*
X0124547Y0135589D01*
X0121563Y0135589D01*
X0121563Y0136557D01*
X0124547Y0136557D01*
X0124547Y0138436D01*
X0124475Y0138707D01*
X0124538Y0138943D01*
X0124538Y0140822D01*
X0121554Y0140822D01*
X0121554Y0141791D01*
X0121554Y0141790D02*
X0142929Y0141790D01*
X0147343Y0140792D02*
X0124538Y0140792D01*
X0124538Y0139793D02*
X0148621Y0139793D01*
X0149900Y0138795D02*
X0124498Y0138795D01*
X0124547Y0137796D02*
X0151178Y0137796D01*
X0152457Y0136798D02*
X0124547Y0136798D01*
X0124547Y0134801D02*
X0154949Y0134801D01*
X0154927Y0133802D02*
X0124547Y0133802D01*
X0124759Y0132803D02*
X0154905Y0132803D01*
X0154883Y0131805D02*
X0125147Y0131805D01*
X0125147Y0130806D02*
X0154861Y0130806D01*
X0154839Y0129808D02*
X0125147Y0129808D01*
X0125147Y0128809D02*
X0154817Y0128809D01*
X0154795Y0127811D02*
X0125147Y0127811D01*
X0125147Y0126812D02*
X0154773Y0126812D01*
X0154751Y0125814D02*
X0124616Y0125814D01*
X0122501Y0124815D02*
X0154729Y0124815D01*
X0154708Y0123817D02*
X0122528Y0123817D01*
X0122555Y0122818D02*
X0154686Y0122818D01*
X0154664Y0121820D02*
X0122581Y0121820D01*
X0122608Y0120821D02*
X0154642Y0120821D01*
X0154620Y0119823D02*
X0122635Y0119823D01*
X0122662Y0118824D02*
X0154598Y0118824D01*
X0154576Y0117826D02*
X0122689Y0117826D01*
X0122716Y0116827D02*
X0154554Y0116827D01*
X0152400Y0104500D02*
X0151314Y0101314D01*
X0151614Y0100818D01*
X0150359Y0096600D02*
X0150793Y0096166D01*
X0150359Y0096600D02*
X0147000Y0096600D01*
X0145800Y0093000D01*
X0138500Y0090600D01*
X0131700Y0076700D01*
X0110400Y0071300D01*
X0105076Y0064976D01*
X0096472Y0064976D01*
X0096472Y0063008D02*
X0106408Y0062908D01*
X0111300Y0069300D01*
X0133300Y0074800D01*
X0140000Y0088600D01*
X0149960Y0091500D01*
X0149973Y0091513D01*
X0148613Y0087400D02*
X0140400Y0084500D01*
X0137800Y0076800D01*
X0148613Y0087400D02*
X0149153Y0086860D01*
X0134600Y0058400D02*
X0135000Y0053200D01*
X0139600Y0044800D01*
X0139600Y0040000D01*
X0141700Y0037900D01*
X0145380Y0037900D01*
X0145488Y0038008D01*
X0145488Y0042732D02*
X0142268Y0042732D01*
X0141600Y0043400D01*
X0141600Y0046600D01*
X0138900Y0052900D01*
X0142300Y0054900D02*
X0140600Y0056600D01*
X0142300Y0054900D02*
X0142300Y0050300D01*
X0144843Y0046957D01*
X0145488Y0047457D01*
X0145488Y0052181D02*
X0145900Y0052593D01*
X0145900Y0054400D01*
X0148300Y0056800D01*
X0129900Y0040900D02*
X0129900Y0028600D01*
X0133150Y0025350D01*
X0142300Y0025350D01*
X0147850Y0019800D01*
X0127900Y0037500D02*
X0127900Y0039400D01*
X0126400Y0040900D01*
X0122320Y0040900D01*
X0122161Y0041059D01*
X0122161Y0038500D02*
X0121300Y0037639D01*
X0121300Y0030400D01*
X0126000Y0030050D02*
X0126000Y0035600D01*
X0127900Y0037500D01*
X0129900Y0040900D02*
X0127182Y0043618D01*
X0122161Y0043618D01*
X0104248Y0041059D02*
X0096109Y0041059D01*
X0092550Y0037500D01*
X0089900Y0037500D01*
X0082693Y0044707D01*
X0082693Y0053165D01*
X0084661Y0053165D02*
X0084661Y0057439D01*
X0083750Y0058350D01*
X0079250Y0058350D01*
X0078350Y0059250D01*
X0082600Y0063200D02*
X0072200Y0063200D01*
X0068700Y0066700D01*
X0060400Y0066700D01*
X0058650Y0064950D01*
X0051223Y0064950D01*
X0051197Y0064976D01*
X0045324Y0064976D01*
X0043900Y0066400D01*
X0040521Y0066400D01*
X0040370Y0066551D01*
X0039969Y0066150D01*
X0037750Y0066150D01*
X0035000Y0063400D01*
X0034350Y0063400D01*
X0037150Y0059050D02*
X0029850Y0055850D01*
X0028900Y0056800D01*
X0028900Y0060250D01*
X0025311Y0063839D01*
X0025311Y0068815D01*
X0025300Y0068826D01*
X0022752Y0068815D02*
X0022752Y0061402D01*
X0022150Y0060800D01*
X0030429Y0068815D02*
X0034885Y0068815D01*
X0034900Y0068800D01*
X0035655Y0076300D02*
X0039700Y0076300D01*
X0041800Y0072700D01*
X0044781Y0074819D02*
X0042100Y0076600D01*
X0040300Y0079300D01*
X0035796Y0079300D01*
X0035547Y0079051D01*
X0035547Y0076492D02*
X0035655Y0076300D01*
X0035547Y0081610D02*
X0035637Y0081700D01*
X0045400Y0081700D01*
X0046676Y0080724D01*
X0051197Y0080724D01*
X0051197Y0078756D02*
X0055200Y0078800D01*
X0056256Y0079856D01*
X0057044Y0079856D01*
X0059207Y0082693D02*
X0062600Y0079700D01*
X0064300Y0078000D01*
X0066600Y0078000D01*
X0062700Y0074500D02*
X0061000Y0073000D01*
X0058600Y0073000D01*
X0054682Y0070882D01*
X0051197Y0070882D01*
X0051197Y0072850D02*
X0054050Y0072850D01*
X0055600Y0073700D01*
X0055900Y0076300D01*
X0059500Y0076700D01*
X0058600Y0070600D02*
X0064000Y0070600D01*
X0074500Y0081100D01*
X0077900Y0081100D01*
X0095900Y0099100D01*
X0095900Y0131300D01*
X0096800Y0132200D01*
X0096800Y0137680D01*
X0096768Y0137713D01*
X0096700Y0137645D01*
X0099327Y0137713D02*
X0099327Y0131027D01*
X0097900Y0129600D01*
X0097900Y0098100D01*
X0079100Y0079300D01*
X0075600Y0079300D01*
X0064800Y0068500D01*
X0059400Y0068500D01*
X0057845Y0066945D01*
X0051197Y0066945D01*
X0051197Y0068913D02*
X0056913Y0068913D01*
X0058600Y0070600D01*
X0051197Y0074819D02*
X0044781Y0074819D01*
X0047313Y0076787D02*
X0044800Y0078400D01*
X0047313Y0076787D02*
X0051197Y0076787D01*
X0051197Y0082693D02*
X0047407Y0082693D01*
X0045700Y0084100D01*
X0045262Y0084100D01*
X0040370Y0088992D01*
X0045200Y0090700D02*
X0045333Y0090567D01*
X0051197Y0090567D01*
X0051197Y0082693D02*
X0059207Y0082693D01*
X0065500Y0090000D02*
X0066945Y0091445D01*
X0066945Y0098441D01*
X0068913Y0098441D02*
X0068913Y0091587D01*
X0070400Y0090100D01*
X0075500Y0091000D02*
X0076787Y0092613D01*
X0076787Y0098441D01*
X0076787Y0102687D01*
X0077200Y0103100D01*
X0075750Y0103100D01*
X0074850Y0102200D01*
X0074819Y0101981D01*
X0074819Y0098441D01*
X0072850Y0098441D02*
X0072850Y0103750D01*
X0075100Y0106000D01*
X0077900Y0103800D02*
X0079500Y0103800D01*
X0077900Y0103800D02*
X0077200Y0103100D01*
X0078756Y0098441D02*
X0078756Y0094761D01*
X0078695Y0094800D01*
X0080724Y0094819D02*
X0080724Y0098441D01*
X0082693Y0098441D02*
X0082693Y0108874D01*
X0085055Y0111236D01*
X0083700Y0112591D01*
X0083700Y0116600D01*
X0090173Y0111236D02*
X0090173Y0109673D01*
X0092800Y0106500D02*
X0088657Y0102400D01*
X0088598Y0098441D01*
X0086630Y0098441D02*
X0086630Y0094030D01*
X0083700Y0092600D01*
X0084661Y0098441D02*
X0084661Y0104161D01*
X0085700Y0105200D01*
X0084700Y0098480D02*
X0084661Y0098441D01*
X0070882Y0098441D02*
X0070882Y0102318D01*
X0068900Y0104300D01*
X0064976Y0106676D02*
X0064976Y0098441D01*
X0063008Y0098441D02*
X0063008Y0094292D01*
X0062300Y0093000D01*
X0063008Y0098441D02*
X0063008Y0108908D01*
X0063700Y0109600D01*
X0063700Y0117732D01*
X0060055Y0117732D01*
X0063700Y0117732D02*
X0067929Y0117732D01*
X0068200Y0118003D01*
X0068200Y0123400D01*
X0070600Y0125800D01*
X0073300Y0125800D01*
X0075803Y0123297D01*
X0075803Y0117732D01*
X0071800Y0113800D02*
X0071800Y0122200D01*
X0071800Y0113800D02*
X0070614Y0112614D01*
X0067929Y0112614D01*
X0067000Y0108700D02*
X0064976Y0106676D01*
X0067000Y0108700D02*
X0071889Y0108700D01*
X0075803Y0112614D01*
X0061039Y0111630D02*
X0061039Y0104050D01*
X0059071Y0102081D01*
X0059071Y0098441D01*
X0061039Y0098441D02*
X0061039Y0104050D01*
X0061039Y0111630D02*
X0060055Y0112614D01*
X0056200Y0112614D01*
X0056200Y0125688D01*
X0057496Y0126984D01*
X0059896Y0126904D01*
X0062800Y0127000D01*
X0052181Y0117732D02*
X0050632Y0117732D01*
X0048700Y0115800D01*
X0048700Y0109000D01*
X0051700Y0106000D01*
X0053000Y0106000D01*
X0052181Y0112614D02*
X0056200Y0112614D01*
X0028559Y0099500D02*
X0027870Y0098736D01*
X0027870Y0086728D01*
X0030400Y0086699D02*
X0030400Y0085900D01*
X0034600Y0085900D01*
X0030429Y0086728D02*
X0030400Y0086699D01*
X0026591Y0077772D02*
X0026591Y0075491D01*
X0025300Y0074200D01*
X0017634Y0081610D02*
X0017544Y0081700D01*
X0011800Y0081700D01*
X0037150Y0059050D02*
X0040387Y0061450D01*
X0040370Y0061433D01*
X0040387Y0061450D02*
X0043550Y0061450D01*
X0045108Y0063008D01*
X0051197Y0063008D01*
X0051197Y0061039D02*
X0052600Y0060400D01*
X0061000Y0058700D02*
X0061039Y0058661D01*
X0061039Y0053165D01*
X0059071Y0053165D02*
X0058865Y0053165D01*
X0058600Y0053200D01*
X0063008Y0053165D02*
X0063008Y0046808D01*
X0061300Y0045100D01*
X0061300Y0041200D01*
X0064976Y0042824D02*
X0065700Y0042100D01*
X0064976Y0042824D02*
X0064976Y0053165D01*
X0066945Y0053165D02*
X0066945Y0058155D01*
X0066000Y0059100D01*
X0068913Y0061387D02*
X0068913Y0053165D01*
X0068913Y0047587D01*
X0071300Y0045200D01*
X0071300Y0036046D01*
X0075100Y0032246D01*
X0069000Y0034096D02*
X0067150Y0032246D01*
X0069000Y0034096D02*
X0069000Y0043500D01*
X0066945Y0045555D01*
X0066945Y0053165D01*
X0074819Y0053165D02*
X0074819Y0040919D01*
X0074800Y0040900D01*
X0077800Y0045400D02*
X0076787Y0046413D01*
X0076787Y0053165D01*
X0080724Y0053165D02*
X0080724Y0043476D01*
X0089000Y0035200D01*
X0093700Y0035200D01*
X0097000Y0038500D01*
X0104248Y0038500D01*
X0104248Y0046177D02*
X0103300Y0046177D01*
X0102700Y0046777D01*
X0093715Y0053165D02*
X0097150Y0056600D01*
X0093715Y0053165D02*
X0088615Y0053165D01*
X0088615Y0052685D01*
X0092750Y0048550D01*
X0092750Y0045522D01*
X0092826Y0045446D01*
X0090900Y0041150D02*
X0087708Y0044342D01*
X0087708Y0045446D01*
X0086630Y0046524D01*
X0086630Y0053165D01*
X0088598Y0053165D02*
X0088598Y0057202D01*
X0082600Y0063200D01*
X0084300Y0069200D02*
X0087600Y0068700D01*
X0088719Y0070119D01*
X0091519Y0074819D01*
X0096472Y0074819D01*
X0096472Y0076787D02*
X0090287Y0076787D01*
X0087200Y0073700D01*
X0092650Y0072850D02*
X0088500Y0065900D01*
X0075600Y0065900D01*
X0068913Y0061387D02*
X0064700Y0063900D01*
X0088598Y0053165D02*
X0088615Y0053165D01*
X0092500Y0057900D02*
X0096461Y0061039D01*
X0096472Y0061039D01*
X0096472Y0072850D02*
X0092650Y0072850D01*
X0096472Y0078756D02*
X0105756Y0078756D01*
X0108600Y0081600D01*
X0108300Y0085400D02*
X0103624Y0080724D01*
X0096472Y0080724D01*
X0096472Y0082693D02*
X0102693Y0082693D01*
X0109200Y0089200D01*
X0110600Y0089200D01*
X0109600Y0085400D02*
X0108300Y0085400D01*
X0096643Y0086600D02*
X0096472Y0086630D01*
X0096472Y0088598D02*
X0096474Y0088600D01*
X0117100Y0133300D02*
X0109700Y0140700D01*
X0109700Y0141576D01*
X0109990Y0142276D01*
X0109990Y0143385D01*
X0109700Y0144085D01*
X0109700Y0144300D01*
X0109286Y0144714D01*
X0109389Y0145099D01*
X0111680Y0145099D01*
X0112127Y0145062D01*
X0112243Y0145099D01*
X0112366Y0145099D01*
X0112780Y0145270D01*
X0113207Y0145407D01*
X0113300Y0145486D01*
X0113413Y0145533D01*
X0113430Y0145550D01*
X0116250Y0145550D01*
X0117720Y0144080D01*
X0117703Y0144051D01*
X0117601Y0143669D01*
X0117601Y0141791D01*
X0120585Y0141791D01*
X0120585Y0140822D01*
X0121554Y0140822D01*
X0121554Y0137641D01*
X0121563Y0137641D01*
X0121563Y0136558D01*
X0120594Y0136558D01*
X0120594Y0139739D01*
X0120585Y0139739D01*
X0120585Y0140822D01*
X0117601Y0140822D01*
X0117601Y0138943D01*
X0117673Y0138672D01*
X0117610Y0138436D01*
X0117610Y0136557D01*
X0120594Y0136557D01*
X0120594Y0135589D01*
X0117610Y0135589D01*
X0117610Y0133710D01*
X0117712Y0133329D01*
X0117729Y0133300D01*
X0117100Y0133300D01*
X0116598Y0133802D02*
X0117610Y0133802D01*
X0117610Y0134801D02*
X0115599Y0134801D01*
X0114601Y0135799D02*
X0120594Y0135799D01*
X0121563Y0135799D02*
X0153735Y0135799D01*
X0132445Y0142789D02*
X0124538Y0142789D01*
X0121554Y0140792D02*
X0120585Y0140792D01*
X0120585Y0141790D02*
X0109789Y0141790D01*
X0109700Y0140792D02*
X0117601Y0140792D01*
X0117601Y0139793D02*
X0110607Y0139793D01*
X0111605Y0138795D02*
X0117641Y0138795D01*
X0117610Y0137796D02*
X0112604Y0137796D01*
X0113602Y0136798D02*
X0117610Y0136798D01*
X0120594Y0136798D02*
X0121563Y0136798D01*
X0121554Y0137796D02*
X0120594Y0137796D01*
X0120594Y0138795D02*
X0121554Y0138795D01*
X0121554Y0139793D02*
X0120585Y0139793D01*
X0117601Y0142789D02*
X0109990Y0142789D01*
X0109823Y0143787D02*
X0117632Y0143787D01*
X0117014Y0144786D02*
X0109305Y0144786D01*
X0106599Y0147899D02*
X0104495Y0147999D01*
X0104445Y0147949D01*
X0104394Y0148000D01*
X0098200Y0148000D02*
X0093750Y0148000D01*
X0093500Y0148650D01*
X0095488Y0146669D02*
X0096869Y0146669D01*
X0098200Y0148000D01*
X0099327Y0155626D02*
X0106026Y0155626D01*
X0111000Y0160900D01*
X0106850Y0160750D02*
X0097900Y0161300D01*
X0096768Y0160168D01*
X0096768Y0155626D01*
X0094209Y0155626D02*
X0094209Y0162809D01*
X0095400Y0164000D01*
X0123850Y0164000D01*
X0124900Y0162950D01*
X0106200Y0176100D02*
X0106300Y0180952D01*
X0106195Y0181057D01*
X0101477Y0180810D02*
X0101277Y0177877D01*
X0100600Y0175900D01*
X0096800Y0179904D02*
X0096759Y0180563D01*
X0096800Y0179904D02*
X0094600Y0176200D01*
X0091650Y0155626D02*
X0091600Y0155626D01*
X0091600Y0137713D02*
X0091650Y0137713D01*
X0099327Y0137713D02*
X0099400Y0137639D01*
X0055350Y0151450D02*
X0055100Y0151700D01*
X0055100Y0157349D02*
X0055014Y0157435D01*
X0050300Y0157184D02*
X0050296Y0157188D01*
X0050300Y0157184D02*
X0050300Y0142400D01*
X0045700Y0150400D02*
X0045578Y0150522D01*
X0045578Y0156941D01*
X0024100Y0136700D02*
X0026400Y0134400D01*
X0026400Y0116400D01*
X0024100Y0136700D02*
X0019503Y0136600D01*
X0019605Y0136702D01*
X0040537Y0061600D02*
X0040387Y0061450D01*
X0042400Y0049880D02*
X0041157Y0048638D01*
X0048380Y0041500D02*
X0047457Y0039976D01*
X0076350Y0015150D02*
X0081050Y0019850D01*
X0087000Y0019850D01*
X0089600Y0017250D01*
X0089600Y0014100D01*
X0089682Y0014018D01*
X0089682Y0013810D01*
X0090912Y0012580D01*
X0091120Y0012580D01*
X0092550Y0011150D01*
X0096450Y0011150D01*
X0098300Y0013000D01*
X0098300Y0013180D01*
X0100156Y0013180D01*
X0100156Y0016164D01*
X0101124Y0016164D01*
X0101124Y0013180D01*
X0103003Y0013180D01*
X0103266Y0013250D01*
X0103470Y0013195D01*
X0105349Y0013195D01*
X0105349Y0016179D01*
X0106317Y0016179D01*
X0106317Y0013195D01*
X0108196Y0013195D01*
X0108439Y0013261D01*
X0110050Y0011650D01*
X0112250Y0011650D01*
X0113450Y0010450D01*
X0113450Y0006100D01*
X0112850Y0005500D01*
X0079100Y0005500D01*
X0076350Y0008250D01*
X0076350Y0015150D01*
X0076350Y0014979D02*
X0089600Y0014979D01*
X0089600Y0015978D02*
X0077178Y0015978D01*
X0078176Y0016976D02*
X0089600Y0016976D01*
X0088875Y0017975D02*
X0079175Y0017975D01*
X0080173Y0018973D02*
X0087877Y0018973D01*
X0089682Y0013981D02*
X0076350Y0013981D01*
X0076350Y0012982D02*
X0090509Y0012982D01*
X0091716Y0011984D02*
X0076350Y0011984D01*
X0076350Y0010985D02*
X0112915Y0010985D01*
X0113450Y0009987D02*
X0076350Y0009987D01*
X0076350Y0008988D02*
X0113450Y0008988D01*
X0113450Y0007990D02*
X0076610Y0007990D01*
X0077609Y0006991D02*
X0113450Y0006991D01*
X0113343Y0005993D02*
X0078607Y0005993D01*
X0097284Y0011984D02*
X0109716Y0011984D01*
X0108718Y0012982D02*
X0098282Y0012982D01*
X0100156Y0013981D02*
X0101124Y0013981D01*
X0101124Y0014979D02*
X0100156Y0014979D01*
X0100156Y0015978D02*
X0101124Y0015978D01*
X0101124Y0016164D02*
X0101124Y0017132D01*
X0100156Y0017132D01*
X0100156Y0020117D01*
X0098300Y0020117D01*
X0098300Y0022150D01*
X0103450Y0027300D01*
X0107950Y0027300D01*
X0108582Y0027932D01*
X0108811Y0027837D01*
X0109921Y0027837D01*
X0110946Y0028262D01*
X0111230Y0028546D01*
X0111634Y0028438D01*
X0111634Y0023184D01*
X0108501Y0020051D01*
X0108196Y0020132D01*
X0106317Y0020132D01*
X0106317Y0017148D01*
X0105349Y0017148D01*
X0105349Y0020132D01*
X0103470Y0020132D01*
X0103207Y0020062D01*
X0103003Y0020117D01*
X0101124Y0020117D01*
X0101124Y0017132D01*
X0104305Y0017132D01*
X0104305Y0017148D01*
X0105349Y0017148D01*
X0105349Y0016180D01*
X0102168Y0016180D01*
X0102168Y0016164D01*
X0101124Y0016164D01*
X0101124Y0016976D02*
X0105349Y0016976D01*
X0105833Y0016664D02*
X0105833Y0013017D01*
X0110400Y0008450D01*
X0106317Y0013981D02*
X0105349Y0013981D01*
X0105349Y0014979D02*
X0106317Y0014979D01*
X0106317Y0015978D02*
X0105349Y0015978D01*
X0105833Y0016664D02*
X0104300Y0016664D01*
X0105349Y0017975D02*
X0106317Y0017975D01*
X0106317Y0018973D02*
X0105349Y0018973D01*
X0105349Y0019972D02*
X0106317Y0019972D01*
X0109420Y0020970D02*
X0098300Y0020970D01*
X0098300Y0021969D02*
X0110419Y0021969D01*
X0111417Y0022967D02*
X0099117Y0022967D01*
X0100116Y0023966D02*
X0111634Y0023966D01*
X0111634Y0024964D02*
X0101114Y0024964D01*
X0102113Y0025963D02*
X0111634Y0025963D01*
X0111634Y0026961D02*
X0103111Y0026961D01*
X0110217Y0027960D02*
X0111634Y0027960D01*
X0111900Y0027025D02*
X0110825Y0026925D01*
X0101124Y0019972D02*
X0100156Y0019972D01*
X0100156Y0018973D02*
X0101124Y0018973D01*
X0101124Y0017975D02*
X0100156Y0017975D01*
D30*
X0097750Y0010350D03*
X0103650Y0010200D03*
X0110400Y0008450D03*
X0118250Y0006600D03*
X0121300Y0030400D03*
X0126000Y0030050D03*
X0147850Y0019800D03*
X0138900Y0052900D03*
X0140600Y0056600D03*
X0134600Y0058400D03*
X0125300Y0055400D03*
X0106200Y0054000D03*
X0097150Y0056600D03*
X0092500Y0057900D03*
X0078350Y0059250D03*
X0077800Y0045400D03*
X0074800Y0040900D03*
X0065700Y0042100D03*
X0061300Y0041200D03*
X0061000Y0058700D03*
X0059500Y0076700D03*
X0057044Y0079856D03*
X0066600Y0078000D03*
X0065500Y0090000D03*
X0062300Y0093000D03*
X0070400Y0090100D03*
X0075500Y0091000D03*
X0083700Y0092600D03*
X0079500Y0103800D03*
X0075100Y0106000D03*
X0068900Y0104300D03*
X0053000Y0106000D03*
X0045200Y0090700D03*
X0034600Y0085900D03*
X0044800Y0078400D03*
X0041800Y0072700D03*
X0034900Y0068800D03*
X0034350Y0063400D03*
X0029850Y0055850D03*
X0022150Y0060800D03*
X0011800Y0081700D03*
X0035400Y0105300D03*
X0026400Y0116400D03*
X0011100Y0135100D03*
X0036700Y0156350D03*
X0045700Y0150400D03*
X0050300Y0142400D03*
X0055350Y0151450D03*
X0079800Y0141000D03*
X0062800Y0127000D03*
X0071800Y0122200D03*
X0083700Y0116600D03*
X0092800Y0106500D03*
X0085700Y0105200D03*
X0105050Y0112400D03*
X0127700Y0117850D03*
X0127850Y0123300D03*
X0142700Y0119600D03*
X0142850Y0127250D03*
X0152100Y0123100D03*
X0152400Y0104500D03*
X0179400Y0132000D03*
X0178050Y0136750D03*
X0173350Y0134300D03*
X0174350Y0140700D03*
X0180500Y0141900D03*
X0183350Y0136700D03*
X0205250Y0125100D03*
X0210650Y0123750D03*
X0213500Y0127850D03*
X0216950Y0122700D03*
X0206700Y0119000D03*
X0207200Y0142500D03*
X0207600Y0147300D03*
X0230750Y0144050D03*
X0242000Y0147100D03*
X0243100Y0141950D03*
X0234700Y0171300D03*
X0219200Y0172200D03*
X0210300Y0180600D03*
X0202700Y0181400D03*
X0201900Y0188850D03*
X0219700Y0183900D03*
X0169000Y0179200D03*
X0160700Y0163200D03*
X0147800Y0163200D03*
X0149800Y0190750D03*
X0142700Y0193000D03*
X0106200Y0176100D03*
X0100600Y0175900D03*
X0094600Y0176200D03*
X0088150Y0180300D03*
X0106850Y0160750D03*
X0111000Y0160900D03*
X0116800Y0157650D03*
X0082100Y0157000D03*
X0110600Y0089200D03*
X0109600Y0085400D03*
X0108600Y0081600D03*
X0087200Y0073700D03*
X0090900Y0041150D03*
X0087300Y0018650D03*
X0084450Y0014700D03*
X0079900Y0012450D03*
X0080100Y0017800D03*
X0084300Y0009400D03*
X0089800Y0011250D03*
X0148300Y0056800D03*
X0137800Y0076800D03*
D31*
X0116500Y0057700D02*
X0114400Y0055900D01*
X0114484Y0055816D01*
X0114484Y0051295D01*
X0111925Y0051295D02*
X0111925Y0057520D01*
X0112000Y0057595D01*
X0114400Y0061600D01*
X0117748Y0053700D02*
X0117043Y0051295D01*
X0122161Y0046177D02*
X0127600Y0046177D01*
X0128800Y0046300D01*
X0113205Y0042745D02*
X0111250Y0044300D01*
X0113205Y0042745D02*
X0113205Y0042339D01*
X0114484Y0033382D02*
X0114484Y0018622D01*
X0112526Y0016664D01*
X0117757Y0011433D01*
X0119110Y0011433D01*
X0118250Y0010573D01*
X0118250Y0006600D01*
X0119110Y0018126D02*
X0119000Y0018236D01*
X0119000Y0023200D01*
X0117043Y0025157D01*
X0117043Y0033382D01*
X0111925Y0033382D02*
X0111900Y0029600D01*
X0111900Y0027025D01*
X0109366Y0033382D02*
X0104282Y0033382D01*
X0095000Y0024100D01*
X0095000Y0017701D01*
X0093947Y0016648D01*
X0109366Y0051295D02*
X0108461Y0053300D01*
X0040370Y0094110D02*
X0036800Y0097680D01*
X0036800Y0101150D01*
X0031750Y0106200D01*
X0027300Y0106200D01*
X0020600Y0099500D01*
X0027300Y0106200D02*
X0035400Y0105300D01*
X0050803Y0126984D02*
X0050803Y0133197D01*
X0040550Y0143450D01*
X0040550Y0146450D01*
X0040700Y0146600D01*
X0040700Y0156533D01*
X0040860Y0156693D01*
X0037043Y0156693D01*
X0036700Y0156350D01*
X0019717Y0134146D02*
X0012054Y0134146D01*
X0011100Y0135100D01*
X0024250Y0080100D02*
X0028900Y0080100D01*
X0028900Y0075450D01*
X0024200Y0075450D01*
X0024250Y0077772D02*
X0024250Y0080100D01*
X0024250Y0077772D02*
X0026591Y0077772D01*
X0088300Y0137500D02*
X0091600Y0137713D01*
X0086401Y0142000D02*
X0086531Y0142831D01*
X0086531Y0145390D02*
X0080200Y0145390D01*
X0078100Y0146800D01*
X0082000Y0147949D02*
X0079800Y0151000D01*
X0082000Y0147949D02*
X0086531Y0147949D01*
X0086531Y0150508D02*
X0085000Y0151139D01*
X0091600Y0155626D02*
X0091600Y0161200D01*
X0104445Y0150508D02*
X0107237Y0150500D01*
X0111900Y0157000D01*
X0112993Y0157843D01*
X0115200Y0161193D01*
X0121000Y0161200D01*
X0121093Y0159849D01*
X0116800Y0157650D02*
X0111799Y0147949D01*
X0104445Y0147949D01*
X0104445Y0145390D02*
X0109560Y0145390D01*
X0110600Y0144650D01*
X0104445Y0142831D02*
X0104400Y0139131D01*
X0115900Y0129400D01*
X0121100Y0129380D01*
X0121079Y0129380D01*
X0121063Y0141300D02*
X0121069Y0141306D01*
X0121069Y0147999D02*
X0121069Y0153156D01*
X0121093Y0153156D01*
X0121069Y0147999D02*
X0119400Y0147900D01*
X0115050Y0149350D01*
X0116800Y0157650D01*
X0092041Y0180316D02*
X0088166Y0180316D01*
X0088150Y0180300D01*
X0149800Y0190750D02*
X0151700Y0185000D01*
X0154636Y0184650D01*
X0155033Y0184253D01*
X0201900Y0188850D02*
X0201955Y0188795D01*
X0205724Y0188795D01*
X0222745Y0171300D02*
X0223539Y0169406D01*
X0226000Y0169406D02*
X0226000Y0175000D01*
X0228700Y0172700D02*
X0229700Y0176000D01*
X0228700Y0172700D02*
X0228700Y0169406D01*
X0231217Y0169406D02*
X0232111Y0171700D01*
X0218421Y0164287D02*
X0211000Y0164287D01*
X0223539Y0151492D02*
X0221747Y0149700D01*
X0218100Y0149700D01*
X0210689Y0142289D01*
X0210689Y0136958D01*
X0219500Y0136978D02*
X0220350Y0137828D01*
X0228657Y0137577D02*
X0229257Y0136978D01*
X0229257Y0142557D01*
X0230750Y0144050D01*
X0228657Y0146143D01*
X0228657Y0151492D01*
X0226098Y0151492D02*
X0226098Y0145998D01*
X0225300Y0145900D01*
X0231217Y0151492D02*
X0235852Y0146857D01*
X0235852Y0138336D01*
X0235852Y0131643D02*
X0230957Y0131643D01*
X0229300Y0133300D01*
X0229300Y0136935D01*
X0229257Y0136978D01*
D32*
X0229350Y0158450D03*
X0225400Y0158450D03*
X0225400Y0162450D03*
X0229350Y0162450D03*
X0115200Y0044300D03*
X0111250Y0044300D03*
X0111250Y0040350D03*
X0115200Y0040350D03*
X0028900Y0075450D03*
X0028900Y0080100D03*
X0024250Y0080100D03*
X0024200Y0075450D03*
X0093500Y0144700D03*
X0093500Y0148650D03*
X0097450Y0148650D03*
X0097450Y0144700D03*
D33*
X0102600Y0128100D03*
X0102400Y0115900D03*
X0090100Y0080300D03*
X0085700Y0081600D03*
X0084300Y0069200D03*
X0075600Y0065900D03*
X0064700Y0063900D03*
X0066000Y0059100D03*
X0062700Y0074500D03*
X0027200Y0045600D03*
X0027200Y0036400D03*
X0042400Y0027500D03*
X0039900Y0020800D03*
X0062800Y0014000D03*
X0084100Y0030000D03*
X0159500Y0179000D03*
X0163800Y0179600D03*
D34*
X0022150Y0060800D02*
X0024800Y0055950D01*
X0024800Y0053500D01*
X0033800Y0046700D01*
X0033800Y0037200D01*
X0036100Y0032700D01*
X0049700Y0032700D01*
X0059046Y0025554D01*
X0067150Y0025554D01*
X0075100Y0025554D01*
X0075700Y0025400D02*
X0079500Y0025400D01*
X0084100Y0030000D01*
X0067150Y0025554D02*
X0067150Y0018350D01*
X0062800Y0014000D01*
X0062454Y0013654D01*
X0051000Y0013654D01*
X0051000Y0020346D02*
X0040354Y0020346D01*
X0039900Y0020800D01*
X0037854Y0018754D01*
X0032400Y0018754D01*
X0032400Y0025446D02*
X0034454Y0027500D01*
X0042400Y0027500D01*
D35*
X0015400Y0093600D03*
X0104800Y0122200D03*
X0156400Y0012600D03*
X0245700Y0175100D03*
D36*
X0225300Y0145900D02*
X0224450Y0143500D01*
X0113400Y0143400D02*
X0110600Y0144650D01*
X0090173Y0116627D02*
X0090173Y0111236D01*
X0090173Y0109673D02*
X0089500Y0108200D01*
X0086500Y0105200D01*
X0085700Y0105200D01*
X0090173Y0116627D02*
X0055350Y0151450D01*
X0055100Y0151700D02*
X0055100Y0157349D01*
X0110825Y0026925D02*
X0109200Y0025100D01*
D37*
X0132700Y0041500D02*
X0130900Y0044800D01*
X0128800Y0046300D01*
X0133000Y0049300D02*
X0136900Y0042700D01*
X0136900Y0034300D01*
X0137800Y0033283D01*
X0145488Y0033283D01*
X0145488Y0028600D02*
X0145488Y0028559D01*
X0145488Y0028600D02*
X0134800Y0028600D01*
X0132700Y0030700D01*
X0132700Y0041500D01*
X0133000Y0049300D02*
X0128300Y0061900D01*
X0116500Y0057700D01*
X0114400Y0061600D02*
X0126400Y0065800D01*
X0137200Y0067900D01*
X0143800Y0067900D01*
X0147512Y0071800D01*
X0147512Y0077555D01*
X0148332Y0082208D02*
X0148332Y0082300D01*
X0146500Y0082600D01*
X0143200Y0080800D01*
X0142300Y0073900D01*
X0140200Y0072100D01*
X0134800Y0072100D01*
X0125400Y0070000D01*
X0112900Y0066100D01*
X0110500Y0063400D01*
X0108500Y0060100D01*
X0102700Y0057200D01*
X0100300Y0050500D01*
X0102700Y0046777D01*
X0106200Y0054000D02*
X0108461Y0053300D01*
X0117748Y0053700D02*
X0125300Y0055400D01*
X0088300Y0137500D02*
X0079500Y0134000D01*
X0065200Y0148600D01*
X0060032Y0153400D01*
X0059732Y0157683D01*
X0064450Y0157930D02*
X0064450Y0155800D01*
X0078100Y0146800D01*
X0079800Y0151000D02*
X0076300Y0157200D01*
X0085700Y0170900D01*
X0108800Y0170900D01*
X0110800Y0173800D01*
X0110800Y0178600D01*
X0110913Y0178600D01*
X0110913Y0181305D01*
X0115631Y0181552D02*
X0115631Y0174700D01*
X0115600Y0172300D01*
X0115600Y0170900D01*
X0111100Y0166600D01*
X0091600Y0166600D01*
X0091600Y0161200D01*
X0082100Y0157000D02*
X0085000Y0151139D01*
X0086401Y0142000D02*
X0079800Y0141000D01*
X0174105Y0181300D02*
X0173905Y0185242D01*
X0174105Y0181300D02*
X0190400Y0169500D01*
X0200000Y0169500D01*
X0204800Y0164500D01*
X0211000Y0164500D01*
X0211000Y0164287D01*
X0219200Y0172200D02*
X0222745Y0171300D01*
X0224600Y0175800D02*
X0226000Y0175000D01*
X0224600Y0175800D02*
X0221200Y0177700D01*
X0217900Y0177700D01*
X0214600Y0175000D01*
X0193100Y0175000D01*
X0178623Y0185500D01*
X0178623Y0185489D01*
X0224622Y0182500D02*
X0224622Y0188795D01*
X0229346Y0188795D02*
X0229346Y0187500D01*
X0235000Y0182000D01*
X0235000Y0177000D01*
X0239700Y0174700D01*
X0239900Y0168600D01*
X0238700Y0165587D01*
X0234700Y0171300D02*
X0232111Y0171700D01*
X0229700Y0176000D02*
X0229700Y0178000D01*
X0226500Y0181000D01*
X0224622Y0182500D01*
D38*
X0224450Y0143500D02*
X0221000Y0139450D01*
X0220350Y0137828D01*
X0219500Y0136978D02*
X0222564Y0136978D01*
X0219500Y0136978D02*
X0217402Y0136978D01*
X0217382Y0136958D01*
X0121079Y0136073D02*
X0121069Y0136083D01*
X0121069Y0141306D01*
X0121063Y0141300D02*
X0116850Y0141300D01*
X0113400Y0143400D01*
X0109200Y0025100D02*
X0106900Y0025100D01*
X0104300Y0022500D01*
X0104300Y0016664D01*
X0105817Y0016648D02*
X0102750Y0016648D01*
X0100640Y0016648D01*
X0105817Y0016648D02*
X0105833Y0016664D01*
D39*
X0127850Y0123300D02*
X0127950Y0123400D01*
X0127950Y0134100D01*
X0125977Y0136073D01*
X0121079Y0136073D01*
X0210650Y0123750D02*
X0217050Y0123750D01*
X0220200Y0129600D01*
X0220200Y0134600D01*
X0220200Y0136278D01*
X0219500Y0136978D01*
D40*
X0084500Y0015600D02*
X0084500Y0010550D01*
X0084450Y0014700D02*
X0084500Y0015600D01*
D41*
X0084500Y0010550D02*
X0086250Y0008750D01*
X0099800Y0008750D01*
X0102750Y0010250D01*
X0102750Y0016648D01*
D42*
X0076816Y0084695D02*
X0063384Y0084695D01*
X0037795Y0110284D01*
X0037795Y0115000D01*
X0035653Y0115000D01*
X0034265Y0116388D01*
X0034265Y0121506D02*
X0037495Y0124737D01*
X0037495Y0133000D01*
X0035900Y0134595D01*
X0034265Y0134595D01*
X0032100Y0137660D01*
X0031300Y0137695D01*
X0029884Y0137695D01*
X0028284Y0139295D01*
X0023400Y0139295D01*
X0023364Y0139259D01*
X0019494Y0139259D01*
X0019382Y0141816D02*
X0022889Y0141816D01*
X0023400Y0141305D01*
X0029116Y0141305D01*
X0030716Y0139705D01*
X0032411Y0139705D01*
X0034639Y0141932D01*
X0037839Y0138361D01*
X0039500Y0136700D01*
X0039500Y0133005D01*
X0039505Y0133000D01*
X0039505Y0130100D01*
X0042013Y0130600D01*
X0042339Y0130275D01*
X0042339Y0125157D02*
X0039805Y0119423D01*
X0039805Y0111116D01*
X0064216Y0086705D01*
X0075984Y0086705D01*
X0078695Y0089416D01*
X0078695Y0094800D01*
X0080705Y0094800D02*
X0080724Y0094819D01*
X0080705Y0094800D02*
X0080705Y0088584D01*
X0076816Y0084695D01*
D43*
X0052600Y0060400D02*
X0050597Y0060400D01*
X0042400Y0052300D01*
X0042400Y0049880D01*
X0048380Y0041500D02*
X0052900Y0041500D01*
X0058600Y0047071D01*
X0058600Y0053200D01*
M02*
