%
M48
M72
T01C0.01200
T02C0.01500
T03C0.01518
T04C0.02756
T05C0.03543
T06C0.04000
T07C0.04724
T08C0.05000
T09C0.11811
%
T01
X24200Y75450
X24250Y80100
X28900Y80100
X28900Y75450
X93500Y144700
X93500Y148650
X97450Y148650
X97450Y144700
X111250Y44300
X115200Y44300
X115200Y40350
X111250Y40350
X225400Y158450
X229350Y158450
X229350Y162450
X225400Y162450
T02
X219200Y172200
X215200Y182800
X219700Y183900
X210154Y183000
X201900Y188850
X234700Y171300
X242000Y147100
X243100Y141950
X230750Y144050
X213500Y127850
X210650Y123750
X205250Y125100
X206700Y119000
X216950Y122700
X207600Y143300
X207100Y147400
X183350Y136700
X178050Y136750
X173350Y134300
X179400Y132000
X174350Y140700
X180500Y141900
X160700Y163200
X157300Y166500
X155500Y170400
X147800Y163200
X169000Y179200
X149800Y190750
X142700Y193000
X106200Y176100
X100600Y175900
X94600Y176200
X88150Y180300
X106850Y160750
X111000Y160900
X116800Y157650
X142850Y127250
X142700Y119600
X152100Y123100
X152400Y104500
X135900Y101400
X125500Y101000
X123500Y88500
X110600Y89200
X109600Y85400
X108600Y81600
X87200Y73700
X92500Y57900
X97150Y56600
X106200Y54000
X90900Y41150
X77800Y45400
X74800Y40900
X65700Y42100
X61300Y41200
X61000Y58700
X78350Y59250
X59500Y76700
X57044Y79856
X66600Y78000
X65500Y90000
X62300Y93000
X70400Y90100
X75100Y91700
X83700Y92600
X79500Y103800
X75100Y106000
X68900Y104300
X53000Y106000
X45200Y90700
X34600Y85900
X44800Y78400
X41800Y72700
X34900Y68800
X34350Y63400
X29850Y55850
X22150Y60800
X11800Y81700
X35400Y105300
X26400Y116400
X11100Y135100
X36700Y156350
X45700Y150400
X50300Y142400
X55350Y151450
X79800Y141000
X62800Y127000
X71800Y122200
X83700Y116600
X92800Y106500
X85700Y105200
X105050Y112400
X127700Y117850
X127850Y123300
X82100Y157000
X137800Y76800
X134600Y58400
X140600Y56600
X138900Y52900
X148300Y56800
X125300Y55400
X121300Y30400
X126000Y30050
X103650Y10200
X110400Y8450
X118250Y6600
X97750Y10350
X89800Y11250
X84300Y9400
X79900Y12450
X84450Y14700
X87300Y18650
X80100Y17800
X147850Y19800
T03
X39900Y20800
X42400Y27500
X27200Y36400
X27200Y45600
X59400Y16800
X84100Y30000
X66000Y59100
X64700Y63900
X75600Y65900
X84300Y69200
X85700Y81600
X90100Y80300
X62700Y74500
X102400Y115900
X102600Y128100
X159500Y179000
X163800Y179600
T04
X181100Y164600
X188600Y164600
X188600Y157100
X181100Y157100
X181100Y149600
X188600Y149600
X137800Y190100
X137800Y197600
X137800Y205100
X130300Y205100
X130300Y197600
X130300Y190100
X191100Y197500
X191100Y205000
X245700Y206900
X245700Y199400
X245700Y191900
X245700Y184400
T05
X19064Y149092
X19923Y129426
T06
X127800Y172400
X137800Y172400
T07
X8273Y152562
X9475Y125029
T08
X15400Y93600
X104800Y122200
X156400Y12600
X245700Y175100
T09
X241157Y223638
X14268Y167929
X134622Y12811
M30
