G75*
%MOIN*%
%OFA0B0*%
%FSLAX25Y25*%
%IPPOS*%
%LPD*%
%AMOC8*
5,1,8,0,0,1.08239X$1,22.5*
%
%ADD10C,0.12611*%
%ADD11R,0.03162X0.04146*%
%ADD12R,0.04146X0.03162*%
%ADD13R,0.09068X0.09068*%
%ADD14C,0.02178*%
%ADD15R,0.01800X0.06706*%
%ADD16R,0.06706X0.01800*%
%ADD17R,0.04343X0.03556*%
%ADD18R,0.05131X0.04737*%
%ADD19R,0.04737X0.05131*%
%ADD20R,0.05524X0.06312*%
%ADD21R,0.02375X0.06115*%
%ADD22C,0.06343*%
%ADD23C,0.07887*%
%ADD24C,0.05300*%
%ADD25R,0.05315X0.01772*%
%ADD26R,0.03556X0.04343*%
%ADD27C,0.05556*%
%ADD28C,0.08200*%
%ADD29C,0.03900*%
%ADD30C,0.03600*%
%ADD31C,0.03918*%
%ADD32C,0.08300*%
D10*
X0134622Y0012811D03*
X0014268Y0167929D03*
X0241157Y0223638D03*
D11*
X0229346Y0188795D03*
X0224622Y0188795D03*
X0219898Y0188795D03*
X0215173Y0188795D03*
X0210449Y0188795D03*
X0205724Y0188795D03*
G36*
X0176936Y0187476D02*
X0180093Y0187641D01*
X0180310Y0183502D01*
X0177153Y0183337D01*
X0176936Y0187476D01*
G37*
G36*
X0172218Y0187229D02*
X0175375Y0187394D01*
X0175592Y0183255D01*
X0172435Y0183090D01*
X0172218Y0187229D01*
G37*
G36*
X0167500Y0186981D02*
X0170657Y0187146D01*
X0170874Y0183007D01*
X0167717Y0182842D01*
X0167500Y0186981D01*
G37*
G36*
X0162782Y0186734D02*
X0165939Y0186899D01*
X0166156Y0182760D01*
X0162999Y0182595D01*
X0162782Y0186734D01*
G37*
G36*
X0158064Y0186487D02*
X0161221Y0186652D01*
X0161438Y0182513D01*
X0158281Y0182348D01*
X0158064Y0186487D01*
G37*
G36*
X0153346Y0186240D02*
X0156503Y0186405D01*
X0156720Y0182266D01*
X0153563Y0182101D01*
X0153346Y0186240D01*
G37*
G36*
X0113944Y0183539D02*
X0117101Y0183704D01*
X0117318Y0179565D01*
X0114161Y0179400D01*
X0113944Y0183539D01*
G37*
G36*
X0109226Y0183292D02*
X0112383Y0183457D01*
X0112600Y0179318D01*
X0109443Y0179153D01*
X0109226Y0183292D01*
G37*
G36*
X0104508Y0183044D02*
X0107665Y0183209D01*
X0107882Y0179070D01*
X0104725Y0178905D01*
X0104508Y0183044D01*
G37*
G36*
X0099790Y0182797D02*
X0102947Y0182962D01*
X0103164Y0178823D01*
X0100007Y0178658D01*
X0099790Y0182797D01*
G37*
G36*
X0095072Y0182550D02*
X0098229Y0182715D01*
X0098446Y0178576D01*
X0095289Y0178411D01*
X0095072Y0182550D01*
G37*
G36*
X0090354Y0182303D02*
X0093511Y0182468D01*
X0093728Y0178329D01*
X0090571Y0178164D01*
X0090354Y0182303D01*
G37*
G36*
X0062763Y0159917D02*
X0065920Y0160082D01*
X0066137Y0155943D01*
X0062980Y0155778D01*
X0062763Y0159917D01*
G37*
G36*
X0058045Y0159670D02*
X0061202Y0159835D01*
X0061419Y0155696D01*
X0058262Y0155531D01*
X0058045Y0159670D01*
G37*
G36*
X0053327Y0159422D02*
X0056484Y0159587D01*
X0056701Y0155448D01*
X0053544Y0155283D01*
X0053327Y0159422D01*
G37*
G36*
X0048609Y0159175D02*
X0051766Y0159340D01*
X0051983Y0155201D01*
X0048826Y0155036D01*
X0048609Y0159175D01*
G37*
G36*
X0043891Y0158928D02*
X0047048Y0159093D01*
X0047265Y0154954D01*
X0044108Y0154789D01*
X0043891Y0158928D01*
G37*
G36*
X0039173Y0158680D02*
X0042330Y0158845D01*
X0042547Y0154706D01*
X0039390Y0154541D01*
X0039173Y0158680D01*
G37*
G36*
X0151469Y0088057D02*
X0150919Y0084944D01*
X0146837Y0085663D01*
X0147387Y0088776D01*
X0151469Y0088057D01*
G37*
G36*
X0152289Y0092710D02*
X0151739Y0089597D01*
X0147657Y0090316D01*
X0148207Y0093429D01*
X0152289Y0092710D01*
G37*
G36*
X0153109Y0097363D02*
X0152559Y0094250D01*
X0148477Y0094969D01*
X0149027Y0098082D01*
X0153109Y0097363D01*
G37*
G36*
X0153930Y0102015D02*
X0153380Y0098902D01*
X0149298Y0099621D01*
X0149848Y0102734D01*
X0153930Y0102015D01*
G37*
G36*
X0150648Y0083405D02*
X0150098Y0080292D01*
X0146016Y0081011D01*
X0146566Y0084124D01*
X0150648Y0083405D01*
G37*
G36*
X0149828Y0078752D02*
X0149278Y0075639D01*
X0145196Y0076358D01*
X0145746Y0079471D01*
X0149828Y0078752D01*
G37*
D12*
X0145488Y0052181D03*
X0145488Y0047457D03*
X0145488Y0042732D03*
X0145488Y0038008D03*
X0145488Y0033283D03*
X0145488Y0028559D03*
D13*
X0113205Y0042339D03*
X0026591Y0077772D03*
X0095488Y0146669D03*
X0227378Y0160449D03*
D14*
X0221177Y0161728D02*
X0215665Y0161728D01*
X0215665Y0159169D02*
X0221177Y0159169D01*
X0221177Y0156610D02*
X0215665Y0156610D01*
X0215665Y0164287D02*
X0221177Y0164287D01*
X0223539Y0166650D02*
X0223539Y0172162D01*
X0226098Y0172162D02*
X0226098Y0166650D01*
X0228657Y0166650D02*
X0228657Y0172162D01*
X0231217Y0172162D02*
X0231217Y0166650D01*
X0233579Y0164287D02*
X0239091Y0164287D01*
X0239091Y0161728D02*
X0233579Y0161728D01*
X0233579Y0159169D02*
X0239091Y0159169D01*
X0239091Y0156610D02*
X0233579Y0156610D01*
X0231217Y0154248D02*
X0231217Y0148736D01*
X0228657Y0148736D02*
X0228657Y0154248D01*
X0226098Y0154248D02*
X0226098Y0148736D01*
X0223539Y0148736D02*
X0223539Y0154248D01*
X0117043Y0054051D02*
X0117043Y0048539D01*
X0114484Y0048539D02*
X0114484Y0054051D01*
X0111925Y0054051D02*
X0111925Y0048539D01*
X0109366Y0048539D02*
X0109366Y0054051D01*
X0107004Y0046177D02*
X0101492Y0046177D01*
X0101492Y0043618D02*
X0107004Y0043618D01*
X0107004Y0041059D02*
X0101492Y0041059D01*
X0101492Y0038500D02*
X0107004Y0038500D01*
X0109366Y0036138D02*
X0109366Y0030626D01*
X0111925Y0030626D02*
X0111925Y0036138D01*
X0114484Y0036138D02*
X0114484Y0030626D01*
X0117043Y0030626D02*
X0117043Y0036138D01*
X0119405Y0038500D02*
X0124917Y0038500D01*
X0124917Y0041059D02*
X0119405Y0041059D01*
X0119405Y0043618D02*
X0124917Y0043618D01*
X0124917Y0046177D02*
X0119405Y0046177D01*
X0038303Y0073933D02*
X0032791Y0073933D01*
X0032791Y0076492D02*
X0038303Y0076492D01*
X0038303Y0079051D02*
X0032791Y0079051D01*
X0032791Y0081610D02*
X0038303Y0081610D01*
X0030429Y0083972D02*
X0030429Y0089484D01*
X0027870Y0089484D02*
X0027870Y0083972D01*
X0025311Y0083972D02*
X0025311Y0089484D01*
X0022752Y0089484D02*
X0022752Y0083972D01*
X0020390Y0081610D02*
X0014878Y0081610D01*
X0014878Y0079051D02*
X0020390Y0079051D01*
X0020390Y0076492D02*
X0014878Y0076492D01*
X0014878Y0073933D02*
X0020390Y0073933D01*
X0022752Y0071571D02*
X0022752Y0066059D01*
X0025311Y0066059D02*
X0025311Y0071571D01*
X0027870Y0071571D02*
X0027870Y0066059D01*
X0030429Y0066059D02*
X0030429Y0071571D01*
X0091650Y0134957D02*
X0091650Y0140469D01*
X0094209Y0140469D02*
X0094209Y0134957D01*
X0096768Y0134957D02*
X0096768Y0140469D01*
X0099327Y0140469D02*
X0099327Y0134957D01*
X0101689Y0142831D02*
X0107201Y0142831D01*
X0107201Y0145390D02*
X0101689Y0145390D01*
X0101689Y0147949D02*
X0107201Y0147949D01*
X0107201Y0150508D02*
X0101689Y0150508D01*
X0099327Y0152870D02*
X0099327Y0158382D01*
X0096768Y0158382D02*
X0096768Y0152870D01*
X0094209Y0152870D02*
X0094209Y0158382D01*
X0091650Y0158382D02*
X0091650Y0152870D01*
X0089287Y0150508D02*
X0083775Y0150508D01*
X0083775Y0147949D02*
X0089287Y0147949D01*
X0089287Y0145390D02*
X0083775Y0145390D01*
X0083775Y0142831D02*
X0089287Y0142831D01*
D15*
X0088598Y0098441D03*
X0086630Y0098441D03*
X0084661Y0098441D03*
X0082693Y0098441D03*
X0080724Y0098441D03*
X0078756Y0098441D03*
X0076787Y0098441D03*
X0074819Y0098441D03*
X0072850Y0098441D03*
X0070882Y0098441D03*
X0068913Y0098441D03*
X0066945Y0098441D03*
X0064976Y0098441D03*
X0063008Y0098441D03*
X0061039Y0098441D03*
X0059071Y0098441D03*
X0059071Y0053165D03*
X0061039Y0053165D03*
X0063008Y0053165D03*
X0064976Y0053165D03*
X0066945Y0053165D03*
X0068913Y0053165D03*
X0070882Y0053165D03*
X0072850Y0053165D03*
X0074819Y0053165D03*
X0076787Y0053165D03*
X0078756Y0053165D03*
X0080724Y0053165D03*
X0082693Y0053165D03*
X0084661Y0053165D03*
X0086630Y0053165D03*
X0088598Y0053165D03*
D16*
X0096472Y0061039D03*
X0096472Y0063008D03*
X0096472Y0064976D03*
X0096472Y0066945D03*
X0096472Y0068913D03*
X0096472Y0070882D03*
X0096472Y0072850D03*
X0096472Y0074819D03*
X0096472Y0076787D03*
X0096472Y0078756D03*
X0096472Y0080724D03*
X0096472Y0082693D03*
X0096472Y0084661D03*
X0096472Y0086630D03*
X0096472Y0088598D03*
X0096472Y0090567D03*
X0051197Y0090567D03*
X0051197Y0088598D03*
X0051197Y0086630D03*
X0051197Y0084661D03*
X0051197Y0082693D03*
X0051197Y0080724D03*
X0051197Y0078756D03*
X0051197Y0076787D03*
X0051197Y0074819D03*
X0051197Y0072850D03*
X0051197Y0070882D03*
X0051197Y0068913D03*
X0051197Y0066945D03*
X0051197Y0064976D03*
X0051197Y0063008D03*
X0051197Y0061039D03*
D17*
X0040370Y0061433D03*
X0040370Y0066551D03*
X0040370Y0088992D03*
X0040370Y0094110D03*
X0052181Y0112614D03*
X0052181Y0117732D03*
X0060055Y0117732D03*
X0060055Y0112614D03*
X0067929Y0112614D03*
X0067929Y0117732D03*
X0075803Y0117732D03*
X0075803Y0112614D03*
X0042339Y0125157D03*
X0042339Y0130275D03*
X0034265Y0121506D03*
X0034265Y0116388D03*
D18*
X0067150Y0032246D03*
X0067150Y0025554D03*
X0075100Y0025554D03*
X0075100Y0032246D03*
X0093947Y0016648D03*
X0100640Y0016648D03*
X0105833Y0016664D03*
X0112526Y0016664D03*
X0210689Y0136958D03*
X0217382Y0136958D03*
X0222564Y0136978D03*
X0229257Y0136978D03*
D19*
X0032400Y0018754D03*
X0032400Y0025446D03*
X0051000Y0020346D03*
X0051000Y0013654D03*
X0119110Y0011433D03*
X0119110Y0018126D03*
G36*
X0129511Y0083629D02*
X0127509Y0079337D01*
X0122861Y0081505D01*
X0124863Y0085797D01*
X0129511Y0083629D01*
G37*
G36*
X0132339Y0089695D02*
X0130337Y0085403D01*
X0125689Y0087571D01*
X0127691Y0091863D01*
X0132339Y0089695D01*
G37*
G36*
X0135505Y0096822D02*
X0138854Y0093473D01*
X0135227Y0089846D01*
X0131878Y0093195D01*
X0135505Y0096822D01*
G37*
G36*
X0130773Y0101554D02*
X0134122Y0098205D01*
X0130495Y0094578D01*
X0127146Y0097927D01*
X0130773Y0101554D01*
G37*
G36*
X0124954Y0096827D02*
X0121605Y0093478D01*
X0117978Y0097105D01*
X0121327Y0100454D01*
X0124954Y0096827D01*
G37*
G36*
X0120222Y0092095D02*
X0116873Y0088746D01*
X0113246Y0092373D01*
X0116595Y0095722D01*
X0120222Y0092095D01*
G37*
X0121079Y0129380D03*
X0121079Y0136073D03*
X0121069Y0141306D03*
X0121069Y0147999D03*
X0121093Y0153156D03*
X0121093Y0159849D03*
X0057496Y0126984D03*
X0050803Y0126984D03*
X0235852Y0131643D03*
X0235852Y0138336D03*
D20*
X0047457Y0048638D03*
X0041157Y0048638D03*
X0041157Y0039976D03*
X0047457Y0039976D03*
D21*
G36*
X0016715Y0132827D02*
X0016612Y0135198D01*
X0022719Y0135465D01*
X0022822Y0133094D01*
X0016715Y0132827D01*
G37*
G36*
X0016603Y0135383D02*
X0016500Y0137754D01*
X0022607Y0138021D01*
X0022710Y0135650D01*
X0016603Y0135383D01*
G37*
G36*
X0016492Y0137940D02*
X0016389Y0140311D01*
X0022496Y0140578D01*
X0022599Y0138207D01*
X0016492Y0137940D01*
G37*
G36*
X0016380Y0140497D02*
X0016277Y0142868D01*
X0022384Y0143135D01*
X0022487Y0140764D01*
X0016380Y0140497D01*
G37*
G36*
X0016269Y0143053D02*
X0016166Y0145424D01*
X0022273Y0145691D01*
X0022376Y0143320D01*
X0016269Y0143053D01*
G37*
D22*
X0019064Y0149092D03*
X0019923Y0129426D03*
D23*
X0009475Y0125029D03*
X0008273Y0152562D03*
D24*
X0034639Y0141932D03*
X0034265Y0134595D03*
X0028559Y0099500D03*
X0020600Y0099500D03*
D25*
X0142752Y0145315D03*
X0142752Y0147874D03*
X0142752Y0150433D03*
X0142752Y0152992D03*
X0142752Y0155551D03*
X0142752Y0158110D03*
X0142752Y0160669D03*
X0142752Y0163228D03*
X0165783Y0163228D03*
X0165783Y0160669D03*
X0165783Y0158110D03*
X0165783Y0155551D03*
X0165783Y0152992D03*
X0165783Y0150433D03*
X0165783Y0147874D03*
X0165783Y0145315D03*
D26*
X0090173Y0111236D03*
X0085055Y0111236D03*
X0087708Y0045446D03*
X0092826Y0045446D03*
D27*
X0181100Y0149600D03*
X0188600Y0149600D03*
X0188600Y0157100D03*
X0181100Y0157100D03*
X0181100Y0164600D03*
X0188600Y0164600D03*
X0191100Y0197500D03*
X0191100Y0205000D03*
X0137800Y0205100D03*
X0137800Y0197600D03*
X0137800Y0190100D03*
X0130300Y0190100D03*
X0130300Y0197600D03*
X0130300Y0205100D03*
X0245700Y0206900D03*
X0245700Y0199400D03*
X0245700Y0191900D03*
X0245700Y0184400D03*
D28*
X0137800Y0172400D03*
X0127800Y0172400D03*
D29*
X0116800Y0157650D03*
X0111000Y0160900D03*
X0106850Y0160750D03*
X0106200Y0176100D03*
X0100600Y0175900D03*
X0094600Y0176200D03*
X0088150Y0180300D03*
X0082100Y0157000D03*
X0079800Y0141000D03*
X0062800Y0127000D03*
X0071800Y0122200D03*
X0083700Y0116600D03*
X0092800Y0106500D03*
X0085700Y0105200D03*
X0079500Y0103800D03*
X0075100Y0106000D03*
X0068900Y0104300D03*
X0062300Y0093000D03*
X0065500Y0090000D03*
X0070400Y0090100D03*
X0075100Y0091700D03*
X0083700Y0092600D03*
X0066600Y0078000D03*
X0059500Y0076700D03*
X0057044Y0079856D03*
X0044800Y0078400D03*
X0041800Y0072700D03*
X0034900Y0068800D03*
X0034350Y0063400D03*
X0029850Y0055850D03*
X0022150Y0060800D03*
X0011800Y0081700D03*
X0034600Y0085900D03*
X0045200Y0090700D03*
X0035400Y0105300D03*
X0026400Y0116400D03*
X0011100Y0135100D03*
X0036700Y0156350D03*
X0045700Y0150400D03*
X0050300Y0142400D03*
X0055350Y0151450D03*
X0053000Y0106000D03*
X0087200Y0073700D03*
X0092500Y0057900D03*
X0097150Y0056600D03*
X0106200Y0054000D03*
X0090900Y0041150D03*
X0077800Y0045400D03*
X0074800Y0040900D03*
X0065700Y0042100D03*
X0061300Y0041200D03*
X0061000Y0058700D03*
X0078350Y0059250D03*
X0108600Y0081600D03*
X0109600Y0085400D03*
X0110600Y0089200D03*
X0123500Y0088500D03*
X0125500Y0101000D03*
X0135900Y0101400D03*
X0152400Y0104500D03*
X0142700Y0119600D03*
X0142850Y0127250D03*
X0152100Y0123100D03*
X0173350Y0134300D03*
X0178050Y0136750D03*
X0179400Y0132000D03*
X0183350Y0136700D03*
X0180500Y0141900D03*
X0174350Y0140700D03*
X0160700Y0163200D03*
X0157300Y0166500D03*
X0155500Y0170400D03*
X0147800Y0163200D03*
X0169000Y0179200D03*
X0149800Y0190750D03*
X0142700Y0193000D03*
X0201900Y0188850D03*
X0210154Y0183000D03*
X0215200Y0182800D03*
X0219700Y0183900D03*
X0219200Y0172200D03*
X0234700Y0171300D03*
X0242000Y0147100D03*
X0243100Y0141950D03*
X0230750Y0144050D03*
X0213500Y0127850D03*
X0210650Y0123750D03*
X0205250Y0125100D03*
X0206700Y0119000D03*
X0216950Y0122700D03*
X0207600Y0143300D03*
X0207100Y0147400D03*
X0137800Y0076800D03*
X0134600Y0058400D03*
X0140600Y0056600D03*
X0138900Y0052900D03*
X0148300Y0056800D03*
X0125300Y0055400D03*
X0121300Y0030400D03*
X0126000Y0030050D03*
X0103650Y0010200D03*
X0110400Y0008450D03*
X0118250Y0006600D03*
X0097750Y0010350D03*
X0089800Y0011250D03*
X0084300Y0009400D03*
X0079900Y0012450D03*
X0084450Y0014700D03*
X0087300Y0018650D03*
X0080100Y0017800D03*
X0147850Y0019800D03*
X0105050Y0112400D03*
X0127700Y0117850D03*
X0127850Y0123300D03*
D30*
X0097450Y0144700D03*
X0097450Y0148650D03*
X0093500Y0148650D03*
X0093500Y0144700D03*
X0028900Y0080100D03*
X0028900Y0075450D03*
X0024200Y0075450D03*
X0024250Y0080100D03*
X0111250Y0044300D03*
X0115200Y0044300D03*
X0115200Y0040350D03*
X0111250Y0040350D03*
X0225400Y0158450D03*
X0229350Y0158450D03*
X0229350Y0162450D03*
X0225400Y0162450D03*
D31*
X0163800Y0179600D03*
X0159500Y0179000D03*
X0102600Y0128100D03*
X0102400Y0115900D03*
X0090100Y0080300D03*
X0085700Y0081600D03*
X0084300Y0069200D03*
X0075600Y0065900D03*
X0064700Y0063900D03*
X0066000Y0059100D03*
X0062700Y0074500D03*
X0027200Y0045600D03*
X0027200Y0036400D03*
X0042400Y0027500D03*
X0039900Y0020800D03*
X0059400Y0016800D03*
X0084100Y0030000D03*
D32*
X0015400Y0093600D03*
X0104800Y0122200D03*
X0156400Y0012600D03*
X0245700Y0175100D03*
M02*
