G75*
%MOIN*%
%OFA0B0*%
%FSLAX25Y25*%
%IPPOS*%
%LPD*%
%AMOC8*
5,1,8,0,0,1.08239X$1,22.5*
%
%ADD10C,0.12611*%
%ADD11R,0.03162X0.04146*%
%ADD12R,0.04146X0.03162*%
%ADD13R,0.09068X0.09068*%
%ADD14C,0.02178*%
%ADD15R,0.01800X0.06706*%
%ADD16R,0.06706X0.01800*%
%ADD17R,0.04343X0.03556*%
%ADD18R,0.05131X0.04737*%
%ADD19R,0.04737X0.05131*%
%ADD20R,0.05524X0.06312*%
%ADD21R,0.02375X0.06115*%
%ADD22C,0.06343*%
%ADD23C,0.07887*%
%ADD24C,0.05300*%
%ADD25R,0.05315X0.01772*%
%ADD26R,0.03556X0.04343*%
%ADD27C,0.05556*%
%ADD28C,0.08200*%
%ADD29C,0.03900*%
%ADD30C,0.03600*%
%ADD31C,0.03918*%
%ADD32C,0.08300*%
D10*
X0134622Y0014678D03*
X0014268Y0169796D03*
X0241157Y0225504D03*
D11*
X0229346Y0190662D03*
X0224622Y0190662D03*
X0219898Y0190662D03*
X0215173Y0190662D03*
X0210449Y0190662D03*
X0205724Y0190662D03*
G36*
X0176936Y0189342D02*
X0180093Y0189507D01*
X0180310Y0185368D01*
X0177153Y0185203D01*
X0176936Y0189342D01*
G37*
G36*
X0172218Y0189095D02*
X0175375Y0189260D01*
X0175592Y0185121D01*
X0172435Y0184956D01*
X0172218Y0189095D01*
G37*
G36*
X0167500Y0188848D02*
X0170657Y0189013D01*
X0170874Y0184874D01*
X0167717Y0184709D01*
X0167500Y0188848D01*
G37*
G36*
X0162782Y0188601D02*
X0165939Y0188766D01*
X0166156Y0184627D01*
X0162999Y0184462D01*
X0162782Y0188601D01*
G37*
G36*
X0158064Y0188353D02*
X0161221Y0188518D01*
X0161438Y0184379D01*
X0158281Y0184214D01*
X0158064Y0188353D01*
G37*
G36*
X0153346Y0188106D02*
X0156503Y0188271D01*
X0156720Y0184132D01*
X0153563Y0183967D01*
X0153346Y0188106D01*
G37*
G36*
X0113944Y0185405D02*
X0117101Y0185570D01*
X0117318Y0181431D01*
X0114161Y0181266D01*
X0113944Y0185405D01*
G37*
G36*
X0109226Y0185158D02*
X0112383Y0185323D01*
X0112600Y0181184D01*
X0109443Y0181019D01*
X0109226Y0185158D01*
G37*
G36*
X0104508Y0184911D02*
X0107665Y0185076D01*
X0107882Y0180937D01*
X0104725Y0180772D01*
X0104508Y0184911D01*
G37*
G36*
X0099790Y0184664D02*
X0102947Y0184829D01*
X0103164Y0180690D01*
X0100007Y0180525D01*
X0099790Y0184664D01*
G37*
G36*
X0095072Y0184416D02*
X0098229Y0184581D01*
X0098446Y0180442D01*
X0095289Y0180277D01*
X0095072Y0184416D01*
G37*
G36*
X0090354Y0184169D02*
X0093511Y0184334D01*
X0093728Y0180195D01*
X0090571Y0180030D01*
X0090354Y0184169D01*
G37*
G36*
X0062763Y0161783D02*
X0065920Y0161948D01*
X0066137Y0157809D01*
X0062980Y0157644D01*
X0062763Y0161783D01*
G37*
G36*
X0058045Y0161536D02*
X0061202Y0161701D01*
X0061419Y0157562D01*
X0058262Y0157397D01*
X0058045Y0161536D01*
G37*
G36*
X0053327Y0161289D02*
X0056484Y0161454D01*
X0056701Y0157315D01*
X0053544Y0157150D01*
X0053327Y0161289D01*
G37*
G36*
X0048609Y0161042D02*
X0051766Y0161207D01*
X0051983Y0157068D01*
X0048826Y0156903D01*
X0048609Y0161042D01*
G37*
G36*
X0043891Y0160794D02*
X0047048Y0160959D01*
X0047265Y0156820D01*
X0044108Y0156655D01*
X0043891Y0160794D01*
G37*
G36*
X0039173Y0160547D02*
X0042330Y0160712D01*
X0042547Y0156573D01*
X0039390Y0156408D01*
X0039173Y0160547D01*
G37*
G36*
X0151469Y0089924D02*
X0150919Y0086811D01*
X0146837Y0087530D01*
X0147387Y0090643D01*
X0151469Y0089924D01*
G37*
G36*
X0152289Y0094577D02*
X0151739Y0091464D01*
X0147657Y0092183D01*
X0148207Y0095296D01*
X0152289Y0094577D01*
G37*
G36*
X0153109Y0099229D02*
X0152559Y0096116D01*
X0148477Y0096835D01*
X0149027Y0099948D01*
X0153109Y0099229D01*
G37*
G36*
X0153930Y0103882D02*
X0153380Y0100769D01*
X0149298Y0101488D01*
X0149848Y0104601D01*
X0153930Y0103882D01*
G37*
G36*
X0150648Y0085271D02*
X0150098Y0082158D01*
X0146016Y0082877D01*
X0146566Y0085990D01*
X0150648Y0085271D01*
G37*
G36*
X0149828Y0080619D02*
X0149278Y0077506D01*
X0145196Y0078225D01*
X0145746Y0081338D01*
X0149828Y0080619D01*
G37*
D12*
X0145488Y0054048D03*
X0145488Y0049323D03*
X0145488Y0044599D03*
X0145488Y0039875D03*
X0145488Y0035150D03*
X0145488Y0030426D03*
D13*
X0113205Y0044205D03*
X0026591Y0079638D03*
X0095488Y0148536D03*
X0227378Y0162315D03*
D14*
X0221177Y0161036D02*
X0215665Y0161036D01*
X0215665Y0163595D02*
X0221177Y0163595D01*
X0221177Y0166154D02*
X0215665Y0166154D01*
X0215665Y0158477D02*
X0221177Y0158477D01*
X0223539Y0156115D02*
X0223539Y0150603D01*
X0226098Y0150603D02*
X0226098Y0156115D01*
X0228657Y0156115D02*
X0228657Y0150603D01*
X0231217Y0150603D02*
X0231217Y0156115D01*
X0233579Y0158477D02*
X0239091Y0158477D01*
X0239091Y0161036D02*
X0233579Y0161036D01*
X0233579Y0163595D02*
X0239091Y0163595D01*
X0239091Y0166154D02*
X0233579Y0166154D01*
X0231217Y0168516D02*
X0231217Y0174028D01*
X0228657Y0174028D02*
X0228657Y0168516D01*
X0226098Y0168516D02*
X0226098Y0174028D01*
X0223539Y0174028D02*
X0223539Y0168516D01*
X0107201Y0152375D02*
X0101689Y0152375D01*
X0101689Y0149815D02*
X0107201Y0149815D01*
X0107201Y0147256D02*
X0101689Y0147256D01*
X0101689Y0144697D02*
X0107201Y0144697D01*
X0099327Y0142335D02*
X0099327Y0136823D01*
X0096768Y0136823D02*
X0096768Y0142335D01*
X0094209Y0142335D02*
X0094209Y0136823D01*
X0091650Y0136823D02*
X0091650Y0142335D01*
X0089287Y0144697D02*
X0083775Y0144697D01*
X0083775Y0147256D02*
X0089287Y0147256D01*
X0089287Y0149815D02*
X0083775Y0149815D01*
X0083775Y0152375D02*
X0089287Y0152375D01*
X0091650Y0154737D02*
X0091650Y0160249D01*
X0094209Y0160249D02*
X0094209Y0154737D01*
X0096768Y0154737D02*
X0096768Y0160249D01*
X0099327Y0160249D02*
X0099327Y0154737D01*
X0030429Y0091351D02*
X0030429Y0085839D01*
X0027870Y0085839D02*
X0027870Y0091351D01*
X0025311Y0091351D02*
X0025311Y0085839D01*
X0022752Y0085839D02*
X0022752Y0091351D01*
X0020390Y0083477D02*
X0014878Y0083477D01*
X0014878Y0080918D02*
X0020390Y0080918D01*
X0020390Y0078359D02*
X0014878Y0078359D01*
X0014878Y0075800D02*
X0020390Y0075800D01*
X0022752Y0073438D02*
X0022752Y0067926D01*
X0025311Y0067926D02*
X0025311Y0073438D01*
X0027870Y0073438D02*
X0027870Y0067926D01*
X0030429Y0067926D02*
X0030429Y0073438D01*
X0032791Y0075800D02*
X0038303Y0075800D01*
X0038303Y0078359D02*
X0032791Y0078359D01*
X0032791Y0080918D02*
X0038303Y0080918D01*
X0038303Y0083477D02*
X0032791Y0083477D01*
X0101492Y0048044D02*
X0107004Y0048044D01*
X0107004Y0045485D02*
X0101492Y0045485D01*
X0101492Y0042926D02*
X0107004Y0042926D01*
X0107004Y0040367D02*
X0101492Y0040367D01*
X0109366Y0038005D02*
X0109366Y0032493D01*
X0111925Y0032493D02*
X0111925Y0038005D01*
X0114484Y0038005D02*
X0114484Y0032493D01*
X0117043Y0032493D02*
X0117043Y0038005D01*
X0119405Y0040367D02*
X0124917Y0040367D01*
X0124917Y0042926D02*
X0119405Y0042926D01*
X0119405Y0045485D02*
X0124917Y0045485D01*
X0124917Y0048044D02*
X0119405Y0048044D01*
X0117043Y0050406D02*
X0117043Y0055918D01*
X0114484Y0055918D02*
X0114484Y0050406D01*
X0111925Y0050406D02*
X0111925Y0055918D01*
X0109366Y0055918D02*
X0109366Y0050406D01*
D15*
X0088598Y0055032D03*
X0086630Y0055032D03*
X0084661Y0055032D03*
X0082693Y0055032D03*
X0080724Y0055032D03*
X0078756Y0055032D03*
X0076787Y0055032D03*
X0074819Y0055032D03*
X0072850Y0055032D03*
X0070882Y0055032D03*
X0068913Y0055032D03*
X0066945Y0055032D03*
X0064976Y0055032D03*
X0063008Y0055032D03*
X0061039Y0055032D03*
X0059071Y0055032D03*
X0059071Y0100308D03*
X0061039Y0100308D03*
X0063008Y0100308D03*
X0064976Y0100308D03*
X0066945Y0100308D03*
X0068913Y0100308D03*
X0070882Y0100308D03*
X0072850Y0100308D03*
X0074819Y0100308D03*
X0076787Y0100308D03*
X0078756Y0100308D03*
X0080724Y0100308D03*
X0082693Y0100308D03*
X0084661Y0100308D03*
X0086630Y0100308D03*
X0088598Y0100308D03*
D16*
X0096472Y0092434D03*
X0096472Y0090465D03*
X0096472Y0088497D03*
X0096472Y0086528D03*
X0096472Y0084560D03*
X0096472Y0082591D03*
X0096472Y0080623D03*
X0096472Y0078654D03*
X0096472Y0076686D03*
X0096472Y0074717D03*
X0096472Y0072749D03*
X0096472Y0070780D03*
X0096472Y0068812D03*
X0096472Y0066843D03*
X0096472Y0064875D03*
X0096472Y0062906D03*
X0051197Y0062906D03*
X0051197Y0064875D03*
X0051197Y0066843D03*
X0051197Y0068812D03*
X0051197Y0070780D03*
X0051197Y0072749D03*
X0051197Y0074717D03*
X0051197Y0076686D03*
X0051197Y0078654D03*
X0051197Y0080623D03*
X0051197Y0082591D03*
X0051197Y0084560D03*
X0051197Y0086528D03*
X0051197Y0088497D03*
X0051197Y0090465D03*
X0051197Y0092434D03*
D17*
X0040370Y0090859D03*
X0040370Y0095977D03*
X0052181Y0114481D03*
X0052181Y0119599D03*
X0060055Y0119599D03*
X0060055Y0114481D03*
X0067929Y0114481D03*
X0067929Y0119599D03*
X0075803Y0119599D03*
X0075803Y0114481D03*
X0042339Y0127023D03*
X0042339Y0132141D03*
X0034265Y0123373D03*
X0034265Y0118255D03*
X0040370Y0068418D03*
X0040370Y0063300D03*
D18*
X0067150Y0034113D03*
X0067150Y0027420D03*
X0075100Y0027420D03*
X0075100Y0034113D03*
X0093947Y0018515D03*
X0100640Y0018515D03*
X0105833Y0018530D03*
X0112526Y0018530D03*
X0038046Y0013867D03*
X0031354Y0013867D03*
X0210689Y0138825D03*
X0217382Y0138825D03*
X0222564Y0138845D03*
X0229257Y0138845D03*
D19*
X0027400Y0020920D03*
X0027400Y0027613D03*
G36*
X0120222Y0093961D02*
X0116873Y0090612D01*
X0113246Y0094239D01*
X0116595Y0097588D01*
X0120222Y0093961D01*
G37*
G36*
X0124954Y0098694D02*
X0121605Y0095345D01*
X0117978Y0098972D01*
X0121327Y0102321D01*
X0124954Y0098694D01*
G37*
G36*
X0130773Y0103421D02*
X0134122Y0100072D01*
X0130495Y0096445D01*
X0127146Y0099794D01*
X0130773Y0103421D01*
G37*
G36*
X0135505Y0098688D02*
X0138854Y0095339D01*
X0135227Y0091712D01*
X0131878Y0095061D01*
X0135505Y0098688D01*
G37*
G36*
X0132339Y0091562D02*
X0130337Y0087270D01*
X0125689Y0089438D01*
X0127691Y0093730D01*
X0132339Y0091562D01*
G37*
G36*
X0129511Y0085496D02*
X0127509Y0081204D01*
X0122861Y0083372D01*
X0124863Y0087664D01*
X0129511Y0085496D01*
G37*
X0121079Y0131247D03*
X0121079Y0137940D03*
X0121069Y0143173D03*
X0121069Y0149866D03*
X0121093Y0155023D03*
X0121093Y0161716D03*
X0057496Y0128851D03*
X0050803Y0128851D03*
X0119110Y0019993D03*
X0119110Y0013300D03*
X0235852Y0133510D03*
X0235852Y0140203D03*
D20*
X0047457Y0050504D03*
X0041157Y0050504D03*
X0041157Y0041843D03*
X0047457Y0041843D03*
D21*
G36*
X0016715Y0134693D02*
X0016612Y0137064D01*
X0022719Y0137331D01*
X0022822Y0134960D01*
X0016715Y0134693D01*
G37*
G36*
X0016603Y0137250D02*
X0016500Y0139621D01*
X0022607Y0139888D01*
X0022710Y0137517D01*
X0016603Y0137250D01*
G37*
G36*
X0016492Y0139807D02*
X0016389Y0142178D01*
X0022496Y0142445D01*
X0022599Y0140074D01*
X0016492Y0139807D01*
G37*
G36*
X0016380Y0142363D02*
X0016277Y0144734D01*
X0022384Y0145001D01*
X0022487Y0142630D01*
X0016380Y0142363D01*
G37*
G36*
X0016269Y0144920D02*
X0016166Y0147291D01*
X0022273Y0147558D01*
X0022376Y0145187D01*
X0016269Y0144920D01*
G37*
D22*
X0019064Y0150959D03*
X0019923Y0131292D03*
D23*
X0009475Y0126896D03*
X0008273Y0154428D03*
D24*
X0034639Y0143799D03*
X0034265Y0136462D03*
X0028559Y0101367D03*
X0020600Y0101367D03*
X0089500Y0128567D03*
X0095800Y0041967D03*
X0199700Y0163467D03*
D25*
X0165783Y0162536D03*
X0165783Y0165095D03*
X0165783Y0159977D03*
X0165783Y0157417D03*
X0165783Y0154858D03*
X0165783Y0152299D03*
X0165783Y0149740D03*
X0165783Y0147181D03*
X0142752Y0147181D03*
X0142752Y0149740D03*
X0142752Y0152299D03*
X0142752Y0154858D03*
X0142752Y0157417D03*
X0142752Y0159977D03*
X0142752Y0162536D03*
X0142752Y0165095D03*
D26*
X0090173Y0113103D03*
X0085055Y0113103D03*
X0087708Y0047312D03*
X0092826Y0047312D03*
D27*
X0181100Y0151467D03*
X0188600Y0151467D03*
X0188600Y0158967D03*
X0181100Y0158967D03*
X0181100Y0166467D03*
X0188600Y0166467D03*
X0191100Y0199367D03*
X0191100Y0206867D03*
X0137800Y0206967D03*
X0130300Y0206967D03*
X0130300Y0199467D03*
X0137800Y0199467D03*
X0137800Y0191967D03*
X0130300Y0191967D03*
X0245700Y0193767D03*
X0245700Y0201267D03*
X0245700Y0208767D03*
X0245700Y0186267D03*
D28*
X0137800Y0174267D03*
X0127800Y0174267D03*
X0014725Y0066064D03*
X0015074Y0056070D03*
X0060700Y0012667D03*
X0070700Y0012667D03*
D29*
X0079900Y0014317D03*
X0084450Y0016567D03*
X0087300Y0020517D03*
X0080100Y0019667D03*
X0084300Y0011267D03*
X0089800Y0013117D03*
X0097750Y0012217D03*
X0103650Y0012067D03*
X0110400Y0010317D03*
X0118250Y0008467D03*
X0121300Y0032267D03*
X0126000Y0031917D03*
X0147850Y0021667D03*
X0138900Y0054767D03*
X0140600Y0058467D03*
X0134600Y0060267D03*
X0125300Y0057267D03*
X0106200Y0055867D03*
X0097150Y0058467D03*
X0092500Y0059767D03*
X0078350Y0061117D03*
X0068300Y0069067D03*
X0064900Y0063067D03*
X0061000Y0060567D03*
X0061163Y0066883D03*
X0059500Y0078567D03*
X0057044Y0081723D03*
X0066600Y0079867D03*
X0065500Y0091867D03*
X0062300Y0094867D03*
X0070400Y0091967D03*
X0075100Y0093567D03*
X0083700Y0094467D03*
X0079500Y0105667D03*
X0075100Y0107867D03*
X0068900Y0106167D03*
X0053000Y0107867D03*
X0045200Y0092567D03*
X0034600Y0087767D03*
X0044800Y0080267D03*
X0041800Y0074567D03*
X0034900Y0070667D03*
X0034350Y0065267D03*
X0029850Y0057717D03*
X0022150Y0062667D03*
X0011800Y0083567D03*
X0035400Y0107167D03*
X0026400Y0118267D03*
X0011100Y0136967D03*
X0036700Y0158217D03*
X0045700Y0152267D03*
X0050300Y0144267D03*
X0055350Y0153317D03*
X0079800Y0142867D03*
X0082100Y0158867D03*
X0094600Y0178067D03*
X0100600Y0177767D03*
X0106200Y0177967D03*
X0106850Y0162617D03*
X0111000Y0162767D03*
X0116800Y0159517D03*
X0088150Y0182167D03*
X0142700Y0194867D03*
X0149800Y0192617D03*
X0155500Y0172267D03*
X0157300Y0168367D03*
X0160700Y0165067D03*
X0147800Y0165067D03*
X0169000Y0181067D03*
X0201900Y0190717D03*
X0210154Y0184867D03*
X0215200Y0184667D03*
X0219700Y0185767D03*
X0219200Y0174067D03*
X0234700Y0173167D03*
X0242000Y0148967D03*
X0243100Y0143817D03*
X0230750Y0145917D03*
X0213500Y0129717D03*
X0210650Y0125617D03*
X0205250Y0126967D03*
X0206700Y0120867D03*
X0216950Y0124567D03*
X0207600Y0145167D03*
X0207100Y0149267D03*
X0183350Y0138567D03*
X0178050Y0138617D03*
X0173350Y0136167D03*
X0179400Y0133867D03*
X0174350Y0142567D03*
X0180500Y0143767D03*
X0152100Y0124967D03*
X0142700Y0121467D03*
X0142850Y0129117D03*
X0127850Y0125167D03*
X0127700Y0119717D03*
X0125500Y0102867D03*
X0135900Y0103267D03*
X0123500Y0090367D03*
X0110600Y0091067D03*
X0109600Y0087267D03*
X0108600Y0083467D03*
X0087200Y0075567D03*
X0071900Y0049467D03*
X0065700Y0043967D03*
X0061300Y0043067D03*
X0055700Y0038267D03*
X0059800Y0035967D03*
X0074800Y0042767D03*
X0077800Y0047267D03*
X0090300Y0042417D03*
X0137800Y0078667D03*
X0148300Y0058667D03*
X0152400Y0106367D03*
X0105050Y0114267D03*
X0092800Y0108367D03*
X0085700Y0107067D03*
X0083700Y0118467D03*
X0071800Y0124067D03*
X0062800Y0128867D03*
D30*
X0093500Y0146567D03*
X0097450Y0146567D03*
X0097450Y0150517D03*
X0093500Y0150517D03*
X0028900Y0081967D03*
X0024250Y0081967D03*
X0024200Y0077317D03*
X0028900Y0077317D03*
X0111250Y0046167D03*
X0115200Y0046167D03*
X0115200Y0042217D03*
X0111250Y0042217D03*
X0225400Y0160317D03*
X0229350Y0160317D03*
X0229350Y0164317D03*
X0225400Y0164317D03*
D31*
X0163800Y0181467D03*
X0159500Y0180867D03*
X0102600Y0129967D03*
X0102400Y0117767D03*
X0090500Y0086567D03*
X0086500Y0079967D03*
X0084300Y0071067D03*
X0088700Y0066367D03*
X0068200Y0060667D03*
X0062700Y0076367D03*
X0027200Y0047467D03*
X0027200Y0038267D03*
X0040000Y0029367D03*
X0036900Y0022667D03*
X0056500Y0025767D03*
X0084100Y0031867D03*
D32*
X0015400Y0095467D03*
X0104300Y0124267D03*
X0156400Y0014467D03*
X0245700Y0176967D03*
M02*
