G75*
%MOIN*%
%OFA0B0*%
%FSLAX25Y25*%
%IPPOS*%
%LPD*%
%AMOC8*
5,1,8,0,0,1.08239X$1,22.5*
%
%ADD10C,0.12611*%
%ADD11R,0.03162X0.04146*%
%ADD12R,0.04146X0.03162*%
%ADD13R,0.09068X0.09068*%
%ADD14C,0.02178*%
%ADD15R,0.01800X0.06706*%
%ADD16R,0.06706X0.01800*%
%ADD17R,0.04343X0.03556*%
%ADD18R,0.05131X0.04737*%
%ADD19R,0.04737X0.05131*%
%ADD20R,0.05524X0.06312*%
%ADD21R,0.02375X0.06115*%
%ADD22C,0.06343*%
%ADD23C,0.07887*%
%ADD24C,0.05300*%
%ADD25R,0.05315X0.01772*%
%ADD26R,0.03556X0.04343*%
%ADD27C,0.05556*%
%ADD28C,0.08200*%
%ADD29C,0.03900*%
%ADD30C,0.03600*%
%ADD31C,0.03918*%
%ADD32C,0.08300*%
D10*
X0147922Y0029411D03*
X0027568Y0184529D03*
X0030043Y0287862D03*
X0254457Y0240238D03*
X0256932Y0343571D03*
X0322768Y0448329D03*
X0443122Y0293211D03*
X0431278Y0234289D03*
X0551632Y0079171D03*
X0324743Y0023462D03*
X0136578Y0498689D03*
X0549657Y0504038D03*
D11*
X0537846Y0469195D03*
X0533122Y0469195D03*
X0528398Y0469195D03*
X0523673Y0469195D03*
X0518949Y0469195D03*
X0514224Y0469195D03*
G36*
X0485436Y0467876D02*
X0488593Y0468041D01*
X0488810Y0463902D01*
X0485653Y0463737D01*
X0485436Y0467876D01*
G37*
G36*
X0480718Y0467629D02*
X0483875Y0467794D01*
X0484092Y0463655D01*
X0480935Y0463490D01*
X0480718Y0467629D01*
G37*
G36*
X0476000Y0467381D02*
X0479157Y0467546D01*
X0479374Y0463407D01*
X0476217Y0463242D01*
X0476000Y0467381D01*
G37*
G36*
X0471282Y0467134D02*
X0474439Y0467299D01*
X0474656Y0463160D01*
X0471499Y0462995D01*
X0471282Y0467134D01*
G37*
G36*
X0466564Y0466887D02*
X0469721Y0467052D01*
X0469938Y0462913D01*
X0466781Y0462748D01*
X0466564Y0466887D01*
G37*
G36*
X0461846Y0466640D02*
X0465003Y0466805D01*
X0465220Y0462666D01*
X0462063Y0462501D01*
X0461846Y0466640D01*
G37*
G36*
X0422444Y0463939D02*
X0425601Y0464104D01*
X0425818Y0459965D01*
X0422661Y0459800D01*
X0422444Y0463939D01*
G37*
G36*
X0417726Y0463692D02*
X0420883Y0463857D01*
X0421100Y0459718D01*
X0417943Y0459553D01*
X0417726Y0463692D01*
G37*
G36*
X0413008Y0463444D02*
X0416165Y0463609D01*
X0416382Y0459470D01*
X0413225Y0459305D01*
X0413008Y0463444D01*
G37*
G36*
X0408290Y0463197D02*
X0411447Y0463362D01*
X0411664Y0459223D01*
X0408507Y0459058D01*
X0408290Y0463197D01*
G37*
G36*
X0403572Y0462950D02*
X0406729Y0463115D01*
X0406946Y0458976D01*
X0403789Y0458811D01*
X0403572Y0462950D01*
G37*
G36*
X0398854Y0462703D02*
X0402011Y0462868D01*
X0402228Y0458729D01*
X0399071Y0458564D01*
X0398854Y0462703D01*
G37*
G36*
X0371263Y0440317D02*
X0374420Y0440482D01*
X0374637Y0436343D01*
X0371480Y0436178D01*
X0371263Y0440317D01*
G37*
G36*
X0366545Y0440070D02*
X0369702Y0440235D01*
X0369919Y0436096D01*
X0366762Y0435931D01*
X0366545Y0440070D01*
G37*
G36*
X0361827Y0439822D02*
X0364984Y0439987D01*
X0365201Y0435848D01*
X0362044Y0435683D01*
X0361827Y0439822D01*
G37*
G36*
X0357109Y0439575D02*
X0360266Y0439740D01*
X0360483Y0435601D01*
X0357326Y0435436D01*
X0357109Y0439575D01*
G37*
G36*
X0352391Y0439328D02*
X0355548Y0439493D01*
X0355765Y0435354D01*
X0352608Y0435189D01*
X0352391Y0439328D01*
G37*
G36*
X0347673Y0439080D02*
X0350830Y0439245D01*
X0351047Y0435106D01*
X0347890Y0434941D01*
X0347673Y0439080D01*
G37*
G36*
X0459148Y0363805D02*
X0458598Y0360692D01*
X0454516Y0361411D01*
X0455066Y0364524D01*
X0459148Y0363805D01*
G37*
G36*
X0459969Y0368457D02*
X0459419Y0365344D01*
X0455337Y0366063D01*
X0455887Y0369176D01*
X0459969Y0368457D01*
G37*
G36*
X0460789Y0373110D02*
X0460239Y0369997D01*
X0456157Y0370716D01*
X0456707Y0373829D01*
X0460789Y0373110D01*
G37*
G36*
X0461609Y0377763D02*
X0461059Y0374650D01*
X0456977Y0375369D01*
X0457527Y0378482D01*
X0461609Y0377763D01*
G37*
G36*
X0462430Y0382415D02*
X0461880Y0379302D01*
X0457798Y0380021D01*
X0458348Y0383134D01*
X0462430Y0382415D01*
G37*
G36*
X0458328Y0359152D02*
X0457778Y0356039D01*
X0453696Y0356758D01*
X0454246Y0359871D01*
X0458328Y0359152D01*
G37*
G36*
X0416072Y0168348D02*
X0416622Y0171461D01*
X0420704Y0170742D01*
X0420154Y0167629D01*
X0416072Y0168348D01*
G37*
G36*
X0415252Y0163695D02*
X0415802Y0166808D01*
X0419884Y0166089D01*
X0419334Y0162976D01*
X0415252Y0163695D01*
G37*
G36*
X0414431Y0159043D02*
X0414981Y0162156D01*
X0419063Y0161437D01*
X0418513Y0158324D01*
X0414431Y0159043D01*
G37*
G36*
X0413611Y0154390D02*
X0414161Y0157503D01*
X0418243Y0156784D01*
X0417693Y0153671D01*
X0413611Y0154390D01*
G37*
G36*
X0412791Y0149737D02*
X0413341Y0152850D01*
X0417423Y0152131D01*
X0416873Y0149018D01*
X0412791Y0149737D01*
G37*
G36*
X0411970Y0145085D02*
X0412520Y0148198D01*
X0416602Y0147479D01*
X0416052Y0144366D01*
X0411970Y0145085D01*
G37*
G36*
X0451956Y0063561D02*
X0448799Y0063396D01*
X0448582Y0067535D01*
X0451739Y0067700D01*
X0451956Y0063561D01*
G37*
G36*
X0456674Y0063808D02*
X0453517Y0063643D01*
X0453300Y0067782D01*
X0456457Y0067947D01*
X0456674Y0063808D01*
G37*
G36*
X0461392Y0064056D02*
X0458235Y0063891D01*
X0458018Y0068030D01*
X0461175Y0068195D01*
X0461392Y0064056D01*
G37*
G36*
X0466110Y0064303D02*
X0462953Y0064138D01*
X0462736Y0068277D01*
X0465893Y0068442D01*
X0466110Y0064303D01*
G37*
G36*
X0470828Y0064550D02*
X0467671Y0064385D01*
X0467454Y0068524D01*
X0470611Y0068689D01*
X0470828Y0064550D01*
G37*
G36*
X0475546Y0064797D02*
X0472389Y0064632D01*
X0472172Y0068771D01*
X0475329Y0068936D01*
X0475546Y0064797D01*
G37*
G36*
X0503137Y0087183D02*
X0499980Y0087018D01*
X0499763Y0091157D01*
X0502920Y0091322D01*
X0503137Y0087183D01*
G37*
G36*
X0507855Y0087430D02*
X0504698Y0087265D01*
X0504481Y0091404D01*
X0507638Y0091569D01*
X0507855Y0087430D01*
G37*
G36*
X0512573Y0087678D02*
X0509416Y0087513D01*
X0509199Y0091652D01*
X0512356Y0091817D01*
X0512573Y0087678D01*
G37*
G36*
X0517291Y0087925D02*
X0514134Y0087760D01*
X0513917Y0091899D01*
X0517074Y0092064D01*
X0517291Y0087925D01*
G37*
G36*
X0522009Y0088172D02*
X0518852Y0088007D01*
X0518635Y0092146D01*
X0521792Y0092311D01*
X0522009Y0088172D01*
G37*
G36*
X0526727Y0088420D02*
X0523570Y0088255D01*
X0523353Y0092394D01*
X0526510Y0092559D01*
X0526727Y0088420D01*
G37*
G36*
X0412554Y0060860D02*
X0409397Y0060695D01*
X0409180Y0064834D01*
X0412337Y0064999D01*
X0412554Y0060860D01*
G37*
G36*
X0407836Y0060613D02*
X0404679Y0060448D01*
X0404462Y0064587D01*
X0407619Y0064752D01*
X0407836Y0060613D01*
G37*
G36*
X0403118Y0060366D02*
X0399961Y0060201D01*
X0399744Y0064340D01*
X0402901Y0064505D01*
X0403118Y0060366D01*
G37*
G36*
X0398400Y0060119D02*
X0395243Y0059954D01*
X0395026Y0064093D01*
X0398183Y0064258D01*
X0398400Y0060119D01*
G37*
G36*
X0393682Y0059871D02*
X0390525Y0059706D01*
X0390308Y0063845D01*
X0393465Y0064010D01*
X0393682Y0059871D01*
G37*
G36*
X0388964Y0059624D02*
X0385807Y0059459D01*
X0385590Y0063598D01*
X0388747Y0063763D01*
X0388964Y0059624D01*
G37*
X0360176Y0058305D03*
X0355451Y0058305D03*
X0350727Y0058305D03*
X0346002Y0058305D03*
X0341278Y0058305D03*
X0336554Y0058305D03*
X0242646Y0205395D03*
X0237922Y0205395D03*
X0233198Y0205395D03*
X0228473Y0205395D03*
X0223749Y0205395D03*
X0219024Y0205395D03*
G36*
X0190236Y0204076D02*
X0193393Y0204241D01*
X0193610Y0200102D01*
X0190453Y0199937D01*
X0190236Y0204076D01*
G37*
G36*
X0185518Y0203829D02*
X0188675Y0203994D01*
X0188892Y0199855D01*
X0185735Y0199690D01*
X0185518Y0203829D01*
G37*
G36*
X0180800Y0203581D02*
X0183957Y0203746D01*
X0184174Y0199607D01*
X0181017Y0199442D01*
X0180800Y0203581D01*
G37*
G36*
X0176082Y0203334D02*
X0179239Y0203499D01*
X0179456Y0199360D01*
X0176299Y0199195D01*
X0176082Y0203334D01*
G37*
G36*
X0171364Y0203087D02*
X0174521Y0203252D01*
X0174738Y0199113D01*
X0171581Y0198948D01*
X0171364Y0203087D01*
G37*
G36*
X0166646Y0202840D02*
X0169803Y0203005D01*
X0170020Y0198866D01*
X0166863Y0198701D01*
X0166646Y0202840D01*
G37*
G36*
X0127244Y0200139D02*
X0130401Y0200304D01*
X0130618Y0196165D01*
X0127461Y0196000D01*
X0127244Y0200139D01*
G37*
G36*
X0122526Y0199892D02*
X0125683Y0200057D01*
X0125900Y0195918D01*
X0122743Y0195753D01*
X0122526Y0199892D01*
G37*
G36*
X0117808Y0199644D02*
X0120965Y0199809D01*
X0121182Y0195670D01*
X0118025Y0195505D01*
X0117808Y0199644D01*
G37*
G36*
X0113090Y0199397D02*
X0116247Y0199562D01*
X0116464Y0195423D01*
X0113307Y0195258D01*
X0113090Y0199397D01*
G37*
G36*
X0108372Y0199150D02*
X0111529Y0199315D01*
X0111746Y0195176D01*
X0108589Y0195011D01*
X0108372Y0199150D01*
G37*
G36*
X0103654Y0198903D02*
X0106811Y0199068D01*
X0107028Y0194929D01*
X0103871Y0194764D01*
X0103654Y0198903D01*
G37*
G36*
X0076063Y0176517D02*
X0079220Y0176682D01*
X0079437Y0172543D01*
X0076280Y0172378D01*
X0076063Y0176517D01*
G37*
G36*
X0071345Y0176270D02*
X0074502Y0176435D01*
X0074719Y0172296D01*
X0071562Y0172131D01*
X0071345Y0176270D01*
G37*
G36*
X0066627Y0176022D02*
X0069784Y0176187D01*
X0070001Y0172048D01*
X0066844Y0171883D01*
X0066627Y0176022D01*
G37*
G36*
X0061909Y0175775D02*
X0065066Y0175940D01*
X0065283Y0171801D01*
X0062126Y0171636D01*
X0061909Y0175775D01*
G37*
G36*
X0057191Y0175528D02*
X0060348Y0175693D01*
X0060565Y0171554D01*
X0057408Y0171389D01*
X0057191Y0175528D01*
G37*
G36*
X0052473Y0175280D02*
X0055630Y0175445D01*
X0055847Y0171306D01*
X0052690Y0171141D01*
X0052473Y0175280D01*
G37*
G36*
X0167230Y0118615D02*
X0166680Y0115502D01*
X0162598Y0116221D01*
X0163148Y0119334D01*
X0167230Y0118615D01*
G37*
G36*
X0166409Y0113963D02*
X0165859Y0110850D01*
X0161777Y0111569D01*
X0162327Y0114682D01*
X0166409Y0113963D01*
G37*
G36*
X0165589Y0109310D02*
X0165039Y0106197D01*
X0160957Y0106916D01*
X0161507Y0110029D01*
X0165589Y0109310D01*
G37*
G36*
X0164769Y0104657D02*
X0164219Y0101544D01*
X0160137Y0102263D01*
X0160687Y0105376D01*
X0164769Y0104657D01*
G37*
G36*
X0163948Y0100005D02*
X0163398Y0096892D01*
X0159316Y0097611D01*
X0159866Y0100724D01*
X0163948Y0100005D01*
G37*
G36*
X0163128Y0095352D02*
X0162578Y0092239D01*
X0158496Y0092958D01*
X0159046Y0096071D01*
X0163128Y0095352D01*
G37*
G36*
X0103700Y0324519D02*
X0100543Y0324354D01*
X0100326Y0328493D01*
X0103483Y0328658D01*
X0103700Y0324519D01*
G37*
G36*
X0108418Y0324766D02*
X0105261Y0324601D01*
X0105044Y0328740D01*
X0108201Y0328905D01*
X0108418Y0324766D01*
G37*
G36*
X0113136Y0325013D02*
X0109979Y0324848D01*
X0109762Y0328987D01*
X0112919Y0329152D01*
X0113136Y0325013D01*
G37*
G36*
X0117854Y0325260D02*
X0114697Y0325095D01*
X0114480Y0329234D01*
X0117637Y0329399D01*
X0117854Y0325260D01*
G37*
G36*
X0098982Y0324271D02*
X0095825Y0324106D01*
X0095608Y0328245D01*
X0098765Y0328410D01*
X0098982Y0324271D01*
G37*
G36*
X0094264Y0324024D02*
X0091107Y0323859D01*
X0090890Y0327998D01*
X0094047Y0328163D01*
X0094264Y0324024D01*
G37*
X0065476Y0322705D03*
X0060751Y0322705D03*
X0056027Y0322705D03*
X0051302Y0322705D03*
X0046578Y0322705D03*
X0041854Y0322705D03*
G36*
X0117270Y0409485D02*
X0117820Y0412598D01*
X0121902Y0411879D01*
X0121352Y0408766D01*
X0117270Y0409485D01*
G37*
G36*
X0118091Y0414137D02*
X0118641Y0417250D01*
X0122723Y0416531D01*
X0122173Y0413418D01*
X0118091Y0414137D01*
G37*
G36*
X0118911Y0418790D02*
X0119461Y0421903D01*
X0123543Y0421184D01*
X0122993Y0418071D01*
X0118911Y0418790D01*
G37*
G36*
X0119731Y0423443D02*
X0120281Y0426556D01*
X0124363Y0425837D01*
X0123813Y0422724D01*
X0119731Y0423443D01*
G37*
G36*
X0120552Y0428095D02*
X0121102Y0431208D01*
X0125184Y0430489D01*
X0124634Y0427376D01*
X0120552Y0428095D01*
G37*
G36*
X0121372Y0432748D02*
X0121922Y0435861D01*
X0126004Y0435142D01*
X0125454Y0432029D01*
X0121372Y0432748D01*
G37*
G36*
X0208437Y0351583D02*
X0205280Y0351418D01*
X0205063Y0355557D01*
X0208220Y0355722D01*
X0208437Y0351583D01*
G37*
G36*
X0213155Y0351830D02*
X0209998Y0351665D01*
X0209781Y0355804D01*
X0212938Y0355969D01*
X0213155Y0351830D01*
G37*
G36*
X0217873Y0352078D02*
X0214716Y0351913D01*
X0214499Y0356052D01*
X0217656Y0356217D01*
X0217873Y0352078D01*
G37*
G36*
X0222591Y0352325D02*
X0219434Y0352160D01*
X0219217Y0356299D01*
X0222374Y0356464D01*
X0222591Y0352325D01*
G37*
G36*
X0227309Y0352572D02*
X0224152Y0352407D01*
X0223935Y0356546D01*
X0227092Y0356711D01*
X0227309Y0352572D01*
G37*
G36*
X0232027Y0352820D02*
X0228870Y0352655D01*
X0228653Y0356794D01*
X0231810Y0356959D01*
X0232027Y0352820D01*
G37*
G36*
X0180846Y0329197D02*
X0177689Y0329032D01*
X0177472Y0333171D01*
X0180629Y0333336D01*
X0180846Y0329197D01*
G37*
G36*
X0176128Y0328950D02*
X0172971Y0328785D01*
X0172754Y0332924D01*
X0175911Y0333089D01*
X0176128Y0328950D01*
G37*
G36*
X0171410Y0328703D02*
X0168253Y0328538D01*
X0168036Y0332677D01*
X0171193Y0332842D01*
X0171410Y0328703D01*
G37*
G36*
X0166692Y0328456D02*
X0163535Y0328291D01*
X0163318Y0332430D01*
X0166475Y0332595D01*
X0166692Y0328456D01*
G37*
G36*
X0161974Y0328208D02*
X0158817Y0328043D01*
X0158600Y0332182D01*
X0161757Y0332347D01*
X0161974Y0328208D01*
G37*
G36*
X0157256Y0327961D02*
X0154099Y0327796D01*
X0153882Y0331935D01*
X0157039Y0332100D01*
X0157256Y0327961D01*
G37*
D12*
X0125712Y0459319D03*
X0125712Y0464043D03*
X0125712Y0468768D03*
X0125712Y0473492D03*
X0125712Y0478217D03*
X0125712Y0482941D03*
X0420412Y0218541D03*
X0420412Y0213817D03*
X0420412Y0209092D03*
X0420412Y0204368D03*
X0420412Y0199643D03*
X0420412Y0194919D03*
X0453988Y0308959D03*
X0453988Y0313683D03*
X0453988Y0318408D03*
X0453988Y0323132D03*
X0453988Y0327857D03*
X0453988Y0332581D03*
X0158788Y0068781D03*
X0158788Y0064057D03*
X0158788Y0059332D03*
X0158788Y0054608D03*
X0158788Y0049883D03*
X0158788Y0045159D03*
D13*
X0126505Y0058939D03*
X0039891Y0094372D03*
X0108788Y0163269D03*
X0240678Y0177049D03*
X0338522Y0086651D03*
X0452695Y0204761D03*
X0539309Y0169328D03*
X0470412Y0100431D03*
X0421705Y0322739D03*
X0335091Y0358172D03*
X0403988Y0427069D03*
X0535878Y0440849D03*
X0244609Y0433728D03*
X0175712Y0364831D03*
X0157995Y0469161D03*
X0043822Y0351051D03*
D14*
X0037621Y0349772D02*
X0032109Y0349772D01*
X0032109Y0352331D02*
X0037621Y0352331D01*
X0037621Y0354890D02*
X0032109Y0354890D01*
X0039983Y0357252D02*
X0039983Y0362764D01*
X0042543Y0362764D02*
X0042543Y0357252D01*
X0045102Y0357252D02*
X0045102Y0362764D01*
X0047661Y0362764D02*
X0047661Y0357252D01*
X0050023Y0354890D02*
X0055535Y0354890D01*
X0055535Y0352331D02*
X0050023Y0352331D01*
X0050023Y0349772D02*
X0055535Y0349772D01*
X0055535Y0347213D02*
X0050023Y0347213D01*
X0047661Y0344850D02*
X0047661Y0339338D01*
X0045102Y0339338D02*
X0045102Y0344850D01*
X0042543Y0344850D02*
X0042543Y0339338D01*
X0039983Y0339338D02*
X0039983Y0344850D01*
X0037621Y0347213D02*
X0032109Y0347213D01*
X0154157Y0457449D02*
X0154157Y0462961D01*
X0156716Y0462961D02*
X0156716Y0457449D01*
X0159275Y0457449D02*
X0159275Y0462961D01*
X0161834Y0462961D02*
X0161834Y0457449D01*
X0164196Y0465323D02*
X0169708Y0465323D01*
X0169708Y0467882D02*
X0164196Y0467882D01*
X0164196Y0470441D02*
X0169708Y0470441D01*
X0169708Y0473000D02*
X0164196Y0473000D01*
X0161834Y0475362D02*
X0161834Y0480874D01*
X0159275Y0480874D02*
X0159275Y0475362D01*
X0156716Y0475362D02*
X0156716Y0480874D01*
X0154157Y0480874D02*
X0154157Y0475362D01*
X0151795Y0473000D02*
X0146283Y0473000D01*
X0146283Y0470441D02*
X0151795Y0470441D01*
X0151795Y0467882D02*
X0146283Y0467882D01*
X0146283Y0465323D02*
X0151795Y0465323D01*
X0232897Y0437567D02*
X0238409Y0437567D01*
X0238409Y0435008D02*
X0232897Y0435008D01*
X0232897Y0432449D02*
X0238409Y0432449D01*
X0238409Y0429890D02*
X0232897Y0429890D01*
X0240771Y0427528D02*
X0240771Y0422016D01*
X0243330Y0422016D02*
X0243330Y0427528D01*
X0245889Y0427528D02*
X0245889Y0422016D01*
X0248448Y0422016D02*
X0248448Y0427528D01*
X0250810Y0429890D02*
X0256322Y0429890D01*
X0256322Y0432449D02*
X0250810Y0432449D01*
X0250810Y0435008D02*
X0256322Y0435008D01*
X0256322Y0437567D02*
X0250810Y0437567D01*
X0248448Y0439929D02*
X0248448Y0445441D01*
X0245889Y0445441D02*
X0245889Y0439929D01*
X0243330Y0439929D02*
X0243330Y0445441D01*
X0240771Y0445441D02*
X0240771Y0439929D01*
X0179550Y0376543D02*
X0179550Y0371031D01*
X0176991Y0371031D02*
X0176991Y0376543D01*
X0174432Y0376543D02*
X0174432Y0371031D01*
X0171873Y0371031D02*
X0171873Y0376543D01*
X0169511Y0368669D02*
X0163999Y0368669D01*
X0163999Y0366110D02*
X0169511Y0366110D01*
X0169511Y0363551D02*
X0163999Y0363551D01*
X0163999Y0360992D02*
X0169511Y0360992D01*
X0171873Y0358630D02*
X0171873Y0353118D01*
X0174432Y0353118D02*
X0174432Y0358630D01*
X0176991Y0358630D02*
X0176991Y0353118D01*
X0179550Y0353118D02*
X0179550Y0358630D01*
X0181913Y0360992D02*
X0187425Y0360992D01*
X0187425Y0363551D02*
X0181913Y0363551D01*
X0181913Y0366110D02*
X0187425Y0366110D01*
X0187425Y0368669D02*
X0181913Y0368669D01*
X0323378Y0362010D02*
X0328890Y0362010D01*
X0328890Y0359451D02*
X0323378Y0359451D01*
X0323378Y0356892D02*
X0328890Y0356892D01*
X0328890Y0354333D02*
X0323378Y0354333D01*
X0331252Y0351971D02*
X0331252Y0346459D01*
X0333811Y0346459D02*
X0333811Y0351971D01*
X0336370Y0351971D02*
X0336370Y0346459D01*
X0338929Y0346459D02*
X0338929Y0351971D01*
X0341291Y0354333D02*
X0346803Y0354333D01*
X0346803Y0356892D02*
X0341291Y0356892D01*
X0341291Y0359451D02*
X0346803Y0359451D01*
X0346803Y0362010D02*
X0341291Y0362010D01*
X0338929Y0364372D02*
X0338929Y0369884D01*
X0336370Y0369884D02*
X0336370Y0364372D01*
X0333811Y0364372D02*
X0333811Y0369884D01*
X0331252Y0369884D02*
X0331252Y0364372D01*
X0392275Y0423231D02*
X0397787Y0423231D01*
X0397787Y0425790D02*
X0392275Y0425790D01*
X0392275Y0428349D02*
X0397787Y0428349D01*
X0397787Y0430908D02*
X0392275Y0430908D01*
X0400150Y0433270D02*
X0400150Y0438782D01*
X0402709Y0438782D02*
X0402709Y0433270D01*
X0405268Y0433270D02*
X0405268Y0438782D01*
X0407827Y0438782D02*
X0407827Y0433270D01*
X0410189Y0430908D02*
X0415701Y0430908D01*
X0415701Y0428349D02*
X0410189Y0428349D01*
X0410189Y0425790D02*
X0415701Y0425790D01*
X0415701Y0423231D02*
X0410189Y0423231D01*
X0407827Y0420869D02*
X0407827Y0415357D01*
X0405268Y0415357D02*
X0405268Y0420869D01*
X0402709Y0420869D02*
X0402709Y0415357D01*
X0400150Y0415357D02*
X0400150Y0420869D01*
X0417866Y0334451D02*
X0417866Y0328939D01*
X0420425Y0328939D02*
X0420425Y0334451D01*
X0422984Y0334451D02*
X0422984Y0328939D01*
X0425543Y0328939D02*
X0425543Y0334451D01*
X0427905Y0326577D02*
X0433417Y0326577D01*
X0433417Y0324018D02*
X0427905Y0324018D01*
X0427905Y0321459D02*
X0433417Y0321459D01*
X0433417Y0318900D02*
X0427905Y0318900D01*
X0425543Y0316538D02*
X0425543Y0311026D01*
X0422984Y0311026D02*
X0422984Y0316538D01*
X0420425Y0316538D02*
X0420425Y0311026D01*
X0417866Y0311026D02*
X0417866Y0316538D01*
X0415504Y0318900D02*
X0409992Y0318900D01*
X0409992Y0321459D02*
X0415504Y0321459D01*
X0415504Y0324018D02*
X0409992Y0324018D01*
X0409992Y0326577D02*
X0415504Y0326577D01*
X0448857Y0216474D02*
X0448857Y0210962D01*
X0451416Y0210962D02*
X0451416Y0216474D01*
X0453975Y0216474D02*
X0453975Y0210962D01*
X0456534Y0210962D02*
X0456534Y0216474D01*
X0458896Y0208600D02*
X0464408Y0208600D01*
X0464408Y0206041D02*
X0458896Y0206041D01*
X0458896Y0203482D02*
X0464408Y0203482D01*
X0464408Y0200923D02*
X0458896Y0200923D01*
X0456534Y0198561D02*
X0456534Y0193049D01*
X0453975Y0193049D02*
X0453975Y0198561D01*
X0451416Y0198561D02*
X0451416Y0193049D01*
X0448857Y0193049D02*
X0448857Y0198561D01*
X0446495Y0200923D02*
X0440983Y0200923D01*
X0440983Y0203482D02*
X0446495Y0203482D01*
X0446495Y0206041D02*
X0440983Y0206041D01*
X0440983Y0208600D02*
X0446495Y0208600D01*
X0527597Y0173167D02*
X0533109Y0173167D01*
X0533109Y0170608D02*
X0527597Y0170608D01*
X0527597Y0168049D02*
X0533109Y0168049D01*
X0533109Y0165490D02*
X0527597Y0165490D01*
X0535471Y0163128D02*
X0535471Y0157616D01*
X0538030Y0157616D02*
X0538030Y0163128D01*
X0540589Y0163128D02*
X0540589Y0157616D01*
X0543148Y0157616D02*
X0543148Y0163128D01*
X0545510Y0165490D02*
X0551022Y0165490D01*
X0551022Y0168049D02*
X0545510Y0168049D01*
X0545510Y0170608D02*
X0551022Y0170608D01*
X0551022Y0173167D02*
X0545510Y0173167D01*
X0543148Y0175529D02*
X0543148Y0181041D01*
X0540589Y0181041D02*
X0540589Y0175529D01*
X0538030Y0175529D02*
X0538030Y0181041D01*
X0535471Y0181041D02*
X0535471Y0175529D01*
X0474250Y0112143D02*
X0474250Y0106631D01*
X0471691Y0106631D02*
X0471691Y0112143D01*
X0469132Y0112143D02*
X0469132Y0106631D01*
X0466573Y0106631D02*
X0466573Y0112143D01*
X0464211Y0104269D02*
X0458699Y0104269D01*
X0458699Y0101710D02*
X0464211Y0101710D01*
X0464211Y0099151D02*
X0458699Y0099151D01*
X0458699Y0096592D02*
X0464211Y0096592D01*
X0466573Y0094230D02*
X0466573Y0088718D01*
X0469132Y0088718D02*
X0469132Y0094230D01*
X0471691Y0094230D02*
X0471691Y0088718D01*
X0474250Y0088718D02*
X0474250Y0094230D01*
X0476613Y0096592D02*
X0482125Y0096592D01*
X0482125Y0099151D02*
X0476613Y0099151D01*
X0476613Y0101710D02*
X0482125Y0101710D01*
X0482125Y0104269D02*
X0476613Y0104269D01*
X0350235Y0090490D02*
X0344723Y0090490D01*
X0344723Y0087931D02*
X0350235Y0087931D01*
X0350235Y0085372D02*
X0344723Y0085372D01*
X0344723Y0082813D02*
X0350235Y0082813D01*
X0342361Y0080450D02*
X0342361Y0074938D01*
X0339802Y0074938D02*
X0339802Y0080450D01*
X0337243Y0080450D02*
X0337243Y0074938D01*
X0334683Y0074938D02*
X0334683Y0080450D01*
X0332321Y0082813D02*
X0326809Y0082813D01*
X0326809Y0085372D02*
X0332321Y0085372D01*
X0332321Y0087931D02*
X0326809Y0087931D01*
X0326809Y0090490D02*
X0332321Y0090490D01*
X0334683Y0092852D02*
X0334683Y0098364D01*
X0337243Y0098364D02*
X0337243Y0092852D01*
X0339802Y0092852D02*
X0339802Y0098364D01*
X0342361Y0098364D02*
X0342361Y0092852D01*
X0252391Y0173210D02*
X0246879Y0173210D01*
X0246879Y0175769D02*
X0252391Y0175769D01*
X0252391Y0178328D02*
X0246879Y0178328D01*
X0246879Y0180887D02*
X0252391Y0180887D01*
X0244517Y0183250D02*
X0244517Y0188762D01*
X0241957Y0188762D02*
X0241957Y0183250D01*
X0239398Y0183250D02*
X0239398Y0188762D01*
X0236839Y0188762D02*
X0236839Y0183250D01*
X0234477Y0180887D02*
X0228965Y0180887D01*
X0228965Y0178328D02*
X0234477Y0178328D01*
X0234477Y0175769D02*
X0228965Y0175769D01*
X0228965Y0173210D02*
X0234477Y0173210D01*
X0236839Y0170848D02*
X0236839Y0165336D01*
X0239398Y0165336D02*
X0239398Y0170848D01*
X0241957Y0170848D02*
X0241957Y0165336D01*
X0244517Y0165336D02*
X0244517Y0170848D01*
X0130343Y0070651D02*
X0130343Y0065139D01*
X0127784Y0065139D02*
X0127784Y0070651D01*
X0125225Y0070651D02*
X0125225Y0065139D01*
X0122666Y0065139D02*
X0122666Y0070651D01*
X0120304Y0062777D02*
X0114792Y0062777D01*
X0114792Y0060218D02*
X0120304Y0060218D01*
X0120304Y0057659D02*
X0114792Y0057659D01*
X0114792Y0055100D02*
X0120304Y0055100D01*
X0122666Y0052738D02*
X0122666Y0047226D01*
X0125225Y0047226D02*
X0125225Y0052738D01*
X0127784Y0052738D02*
X0127784Y0047226D01*
X0130343Y0047226D02*
X0130343Y0052738D01*
X0132705Y0055100D02*
X0138217Y0055100D01*
X0138217Y0057659D02*
X0132705Y0057659D01*
X0132705Y0060218D02*
X0138217Y0060218D01*
X0138217Y0062777D02*
X0132705Y0062777D01*
X0051603Y0090533D02*
X0046091Y0090533D01*
X0046091Y0093092D02*
X0051603Y0093092D01*
X0051603Y0095651D02*
X0046091Y0095651D01*
X0046091Y0098210D02*
X0051603Y0098210D01*
X0043729Y0100572D02*
X0043729Y0106084D01*
X0041170Y0106084D02*
X0041170Y0100572D01*
X0038611Y0100572D02*
X0038611Y0106084D01*
X0036052Y0106084D02*
X0036052Y0100572D01*
X0033690Y0098210D02*
X0028178Y0098210D01*
X0028178Y0095651D02*
X0033690Y0095651D01*
X0033690Y0093092D02*
X0028178Y0093092D01*
X0028178Y0090533D02*
X0033690Y0090533D01*
X0036052Y0088171D02*
X0036052Y0082659D01*
X0038611Y0082659D02*
X0038611Y0088171D01*
X0041170Y0088171D02*
X0041170Y0082659D01*
X0043729Y0082659D02*
X0043729Y0088171D01*
X0104950Y0151557D02*
X0104950Y0157069D01*
X0107509Y0157069D02*
X0107509Y0151557D01*
X0110068Y0151557D02*
X0110068Y0157069D01*
X0112627Y0157069D02*
X0112627Y0151557D01*
X0114989Y0159431D02*
X0120501Y0159431D01*
X0120501Y0161990D02*
X0114989Y0161990D01*
X0114989Y0164549D02*
X0120501Y0164549D01*
X0120501Y0167108D02*
X0114989Y0167108D01*
X0112627Y0169470D02*
X0112627Y0174982D01*
X0110068Y0174982D02*
X0110068Y0169470D01*
X0107509Y0169470D02*
X0107509Y0174982D01*
X0104950Y0174982D02*
X0104950Y0169470D01*
X0102587Y0167108D02*
X0097075Y0167108D01*
X0097075Y0164549D02*
X0102587Y0164549D01*
X0102587Y0161990D02*
X0097075Y0161990D01*
X0097075Y0159431D02*
X0102587Y0159431D01*
X0524165Y0437010D02*
X0529677Y0437010D01*
X0529677Y0439569D02*
X0524165Y0439569D01*
X0524165Y0442128D02*
X0529677Y0442128D01*
X0529677Y0444687D02*
X0524165Y0444687D01*
X0532039Y0447050D02*
X0532039Y0452562D01*
X0534598Y0452562D02*
X0534598Y0447050D01*
X0537157Y0447050D02*
X0537157Y0452562D01*
X0539717Y0452562D02*
X0539717Y0447050D01*
X0542079Y0444687D02*
X0547591Y0444687D01*
X0547591Y0442128D02*
X0542079Y0442128D01*
X0542079Y0439569D02*
X0547591Y0439569D01*
X0547591Y0437010D02*
X0542079Y0437010D01*
X0539717Y0434648D02*
X0539717Y0429136D01*
X0537157Y0429136D02*
X0537157Y0434648D01*
X0534598Y0434648D02*
X0534598Y0429136D01*
X0532039Y0429136D02*
X0532039Y0434648D01*
D15*
X0397098Y0378841D03*
X0395130Y0378841D03*
X0393161Y0378841D03*
X0391193Y0378841D03*
X0389224Y0378841D03*
X0387256Y0378841D03*
X0385287Y0378841D03*
X0383319Y0378841D03*
X0381350Y0378841D03*
X0379382Y0378841D03*
X0377413Y0378841D03*
X0375445Y0378841D03*
X0373476Y0378841D03*
X0371508Y0378841D03*
X0369539Y0378841D03*
X0367571Y0378841D03*
X0367571Y0333565D03*
X0369539Y0333565D03*
X0371508Y0333565D03*
X0373476Y0333565D03*
X0375445Y0333565D03*
X0377413Y0333565D03*
X0379382Y0333565D03*
X0381350Y0333565D03*
X0383319Y0333565D03*
X0385287Y0333565D03*
X0387256Y0333565D03*
X0389224Y0333565D03*
X0391193Y0333565D03*
X0393161Y0333565D03*
X0395130Y0333565D03*
X0397098Y0333565D03*
X0477302Y0193935D03*
X0479270Y0193935D03*
X0481239Y0193935D03*
X0483207Y0193935D03*
X0485176Y0193935D03*
X0487144Y0193935D03*
X0489113Y0193935D03*
X0491081Y0193935D03*
X0493050Y0193935D03*
X0495018Y0193935D03*
X0496987Y0193935D03*
X0498955Y0193935D03*
X0500924Y0193935D03*
X0502892Y0193935D03*
X0504861Y0193935D03*
X0506829Y0193935D03*
X0506829Y0148659D03*
X0504861Y0148659D03*
X0502892Y0148659D03*
X0500924Y0148659D03*
X0498955Y0148659D03*
X0496987Y0148659D03*
X0495018Y0148659D03*
X0493050Y0148659D03*
X0491081Y0148659D03*
X0489113Y0148659D03*
X0487144Y0148659D03*
X0485176Y0148659D03*
X0483207Y0148659D03*
X0481239Y0148659D03*
X0479270Y0148659D03*
X0477302Y0148659D03*
X0212129Y0413059D03*
X0210161Y0413059D03*
X0208192Y0413059D03*
X0206224Y0413059D03*
X0204255Y0413059D03*
X0202287Y0413059D03*
X0200318Y0413059D03*
X0198350Y0413059D03*
X0196381Y0413059D03*
X0194413Y0413059D03*
X0192444Y0413059D03*
X0190476Y0413059D03*
X0188507Y0413059D03*
X0186539Y0413059D03*
X0184570Y0413059D03*
X0182602Y0413059D03*
X0182602Y0458335D03*
X0184570Y0458335D03*
X0186539Y0458335D03*
X0188507Y0458335D03*
X0190476Y0458335D03*
X0192444Y0458335D03*
X0194413Y0458335D03*
X0196381Y0458335D03*
X0198350Y0458335D03*
X0200318Y0458335D03*
X0202287Y0458335D03*
X0204255Y0458335D03*
X0206224Y0458335D03*
X0208192Y0458335D03*
X0210161Y0458335D03*
X0212129Y0458335D03*
X0101898Y0115041D03*
X0099930Y0115041D03*
X0097961Y0115041D03*
X0095993Y0115041D03*
X0094024Y0115041D03*
X0092056Y0115041D03*
X0090087Y0115041D03*
X0088119Y0115041D03*
X0086150Y0115041D03*
X0084182Y0115041D03*
X0082213Y0115041D03*
X0080245Y0115041D03*
X0078276Y0115041D03*
X0076308Y0115041D03*
X0074339Y0115041D03*
X0072371Y0115041D03*
X0072371Y0069765D03*
X0074339Y0069765D03*
X0076308Y0069765D03*
X0078276Y0069765D03*
X0080245Y0069765D03*
X0082213Y0069765D03*
X0084182Y0069765D03*
X0086150Y0069765D03*
X0088119Y0069765D03*
X0090087Y0069765D03*
X0092056Y0069765D03*
X0094024Y0069765D03*
X0095993Y0069765D03*
X0097961Y0069765D03*
X0099930Y0069765D03*
X0101898Y0069765D03*
D16*
X0109772Y0077639D03*
X0109772Y0079608D03*
X0109772Y0081576D03*
X0109772Y0083545D03*
X0109772Y0085513D03*
X0109772Y0087482D03*
X0109772Y0089450D03*
X0109772Y0091419D03*
X0109772Y0093387D03*
X0109772Y0095356D03*
X0109772Y0097324D03*
X0109772Y0099293D03*
X0109772Y0101261D03*
X0109772Y0103230D03*
X0109772Y0105198D03*
X0109772Y0107167D03*
X0064497Y0107167D03*
X0064497Y0105198D03*
X0064497Y0103230D03*
X0064497Y0101261D03*
X0064497Y0099293D03*
X0064497Y0097324D03*
X0064497Y0095356D03*
X0064497Y0093387D03*
X0064497Y0091419D03*
X0064497Y0089450D03*
X0064497Y0087482D03*
X0064497Y0085513D03*
X0064497Y0083545D03*
X0064497Y0081576D03*
X0064497Y0079608D03*
X0064497Y0077639D03*
X0359697Y0341439D03*
X0359697Y0343408D03*
X0359697Y0345376D03*
X0359697Y0347345D03*
X0359697Y0349313D03*
X0359697Y0351282D03*
X0359697Y0353250D03*
X0359697Y0355219D03*
X0359697Y0357187D03*
X0359697Y0359156D03*
X0359697Y0361124D03*
X0359697Y0363093D03*
X0359697Y0365061D03*
X0359697Y0367030D03*
X0359697Y0368998D03*
X0359697Y0370967D03*
X0404972Y0370967D03*
X0404972Y0368998D03*
X0404972Y0367030D03*
X0404972Y0365061D03*
X0404972Y0363093D03*
X0404972Y0361124D03*
X0404972Y0359156D03*
X0404972Y0357187D03*
X0404972Y0355219D03*
X0404972Y0353250D03*
X0404972Y0351282D03*
X0404972Y0349313D03*
X0404972Y0347345D03*
X0404972Y0345376D03*
X0404972Y0343408D03*
X0404972Y0341439D03*
X0469428Y0186061D03*
X0469428Y0184092D03*
X0469428Y0182124D03*
X0469428Y0180155D03*
X0469428Y0178187D03*
X0469428Y0176218D03*
X0469428Y0174250D03*
X0469428Y0172281D03*
X0469428Y0170313D03*
X0469428Y0168344D03*
X0469428Y0166376D03*
X0469428Y0164407D03*
X0469428Y0162439D03*
X0469428Y0160470D03*
X0469428Y0158502D03*
X0469428Y0156533D03*
X0514703Y0156533D03*
X0514703Y0158502D03*
X0514703Y0160470D03*
X0514703Y0162439D03*
X0514703Y0164407D03*
X0514703Y0166376D03*
X0514703Y0168344D03*
X0514703Y0170313D03*
X0514703Y0172281D03*
X0514703Y0174250D03*
X0514703Y0176218D03*
X0514703Y0178187D03*
X0514703Y0180155D03*
X0514703Y0182124D03*
X0514703Y0184092D03*
X0514703Y0186061D03*
X0220003Y0420933D03*
X0220003Y0422902D03*
X0220003Y0424870D03*
X0220003Y0426839D03*
X0220003Y0428807D03*
X0220003Y0430776D03*
X0220003Y0432744D03*
X0220003Y0434713D03*
X0220003Y0436681D03*
X0220003Y0438650D03*
X0220003Y0440618D03*
X0220003Y0442587D03*
X0220003Y0444555D03*
X0220003Y0446524D03*
X0220003Y0448492D03*
X0220003Y0450461D03*
X0174728Y0450461D03*
X0174728Y0448492D03*
X0174728Y0446524D03*
X0174728Y0444555D03*
X0174728Y0442587D03*
X0174728Y0440618D03*
X0174728Y0438650D03*
X0174728Y0436681D03*
X0174728Y0434713D03*
X0174728Y0432744D03*
X0174728Y0430776D03*
X0174728Y0428807D03*
X0174728Y0426839D03*
X0174728Y0424870D03*
X0174728Y0422902D03*
X0174728Y0420933D03*
D17*
X0195397Y0398886D03*
X0195397Y0393768D03*
X0203271Y0393768D03*
X0203271Y0398886D03*
X0211145Y0398886D03*
X0211145Y0393768D03*
X0219019Y0393768D03*
X0219019Y0398886D03*
X0228861Y0386343D03*
X0228861Y0381225D03*
X0236935Y0389994D03*
X0236935Y0395112D03*
X0230830Y0417390D03*
X0230830Y0422508D03*
X0230830Y0444949D03*
X0230830Y0450067D03*
X0137600Y0359859D03*
X0137600Y0354741D03*
X0146900Y0173359D03*
X0146900Y0168241D03*
X0089103Y0134332D03*
X0089103Y0129214D03*
X0081229Y0129214D03*
X0081229Y0134332D03*
X0073355Y0134332D03*
X0073355Y0129214D03*
X0065481Y0129214D03*
X0065481Y0134332D03*
X0055639Y0141757D03*
X0055639Y0146875D03*
X0047565Y0138106D03*
X0047565Y0132988D03*
X0053670Y0110710D03*
X0053670Y0105592D03*
X0053670Y0083151D03*
X0053670Y0078033D03*
X0348870Y0341833D03*
X0348870Y0346951D03*
X0348870Y0369392D03*
X0348870Y0374510D03*
X0360681Y0393014D03*
X0360681Y0398132D03*
X0368555Y0398132D03*
X0368555Y0393014D03*
X0376429Y0393014D03*
X0376429Y0398132D03*
X0384303Y0398132D03*
X0384303Y0393014D03*
X0350839Y0405557D03*
X0350839Y0410675D03*
X0342765Y0401906D03*
X0342765Y0396788D03*
X0442100Y0432041D03*
X0442100Y0437159D03*
X0525530Y0185667D03*
X0525530Y0180549D03*
X0525530Y0158108D03*
X0525530Y0152990D03*
X0513719Y0134486D03*
X0513719Y0129368D03*
X0505845Y0129368D03*
X0505845Y0134486D03*
X0497971Y0134486D03*
X0497971Y0129368D03*
X0490097Y0129368D03*
X0490097Y0134486D03*
X0523561Y0121943D03*
X0523561Y0116825D03*
X0531635Y0125594D03*
X0531635Y0130712D03*
X0432300Y0095459D03*
X0432300Y0090341D03*
D18*
X0044654Y0028600D03*
X0051346Y0028600D03*
X0080450Y0042154D03*
X0088400Y0042154D03*
X0088400Y0048846D03*
X0080450Y0048846D03*
X0107247Y0033248D03*
X0113940Y0033248D03*
X0119133Y0033264D03*
X0125826Y0033264D03*
X0223989Y0153558D03*
X0230682Y0153558D03*
X0235864Y0153578D03*
X0242557Y0153578D03*
X0336643Y0110122D03*
X0343336Y0110122D03*
X0348518Y0110142D03*
X0355211Y0110142D03*
X0453374Y0230436D03*
X0460067Y0230436D03*
X0465260Y0230452D03*
X0471953Y0230452D03*
X0490800Y0221546D03*
X0490800Y0214854D03*
X0498750Y0214854D03*
X0498750Y0221546D03*
X0527854Y0235100D03*
X0534546Y0235100D03*
X0421026Y0297064D03*
X0414333Y0297064D03*
X0409140Y0297048D03*
X0402447Y0297048D03*
X0383600Y0305954D03*
X0383600Y0312646D03*
X0375650Y0312646D03*
X0375650Y0305954D03*
X0346546Y0292400D03*
X0339854Y0292400D03*
X0519189Y0417358D03*
X0525882Y0417358D03*
X0531064Y0417378D03*
X0537757Y0417378D03*
X0239846Y0499500D03*
X0233154Y0499500D03*
X0204050Y0485946D03*
X0196100Y0485946D03*
X0196100Y0479254D03*
X0204050Y0479254D03*
X0177253Y0494852D03*
X0170560Y0494852D03*
X0165367Y0494836D03*
X0158674Y0494836D03*
X0060511Y0374542D03*
X0053818Y0374542D03*
X0048636Y0374522D03*
X0041943Y0374522D03*
D19*
X0035348Y0373164D03*
X0035348Y0379857D03*
G36*
X0135695Y0414678D02*
X0132346Y0418027D01*
X0135973Y0421654D01*
X0139322Y0418305D01*
X0135695Y0414678D01*
G37*
G36*
X0140427Y0409946D02*
X0137078Y0413295D01*
X0140705Y0416922D01*
X0144054Y0413573D01*
X0140427Y0409946D01*
G37*
G36*
X0146246Y0414673D02*
X0149595Y0418022D01*
X0153222Y0414395D01*
X0149873Y0411046D01*
X0146246Y0414673D01*
G37*
G36*
X0138861Y0421805D02*
X0140863Y0426097D01*
X0145511Y0423929D01*
X0143509Y0419637D01*
X0138861Y0421805D01*
G37*
G36*
X0141689Y0427871D02*
X0143691Y0432163D01*
X0148339Y0429995D01*
X0146337Y0425703D01*
X0141689Y0427871D01*
G37*
G36*
X0150978Y0419405D02*
X0154327Y0422754D01*
X0157954Y0419127D01*
X0154605Y0415778D01*
X0150978Y0419405D01*
G37*
X0150121Y0382120D03*
X0150121Y0375427D03*
X0150131Y0370194D03*
X0150131Y0363501D03*
X0150107Y0358344D03*
X0150107Y0351651D03*
X0213704Y0384516D03*
X0220397Y0384516D03*
X0243800Y0485754D03*
X0243800Y0492446D03*
X0152090Y0493374D03*
X0152090Y0500067D03*
X0359303Y0407384D03*
X0365996Y0407384D03*
G36*
X0428722Y0372495D02*
X0425373Y0369146D01*
X0421746Y0372773D01*
X0425095Y0376122D01*
X0428722Y0372495D01*
G37*
G36*
X0433454Y0377227D02*
X0430105Y0373878D01*
X0426478Y0377505D01*
X0429827Y0380854D01*
X0433454Y0377227D01*
G37*
G36*
X0439273Y0381954D02*
X0442622Y0378605D01*
X0438995Y0374978D01*
X0435646Y0378327D01*
X0439273Y0381954D01*
G37*
G36*
X0444005Y0377222D02*
X0447354Y0373873D01*
X0443727Y0370246D01*
X0440378Y0373595D01*
X0444005Y0377222D01*
G37*
G36*
X0440839Y0370095D02*
X0438837Y0365803D01*
X0434189Y0367971D01*
X0436191Y0372263D01*
X0440839Y0370095D01*
G37*
G36*
X0438011Y0364029D02*
X0436009Y0359737D01*
X0431361Y0361905D01*
X0433363Y0366197D01*
X0438011Y0364029D01*
G37*
X0429579Y0409780D03*
X0429579Y0416473D03*
X0429569Y0421706D03*
X0429569Y0428399D03*
X0429593Y0433556D03*
X0429593Y0440249D03*
X0544352Y0418736D03*
X0544352Y0412043D03*
X0427610Y0298526D03*
X0427610Y0291833D03*
X0446790Y0235667D03*
X0446790Y0228974D03*
G36*
X0436389Y0163471D02*
X0438391Y0167763D01*
X0443039Y0165595D01*
X0441037Y0161303D01*
X0436389Y0163471D01*
G37*
G36*
X0433561Y0157405D02*
X0435563Y0161697D01*
X0440211Y0159529D01*
X0438209Y0155237D01*
X0433561Y0157405D01*
G37*
G36*
X0430395Y0150278D02*
X0427046Y0153627D01*
X0430673Y0157254D01*
X0434022Y0153905D01*
X0430395Y0150278D01*
G37*
G36*
X0435127Y0145546D02*
X0431778Y0148895D01*
X0435405Y0152522D01*
X0438754Y0149173D01*
X0435127Y0145546D01*
G37*
G36*
X0440946Y0150273D02*
X0444295Y0153622D01*
X0447922Y0149995D01*
X0444573Y0146646D01*
X0440946Y0150273D01*
G37*
G36*
X0445678Y0155005D02*
X0449027Y0158354D01*
X0452654Y0154727D01*
X0449305Y0151378D01*
X0445678Y0155005D01*
G37*
X0444821Y0117720D03*
X0444821Y0111027D03*
X0444831Y0105794D03*
X0444831Y0099101D03*
X0444807Y0093944D03*
X0444807Y0087251D03*
X0508404Y0120116D03*
X0515097Y0120116D03*
X0538500Y0221354D03*
X0538500Y0228046D03*
X0335900Y0299454D03*
X0335900Y0306146D03*
X0249152Y0154936D03*
X0249152Y0148243D03*
X0330048Y0115457D03*
X0330048Y0108764D03*
G36*
X0148805Y0113422D02*
X0152154Y0110073D01*
X0148527Y0106446D01*
X0145178Y0109795D01*
X0148805Y0113422D01*
G37*
G36*
X0144073Y0118154D02*
X0147422Y0114805D01*
X0143795Y0111178D01*
X0140446Y0114527D01*
X0144073Y0118154D01*
G37*
G36*
X0138254Y0113427D02*
X0134905Y0110078D01*
X0131278Y0113705D01*
X0134627Y0117054D01*
X0138254Y0113427D01*
G37*
G36*
X0145639Y0106295D02*
X0143637Y0102003D01*
X0138989Y0104171D01*
X0140991Y0108463D01*
X0145639Y0106295D01*
G37*
G36*
X0142811Y0100229D02*
X0140809Y0095937D01*
X0136161Y0098105D01*
X0138163Y0102397D01*
X0142811Y0100229D01*
G37*
G36*
X0133522Y0108695D02*
X0130173Y0105346D01*
X0126546Y0108973D01*
X0129895Y0112322D01*
X0133522Y0108695D01*
G37*
X0134379Y0145980D03*
X0134379Y0152673D03*
X0134369Y0157906D03*
X0134369Y0164599D03*
X0134393Y0169756D03*
X0134393Y0176449D03*
X0070796Y0143584D03*
X0064103Y0143584D03*
X0040700Y0042346D03*
X0040700Y0035654D03*
X0132410Y0034726D03*
X0132410Y0028033D03*
D20*
X0060757Y0056576D03*
X0054457Y0056576D03*
X0054457Y0065238D03*
X0060757Y0065238D03*
X0349657Y0320376D03*
X0355957Y0320376D03*
X0355957Y0329038D03*
X0349657Y0329038D03*
X0230043Y0462862D03*
X0223743Y0462862D03*
X0223743Y0471524D03*
X0230043Y0471524D03*
X0518443Y0207124D03*
X0524743Y0207124D03*
X0524743Y0198462D03*
X0518443Y0198462D03*
D21*
G36*
X0549185Y0114273D02*
X0549288Y0111902D01*
X0543181Y0111635D01*
X0543078Y0114006D01*
X0549185Y0114273D01*
G37*
G36*
X0549297Y0111717D02*
X0549400Y0109346D01*
X0543293Y0109079D01*
X0543190Y0111450D01*
X0549297Y0111717D01*
G37*
G36*
X0549408Y0109160D02*
X0549511Y0106789D01*
X0543404Y0106522D01*
X0543301Y0108893D01*
X0549408Y0109160D01*
G37*
G36*
X0549520Y0106603D02*
X0549623Y0104232D01*
X0543516Y0103965D01*
X0543413Y0106336D01*
X0549520Y0106603D01*
G37*
G36*
X0549631Y0104047D02*
X0549734Y0101676D01*
X0543627Y0101409D01*
X0543524Y0103780D01*
X0549631Y0104047D01*
G37*
G36*
X0254931Y0368447D02*
X0255034Y0366076D01*
X0248927Y0365809D01*
X0248824Y0368180D01*
X0254931Y0368447D01*
G37*
G36*
X0254820Y0371003D02*
X0254923Y0368632D01*
X0248816Y0368365D01*
X0248713Y0370736D01*
X0254820Y0371003D01*
G37*
G36*
X0254708Y0373560D02*
X0254811Y0371189D01*
X0248704Y0370922D01*
X0248601Y0373293D01*
X0254708Y0373560D01*
G37*
G36*
X0254597Y0376117D02*
X0254700Y0373746D01*
X0248593Y0373479D01*
X0248490Y0375850D01*
X0254597Y0376117D01*
G37*
G36*
X0254485Y0378673D02*
X0254588Y0376302D01*
X0248481Y0376035D01*
X0248378Y0378406D01*
X0254485Y0378673D01*
G37*
G36*
X0325215Y0413227D02*
X0325112Y0415598D01*
X0331219Y0415865D01*
X0331322Y0413494D01*
X0325215Y0413227D01*
G37*
G36*
X0325103Y0415783D02*
X0325000Y0418154D01*
X0331107Y0418421D01*
X0331210Y0416050D01*
X0325103Y0415783D01*
G37*
G36*
X0324992Y0418340D02*
X0324889Y0420711D01*
X0330996Y0420978D01*
X0331099Y0418607D01*
X0324992Y0418340D01*
G37*
G36*
X0324880Y0420897D02*
X0324777Y0423268D01*
X0330884Y0423535D01*
X0330987Y0421164D01*
X0324880Y0420897D01*
G37*
G36*
X0324769Y0423453D02*
X0324666Y0425824D01*
X0330773Y0426091D01*
X0330876Y0423720D01*
X0324769Y0423453D01*
G37*
G36*
X0029569Y0159653D02*
X0029466Y0162024D01*
X0035573Y0162291D01*
X0035676Y0159920D01*
X0029569Y0159653D01*
G37*
G36*
X0029680Y0157097D02*
X0029577Y0159468D01*
X0035684Y0159735D01*
X0035787Y0157364D01*
X0029680Y0157097D01*
G37*
G36*
X0029792Y0154540D02*
X0029689Y0156911D01*
X0035796Y0157178D01*
X0035899Y0154807D01*
X0029792Y0154540D01*
G37*
G36*
X0029903Y0151983D02*
X0029800Y0154354D01*
X0035907Y0154621D01*
X0036010Y0152250D01*
X0029903Y0151983D01*
G37*
G36*
X0030015Y0149427D02*
X0029912Y0151798D01*
X0036019Y0152065D01*
X0036122Y0149694D01*
X0030015Y0149427D01*
G37*
D22*
X0033223Y0146026D03*
X0032364Y0165692D03*
X0252135Y0362408D03*
X0251277Y0382074D03*
X0328423Y0409826D03*
X0327564Y0429492D03*
X0545977Y0117674D03*
X0546835Y0098008D03*
D23*
X0557627Y0094538D03*
X0556425Y0122071D03*
X0262927Y0358938D03*
X0261725Y0386471D03*
X0317975Y0405429D03*
X0316773Y0432962D03*
X0021573Y0169162D03*
X0022775Y0141629D03*
D24*
X0033900Y0116100D03*
X0041859Y0116100D03*
X0047565Y0151195D03*
X0047939Y0158532D03*
X0102800Y0143300D03*
X0109100Y0056700D03*
X0213000Y0178200D03*
X0366200Y0085500D03*
X0476400Y0120400D03*
X0531635Y0112505D03*
X0531261Y0105168D03*
X0537341Y0147600D03*
X0545300Y0147600D03*
X0470100Y0207000D03*
X0404300Y0320500D03*
X0337059Y0379900D03*
X0329100Y0379900D03*
X0342765Y0414995D03*
X0343139Y0422332D03*
X0398000Y0407100D03*
X0508200Y0442000D03*
X0250600Y0412000D03*
X0242641Y0412000D03*
X0236935Y0376905D03*
X0236561Y0369568D03*
X0181700Y0384800D03*
X0175400Y0471400D03*
X0071500Y0349900D03*
D25*
X0105417Y0350831D03*
X0105417Y0348272D03*
X0105417Y0353390D03*
X0105417Y0355949D03*
X0105417Y0358508D03*
X0105417Y0361067D03*
X0105417Y0363626D03*
X0105417Y0366185D03*
X0128448Y0366185D03*
X0128448Y0363626D03*
X0128448Y0361067D03*
X0128448Y0358508D03*
X0128448Y0355949D03*
X0128448Y0353390D03*
X0128448Y0350831D03*
X0128448Y0348272D03*
X0156052Y0179828D03*
X0156052Y0177269D03*
X0156052Y0174710D03*
X0156052Y0172151D03*
X0156052Y0169592D03*
X0156052Y0167033D03*
X0156052Y0164474D03*
X0156052Y0161915D03*
X0179083Y0161915D03*
X0179083Y0164474D03*
X0179083Y0167033D03*
X0179083Y0169592D03*
X0179083Y0172151D03*
X0179083Y0174710D03*
X0179083Y0177269D03*
X0179083Y0179828D03*
X0400117Y0101785D03*
X0400117Y0099226D03*
X0400117Y0096667D03*
X0400117Y0094108D03*
X0400117Y0091549D03*
X0400117Y0088990D03*
X0400117Y0086431D03*
X0400117Y0083872D03*
X0423148Y0083872D03*
X0423148Y0086431D03*
X0423148Y0088990D03*
X0423148Y0091549D03*
X0423148Y0094108D03*
X0423148Y0096667D03*
X0423148Y0099226D03*
X0423148Y0101785D03*
X0451252Y0425715D03*
X0451252Y0428274D03*
X0451252Y0430833D03*
X0451252Y0433392D03*
X0451252Y0435951D03*
X0451252Y0438510D03*
X0451252Y0441069D03*
X0451252Y0443628D03*
X0474283Y0443628D03*
X0474283Y0441069D03*
X0474283Y0438510D03*
X0474283Y0435951D03*
X0474283Y0433392D03*
X0474283Y0430833D03*
X0474283Y0428274D03*
X0474283Y0425715D03*
D26*
X0398673Y0391636D03*
X0393555Y0391636D03*
X0396208Y0325846D03*
X0401326Y0325846D03*
X0473074Y0201654D03*
X0478192Y0201654D03*
X0475727Y0135864D03*
X0480845Y0135864D03*
X0186145Y0400264D03*
X0181027Y0400264D03*
X0183492Y0466054D03*
X0178374Y0466054D03*
X0103473Y0127836D03*
X0098355Y0127836D03*
X0101008Y0062046D03*
X0106126Y0062046D03*
D27*
X0194400Y0166200D03*
X0194400Y0173700D03*
X0194400Y0181200D03*
X0201900Y0181200D03*
X0201900Y0173700D03*
X0201900Y0166200D03*
X0204400Y0214100D03*
X0204400Y0221600D03*
X0151100Y0221700D03*
X0143600Y0221700D03*
X0143600Y0214200D03*
X0143600Y0206700D03*
X0151100Y0206700D03*
X0151100Y0214200D03*
X0140900Y0306400D03*
X0140900Y0313900D03*
X0140900Y0321400D03*
X0133400Y0321400D03*
X0133400Y0313900D03*
X0133400Y0306400D03*
X0090100Y0346900D03*
X0082600Y0346900D03*
X0082600Y0354400D03*
X0082600Y0361900D03*
X0090100Y0361900D03*
X0090100Y0354400D03*
X0080100Y0314000D03*
X0080100Y0306500D03*
X0025500Y0304600D03*
X0025500Y0312100D03*
X0025500Y0319600D03*
X0025500Y0327100D03*
X0259000Y0223500D03*
X0259000Y0216000D03*
X0259000Y0208500D03*
X0259000Y0201000D03*
X0377300Y0097500D03*
X0377300Y0090000D03*
X0377300Y0082500D03*
X0384800Y0082500D03*
X0384800Y0090000D03*
X0384800Y0097500D03*
X0428100Y0057000D03*
X0428100Y0049500D03*
X0428100Y0042000D03*
X0435600Y0042000D03*
X0435600Y0049500D03*
X0435600Y0057000D03*
X0374800Y0049600D03*
X0374800Y0042100D03*
X0320200Y0040200D03*
X0320200Y0047700D03*
X0320200Y0055200D03*
X0320200Y0062700D03*
X0489600Y0430000D03*
X0497100Y0430000D03*
X0497100Y0437500D03*
X0497100Y0445000D03*
X0489600Y0445000D03*
X0489600Y0437500D03*
X0499600Y0477900D03*
X0499600Y0485400D03*
X0446300Y0485500D03*
X0446300Y0478000D03*
X0446300Y0470500D03*
X0438800Y0470500D03*
X0438800Y0478000D03*
X0438800Y0485500D03*
X0554200Y0487300D03*
X0554200Y0479800D03*
X0554200Y0472300D03*
X0554200Y0464800D03*
D28*
X0446300Y0452800D03*
X0436300Y0452800D03*
X0323225Y0344597D03*
X0323574Y0334603D03*
X0369200Y0291200D03*
X0379200Y0291200D03*
X0495200Y0236300D03*
X0505200Y0236300D03*
X0550825Y0192897D03*
X0551174Y0182903D03*
X0438100Y0074700D03*
X0428100Y0074700D03*
X0151100Y0189000D03*
X0141100Y0189000D03*
X0028025Y0080797D03*
X0028374Y0070803D03*
X0074000Y0027400D03*
X0084000Y0027400D03*
X0133400Y0339100D03*
X0143400Y0339100D03*
X0256474Y0447303D03*
X0256125Y0457297D03*
X0210500Y0500700D03*
X0200500Y0500700D03*
D29*
X0191300Y0499050D03*
X0186750Y0496800D03*
X0183900Y0492850D03*
X0191100Y0493700D03*
X0186900Y0502100D03*
X0181400Y0500250D03*
X0173450Y0501150D03*
X0167550Y0501300D03*
X0160800Y0503050D03*
X0152950Y0504900D03*
X0149900Y0481100D03*
X0145200Y0481450D03*
X0123350Y0491700D03*
X0132300Y0458600D03*
X0130600Y0454900D03*
X0136600Y0453100D03*
X0145900Y0456100D03*
X0165000Y0457500D03*
X0174050Y0454900D03*
X0178700Y0453600D03*
X0192850Y0452250D03*
X0202900Y0444300D03*
X0206300Y0450300D03*
X0210200Y0452800D03*
X0210037Y0446483D03*
X0211700Y0434800D03*
X0214156Y0431644D03*
X0204600Y0433500D03*
X0205700Y0421500D03*
X0208900Y0418500D03*
X0200800Y0421400D03*
X0196100Y0419800D03*
X0187500Y0418900D03*
X0191700Y0407700D03*
X0196100Y0405500D03*
X0202300Y0407200D03*
X0218200Y0405500D03*
X0226000Y0420800D03*
X0236600Y0425600D03*
X0226400Y0433100D03*
X0229400Y0438800D03*
X0236300Y0442700D03*
X0236850Y0448100D03*
X0241350Y0455650D03*
X0249050Y0450700D03*
X0259400Y0429800D03*
X0235800Y0406200D03*
X0244800Y0395100D03*
X0260100Y0376400D03*
X0234500Y0355150D03*
X0225500Y0361100D03*
X0220900Y0369100D03*
X0215850Y0360050D03*
X0208400Y0384500D03*
X0199400Y0389300D03*
X0187500Y0394900D03*
X0178400Y0405000D03*
X0185500Y0406300D03*
X0166150Y0399100D03*
X0143500Y0393650D03*
X0143350Y0388200D03*
X0128500Y0391900D03*
X0128350Y0384250D03*
X0119100Y0388400D03*
X0097850Y0377200D03*
X0093150Y0374750D03*
X0091800Y0379500D03*
X0087850Y0374800D03*
X0090700Y0369600D03*
X0096850Y0370800D03*
X0110500Y0348300D03*
X0113900Y0345000D03*
X0115700Y0341100D03*
X0123400Y0348300D03*
X0102200Y0332300D03*
X0121400Y0320750D03*
X0128500Y0318500D03*
X0165000Y0335400D03*
X0170600Y0335600D03*
X0176600Y0335300D03*
X0183050Y0331200D03*
X0164350Y0350750D03*
X0160200Y0350600D03*
X0154400Y0353850D03*
X0189100Y0354500D03*
X0191400Y0370500D03*
X0145700Y0410500D03*
X0135300Y0410100D03*
X0118800Y0407000D03*
X0133400Y0434700D03*
X0147700Y0423000D03*
X0160600Y0422300D03*
X0161600Y0426100D03*
X0162600Y0429900D03*
X0184000Y0437800D03*
X0193400Y0466100D03*
X0196400Y0470600D03*
X0199300Y0463900D03*
X0205500Y0469400D03*
X0209900Y0470300D03*
X0211400Y0477400D03*
X0215500Y0475100D03*
X0180900Y0470950D03*
X0122900Y0454700D03*
X0064500Y0392500D03*
X0060550Y0387750D03*
X0057700Y0383650D03*
X0054250Y0388800D03*
X0065950Y0386400D03*
X0063600Y0368200D03*
X0064100Y0364100D03*
X0040450Y0367450D03*
X0029200Y0364400D03*
X0028100Y0369550D03*
X0036500Y0340200D03*
X0052000Y0339300D03*
X0056000Y0328700D03*
X0051500Y0327600D03*
X0061046Y0328500D03*
X0069300Y0322650D03*
X0156000Y0209600D03*
X0163100Y0207350D03*
X0182300Y0195800D03*
X0168800Y0187000D03*
X0170600Y0183100D03*
X0174000Y0179800D03*
X0161100Y0179800D03*
X0187650Y0157300D03*
X0191350Y0153350D03*
X0192700Y0148600D03*
X0196650Y0153300D03*
X0193800Y0158500D03*
X0186650Y0150900D03*
X0165400Y0139700D03*
X0156000Y0136200D03*
X0156150Y0143850D03*
X0141150Y0139900D03*
X0141000Y0134450D03*
X0138800Y0117600D03*
X0149200Y0118000D03*
X0165700Y0121100D03*
X0151100Y0093400D03*
X0136800Y0105100D03*
X0123900Y0105800D03*
X0122900Y0102000D03*
X0121900Y0098200D03*
X0100500Y0090300D03*
X0105800Y0074500D03*
X0110450Y0073200D03*
X0119500Y0070600D03*
X0103600Y0057150D03*
X0091100Y0062000D03*
X0088100Y0057500D03*
X0085200Y0064200D03*
X0079000Y0058700D03*
X0074600Y0057800D03*
X0073100Y0050700D03*
X0069000Y0053000D03*
X0074300Y0075300D03*
X0078200Y0077800D03*
X0074463Y0081617D03*
X0081600Y0083800D03*
X0079900Y0094600D03*
X0072800Y0093300D03*
X0070344Y0096456D03*
X0058100Y0095000D03*
X0055100Y0089300D03*
X0048200Y0085400D03*
X0047650Y0080000D03*
X0043150Y0072450D03*
X0035450Y0077400D03*
X0025100Y0098300D03*
X0047900Y0102500D03*
X0058500Y0107300D03*
X0066300Y0122600D03*
X0075600Y0109600D03*
X0078800Y0106600D03*
X0083700Y0106700D03*
X0088400Y0108300D03*
X0097000Y0109200D03*
X0092800Y0120400D03*
X0088400Y0122600D03*
X0082200Y0120900D03*
X0099000Y0121800D03*
X0106100Y0123100D03*
X0097000Y0133200D03*
X0085100Y0138800D03*
X0076100Y0143600D03*
X0063600Y0159000D03*
X0059000Y0167000D03*
X0068650Y0168050D03*
X0050000Y0172950D03*
X0024400Y0151700D03*
X0039700Y0133000D03*
X0048700Y0121900D03*
X0093100Y0157600D03*
X0095400Y0173600D03*
X0107900Y0192800D03*
X0113900Y0192500D03*
X0119500Y0192700D03*
X0120150Y0177350D03*
X0124300Y0177500D03*
X0130100Y0174250D03*
X0101450Y0196900D03*
X0118350Y0129000D03*
X0091650Y0075850D03*
X0134600Y0047000D03*
X0139300Y0046650D03*
X0161150Y0036400D03*
X0131550Y0023200D03*
X0123700Y0025050D03*
X0116950Y0026800D03*
X0111050Y0026950D03*
X0103100Y0027850D03*
X0097600Y0026000D03*
X0097750Y0031300D03*
X0100600Y0035250D03*
X0093400Y0034400D03*
X0093200Y0029050D03*
X0138600Y0072000D03*
X0147900Y0075000D03*
X0153900Y0073200D03*
X0152200Y0069500D03*
X0161600Y0073400D03*
X0220000Y0135600D03*
X0223950Y0140350D03*
X0226800Y0144450D03*
X0230250Y0139300D03*
X0218550Y0141700D03*
X0220900Y0159900D03*
X0220400Y0164000D03*
X0244050Y0160650D03*
X0255300Y0163700D03*
X0256400Y0158550D03*
X0248000Y0187900D03*
X0232500Y0188800D03*
X0228500Y0199400D03*
X0233000Y0200500D03*
X0223454Y0199600D03*
X0215200Y0205450D03*
X0322800Y0105150D03*
X0323900Y0100000D03*
X0335150Y0103050D03*
X0352400Y0119250D03*
X0355250Y0123350D03*
X0360650Y0122000D03*
X0359200Y0128100D03*
X0348950Y0124400D03*
X0358300Y0103800D03*
X0358800Y0099700D03*
X0382550Y0110400D03*
X0387850Y0110350D03*
X0386500Y0115100D03*
X0392550Y0112800D03*
X0391550Y0106400D03*
X0385400Y0105200D03*
X0405200Y0083900D03*
X0408600Y0080600D03*
X0410400Y0076700D03*
X0418100Y0083900D03*
X0396900Y0067900D03*
X0416100Y0056350D03*
X0423200Y0054100D03*
X0449100Y0089450D03*
X0454900Y0086200D03*
X0459050Y0086350D03*
X0459700Y0071000D03*
X0465300Y0071200D03*
X0471300Y0070900D03*
X0477750Y0066800D03*
X0483800Y0090100D03*
X0486100Y0106100D03*
X0494100Y0124900D03*
X0503100Y0120100D03*
X0515600Y0104700D03*
X0520200Y0096700D03*
X0510550Y0095650D03*
X0529200Y0090750D03*
X0554800Y0112000D03*
X0539500Y0130700D03*
X0530500Y0141800D03*
X0520700Y0156400D03*
X0531300Y0161200D03*
X0521100Y0168700D03*
X0524100Y0174400D03*
X0531000Y0178300D03*
X0531550Y0183700D03*
X0536050Y0191250D03*
X0543750Y0186300D03*
X0554100Y0165400D03*
X0512900Y0141100D03*
X0503600Y0154100D03*
X0500400Y0157100D03*
X0495500Y0157000D03*
X0490800Y0155400D03*
X0482200Y0154500D03*
X0486400Y0143300D03*
X0490800Y0141100D03*
X0497000Y0142800D03*
X0480200Y0141900D03*
X0473100Y0140600D03*
X0482200Y0130500D03*
X0460850Y0134700D03*
X0438200Y0129250D03*
X0438050Y0123800D03*
X0423200Y0127500D03*
X0413800Y0124000D03*
X0423050Y0119850D03*
X0413500Y0142600D03*
X0430000Y0145700D03*
X0440400Y0146100D03*
X0442400Y0158600D03*
X0455300Y0157900D03*
X0456300Y0161700D03*
X0457300Y0165500D03*
X0478700Y0173400D03*
X0473400Y0189200D03*
X0468750Y0190500D03*
X0459700Y0193100D03*
X0440600Y0191700D03*
X0431300Y0188700D03*
X0425300Y0190500D03*
X0427000Y0194200D03*
X0417600Y0190300D03*
X0428100Y0170300D03*
X0439900Y0217050D03*
X0444600Y0216700D03*
X0462250Y0236900D03*
X0468150Y0236750D03*
X0476100Y0235850D03*
X0481600Y0237700D03*
X0481450Y0232400D03*
X0478600Y0228450D03*
X0485800Y0229300D03*
X0486000Y0234650D03*
X0506100Y0213000D03*
X0510200Y0210700D03*
X0504600Y0205900D03*
X0500200Y0205000D03*
X0494000Y0199500D03*
X0488100Y0201700D03*
X0491100Y0206200D03*
X0475600Y0206550D03*
X0487550Y0187850D03*
X0497600Y0179900D03*
X0501000Y0185900D03*
X0504900Y0188400D03*
X0504737Y0182083D03*
X0506400Y0170400D03*
X0508856Y0167244D03*
X0499300Y0169100D03*
X0455500Y0238650D03*
X0447650Y0240500D03*
X0418050Y0227300D03*
X0426750Y0287000D03*
X0418900Y0288850D03*
X0412150Y0290600D03*
X0406250Y0290750D03*
X0398300Y0291650D03*
X0392800Y0289800D03*
X0392950Y0295100D03*
X0395800Y0299050D03*
X0388600Y0298200D03*
X0388400Y0292850D03*
X0368300Y0314500D03*
X0364200Y0316800D03*
X0369800Y0321600D03*
X0374200Y0322500D03*
X0380400Y0328000D03*
X0386300Y0325800D03*
X0383300Y0321300D03*
X0398800Y0320950D03*
X0405650Y0337000D03*
X0401000Y0338300D03*
X0414700Y0334400D03*
X0433800Y0335800D03*
X0443100Y0338800D03*
X0449100Y0337000D03*
X0447400Y0333300D03*
X0456800Y0337200D03*
X0446300Y0357200D03*
X0432000Y0368900D03*
X0434000Y0381400D03*
X0444400Y0381800D03*
X0460900Y0384900D03*
X0451200Y0400000D03*
X0451350Y0407650D03*
X0460600Y0403500D03*
X0481850Y0414700D03*
X0486550Y0417150D03*
X0487900Y0412400D03*
X0491850Y0417100D03*
X0489000Y0422300D03*
X0482850Y0421100D03*
X0469200Y0443600D03*
X0465800Y0446900D03*
X0464000Y0450800D03*
X0456300Y0443600D03*
X0477500Y0459600D03*
X0458300Y0471150D03*
X0451200Y0473400D03*
X0414700Y0456500D03*
X0409100Y0456300D03*
X0403100Y0456600D03*
X0396650Y0460700D03*
X0415350Y0441150D03*
X0419500Y0441300D03*
X0425300Y0438050D03*
X0390600Y0437400D03*
X0388300Y0421400D03*
X0380300Y0402600D03*
X0371300Y0407400D03*
X0358800Y0422800D03*
X0354200Y0430800D03*
X0345200Y0436750D03*
X0363850Y0431850D03*
X0392200Y0397000D03*
X0394200Y0385600D03*
X0388000Y0384200D03*
X0383600Y0386400D03*
X0377400Y0384700D03*
X0370800Y0373400D03*
X0374000Y0370400D03*
X0378900Y0370500D03*
X0383600Y0372100D03*
X0392200Y0373000D03*
X0401300Y0386900D03*
X0413550Y0392800D03*
X0436200Y0398250D03*
X0436350Y0403700D03*
X0419100Y0369600D03*
X0418100Y0365800D03*
X0417100Y0362000D03*
X0395700Y0354100D03*
X0386850Y0339650D03*
X0376800Y0347600D03*
X0373400Y0341600D03*
X0369500Y0339100D03*
X0369663Y0345417D03*
X0368000Y0357100D03*
X0365544Y0360256D03*
X0375100Y0358400D03*
X0353300Y0358800D03*
X0350300Y0353100D03*
X0343400Y0349200D03*
X0342850Y0343800D03*
X0338350Y0336250D03*
X0330650Y0341200D03*
X0320300Y0362100D03*
X0343100Y0366300D03*
X0353700Y0371100D03*
X0361500Y0386400D03*
X0343900Y0385700D03*
X0334900Y0396800D03*
X0319600Y0415500D03*
X0429800Y0310800D03*
X0434500Y0310450D03*
X0456350Y0300200D03*
X0515200Y0399400D03*
X0519150Y0404150D03*
X0522000Y0408250D03*
X0525450Y0403100D03*
X0513750Y0405500D03*
X0516100Y0423700D03*
X0515600Y0427800D03*
X0539250Y0424450D03*
X0550500Y0427500D03*
X0551600Y0422350D03*
X0543200Y0451700D03*
X0527700Y0452600D03*
X0523700Y0463200D03*
X0528200Y0464300D03*
X0518654Y0463400D03*
X0510400Y0469250D03*
X0346700Y0074900D03*
X0350700Y0064300D03*
X0346200Y0063200D03*
X0355746Y0064100D03*
X0364000Y0058250D03*
X0331200Y0075800D03*
D30*
X0336550Y0084650D03*
X0340500Y0084650D03*
X0340500Y0088650D03*
X0336550Y0088650D03*
X0242650Y0175050D03*
X0238700Y0175050D03*
X0238700Y0179050D03*
X0242650Y0179050D03*
X0128500Y0060900D03*
X0128500Y0056950D03*
X0124550Y0056950D03*
X0124550Y0060900D03*
X0042200Y0092050D03*
X0042200Y0096700D03*
X0037550Y0096700D03*
X0037500Y0092050D03*
X0106800Y0161300D03*
X0106800Y0165250D03*
X0110750Y0165250D03*
X0110750Y0161300D03*
X0045800Y0349050D03*
X0041850Y0349050D03*
X0041850Y0353050D03*
X0045800Y0353050D03*
X0173750Y0362850D03*
X0173750Y0366800D03*
X0177700Y0366800D03*
X0177700Y0362850D03*
X0242300Y0431400D03*
X0242300Y0436050D03*
X0247000Y0436050D03*
X0246950Y0431400D03*
X0332750Y0360500D03*
X0337400Y0360500D03*
X0337400Y0355850D03*
X0332700Y0355850D03*
X0402000Y0425100D03*
X0405950Y0425100D03*
X0405950Y0429050D03*
X0402000Y0429050D03*
X0419750Y0324700D03*
X0419750Y0320750D03*
X0423700Y0320750D03*
X0423700Y0324700D03*
X0450700Y0206750D03*
X0450700Y0202800D03*
X0454650Y0202800D03*
X0454650Y0206750D03*
X0537000Y0171650D03*
X0537000Y0167000D03*
X0541650Y0167000D03*
X0541700Y0171650D03*
X0472400Y0102400D03*
X0472400Y0098450D03*
X0468450Y0098450D03*
X0468450Y0102400D03*
X0533900Y0438850D03*
X0537850Y0438850D03*
X0537850Y0442850D03*
X0533900Y0442850D03*
X0159950Y0467200D03*
X0156000Y0467200D03*
X0156000Y0471150D03*
X0159950Y0471150D03*
D31*
X0187100Y0481500D03*
X0214700Y0487600D03*
X0231200Y0484000D03*
X0234300Y0490700D03*
X0244000Y0475100D03*
X0244000Y0465900D03*
X0208500Y0437000D03*
X0203000Y0452700D03*
X0186900Y0442300D03*
X0182500Y0447000D03*
X0184700Y0433400D03*
X0180700Y0426800D03*
X0168800Y0395600D03*
X0168600Y0383400D03*
X0111700Y0332500D03*
X0107400Y0331900D03*
X0172800Y0195600D03*
X0177100Y0196200D03*
X0115900Y0144700D03*
X0115700Y0132500D03*
X0103800Y0101300D03*
X0099800Y0094700D03*
X0097600Y0085800D03*
X0102000Y0081100D03*
X0081500Y0075400D03*
X0076000Y0091100D03*
X0040500Y0062200D03*
X0040500Y0053000D03*
X0053300Y0044100D03*
X0050200Y0037400D03*
X0069800Y0040500D03*
X0097400Y0046600D03*
X0345400Y0301200D03*
X0348500Y0307900D03*
X0335700Y0316800D03*
X0335700Y0326000D03*
X0365000Y0304300D03*
X0392600Y0310400D03*
X0376700Y0339200D03*
X0371200Y0354900D03*
X0392800Y0349600D03*
X0397200Y0344900D03*
X0395000Y0358500D03*
X0399000Y0365100D03*
X0410900Y0396300D03*
X0411100Y0408500D03*
X0468000Y0459400D03*
X0472300Y0460000D03*
X0509400Y0223200D03*
X0525900Y0219600D03*
X0529000Y0226300D03*
X0538700Y0210700D03*
X0538700Y0201500D03*
X0497700Y0188300D03*
X0503200Y0172600D03*
X0481600Y0177900D03*
X0477200Y0182600D03*
X0479400Y0169000D03*
X0475400Y0162400D03*
X0463500Y0131200D03*
X0463300Y0119000D03*
X0406400Y0068100D03*
X0402100Y0067500D03*
X0481800Y0217100D03*
D32*
X0550500Y0153500D03*
X0461600Y0124700D03*
X0409500Y0234500D03*
X0464900Y0293000D03*
X0412800Y0402800D03*
X0323900Y0374000D03*
X0255800Y0417900D03*
X0166900Y0389100D03*
X0114800Y0498900D03*
X0025500Y0336400D03*
X0117600Y0139000D03*
X0028700Y0110200D03*
X0169700Y0029200D03*
X0320200Y0072000D03*
X0259000Y0191700D03*
X0554200Y0455500D03*
M02*
