G75*
%MOIN*%
%OFA0B0*%
%FSLAX25Y25*%
%IPPOS*%
%LPD*%
%AMOC8*
5,1,8,0,0,1.08239X$1,22.5*
%
%ADD10C,0.00000*%
%ADD11C,0.00500*%
%ADD12C,0.01181*%
%ADD13C,0.00300*%
%ADD14C,0.03150*%
%ADD15C,0.00400*%
D10*
X0020488Y0001000D02*
X0009228Y0013795D01*
X0001000Y0182811D01*
X0077496Y0186551D01*
X0076276Y0211118D01*
X0196906Y0216984D01*
X0197969Y0239228D01*
X0257535Y0235961D01*
X0252260Y0126354D01*
X0204425Y0111276D01*
X0176197Y0087220D02*
X0171079Y0057693D01*
X0176197Y0087220D02*
X0176651Y0088182D01*
X0177128Y0089133D01*
X0177628Y0090072D01*
X0178150Y0090998D01*
X0178695Y0091911D01*
X0179262Y0092811D01*
X0179850Y0093697D01*
X0180460Y0094569D01*
X0181091Y0095425D01*
X0181742Y0096266D01*
X0182414Y0097091D01*
X0183105Y0097899D01*
X0183815Y0098691D01*
X0184545Y0099465D01*
X0185293Y0100221D01*
X0186060Y0100958D01*
X0186843Y0101677D01*
X0187645Y0102377D01*
X0188462Y0103057D01*
X0189297Y0103717D01*
X0190146Y0104356D01*
X0191011Y0104975D01*
X0191891Y0105573D01*
X0192785Y0106149D01*
X0193693Y0106703D01*
X0194614Y0107235D01*
X0195548Y0107745D01*
X0196493Y0108232D01*
X0197450Y0108695D01*
X0198418Y0109136D01*
X0199397Y0109553D01*
X0200385Y0109946D01*
X0201383Y0110315D01*
X0202389Y0110659D01*
X0203403Y0110980D01*
X0204425Y0111275D01*
X0171079Y0057693D02*
X0170891Y0056153D01*
X0170740Y0054609D01*
X0170626Y0053062D01*
X0170549Y0051512D01*
X0170508Y0049961D01*
X0170505Y0048410D01*
X0170539Y0046859D01*
X0170609Y0045309D01*
X0170716Y0043761D01*
X0170860Y0042217D01*
X0171041Y0040676D01*
X0171259Y0039140D01*
X0171512Y0037609D01*
X0171803Y0036085D01*
X0172129Y0034568D01*
X0172492Y0033060D01*
X0172890Y0031560D01*
X0173324Y0030071D01*
X0173793Y0028592D01*
X0174297Y0027125D01*
X0174836Y0025670D01*
X0175409Y0024228D01*
X0177929Y0013087D02*
X0178520Y0001000D01*
X0020488Y0001000D01*
X0128716Y0012811D02*
X0128718Y0012964D01*
X0128724Y0013118D01*
X0128734Y0013271D01*
X0128748Y0013423D01*
X0128766Y0013576D01*
X0128788Y0013727D01*
X0128813Y0013878D01*
X0128843Y0014029D01*
X0128877Y0014179D01*
X0128914Y0014327D01*
X0128955Y0014475D01*
X0129000Y0014621D01*
X0129049Y0014767D01*
X0129102Y0014911D01*
X0129158Y0015053D01*
X0129218Y0015194D01*
X0129282Y0015334D01*
X0129349Y0015472D01*
X0129420Y0015608D01*
X0129495Y0015742D01*
X0129572Y0015874D01*
X0129654Y0016004D01*
X0129738Y0016132D01*
X0129826Y0016258D01*
X0129917Y0016381D01*
X0130011Y0016502D01*
X0130109Y0016620D01*
X0130209Y0016736D01*
X0130313Y0016849D01*
X0130419Y0016960D01*
X0130528Y0017068D01*
X0130640Y0017173D01*
X0130754Y0017274D01*
X0130872Y0017373D01*
X0130991Y0017469D01*
X0131113Y0017562D01*
X0131238Y0017651D01*
X0131365Y0017738D01*
X0131494Y0017820D01*
X0131625Y0017900D01*
X0131758Y0017976D01*
X0131893Y0018049D01*
X0132030Y0018118D01*
X0132169Y0018183D01*
X0132309Y0018245D01*
X0132451Y0018303D01*
X0132594Y0018358D01*
X0132739Y0018409D01*
X0132885Y0018456D01*
X0133032Y0018499D01*
X0133180Y0018538D01*
X0133329Y0018574D01*
X0133479Y0018605D01*
X0133630Y0018633D01*
X0133781Y0018657D01*
X0133934Y0018677D01*
X0134086Y0018693D01*
X0134239Y0018705D01*
X0134392Y0018713D01*
X0134545Y0018717D01*
X0134699Y0018717D01*
X0134852Y0018713D01*
X0135005Y0018705D01*
X0135158Y0018693D01*
X0135310Y0018677D01*
X0135463Y0018657D01*
X0135614Y0018633D01*
X0135765Y0018605D01*
X0135915Y0018574D01*
X0136064Y0018538D01*
X0136212Y0018499D01*
X0136359Y0018456D01*
X0136505Y0018409D01*
X0136650Y0018358D01*
X0136793Y0018303D01*
X0136935Y0018245D01*
X0137075Y0018183D01*
X0137214Y0018118D01*
X0137351Y0018049D01*
X0137486Y0017976D01*
X0137619Y0017900D01*
X0137750Y0017820D01*
X0137879Y0017738D01*
X0138006Y0017651D01*
X0138131Y0017562D01*
X0138253Y0017469D01*
X0138372Y0017373D01*
X0138490Y0017274D01*
X0138604Y0017173D01*
X0138716Y0017068D01*
X0138825Y0016960D01*
X0138931Y0016849D01*
X0139035Y0016736D01*
X0139135Y0016620D01*
X0139233Y0016502D01*
X0139327Y0016381D01*
X0139418Y0016258D01*
X0139506Y0016132D01*
X0139590Y0016004D01*
X0139672Y0015874D01*
X0139749Y0015742D01*
X0139824Y0015608D01*
X0139895Y0015472D01*
X0139962Y0015334D01*
X0140026Y0015194D01*
X0140086Y0015053D01*
X0140142Y0014911D01*
X0140195Y0014767D01*
X0140244Y0014621D01*
X0140289Y0014475D01*
X0140330Y0014327D01*
X0140367Y0014179D01*
X0140401Y0014029D01*
X0140431Y0013878D01*
X0140456Y0013727D01*
X0140478Y0013576D01*
X0140496Y0013423D01*
X0140510Y0013271D01*
X0140520Y0013118D01*
X0140526Y0012964D01*
X0140528Y0012811D01*
X0140526Y0012658D01*
X0140520Y0012504D01*
X0140510Y0012351D01*
X0140496Y0012199D01*
X0140478Y0012046D01*
X0140456Y0011895D01*
X0140431Y0011744D01*
X0140401Y0011593D01*
X0140367Y0011443D01*
X0140330Y0011295D01*
X0140289Y0011147D01*
X0140244Y0011001D01*
X0140195Y0010855D01*
X0140142Y0010711D01*
X0140086Y0010569D01*
X0140026Y0010428D01*
X0139962Y0010288D01*
X0139895Y0010150D01*
X0139824Y0010014D01*
X0139749Y0009880D01*
X0139672Y0009748D01*
X0139590Y0009618D01*
X0139506Y0009490D01*
X0139418Y0009364D01*
X0139327Y0009241D01*
X0139233Y0009120D01*
X0139135Y0009002D01*
X0139035Y0008886D01*
X0138931Y0008773D01*
X0138825Y0008662D01*
X0138716Y0008554D01*
X0138604Y0008449D01*
X0138490Y0008348D01*
X0138372Y0008249D01*
X0138253Y0008153D01*
X0138131Y0008060D01*
X0138006Y0007971D01*
X0137879Y0007884D01*
X0137750Y0007802D01*
X0137619Y0007722D01*
X0137486Y0007646D01*
X0137351Y0007573D01*
X0137214Y0007504D01*
X0137075Y0007439D01*
X0136935Y0007377D01*
X0136793Y0007319D01*
X0136650Y0007264D01*
X0136505Y0007213D01*
X0136359Y0007166D01*
X0136212Y0007123D01*
X0136064Y0007084D01*
X0135915Y0007048D01*
X0135765Y0007017D01*
X0135614Y0006989D01*
X0135463Y0006965D01*
X0135310Y0006945D01*
X0135158Y0006929D01*
X0135005Y0006917D01*
X0134852Y0006909D01*
X0134699Y0006905D01*
X0134545Y0006905D01*
X0134392Y0006909D01*
X0134239Y0006917D01*
X0134086Y0006929D01*
X0133934Y0006945D01*
X0133781Y0006965D01*
X0133630Y0006989D01*
X0133479Y0007017D01*
X0133329Y0007048D01*
X0133180Y0007084D01*
X0133032Y0007123D01*
X0132885Y0007166D01*
X0132739Y0007213D01*
X0132594Y0007264D01*
X0132451Y0007319D01*
X0132309Y0007377D01*
X0132169Y0007439D01*
X0132030Y0007504D01*
X0131893Y0007573D01*
X0131758Y0007646D01*
X0131625Y0007722D01*
X0131494Y0007802D01*
X0131365Y0007884D01*
X0131238Y0007971D01*
X0131113Y0008060D01*
X0130991Y0008153D01*
X0130872Y0008249D01*
X0130754Y0008348D01*
X0130640Y0008449D01*
X0130528Y0008554D01*
X0130419Y0008662D01*
X0130313Y0008773D01*
X0130209Y0008886D01*
X0130109Y0009002D01*
X0130011Y0009120D01*
X0129917Y0009241D01*
X0129826Y0009364D01*
X0129738Y0009490D01*
X0129654Y0009618D01*
X0129572Y0009748D01*
X0129495Y0009880D01*
X0129420Y0010014D01*
X0129349Y0010150D01*
X0129282Y0010288D01*
X0129218Y0010428D01*
X0129158Y0010569D01*
X0129102Y0010711D01*
X0129049Y0010855D01*
X0129000Y0011001D01*
X0128955Y0011147D01*
X0128914Y0011295D01*
X0128877Y0011443D01*
X0128843Y0011593D01*
X0128813Y0011744D01*
X0128788Y0011895D01*
X0128766Y0012046D01*
X0128748Y0012199D01*
X0128734Y0012351D01*
X0128724Y0012504D01*
X0128718Y0012658D01*
X0128716Y0012811D01*
X0175410Y0024229D02*
X0175676Y0023647D01*
X0175927Y0023059D01*
X0176165Y0022465D01*
X0176387Y0021865D01*
X0176596Y0021260D01*
X0176789Y0020651D01*
X0176968Y0020036D01*
X0177131Y0019418D01*
X0177280Y0018796D01*
X0177414Y0018170D01*
X0177532Y0017542D01*
X0177635Y0016910D01*
X0177723Y0016277D01*
X0177795Y0015641D01*
X0177852Y0015004D01*
X0177893Y0014366D01*
X0177919Y0013727D01*
X0177930Y0013087D01*
X0008362Y0167929D02*
X0008364Y0168082D01*
X0008370Y0168236D01*
X0008380Y0168389D01*
X0008394Y0168541D01*
X0008412Y0168694D01*
X0008434Y0168845D01*
X0008459Y0168996D01*
X0008489Y0169147D01*
X0008523Y0169297D01*
X0008560Y0169445D01*
X0008601Y0169593D01*
X0008646Y0169739D01*
X0008695Y0169885D01*
X0008748Y0170029D01*
X0008804Y0170171D01*
X0008864Y0170312D01*
X0008928Y0170452D01*
X0008995Y0170590D01*
X0009066Y0170726D01*
X0009141Y0170860D01*
X0009218Y0170992D01*
X0009300Y0171122D01*
X0009384Y0171250D01*
X0009472Y0171376D01*
X0009563Y0171499D01*
X0009657Y0171620D01*
X0009755Y0171738D01*
X0009855Y0171854D01*
X0009959Y0171967D01*
X0010065Y0172078D01*
X0010174Y0172186D01*
X0010286Y0172291D01*
X0010400Y0172392D01*
X0010518Y0172491D01*
X0010637Y0172587D01*
X0010759Y0172680D01*
X0010884Y0172769D01*
X0011011Y0172856D01*
X0011140Y0172938D01*
X0011271Y0173018D01*
X0011404Y0173094D01*
X0011539Y0173167D01*
X0011676Y0173236D01*
X0011815Y0173301D01*
X0011955Y0173363D01*
X0012097Y0173421D01*
X0012240Y0173476D01*
X0012385Y0173527D01*
X0012531Y0173574D01*
X0012678Y0173617D01*
X0012826Y0173656D01*
X0012975Y0173692D01*
X0013125Y0173723D01*
X0013276Y0173751D01*
X0013427Y0173775D01*
X0013580Y0173795D01*
X0013732Y0173811D01*
X0013885Y0173823D01*
X0014038Y0173831D01*
X0014191Y0173835D01*
X0014345Y0173835D01*
X0014498Y0173831D01*
X0014651Y0173823D01*
X0014804Y0173811D01*
X0014956Y0173795D01*
X0015109Y0173775D01*
X0015260Y0173751D01*
X0015411Y0173723D01*
X0015561Y0173692D01*
X0015710Y0173656D01*
X0015858Y0173617D01*
X0016005Y0173574D01*
X0016151Y0173527D01*
X0016296Y0173476D01*
X0016439Y0173421D01*
X0016581Y0173363D01*
X0016721Y0173301D01*
X0016860Y0173236D01*
X0016997Y0173167D01*
X0017132Y0173094D01*
X0017265Y0173018D01*
X0017396Y0172938D01*
X0017525Y0172856D01*
X0017652Y0172769D01*
X0017777Y0172680D01*
X0017899Y0172587D01*
X0018018Y0172491D01*
X0018136Y0172392D01*
X0018250Y0172291D01*
X0018362Y0172186D01*
X0018471Y0172078D01*
X0018577Y0171967D01*
X0018681Y0171854D01*
X0018781Y0171738D01*
X0018879Y0171620D01*
X0018973Y0171499D01*
X0019064Y0171376D01*
X0019152Y0171250D01*
X0019236Y0171122D01*
X0019318Y0170992D01*
X0019395Y0170860D01*
X0019470Y0170726D01*
X0019541Y0170590D01*
X0019608Y0170452D01*
X0019672Y0170312D01*
X0019732Y0170171D01*
X0019788Y0170029D01*
X0019841Y0169885D01*
X0019890Y0169739D01*
X0019935Y0169593D01*
X0019976Y0169445D01*
X0020013Y0169297D01*
X0020047Y0169147D01*
X0020077Y0168996D01*
X0020102Y0168845D01*
X0020124Y0168694D01*
X0020142Y0168541D01*
X0020156Y0168389D01*
X0020166Y0168236D01*
X0020172Y0168082D01*
X0020174Y0167929D01*
X0020172Y0167776D01*
X0020166Y0167622D01*
X0020156Y0167469D01*
X0020142Y0167317D01*
X0020124Y0167164D01*
X0020102Y0167013D01*
X0020077Y0166862D01*
X0020047Y0166711D01*
X0020013Y0166561D01*
X0019976Y0166413D01*
X0019935Y0166265D01*
X0019890Y0166119D01*
X0019841Y0165973D01*
X0019788Y0165829D01*
X0019732Y0165687D01*
X0019672Y0165546D01*
X0019608Y0165406D01*
X0019541Y0165268D01*
X0019470Y0165132D01*
X0019395Y0164998D01*
X0019318Y0164866D01*
X0019236Y0164736D01*
X0019152Y0164608D01*
X0019064Y0164482D01*
X0018973Y0164359D01*
X0018879Y0164238D01*
X0018781Y0164120D01*
X0018681Y0164004D01*
X0018577Y0163891D01*
X0018471Y0163780D01*
X0018362Y0163672D01*
X0018250Y0163567D01*
X0018136Y0163466D01*
X0018018Y0163367D01*
X0017899Y0163271D01*
X0017777Y0163178D01*
X0017652Y0163089D01*
X0017525Y0163002D01*
X0017396Y0162920D01*
X0017265Y0162840D01*
X0017132Y0162764D01*
X0016997Y0162691D01*
X0016860Y0162622D01*
X0016721Y0162557D01*
X0016581Y0162495D01*
X0016439Y0162437D01*
X0016296Y0162382D01*
X0016151Y0162331D01*
X0016005Y0162284D01*
X0015858Y0162241D01*
X0015710Y0162202D01*
X0015561Y0162166D01*
X0015411Y0162135D01*
X0015260Y0162107D01*
X0015109Y0162083D01*
X0014956Y0162063D01*
X0014804Y0162047D01*
X0014651Y0162035D01*
X0014498Y0162027D01*
X0014345Y0162023D01*
X0014191Y0162023D01*
X0014038Y0162027D01*
X0013885Y0162035D01*
X0013732Y0162047D01*
X0013580Y0162063D01*
X0013427Y0162083D01*
X0013276Y0162107D01*
X0013125Y0162135D01*
X0012975Y0162166D01*
X0012826Y0162202D01*
X0012678Y0162241D01*
X0012531Y0162284D01*
X0012385Y0162331D01*
X0012240Y0162382D01*
X0012097Y0162437D01*
X0011955Y0162495D01*
X0011815Y0162557D01*
X0011676Y0162622D01*
X0011539Y0162691D01*
X0011404Y0162764D01*
X0011271Y0162840D01*
X0011140Y0162920D01*
X0011011Y0163002D01*
X0010884Y0163089D01*
X0010759Y0163178D01*
X0010637Y0163271D01*
X0010518Y0163367D01*
X0010400Y0163466D01*
X0010286Y0163567D01*
X0010174Y0163672D01*
X0010065Y0163780D01*
X0009959Y0163891D01*
X0009855Y0164004D01*
X0009755Y0164120D01*
X0009657Y0164238D01*
X0009563Y0164359D01*
X0009472Y0164482D01*
X0009384Y0164608D01*
X0009300Y0164736D01*
X0009218Y0164866D01*
X0009141Y0164998D01*
X0009066Y0165132D01*
X0008995Y0165268D01*
X0008928Y0165406D01*
X0008864Y0165546D01*
X0008804Y0165687D01*
X0008748Y0165829D01*
X0008695Y0165973D01*
X0008646Y0166119D01*
X0008601Y0166265D01*
X0008560Y0166413D01*
X0008523Y0166561D01*
X0008489Y0166711D01*
X0008459Y0166862D01*
X0008434Y0167013D01*
X0008412Y0167164D01*
X0008394Y0167317D01*
X0008380Y0167469D01*
X0008370Y0167622D01*
X0008364Y0167776D01*
X0008362Y0167929D01*
X0235251Y0223638D02*
X0235253Y0223791D01*
X0235259Y0223945D01*
X0235269Y0224098D01*
X0235283Y0224250D01*
X0235301Y0224403D01*
X0235323Y0224554D01*
X0235348Y0224705D01*
X0235378Y0224856D01*
X0235412Y0225006D01*
X0235449Y0225154D01*
X0235490Y0225302D01*
X0235535Y0225448D01*
X0235584Y0225594D01*
X0235637Y0225738D01*
X0235693Y0225880D01*
X0235753Y0226021D01*
X0235817Y0226161D01*
X0235884Y0226299D01*
X0235955Y0226435D01*
X0236030Y0226569D01*
X0236107Y0226701D01*
X0236189Y0226831D01*
X0236273Y0226959D01*
X0236361Y0227085D01*
X0236452Y0227208D01*
X0236546Y0227329D01*
X0236644Y0227447D01*
X0236744Y0227563D01*
X0236848Y0227676D01*
X0236954Y0227787D01*
X0237063Y0227895D01*
X0237175Y0228000D01*
X0237289Y0228101D01*
X0237407Y0228200D01*
X0237526Y0228296D01*
X0237648Y0228389D01*
X0237773Y0228478D01*
X0237900Y0228565D01*
X0238029Y0228647D01*
X0238160Y0228727D01*
X0238293Y0228803D01*
X0238428Y0228876D01*
X0238565Y0228945D01*
X0238704Y0229010D01*
X0238844Y0229072D01*
X0238986Y0229130D01*
X0239129Y0229185D01*
X0239274Y0229236D01*
X0239420Y0229283D01*
X0239567Y0229326D01*
X0239715Y0229365D01*
X0239864Y0229401D01*
X0240014Y0229432D01*
X0240165Y0229460D01*
X0240316Y0229484D01*
X0240469Y0229504D01*
X0240621Y0229520D01*
X0240774Y0229532D01*
X0240927Y0229540D01*
X0241080Y0229544D01*
X0241234Y0229544D01*
X0241387Y0229540D01*
X0241540Y0229532D01*
X0241693Y0229520D01*
X0241845Y0229504D01*
X0241998Y0229484D01*
X0242149Y0229460D01*
X0242300Y0229432D01*
X0242450Y0229401D01*
X0242599Y0229365D01*
X0242747Y0229326D01*
X0242894Y0229283D01*
X0243040Y0229236D01*
X0243185Y0229185D01*
X0243328Y0229130D01*
X0243470Y0229072D01*
X0243610Y0229010D01*
X0243749Y0228945D01*
X0243886Y0228876D01*
X0244021Y0228803D01*
X0244154Y0228727D01*
X0244285Y0228647D01*
X0244414Y0228565D01*
X0244541Y0228478D01*
X0244666Y0228389D01*
X0244788Y0228296D01*
X0244907Y0228200D01*
X0245025Y0228101D01*
X0245139Y0228000D01*
X0245251Y0227895D01*
X0245360Y0227787D01*
X0245466Y0227676D01*
X0245570Y0227563D01*
X0245670Y0227447D01*
X0245768Y0227329D01*
X0245862Y0227208D01*
X0245953Y0227085D01*
X0246041Y0226959D01*
X0246125Y0226831D01*
X0246207Y0226701D01*
X0246284Y0226569D01*
X0246359Y0226435D01*
X0246430Y0226299D01*
X0246497Y0226161D01*
X0246561Y0226021D01*
X0246621Y0225880D01*
X0246677Y0225738D01*
X0246730Y0225594D01*
X0246779Y0225448D01*
X0246824Y0225302D01*
X0246865Y0225154D01*
X0246902Y0225006D01*
X0246936Y0224856D01*
X0246966Y0224705D01*
X0246991Y0224554D01*
X0247013Y0224403D01*
X0247031Y0224250D01*
X0247045Y0224098D01*
X0247055Y0223945D01*
X0247061Y0223791D01*
X0247063Y0223638D01*
X0247061Y0223485D01*
X0247055Y0223331D01*
X0247045Y0223178D01*
X0247031Y0223026D01*
X0247013Y0222873D01*
X0246991Y0222722D01*
X0246966Y0222571D01*
X0246936Y0222420D01*
X0246902Y0222270D01*
X0246865Y0222122D01*
X0246824Y0221974D01*
X0246779Y0221828D01*
X0246730Y0221682D01*
X0246677Y0221538D01*
X0246621Y0221396D01*
X0246561Y0221255D01*
X0246497Y0221115D01*
X0246430Y0220977D01*
X0246359Y0220841D01*
X0246284Y0220707D01*
X0246207Y0220575D01*
X0246125Y0220445D01*
X0246041Y0220317D01*
X0245953Y0220191D01*
X0245862Y0220068D01*
X0245768Y0219947D01*
X0245670Y0219829D01*
X0245570Y0219713D01*
X0245466Y0219600D01*
X0245360Y0219489D01*
X0245251Y0219381D01*
X0245139Y0219276D01*
X0245025Y0219175D01*
X0244907Y0219076D01*
X0244788Y0218980D01*
X0244666Y0218887D01*
X0244541Y0218798D01*
X0244414Y0218711D01*
X0244285Y0218629D01*
X0244154Y0218549D01*
X0244021Y0218473D01*
X0243886Y0218400D01*
X0243749Y0218331D01*
X0243610Y0218266D01*
X0243470Y0218204D01*
X0243328Y0218146D01*
X0243185Y0218091D01*
X0243040Y0218040D01*
X0242894Y0217993D01*
X0242747Y0217950D01*
X0242599Y0217911D01*
X0242450Y0217875D01*
X0242300Y0217844D01*
X0242149Y0217816D01*
X0241998Y0217792D01*
X0241845Y0217772D01*
X0241693Y0217756D01*
X0241540Y0217744D01*
X0241387Y0217736D01*
X0241234Y0217732D01*
X0241080Y0217732D01*
X0240927Y0217736D01*
X0240774Y0217744D01*
X0240621Y0217756D01*
X0240469Y0217772D01*
X0240316Y0217792D01*
X0240165Y0217816D01*
X0240014Y0217844D01*
X0239864Y0217875D01*
X0239715Y0217911D01*
X0239567Y0217950D01*
X0239420Y0217993D01*
X0239274Y0218040D01*
X0239129Y0218091D01*
X0238986Y0218146D01*
X0238844Y0218204D01*
X0238704Y0218266D01*
X0238565Y0218331D01*
X0238428Y0218400D01*
X0238293Y0218473D01*
X0238160Y0218549D01*
X0238029Y0218629D01*
X0237900Y0218711D01*
X0237773Y0218798D01*
X0237648Y0218887D01*
X0237526Y0218980D01*
X0237407Y0219076D01*
X0237289Y0219175D01*
X0237175Y0219276D01*
X0237063Y0219381D01*
X0236954Y0219489D01*
X0236848Y0219600D01*
X0236744Y0219713D01*
X0236644Y0219829D01*
X0236546Y0219947D01*
X0236452Y0220068D01*
X0236361Y0220191D01*
X0236273Y0220317D01*
X0236189Y0220445D01*
X0236107Y0220575D01*
X0236030Y0220707D01*
X0235955Y0220841D01*
X0235884Y0220977D01*
X0235817Y0221115D01*
X0235753Y0221255D01*
X0235693Y0221396D01*
X0235637Y0221538D01*
X0235584Y0221682D01*
X0235535Y0221828D01*
X0235490Y0221974D01*
X0235449Y0222122D01*
X0235412Y0222270D01*
X0235378Y0222420D01*
X0235348Y0222571D01*
X0235323Y0222722D01*
X0235301Y0222873D01*
X0235283Y0223026D01*
X0235269Y0223178D01*
X0235259Y0223331D01*
X0235253Y0223485D01*
X0235251Y0223638D01*
D11*
X0236827Y0208874D02*
X0229346Y0208874D01*
X0229346Y0201787D01*
X0205724Y0201787D01*
X0205724Y0208874D01*
X0198244Y0208874D01*
X0198244Y0186827D01*
X0236827Y0186827D01*
X0236827Y0208874D01*
X0235547Y0168618D02*
X0219209Y0168618D01*
X0219209Y0152280D01*
X0235547Y0152280D01*
X0235547Y0168618D01*
X0186196Y0183914D02*
X0185042Y0205932D01*
X0177572Y0205540D01*
X0177943Y0198463D01*
X0154353Y0197227D01*
X0153983Y0204304D01*
X0146512Y0203912D01*
X0147666Y0181895D01*
X0186196Y0183914D01*
X0123204Y0179977D02*
X0122050Y0201995D01*
X0114580Y0201603D01*
X0114951Y0194526D01*
X0091361Y0193290D01*
X0090990Y0200367D01*
X0083520Y0199975D01*
X0084674Y0177958D01*
X0123204Y0179977D01*
X0103657Y0154839D02*
X0103657Y0138500D01*
X0087319Y0138500D01*
X0087319Y0154839D01*
X0103657Y0154839D01*
X0072023Y0156355D02*
X0070869Y0178372D01*
X0063399Y0177981D01*
X0063770Y0170904D01*
X0040180Y0169668D01*
X0039809Y0176745D01*
X0032339Y0176353D01*
X0033493Y0154336D01*
X0072023Y0156355D01*
X0021470Y0154911D02*
X0022827Y0123838D01*
X0003849Y0123010D01*
X0003944Y0120847D02*
X0002398Y0156246D01*
X0002492Y0154083D02*
X0021470Y0154911D01*
X0054150Y0095488D02*
X0081709Y0095488D01*
X0093520Y0083677D01*
X0093520Y0056118D01*
X0054150Y0056118D01*
X0054150Y0095488D01*
X0034760Y0085941D02*
X0034760Y0069602D01*
X0018421Y0069602D01*
X0018421Y0085941D01*
X0034760Y0085941D01*
X0039366Y0050606D02*
X0049228Y0050606D01*
X0049228Y0038008D01*
X0039386Y0038008D01*
X0039366Y0050606D01*
X0105035Y0050508D02*
X0105035Y0034169D01*
X0121374Y0034169D01*
X0121374Y0050508D01*
X0105035Y0050508D01*
X0143520Y0059661D02*
X0143520Y0021079D01*
X0165567Y0021079D01*
X0165567Y0028559D01*
X0158480Y0028559D01*
X0158480Y0052181D01*
X0165567Y0052181D01*
X0165567Y0059661D01*
X0143520Y0059661D01*
X0144274Y0070530D02*
X0165987Y0066702D01*
X0167285Y0074068D01*
X0160307Y0075299D01*
X0164408Y0098562D01*
X0171387Y0097332D01*
X0172686Y0104698D01*
X0150974Y0108527D01*
X0144274Y0070530D01*
D12*
X0122063Y0051787D02*
X0122065Y0051835D01*
X0122071Y0051883D01*
X0122081Y0051930D01*
X0122094Y0051976D01*
X0122112Y0052021D01*
X0122132Y0052065D01*
X0122157Y0052107D01*
X0122185Y0052146D01*
X0122215Y0052183D01*
X0122249Y0052217D01*
X0122286Y0052249D01*
X0122324Y0052278D01*
X0122365Y0052303D01*
X0122408Y0052325D01*
X0122453Y0052343D01*
X0122499Y0052357D01*
X0122546Y0052368D01*
X0122594Y0052375D01*
X0122642Y0052378D01*
X0122690Y0052377D01*
X0122738Y0052372D01*
X0122786Y0052363D01*
X0122832Y0052351D01*
X0122877Y0052334D01*
X0122921Y0052314D01*
X0122963Y0052291D01*
X0123003Y0052264D01*
X0123041Y0052234D01*
X0123076Y0052201D01*
X0123108Y0052165D01*
X0123138Y0052127D01*
X0123164Y0052086D01*
X0123186Y0052043D01*
X0123206Y0051999D01*
X0123221Y0051954D01*
X0123233Y0051907D01*
X0123241Y0051859D01*
X0123245Y0051811D01*
X0123245Y0051763D01*
X0123241Y0051715D01*
X0123233Y0051667D01*
X0123221Y0051620D01*
X0123206Y0051575D01*
X0123186Y0051531D01*
X0123164Y0051488D01*
X0123138Y0051447D01*
X0123108Y0051409D01*
X0123076Y0051373D01*
X0123041Y0051340D01*
X0123003Y0051310D01*
X0122963Y0051283D01*
X0122921Y0051260D01*
X0122877Y0051240D01*
X0122832Y0051223D01*
X0122786Y0051211D01*
X0122738Y0051202D01*
X0122690Y0051197D01*
X0122642Y0051196D01*
X0122594Y0051199D01*
X0122546Y0051206D01*
X0122499Y0051217D01*
X0122453Y0051231D01*
X0122408Y0051249D01*
X0122365Y0051271D01*
X0122324Y0051296D01*
X0122286Y0051325D01*
X0122249Y0051357D01*
X0122215Y0051391D01*
X0122185Y0051428D01*
X0122157Y0051467D01*
X0122132Y0051509D01*
X0122112Y0051553D01*
X0122094Y0051598D01*
X0122081Y0051644D01*
X0122071Y0051691D01*
X0122065Y0051739D01*
X0122063Y0051787D01*
X0016551Y0068323D02*
X0016553Y0068371D01*
X0016559Y0068419D01*
X0016569Y0068466D01*
X0016582Y0068512D01*
X0016600Y0068557D01*
X0016620Y0068601D01*
X0016645Y0068643D01*
X0016673Y0068682D01*
X0016703Y0068719D01*
X0016737Y0068753D01*
X0016774Y0068785D01*
X0016812Y0068814D01*
X0016853Y0068839D01*
X0016896Y0068861D01*
X0016941Y0068879D01*
X0016987Y0068893D01*
X0017034Y0068904D01*
X0017082Y0068911D01*
X0017130Y0068914D01*
X0017178Y0068913D01*
X0017226Y0068908D01*
X0017274Y0068899D01*
X0017320Y0068887D01*
X0017365Y0068870D01*
X0017409Y0068850D01*
X0017451Y0068827D01*
X0017491Y0068800D01*
X0017529Y0068770D01*
X0017564Y0068737D01*
X0017596Y0068701D01*
X0017626Y0068663D01*
X0017652Y0068622D01*
X0017674Y0068579D01*
X0017694Y0068535D01*
X0017709Y0068490D01*
X0017721Y0068443D01*
X0017729Y0068395D01*
X0017733Y0068347D01*
X0017733Y0068299D01*
X0017729Y0068251D01*
X0017721Y0068203D01*
X0017709Y0068156D01*
X0017694Y0068111D01*
X0017674Y0068067D01*
X0017652Y0068024D01*
X0017626Y0067983D01*
X0017596Y0067945D01*
X0017564Y0067909D01*
X0017529Y0067876D01*
X0017491Y0067846D01*
X0017451Y0067819D01*
X0017409Y0067796D01*
X0017365Y0067776D01*
X0017320Y0067759D01*
X0017274Y0067747D01*
X0017226Y0067738D01*
X0017178Y0067733D01*
X0017130Y0067732D01*
X0017082Y0067735D01*
X0017034Y0067742D01*
X0016987Y0067753D01*
X0016941Y0067767D01*
X0016896Y0067785D01*
X0016853Y0067807D01*
X0016812Y0067832D01*
X0016774Y0067861D01*
X0016737Y0067893D01*
X0016703Y0067927D01*
X0016673Y0067964D01*
X0016645Y0068003D01*
X0016620Y0068045D01*
X0016600Y0068089D01*
X0016582Y0068134D01*
X0016569Y0068180D01*
X0016559Y0068227D01*
X0016553Y0068275D01*
X0016551Y0068323D01*
X0085448Y0156118D02*
X0085450Y0156166D01*
X0085456Y0156214D01*
X0085466Y0156261D01*
X0085479Y0156307D01*
X0085497Y0156352D01*
X0085517Y0156396D01*
X0085542Y0156438D01*
X0085570Y0156477D01*
X0085600Y0156514D01*
X0085634Y0156548D01*
X0085671Y0156580D01*
X0085709Y0156609D01*
X0085750Y0156634D01*
X0085793Y0156656D01*
X0085838Y0156674D01*
X0085884Y0156688D01*
X0085931Y0156699D01*
X0085979Y0156706D01*
X0086027Y0156709D01*
X0086075Y0156708D01*
X0086123Y0156703D01*
X0086171Y0156694D01*
X0086217Y0156682D01*
X0086262Y0156665D01*
X0086306Y0156645D01*
X0086348Y0156622D01*
X0086388Y0156595D01*
X0086426Y0156565D01*
X0086461Y0156532D01*
X0086493Y0156496D01*
X0086523Y0156458D01*
X0086549Y0156417D01*
X0086571Y0156374D01*
X0086591Y0156330D01*
X0086606Y0156285D01*
X0086618Y0156238D01*
X0086626Y0156190D01*
X0086630Y0156142D01*
X0086630Y0156094D01*
X0086626Y0156046D01*
X0086618Y0155998D01*
X0086606Y0155951D01*
X0086591Y0155906D01*
X0086571Y0155862D01*
X0086549Y0155819D01*
X0086523Y0155778D01*
X0086493Y0155740D01*
X0086461Y0155704D01*
X0086426Y0155671D01*
X0086388Y0155641D01*
X0086348Y0155614D01*
X0086306Y0155591D01*
X0086262Y0155571D01*
X0086217Y0155554D01*
X0086171Y0155542D01*
X0086123Y0155533D01*
X0086075Y0155528D01*
X0086027Y0155527D01*
X0085979Y0155530D01*
X0085931Y0155537D01*
X0085884Y0155548D01*
X0085838Y0155562D01*
X0085793Y0155580D01*
X0085750Y0155602D01*
X0085709Y0155627D01*
X0085671Y0155656D01*
X0085634Y0155688D01*
X0085600Y0155722D01*
X0085570Y0155759D01*
X0085542Y0155798D01*
X0085517Y0155840D01*
X0085497Y0155884D01*
X0085479Y0155929D01*
X0085466Y0155975D01*
X0085456Y0156022D01*
X0085450Y0156070D01*
X0085448Y0156118D01*
X0236236Y0169898D02*
X0236238Y0169946D01*
X0236244Y0169994D01*
X0236254Y0170041D01*
X0236267Y0170087D01*
X0236285Y0170132D01*
X0236305Y0170176D01*
X0236330Y0170218D01*
X0236358Y0170257D01*
X0236388Y0170294D01*
X0236422Y0170328D01*
X0236459Y0170360D01*
X0236497Y0170389D01*
X0236538Y0170414D01*
X0236581Y0170436D01*
X0236626Y0170454D01*
X0236672Y0170468D01*
X0236719Y0170479D01*
X0236767Y0170486D01*
X0236815Y0170489D01*
X0236863Y0170488D01*
X0236911Y0170483D01*
X0236959Y0170474D01*
X0237005Y0170462D01*
X0237050Y0170445D01*
X0237094Y0170425D01*
X0237136Y0170402D01*
X0237176Y0170375D01*
X0237214Y0170345D01*
X0237249Y0170312D01*
X0237281Y0170276D01*
X0237311Y0170238D01*
X0237337Y0170197D01*
X0237359Y0170154D01*
X0237379Y0170110D01*
X0237394Y0170065D01*
X0237406Y0170018D01*
X0237414Y0169970D01*
X0237418Y0169922D01*
X0237418Y0169874D01*
X0237414Y0169826D01*
X0237406Y0169778D01*
X0237394Y0169731D01*
X0237379Y0169686D01*
X0237359Y0169642D01*
X0237337Y0169599D01*
X0237311Y0169558D01*
X0237281Y0169520D01*
X0237249Y0169484D01*
X0237214Y0169451D01*
X0237176Y0169421D01*
X0237136Y0169394D01*
X0237094Y0169371D01*
X0237050Y0169351D01*
X0237005Y0169334D01*
X0236959Y0169322D01*
X0236911Y0169313D01*
X0236863Y0169308D01*
X0236815Y0169307D01*
X0236767Y0169310D01*
X0236719Y0169317D01*
X0236672Y0169328D01*
X0236626Y0169342D01*
X0236581Y0169360D01*
X0236538Y0169382D01*
X0236497Y0169407D01*
X0236459Y0169436D01*
X0236422Y0169468D01*
X0236388Y0169502D01*
X0236358Y0169539D01*
X0236330Y0169578D01*
X0236305Y0169620D01*
X0236285Y0169664D01*
X0236267Y0169709D01*
X0236254Y0169755D01*
X0236244Y0169802D01*
X0236238Y0169850D01*
X0236236Y0169898D01*
D13*
X0242203Y0166992D02*
X0242203Y0165541D01*
X0245105Y0165541D01*
X0245105Y0166992D01*
X0244621Y0167476D01*
X0242686Y0167476D01*
X0242203Y0166992D01*
X0242203Y0164544D02*
X0242203Y0163577D01*
X0242203Y0164061D02*
X0245105Y0164061D01*
X0245105Y0164544D02*
X0245105Y0163577D01*
X0245105Y0162565D02*
X0242203Y0162565D01*
X0243170Y0161598D01*
X0242203Y0160630D01*
X0245105Y0160630D01*
X0244621Y0159619D02*
X0242686Y0159619D01*
X0242203Y0159135D01*
X0242203Y0157684D01*
X0245105Y0157684D01*
X0245105Y0159135D01*
X0244621Y0159619D01*
X0245105Y0156672D02*
X0242203Y0156672D01*
X0242203Y0154737D02*
X0245105Y0156672D01*
X0245105Y0154737D02*
X0242203Y0154737D01*
X0242203Y0153740D02*
X0242203Y0152773D01*
X0242203Y0153257D02*
X0245105Y0153257D01*
X0245105Y0153740D02*
X0245105Y0152773D01*
X0130932Y0046918D02*
X0130932Y0045467D01*
X0128029Y0045467D01*
X0128029Y0046918D01*
X0128513Y0047402D01*
X0128997Y0047402D01*
X0129481Y0046918D01*
X0129481Y0045467D01*
X0129481Y0046918D02*
X0129964Y0047402D01*
X0130448Y0047402D01*
X0130932Y0046918D01*
X0130932Y0044455D02*
X0128029Y0044455D01*
X0128997Y0043488D01*
X0128029Y0042520D01*
X0130932Y0042520D01*
X0130932Y0041509D02*
X0128029Y0041509D01*
X0129481Y0041509D02*
X0129481Y0039574D01*
X0130932Y0039574D02*
X0128029Y0039574D01*
X0128029Y0038562D02*
X0128029Y0036627D01*
X0128029Y0037595D02*
X0130932Y0037595D01*
X0054247Y0042007D02*
X0054247Y0042974D01*
X0053763Y0043458D01*
X0051828Y0043458D01*
X0051344Y0042974D01*
X0051344Y0042007D01*
X0051828Y0041523D01*
X0053763Y0041523D01*
X0054247Y0042007D01*
X0054247Y0044470D02*
X0054247Y0046405D01*
X0054247Y0045437D02*
X0051344Y0045437D01*
X0052312Y0044470D01*
X0052796Y0047416D02*
X0052796Y0048867D01*
X0053279Y0049351D01*
X0053763Y0049351D01*
X0054247Y0048867D01*
X0054247Y0047900D01*
X0053763Y0047416D01*
X0052796Y0047416D01*
X0051828Y0048384D01*
X0051344Y0049351D01*
X0011763Y0063158D02*
X0011763Y0064609D01*
X0011280Y0065093D01*
X0010796Y0065093D01*
X0010312Y0064609D01*
X0010312Y0063158D01*
X0010312Y0064609D02*
X0009828Y0065093D01*
X0009345Y0065093D01*
X0008861Y0064609D01*
X0008861Y0063158D01*
X0011763Y0063158D01*
X0011280Y0066104D02*
X0009345Y0066104D01*
X0008861Y0066588D01*
X0008861Y0067555D01*
X0009345Y0068039D01*
X0011280Y0068039D01*
X0011763Y0067555D01*
X0011763Y0066588D01*
X0011280Y0066104D01*
X0011280Y0069051D02*
X0009345Y0069051D01*
X0008861Y0069534D01*
X0008861Y0070502D01*
X0009345Y0070986D01*
X0011280Y0070986D01*
X0011763Y0070502D01*
X0011763Y0069534D01*
X0011280Y0069051D01*
X0008861Y0071997D02*
X0008861Y0073932D01*
X0008861Y0072965D02*
X0011763Y0072965D01*
X0011763Y0074944D02*
X0008861Y0074944D01*
X0011763Y0074944D02*
X0011763Y0076879D01*
X0011280Y0077890D02*
X0011763Y0078374D01*
X0011763Y0079341D01*
X0011280Y0079825D01*
X0009345Y0079825D01*
X0008861Y0079341D01*
X0008861Y0078374D01*
X0009345Y0077890D01*
X0011280Y0077890D01*
X0011763Y0080837D02*
X0009828Y0080837D01*
X0008861Y0081804D01*
X0009828Y0082772D01*
X0011763Y0082772D01*
X0011763Y0083783D02*
X0011763Y0085234D01*
X0011280Y0085718D01*
X0009345Y0085718D01*
X0008861Y0085234D01*
X0008861Y0083783D01*
X0011763Y0083783D01*
X0010312Y0082772D02*
X0010312Y0080837D01*
X0010312Y0086730D02*
X0010312Y0087697D01*
X0008861Y0086730D02*
X0011763Y0086730D01*
X0011763Y0088665D01*
X0011763Y0089676D02*
X0008861Y0089676D01*
X0008861Y0091127D01*
X0009345Y0091611D01*
X0010312Y0091611D01*
X0010796Y0091127D01*
X0010796Y0089676D01*
X0010796Y0090644D02*
X0011763Y0091611D01*
X0014631Y0095230D02*
X0016566Y0095230D01*
X0017050Y0095714D01*
X0017050Y0096681D01*
X0016566Y0097165D01*
X0015599Y0097165D01*
X0015599Y0096198D01*
X0014631Y0097165D02*
X0014148Y0096681D01*
X0014148Y0095714D01*
X0014631Y0095230D01*
X0014148Y0098177D02*
X0017050Y0100112D01*
X0014148Y0100112D01*
X0014148Y0101123D02*
X0014148Y0102574D01*
X0014631Y0103058D01*
X0016566Y0103058D01*
X0017050Y0102574D01*
X0017050Y0101123D01*
X0014148Y0101123D01*
X0014148Y0098177D02*
X0017050Y0098177D01*
X0024289Y0103050D02*
X0024289Y0105952D01*
X0025741Y0105952D01*
X0026224Y0105469D01*
X0026224Y0104501D01*
X0025741Y0104017D01*
X0024289Y0104017D01*
X0025257Y0104017D02*
X0026224Y0103050D01*
X0027236Y0103534D02*
X0027720Y0103050D01*
X0028687Y0103050D01*
X0029171Y0103534D01*
X0029171Y0104017D01*
X0028687Y0104501D01*
X0027720Y0104501D01*
X0027236Y0104985D01*
X0027236Y0105469D01*
X0027720Y0105952D01*
X0028687Y0105952D01*
X0029171Y0105469D01*
X0030182Y0105952D02*
X0032117Y0105952D01*
X0031150Y0105952D02*
X0031150Y0103050D01*
X0008861Y0088665D02*
X0008861Y0086730D01*
X0031468Y0128145D02*
X0032919Y0128145D01*
X0033403Y0128629D01*
X0033403Y0130564D01*
X0032919Y0131048D01*
X0031468Y0131048D01*
X0031468Y0128145D01*
X0034415Y0129597D02*
X0036350Y0129597D01*
X0035382Y0130564D02*
X0035382Y0128629D01*
X0033293Y0135482D02*
X0033777Y0135966D01*
X0033777Y0137901D01*
X0033293Y0138385D01*
X0031842Y0138385D01*
X0031842Y0135482D01*
X0033293Y0135482D01*
X0034789Y0136934D02*
X0036724Y0136934D01*
X0086767Y0161496D02*
X0086767Y0164399D01*
X0088218Y0164399D01*
X0088702Y0163915D01*
X0088702Y0162948D01*
X0088218Y0162464D01*
X0086767Y0162464D01*
X0089714Y0162464D02*
X0091649Y0164399D01*
X0092660Y0164399D02*
X0092660Y0163915D01*
X0093628Y0162948D01*
X0093628Y0161496D01*
X0093628Y0162948D02*
X0094595Y0163915D01*
X0094595Y0164399D01*
X0095607Y0164399D02*
X0097058Y0164399D01*
X0097542Y0163915D01*
X0097542Y0162948D01*
X0097058Y0162464D01*
X0095607Y0162464D01*
X0096574Y0162464D02*
X0097542Y0161496D01*
X0098553Y0161496D02*
X0098553Y0164399D01*
X0100488Y0161496D01*
X0100488Y0164399D01*
X0101500Y0163915D02*
X0101500Y0161980D01*
X0101983Y0161496D01*
X0102951Y0161496D01*
X0103435Y0161980D01*
X0103435Y0162948D01*
X0102467Y0162948D01*
X0101500Y0163915D02*
X0101983Y0164399D01*
X0102951Y0164399D01*
X0103435Y0163915D01*
X0095607Y0164399D02*
X0095607Y0161496D01*
X0091649Y0161496D02*
X0090197Y0162948D01*
X0089714Y0164399D02*
X0089714Y0161496D01*
D14*
X0094897Y0098441D02*
X0094899Y0098520D01*
X0094905Y0098599D01*
X0094915Y0098678D01*
X0094929Y0098756D01*
X0094946Y0098833D01*
X0094968Y0098909D01*
X0094993Y0098984D01*
X0095023Y0099057D01*
X0095055Y0099129D01*
X0095092Y0099200D01*
X0095132Y0099268D01*
X0095175Y0099334D01*
X0095221Y0099398D01*
X0095271Y0099460D01*
X0095324Y0099519D01*
X0095379Y0099575D01*
X0095438Y0099629D01*
X0095499Y0099679D01*
X0095562Y0099727D01*
X0095628Y0099771D01*
X0095696Y0099812D01*
X0095766Y0099849D01*
X0095837Y0099883D01*
X0095911Y0099913D01*
X0095985Y0099939D01*
X0096061Y0099961D01*
X0096138Y0099980D01*
X0096216Y0099995D01*
X0096294Y0100006D01*
X0096373Y0100013D01*
X0096452Y0100016D01*
X0096531Y0100015D01*
X0096610Y0100010D01*
X0096689Y0100001D01*
X0096767Y0099988D01*
X0096844Y0099971D01*
X0096921Y0099951D01*
X0096996Y0099926D01*
X0097070Y0099898D01*
X0097143Y0099866D01*
X0097213Y0099831D01*
X0097282Y0099792D01*
X0097349Y0099749D01*
X0097414Y0099703D01*
X0097476Y0099655D01*
X0097536Y0099603D01*
X0097593Y0099548D01*
X0097647Y0099490D01*
X0097698Y0099430D01*
X0097746Y0099367D01*
X0097791Y0099302D01*
X0097833Y0099234D01*
X0097871Y0099165D01*
X0097905Y0099094D01*
X0097936Y0099021D01*
X0097964Y0098946D01*
X0097987Y0098871D01*
X0098007Y0098794D01*
X0098023Y0098717D01*
X0098035Y0098638D01*
X0098043Y0098560D01*
X0098047Y0098481D01*
X0098047Y0098401D01*
X0098043Y0098322D01*
X0098035Y0098244D01*
X0098023Y0098165D01*
X0098007Y0098088D01*
X0097987Y0098011D01*
X0097964Y0097936D01*
X0097936Y0097861D01*
X0097905Y0097788D01*
X0097871Y0097717D01*
X0097833Y0097648D01*
X0097791Y0097580D01*
X0097746Y0097515D01*
X0097698Y0097452D01*
X0097647Y0097392D01*
X0097593Y0097334D01*
X0097536Y0097279D01*
X0097476Y0097227D01*
X0097414Y0097179D01*
X0097349Y0097133D01*
X0097282Y0097090D01*
X0097213Y0097051D01*
X0097143Y0097016D01*
X0097070Y0096984D01*
X0096996Y0096956D01*
X0096921Y0096931D01*
X0096844Y0096911D01*
X0096767Y0096894D01*
X0096689Y0096881D01*
X0096610Y0096872D01*
X0096531Y0096867D01*
X0096452Y0096866D01*
X0096373Y0096869D01*
X0096294Y0096876D01*
X0096216Y0096887D01*
X0096138Y0096902D01*
X0096061Y0096921D01*
X0095985Y0096943D01*
X0095911Y0096969D01*
X0095837Y0096999D01*
X0095766Y0097033D01*
X0095696Y0097070D01*
X0095628Y0097111D01*
X0095562Y0097155D01*
X0095499Y0097203D01*
X0095438Y0097253D01*
X0095379Y0097307D01*
X0095324Y0097363D01*
X0095271Y0097422D01*
X0095221Y0097484D01*
X0095175Y0097548D01*
X0095132Y0097614D01*
X0095092Y0097682D01*
X0095055Y0097753D01*
X0095023Y0097825D01*
X0094993Y0097898D01*
X0094968Y0097973D01*
X0094946Y0098049D01*
X0094929Y0098126D01*
X0094915Y0098204D01*
X0094905Y0098283D01*
X0094899Y0098362D01*
X0094897Y0098441D01*
D15*
X0088012Y0103936D02*
X0088012Y0108540D01*
X0085710Y0106238D01*
X0088780Y0106238D01*
X0084176Y0103936D02*
X0081106Y0103936D01*
X0082641Y0103936D02*
X0082641Y0108540D01*
X0081106Y0107005D01*
X0079572Y0107773D02*
X0078804Y0108540D01*
X0077270Y0108540D01*
X0076502Y0107773D01*
X0076502Y0104704D01*
X0077270Y0103936D01*
X0078804Y0103936D01*
X0079572Y0104704D01*
X0075229Y0104829D02*
X0075229Y0106363D01*
X0074462Y0107131D01*
X0075229Y0108665D02*
X0075229Y0111735D01*
X0075229Y0113269D02*
X0075229Y0116339D01*
X0075229Y0114804D02*
X0070625Y0114804D01*
X0072160Y0113269D01*
X0067355Y0114037D02*
X0067355Y0115571D01*
X0066588Y0116339D01*
X0063519Y0116339D01*
X0066588Y0113269D01*
X0067355Y0114037D01*
X0066588Y0113269D02*
X0063519Y0113269D01*
X0062751Y0114037D01*
X0062751Y0115571D01*
X0063519Y0116339D01*
X0059481Y0116339D02*
X0059481Y0113269D01*
X0056412Y0116339D01*
X0055645Y0116339D01*
X0054877Y0115571D01*
X0054877Y0114037D01*
X0055645Y0113269D01*
X0054877Y0110200D02*
X0059481Y0110200D01*
X0059481Y0108665D02*
X0059481Y0111735D01*
X0062751Y0110200D02*
X0067355Y0110200D01*
X0067355Y0108665D02*
X0067355Y0111735D01*
X0070625Y0110200D02*
X0075229Y0110200D01*
X0078499Y0110967D02*
X0079267Y0111735D01*
X0080801Y0111735D01*
X0081569Y0110967D01*
X0081569Y0108665D01*
X0083103Y0108665D02*
X0078499Y0108665D01*
X0078499Y0110967D01*
X0079267Y0113269D02*
X0078499Y0114037D01*
X0078499Y0115571D01*
X0079267Y0116339D01*
X0080034Y0116339D01*
X0080801Y0115571D01*
X0081569Y0116339D01*
X0082336Y0116339D01*
X0083103Y0115571D01*
X0083103Y0114037D01*
X0082336Y0113269D01*
X0083103Y0111735D02*
X0081569Y0110200D01*
X0080801Y0114804D02*
X0080801Y0115571D01*
X0072160Y0108665D02*
X0070625Y0110200D01*
X0071393Y0107131D02*
X0070625Y0106363D01*
X0070625Y0104829D01*
X0071393Y0104061D01*
X0074462Y0104061D01*
X0075229Y0104829D01*
X0067355Y0104829D02*
X0067355Y0106363D01*
X0066588Y0107131D01*
X0067355Y0104829D02*
X0066588Y0104061D01*
X0063519Y0104061D01*
X0062751Y0104829D01*
X0062751Y0106363D01*
X0063519Y0107131D01*
X0064286Y0108665D02*
X0062751Y0110200D01*
X0059481Y0106363D02*
X0058714Y0107131D01*
X0059481Y0106363D02*
X0059481Y0104829D01*
X0058714Y0104061D01*
X0055645Y0104061D01*
X0054877Y0104829D01*
X0054877Y0106363D01*
X0055645Y0107131D01*
X0056412Y0108665D02*
X0054877Y0110200D01*
X0049639Y0121208D02*
X0045035Y0121208D01*
X0045035Y0123510D01*
X0045802Y0124277D01*
X0047337Y0124277D01*
X0048104Y0123510D01*
X0048104Y0121208D01*
X0048104Y0122743D02*
X0049639Y0124277D01*
X0049639Y0125812D02*
X0049639Y0128881D01*
X0049639Y0127346D02*
X0045035Y0127346D01*
X0046569Y0125812D01*
X0051850Y0130452D02*
X0052617Y0129684D01*
X0054152Y0129684D01*
X0054919Y0130452D01*
X0054919Y0134288D01*
X0056454Y0133521D02*
X0057221Y0134288D01*
X0058755Y0134288D01*
X0059523Y0133521D01*
X0061057Y0133521D02*
X0061825Y0134288D01*
X0063359Y0134288D01*
X0064127Y0133521D01*
X0064127Y0132754D01*
X0063359Y0131986D01*
X0064127Y0131219D01*
X0064127Y0130452D01*
X0063359Y0129684D01*
X0061825Y0129684D01*
X0061057Y0130452D01*
X0059523Y0130452D02*
X0059523Y0131219D01*
X0058755Y0131986D01*
X0057221Y0131986D01*
X0056454Y0132754D01*
X0056454Y0133521D01*
X0057988Y0135055D02*
X0057988Y0128917D01*
X0057221Y0129684D02*
X0058755Y0129684D01*
X0059523Y0130452D01*
X0057221Y0129684D02*
X0056454Y0130452D01*
X0051850Y0130452D02*
X0051850Y0134288D01*
X0062592Y0131986D02*
X0063359Y0131986D01*
X0041565Y0120113D02*
X0041565Y0117043D01*
X0038495Y0120113D01*
X0037728Y0120113D01*
X0036961Y0119345D01*
X0036961Y0117811D01*
X0037728Y0117043D01*
X0037728Y0115509D02*
X0039263Y0115509D01*
X0040030Y0114741D01*
X0040030Y0112439D01*
X0041565Y0112439D02*
X0036961Y0112439D01*
X0036961Y0114741D01*
X0037728Y0115509D01*
X0040030Y0113974D02*
X0041565Y0115509D01*
X0036903Y0101528D02*
X0036135Y0101528D01*
X0035368Y0100761D01*
X0035368Y0099994D01*
X0035368Y0100761D02*
X0034601Y0101528D01*
X0033833Y0101528D01*
X0033066Y0100761D01*
X0033066Y0099226D01*
X0033833Y0098459D01*
X0036903Y0098459D02*
X0037670Y0099226D01*
X0037670Y0100761D01*
X0036903Y0101528D01*
X0037670Y0096924D02*
X0037670Y0093855D01*
X0037670Y0095390D02*
X0033066Y0095390D01*
X0034601Y0093855D01*
X0033833Y0092320D02*
X0033066Y0091553D01*
X0033066Y0090018D01*
X0033833Y0089251D01*
X0036903Y0089251D01*
X0037670Y0090018D01*
X0037670Y0091553D01*
X0036903Y0092320D01*
X0043066Y0065157D02*
X0043066Y0062088D01*
X0045368Y0062088D01*
X0044601Y0063623D01*
X0044601Y0064390D01*
X0045368Y0065157D01*
X0046903Y0065157D01*
X0047670Y0064390D01*
X0047670Y0062855D01*
X0046903Y0062088D01*
X0047670Y0060554D02*
X0047670Y0057484D01*
X0047670Y0059019D02*
X0043066Y0059019D01*
X0044601Y0057484D01*
X0043833Y0055950D02*
X0043066Y0055182D01*
X0043066Y0053648D01*
X0043833Y0052880D01*
X0046903Y0052880D01*
X0047670Y0053648D01*
X0047670Y0055182D01*
X0046903Y0055950D01*
X0070613Y0030065D02*
X0073683Y0026996D01*
X0074450Y0027763D01*
X0074450Y0029298D01*
X0073683Y0030065D01*
X0070613Y0030065D01*
X0069846Y0029298D01*
X0069846Y0027763D01*
X0070613Y0026996D01*
X0073683Y0026996D01*
X0074450Y0025461D02*
X0074450Y0022392D01*
X0074450Y0020857D02*
X0072915Y0019323D01*
X0072915Y0020090D02*
X0072915Y0017788D01*
X0074450Y0017788D02*
X0069846Y0017788D01*
X0069846Y0020090D01*
X0070613Y0020857D01*
X0072148Y0020857D01*
X0072915Y0020090D01*
X0071381Y0022392D02*
X0069846Y0023927D01*
X0074450Y0023927D01*
X0077796Y0023927D02*
X0082400Y0023927D01*
X0082400Y0025461D02*
X0082400Y0022392D01*
X0082400Y0020857D02*
X0080865Y0019323D01*
X0080865Y0020090D02*
X0080865Y0017788D01*
X0082400Y0017788D02*
X0077796Y0017788D01*
X0077796Y0020090D01*
X0078563Y0020857D01*
X0080098Y0020857D01*
X0080865Y0020090D01*
X0079331Y0022392D02*
X0077796Y0023927D01*
X0079331Y0026996D02*
X0077796Y0028531D01*
X0082400Y0028531D01*
X0082400Y0030065D02*
X0082400Y0026996D01*
X0081457Y0038146D02*
X0079922Y0038146D01*
X0079155Y0038913D01*
X0079155Y0041982D01*
X0079922Y0042750D01*
X0081457Y0042750D01*
X0082224Y0041982D01*
X0083759Y0041215D02*
X0085294Y0042750D01*
X0085294Y0038146D01*
X0086828Y0038146D02*
X0083759Y0038146D01*
X0082224Y0038913D02*
X0081457Y0038146D01*
X0088363Y0038913D02*
X0089130Y0038146D01*
X0090665Y0038146D01*
X0091432Y0038913D01*
X0091432Y0039680D01*
X0090665Y0040448D01*
X0088363Y0040448D01*
X0088363Y0038913D01*
X0088363Y0040448D02*
X0089898Y0041982D01*
X0091432Y0042750D01*
X0095761Y0023952D02*
X0094994Y0023185D01*
X0094994Y0020115D01*
X0095761Y0019348D01*
X0097296Y0019348D01*
X0098063Y0020115D01*
X0099598Y0020115D02*
X0099598Y0019348D01*
X0099598Y0020115D02*
X0102667Y0023185D01*
X0102667Y0023952D01*
X0099598Y0023952D01*
X0098063Y0023185D02*
X0097296Y0023952D01*
X0095761Y0023952D01*
X0106880Y0023200D02*
X0106880Y0020131D01*
X0107647Y0019364D01*
X0109181Y0019364D01*
X0109949Y0020131D01*
X0111483Y0020131D02*
X0112251Y0019364D01*
X0113785Y0019364D01*
X0114553Y0020131D01*
X0114553Y0023200D01*
X0113785Y0023968D01*
X0112251Y0023968D01*
X0111483Y0023200D01*
X0111483Y0022433D01*
X0112251Y0021666D01*
X0114553Y0021666D01*
X0109949Y0023200D02*
X0109181Y0023968D01*
X0107647Y0023968D01*
X0106880Y0023200D01*
X0121806Y0015178D02*
X0121806Y0013643D01*
X0122574Y0012876D01*
X0123341Y0012876D01*
X0124108Y0013643D01*
X0124108Y0015178D01*
X0124876Y0015945D01*
X0125643Y0015945D01*
X0126410Y0015178D01*
X0126410Y0013643D01*
X0125643Y0012876D01*
X0124876Y0012876D01*
X0124108Y0013643D01*
X0124108Y0015178D02*
X0123341Y0015945D01*
X0122574Y0015945D01*
X0121806Y0015178D01*
X0122574Y0011341D02*
X0121806Y0010574D01*
X0121806Y0009039D01*
X0122574Y0008272D01*
X0125643Y0008272D01*
X0126410Y0009039D01*
X0126410Y0010574D01*
X0125643Y0011341D01*
X0184100Y0041600D02*
X0187169Y0041600D01*
X0185635Y0041600D02*
X0185635Y0046204D01*
X0184100Y0044669D01*
X0184100Y0049100D02*
X0186402Y0049100D01*
X0187169Y0049867D01*
X0187169Y0052937D01*
X0186402Y0053704D01*
X0184100Y0053704D01*
X0184100Y0049100D01*
X0184867Y0056600D02*
X0186402Y0056600D01*
X0187169Y0057367D01*
X0187169Y0058902D01*
X0185635Y0058902D01*
X0187169Y0060437D02*
X0186402Y0061204D01*
X0184867Y0061204D01*
X0184100Y0060437D01*
X0184100Y0057367D01*
X0184867Y0056600D01*
X0204100Y0058135D02*
X0205635Y0056600D01*
X0207169Y0058135D01*
X0207169Y0061204D01*
X0204100Y0061204D02*
X0204100Y0058135D01*
X0204867Y0053704D02*
X0204100Y0052937D01*
X0204100Y0049867D01*
X0204867Y0049100D01*
X0206402Y0049100D01*
X0207169Y0049867D01*
X0206402Y0046204D02*
X0204867Y0046204D01*
X0204100Y0045437D01*
X0206402Y0046204D02*
X0207169Y0045437D01*
X0207169Y0044669D01*
X0204100Y0041600D01*
X0207169Y0041600D01*
X0207169Y0052937D02*
X0206402Y0053704D01*
X0204867Y0053704D01*
X0239315Y0128482D02*
X0242385Y0128482D01*
X0243152Y0129249D01*
X0243152Y0130784D01*
X0242385Y0131551D01*
X0243152Y0133086D02*
X0240083Y0136155D01*
X0239315Y0136155D01*
X0238548Y0135388D01*
X0238548Y0133853D01*
X0239315Y0133086D01*
X0239315Y0131551D02*
X0238548Y0130784D01*
X0238548Y0129249D01*
X0239315Y0128482D01*
X0243152Y0133086D02*
X0243152Y0136155D01*
X0231283Y0140445D02*
X0230516Y0139678D01*
X0228981Y0139678D01*
X0228214Y0140445D01*
X0226680Y0140445D02*
X0225912Y0139678D01*
X0224378Y0139678D01*
X0223610Y0140445D01*
X0223610Y0143515D01*
X0224378Y0144282D01*
X0225912Y0144282D01*
X0226680Y0143515D01*
X0228214Y0143515D02*
X0228981Y0144282D01*
X0230516Y0144282D01*
X0231283Y0143515D01*
X0231283Y0142747D01*
X0230516Y0141980D01*
X0231283Y0141213D01*
X0231283Y0140445D01*
X0230516Y0141980D02*
X0229749Y0141980D01*
X0219409Y0139658D02*
X0216339Y0139658D01*
X0217874Y0139658D02*
X0217874Y0144262D01*
X0216339Y0142728D01*
X0214805Y0143495D02*
X0214037Y0144262D01*
X0212503Y0144262D01*
X0211735Y0143495D01*
X0211735Y0140426D01*
X0212503Y0139658D01*
X0214037Y0139658D01*
X0214805Y0140426D01*
X0239167Y0182100D02*
X0240702Y0182100D01*
X0241469Y0182867D01*
X0239167Y0182100D02*
X0238400Y0182867D01*
X0238400Y0185937D01*
X0239167Y0186704D01*
X0240702Y0186704D01*
X0241469Y0185937D01*
X0240702Y0189600D02*
X0238400Y0189600D01*
X0238400Y0194204D01*
X0240702Y0194204D01*
X0241469Y0193437D01*
X0241469Y0190367D01*
X0240702Y0189600D01*
X0239935Y0197100D02*
X0241469Y0198635D01*
X0241469Y0201704D01*
X0238400Y0201704D02*
X0238400Y0198635D01*
X0239935Y0197100D01*
X0239167Y0204600D02*
X0240702Y0204600D01*
X0241469Y0205367D01*
X0241469Y0206902D01*
X0239935Y0206902D01*
X0241469Y0208437D02*
X0240702Y0209204D01*
X0239167Y0209204D01*
X0238400Y0208437D01*
X0238400Y0205367D01*
X0239167Y0204600D01*
X0193400Y0210200D02*
X0190331Y0213269D01*
X0189563Y0213269D01*
X0188796Y0212502D01*
X0188796Y0210967D01*
X0189563Y0210200D01*
X0193400Y0210200D02*
X0193400Y0213269D01*
X0193400Y0193269D02*
X0193400Y0190200D01*
X0193400Y0191735D02*
X0188796Y0191735D01*
X0190331Y0190200D01*
X0146069Y0190869D02*
X0146069Y0191637D01*
X0145302Y0192404D01*
X0143767Y0192404D01*
X0143000Y0191637D01*
X0146069Y0190869D02*
X0143000Y0187800D01*
X0146069Y0187800D01*
X0145302Y0195300D02*
X0143767Y0195300D01*
X0143000Y0196067D01*
X0143000Y0199137D01*
X0143767Y0199904D01*
X0145302Y0199904D01*
X0146069Y0199137D01*
X0146069Y0196067D02*
X0145302Y0195300D01*
X0144535Y0202800D02*
X0146069Y0204335D01*
X0146069Y0207404D01*
X0143000Y0207404D02*
X0143000Y0204335D01*
X0144535Y0202800D01*
X0126069Y0203567D02*
X0126069Y0205102D01*
X0124535Y0205102D01*
X0126069Y0206637D02*
X0125302Y0207404D01*
X0123767Y0207404D01*
X0123000Y0206637D01*
X0123000Y0203567D01*
X0123767Y0202800D01*
X0125302Y0202800D01*
X0126069Y0203567D01*
X0125302Y0199904D02*
X0123000Y0199904D01*
X0123000Y0195300D01*
X0125302Y0195300D01*
X0126069Y0196067D01*
X0126069Y0199137D01*
X0125302Y0199904D01*
X0124535Y0192404D02*
X0124535Y0187800D01*
X0126069Y0187800D02*
X0123000Y0187800D01*
X0123000Y0190869D02*
X0124535Y0192404D01*
X0123789Y0157668D02*
X0123789Y0154599D01*
X0126091Y0154599D01*
X0125324Y0156133D01*
X0125324Y0156901D01*
X0126091Y0157668D01*
X0127626Y0157668D01*
X0128393Y0156901D01*
X0128393Y0155366D01*
X0127626Y0154599D01*
X0127626Y0153064D02*
X0128393Y0152297D01*
X0128393Y0150762D01*
X0127626Y0149995D01*
X0124557Y0149995D01*
X0123789Y0150762D01*
X0123789Y0152297D01*
X0124557Y0153064D01*
X0118369Y0149259D02*
X0118369Y0147724D01*
X0117602Y0146957D01*
X0116067Y0146957D01*
X0116067Y0149259D01*
X0116835Y0150026D01*
X0117602Y0150026D01*
X0118369Y0149259D01*
X0116067Y0146957D02*
X0114533Y0148491D01*
X0113765Y0150026D01*
X0114533Y0145422D02*
X0113765Y0144655D01*
X0113765Y0143120D01*
X0114533Y0142353D01*
X0117602Y0142353D01*
X0118369Y0143120D01*
X0118369Y0144655D01*
X0117602Y0145422D01*
X0116077Y0138100D02*
X0116077Y0135031D01*
X0113775Y0137333D01*
X0118379Y0137333D01*
X0117611Y0133496D02*
X0118379Y0132729D01*
X0118379Y0131194D01*
X0117611Y0130427D01*
X0114542Y0130427D01*
X0113775Y0131194D01*
X0113775Y0132729D01*
X0114542Y0133496D01*
M02*
