G75*
%MOIN*%
%OFA0B0*%
%FSLAX25Y25*%
%IPPOS*%
%LPD*%
%AMOC8*
5,1,8,0,0,1.08239X$1,22.5*
%
%ADD10C,0.05543*%
%ADD11C,0.07087*%
%ADD12C,0.04756*%
%ADD13C,0.06000*%
%ADD14C,0.03100*%
%ADD15C,0.02800*%
%ADD16C,0.03118*%
%ADD17C,0.07500*%
%ADD18C,0.01000*%
D10*
X0019923Y0131292D03*
X0019064Y0150959D03*
D11*
X0008273Y0154428D03*
X0009475Y0126896D03*
D12*
X0130300Y0191967D03*
X0130300Y0199467D03*
X0130300Y0206967D03*
X0137800Y0206967D03*
X0137800Y0199467D03*
X0137800Y0191967D03*
X0181100Y0166467D03*
X0188600Y0166467D03*
X0188600Y0158967D03*
X0181100Y0158967D03*
X0181100Y0151467D03*
X0188600Y0151467D03*
X0191100Y0199367D03*
X0191100Y0206867D03*
X0245700Y0208767D03*
X0245700Y0201267D03*
X0245700Y0193767D03*
X0245700Y0186267D03*
D13*
X0137800Y0174267D03*
X0127800Y0174267D03*
X0014725Y0066064D03*
X0015074Y0056070D03*
X0060700Y0012667D03*
X0070700Y0012667D03*
D14*
X0079900Y0014317D03*
X0084450Y0016567D03*
X0087300Y0020517D03*
X0080100Y0019667D03*
X0084300Y0011267D03*
X0089800Y0013117D03*
X0097750Y0012217D03*
X0103650Y0012067D03*
X0110400Y0010317D03*
X0118250Y0008467D03*
X0121300Y0032267D03*
X0126000Y0031917D03*
X0147850Y0021667D03*
X0138900Y0054767D03*
X0140600Y0058467D03*
X0134600Y0060267D03*
X0125300Y0057267D03*
X0106200Y0055867D03*
X0097150Y0058467D03*
X0092500Y0059767D03*
X0078350Y0061117D03*
X0068300Y0069067D03*
X0064900Y0063067D03*
X0061000Y0060567D03*
X0061163Y0066883D03*
X0059500Y0078567D03*
X0057044Y0081723D03*
X0066600Y0079867D03*
X0065500Y0091867D03*
X0062300Y0094867D03*
X0070400Y0091967D03*
X0075100Y0093567D03*
X0083700Y0094467D03*
X0079500Y0105667D03*
X0075100Y0107867D03*
X0068900Y0106167D03*
X0053000Y0107867D03*
X0045200Y0092567D03*
X0034600Y0087767D03*
X0044800Y0080267D03*
X0041800Y0074567D03*
X0034900Y0070667D03*
X0034350Y0065267D03*
X0029850Y0057717D03*
X0022150Y0062667D03*
X0011800Y0083567D03*
X0035400Y0107167D03*
X0026400Y0118267D03*
X0011100Y0136967D03*
X0036700Y0158217D03*
X0045700Y0152267D03*
X0050300Y0144267D03*
X0055350Y0153317D03*
X0079800Y0142867D03*
X0082100Y0158867D03*
X0094600Y0178067D03*
X0100600Y0177767D03*
X0106200Y0177967D03*
X0106850Y0162617D03*
X0111000Y0162767D03*
X0116800Y0159517D03*
X0088150Y0182167D03*
X0142700Y0194867D03*
X0149800Y0192617D03*
X0155500Y0172267D03*
X0157300Y0168367D03*
X0160700Y0165067D03*
X0147800Y0165067D03*
X0169000Y0181067D03*
X0201900Y0190717D03*
X0210154Y0184867D03*
X0215200Y0184667D03*
X0219700Y0185767D03*
X0219200Y0174067D03*
X0234700Y0173167D03*
X0242000Y0148967D03*
X0243100Y0143817D03*
X0230750Y0145917D03*
X0213500Y0129717D03*
X0210650Y0125617D03*
X0205250Y0126967D03*
X0206700Y0120867D03*
X0216950Y0124567D03*
X0207600Y0145167D03*
X0207100Y0149267D03*
X0183350Y0138567D03*
X0178050Y0138617D03*
X0173350Y0136167D03*
X0179400Y0133867D03*
X0174350Y0142567D03*
X0180500Y0143767D03*
X0152100Y0124967D03*
X0142700Y0121467D03*
X0142850Y0129117D03*
X0127850Y0125167D03*
X0127700Y0119717D03*
X0125500Y0102867D03*
X0135900Y0103267D03*
X0123500Y0090367D03*
X0110600Y0091067D03*
X0109600Y0087267D03*
X0108600Y0083467D03*
X0087200Y0075567D03*
X0071900Y0049467D03*
X0065700Y0043967D03*
X0061300Y0043067D03*
X0055700Y0038267D03*
X0059800Y0035967D03*
X0074800Y0042767D03*
X0077800Y0047267D03*
X0090300Y0042417D03*
X0137800Y0078667D03*
X0148300Y0058667D03*
X0152400Y0106367D03*
X0105050Y0114267D03*
X0092800Y0108367D03*
X0085700Y0107067D03*
X0083700Y0118467D03*
X0071800Y0124067D03*
X0062800Y0128867D03*
D15*
X0093500Y0146567D03*
X0097450Y0146567D03*
X0097450Y0150517D03*
X0093500Y0150517D03*
X0028900Y0081967D03*
X0024250Y0081967D03*
X0024200Y0077317D03*
X0028900Y0077317D03*
X0111250Y0046167D03*
X0115200Y0046167D03*
X0115200Y0042217D03*
X0111250Y0042217D03*
X0225400Y0160317D03*
X0229350Y0160317D03*
X0229350Y0164317D03*
X0225400Y0164317D03*
D16*
X0163800Y0181467D03*
X0159500Y0180867D03*
X0102600Y0129967D03*
X0102400Y0117767D03*
X0090500Y0086567D03*
X0086500Y0079967D03*
X0084300Y0071067D03*
X0088700Y0066367D03*
X0068200Y0060667D03*
X0062700Y0076367D03*
X0027200Y0047467D03*
X0027200Y0038267D03*
X0040000Y0029367D03*
X0036900Y0022667D03*
X0056500Y0025767D03*
X0084100Y0031867D03*
D17*
X0015400Y0095467D03*
X0104300Y0124267D03*
X0156400Y0014467D03*
X0245700Y0176967D03*
D18*
X0055651Y0014849D02*
X0016521Y0014849D01*
X0015618Y0015847D02*
X0056102Y0015847D01*
X0056037Y0015782D02*
X0055200Y0013761D01*
X0055200Y0011573D01*
X0056037Y0009551D01*
X0057584Y0008004D01*
X0058882Y0007467D01*
X0023200Y0007467D01*
X0013700Y0017967D01*
X0012055Y0051367D01*
X0013980Y0050570D01*
X0016169Y0050570D01*
X0017610Y0051167D01*
X0025526Y0051167D01*
X0024901Y0050908D01*
X0023759Y0049766D01*
X0023141Y0048274D01*
X0023141Y0046659D01*
X0023759Y0045167D01*
X0024901Y0044026D01*
X0026393Y0043408D01*
X0028007Y0043408D01*
X0029499Y0044026D01*
X0030641Y0045167D01*
X0031259Y0046659D01*
X0031259Y0048274D01*
X0030641Y0049766D01*
X0029499Y0050908D01*
X0028874Y0051167D01*
X0031978Y0051167D01*
X0032551Y0051158D01*
X0032573Y0051167D01*
X0032597Y0051167D01*
X0033128Y0051387D01*
X0033661Y0051598D01*
X0033678Y0051614D01*
X0033699Y0051623D01*
X0034106Y0052030D01*
X0043316Y0060967D01*
X0056950Y0060967D01*
X0056950Y0059761D01*
X0057567Y0058273D01*
X0058706Y0057133D01*
X0060194Y0056517D01*
X0061806Y0056517D01*
X0063294Y0057133D01*
X0064433Y0058273D01*
X0064616Y0058713D01*
X0064759Y0058367D01*
X0065901Y0057226D01*
X0067393Y0056608D01*
X0069007Y0056608D01*
X0069862Y0056962D01*
X0069993Y0056831D01*
X0072313Y0053517D01*
X0071094Y0053517D01*
X0069606Y0052900D01*
X0068467Y0051761D01*
X0067850Y0050272D01*
X0067850Y0048661D01*
X0068467Y0047173D01*
X0069606Y0046033D01*
X0071094Y0045417D01*
X0071722Y0045417D01*
X0071367Y0045061D01*
X0070750Y0043572D01*
X0070750Y0043242D01*
X0069750Y0044214D01*
X0069750Y0044772D01*
X0069133Y0046261D01*
X0067994Y0047400D01*
X0066506Y0048017D01*
X0064894Y0048017D01*
X0063406Y0047400D01*
X0062825Y0046819D01*
X0062106Y0047117D01*
X0060494Y0047117D01*
X0059006Y0046500D01*
X0057867Y0045361D01*
X0057250Y0043872D01*
X0057250Y0042261D01*
X0057376Y0041956D01*
X0056506Y0042317D01*
X0054894Y0042317D01*
X0053406Y0041700D01*
X0052267Y0040561D01*
X0051650Y0039072D01*
X0051650Y0037461D01*
X0052267Y0035973D01*
X0052700Y0035539D01*
X0052700Y0032615D01*
X0052683Y0032570D01*
X0052700Y0032020D01*
X0052700Y0031470D01*
X0052718Y0031426D01*
X0052720Y0031377D01*
X0052946Y0030876D01*
X0053157Y0030367D01*
X0053191Y0030333D01*
X0053210Y0030289D01*
X0053611Y0029913D01*
X0054001Y0029523D01*
X0054045Y0029505D01*
X0057700Y0026069D01*
X0057700Y0017377D01*
X0057584Y0017329D01*
X0056037Y0015782D01*
X0057101Y0016846D02*
X0014714Y0016846D01*
X0013811Y0017844D02*
X0057700Y0017844D01*
X0057700Y0018843D02*
X0038275Y0018843D01*
X0037707Y0018608D02*
X0039199Y0019226D01*
X0040341Y0020367D01*
X0040959Y0021859D01*
X0040959Y0023474D01*
X0040341Y0024966D01*
X0039999Y0025308D01*
X0040807Y0025308D01*
X0042299Y0025926D01*
X0043441Y0027067D01*
X0044059Y0028559D01*
X0044059Y0030174D01*
X0043441Y0031666D01*
X0042299Y0032808D01*
X0040807Y0033426D01*
X0039193Y0033426D01*
X0037701Y0032808D01*
X0036559Y0031666D01*
X0035941Y0030174D01*
X0035941Y0028559D01*
X0036559Y0027067D01*
X0036901Y0026726D01*
X0036093Y0026726D01*
X0034601Y0026108D01*
X0033459Y0024966D01*
X0032841Y0023474D01*
X0032841Y0021859D01*
X0033459Y0020367D01*
X0034601Y0019226D01*
X0036093Y0018608D01*
X0037707Y0018608D01*
X0035525Y0018843D02*
X0013657Y0018843D01*
X0013608Y0019841D02*
X0033985Y0019841D01*
X0033263Y0020840D02*
X0013558Y0020840D01*
X0013509Y0021838D02*
X0032850Y0021838D01*
X0032841Y0022837D02*
X0013460Y0022837D01*
X0013411Y0023835D02*
X0032991Y0023835D01*
X0033404Y0024834D02*
X0013362Y0024834D01*
X0013313Y0025832D02*
X0034325Y0025832D01*
X0036795Y0026831D02*
X0013263Y0026831D01*
X0013214Y0027829D02*
X0036243Y0027829D01*
X0035941Y0028828D02*
X0013165Y0028828D01*
X0013116Y0029826D02*
X0035941Y0029826D01*
X0036211Y0030825D02*
X0013067Y0030825D01*
X0013017Y0031823D02*
X0036716Y0031823D01*
X0037735Y0032822D02*
X0012968Y0032822D01*
X0012919Y0033821D02*
X0052700Y0033821D01*
X0052700Y0034819D02*
X0029483Y0034819D01*
X0029499Y0034826D02*
X0030641Y0035967D01*
X0031259Y0037459D01*
X0031259Y0039074D01*
X0030641Y0040566D01*
X0029499Y0041708D01*
X0028007Y0042326D01*
X0026393Y0042326D01*
X0024901Y0041708D01*
X0023759Y0040566D01*
X0023141Y0039074D01*
X0023141Y0037459D01*
X0023759Y0035967D01*
X0024901Y0034826D01*
X0026393Y0034208D01*
X0028007Y0034208D01*
X0029499Y0034826D01*
X0030491Y0035818D02*
X0052422Y0035818D01*
X0051917Y0036816D02*
X0030993Y0036816D01*
X0031259Y0037815D02*
X0051650Y0037815D01*
X0051650Y0038813D02*
X0031259Y0038813D01*
X0030954Y0039812D02*
X0051956Y0039812D01*
X0052516Y0040810D02*
X0030397Y0040810D01*
X0029256Y0041809D02*
X0053668Y0041809D01*
X0057250Y0042807D02*
X0012476Y0042807D01*
X0012526Y0041809D02*
X0025144Y0041809D01*
X0024003Y0040810D02*
X0012575Y0040810D01*
X0012624Y0039812D02*
X0023446Y0039812D01*
X0023141Y0038813D02*
X0012673Y0038813D01*
X0012722Y0037815D02*
X0023141Y0037815D01*
X0023407Y0036816D02*
X0012771Y0036816D01*
X0012821Y0035818D02*
X0023909Y0035818D01*
X0024916Y0034819D02*
X0012870Y0034819D01*
X0012427Y0043806D02*
X0025432Y0043806D01*
X0024122Y0044804D02*
X0012378Y0044804D01*
X0012329Y0045803D02*
X0023496Y0045803D01*
X0023141Y0046801D02*
X0012280Y0046801D01*
X0012230Y0047800D02*
X0023141Y0047800D01*
X0023358Y0048798D02*
X0012181Y0048798D01*
X0012132Y0049797D02*
X0023790Y0049797D01*
X0024788Y0050795D02*
X0016713Y0050795D01*
X0013436Y0050795D02*
X0012083Y0050795D01*
X0016400Y0054167D02*
X0032000Y0054167D01*
X0042100Y0063967D01*
X0064000Y0063967D01*
X0064900Y0063067D01*
X0068300Y0069067D02*
X0061700Y0070267D01*
X0041800Y0068567D01*
X0035500Y0062267D01*
X0029900Y0062267D01*
X0025700Y0066467D01*
X0015100Y0066467D01*
X0014725Y0066064D01*
X0018800Y0069767D02*
X0030889Y0069767D01*
X0030850Y0069861D02*
X0031467Y0068373D01*
X0032606Y0067233D01*
X0034094Y0066617D01*
X0035607Y0066617D01*
X0034257Y0065267D01*
X0031143Y0065267D01*
X0027399Y0069010D01*
X0026297Y0069467D01*
X0019101Y0069467D01*
X0017841Y0070726D01*
X0015820Y0071564D01*
X0013631Y0071564D01*
X0011610Y0070726D01*
X0011125Y0070241D01*
X0010661Y0079655D01*
X0010994Y0079517D01*
X0012606Y0079517D01*
X0014094Y0080133D01*
X0015233Y0081273D01*
X0015850Y0082761D01*
X0015850Y0084372D01*
X0015233Y0085861D01*
X0014094Y0087000D01*
X0012606Y0087617D01*
X0010994Y0087617D01*
X0010283Y0087322D01*
X0010051Y0092049D01*
X0010102Y0091926D01*
X0011860Y0090168D01*
X0014157Y0089217D01*
X0016643Y0089217D01*
X0018940Y0090168D01*
X0020698Y0091926D01*
X0021650Y0094223D01*
X0021650Y0096710D01*
X0020698Y0099007D01*
X0018940Y0100765D01*
X0016643Y0101717D01*
X0014157Y0101717D01*
X0011860Y0100765D01*
X0010102Y0099007D01*
X0009750Y0098158D01*
X0008632Y0120852D01*
X0010677Y0120852D01*
X0012898Y0121772D01*
X0014598Y0123472D01*
X0015518Y0125693D01*
X0015518Y0128098D01*
X0014598Y0130319D01*
X0012898Y0132019D01*
X0010731Y0132917D01*
X0011906Y0132917D01*
X0013394Y0133533D01*
X0014533Y0134673D01*
X0015150Y0136161D01*
X0015150Y0137772D01*
X0014533Y0139261D01*
X0013394Y0140400D01*
X0011906Y0141017D01*
X0010294Y0141017D01*
X0008806Y0140400D01*
X0007722Y0139316D01*
X0007275Y0148385D01*
X0009475Y0148385D01*
X0011696Y0149305D01*
X0013396Y0151005D01*
X0013793Y0151963D01*
X0013793Y0149910D01*
X0014595Y0147973D01*
X0016078Y0146490D01*
X0018016Y0145687D01*
X0020113Y0145687D01*
X0022051Y0146490D01*
X0023534Y0147973D01*
X0024336Y0149910D01*
X0024336Y0152007D01*
X0023534Y0153945D01*
X0022051Y0155428D01*
X0020113Y0156230D01*
X0018016Y0156230D01*
X0016078Y0155428D01*
X0014595Y0153945D01*
X0014316Y0153271D01*
X0014316Y0155630D01*
X0013396Y0157852D01*
X0011696Y0159552D01*
X0010598Y0160007D01*
X0012898Y0159390D01*
X0015638Y0159390D01*
X0018284Y0160099D01*
X0020657Y0161469D01*
X0022594Y0163407D01*
X0023964Y0165779D01*
X0024673Y0168426D01*
X0024673Y0171166D01*
X0023964Y0173812D01*
X0022594Y0176185D01*
X0020657Y0178122D01*
X0018284Y0179492D01*
X0015638Y0180201D01*
X0012898Y0180201D01*
X0010251Y0179492D01*
X0007879Y0178122D01*
X0005941Y0176185D01*
X0005921Y0176149D01*
X0005715Y0180367D01*
X0022687Y0181233D01*
X0076824Y0183880D01*
X0076825Y0183879D01*
X0077712Y0183923D01*
X0078610Y0183967D01*
X0078612Y0183968D01*
X0078613Y0183968D01*
X0078888Y0184098D01*
X0082200Y0184267D01*
X0082029Y0187729D01*
X0082034Y0187744D01*
X0082034Y0187745D01*
X0082035Y0187747D01*
X0081991Y0188627D01*
X0081947Y0189532D01*
X0081946Y0189533D01*
X0081001Y0208566D01*
X0105400Y0190867D01*
X0106200Y0191062D01*
X0106200Y0171070D01*
X0106657Y0169967D01*
X0109921Y0166703D01*
X0108744Y0166216D01*
X0107656Y0166667D01*
X0106044Y0166667D01*
X0104556Y0166050D01*
X0103417Y0164911D01*
X0102800Y0163422D01*
X0102800Y0161811D01*
X0103417Y0160323D01*
X0103850Y0159889D01*
X0103850Y0146309D01*
X0094807Y0137266D01*
X0094350Y0136163D01*
X0094350Y0122859D01*
X0079500Y0137709D01*
X0079500Y0138817D01*
X0080606Y0138817D01*
X0082094Y0139433D01*
X0083233Y0140573D01*
X0083850Y0142061D01*
X0083850Y0143672D01*
X0083233Y0145161D01*
X0082094Y0146300D01*
X0080606Y0146917D01*
X0079500Y0146917D01*
X0079500Y0155739D01*
X0079806Y0155433D01*
X0081294Y0154817D01*
X0082906Y0154817D01*
X0084394Y0155433D01*
X0085533Y0156573D01*
X0086150Y0158061D01*
X0086150Y0159672D01*
X0085533Y0161161D01*
X0084394Y0162300D01*
X0082906Y0162917D01*
X0081294Y0162917D01*
X0079806Y0162300D01*
X0079500Y0161994D01*
X0079500Y0162823D01*
X0087029Y0171262D01*
X0098265Y0172071D01*
X0098812Y0172092D01*
X0098859Y0172114D01*
X0098911Y0172117D01*
X0099399Y0172362D01*
X0099896Y0172591D01*
X0099931Y0172629D01*
X0099978Y0172652D01*
X0100335Y0173065D01*
X0100939Y0173717D01*
X0101406Y0173717D01*
X0102894Y0174333D01*
X0104033Y0175473D01*
X0104650Y0176961D01*
X0104650Y0178572D01*
X0104033Y0180061D01*
X0102894Y0181200D01*
X0101406Y0181817D01*
X0099794Y0181817D01*
X0098306Y0181200D01*
X0097750Y0180644D01*
X0096894Y0181500D01*
X0095406Y0182117D01*
X0093794Y0182117D01*
X0092306Y0181500D01*
X0092200Y0181394D01*
X0092200Y0182972D01*
X0091583Y0184461D01*
X0090444Y0185600D01*
X0088956Y0186217D01*
X0087344Y0186217D01*
X0085856Y0185600D01*
X0084717Y0184461D01*
X0084100Y0182972D01*
X0084100Y0181361D01*
X0084459Y0180495D01*
X0083868Y0180464D01*
X0083298Y0180444D01*
X0083272Y0180432D01*
X0083245Y0180431D01*
X0082731Y0180185D01*
X0082212Y0179948D01*
X0082193Y0179928D01*
X0082168Y0179916D01*
X0081787Y0179492D01*
X0070941Y0167851D01*
X0070557Y0167466D01*
X0070536Y0167415D01*
X0070498Y0167375D01*
X0070308Y0166866D01*
X0070100Y0166363D01*
X0070100Y0166308D01*
X0070081Y0166257D01*
X0070100Y0165714D01*
X0070100Y0134070D01*
X0070557Y0132967D01*
X0071401Y0132123D01*
X0081560Y0121964D01*
X0081406Y0121900D01*
X0080267Y0120761D01*
X0079650Y0119272D01*
X0079650Y0117661D01*
X0080267Y0116173D01*
X0081406Y0115033D01*
X0082894Y0114417D01*
X0084506Y0114417D01*
X0085994Y0115033D01*
X0086700Y0115739D01*
X0086700Y0106109D01*
X0083344Y0102753D01*
X0083154Y0102640D01*
X0082926Y0102335D01*
X0082657Y0102066D01*
X0082572Y0101861D01*
X0082440Y0101684D01*
X0082346Y0101315D01*
X0082200Y0100963D01*
X0082200Y0100742D01*
X0081486Y0097933D01*
X0081406Y0097900D01*
X0080267Y0096761D01*
X0079650Y0095272D01*
X0079650Y0093661D01*
X0080267Y0092173D01*
X0080965Y0091474D01*
X0076388Y0086897D01*
X0073400Y0088741D01*
X0073400Y0089239D01*
X0073833Y0089673D01*
X0074450Y0091161D01*
X0074450Y0092772D01*
X0073833Y0094261D01*
X0072694Y0095400D01*
X0071206Y0096017D01*
X0069594Y0096017D01*
X0068106Y0095400D01*
X0067900Y0095194D01*
X0067794Y0095300D01*
X0066306Y0095917D01*
X0066249Y0095917D01*
X0065733Y0097161D01*
X0064594Y0098300D01*
X0063106Y0098917D01*
X0061494Y0098917D01*
X0060006Y0098300D01*
X0058867Y0097161D01*
X0058250Y0095672D01*
X0058250Y0094061D01*
X0058463Y0093546D01*
X0052300Y0099709D01*
X0052300Y0103817D01*
X0053806Y0103817D01*
X0055294Y0104433D01*
X0056433Y0105573D01*
X0057050Y0107061D01*
X0057050Y0108672D01*
X0056433Y0110161D01*
X0055294Y0111300D01*
X0053806Y0111917D01*
X0052300Y0111917D01*
X0052300Y0127224D01*
X0056599Y0131523D01*
X0057443Y0132367D01*
X0057900Y0133470D01*
X0057900Y0140263D01*
X0057443Y0141366D01*
X0054350Y0144459D01*
X0054350Y0145072D01*
X0053733Y0146561D01*
X0052594Y0147700D01*
X0051106Y0148317D01*
X0049494Y0148317D01*
X0048700Y0147988D01*
X0048700Y0149539D01*
X0049133Y0149973D01*
X0049750Y0151461D01*
X0049750Y0153072D01*
X0049133Y0154561D01*
X0047994Y0155700D01*
X0046506Y0156317D01*
X0044894Y0156317D01*
X0043406Y0155700D01*
X0042267Y0154561D01*
X0041650Y0153072D01*
X0041650Y0151461D01*
X0042267Y0149973D01*
X0042700Y0149539D01*
X0042700Y0097170D01*
X0043144Y0096099D01*
X0042906Y0096000D01*
X0041767Y0094861D01*
X0041150Y0093372D01*
X0041150Y0091761D01*
X0041767Y0090273D01*
X0042906Y0089133D01*
X0044394Y0088517D01*
X0046006Y0088517D01*
X0047494Y0089133D01*
X0048633Y0090273D01*
X0048727Y0090497D01*
X0054409Y0084815D01*
X0053611Y0084017D01*
X0052994Y0082528D01*
X0052994Y0080917D01*
X0053611Y0079428D01*
X0054750Y0078289D01*
X0055450Y0077999D01*
X0055450Y0077761D01*
X0056067Y0076273D01*
X0057206Y0075133D01*
X0058694Y0074517D01*
X0059073Y0074517D01*
X0059259Y0074067D01*
X0060179Y0073148D01*
X0044794Y0071833D01*
X0045233Y0072273D01*
X0045850Y0073761D01*
X0045850Y0075372D01*
X0045500Y0076217D01*
X0045606Y0076217D01*
X0047094Y0076833D01*
X0048233Y0077973D01*
X0048850Y0079461D01*
X0048850Y0081072D01*
X0048233Y0082561D01*
X0047094Y0083700D01*
X0045606Y0084317D01*
X0043994Y0084317D01*
X0042506Y0083700D01*
X0041367Y0082561D01*
X0040750Y0081072D01*
X0040750Y0079461D01*
X0041100Y0078617D01*
X0040994Y0078617D01*
X0039506Y0078000D01*
X0038367Y0076861D01*
X0037750Y0075372D01*
X0037750Y0073761D01*
X0037533Y0073761D01*
X0037750Y0073761D02*
X0037903Y0073391D01*
X0037194Y0074100D01*
X0035706Y0074717D01*
X0034094Y0074717D01*
X0032606Y0074100D01*
X0031467Y0072961D01*
X0030850Y0071472D01*
X0030850Y0069861D01*
X0030850Y0070765D02*
X0017746Y0070765D01*
X0021242Y0074759D02*
X0010902Y0074759D01*
X0010952Y0073761D02*
X0022593Y0073761D01*
X0021991Y0074010D02*
X0023424Y0073417D01*
X0024976Y0073417D01*
X0026409Y0074010D01*
X0026550Y0074151D01*
X0026691Y0074010D01*
X0028124Y0073417D01*
X0029676Y0073417D01*
X0031109Y0074010D01*
X0032206Y0075107D01*
X0032800Y0076541D01*
X0032800Y0078092D01*
X0032206Y0079526D01*
X0032090Y0079642D01*
X0032206Y0079757D01*
X0032800Y0081191D01*
X0032800Y0082742D01*
X0032206Y0084176D01*
X0031109Y0085273D01*
X0029676Y0085867D01*
X0028124Y0085867D01*
X0026691Y0085273D01*
X0026575Y0085157D01*
X0026459Y0085273D01*
X0025026Y0085867D01*
X0023474Y0085867D01*
X0022041Y0085273D01*
X0020944Y0084176D01*
X0020350Y0082742D01*
X0020350Y0081191D01*
X0020944Y0079757D01*
X0021035Y0079667D01*
X0020894Y0079526D01*
X0020300Y0078092D01*
X0020300Y0076541D01*
X0020894Y0075107D01*
X0021991Y0074010D01*
X0020624Y0075758D02*
X0010853Y0075758D01*
X0010804Y0076756D02*
X0020300Y0076756D01*
X0020300Y0077755D02*
X0010755Y0077755D01*
X0010706Y0078754D02*
X0020574Y0078754D01*
X0020949Y0079752D02*
X0013174Y0079752D01*
X0014711Y0080751D02*
X0020532Y0080751D01*
X0020350Y0081749D02*
X0015431Y0081749D01*
X0015844Y0082748D02*
X0020352Y0082748D01*
X0020766Y0083746D02*
X0015850Y0083746D01*
X0015696Y0084745D02*
X0021513Y0084745D01*
X0023176Y0085743D02*
X0015282Y0085743D01*
X0014353Y0086742D02*
X0030641Y0086742D01*
X0030550Y0086961D02*
X0031167Y0085473D01*
X0032306Y0084333D01*
X0033794Y0083717D01*
X0035406Y0083717D01*
X0036894Y0084333D01*
X0038033Y0085473D01*
X0038650Y0086961D01*
X0038650Y0088572D01*
X0038033Y0090061D01*
X0036894Y0091200D01*
X0035406Y0091817D01*
X0033794Y0091817D01*
X0032306Y0091200D01*
X0031167Y0090061D01*
X0030550Y0088572D01*
X0030550Y0086961D01*
X0030550Y0087740D02*
X0010263Y0087740D01*
X0010214Y0088739D02*
X0030619Y0088739D01*
X0031033Y0089737D02*
X0017900Y0089737D01*
X0019508Y0090736D02*
X0031841Y0090736D01*
X0033595Y0091734D02*
X0020506Y0091734D01*
X0021032Y0092733D02*
X0041150Y0092733D01*
X0041161Y0091734D02*
X0035605Y0091734D01*
X0037359Y0090736D02*
X0041575Y0090736D01*
X0042302Y0089737D02*
X0038167Y0089737D01*
X0038581Y0088739D02*
X0043858Y0088739D01*
X0046541Y0088739D02*
X0050485Y0088739D01*
X0049487Y0089737D02*
X0048098Y0089737D01*
X0051484Y0087740D02*
X0038650Y0087740D01*
X0038559Y0086742D02*
X0052482Y0086742D01*
X0053481Y0085743D02*
X0038145Y0085743D01*
X0037305Y0084745D02*
X0054339Y0084745D01*
X0053499Y0083746D02*
X0046983Y0083746D01*
X0048047Y0082748D02*
X0053085Y0082748D01*
X0052994Y0081749D02*
X0048570Y0081749D01*
X0048850Y0080751D02*
X0053063Y0080751D01*
X0053477Y0079752D02*
X0048850Y0079752D01*
X0048557Y0078754D02*
X0054286Y0078754D01*
X0055452Y0077755D02*
X0048016Y0077755D01*
X0046909Y0076756D02*
X0055866Y0076756D01*
X0056581Y0075758D02*
X0045690Y0075758D01*
X0045850Y0074759D02*
X0058108Y0074759D01*
X0059565Y0073761D02*
X0045850Y0073761D01*
X0045436Y0072762D02*
X0055670Y0072762D01*
X0059500Y0078567D02*
X0059900Y0078967D01*
X0059900Y0083567D01*
X0045700Y0097767D01*
X0045700Y0152267D01*
X0041987Y0150646D02*
X0024336Y0150646D01*
X0024336Y0151645D02*
X0041650Y0151645D01*
X0041650Y0152643D02*
X0024073Y0152643D01*
X0023659Y0153642D02*
X0041886Y0153642D01*
X0042346Y0154640D02*
X0038649Y0154640D01*
X0038994Y0154783D02*
X0037506Y0154167D01*
X0035894Y0154167D01*
X0034406Y0154783D01*
X0033267Y0155923D01*
X0032650Y0157411D01*
X0032650Y0159022D01*
X0033267Y0160511D01*
X0034406Y0161650D01*
X0035894Y0162267D01*
X0037506Y0162267D01*
X0038994Y0161650D01*
X0040133Y0160511D01*
X0040750Y0159022D01*
X0040750Y0157411D01*
X0040133Y0155923D01*
X0038994Y0154783D01*
X0039850Y0155639D02*
X0043345Y0155639D01*
X0040430Y0156637D02*
X0070100Y0156637D01*
X0070100Y0155639D02*
X0048055Y0155639D01*
X0049054Y0154640D02*
X0070100Y0154640D01*
X0070100Y0153642D02*
X0049514Y0153642D01*
X0049750Y0152643D02*
X0070100Y0152643D01*
X0070100Y0151645D02*
X0049750Y0151645D01*
X0049413Y0150646D02*
X0070100Y0150646D01*
X0070100Y0149648D02*
X0048809Y0149648D01*
X0048700Y0148649D02*
X0070100Y0148649D01*
X0070100Y0147651D02*
X0052643Y0147651D01*
X0053642Y0146652D02*
X0070100Y0146652D01*
X0070100Y0145654D02*
X0054109Y0145654D01*
X0054350Y0144655D02*
X0070100Y0144655D01*
X0070100Y0143657D02*
X0055153Y0143657D01*
X0056151Y0142658D02*
X0070100Y0142658D01*
X0070100Y0141660D02*
X0057150Y0141660D01*
X0057735Y0140661D02*
X0070100Y0140661D01*
X0070100Y0139663D02*
X0057900Y0139663D01*
X0057900Y0138664D02*
X0070100Y0138664D01*
X0070100Y0137666D02*
X0057900Y0137666D01*
X0057900Y0136667D02*
X0070100Y0136667D01*
X0070100Y0135669D02*
X0057900Y0135669D01*
X0057900Y0134670D02*
X0070100Y0134670D01*
X0070265Y0133672D02*
X0057900Y0133672D01*
X0057570Y0132673D02*
X0061406Y0132673D01*
X0061994Y0132917D02*
X0060506Y0132300D01*
X0059367Y0131161D01*
X0058750Y0129672D01*
X0058750Y0128061D01*
X0059367Y0126573D01*
X0060506Y0125433D01*
X0061994Y0124817D01*
X0063606Y0124817D01*
X0065094Y0125433D01*
X0066233Y0126573D01*
X0066850Y0128061D01*
X0066850Y0129672D01*
X0066233Y0131161D01*
X0065094Y0132300D01*
X0063606Y0132917D01*
X0061994Y0132917D01*
X0064194Y0132673D02*
X0070851Y0132673D01*
X0071849Y0131675D02*
X0065720Y0131675D01*
X0066434Y0130676D02*
X0072848Y0130676D01*
X0073846Y0129678D02*
X0066848Y0129678D01*
X0066850Y0128679D02*
X0074845Y0128679D01*
X0074094Y0127500D02*
X0072606Y0128117D01*
X0070994Y0128117D01*
X0069506Y0127500D01*
X0068367Y0126361D01*
X0067750Y0124872D01*
X0067750Y0123261D01*
X0068367Y0121773D01*
X0069506Y0120633D01*
X0070994Y0120017D01*
X0072606Y0120017D01*
X0074094Y0120633D01*
X0075233Y0121773D01*
X0075850Y0123261D01*
X0075850Y0124872D01*
X0075233Y0126361D01*
X0074094Y0127500D01*
X0073658Y0127681D02*
X0075843Y0127681D01*
X0074912Y0126682D02*
X0076842Y0126682D01*
X0077840Y0125684D02*
X0075514Y0125684D01*
X0075850Y0124685D02*
X0078839Y0124685D01*
X0079837Y0123687D02*
X0075850Y0123687D01*
X0075613Y0122688D02*
X0080836Y0122688D01*
X0081195Y0121690D02*
X0075150Y0121690D01*
X0074152Y0120691D02*
X0080238Y0120691D01*
X0079824Y0119692D02*
X0052300Y0119692D01*
X0052300Y0118694D02*
X0079650Y0118694D01*
X0079650Y0117695D02*
X0052300Y0117695D01*
X0052300Y0116697D02*
X0080049Y0116697D01*
X0080741Y0115698D02*
X0052300Y0115698D01*
X0052300Y0114700D02*
X0082211Y0114700D01*
X0085189Y0114700D02*
X0086700Y0114700D01*
X0086659Y0115698D02*
X0086700Y0115698D01*
X0086700Y0113701D02*
X0052300Y0113701D01*
X0052300Y0112703D02*
X0086700Y0112703D01*
X0086700Y0111704D02*
X0076418Y0111704D01*
X0075906Y0111917D02*
X0074294Y0111917D01*
X0072806Y0111300D01*
X0071667Y0110161D01*
X0071364Y0109430D01*
X0071194Y0109600D01*
X0069706Y0110217D01*
X0068094Y0110217D01*
X0066606Y0109600D01*
X0065467Y0108461D01*
X0064850Y0106972D01*
X0064850Y0105361D01*
X0065467Y0103873D01*
X0066606Y0102733D01*
X0068094Y0102117D01*
X0069706Y0102117D01*
X0071194Y0102733D01*
X0072333Y0103873D01*
X0072636Y0104603D01*
X0072806Y0104433D01*
X0074294Y0103817D01*
X0075906Y0103817D01*
X0077394Y0104433D01*
X0078533Y0105573D01*
X0079150Y0107061D01*
X0079150Y0108672D01*
X0078533Y0110161D01*
X0077394Y0111300D01*
X0075906Y0111917D01*
X0073782Y0111704D02*
X0054318Y0111704D01*
X0055888Y0110706D02*
X0072212Y0110706D01*
X0071479Y0109707D02*
X0070935Y0109707D01*
X0066865Y0109707D02*
X0056621Y0109707D01*
X0057035Y0108709D02*
X0065715Y0108709D01*
X0065156Y0107710D02*
X0057050Y0107710D01*
X0056905Y0106712D02*
X0064850Y0106712D01*
X0064850Y0105713D02*
X0056492Y0105713D01*
X0055576Y0104715D02*
X0065118Y0104715D01*
X0065623Y0103716D02*
X0052300Y0103716D01*
X0052300Y0102718D02*
X0066643Y0102718D01*
X0071157Y0102718D02*
X0083284Y0102718D01*
X0082466Y0101719D02*
X0052300Y0101719D01*
X0052300Y0100721D02*
X0082195Y0100721D01*
X0081941Y0099722D02*
X0052300Y0099722D01*
X0053286Y0098724D02*
X0061029Y0098724D01*
X0059431Y0097725D02*
X0054284Y0097725D01*
X0055283Y0096727D02*
X0058687Y0096727D01*
X0058273Y0095728D02*
X0056281Y0095728D01*
X0057280Y0094730D02*
X0058250Y0094730D01*
X0058278Y0093731D02*
X0058387Y0093731D01*
X0063571Y0098724D02*
X0081687Y0098724D01*
X0081231Y0097725D02*
X0065169Y0097725D01*
X0065913Y0096727D02*
X0080252Y0096727D01*
X0079839Y0095728D02*
X0071902Y0095728D01*
X0073365Y0094730D02*
X0079650Y0094730D01*
X0079650Y0093731D02*
X0074053Y0093731D01*
X0074450Y0092733D02*
X0080035Y0092733D01*
X0080705Y0091734D02*
X0074450Y0091734D01*
X0074274Y0090736D02*
X0080226Y0090736D01*
X0079228Y0089737D02*
X0073860Y0089737D01*
X0073403Y0088739D02*
X0078229Y0088739D01*
X0077231Y0087740D02*
X0075022Y0087740D01*
X0075100Y0084167D02*
X0075300Y0065467D01*
X0075400Y0059417D01*
X0078650Y0055567D01*
X0099600Y0055567D01*
X0103200Y0059167D01*
X0123400Y0059167D01*
X0125300Y0057267D01*
X0129055Y0058783D02*
X0136550Y0058783D01*
X0136550Y0059272D02*
X0136550Y0058144D01*
X0135467Y0057061D01*
X0134850Y0055572D01*
X0134850Y0053961D01*
X0135467Y0052473D01*
X0135900Y0052039D01*
X0135900Y0040131D01*
X0129549Y0033932D01*
X0129433Y0034211D01*
X0128294Y0035350D01*
X0126806Y0035967D01*
X0125194Y0035967D01*
X0123874Y0035420D01*
X0123594Y0035700D01*
X0122106Y0036317D01*
X0120494Y0036317D01*
X0119006Y0035700D01*
X0117867Y0034561D01*
X0117857Y0034539D01*
X0115852Y0034067D01*
X0095527Y0034067D01*
X0091135Y0038379D01*
X0092594Y0038983D01*
X0093733Y0040123D01*
X0094350Y0041611D01*
X0094350Y0043222D01*
X0093733Y0044711D01*
X0092594Y0045850D01*
X0091106Y0046467D01*
X0089494Y0046467D01*
X0088006Y0045850D01*
X0086867Y0044711D01*
X0086250Y0043222D01*
X0086250Y0043175D01*
X0081850Y0047495D01*
X0081850Y0048072D01*
X0081233Y0049561D01*
X0081028Y0049767D01*
X0103697Y0049767D01*
X0104799Y0050223D01*
X0106393Y0051817D01*
X0107006Y0051817D01*
X0108494Y0052433D01*
X0109633Y0053573D01*
X0110250Y0055061D01*
X0110250Y0056167D01*
X0121372Y0056167D01*
X0121867Y0054973D01*
X0123006Y0053833D01*
X0124494Y0053217D01*
X0126106Y0053217D01*
X0127594Y0053833D01*
X0128733Y0054973D01*
X0129350Y0056461D01*
X0129350Y0058072D01*
X0128733Y0059561D01*
X0127594Y0060700D01*
X0126106Y0061317D01*
X0125493Y0061317D01*
X0125099Y0061710D01*
X0123997Y0062167D01*
X0102603Y0062167D01*
X0101501Y0061710D01*
X0100657Y0060866D01*
X0098357Y0058567D01*
X0096387Y0058567D01*
X0096550Y0058961D01*
X0096550Y0060572D01*
X0095933Y0062061D01*
X0094794Y0063200D01*
X0093306Y0063817D01*
X0091890Y0063817D01*
X0092141Y0064067D01*
X0092759Y0065559D01*
X0092759Y0067174D01*
X0092141Y0068666D01*
X0090999Y0069808D01*
X0089507Y0070426D01*
X0088359Y0070426D01*
X0088359Y0071663D01*
X0089494Y0072133D01*
X0090633Y0073273D01*
X0091250Y0074761D01*
X0091250Y0075374D01*
X0091443Y0075567D01*
X0108897Y0075567D01*
X0109999Y0076023D01*
X0110843Y0076867D01*
X0112543Y0078567D01*
X0154797Y0078567D01*
X0155899Y0079023D01*
X0156743Y0079867D01*
X0178282Y0101406D01*
X0173700Y0094767D01*
X0173162Y0093273D01*
X0172312Y0091413D01*
X0172023Y0090907D01*
X0171916Y0090738D01*
X0171911Y0090711D01*
X0171600Y0090167D01*
X0169500Y0076867D01*
X0166900Y0061867D01*
X0166852Y0061525D01*
X0166782Y0061122D01*
X0166737Y0061044D01*
X0166630Y0060243D01*
X0166492Y0059446D01*
X0166512Y0059359D01*
X0166177Y0056861D01*
X0165900Y0055267D01*
X0165994Y0047278D01*
X0165992Y0046494D01*
X0167165Y0037435D01*
X0167165Y0037435D01*
X0168779Y0031357D01*
X0169500Y0028567D01*
X0170900Y0025067D01*
X0172200Y0021867D01*
X0172829Y0019352D01*
X0173289Y0017317D01*
X0173403Y0015382D01*
X0173430Y0014834D01*
X0173433Y0014039D01*
X0173473Y0013943D01*
X0173790Y0007467D01*
X0142127Y0007467D01*
X0142949Y0008289D01*
X0144318Y0010661D01*
X0145028Y0013308D01*
X0145028Y0016048D01*
X0144318Y0018694D01*
X0142949Y0021067D01*
X0141011Y0023004D01*
X0138638Y0024374D01*
X0135992Y0025083D01*
X0133252Y0025083D01*
X0133040Y0025026D01*
X0144489Y0036319D01*
X0144499Y0036323D01*
X0144915Y0036739D01*
X0145331Y0037150D01*
X0145336Y0037160D01*
X0145343Y0037167D01*
X0145568Y0037709D01*
X0145796Y0038249D01*
X0145796Y0038260D01*
X0145800Y0038270D01*
X0145800Y0038856D01*
X0145804Y0039443D01*
X0145800Y0039453D01*
X0145800Y0055439D01*
X0146006Y0055233D01*
X0147494Y0054617D01*
X0149106Y0054617D01*
X0150594Y0055233D01*
X0151733Y0056373D01*
X0152350Y0057861D01*
X0152350Y0059472D01*
X0151733Y0060961D01*
X0150594Y0062100D01*
X0149106Y0062717D01*
X0147494Y0062717D01*
X0146006Y0062100D01*
X0144867Y0060961D01*
X0144409Y0059855D01*
X0144033Y0060761D01*
X0142894Y0061900D01*
X0141406Y0062517D01*
X0139794Y0062517D01*
X0138306Y0061900D01*
X0137167Y0060761D01*
X0136550Y0059272D01*
X0136761Y0059782D02*
X0128512Y0059782D01*
X0127400Y0060780D02*
X0137186Y0060780D01*
X0138185Y0061779D02*
X0124933Y0061779D01*
X0129350Y0057785D02*
X0136191Y0057785D01*
X0135353Y0056786D02*
X0129350Y0056786D01*
X0129071Y0055788D02*
X0134939Y0055788D01*
X0134850Y0054789D02*
X0128550Y0054789D01*
X0127492Y0053791D02*
X0134921Y0053791D01*
X0135334Y0052792D02*
X0108853Y0052792D01*
X0109724Y0053791D02*
X0123108Y0053791D01*
X0122050Y0054789D02*
X0110137Y0054789D01*
X0110250Y0055788D02*
X0121529Y0055788D01*
X0117409Y0049473D02*
X0115976Y0050067D01*
X0114424Y0050067D01*
X0113225Y0049570D01*
X0112026Y0050067D01*
X0110474Y0050067D01*
X0109041Y0049473D01*
X0107944Y0048376D01*
X0107350Y0046942D01*
X0107350Y0045391D01*
X0107847Y0044192D01*
X0107350Y0042992D01*
X0107350Y0041441D01*
X0107944Y0040007D01*
X0109041Y0038910D01*
X0110474Y0038317D01*
X0112026Y0038317D01*
X0113225Y0038813D01*
X0114424Y0038317D01*
X0115976Y0038317D01*
X0117409Y0038910D01*
X0118506Y0040007D01*
X0119100Y0041441D01*
X0119100Y0042992D01*
X0118603Y0044192D01*
X0119100Y0045391D01*
X0119100Y0046942D01*
X0118506Y0048376D01*
X0117409Y0049473D01*
X0116627Y0049797D02*
X0135900Y0049797D01*
X0135900Y0050795D02*
X0105371Y0050795D01*
X0106370Y0051794D02*
X0135900Y0051794D01*
X0135900Y0048798D02*
X0118084Y0048798D01*
X0118745Y0047800D02*
X0135900Y0047800D01*
X0135900Y0046801D02*
X0119100Y0046801D01*
X0119100Y0045803D02*
X0135900Y0045803D01*
X0135900Y0044804D02*
X0118857Y0044804D01*
X0118763Y0043806D02*
X0135900Y0043806D01*
X0135900Y0042807D02*
X0119100Y0042807D01*
X0119100Y0041809D02*
X0135900Y0041809D01*
X0135900Y0040810D02*
X0118839Y0040810D01*
X0118310Y0039812D02*
X0135573Y0039812D01*
X0134550Y0038813D02*
X0117174Y0038813D01*
X0119289Y0035818D02*
X0093743Y0035818D01*
X0092726Y0036816D02*
X0132504Y0036816D01*
X0133527Y0037815D02*
X0091709Y0037815D01*
X0092183Y0038813D02*
X0109276Y0038813D01*
X0108140Y0039812D02*
X0093422Y0039812D01*
X0094018Y0040810D02*
X0107611Y0040810D01*
X0107350Y0041809D02*
X0094350Y0041809D01*
X0094350Y0042807D02*
X0107350Y0042807D01*
X0107687Y0043806D02*
X0094108Y0043806D01*
X0093640Y0044804D02*
X0107593Y0044804D01*
X0107350Y0045803D02*
X0092642Y0045803D01*
X0087958Y0045803D02*
X0083573Y0045803D01*
X0082556Y0046801D02*
X0107350Y0046801D01*
X0107705Y0047800D02*
X0081850Y0047800D01*
X0081549Y0048798D02*
X0108366Y0048798D01*
X0109823Y0049797D02*
X0103769Y0049797D01*
X0103100Y0052767D02*
X0076500Y0052767D01*
X0072300Y0058767D01*
X0072300Y0082467D01*
X0065500Y0087467D01*
X0065500Y0091867D01*
X0066761Y0095728D02*
X0068898Y0095728D01*
X0070400Y0091967D02*
X0070400Y0087067D01*
X0075100Y0084167D01*
X0078350Y0084617D02*
X0097350Y0103617D01*
X0097350Y0135567D01*
X0106850Y0145067D01*
X0106850Y0162617D01*
X0104130Y0165624D02*
X0081999Y0165624D01*
X0082890Y0166623D02*
X0105938Y0166623D01*
X0107762Y0166623D02*
X0109726Y0166623D01*
X0109003Y0167621D02*
X0083781Y0167621D01*
X0084671Y0168620D02*
X0108004Y0168620D01*
X0107006Y0169618D02*
X0085562Y0169618D01*
X0086453Y0170617D02*
X0106388Y0170617D01*
X0106200Y0171615D02*
X0091936Y0171615D01*
X0085600Y0174167D02*
X0098100Y0175067D01*
X0100600Y0177767D01*
X0103172Y0174611D02*
X0106200Y0174611D01*
X0106200Y0175609D02*
X0104090Y0175609D01*
X0104504Y0176608D02*
X0106200Y0176608D01*
X0106200Y0177606D02*
X0104650Y0177606D01*
X0104637Y0178605D02*
X0106200Y0178605D01*
X0106195Y0177972D02*
X0106200Y0177967D01*
X0106195Y0177972D02*
X0106195Y0182924D01*
X0101052Y0188067D01*
X0084800Y0188067D01*
X0055350Y0158617D01*
X0055350Y0153317D01*
X0050300Y0144267D02*
X0054900Y0139667D01*
X0054900Y0134067D01*
X0049300Y0128467D01*
X0049300Y0098467D01*
X0063000Y0084767D01*
X0062700Y0076367D01*
X0066428Y0074759D02*
X0069300Y0074759D01*
X0069300Y0073761D02*
X0065835Y0073761D01*
X0066141Y0074067D02*
X0066759Y0075559D01*
X0066759Y0077174D01*
X0066141Y0078666D01*
X0065796Y0079011D01*
X0065953Y0083410D01*
X0069300Y0080949D01*
X0069300Y0073036D01*
X0069106Y0073117D01*
X0067494Y0073117D01*
X0066061Y0072523D01*
X0064648Y0072780D01*
X0064999Y0072926D01*
X0066141Y0074067D01*
X0066639Y0072762D02*
X0064744Y0072762D01*
X0066759Y0075758D02*
X0069300Y0075758D01*
X0069300Y0076756D02*
X0066759Y0076756D01*
X0066518Y0077755D02*
X0069300Y0077755D01*
X0069300Y0078754D02*
X0066053Y0078754D01*
X0065823Y0079752D02*
X0069300Y0079752D01*
X0069300Y0080751D02*
X0065858Y0080751D01*
X0065894Y0081749D02*
X0068212Y0081749D01*
X0066854Y0082748D02*
X0065930Y0082748D01*
X0078350Y0084617D02*
X0078350Y0061117D01*
X0079950Y0068017D02*
X0085400Y0059867D01*
X0092500Y0059767D01*
X0095217Y0062777D02*
X0167058Y0062777D01*
X0166888Y0061779D02*
X0150915Y0061779D01*
X0151808Y0060780D02*
X0166702Y0060780D01*
X0166550Y0059782D02*
X0152222Y0059782D01*
X0152350Y0058783D02*
X0166435Y0058783D01*
X0166301Y0057785D02*
X0152318Y0057785D01*
X0151905Y0056786D02*
X0166164Y0056786D01*
X0165991Y0055788D02*
X0151149Y0055788D01*
X0149522Y0054789D02*
X0165906Y0054789D01*
X0165917Y0053791D02*
X0145800Y0053791D01*
X0145800Y0054789D02*
X0147078Y0054789D01*
X0145800Y0052792D02*
X0165929Y0052792D01*
X0165941Y0051794D02*
X0145800Y0051794D01*
X0145800Y0050795D02*
X0165953Y0050795D01*
X0165964Y0049797D02*
X0145800Y0049797D01*
X0145800Y0048798D02*
X0165976Y0048798D01*
X0165988Y0047800D02*
X0145800Y0047800D01*
X0145800Y0046801D02*
X0165993Y0046801D01*
X0165992Y0046494D02*
X0165992Y0046494D01*
X0166082Y0045803D02*
X0145800Y0045803D01*
X0145800Y0044804D02*
X0166211Y0044804D01*
X0166340Y0043806D02*
X0145800Y0043806D01*
X0145800Y0042807D02*
X0166469Y0042807D01*
X0166599Y0041809D02*
X0145800Y0041809D01*
X0145800Y0040810D02*
X0166728Y0040810D01*
X0166857Y0039812D02*
X0145800Y0039812D01*
X0145800Y0038813D02*
X0166986Y0038813D01*
X0167116Y0037815D02*
X0145612Y0037815D01*
X0144993Y0036816D02*
X0167329Y0036816D01*
X0167594Y0035818D02*
X0143981Y0035818D01*
X0142968Y0034819D02*
X0167859Y0034819D01*
X0168125Y0033821D02*
X0141956Y0033821D01*
X0140944Y0032822D02*
X0168390Y0032822D01*
X0168655Y0031823D02*
X0139931Y0031823D01*
X0138919Y0030825D02*
X0168916Y0030825D01*
X0169174Y0029826D02*
X0137906Y0029826D01*
X0136894Y0028828D02*
X0169432Y0028828D01*
X0169795Y0027829D02*
X0135882Y0027829D01*
X0134869Y0026831D02*
X0170194Y0026831D01*
X0170594Y0025832D02*
X0133857Y0025832D01*
X0136922Y0024834D02*
X0145290Y0024834D01*
X0145556Y0025100D02*
X0144417Y0023961D01*
X0143800Y0022472D01*
X0143800Y0020861D01*
X0144417Y0019373D01*
X0145556Y0018233D01*
X0147044Y0017617D01*
X0148656Y0017617D01*
X0150144Y0018233D01*
X0151283Y0019373D01*
X0151900Y0020861D01*
X0151900Y0022472D01*
X0151283Y0023961D01*
X0150144Y0025100D01*
X0148656Y0025717D01*
X0147044Y0025717D01*
X0145556Y0025100D01*
X0144365Y0023835D02*
X0139571Y0023835D01*
X0141178Y0022837D02*
X0143951Y0022837D01*
X0143800Y0021838D02*
X0142177Y0021838D01*
X0143080Y0020840D02*
X0143809Y0020840D01*
X0143656Y0019841D02*
X0144222Y0019841D01*
X0144233Y0018843D02*
X0144946Y0018843D01*
X0144546Y0017844D02*
X0146495Y0017844D01*
X0144814Y0016846D02*
X0150621Y0016846D01*
X0151034Y0017844D02*
X0149205Y0017844D01*
X0150754Y0018843D02*
X0151937Y0018843D01*
X0151478Y0019841D02*
X0153044Y0019841D01*
X0152860Y0019765D02*
X0151102Y0018007D01*
X0150150Y0015710D01*
X0150150Y0013223D01*
X0151102Y0010926D01*
X0152860Y0009168D01*
X0155157Y0008217D01*
X0157643Y0008217D01*
X0159940Y0009168D01*
X0161698Y0010926D01*
X0162650Y0013223D01*
X0162650Y0015710D01*
X0161698Y0018007D01*
X0159940Y0019765D01*
X0157643Y0020717D01*
X0155157Y0020717D01*
X0152860Y0019765D01*
X0151891Y0020840D02*
X0172457Y0020840D01*
X0172207Y0021838D02*
X0151900Y0021838D01*
X0151749Y0022837D02*
X0171806Y0022837D01*
X0171400Y0023835D02*
X0151335Y0023835D01*
X0150410Y0024834D02*
X0170995Y0024834D01*
X0172706Y0019841D02*
X0159756Y0019841D01*
X0160863Y0018843D02*
X0172944Y0018843D01*
X0173170Y0017844D02*
X0161766Y0017844D01*
X0162179Y0016846D02*
X0173317Y0016846D01*
X0173375Y0015847D02*
X0162593Y0015847D01*
X0162650Y0014849D02*
X0173429Y0014849D01*
X0173478Y0013850D02*
X0162650Y0013850D01*
X0162496Y0012852D02*
X0173526Y0012852D01*
X0173575Y0011853D02*
X0162082Y0011853D01*
X0161627Y0010855D02*
X0173624Y0010855D01*
X0173673Y0009856D02*
X0160628Y0009856D01*
X0159191Y0008858D02*
X0173722Y0008858D01*
X0173770Y0007859D02*
X0142519Y0007859D01*
X0143277Y0008858D02*
X0153609Y0008858D01*
X0152172Y0009856D02*
X0143854Y0009856D01*
X0144370Y0010855D02*
X0151173Y0010855D01*
X0150718Y0011853D02*
X0144638Y0011853D01*
X0144905Y0012852D02*
X0150304Y0012852D01*
X0150150Y0013850D02*
X0145028Y0013850D01*
X0145028Y0014849D02*
X0150150Y0014849D01*
X0150207Y0015847D02*
X0145028Y0015847D01*
X0128200Y0024467D02*
X0081100Y0024467D01*
X0061300Y0043067D01*
X0058308Y0045803D02*
X0030904Y0045803D01*
X0031259Y0046801D02*
X0059733Y0046801D01*
X0057636Y0044804D02*
X0030278Y0044804D01*
X0028968Y0043806D02*
X0057250Y0043806D01*
X0064371Y0047800D02*
X0031259Y0047800D01*
X0031042Y0048798D02*
X0067850Y0048798D01*
X0067850Y0049797D02*
X0030610Y0049797D01*
X0029612Y0050795D02*
X0068067Y0050795D01*
X0068499Y0051794D02*
X0033870Y0051794D01*
X0034892Y0052792D02*
X0069498Y0052792D01*
X0071422Y0054789D02*
X0036950Y0054789D01*
X0037979Y0055788D02*
X0070723Y0055788D01*
X0070024Y0056786D02*
X0069439Y0056786D01*
X0066961Y0056786D02*
X0062456Y0056786D01*
X0063946Y0057785D02*
X0065341Y0057785D01*
X0059543Y0056786D02*
X0039008Y0056786D01*
X0040037Y0057785D02*
X0058054Y0057785D01*
X0057355Y0058783D02*
X0041066Y0058783D01*
X0042095Y0059782D02*
X0056950Y0059782D01*
X0056950Y0060780D02*
X0043124Y0060780D01*
X0034764Y0065773D02*
X0030636Y0065773D01*
X0029638Y0066771D02*
X0033721Y0066771D01*
X0032069Y0067770D02*
X0028639Y0067770D01*
X0027641Y0068768D02*
X0031303Y0068768D01*
X0030971Y0071764D02*
X0011050Y0071764D01*
X0011001Y0072762D02*
X0031384Y0072762D01*
X0030507Y0073761D02*
X0032267Y0073761D01*
X0031858Y0074759D02*
X0037750Y0074759D01*
X0037910Y0075758D02*
X0032476Y0075758D01*
X0032800Y0076756D02*
X0038323Y0076756D01*
X0039261Y0077755D02*
X0032800Y0077755D01*
X0032526Y0078754D02*
X0041043Y0078754D01*
X0040750Y0079752D02*
X0032201Y0079752D01*
X0032618Y0080751D02*
X0040750Y0080751D01*
X0041030Y0081749D02*
X0032800Y0081749D01*
X0032798Y0082748D02*
X0041553Y0082748D01*
X0042617Y0083746D02*
X0035477Y0083746D01*
X0033723Y0083746D02*
X0032384Y0083746D01*
X0031895Y0084745D02*
X0031637Y0084745D01*
X0031054Y0085743D02*
X0029974Y0085743D01*
X0027826Y0085743D02*
X0025324Y0085743D01*
X0021446Y0093731D02*
X0041299Y0093731D01*
X0041712Y0094730D02*
X0021650Y0094730D01*
X0021650Y0095728D02*
X0042634Y0095728D01*
X0042884Y0096727D02*
X0021643Y0096727D01*
X0021229Y0097725D02*
X0042700Y0097725D01*
X0042700Y0098724D02*
X0020816Y0098724D01*
X0019983Y0099722D02*
X0042700Y0099722D01*
X0042700Y0100721D02*
X0018985Y0100721D01*
X0011815Y0100721D02*
X0009623Y0100721D01*
X0009574Y0101719D02*
X0042700Y0101719D01*
X0042700Y0102718D02*
X0009525Y0102718D01*
X0009476Y0103716D02*
X0033147Y0103716D01*
X0033106Y0103733D02*
X0034594Y0103117D01*
X0036206Y0103117D01*
X0037694Y0103733D01*
X0038833Y0104873D01*
X0039450Y0106361D01*
X0039450Y0107972D01*
X0038833Y0109461D01*
X0037694Y0110600D01*
X0036206Y0111217D01*
X0034594Y0111217D01*
X0033106Y0110600D01*
X0031967Y0109461D01*
X0031350Y0107972D01*
X0031350Y0106361D01*
X0031967Y0104873D01*
X0033106Y0103733D01*
X0032124Y0104715D02*
X0009427Y0104715D01*
X0009378Y0105713D02*
X0031618Y0105713D01*
X0031350Y0106712D02*
X0009328Y0106712D01*
X0009279Y0107710D02*
X0031350Y0107710D01*
X0031655Y0108709D02*
X0009230Y0108709D01*
X0009181Y0109707D02*
X0032213Y0109707D01*
X0033361Y0110706D02*
X0009132Y0110706D01*
X0009082Y0111704D02*
X0042700Y0111704D01*
X0042700Y0110706D02*
X0037439Y0110706D01*
X0038587Y0109707D02*
X0042700Y0109707D01*
X0042700Y0108709D02*
X0039145Y0108709D01*
X0039450Y0107710D02*
X0042700Y0107710D01*
X0042700Y0106712D02*
X0039450Y0106712D01*
X0039182Y0105713D02*
X0042700Y0105713D01*
X0042700Y0104715D02*
X0038676Y0104715D01*
X0037653Y0103716D02*
X0042700Y0103716D01*
X0042700Y0112703D02*
X0009033Y0112703D01*
X0008984Y0113701D02*
X0042700Y0113701D01*
X0042700Y0114700D02*
X0028372Y0114700D01*
X0028694Y0114833D02*
X0027206Y0114217D01*
X0025594Y0114217D01*
X0024106Y0114833D01*
X0022967Y0115973D01*
X0022350Y0117461D01*
X0022350Y0119072D01*
X0022967Y0120561D01*
X0024106Y0121700D01*
X0025594Y0122317D01*
X0027206Y0122317D01*
X0028694Y0121700D01*
X0029833Y0120561D01*
X0030450Y0119072D01*
X0030450Y0117461D01*
X0029833Y0115973D01*
X0028694Y0114833D01*
X0029559Y0115698D02*
X0042700Y0115698D01*
X0042700Y0116697D02*
X0030133Y0116697D01*
X0030450Y0117695D02*
X0042700Y0117695D01*
X0042700Y0118694D02*
X0030450Y0118694D01*
X0030193Y0119692D02*
X0042700Y0119692D01*
X0042700Y0120691D02*
X0029703Y0120691D01*
X0028705Y0121690D02*
X0042700Y0121690D01*
X0042700Y0122688D02*
X0013814Y0122688D01*
X0014687Y0123687D02*
X0042700Y0123687D01*
X0042700Y0124685D02*
X0015101Y0124685D01*
X0015514Y0125684D02*
X0042700Y0125684D01*
X0042700Y0126682D02*
X0022568Y0126682D01*
X0022909Y0126823D02*
X0024392Y0128306D01*
X0025195Y0130244D01*
X0025195Y0132341D01*
X0024392Y0134279D01*
X0022909Y0135762D01*
X0020972Y0136564D01*
X0018875Y0136564D01*
X0016937Y0135762D01*
X0015454Y0134279D01*
X0014651Y0132341D01*
X0014651Y0130244D01*
X0015454Y0128306D01*
X0016937Y0126823D01*
X0018875Y0126021D01*
X0020972Y0126021D01*
X0022909Y0126823D01*
X0023767Y0127681D02*
X0042700Y0127681D01*
X0042700Y0128679D02*
X0024547Y0128679D01*
X0024960Y0129678D02*
X0042700Y0129678D01*
X0042700Y0130676D02*
X0025195Y0130676D01*
X0025195Y0131675D02*
X0042700Y0131675D01*
X0042700Y0132673D02*
X0025057Y0132673D01*
X0024644Y0133672D02*
X0042700Y0133672D01*
X0042700Y0134670D02*
X0024001Y0134670D01*
X0023002Y0135669D02*
X0042700Y0135669D01*
X0042700Y0136667D02*
X0015150Y0136667D01*
X0015150Y0137666D02*
X0042700Y0137666D01*
X0042700Y0138664D02*
X0014781Y0138664D01*
X0014131Y0139663D02*
X0042700Y0139663D01*
X0042700Y0140661D02*
X0012764Y0140661D01*
X0009436Y0140661D02*
X0007656Y0140661D01*
X0007705Y0139663D02*
X0008068Y0139663D01*
X0007607Y0141660D02*
X0042700Y0141660D01*
X0042700Y0142658D02*
X0007558Y0142658D01*
X0007508Y0143657D02*
X0042700Y0143657D01*
X0042700Y0144655D02*
X0007459Y0144655D01*
X0007410Y0145654D02*
X0042700Y0145654D01*
X0042700Y0146652D02*
X0022213Y0146652D01*
X0023212Y0147651D02*
X0042700Y0147651D01*
X0042700Y0148649D02*
X0023814Y0148649D01*
X0024227Y0149648D02*
X0042591Y0149648D01*
X0034751Y0154640D02*
X0022838Y0154640D01*
X0021541Y0155639D02*
X0033550Y0155639D01*
X0032970Y0156637D02*
X0013899Y0156637D01*
X0014313Y0155639D02*
X0016588Y0155639D01*
X0015291Y0154640D02*
X0014316Y0154640D01*
X0014316Y0153642D02*
X0014470Y0153642D01*
X0013793Y0151645D02*
X0013661Y0151645D01*
X0013793Y0150646D02*
X0013037Y0150646D01*
X0013901Y0149648D02*
X0012039Y0149648D01*
X0010113Y0148649D02*
X0014315Y0148649D01*
X0014917Y0147651D02*
X0007312Y0147651D01*
X0007361Y0146652D02*
X0015916Y0146652D01*
X0016844Y0135669D02*
X0014946Y0135669D01*
X0014531Y0134670D02*
X0015846Y0134670D01*
X0015203Y0133672D02*
X0013533Y0133672D01*
X0014789Y0132673D02*
X0011319Y0132673D01*
X0013242Y0131675D02*
X0014651Y0131675D01*
X0014651Y0130676D02*
X0014241Y0130676D01*
X0014864Y0129678D02*
X0014886Y0129678D01*
X0015277Y0128679D02*
X0015300Y0128679D01*
X0015518Y0127681D02*
X0016080Y0127681D01*
X0015518Y0126682D02*
X0017278Y0126682D01*
X0012699Y0121690D02*
X0024095Y0121690D01*
X0023097Y0120691D02*
X0008640Y0120691D01*
X0008689Y0119692D02*
X0022607Y0119692D01*
X0022350Y0118694D02*
X0008738Y0118694D01*
X0008787Y0117695D02*
X0022350Y0117695D01*
X0022666Y0116697D02*
X0008836Y0116697D01*
X0008886Y0115698D02*
X0023241Y0115698D01*
X0024428Y0114700D02*
X0008935Y0114700D01*
X0009673Y0099722D02*
X0010817Y0099722D01*
X0009984Y0098724D02*
X0009722Y0098724D01*
X0010066Y0091734D02*
X0010294Y0091734D01*
X0010115Y0090736D02*
X0011292Y0090736D01*
X0010165Y0089737D02*
X0012900Y0089737D01*
X0025807Y0073761D02*
X0027293Y0073761D01*
X0024457Y0063467D02*
X0019603Y0063467D01*
X0019388Y0062948D01*
X0017841Y0061401D01*
X0017208Y0061139D01*
X0018190Y0060732D01*
X0019737Y0059185D01*
X0020573Y0057167D01*
X0025800Y0057167D01*
X0025800Y0058522D01*
X0026417Y0060011D01*
X0027165Y0060759D01*
X0024457Y0063467D01*
X0025147Y0062777D02*
X0019217Y0062777D01*
X0018219Y0061779D02*
X0026145Y0061779D01*
X0027144Y0060780D02*
X0018074Y0060780D01*
X0019141Y0059782D02*
X0026322Y0059782D01*
X0025908Y0058783D02*
X0019904Y0058783D01*
X0020317Y0057785D02*
X0025800Y0057785D01*
X0016400Y0054167D02*
X0015074Y0056070D01*
X0011705Y0070765D02*
X0011099Y0070765D01*
X0035921Y0053791D02*
X0072121Y0053791D01*
X0068207Y0047800D02*
X0067029Y0047800D01*
X0068593Y0046801D02*
X0068838Y0046801D01*
X0069323Y0045803D02*
X0070163Y0045803D01*
X0069737Y0044804D02*
X0071260Y0044804D01*
X0070847Y0043806D02*
X0070170Y0043806D01*
X0074800Y0042767D02*
X0079300Y0042767D01*
X0093300Y0028767D01*
X0122700Y0028767D01*
X0126000Y0031917D01*
X0128825Y0034819D02*
X0130458Y0034819D01*
X0131481Y0035818D02*
X0127166Y0035818D01*
X0124834Y0035818D02*
X0123311Y0035818D01*
X0121300Y0032267D02*
X0116200Y0031067D01*
X0094300Y0031067D01*
X0077800Y0047267D01*
X0084590Y0044804D02*
X0086960Y0044804D01*
X0086492Y0043806D02*
X0085607Y0043806D01*
X0080009Y0037815D02*
X0076334Y0037815D01*
X0075838Y0038813D02*
X0079011Y0038813D01*
X0078057Y0039767D02*
X0088157Y0029667D01*
X0084718Y0029667D01*
X0075406Y0038717D01*
X0075606Y0038717D01*
X0077094Y0039333D01*
X0077528Y0039767D01*
X0078057Y0039767D01*
X0077362Y0036816D02*
X0081008Y0036816D01*
X0082006Y0035818D02*
X0078389Y0035818D01*
X0079416Y0034819D02*
X0083005Y0034819D01*
X0084003Y0033821D02*
X0080444Y0033821D01*
X0081471Y0032822D02*
X0085002Y0032822D01*
X0086001Y0031823D02*
X0082498Y0031823D01*
X0083526Y0030825D02*
X0086999Y0030825D01*
X0087998Y0029826D02*
X0084553Y0029826D01*
X0083500Y0026667D02*
X0065700Y0043967D01*
X0059800Y0035967D02*
X0059800Y0034567D01*
X0064100Y0030267D01*
X0064100Y0019267D01*
X0070700Y0012667D01*
X0060700Y0012667D02*
X0060700Y0027367D01*
X0055700Y0032067D01*
X0055700Y0038267D01*
X0052700Y0032822D02*
X0042265Y0032822D01*
X0043284Y0031823D02*
X0052700Y0031823D01*
X0052967Y0030825D02*
X0043789Y0030825D01*
X0044059Y0029826D02*
X0053698Y0029826D01*
X0054765Y0028828D02*
X0044059Y0028828D01*
X0043757Y0027829D02*
X0055828Y0027829D01*
X0056890Y0026831D02*
X0043205Y0026831D01*
X0042074Y0025832D02*
X0057700Y0025832D01*
X0057700Y0024834D02*
X0040396Y0024834D01*
X0040809Y0023835D02*
X0057700Y0023835D01*
X0057700Y0022837D02*
X0040959Y0022837D01*
X0040950Y0021838D02*
X0057700Y0021838D01*
X0057700Y0020840D02*
X0040537Y0020840D01*
X0039815Y0019841D02*
X0057700Y0019841D01*
X0055237Y0013850D02*
X0017424Y0013850D01*
X0018328Y0012852D02*
X0055200Y0012852D01*
X0055200Y0011853D02*
X0019231Y0011853D01*
X0020135Y0010855D02*
X0055497Y0010855D01*
X0055911Y0009856D02*
X0021038Y0009856D01*
X0021941Y0008858D02*
X0056731Y0008858D01*
X0057934Y0007859D02*
X0022845Y0007859D01*
X0083500Y0026667D02*
X0126400Y0026667D01*
X0138900Y0038867D01*
X0138900Y0054767D01*
X0140600Y0058467D02*
X0141000Y0058467D01*
X0142800Y0056667D01*
X0142800Y0038867D01*
X0128200Y0024467D01*
X0118125Y0034819D02*
X0094760Y0034819D01*
X0113224Y0038813D02*
X0113226Y0038813D01*
X0112677Y0049797D02*
X0113773Y0049797D01*
X0106200Y0055867D02*
X0103100Y0052767D01*
X0098550Y0058467D02*
X0097150Y0058467D01*
X0096476Y0058783D02*
X0098574Y0058783D01*
X0098550Y0058467D02*
X0101450Y0061867D01*
X0133000Y0061867D01*
X0134600Y0060267D01*
X0137800Y0078667D01*
X0127550Y0090267D02*
X0127550Y0091172D01*
X0126933Y0092661D01*
X0125794Y0093800D01*
X0124306Y0094417D01*
X0122694Y0094417D01*
X0121206Y0093800D01*
X0120067Y0092661D01*
X0119450Y0091172D01*
X0119450Y0090267D01*
X0115643Y0090267D01*
X0114650Y0091259D01*
X0114650Y0091872D01*
X0114033Y0093361D01*
X0112894Y0094500D01*
X0111406Y0095117D01*
X0109794Y0095117D01*
X0108306Y0094500D01*
X0107167Y0093361D01*
X0106550Y0091872D01*
X0106550Y0090261D01*
X0106643Y0090037D01*
X0106167Y0089561D01*
X0105550Y0088072D01*
X0105550Y0086461D01*
X0105643Y0086237D01*
X0105167Y0085761D01*
X0104550Y0084272D01*
X0104550Y0082661D01*
X0105003Y0081567D01*
X0090231Y0081567D01*
X0089941Y0082266D01*
X0089699Y0082508D01*
X0091307Y0082508D01*
X0092799Y0083126D01*
X0093941Y0084267D01*
X0094559Y0085759D01*
X0094559Y0087374D01*
X0094264Y0088088D01*
X0117243Y0111067D01*
X0117700Y0112170D01*
X0117700Y0146124D01*
X0124643Y0153067D01*
X0125100Y0154170D01*
X0125100Y0162363D01*
X0124643Y0163466D01*
X0123799Y0164310D01*
X0114000Y0174109D01*
X0114000Y0186924D01*
X0119943Y0192867D01*
X0125422Y0192867D01*
X0125422Y0190996D01*
X0126165Y0189204D01*
X0127537Y0187831D01*
X0129330Y0187089D01*
X0131270Y0187089D01*
X0133063Y0187831D01*
X0134050Y0188818D01*
X0135037Y0187831D01*
X0136830Y0187089D01*
X0138770Y0187089D01*
X0140563Y0187831D01*
X0141935Y0189204D01*
X0142575Y0190749D01*
X0150600Y0182724D01*
X0150600Y0178870D01*
X0151057Y0177767D01*
X0151901Y0176923D01*
X0153165Y0175659D01*
X0152067Y0174561D01*
X0151450Y0173072D01*
X0151450Y0171461D01*
X0152067Y0169973D01*
X0153206Y0168833D01*
X0153250Y0168815D01*
X0153250Y0167561D01*
X0153867Y0166073D01*
X0155006Y0164933D01*
X0156494Y0164317D01*
X0158106Y0164317D01*
X0159594Y0164933D01*
X0160733Y0166073D01*
X0161350Y0167561D01*
X0161350Y0169172D01*
X0161269Y0169367D01*
X0165357Y0169367D01*
X0176222Y0158502D01*
X0176222Y0157996D01*
X0176965Y0156204D01*
X0177952Y0155217D01*
X0176965Y0154230D01*
X0176222Y0152437D01*
X0176222Y0150496D01*
X0176965Y0148704D01*
X0178337Y0147331D01*
X0178430Y0147293D01*
X0178206Y0147200D01*
X0177067Y0146061D01*
X0176925Y0145719D01*
X0176644Y0146000D01*
X0175156Y0146617D01*
X0173544Y0146617D01*
X0172056Y0146000D01*
X0170917Y0144861D01*
X0170300Y0143372D01*
X0170300Y0141761D01*
X0170917Y0140273D01*
X0171433Y0139756D01*
X0171056Y0139600D01*
X0169917Y0138461D01*
X0169300Y0136972D01*
X0169300Y0135361D01*
X0169917Y0133873D01*
X0171056Y0132733D01*
X0172544Y0132117D01*
X0174156Y0132117D01*
X0175509Y0132677D01*
X0175967Y0131573D01*
X0177106Y0130433D01*
X0178594Y0129817D01*
X0180206Y0129817D01*
X0181694Y0130433D01*
X0182833Y0131573D01*
X0183450Y0133061D01*
X0183450Y0134517D01*
X0184156Y0134517D01*
X0185644Y0135133D01*
X0186783Y0136273D01*
X0187400Y0137761D01*
X0187400Y0139372D01*
X0186783Y0140861D01*
X0185644Y0142000D01*
X0184370Y0142528D01*
X0184550Y0142961D01*
X0184550Y0144572D01*
X0183933Y0146061D01*
X0183014Y0146980D01*
X0183863Y0147331D01*
X0184850Y0148318D01*
X0185837Y0147331D01*
X0187630Y0146589D01*
X0189570Y0146589D01*
X0191363Y0147331D01*
X0192735Y0148704D01*
X0193478Y0150496D01*
X0193478Y0152437D01*
X0192735Y0154230D01*
X0191748Y0155217D01*
X0192735Y0156204D01*
X0193478Y0157996D01*
X0193478Y0159937D01*
X0192735Y0161730D01*
X0191363Y0163102D01*
X0190858Y0163311D01*
X0191072Y0163454D01*
X0191612Y0163995D01*
X0192037Y0164630D01*
X0192329Y0165335D01*
X0192478Y0166085D01*
X0192478Y0166278D01*
X0188789Y0166278D01*
X0188789Y0166656D01*
X0188411Y0166656D01*
X0188411Y0170345D01*
X0188218Y0170345D01*
X0187469Y0170196D01*
X0186763Y0169903D01*
X0186128Y0169479D01*
X0185588Y0168939D01*
X0185445Y0168724D01*
X0185235Y0169230D01*
X0183863Y0170602D01*
X0182070Y0171345D01*
X0180130Y0171345D01*
X0178337Y0170602D01*
X0176972Y0169237D01*
X0173243Y0172967D01*
X0188557Y0172967D01*
X0195600Y0165924D01*
X0195600Y0135909D01*
X0149957Y0090267D01*
X0127550Y0090267D01*
X0127550Y0090736D02*
X0150426Y0090736D01*
X0151425Y0091734D02*
X0127317Y0091734D01*
X0126862Y0092733D02*
X0152423Y0092733D01*
X0153422Y0093731D02*
X0125863Y0093731D01*
X0121137Y0093731D02*
X0113663Y0093731D01*
X0114294Y0092733D02*
X0120138Y0092733D01*
X0119683Y0091734D02*
X0114650Y0091734D01*
X0115174Y0090736D02*
X0119450Y0090736D01*
X0114400Y0087267D02*
X0110600Y0091067D01*
X0109600Y0087267D02*
X0111500Y0085367D01*
X0152200Y0085367D01*
X0200400Y0133567D01*
X0200400Y0168367D01*
X0191000Y0177767D01*
X0167500Y0177767D01*
X0163800Y0181467D01*
X0167859Y0181650D02*
X0167859Y0182274D01*
X0167241Y0183766D01*
X0166099Y0184908D01*
X0164607Y0185526D01*
X0162993Y0185526D01*
X0161501Y0184908D01*
X0161164Y0184571D01*
X0160307Y0184926D01*
X0158693Y0184926D01*
X0158600Y0184887D01*
X0158600Y0192167D01*
X0195897Y0192167D01*
X0196999Y0192623D01*
X0200143Y0195767D01*
X0215517Y0195767D01*
X0220353Y0191750D01*
X0220540Y0191519D01*
X0220808Y0191373D01*
X0221042Y0191178D01*
X0221326Y0191090D01*
X0234984Y0183640D01*
X0235101Y0183523D01*
X0235504Y0183356D01*
X0235887Y0183147D01*
X0236051Y0183130D01*
X0236203Y0183067D01*
X0236640Y0183067D01*
X0237074Y0183020D01*
X0237232Y0183067D01*
X0242002Y0183067D01*
X0242615Y0182454D01*
X0242160Y0182265D01*
X0240402Y0180507D01*
X0239450Y0178210D01*
X0239450Y0175723D01*
X0240402Y0173426D01*
X0242160Y0171668D01*
X0244457Y0170717D01*
X0246943Y0170717D01*
X0249240Y0171668D01*
X0249854Y0172282D01*
X0247900Y0131567D01*
X0247678Y0131495D01*
X0220678Y0122984D01*
X0221000Y0123761D01*
X0221000Y0125372D01*
X0220383Y0126861D01*
X0219244Y0128000D01*
X0217756Y0128617D01*
X0217428Y0128617D01*
X0217550Y0128911D01*
X0217550Y0130522D01*
X0216933Y0132011D01*
X0215794Y0133150D01*
X0214306Y0133767D01*
X0212694Y0133767D01*
X0211206Y0133150D01*
X0210067Y0132011D01*
X0209450Y0130522D01*
X0209450Y0129503D01*
X0208710Y0129197D01*
X0208683Y0129261D01*
X0207544Y0130400D01*
X0206949Y0130647D01*
X0207000Y0130770D01*
X0207000Y0141117D01*
X0207060Y0141117D01*
X0210801Y0136601D01*
X0210857Y0136467D01*
X0211179Y0136145D01*
X0211471Y0135793D01*
X0211598Y0135726D01*
X0211701Y0135623D01*
X0212122Y0135449D01*
X0212526Y0135235D01*
X0212670Y0135222D01*
X0212803Y0135167D01*
X0213260Y0135167D01*
X0213714Y0135124D01*
X0213852Y0135167D01*
X0236910Y0135167D01*
X0236917Y0135164D01*
X0237506Y0135167D01*
X0238097Y0135167D01*
X0238103Y0135169D01*
X0238110Y0135169D01*
X0238654Y0135397D01*
X0239199Y0135623D01*
X0239204Y0135628D01*
X0239211Y0135631D01*
X0239625Y0136050D01*
X0240043Y0136467D01*
X0240046Y0136474D01*
X0243310Y0139767D01*
X0243906Y0139767D01*
X0245394Y0140383D01*
X0246533Y0141523D01*
X0247150Y0143011D01*
X0247150Y0144622D01*
X0246533Y0146111D01*
X0245591Y0147053D01*
X0246050Y0148161D01*
X0246050Y0149772D01*
X0245433Y0151261D01*
X0244294Y0152400D01*
X0242806Y0153017D01*
X0241194Y0153017D01*
X0239706Y0152400D01*
X0239479Y0152173D01*
X0209835Y0152259D01*
X0209394Y0152700D01*
X0207906Y0153317D01*
X0207000Y0153317D01*
X0207000Y0165924D01*
X0215150Y0174074D01*
X0215150Y0173261D01*
X0215767Y0171773D01*
X0216906Y0170633D01*
X0218394Y0170017D01*
X0220006Y0170017D01*
X0221494Y0170633D01*
X0222633Y0171773D01*
X0223250Y0173261D01*
X0223250Y0174872D01*
X0222633Y0176361D01*
X0221494Y0177500D01*
X0220006Y0178117D01*
X0218394Y0178117D01*
X0217524Y0177756D01*
X0217914Y0181653D01*
X0218633Y0182373D01*
X0219250Y0183861D01*
X0219250Y0185472D01*
X0218633Y0186961D01*
X0217494Y0188100D01*
X0216006Y0188717D01*
X0214394Y0188717D01*
X0212906Y0188100D01*
X0212777Y0187971D01*
X0212448Y0188300D01*
X0210959Y0188917D01*
X0209348Y0188917D01*
X0207859Y0188300D01*
X0206720Y0187161D01*
X0206104Y0185672D01*
X0206104Y0184061D01*
X0206720Y0182573D01*
X0207859Y0181433D01*
X0209348Y0180817D01*
X0209700Y0180817D01*
X0209700Y0180109D01*
X0201300Y0171709D01*
X0193543Y0179466D01*
X0192699Y0180310D01*
X0191597Y0180767D01*
X0168743Y0180767D01*
X0167859Y0181650D01*
X0167909Y0181600D02*
X0207692Y0181600D01*
X0206709Y0182599D02*
X0167725Y0182599D01*
X0167311Y0183597D02*
X0206296Y0183597D01*
X0206104Y0184596D02*
X0166411Y0184596D01*
X0169000Y0181067D02*
X0173300Y0190867D01*
X0196300Y0190867D01*
X0202000Y0196067D01*
X0216100Y0194867D01*
X0219700Y0185767D01*
X0219199Y0185594D02*
X0231401Y0185594D01*
X0229571Y0186593D02*
X0218786Y0186593D01*
X0218003Y0187591D02*
X0227740Y0187591D01*
X0225909Y0188590D02*
X0216312Y0188590D01*
X0214088Y0188590D02*
X0211748Y0188590D01*
X0208559Y0188590D02*
X0205403Y0188590D01*
X0205333Y0188423D02*
X0205950Y0189911D01*
X0205950Y0191522D01*
X0205333Y0193011D01*
X0204194Y0194150D01*
X0202706Y0194767D01*
X0201094Y0194767D01*
X0199606Y0194150D01*
X0198467Y0193011D01*
X0197850Y0191522D01*
X0197850Y0189911D01*
X0198467Y0188423D01*
X0199606Y0187283D01*
X0201094Y0186667D01*
X0202706Y0186667D01*
X0204194Y0187283D01*
X0205333Y0188423D01*
X0204502Y0187591D02*
X0207151Y0187591D01*
X0206485Y0186593D02*
X0158600Y0186593D01*
X0158600Y0187591D02*
X0199298Y0187591D01*
X0198397Y0188590D02*
X0158600Y0188590D01*
X0158600Y0189588D02*
X0197984Y0189588D01*
X0197850Y0190587D02*
X0158600Y0190587D01*
X0158600Y0191585D02*
X0197876Y0191585D01*
X0198290Y0192584D02*
X0196904Y0192584D01*
X0197958Y0193582D02*
X0199038Y0193582D01*
X0198957Y0194581D02*
X0200646Y0194581D01*
X0199955Y0195579D02*
X0215742Y0195579D01*
X0216945Y0194581D02*
X0203154Y0194581D01*
X0204762Y0193582D02*
X0218147Y0193582D01*
X0219349Y0192584D02*
X0205510Y0192584D01*
X0205924Y0191585D02*
X0220486Y0191585D01*
X0222248Y0190587D02*
X0205950Y0190587D01*
X0205816Y0189588D02*
X0224079Y0189588D01*
X0222500Y0193867D02*
X0236800Y0186067D01*
X0245500Y0186067D01*
X0245700Y0186267D01*
X0250018Y0188590D02*
X0250637Y0188590D01*
X0249835Y0189030D02*
X0250572Y0187250D01*
X0252796Y0233581D01*
X0247475Y0233872D01*
X0247547Y0233831D01*
X0249484Y0231894D01*
X0250854Y0229521D01*
X0251563Y0226874D01*
X0251563Y0224135D01*
X0250854Y0221488D01*
X0249484Y0219115D01*
X0247547Y0217178D01*
X0245174Y0215808D01*
X0242527Y0215099D01*
X0239788Y0215099D01*
X0237141Y0215808D01*
X0234768Y0217178D01*
X0232831Y0219115D01*
X0231461Y0221488D01*
X0230752Y0224135D01*
X0230752Y0226874D01*
X0231461Y0229521D01*
X0232831Y0231894D01*
X0234768Y0233831D01*
X0235937Y0234505D01*
X0205162Y0236194D01*
X0202247Y0236348D01*
X0201818Y0227382D01*
X0201700Y0214367D01*
X0200331Y0214033D01*
X0236381Y0196767D01*
X0241802Y0196767D01*
X0242937Y0197902D01*
X0243442Y0198111D01*
X0243228Y0198254D01*
X0242688Y0198795D01*
X0242263Y0199430D01*
X0241971Y0200135D01*
X0241822Y0200885D01*
X0241822Y0201078D01*
X0245511Y0201078D01*
X0245511Y0201456D01*
X0241822Y0201456D01*
X0241822Y0201649D01*
X0241971Y0202398D01*
X0242263Y0203104D01*
X0242688Y0203739D01*
X0243228Y0204279D01*
X0243442Y0204422D01*
X0242937Y0204631D01*
X0241565Y0206004D01*
X0240822Y0207796D01*
X0240822Y0209737D01*
X0241565Y0211530D01*
X0242937Y0212902D01*
X0244730Y0213645D01*
X0246670Y0213645D01*
X0248463Y0212902D01*
X0249835Y0211530D01*
X0250578Y0209737D01*
X0250578Y0207796D01*
X0249835Y0206004D01*
X0248463Y0204631D01*
X0247958Y0204422D01*
X0248172Y0204279D01*
X0248712Y0203739D01*
X0249137Y0203104D01*
X0249429Y0202398D01*
X0249578Y0201649D01*
X0249578Y0201456D01*
X0245889Y0201456D01*
X0245889Y0201078D01*
X0249578Y0201078D01*
X0249578Y0200885D01*
X0249429Y0200135D01*
X0249137Y0199430D01*
X0248712Y0198795D01*
X0248172Y0198254D01*
X0247958Y0198111D01*
X0248463Y0197902D01*
X0249835Y0196530D01*
X0250578Y0194737D01*
X0250578Y0192796D01*
X0249835Y0191004D01*
X0248848Y0190017D01*
X0249835Y0189030D01*
X0249277Y0189588D02*
X0250685Y0189588D01*
X0250733Y0190587D02*
X0249419Y0190587D01*
X0250076Y0191585D02*
X0250780Y0191585D01*
X0250828Y0192584D02*
X0250490Y0192584D01*
X0250578Y0193582D02*
X0250876Y0193582D01*
X0250924Y0194581D02*
X0250578Y0194581D01*
X0250229Y0195579D02*
X0250972Y0195579D01*
X0251020Y0196578D02*
X0249787Y0196578D01*
X0248789Y0197576D02*
X0251068Y0197576D01*
X0251116Y0198575D02*
X0248492Y0198575D01*
X0249196Y0199573D02*
X0251164Y0199573D01*
X0251212Y0200572D02*
X0249516Y0200572D01*
X0249578Y0201570D02*
X0251260Y0201570D01*
X0251308Y0202569D02*
X0249358Y0202569D01*
X0248827Y0203567D02*
X0251355Y0203567D01*
X0251403Y0204566D02*
X0248305Y0204566D01*
X0249396Y0205564D02*
X0251451Y0205564D01*
X0251499Y0206563D02*
X0250067Y0206563D01*
X0250481Y0207561D02*
X0251547Y0207561D01*
X0251595Y0208560D02*
X0250578Y0208560D01*
X0250578Y0209559D02*
X0251643Y0209559D01*
X0251691Y0210557D02*
X0250238Y0210557D01*
X0249810Y0211556D02*
X0251739Y0211556D01*
X0251787Y0212554D02*
X0248811Y0212554D01*
X0246893Y0213553D02*
X0251835Y0213553D01*
X0251883Y0214551D02*
X0201702Y0214551D01*
X0201711Y0215550D02*
X0238106Y0215550D01*
X0235859Y0216548D02*
X0201720Y0216548D01*
X0201729Y0217547D02*
X0234400Y0217547D01*
X0233401Y0218545D02*
X0201738Y0218545D01*
X0201747Y0219544D02*
X0232584Y0219544D01*
X0232007Y0220542D02*
X0201756Y0220542D01*
X0201765Y0221541D02*
X0231447Y0221541D01*
X0231179Y0222539D02*
X0201774Y0222539D01*
X0201783Y0223538D02*
X0230912Y0223538D01*
X0230752Y0224536D02*
X0201792Y0224536D01*
X0201802Y0225535D02*
X0230752Y0225535D01*
X0230752Y0226533D02*
X0201811Y0226533D01*
X0201825Y0227532D02*
X0230928Y0227532D01*
X0231196Y0228530D02*
X0201873Y0228530D01*
X0201921Y0229529D02*
X0231466Y0229529D01*
X0232042Y0230527D02*
X0201969Y0230527D01*
X0202016Y0231526D02*
X0232619Y0231526D01*
X0233462Y0232524D02*
X0202064Y0232524D01*
X0202112Y0233523D02*
X0234460Y0233523D01*
X0235647Y0234521D02*
X0202159Y0234521D01*
X0202207Y0235520D02*
X0217445Y0235520D01*
X0201334Y0213553D02*
X0244507Y0213553D01*
X0244209Y0215550D02*
X0251931Y0215550D01*
X0251978Y0216548D02*
X0246456Y0216548D01*
X0247915Y0217547D02*
X0252026Y0217547D01*
X0252074Y0218545D02*
X0248914Y0218545D01*
X0249731Y0219544D02*
X0252122Y0219544D01*
X0252170Y0220542D02*
X0250308Y0220542D01*
X0250868Y0221541D02*
X0252218Y0221541D01*
X0252266Y0222539D02*
X0251135Y0222539D01*
X0251403Y0223538D02*
X0252314Y0223538D01*
X0252362Y0224536D02*
X0251563Y0224536D01*
X0251563Y0225535D02*
X0252410Y0225535D01*
X0252458Y0226533D02*
X0251563Y0226533D01*
X0251387Y0227532D02*
X0252506Y0227532D01*
X0252553Y0228530D02*
X0251119Y0228530D01*
X0250849Y0229529D02*
X0252601Y0229529D01*
X0252649Y0230527D02*
X0250273Y0230527D01*
X0249696Y0231526D02*
X0252697Y0231526D01*
X0252745Y0232524D02*
X0248853Y0232524D01*
X0247855Y0233523D02*
X0252793Y0233523D01*
X0242589Y0212554D02*
X0203419Y0212554D01*
X0205503Y0211556D02*
X0241590Y0211556D01*
X0241162Y0210557D02*
X0207588Y0210557D01*
X0209673Y0209559D02*
X0240822Y0209559D01*
X0240822Y0208560D02*
X0211758Y0208560D01*
X0213843Y0207561D02*
X0240919Y0207561D01*
X0241333Y0206563D02*
X0215928Y0206563D01*
X0218012Y0205564D02*
X0242004Y0205564D01*
X0243095Y0204566D02*
X0220097Y0204566D01*
X0222182Y0203567D02*
X0242573Y0203567D01*
X0242042Y0202569D02*
X0224267Y0202569D01*
X0226352Y0201570D02*
X0241822Y0201570D01*
X0241884Y0200572D02*
X0228436Y0200572D01*
X0230521Y0199573D02*
X0242204Y0199573D01*
X0242908Y0198575D02*
X0232606Y0198575D01*
X0234691Y0197576D02*
X0242611Y0197576D01*
X0245700Y0193767D02*
X0235700Y0193767D01*
X0197700Y0211967D01*
X0181300Y0211667D01*
X0159932Y0207041D01*
X0142500Y0203267D01*
X0134100Y0203267D01*
X0130300Y0199467D01*
X0117100Y0199467D01*
X0109200Y0191567D01*
X0109200Y0171667D01*
X0120300Y0160567D01*
X0120300Y0155867D01*
X0112900Y0148467D01*
X0112900Y0113867D01*
X0085700Y0086667D01*
X0086500Y0079967D01*
X0090200Y0078567D02*
X0087200Y0075567D01*
X0090123Y0072762D02*
X0168789Y0072762D01*
X0168616Y0071764D02*
X0088603Y0071764D01*
X0088359Y0070765D02*
X0168442Y0070765D01*
X0168269Y0069767D02*
X0091040Y0069767D01*
X0092039Y0068768D02*
X0168096Y0068768D01*
X0167923Y0067770D02*
X0092512Y0067770D01*
X0092759Y0066771D02*
X0167750Y0066771D01*
X0167577Y0065773D02*
X0092759Y0065773D01*
X0092434Y0064774D02*
X0167404Y0064774D01*
X0167231Y0063776D02*
X0093404Y0063776D01*
X0096050Y0061779D02*
X0101667Y0061779D01*
X0100571Y0060780D02*
X0096464Y0060780D01*
X0096550Y0059782D02*
X0099573Y0059782D01*
X0090836Y0073761D02*
X0168962Y0073761D01*
X0169135Y0074759D02*
X0091249Y0074759D01*
X0090200Y0078567D02*
X0108300Y0078567D01*
X0111300Y0081567D01*
X0154200Y0081567D01*
X0204000Y0131367D01*
X0204000Y0167167D01*
X0214500Y0177667D01*
X0215200Y0184667D01*
X0212700Y0182320D02*
X0212700Y0178867D01*
X0202200Y0168367D01*
X0202200Y0132467D01*
X0153200Y0083467D01*
X0108600Y0083467D01*
X0104928Y0081749D02*
X0090155Y0081749D01*
X0091887Y0082748D02*
X0104550Y0082748D01*
X0104550Y0083746D02*
X0093420Y0083746D01*
X0094139Y0084745D02*
X0104746Y0084745D01*
X0105159Y0085743D02*
X0094552Y0085743D01*
X0094559Y0086742D02*
X0105550Y0086742D01*
X0105550Y0087740D02*
X0094407Y0087740D01*
X0094915Y0088739D02*
X0105826Y0088739D01*
X0106343Y0089737D02*
X0095913Y0089737D01*
X0096912Y0090736D02*
X0106550Y0090736D01*
X0106550Y0091734D02*
X0097910Y0091734D01*
X0098909Y0092733D02*
X0106906Y0092733D01*
X0107537Y0093731D02*
X0099907Y0093731D01*
X0100906Y0094730D02*
X0108860Y0094730D01*
X0112340Y0094730D02*
X0154420Y0094730D01*
X0155419Y0095728D02*
X0101904Y0095728D01*
X0102903Y0096727D02*
X0156417Y0096727D01*
X0157416Y0097725D02*
X0103901Y0097725D01*
X0104900Y0098724D02*
X0158414Y0098724D01*
X0159413Y0099722D02*
X0137926Y0099722D01*
X0138194Y0099833D02*
X0139333Y0100973D01*
X0139950Y0102461D01*
X0139950Y0104072D01*
X0139333Y0105561D01*
X0138194Y0106700D01*
X0136706Y0107317D01*
X0135094Y0107317D01*
X0133606Y0106700D01*
X0132467Y0105561D01*
X0131850Y0104072D01*
X0131850Y0102461D01*
X0132467Y0100973D01*
X0133606Y0099833D01*
X0135094Y0099217D01*
X0136706Y0099217D01*
X0138194Y0099833D01*
X0139082Y0100721D02*
X0160411Y0100721D01*
X0161410Y0101719D02*
X0139643Y0101719D01*
X0139950Y0102718D02*
X0150626Y0102718D01*
X0150106Y0102933D02*
X0151594Y0102317D01*
X0153206Y0102317D01*
X0154694Y0102933D01*
X0155833Y0104073D01*
X0156450Y0105561D01*
X0156450Y0107172D01*
X0155833Y0108661D01*
X0154694Y0109800D01*
X0153206Y0110417D01*
X0151594Y0110417D01*
X0150106Y0109800D01*
X0148967Y0108661D01*
X0148350Y0107172D01*
X0148350Y0105561D01*
X0148967Y0104073D01*
X0150106Y0102933D01*
X0149323Y0103716D02*
X0139950Y0103716D01*
X0139684Y0104715D02*
X0148701Y0104715D01*
X0148350Y0105713D02*
X0139181Y0105713D01*
X0138166Y0106712D02*
X0148350Y0106712D01*
X0148573Y0107710D02*
X0113886Y0107710D01*
X0112888Y0106712D02*
X0124200Y0106712D01*
X0124694Y0106917D02*
X0123206Y0106300D01*
X0122067Y0105161D01*
X0121450Y0103672D01*
X0121450Y0102061D01*
X0122067Y0100573D01*
X0123206Y0099433D01*
X0124694Y0098817D01*
X0126306Y0098817D01*
X0127794Y0099433D01*
X0128933Y0100573D01*
X0129550Y0102061D01*
X0129550Y0103672D01*
X0128933Y0105161D01*
X0127794Y0106300D01*
X0126306Y0106917D01*
X0124694Y0106917D01*
X0126800Y0106712D02*
X0133634Y0106712D01*
X0132619Y0105713D02*
X0128381Y0105713D01*
X0129118Y0104715D02*
X0132116Y0104715D01*
X0131850Y0103716D02*
X0129532Y0103716D01*
X0129550Y0102718D02*
X0131850Y0102718D01*
X0132157Y0101719D02*
X0129408Y0101719D01*
X0128995Y0100721D02*
X0132718Y0100721D01*
X0133874Y0099722D02*
X0128083Y0099722D01*
X0122917Y0099722D02*
X0105898Y0099722D01*
X0106897Y0100721D02*
X0122005Y0100721D01*
X0121592Y0101719D02*
X0107895Y0101719D01*
X0108894Y0102718D02*
X0121450Y0102718D01*
X0121468Y0103716D02*
X0109892Y0103716D01*
X0110891Y0104715D02*
X0121882Y0104715D01*
X0122619Y0105713D02*
X0111889Y0105713D01*
X0114885Y0108709D02*
X0149015Y0108709D01*
X0150013Y0109707D02*
X0115883Y0109707D01*
X0116882Y0110706D02*
X0170397Y0110706D01*
X0171395Y0111704D02*
X0117507Y0111704D01*
X0117700Y0112703D02*
X0172394Y0112703D01*
X0173392Y0113701D02*
X0117700Y0113701D01*
X0117700Y0114700D02*
X0174391Y0114700D01*
X0175389Y0115698D02*
X0128582Y0115698D01*
X0128506Y0115667D02*
X0129994Y0116283D01*
X0131133Y0117423D01*
X0131750Y0118911D01*
X0131750Y0120522D01*
X0131133Y0122011D01*
X0130778Y0122367D01*
X0131283Y0122873D01*
X0131900Y0124361D01*
X0131900Y0125972D01*
X0131283Y0127461D01*
X0130144Y0128600D01*
X0128656Y0129217D01*
X0127044Y0129217D01*
X0125556Y0128600D01*
X0124417Y0127461D01*
X0123800Y0125972D01*
X0123800Y0124361D01*
X0124417Y0122873D01*
X0124772Y0122517D01*
X0124267Y0122011D01*
X0123650Y0120522D01*
X0123650Y0118911D01*
X0124267Y0117423D01*
X0125406Y0116283D01*
X0126894Y0115667D01*
X0128506Y0115667D01*
X0126818Y0115698D02*
X0117700Y0115698D01*
X0117700Y0116697D02*
X0124992Y0116697D01*
X0124154Y0117695D02*
X0117700Y0117695D01*
X0117700Y0118694D02*
X0123740Y0118694D01*
X0123650Y0119692D02*
X0117700Y0119692D01*
X0117700Y0120691D02*
X0123720Y0120691D01*
X0124134Y0121690D02*
X0117700Y0121690D01*
X0117700Y0122688D02*
X0124601Y0122688D01*
X0124079Y0123687D02*
X0117700Y0123687D01*
X0117700Y0124685D02*
X0123800Y0124685D01*
X0123800Y0125684D02*
X0117700Y0125684D01*
X0117700Y0126682D02*
X0124094Y0126682D01*
X0124636Y0127681D02*
X0117700Y0127681D01*
X0117700Y0128679D02*
X0125747Y0128679D01*
X0129953Y0128679D02*
X0138800Y0128679D01*
X0138800Y0128311D02*
X0139417Y0126823D01*
X0140556Y0125683D01*
X0141426Y0125323D01*
X0140406Y0124900D01*
X0139267Y0123761D01*
X0138650Y0122272D01*
X0138650Y0120661D01*
X0139267Y0119173D01*
X0140406Y0118033D01*
X0141894Y0117417D01*
X0143506Y0117417D01*
X0144994Y0118033D01*
X0146133Y0119173D01*
X0146750Y0120661D01*
X0146750Y0122272D01*
X0146133Y0123761D01*
X0144994Y0124900D01*
X0144124Y0125261D01*
X0145144Y0125683D01*
X0146283Y0126823D01*
X0146900Y0128311D01*
X0146900Y0129922D01*
X0146283Y0131411D01*
X0145144Y0132550D01*
X0143656Y0133167D01*
X0142044Y0133167D01*
X0140556Y0132550D01*
X0139417Y0131411D01*
X0138800Y0129922D01*
X0138800Y0128311D01*
X0139061Y0127681D02*
X0131064Y0127681D01*
X0131606Y0126682D02*
X0139557Y0126682D01*
X0140556Y0125684D02*
X0131900Y0125684D01*
X0131900Y0124685D02*
X0140191Y0124685D01*
X0139236Y0123687D02*
X0131621Y0123687D01*
X0131099Y0122688D02*
X0138822Y0122688D01*
X0138650Y0121690D02*
X0131266Y0121690D01*
X0131680Y0120691D02*
X0138650Y0120691D01*
X0139051Y0119692D02*
X0131750Y0119692D01*
X0131660Y0118694D02*
X0139745Y0118694D01*
X0141221Y0117695D02*
X0131246Y0117695D01*
X0130408Y0116697D02*
X0176388Y0116697D01*
X0177386Y0117695D02*
X0144179Y0117695D01*
X0145655Y0118694D02*
X0178385Y0118694D01*
X0179383Y0119692D02*
X0146349Y0119692D01*
X0146750Y0120691D02*
X0180382Y0120691D01*
X0181380Y0121690D02*
X0154550Y0121690D01*
X0154394Y0121533D02*
X0155533Y0122673D01*
X0156150Y0124161D01*
X0156150Y0125772D01*
X0155533Y0127261D01*
X0154394Y0128400D01*
X0152906Y0129017D01*
X0151294Y0129017D01*
X0149806Y0128400D01*
X0148667Y0127261D01*
X0148050Y0125772D01*
X0148050Y0124161D01*
X0148667Y0122673D01*
X0149806Y0121533D01*
X0151294Y0120917D01*
X0152906Y0120917D01*
X0154394Y0121533D01*
X0155540Y0122688D02*
X0182379Y0122688D01*
X0183377Y0123687D02*
X0155953Y0123687D01*
X0156150Y0124685D02*
X0184376Y0124685D01*
X0185374Y0125684D02*
X0156150Y0125684D01*
X0155773Y0126682D02*
X0186373Y0126682D01*
X0187371Y0127681D02*
X0155114Y0127681D01*
X0153721Y0128679D02*
X0188370Y0128679D01*
X0189368Y0129678D02*
X0146900Y0129678D01*
X0146900Y0128679D02*
X0150479Y0128679D01*
X0149086Y0127681D02*
X0146639Y0127681D01*
X0146143Y0126682D02*
X0148427Y0126682D01*
X0148050Y0125684D02*
X0145144Y0125684D01*
X0145209Y0124685D02*
X0148050Y0124685D01*
X0148247Y0123687D02*
X0146164Y0123687D01*
X0146578Y0122688D02*
X0148660Y0122688D01*
X0149650Y0121690D02*
X0146750Y0121690D01*
X0146588Y0130676D02*
X0176863Y0130676D01*
X0175924Y0131675D02*
X0146020Y0131675D01*
X0144847Y0132673D02*
X0171201Y0132673D01*
X0170117Y0133672D02*
X0117700Y0133672D01*
X0117700Y0134670D02*
X0169586Y0134670D01*
X0169300Y0135669D02*
X0117700Y0135669D01*
X0117700Y0136667D02*
X0169300Y0136667D01*
X0169587Y0137666D02*
X0117700Y0137666D01*
X0117700Y0138664D02*
X0170120Y0138664D01*
X0171207Y0139663D02*
X0117700Y0139663D01*
X0117700Y0140661D02*
X0170756Y0140661D01*
X0170342Y0141660D02*
X0117700Y0141660D01*
X0117700Y0142658D02*
X0170300Y0142658D01*
X0170418Y0143657D02*
X0117700Y0143657D01*
X0117700Y0144655D02*
X0170831Y0144655D01*
X0171710Y0145654D02*
X0117700Y0145654D01*
X0118228Y0146652D02*
X0177658Y0146652D01*
X0178017Y0147651D02*
X0119227Y0147651D01*
X0120225Y0148649D02*
X0177019Y0148649D01*
X0176574Y0149648D02*
X0121224Y0149648D01*
X0122222Y0150646D02*
X0176222Y0150646D01*
X0176222Y0151645D02*
X0123221Y0151645D01*
X0124219Y0152643D02*
X0176308Y0152643D01*
X0176721Y0153642D02*
X0124881Y0153642D01*
X0125100Y0154640D02*
X0177375Y0154640D01*
X0177529Y0155639D02*
X0125100Y0155639D01*
X0125100Y0156637D02*
X0176785Y0156637D01*
X0176371Y0157636D02*
X0125100Y0157636D01*
X0125100Y0158634D02*
X0176090Y0158634D01*
X0175091Y0159633D02*
X0125100Y0159633D01*
X0125100Y0160631D02*
X0174093Y0160631D01*
X0173094Y0161630D02*
X0125100Y0161630D01*
X0124990Y0162628D02*
X0172096Y0162628D01*
X0171097Y0163627D02*
X0124482Y0163627D01*
X0123484Y0164625D02*
X0155749Y0164625D01*
X0154315Y0165624D02*
X0122485Y0165624D01*
X0121487Y0166623D02*
X0153639Y0166623D01*
X0153250Y0167621D02*
X0120488Y0167621D01*
X0119490Y0168620D02*
X0153250Y0168620D01*
X0152421Y0169618D02*
X0140930Y0169618D01*
X0140915Y0169604D02*
X0142463Y0171151D01*
X0143300Y0173173D01*
X0143300Y0175361D01*
X0142463Y0177382D01*
X0140915Y0178929D01*
X0138894Y0179767D01*
X0136706Y0179767D01*
X0134684Y0178929D01*
X0133137Y0177382D01*
X0132800Y0176568D01*
X0132463Y0177382D01*
X0130915Y0178929D01*
X0128894Y0179767D01*
X0126706Y0179767D01*
X0124684Y0178929D01*
X0123137Y0177382D01*
X0122300Y0175361D01*
X0122300Y0173173D01*
X0123137Y0171151D01*
X0124684Y0169604D01*
X0126706Y0168767D01*
X0128894Y0168767D01*
X0130915Y0169604D01*
X0132463Y0171151D01*
X0132800Y0171966D01*
X0133137Y0171151D01*
X0134684Y0169604D01*
X0136706Y0168767D01*
X0138894Y0168767D01*
X0140915Y0169604D01*
X0141928Y0170617D02*
X0151800Y0170617D01*
X0151450Y0171615D02*
X0142655Y0171615D01*
X0143068Y0172614D02*
X0151450Y0172614D01*
X0151674Y0173612D02*
X0143300Y0173612D01*
X0143300Y0174611D02*
X0152116Y0174611D01*
X0153115Y0175609D02*
X0143197Y0175609D01*
X0142783Y0176608D02*
X0152216Y0176608D01*
X0151218Y0177606D02*
X0142239Y0177606D01*
X0141240Y0178605D02*
X0150710Y0178605D01*
X0150600Y0179603D02*
X0139289Y0179603D01*
X0136311Y0179603D02*
X0129289Y0179603D01*
X0131240Y0178605D02*
X0134360Y0178605D01*
X0133361Y0177606D02*
X0132239Y0177606D01*
X0132783Y0176608D02*
X0132817Y0176608D01*
X0132945Y0171615D02*
X0132655Y0171615D01*
X0131928Y0170617D02*
X0133672Y0170617D01*
X0134670Y0169618D02*
X0130930Y0169618D01*
X0124670Y0169618D02*
X0118491Y0169618D01*
X0117493Y0170617D02*
X0123672Y0170617D01*
X0122945Y0171615D02*
X0116494Y0171615D01*
X0115496Y0172614D02*
X0122532Y0172614D01*
X0122300Y0173612D02*
X0114497Y0173612D01*
X0114000Y0174611D02*
X0122300Y0174611D01*
X0122403Y0175609D02*
X0114000Y0175609D01*
X0114000Y0176608D02*
X0122817Y0176608D01*
X0123361Y0177606D02*
X0114000Y0177606D01*
X0114000Y0178605D02*
X0124360Y0178605D01*
X0126311Y0179603D02*
X0114000Y0179603D01*
X0114000Y0180602D02*
X0150600Y0180602D01*
X0150600Y0181600D02*
X0114000Y0181600D01*
X0114000Y0182599D02*
X0150600Y0182599D01*
X0149727Y0183597D02*
X0114000Y0183597D01*
X0114000Y0184596D02*
X0148728Y0184596D01*
X0147730Y0185594D02*
X0114000Y0185594D01*
X0114000Y0186593D02*
X0146731Y0186593D01*
X0145733Y0187591D02*
X0139984Y0187591D01*
X0141322Y0188590D02*
X0144734Y0188590D01*
X0143736Y0189588D02*
X0142095Y0189588D01*
X0142508Y0190587D02*
X0142737Y0190587D01*
X0142700Y0194867D02*
X0153600Y0183967D01*
X0153600Y0179467D01*
X0160700Y0172367D01*
X0166600Y0172367D01*
X0180000Y0158967D01*
X0181100Y0158967D01*
X0179000Y0162967D02*
X0167800Y0174167D01*
X0163100Y0174167D01*
X0161000Y0176267D01*
X0159800Y0176267D01*
X0155600Y0180467D01*
X0155600Y0196437D01*
X0155148Y0196889D01*
X0141400Y0199467D01*
X0137800Y0199467D01*
X0134200Y0195867D01*
X0118700Y0195867D01*
X0111000Y0188167D01*
X0111000Y0172867D01*
X0122100Y0161767D01*
X0122100Y0154767D01*
X0114700Y0147367D01*
X0114700Y0112767D01*
X0090100Y0088167D01*
X0090500Y0086567D01*
X0083700Y0094467D02*
X0085200Y0100367D01*
X0089700Y0104867D01*
X0089700Y0118067D01*
X0073100Y0134667D01*
X0073100Y0165767D01*
X0084000Y0177467D01*
X0093400Y0177967D01*
X0094600Y0178067D01*
X0092548Y0181600D02*
X0092200Y0181600D01*
X0092200Y0182599D02*
X0106200Y0182599D01*
X0106200Y0183597D02*
X0091941Y0183597D01*
X0091448Y0184596D02*
X0106200Y0184596D01*
X0106200Y0185594D02*
X0090450Y0185594D01*
X0085850Y0185594D02*
X0082134Y0185594D01*
X0082184Y0184596D02*
X0084852Y0184596D01*
X0084359Y0183597D02*
X0071048Y0183597D01*
X0079100Y0176608D02*
X0022171Y0176608D01*
X0022927Y0175609D02*
X0078169Y0175609D01*
X0077239Y0174611D02*
X0023503Y0174611D01*
X0024018Y0173612D02*
X0076309Y0173612D01*
X0075379Y0172614D02*
X0024285Y0172614D01*
X0024553Y0171615D02*
X0074448Y0171615D01*
X0073518Y0170617D02*
X0024673Y0170617D01*
X0024673Y0169618D02*
X0072588Y0169618D01*
X0071658Y0168620D02*
X0024673Y0168620D01*
X0024458Y0167621D02*
X0070712Y0167621D01*
X0070207Y0166623D02*
X0024190Y0166623D01*
X0023874Y0165624D02*
X0070100Y0165624D01*
X0070100Y0164625D02*
X0023298Y0164625D01*
X0022721Y0163627D02*
X0070100Y0163627D01*
X0070100Y0162628D02*
X0021816Y0162628D01*
X0020817Y0161630D02*
X0034386Y0161630D01*
X0033387Y0160631D02*
X0019206Y0160631D01*
X0016543Y0159633D02*
X0032903Y0159633D01*
X0032650Y0158634D02*
X0012613Y0158634D01*
X0011992Y0159633D02*
X0011500Y0159633D01*
X0013486Y0157636D02*
X0032650Y0157636D01*
X0039014Y0161630D02*
X0070100Y0161630D01*
X0070100Y0160631D02*
X0040013Y0160631D01*
X0040497Y0159633D02*
X0070100Y0159633D01*
X0070100Y0158634D02*
X0040750Y0158634D01*
X0040750Y0157636D02*
X0070100Y0157636D01*
X0076500Y0163967D02*
X0076500Y0136467D01*
X0094000Y0118967D01*
X0094000Y0109567D01*
X0092800Y0108367D01*
X0086700Y0108709D02*
X0079135Y0108709D01*
X0079150Y0107710D02*
X0086700Y0107710D01*
X0086700Y0106712D02*
X0079005Y0106712D01*
X0078592Y0105713D02*
X0086304Y0105713D01*
X0085306Y0104715D02*
X0077676Y0104715D01*
X0078721Y0109707D02*
X0086700Y0109707D01*
X0086700Y0110706D02*
X0077988Y0110706D01*
X0072177Y0103716D02*
X0084307Y0103716D01*
X0099050Y0103017D02*
X0099050Y0134467D01*
X0109150Y0144567D01*
X0109150Y0156867D01*
X0111000Y0158717D01*
X0111000Y0162767D01*
X0103850Y0159633D02*
X0086150Y0159633D01*
X0086150Y0158634D02*
X0103850Y0158634D01*
X0103850Y0157636D02*
X0085974Y0157636D01*
X0085560Y0156637D02*
X0103850Y0156637D01*
X0103850Y0155639D02*
X0084600Y0155639D01*
X0079600Y0155639D02*
X0079500Y0155639D01*
X0079500Y0154640D02*
X0103850Y0154640D01*
X0103850Y0153642D02*
X0099840Y0153642D01*
X0099659Y0153823D02*
X0098226Y0154417D01*
X0096674Y0154417D01*
X0095475Y0153920D01*
X0094276Y0154417D01*
X0092724Y0154417D01*
X0091291Y0153823D01*
X0090194Y0152726D01*
X0089600Y0151292D01*
X0089600Y0149741D01*
X0090097Y0148542D01*
X0089600Y0147342D01*
X0089600Y0145791D01*
X0090194Y0144357D01*
X0091291Y0143260D01*
X0092724Y0142667D01*
X0094276Y0142667D01*
X0095475Y0143163D01*
X0096674Y0142667D01*
X0098226Y0142667D01*
X0099659Y0143260D01*
X0100756Y0144357D01*
X0101350Y0145791D01*
X0101350Y0147342D01*
X0100853Y0148542D01*
X0101350Y0149741D01*
X0101350Y0151292D01*
X0100756Y0152726D01*
X0099659Y0153823D01*
X0100790Y0152643D02*
X0103850Y0152643D01*
X0103850Y0151645D02*
X0101204Y0151645D01*
X0101350Y0150646D02*
X0103850Y0150646D01*
X0103850Y0149648D02*
X0101311Y0149648D01*
X0100898Y0148649D02*
X0103850Y0148649D01*
X0103850Y0147651D02*
X0101222Y0147651D01*
X0101350Y0146652D02*
X0103850Y0146652D01*
X0103194Y0145654D02*
X0101293Y0145654D01*
X0100880Y0144655D02*
X0102196Y0144655D01*
X0101197Y0143657D02*
X0100056Y0143657D01*
X0100199Y0142658D02*
X0083850Y0142658D01*
X0083850Y0143657D02*
X0090894Y0143657D01*
X0090070Y0144655D02*
X0083443Y0144655D01*
X0082740Y0145654D02*
X0089657Y0145654D01*
X0089600Y0146652D02*
X0081244Y0146652D01*
X0079500Y0147651D02*
X0089728Y0147651D01*
X0090052Y0148649D02*
X0079500Y0148649D01*
X0079500Y0149648D02*
X0089639Y0149648D01*
X0089600Y0150646D02*
X0079500Y0150646D01*
X0079500Y0151645D02*
X0089746Y0151645D01*
X0090160Y0152643D02*
X0079500Y0152643D01*
X0079500Y0153642D02*
X0091110Y0153642D01*
X0085753Y0160631D02*
X0103289Y0160631D01*
X0102875Y0161630D02*
X0085064Y0161630D01*
X0083601Y0162628D02*
X0102800Y0162628D01*
X0102885Y0163627D02*
X0080217Y0163627D01*
X0080599Y0162628D02*
X0079500Y0162628D01*
X0081108Y0164625D02*
X0103298Y0164625D01*
X0106200Y0172614D02*
X0099917Y0172614D01*
X0100842Y0173612D02*
X0106200Y0173612D01*
X0106200Y0179603D02*
X0104223Y0179603D01*
X0103493Y0180602D02*
X0106200Y0180602D01*
X0106200Y0181600D02*
X0101928Y0181600D01*
X0099272Y0181600D02*
X0096652Y0181600D01*
X0106200Y0186593D02*
X0082085Y0186593D01*
X0082036Y0187591D02*
X0106200Y0187591D01*
X0106200Y0188590D02*
X0081993Y0188590D01*
X0081943Y0189588D02*
X0106200Y0189588D01*
X0106200Y0190587D02*
X0081894Y0190587D01*
X0081844Y0191585D02*
X0104409Y0191585D01*
X0103033Y0192584D02*
X0081795Y0192584D01*
X0081745Y0193582D02*
X0101656Y0193582D01*
X0100280Y0194581D02*
X0081695Y0194581D01*
X0081646Y0195579D02*
X0098903Y0195579D01*
X0097527Y0196578D02*
X0081596Y0196578D01*
X0081547Y0197576D02*
X0096150Y0197576D01*
X0094774Y0198575D02*
X0081497Y0198575D01*
X0081447Y0199573D02*
X0093397Y0199573D01*
X0092021Y0200572D02*
X0081398Y0200572D01*
X0081348Y0201570D02*
X0090645Y0201570D01*
X0089268Y0202569D02*
X0081299Y0202569D01*
X0081249Y0203567D02*
X0087892Y0203567D01*
X0086515Y0204566D02*
X0081199Y0204566D01*
X0081150Y0205564D02*
X0085139Y0205564D01*
X0083762Y0206563D02*
X0081100Y0206563D01*
X0081051Y0207561D02*
X0082386Y0207561D01*
X0081009Y0208560D02*
X0081001Y0208560D01*
X0084100Y0182599D02*
X0050626Y0182599D01*
X0030204Y0181600D02*
X0084100Y0181600D01*
X0084415Y0180602D02*
X0010310Y0180602D01*
X0010666Y0179603D02*
X0005752Y0179603D01*
X0005801Y0178605D02*
X0008714Y0178605D01*
X0007362Y0177606D02*
X0005850Y0177606D01*
X0005898Y0176608D02*
X0006364Y0176608D01*
X0017870Y0179603D02*
X0081887Y0179603D01*
X0080960Y0178605D02*
X0019821Y0178605D01*
X0021173Y0177606D02*
X0080030Y0177606D01*
X0085600Y0174167D02*
X0076500Y0163967D01*
X0083684Y0141660D02*
X0099200Y0141660D01*
X0098202Y0140661D02*
X0083270Y0140661D01*
X0082324Y0139663D02*
X0097203Y0139663D01*
X0096205Y0138664D02*
X0079500Y0138664D01*
X0079544Y0137666D02*
X0095206Y0137666D01*
X0094559Y0136667D02*
X0080542Y0136667D01*
X0081541Y0135669D02*
X0094350Y0135669D01*
X0094350Y0134670D02*
X0082539Y0134670D01*
X0083538Y0133672D02*
X0094350Y0133672D01*
X0094350Y0132673D02*
X0084536Y0132673D01*
X0085535Y0131675D02*
X0094350Y0131675D01*
X0094350Y0130676D02*
X0086533Y0130676D01*
X0087532Y0129678D02*
X0094350Y0129678D01*
X0094350Y0128679D02*
X0088530Y0128679D01*
X0089529Y0127681D02*
X0094350Y0127681D01*
X0094350Y0126682D02*
X0090527Y0126682D01*
X0091526Y0125684D02*
X0094350Y0125684D01*
X0094350Y0124685D02*
X0092524Y0124685D01*
X0093523Y0123687D02*
X0094350Y0123687D01*
X0099050Y0103017D02*
X0079950Y0083917D01*
X0079950Y0068017D01*
X0109359Y0075758D02*
X0169308Y0075758D01*
X0169481Y0076756D02*
X0110732Y0076756D01*
X0111731Y0077755D02*
X0169640Y0077755D01*
X0169798Y0078754D02*
X0155248Y0078754D01*
X0156628Y0079752D02*
X0169956Y0079752D01*
X0170113Y0080751D02*
X0157627Y0080751D01*
X0158625Y0081749D02*
X0170271Y0081749D01*
X0170429Y0082748D02*
X0159624Y0082748D01*
X0160622Y0083746D02*
X0170586Y0083746D01*
X0170744Y0084745D02*
X0161621Y0084745D01*
X0162619Y0085743D02*
X0170902Y0085743D01*
X0171059Y0086742D02*
X0163618Y0086742D01*
X0164616Y0087740D02*
X0171217Y0087740D01*
X0171375Y0088739D02*
X0165615Y0088739D01*
X0166613Y0089737D02*
X0171532Y0089737D01*
X0171916Y0090736D02*
X0167612Y0090736D01*
X0168610Y0091734D02*
X0172459Y0091734D01*
X0172915Y0092733D02*
X0169609Y0092733D01*
X0170607Y0093731D02*
X0173327Y0093731D01*
X0173687Y0094730D02*
X0171606Y0094730D01*
X0172604Y0095728D02*
X0174364Y0095728D01*
X0175053Y0096727D02*
X0173603Y0096727D01*
X0174601Y0097725D02*
X0175742Y0097725D01*
X0175600Y0098724D02*
X0176431Y0098724D01*
X0176598Y0099722D02*
X0177120Y0099722D01*
X0177597Y0100721D02*
X0177809Y0100721D01*
X0168400Y0108709D02*
X0155785Y0108709D01*
X0156227Y0107710D02*
X0167401Y0107710D01*
X0166403Y0106712D02*
X0156450Y0106712D01*
X0156450Y0105713D02*
X0165404Y0105713D01*
X0164406Y0104715D02*
X0156099Y0104715D01*
X0155477Y0103716D02*
X0163407Y0103716D01*
X0162408Y0102718D02*
X0154174Y0102718D01*
X0154787Y0109707D02*
X0169398Y0109707D01*
X0181937Y0130676D02*
X0190367Y0130676D01*
X0191365Y0131675D02*
X0182876Y0131675D01*
X0183289Y0132673D02*
X0192364Y0132673D01*
X0193362Y0133672D02*
X0183450Y0133672D01*
X0184526Y0134670D02*
X0194361Y0134670D01*
X0195359Y0135669D02*
X0186180Y0135669D01*
X0186947Y0136667D02*
X0195600Y0136667D01*
X0195600Y0137666D02*
X0187360Y0137666D01*
X0187400Y0138664D02*
X0195600Y0138664D01*
X0195600Y0139663D02*
X0187280Y0139663D01*
X0186866Y0140661D02*
X0195600Y0140661D01*
X0195600Y0141660D02*
X0185984Y0141660D01*
X0184425Y0142658D02*
X0195600Y0142658D01*
X0195600Y0143657D02*
X0184550Y0143657D01*
X0184516Y0144655D02*
X0195600Y0144655D01*
X0195600Y0145654D02*
X0184102Y0145654D01*
X0183342Y0146652D02*
X0187476Y0146652D01*
X0185517Y0147651D02*
X0184183Y0147651D01*
X0189724Y0146652D02*
X0195600Y0146652D01*
X0195600Y0147651D02*
X0191683Y0147651D01*
X0192681Y0148649D02*
X0195600Y0148649D01*
X0195600Y0149648D02*
X0193126Y0149648D01*
X0193478Y0150646D02*
X0195600Y0150646D01*
X0195600Y0151645D02*
X0193478Y0151645D01*
X0193392Y0152643D02*
X0195600Y0152643D01*
X0195600Y0153642D02*
X0192979Y0153642D01*
X0192325Y0154640D02*
X0195600Y0154640D01*
X0195600Y0155639D02*
X0192171Y0155639D01*
X0192915Y0156637D02*
X0195600Y0156637D01*
X0195600Y0157636D02*
X0193329Y0157636D01*
X0193478Y0158634D02*
X0195600Y0158634D01*
X0195600Y0159633D02*
X0193478Y0159633D01*
X0193190Y0160631D02*
X0195600Y0160631D01*
X0195600Y0161630D02*
X0192777Y0161630D01*
X0191837Y0162628D02*
X0195600Y0162628D01*
X0195600Y0163627D02*
X0191245Y0163627D01*
X0192034Y0164625D02*
X0195600Y0164625D01*
X0195600Y0165624D02*
X0192386Y0165624D01*
X0192478Y0166656D02*
X0192478Y0166849D01*
X0192329Y0167598D01*
X0192037Y0168304D01*
X0191612Y0168939D01*
X0191072Y0169479D01*
X0190437Y0169903D01*
X0189731Y0170196D01*
X0188982Y0170345D01*
X0188789Y0170345D01*
X0188789Y0166656D01*
X0192478Y0166656D01*
X0192319Y0167621D02*
X0193903Y0167621D01*
X0194901Y0166623D02*
X0188789Y0166623D01*
X0188789Y0167621D02*
X0188411Y0167621D01*
X0188411Y0168620D02*
X0188789Y0168620D01*
X0188789Y0169618D02*
X0188411Y0169618D01*
X0186336Y0169618D02*
X0184847Y0169618D01*
X0183828Y0170617D02*
X0190907Y0170617D01*
X0190864Y0169618D02*
X0191906Y0169618D01*
X0191825Y0168620D02*
X0192904Y0168620D01*
X0189909Y0171615D02*
X0174594Y0171615D01*
X0173596Y0172614D02*
X0188910Y0172614D01*
X0189800Y0175967D02*
X0164400Y0175967D01*
X0159500Y0180867D01*
X0161104Y0184596D02*
X0161189Y0184596D01*
X0158600Y0185594D02*
X0206104Y0185594D01*
X0210154Y0184867D02*
X0212700Y0182320D01*
X0209700Y0180602D02*
X0191995Y0180602D01*
X0193406Y0179603D02*
X0209194Y0179603D01*
X0208195Y0178605D02*
X0194405Y0178605D01*
X0195403Y0177606D02*
X0207197Y0177606D01*
X0206198Y0176608D02*
X0196402Y0176608D01*
X0197400Y0175609D02*
X0205200Y0175609D01*
X0204201Y0174611D02*
X0198399Y0174611D01*
X0199397Y0173612D02*
X0203203Y0173612D01*
X0202204Y0172614D02*
X0200396Y0172614D01*
X0198600Y0167167D02*
X0198600Y0134667D01*
X0151200Y0087267D01*
X0114400Y0087267D01*
X0143015Y0061779D02*
X0145685Y0061779D01*
X0144792Y0060780D02*
X0144014Y0060780D01*
X0138800Y0129678D02*
X0117700Y0129678D01*
X0117700Y0130676D02*
X0139112Y0130676D01*
X0139680Y0131675D02*
X0117700Y0131675D01*
X0117700Y0132673D02*
X0140853Y0132673D01*
X0175499Y0132673D02*
X0175511Y0132673D01*
X0188600Y0158967D02*
X0184600Y0162967D01*
X0179000Y0162967D01*
X0177353Y0169618D02*
X0176591Y0169618D01*
X0175593Y0170617D02*
X0178372Y0170617D01*
X0170099Y0164625D02*
X0158851Y0164625D01*
X0160285Y0165624D02*
X0169100Y0165624D01*
X0168101Y0166623D02*
X0160961Y0166623D01*
X0161350Y0167621D02*
X0167103Y0167621D01*
X0166104Y0168620D02*
X0161350Y0168620D01*
X0160700Y0165067D02*
X0147800Y0165067D01*
X0135616Y0187591D02*
X0132484Y0187591D01*
X0133822Y0188590D02*
X0134278Y0188590D01*
X0128116Y0187591D02*
X0114667Y0187591D01*
X0115666Y0188590D02*
X0126778Y0188590D01*
X0126005Y0189588D02*
X0116664Y0189588D01*
X0117663Y0190587D02*
X0125592Y0190587D01*
X0125422Y0191585D02*
X0118661Y0191585D01*
X0119660Y0192584D02*
X0125422Y0192584D01*
X0155148Y0196889D02*
X0157400Y0196467D01*
X0158700Y0195167D01*
X0195300Y0195167D01*
X0198900Y0198767D01*
X0216600Y0198767D01*
X0222500Y0193867D01*
X0219250Y0184596D02*
X0233232Y0184596D01*
X0235027Y0183597D02*
X0219141Y0183597D01*
X0218727Y0182599D02*
X0242469Y0182599D01*
X0241495Y0181600D02*
X0217908Y0181600D01*
X0217808Y0180602D02*
X0240496Y0180602D01*
X0240027Y0179603D02*
X0217709Y0179603D01*
X0217609Y0178605D02*
X0239614Y0178605D01*
X0239450Y0177606D02*
X0221238Y0177606D01*
X0222387Y0176608D02*
X0232424Y0176608D01*
X0232406Y0176600D02*
X0231267Y0175461D01*
X0230650Y0173972D01*
X0230650Y0172361D01*
X0231267Y0170873D01*
X0232406Y0169733D01*
X0233894Y0169117D01*
X0235506Y0169117D01*
X0236994Y0169733D01*
X0238133Y0170873D01*
X0238750Y0172361D01*
X0238750Y0173972D01*
X0238133Y0175461D01*
X0236994Y0176600D01*
X0235506Y0177217D01*
X0233894Y0177217D01*
X0232406Y0176600D01*
X0231415Y0175609D02*
X0222945Y0175609D01*
X0223250Y0174611D02*
X0230914Y0174611D01*
X0230650Y0173612D02*
X0223250Y0173612D01*
X0222982Y0172614D02*
X0230650Y0172614D01*
X0230959Y0171615D02*
X0222476Y0171615D01*
X0221454Y0170617D02*
X0231523Y0170617D01*
X0232684Y0169618D02*
X0210694Y0169618D01*
X0209696Y0168620D02*
X0249678Y0168620D01*
X0249726Y0169618D02*
X0236716Y0169618D01*
X0237877Y0170617D02*
X0249774Y0170617D01*
X0249822Y0171615D02*
X0249112Y0171615D01*
X0249630Y0167621D02*
X0231561Y0167621D01*
X0231559Y0167623D02*
X0230126Y0168217D01*
X0228574Y0168217D01*
X0227375Y0167720D01*
X0226176Y0168217D01*
X0224624Y0168217D01*
X0223191Y0167623D01*
X0222094Y0166526D01*
X0221500Y0165092D01*
X0221500Y0163541D01*
X0222007Y0162317D01*
X0221500Y0161092D01*
X0221500Y0159541D01*
X0222094Y0158107D01*
X0223191Y0157010D01*
X0224624Y0156417D01*
X0226176Y0156417D01*
X0227375Y0156913D01*
X0228574Y0156417D01*
X0230126Y0156417D01*
X0231559Y0157010D01*
X0232656Y0158107D01*
X0233250Y0159541D01*
X0233250Y0161092D01*
X0232743Y0162317D01*
X0233250Y0163541D01*
X0233250Y0165092D01*
X0232656Y0166526D01*
X0231559Y0167623D01*
X0232560Y0166623D02*
X0249582Y0166623D01*
X0249534Y0165624D02*
X0233030Y0165624D01*
X0233250Y0164625D02*
X0249487Y0164625D01*
X0249439Y0163627D02*
X0233250Y0163627D01*
X0232872Y0162628D02*
X0249391Y0162628D01*
X0249343Y0161630D02*
X0233027Y0161630D01*
X0233250Y0160631D02*
X0249295Y0160631D01*
X0249247Y0159633D02*
X0233250Y0159633D01*
X0232875Y0158634D02*
X0249199Y0158634D01*
X0249151Y0157636D02*
X0232185Y0157636D01*
X0230659Y0156637D02*
X0249103Y0156637D01*
X0249055Y0155639D02*
X0207000Y0155639D01*
X0207000Y0156637D02*
X0224091Y0156637D01*
X0222565Y0157636D02*
X0207000Y0157636D01*
X0207000Y0158634D02*
X0221875Y0158634D01*
X0221500Y0159633D02*
X0207000Y0159633D01*
X0207000Y0160631D02*
X0221500Y0160631D01*
X0221723Y0161630D02*
X0207000Y0161630D01*
X0207000Y0162628D02*
X0221878Y0162628D01*
X0221500Y0163627D02*
X0207000Y0163627D01*
X0207000Y0164625D02*
X0221500Y0164625D01*
X0221720Y0165624D02*
X0207000Y0165624D01*
X0207698Y0166623D02*
X0222190Y0166623D01*
X0223189Y0167621D02*
X0208697Y0167621D01*
X0211693Y0170617D02*
X0216946Y0170617D01*
X0215924Y0171615D02*
X0212691Y0171615D01*
X0213690Y0172614D02*
X0215418Y0172614D01*
X0215150Y0173612D02*
X0214688Y0173612D01*
X0198600Y0167167D02*
X0189800Y0175967D01*
X0207000Y0154640D02*
X0249007Y0154640D01*
X0248959Y0153642D02*
X0207000Y0153642D01*
X0209451Y0152643D02*
X0240293Y0152643D01*
X0243707Y0152643D02*
X0248912Y0152643D01*
X0248864Y0151645D02*
X0245049Y0151645D01*
X0245688Y0150646D02*
X0248816Y0150646D01*
X0248768Y0149648D02*
X0246050Y0149648D01*
X0246050Y0148649D02*
X0248720Y0148649D01*
X0248672Y0147651D02*
X0245839Y0147651D01*
X0245992Y0146652D02*
X0248624Y0146652D01*
X0248576Y0145654D02*
X0246723Y0145654D01*
X0247136Y0144655D02*
X0248528Y0144655D01*
X0248480Y0143657D02*
X0247150Y0143657D01*
X0247004Y0142658D02*
X0248432Y0142658D01*
X0248384Y0141660D02*
X0246590Y0141660D01*
X0245672Y0140661D02*
X0248336Y0140661D01*
X0248289Y0139663D02*
X0243207Y0139663D01*
X0242217Y0138664D02*
X0248241Y0138664D01*
X0248193Y0137666D02*
X0241227Y0137666D01*
X0240238Y0136667D02*
X0248145Y0136667D01*
X0248097Y0135669D02*
X0239248Y0135669D01*
X0237500Y0138167D02*
X0243100Y0143817D01*
X0243700Y0144367D01*
X0242000Y0148967D02*
X0241800Y0149167D01*
X0207100Y0149267D01*
X0207600Y0145167D02*
X0213400Y0138167D01*
X0237500Y0138167D01*
X0241913Y0129678D02*
X0217550Y0129678D01*
X0217486Y0130676D02*
X0245080Y0130676D01*
X0247905Y0131675D02*
X0217073Y0131675D01*
X0216271Y0132673D02*
X0247953Y0132673D01*
X0248001Y0133672D02*
X0214535Y0133672D01*
X0212465Y0133672D02*
X0207000Y0133672D01*
X0207000Y0134670D02*
X0248049Y0134670D01*
X0238745Y0128679D02*
X0217454Y0128679D01*
X0219564Y0127681D02*
X0235578Y0127681D01*
X0232410Y0126682D02*
X0220457Y0126682D01*
X0220871Y0125684D02*
X0229242Y0125684D01*
X0226075Y0124685D02*
X0221000Y0124685D01*
X0220969Y0123687D02*
X0222907Y0123687D01*
X0209450Y0129678D02*
X0208267Y0129678D01*
X0209514Y0130676D02*
X0206961Y0130676D01*
X0207000Y0131675D02*
X0209927Y0131675D01*
X0210729Y0132673D02*
X0207000Y0132673D01*
X0207000Y0135669D02*
X0211655Y0135669D01*
X0210746Y0136667D02*
X0207000Y0136667D01*
X0207000Y0137666D02*
X0209919Y0137666D01*
X0209092Y0138664D02*
X0207000Y0138664D01*
X0207000Y0139663D02*
X0208264Y0139663D01*
X0207437Y0140661D02*
X0207000Y0140661D01*
X0226709Y0156637D02*
X0228041Y0156637D01*
X0238441Y0171615D02*
X0242288Y0171615D01*
X0241214Y0172614D02*
X0238750Y0172614D01*
X0238750Y0173612D02*
X0240325Y0173612D01*
X0239911Y0174611D02*
X0238486Y0174611D01*
X0237985Y0175609D02*
X0239497Y0175609D01*
X0239450Y0176608D02*
X0236976Y0176608D01*
X0250431Y0187591D02*
X0250589Y0187591D01*
X0069942Y0127681D02*
X0066692Y0127681D01*
X0066279Y0126682D02*
X0068688Y0126682D01*
X0068086Y0125684D02*
X0065344Y0125684D01*
X0067750Y0124685D02*
X0052300Y0124685D01*
X0052300Y0123687D02*
X0067750Y0123687D01*
X0067987Y0122688D02*
X0052300Y0122688D01*
X0052300Y0121690D02*
X0068450Y0121690D01*
X0069448Y0120691D02*
X0052300Y0120691D01*
X0052300Y0125684D02*
X0060256Y0125684D01*
X0059321Y0126682D02*
X0052300Y0126682D01*
X0052757Y0127681D02*
X0058908Y0127681D01*
X0058750Y0128679D02*
X0053755Y0128679D01*
X0054754Y0129678D02*
X0058752Y0129678D01*
X0059166Y0130676D02*
X0055752Y0130676D01*
X0056751Y0131675D02*
X0059880Y0131675D01*
M02*
