%
M48
M72
T01C0.01200
T02C0.01500
T03C0.01518
T04C0.02756
T05C0.03543
T06C0.04000
T07C0.04724
T08C0.05000
T09C0.11811
%
T01
X24200Y77317
X24250Y81967
X28900Y81967
X28900Y77317
X93500Y146567
X97450Y146567
X97450Y150517
X93500Y150517
X111250Y46167
X115200Y46167
X115200Y42217
X111250Y42217
X225400Y160317
X229350Y160317
X229350Y164317
X225400Y164317
T02
X219200Y174067
X215200Y184667
X219700Y185767
X210154Y184867
X201900Y190717
X234700Y173167
X242000Y148967
X243100Y143817
X230750Y145917
X213500Y129717
X210650Y125617
X205250Y126967
X206700Y120867
X216950Y124567
X207600Y145167
X207100Y149267
X183350Y138567
X178050Y138617
X173350Y136167
X179400Y133867
X174350Y142567
X180500Y143767
X160700Y165067
X157300Y168367
X155500Y172267
X147800Y165067
X169000Y181067
X149800Y192617
X142700Y194867
X111000Y162767
X106850Y162617
X116800Y159517
X106200Y177967
X100600Y177767
X94600Y178067
X88150Y182167
X82100Y158867
X79800Y142867
X62800Y128867
X71800Y124067
X83700Y118467
X85700Y107067
X92800Y108367
X79500Y105667
X75100Y107867
X68900Y106167
X62300Y94867
X65500Y91867
X70400Y91967
X75100Y93567
X83700Y94467
X66600Y79867
X59500Y78567
X57044Y81723
X44800Y80267
X41800Y74567
X34900Y70667
X34350Y65267
X29850Y57717
X22150Y62667
X11800Y83567
X34600Y87767
X45200Y92567
X53000Y107867
X35400Y107167
X26400Y118267
X11100Y136967
X36700Y158217
X45700Y152267
X50300Y144267
X55350Y153317
X105050Y114267
X125500Y102867
X135900Y103267
X123500Y90367
X110600Y91067
X109600Y87267
X108600Y83467
X87200Y75567
X78350Y61117
X68300Y69067
X64900Y63067
X61000Y60567
X61163Y66883
X71900Y49467
X65700Y43967
X61300Y43067
X55700Y38267
X59800Y35967
X74800Y42767
X77800Y47267
X90300Y42417
X97150Y58467
X92500Y59767
X106200Y55867
X125300Y57267
X134600Y60267
X140600Y58467
X138900Y54767
X148300Y58667
X137800Y78667
X152400Y106367
X142700Y121467
X142850Y129117
X152100Y124967
X127850Y125167
X127700Y119717
X121300Y32267
X126000Y31917
X147850Y21667
X118250Y8467
X110400Y10317
X103650Y12067
X97750Y12217
X89800Y13117
X84300Y11267
X84450Y16567
X87300Y20517
X80100Y19667
X79900Y14317
T03
X36900Y22667
X40000Y29367
X27200Y38267
X27200Y47467
X56500Y25767
X84100Y31867
X68200Y60667
X62700Y76367
X84300Y71067
X88700Y66367
X86500Y79967
X90500Y86567
X102400Y117767
X102600Y129967
X159500Y180867
X163800Y181467
T04
X181100Y166467
X188600Y166467
X188600Y158967
X181100Y158967
X181100Y151467
X188600Y151467
X137800Y191967
X137800Y199467
X137800Y206967
X130300Y206967
X130300Y199467
X130300Y191967
X191100Y199367
X191100Y206867
X245700Y208767
X245700Y201267
X245700Y193767
X245700Y186267
T05
X19064Y150959
X19923Y131292
T06
X14725Y66064
X15074Y56070
X60700Y12667
X70700Y12667
X127800Y174267
X137800Y174267
T07
X8273Y154428
X9475Y126896
T08
X15400Y95467
X104300Y124267
X156400Y14467
X245700Y176967
T09
X241157Y225504
X134622Y14678
X14268Y169796
M30
