G75*
%MOIN*%
%OFA0B0*%
%FSLAX25Y25*%
%IPPOS*%
%LPD*%
%AMOC8*
5,1,8,0,0,1.08239X$1,22.5*
%
%ADD10C,0.12611*%
%ADD11C,0.06343*%
%ADD12C,0.07887*%
%ADD13R,0.04737X0.05131*%
%ADD14R,0.07898X0.07099*%
%ADD15R,0.07099X0.07898*%
%ADD16R,0.09900X0.05900*%
%ADD17R,0.26400X0.24000*%
%ADD18C,0.05556*%
%ADD19R,0.06706X0.16548*%
%ADD20R,0.06706X0.04737*%
%ADD21R,0.05131X0.04737*%
%ADD22C,0.08200*%
%ADD23C,0.03900*%
%ADD24C,0.03600*%
%ADD25C,0.03918*%
%ADD26C,0.08300*%
D10*
X0134622Y0014678D03*
X0014268Y0169796D03*
X0241157Y0225504D03*
D11*
X0019064Y0150959D03*
X0019923Y0131292D03*
D12*
X0009475Y0126896D03*
X0008273Y0154428D03*
D13*
X0061345Y0085296D03*
X0068038Y0085296D03*
X0073204Y0080967D03*
X0079896Y0080967D03*
X0079146Y0072967D03*
X0072454Y0072967D03*
X0121654Y0081967D03*
X0128346Y0081967D03*
X0130354Y0097867D03*
X0137046Y0097867D03*
D14*
X0125200Y0049865D03*
X0125200Y0038668D03*
X0101200Y0038768D03*
X0101200Y0049965D03*
X0215400Y0156668D03*
X0215400Y0167865D03*
X0239400Y0167865D03*
X0239400Y0156668D03*
D15*
X0100998Y0160467D03*
X0089802Y0160467D03*
X0089802Y0136567D03*
X0100998Y0136567D03*
D16*
X0146100Y0136617D03*
X0146100Y0154617D03*
D17*
X0121350Y0145617D03*
D18*
X0130300Y0191967D03*
X0130300Y0199467D03*
X0130300Y0206967D03*
X0137800Y0206967D03*
X0137800Y0199467D03*
X0137800Y0191967D03*
X0181100Y0166467D03*
X0188600Y0166467D03*
X0188600Y0158967D03*
X0181100Y0158967D03*
X0181100Y0151467D03*
X0188600Y0151467D03*
X0191100Y0199367D03*
X0191100Y0206867D03*
X0245700Y0208767D03*
X0245700Y0201267D03*
X0245700Y0193767D03*
X0245700Y0186267D03*
D19*
X0023505Y0022567D03*
D20*
X0049095Y0022567D03*
X0049095Y0031622D03*
X0049095Y0013512D03*
D21*
X0117200Y0088720D03*
X0117200Y0095413D03*
D22*
X0127800Y0174267D03*
X0137800Y0174267D03*
X0014725Y0066064D03*
X0015074Y0056070D03*
X0060700Y0012667D03*
X0070700Y0012667D03*
D23*
X0079900Y0014317D03*
X0084450Y0016567D03*
X0087300Y0020517D03*
X0080100Y0019667D03*
X0084300Y0011267D03*
X0089800Y0013117D03*
X0097750Y0012217D03*
X0103650Y0012067D03*
X0110400Y0010317D03*
X0118250Y0008467D03*
X0121300Y0032267D03*
X0126000Y0031917D03*
X0147850Y0021667D03*
X0138900Y0054767D03*
X0140600Y0058467D03*
X0134600Y0060267D03*
X0125300Y0057267D03*
X0106200Y0055867D03*
X0097150Y0058467D03*
X0092500Y0059767D03*
X0078350Y0061117D03*
X0068300Y0069067D03*
X0064900Y0063067D03*
X0061000Y0060567D03*
X0061163Y0066883D03*
X0059500Y0078567D03*
X0057044Y0081723D03*
X0066600Y0079867D03*
X0065500Y0091867D03*
X0062300Y0094867D03*
X0070400Y0091967D03*
X0075100Y0093567D03*
X0083700Y0094467D03*
X0079500Y0105667D03*
X0075100Y0107867D03*
X0068900Y0106167D03*
X0053000Y0107867D03*
X0045200Y0092567D03*
X0034600Y0087767D03*
X0044800Y0080267D03*
X0041800Y0074567D03*
X0034900Y0070667D03*
X0034350Y0065267D03*
X0029850Y0057717D03*
X0022150Y0062667D03*
X0011800Y0083567D03*
X0035400Y0107167D03*
X0026400Y0118267D03*
X0011100Y0136967D03*
X0036700Y0158217D03*
X0045700Y0152267D03*
X0050300Y0144267D03*
X0055350Y0153317D03*
X0079800Y0142867D03*
X0082100Y0158867D03*
X0094600Y0178067D03*
X0100600Y0177767D03*
X0106200Y0177967D03*
X0106850Y0162617D03*
X0111000Y0162767D03*
X0116800Y0159517D03*
X0088150Y0182167D03*
X0142700Y0194867D03*
X0149800Y0192617D03*
X0155500Y0172267D03*
X0157300Y0168367D03*
X0160700Y0165067D03*
X0147800Y0165067D03*
X0169000Y0181067D03*
X0201900Y0190717D03*
X0210154Y0184867D03*
X0215200Y0184667D03*
X0219700Y0185767D03*
X0219200Y0174067D03*
X0234700Y0173167D03*
X0242000Y0148967D03*
X0243100Y0143817D03*
X0230750Y0145917D03*
X0213500Y0129717D03*
X0210650Y0125617D03*
X0205250Y0126967D03*
X0206700Y0120867D03*
X0216950Y0124567D03*
X0207600Y0145167D03*
X0207100Y0149267D03*
X0183350Y0138567D03*
X0178050Y0138617D03*
X0173350Y0136167D03*
X0179400Y0133867D03*
X0174350Y0142567D03*
X0180500Y0143767D03*
X0152100Y0124967D03*
X0142700Y0121467D03*
X0142850Y0129117D03*
X0127850Y0125167D03*
X0127700Y0119717D03*
X0125500Y0102867D03*
X0135900Y0103267D03*
X0123500Y0090367D03*
X0110600Y0091067D03*
X0109600Y0087267D03*
X0108600Y0083467D03*
X0087200Y0075567D03*
X0071900Y0049467D03*
X0065700Y0043967D03*
X0061300Y0043067D03*
X0055700Y0038267D03*
X0059800Y0035967D03*
X0074800Y0042767D03*
X0077800Y0047267D03*
X0090900Y0043017D03*
X0137800Y0078667D03*
X0148300Y0058667D03*
X0152400Y0106367D03*
X0105050Y0114267D03*
X0092800Y0108367D03*
X0085700Y0107067D03*
X0083700Y0118467D03*
X0071800Y0124067D03*
X0062800Y0128867D03*
D24*
X0093500Y0146567D03*
X0097450Y0146567D03*
X0097450Y0150517D03*
X0093500Y0150517D03*
X0028900Y0081967D03*
X0024250Y0081967D03*
X0024200Y0077317D03*
X0028900Y0077317D03*
X0111250Y0046167D03*
X0115200Y0046167D03*
X0115200Y0042217D03*
X0111250Y0042217D03*
X0225400Y0160317D03*
X0229350Y0160317D03*
X0229350Y0164317D03*
X0225400Y0164317D03*
D25*
X0163800Y0181467D03*
X0159500Y0180867D03*
X0102600Y0129967D03*
X0102400Y0117767D03*
X0090500Y0086567D03*
X0086500Y0079967D03*
X0084300Y0071067D03*
X0088700Y0066367D03*
X0068200Y0060667D03*
X0062700Y0076367D03*
X0027200Y0047467D03*
X0027200Y0038267D03*
X0040000Y0029367D03*
X0036900Y0022667D03*
X0056500Y0025767D03*
X0084100Y0031867D03*
D26*
X0015400Y0095467D03*
X0104300Y0124267D03*
X0156400Y0014467D03*
X0245700Y0176967D03*
M02*
