G75*
%MOIN*%
%OFA0B0*%
%FSLAX25Y25*%
%IPPOS*%
%LPD*%
%AMOC8*
5,1,8,0,0,1.08239X$1,22.5*
%
%ADD10C,0.05543*%
%ADD11C,0.07087*%
%ADD12C,0.04756*%
%ADD13C,0.06000*%
%ADD14C,0.03100*%
%ADD15C,0.11000*%
%ADD16C,0.01000*%
%ADD17C,0.02800*%
%ADD18C,0.06000*%
%ADD19C,0.01500*%
%ADD20C,0.15000*%
%ADD21C,0.03000*%
%ADD22C,0.03118*%
%ADD23C,0.07500*%
D10*
X0019923Y0131292D03*
X0019064Y0150959D03*
D11*
X0008273Y0154428D03*
X0009475Y0126896D03*
D12*
X0130300Y0191967D03*
X0130300Y0199467D03*
X0130300Y0206967D03*
X0137800Y0206967D03*
X0137800Y0199467D03*
X0137800Y0191967D03*
X0181100Y0166467D03*
X0188600Y0166467D03*
X0188600Y0158967D03*
X0181100Y0158967D03*
X0181100Y0151467D03*
X0188600Y0151467D03*
X0191100Y0199367D03*
X0191100Y0206867D03*
X0245700Y0208767D03*
X0245700Y0201267D03*
X0245700Y0193767D03*
X0245700Y0186267D03*
D13*
X0137800Y0174267D03*
X0127800Y0174267D03*
X0014725Y0066064D03*
X0015074Y0056070D03*
X0060700Y0012667D03*
X0070700Y0012667D03*
D14*
X0079900Y0014317D03*
X0084450Y0016567D03*
X0087300Y0020517D03*
X0080100Y0019667D03*
X0084300Y0011267D03*
X0089800Y0013117D03*
X0097750Y0012217D03*
X0103650Y0012067D03*
X0110400Y0010317D03*
X0118250Y0008467D03*
X0121300Y0032267D03*
X0126000Y0031917D03*
X0147850Y0021667D03*
X0138900Y0054767D03*
X0140600Y0058467D03*
X0134600Y0060267D03*
X0125300Y0057267D03*
X0106200Y0055867D03*
X0097150Y0058467D03*
X0092500Y0059767D03*
X0078350Y0061117D03*
X0068300Y0069067D03*
X0064900Y0063067D03*
X0061000Y0060567D03*
X0061163Y0066883D03*
X0059500Y0078567D03*
X0057044Y0081723D03*
X0066600Y0079867D03*
X0065500Y0091867D03*
X0062300Y0094867D03*
X0070400Y0091967D03*
X0075100Y0093567D03*
X0083700Y0094467D03*
X0079500Y0105667D03*
X0075100Y0107867D03*
X0068900Y0106167D03*
X0053000Y0107867D03*
X0045200Y0092567D03*
X0034600Y0087767D03*
X0044800Y0080267D03*
X0041800Y0074567D03*
X0034900Y0070667D03*
X0034350Y0065267D03*
X0029850Y0057717D03*
X0022150Y0062667D03*
X0011800Y0083567D03*
X0035400Y0107167D03*
X0026400Y0118267D03*
X0011100Y0136967D03*
X0036700Y0158217D03*
X0045700Y0152267D03*
X0050300Y0144267D03*
X0055350Y0153317D03*
X0079800Y0142867D03*
X0082100Y0158867D03*
X0094600Y0178067D03*
X0100600Y0177767D03*
X0106200Y0177967D03*
X0106850Y0162617D03*
X0111000Y0162767D03*
X0116800Y0159517D03*
X0088150Y0182167D03*
X0142700Y0194867D03*
X0149800Y0192617D03*
X0155500Y0172267D03*
X0157300Y0168367D03*
X0160700Y0165067D03*
X0147800Y0165067D03*
X0169000Y0181067D03*
X0201900Y0190717D03*
X0210154Y0184867D03*
X0215200Y0184667D03*
X0219700Y0185767D03*
X0219200Y0174067D03*
X0234700Y0173167D03*
X0242000Y0148967D03*
X0243100Y0143817D03*
X0230750Y0145917D03*
X0213500Y0129717D03*
X0210650Y0125617D03*
X0205250Y0126967D03*
X0206700Y0120867D03*
X0216950Y0124567D03*
X0207600Y0145167D03*
X0207100Y0149267D03*
X0183350Y0138567D03*
X0178050Y0138617D03*
X0173350Y0136167D03*
X0179400Y0133867D03*
X0174350Y0142567D03*
X0180500Y0143767D03*
X0152100Y0124967D03*
X0142700Y0121467D03*
X0142850Y0129117D03*
X0127850Y0125167D03*
X0127700Y0119717D03*
X0125500Y0102867D03*
X0135900Y0103267D03*
X0123500Y0090367D03*
X0110600Y0091067D03*
X0109600Y0087267D03*
X0108600Y0083467D03*
X0087200Y0075567D03*
X0071900Y0049467D03*
X0065700Y0043967D03*
X0061300Y0043067D03*
X0055700Y0038267D03*
X0059800Y0035967D03*
X0074800Y0042767D03*
X0077800Y0047267D03*
X0090900Y0043017D03*
X0137800Y0078667D03*
X0148300Y0058667D03*
X0152400Y0106367D03*
X0105050Y0114267D03*
X0092800Y0108367D03*
X0085700Y0107067D03*
X0083700Y0118467D03*
X0071800Y0124067D03*
X0062800Y0128867D03*
D15*
X0095400Y0148067D02*
X0105050Y0138417D01*
X0105050Y0137717D01*
X0105050Y0114267D01*
X0114650Y0114267D01*
X0118350Y0110567D01*
X0133150Y0110567D01*
X0135750Y0113167D01*
X0145700Y0113067D01*
X0146750Y0114117D01*
X0161250Y0115317D01*
X0163900Y0112667D01*
X0187975Y0136742D01*
X0197550Y0145317D01*
X0197550Y0151317D01*
X0205700Y0159467D01*
X0207200Y0160967D01*
X0226029Y0160967D01*
X0227378Y0162315D01*
X0227378Y0162389D01*
X0225400Y0164317D01*
X0163900Y0112667D02*
X0163900Y0107367D01*
X0163900Y0084717D01*
X0157600Y0078417D01*
X0157600Y0059917D01*
X0157600Y0044467D01*
X0157250Y0044817D01*
X0119450Y0044817D01*
X0118100Y0046167D01*
X0111250Y0046167D01*
D16*
X0055651Y0014849D02*
X0016539Y0014849D01*
X0015650Y0015847D02*
X0056102Y0015847D01*
X0056037Y0015782D02*
X0055200Y0013761D01*
X0055200Y0011573D01*
X0056037Y0009551D01*
X0057584Y0008004D01*
X0059123Y0007367D01*
X0023205Y0007367D01*
X0013613Y0018133D01*
X0011994Y0051392D01*
X0013980Y0050570D01*
X0016169Y0050570D01*
X0018190Y0051407D01*
X0019737Y0052954D01*
X0020574Y0054976D01*
X0020574Y0057164D01*
X0019737Y0059185D01*
X0018190Y0060732D01*
X0017208Y0061139D01*
X0017841Y0061401D01*
X0018159Y0061719D01*
X0018717Y0060373D01*
X0019856Y0059233D01*
X0021344Y0058617D01*
X0022956Y0058617D01*
X0024444Y0059233D01*
X0025583Y0060373D01*
X0026200Y0061861D01*
X0026200Y0063472D01*
X0025583Y0064961D01*
X0024444Y0066100D01*
X0022956Y0066717D01*
X0021344Y0066717D01*
X0020225Y0066253D01*
X0020225Y0067158D01*
X0019388Y0069179D01*
X0017841Y0070726D01*
X0015820Y0071564D01*
X0013631Y0071564D01*
X0011610Y0070726D01*
X0011079Y0070195D01*
X0010617Y0079673D01*
X0010994Y0079517D01*
X0012606Y0079517D01*
X0014094Y0080133D01*
X0015233Y0081273D01*
X0015850Y0082761D01*
X0015850Y0084372D01*
X0015233Y0085861D01*
X0014094Y0087000D01*
X0012606Y0087617D01*
X0010994Y0087617D01*
X0010246Y0087307D01*
X0008613Y0120852D01*
X0010677Y0120852D01*
X0012898Y0121772D01*
X0014598Y0123472D01*
X0015518Y0125693D01*
X0015518Y0128098D01*
X0014598Y0130319D01*
X0012898Y0132019D01*
X0010677Y0132939D01*
X0008273Y0132939D01*
X0008029Y0132838D01*
X0007616Y0141318D01*
X0007281Y0148385D01*
X0009475Y0148385D01*
X0011696Y0149305D01*
X0013396Y0151005D01*
X0013793Y0151963D01*
X0013793Y0149910D01*
X0014595Y0147973D01*
X0016078Y0146490D01*
X0018016Y0145687D01*
X0020113Y0145687D01*
X0022051Y0146490D01*
X0023534Y0147973D01*
X0024336Y0149910D01*
X0024336Y0152007D01*
X0023534Y0153945D01*
X0022051Y0155428D01*
X0020113Y0156230D01*
X0018016Y0156230D01*
X0016078Y0155428D01*
X0014595Y0153945D01*
X0014316Y0153271D01*
X0014316Y0155630D01*
X0013396Y0157852D01*
X0011696Y0159552D01*
X0010598Y0160007D01*
X0012898Y0159390D01*
X0015638Y0159390D01*
X0018284Y0160099D01*
X0020657Y0161469D01*
X0022594Y0163407D01*
X0023964Y0165779D01*
X0024673Y0168426D01*
X0024673Y0171166D01*
X0023964Y0173812D01*
X0022594Y0176185D01*
X0020657Y0178122D01*
X0018284Y0179492D01*
X0015638Y0180201D01*
X0012898Y0180201D01*
X0010251Y0179492D01*
X0007879Y0178122D01*
X0005962Y0176205D01*
X0005762Y0180405D01*
X0076824Y0183880D01*
X0076825Y0183879D01*
X0077712Y0183923D01*
X0078610Y0183967D01*
X0078612Y0183968D01*
X0078613Y0183968D01*
X0078998Y0184150D01*
X0079350Y0184167D01*
X0079349Y0184316D01*
X0079418Y0184349D01*
X0080228Y0184732D01*
X0080230Y0184733D01*
X0080231Y0184734D01*
X0080831Y0185396D01*
X0081431Y0186058D01*
X0081432Y0186060D01*
X0081433Y0186061D01*
X0081733Y0186902D01*
X0082034Y0187744D01*
X0082034Y0187745D01*
X0082035Y0187747D01*
X0081991Y0188627D01*
X0081947Y0189532D01*
X0081946Y0189533D01*
X0080994Y0208709D01*
X0135680Y0211368D01*
X0135037Y0211102D01*
X0133665Y0209730D01*
X0133455Y0209224D01*
X0133312Y0209439D01*
X0132772Y0209979D01*
X0132137Y0210403D01*
X0131431Y0210696D01*
X0130682Y0210845D01*
X0130489Y0210845D01*
X0130489Y0207156D01*
X0130111Y0207156D01*
X0130111Y0210845D01*
X0129918Y0210845D01*
X0129169Y0210696D01*
X0128463Y0210403D01*
X0127828Y0209979D01*
X0127288Y0209439D01*
X0126863Y0208804D01*
X0126571Y0208098D01*
X0126422Y0207349D01*
X0126422Y0207156D01*
X0130111Y0207156D01*
X0130111Y0206778D01*
X0126422Y0206778D01*
X0126422Y0206585D01*
X0126571Y0205835D01*
X0126863Y0205130D01*
X0127288Y0204495D01*
X0127828Y0203954D01*
X0128042Y0203811D01*
X0127537Y0203602D01*
X0126165Y0202230D01*
X0125422Y0200437D01*
X0125422Y0198496D01*
X0126165Y0196704D01*
X0127152Y0195717D01*
X0126165Y0194730D01*
X0125422Y0192937D01*
X0125422Y0190996D01*
X0126165Y0189204D01*
X0127537Y0187831D01*
X0129330Y0187089D01*
X0131270Y0187089D01*
X0133063Y0187831D01*
X0134050Y0188818D01*
X0135037Y0187831D01*
X0136830Y0187089D01*
X0138770Y0187089D01*
X0140563Y0187831D01*
X0141935Y0189204D01*
X0142603Y0190817D01*
X0143506Y0190817D01*
X0144994Y0191433D01*
X0146133Y0192573D01*
X0146750Y0194061D01*
X0146750Y0195672D01*
X0146133Y0197161D01*
X0144994Y0198300D01*
X0143506Y0198917D01*
X0142678Y0198917D01*
X0142678Y0200437D01*
X0141935Y0202230D01*
X0140948Y0203217D01*
X0141935Y0204204D01*
X0142678Y0205996D01*
X0142678Y0207937D01*
X0141935Y0209730D01*
X0140563Y0211102D01*
X0139475Y0211553D01*
X0196907Y0214346D01*
X0197585Y0214313D01*
X0197795Y0214389D01*
X0198018Y0214400D01*
X0198631Y0214689D01*
X0199270Y0214919D01*
X0199435Y0215069D01*
X0199637Y0215164D01*
X0200092Y0215667D01*
X0200594Y0216123D01*
X0200690Y0216325D01*
X0200840Y0216490D01*
X0201069Y0217129D01*
X0201358Y0217742D01*
X0201368Y0217965D01*
X0201444Y0218175D01*
X0201411Y0218853D01*
X0202247Y0236354D01*
X0235937Y0234505D01*
X0234768Y0233831D01*
X0232831Y0231894D01*
X0231461Y0229521D01*
X0230752Y0226874D01*
X0230752Y0224135D01*
X0231461Y0221488D01*
X0232831Y0219115D01*
X0234768Y0217178D01*
X0237141Y0215808D01*
X0239788Y0215099D01*
X0242527Y0215099D01*
X0245174Y0215808D01*
X0247547Y0217178D01*
X0249484Y0219115D01*
X0250854Y0221488D01*
X0251563Y0224135D01*
X0251563Y0226874D01*
X0250854Y0229521D01*
X0249484Y0231894D01*
X0247547Y0233831D01*
X0247475Y0233872D01*
X0252826Y0233579D01*
X0250578Y0186878D01*
X0250578Y0187237D01*
X0249835Y0189030D01*
X0248848Y0190017D01*
X0249835Y0191004D01*
X0250578Y0192796D01*
X0250578Y0194737D01*
X0249835Y0196530D01*
X0248848Y0197517D01*
X0249835Y0198504D01*
X0250578Y0200296D01*
X0250578Y0202237D01*
X0249835Y0204030D01*
X0248463Y0205402D01*
X0247958Y0205611D01*
X0248172Y0205754D01*
X0248712Y0206295D01*
X0249137Y0206930D01*
X0249429Y0207635D01*
X0249578Y0208385D01*
X0249578Y0208578D01*
X0245889Y0208578D01*
X0245889Y0208956D01*
X0245511Y0208956D01*
X0245511Y0212645D01*
X0245318Y0212645D01*
X0244569Y0212496D01*
X0243863Y0212203D01*
X0243228Y0211779D01*
X0242688Y0211239D01*
X0242263Y0210604D01*
X0241971Y0209898D01*
X0241822Y0209149D01*
X0241822Y0208956D01*
X0245511Y0208956D01*
X0245511Y0208578D01*
X0241822Y0208578D01*
X0241822Y0208385D01*
X0241971Y0207635D01*
X0242263Y0206930D01*
X0242688Y0206295D01*
X0243228Y0205754D01*
X0243442Y0205611D01*
X0242937Y0205402D01*
X0241565Y0204030D01*
X0240822Y0202237D01*
X0240822Y0200296D01*
X0241565Y0198504D01*
X0242552Y0197517D01*
X0241565Y0196530D01*
X0240822Y0194737D01*
X0240822Y0192796D01*
X0241565Y0191004D01*
X0242552Y0190017D01*
X0241565Y0189030D01*
X0240822Y0187237D01*
X0240822Y0185296D01*
X0241565Y0183504D01*
X0242937Y0182131D01*
X0244730Y0181389D01*
X0246670Y0181389D01*
X0248463Y0182131D01*
X0249835Y0183504D01*
X0250492Y0185088D01*
X0247916Y0131570D01*
X0220678Y0122984D01*
X0221000Y0123761D01*
X0221000Y0125372D01*
X0220383Y0126861D01*
X0219244Y0128000D01*
X0217756Y0128617D01*
X0217428Y0128617D01*
X0217550Y0128911D01*
X0217550Y0130522D01*
X0216933Y0132011D01*
X0215794Y0133150D01*
X0214306Y0133767D01*
X0212694Y0133767D01*
X0211206Y0133150D01*
X0210067Y0132011D01*
X0209450Y0130522D01*
X0209450Y0129503D01*
X0208710Y0129197D01*
X0208683Y0129261D01*
X0207544Y0130400D01*
X0206056Y0131017D01*
X0204444Y0131017D01*
X0202956Y0130400D01*
X0201817Y0129261D01*
X0201200Y0127772D01*
X0201200Y0126161D01*
X0201817Y0124673D01*
X0202956Y0123533D01*
X0203439Y0123333D01*
X0203267Y0123161D01*
X0202650Y0121672D01*
X0202650Y0120061D01*
X0203267Y0118573D01*
X0204086Y0117753D01*
X0203149Y0117458D01*
X0199148Y0116353D01*
X0199148Y0116353D01*
X0194695Y0114236D01*
X0193550Y0113917D01*
X0192635Y0113256D01*
X0191503Y0112717D01*
X0184606Y0107809D01*
X0183404Y0106589D01*
X0181850Y0105467D01*
X0180980Y0104128D01*
X0178666Y0101778D01*
X0173864Y0094807D01*
X0172231Y0091236D01*
X0171916Y0090738D01*
X0171862Y0090429D01*
X0171732Y0090144D01*
X0171722Y0089878D01*
X0171650Y0089767D01*
X0170930Y0085049D01*
X0166782Y0061122D01*
X0166737Y0061044D01*
X0166630Y0060243D01*
X0166492Y0059446D01*
X0166512Y0059359D01*
X0166012Y0055630D01*
X0166012Y0055630D01*
X0165992Y0046494D01*
X0167165Y0037435D01*
X0167165Y0037435D01*
X0169510Y0028606D01*
X0170952Y0025102D01*
X0170957Y0024986D01*
X0171291Y0024278D01*
X0171589Y0023554D01*
X0171594Y0023550D01*
X0172238Y0021965D01*
X0173289Y0017317D01*
X0173403Y0015382D01*
X0173430Y0014834D01*
X0173433Y0014039D01*
X0173473Y0013943D01*
X0173794Y0007367D01*
X0142027Y0007367D01*
X0142949Y0008289D01*
X0144318Y0010661D01*
X0145028Y0013308D01*
X0145028Y0016048D01*
X0144318Y0018694D01*
X0142949Y0021067D01*
X0141011Y0023004D01*
X0138638Y0024374D01*
X0135992Y0025083D01*
X0133252Y0025083D01*
X0130606Y0024374D01*
X0128233Y0023004D01*
X0126296Y0021067D01*
X0124926Y0018694D01*
X0124217Y0016048D01*
X0124217Y0013308D01*
X0124926Y0010661D01*
X0126296Y0008289D01*
X0127217Y0007367D01*
X0113178Y0007367D01*
X0113833Y0008023D01*
X0114450Y0009511D01*
X0114450Y0011122D01*
X0113833Y0012611D01*
X0112694Y0013750D01*
X0111206Y0014367D01*
X0109594Y0014367D01*
X0108106Y0013750D01*
X0107562Y0013206D01*
X0107083Y0014361D01*
X0105944Y0015500D01*
X0104456Y0016117D01*
X0102844Y0016117D01*
X0101356Y0015500D01*
X0100775Y0014919D01*
X0100044Y0015650D01*
X0098556Y0016267D01*
X0096944Y0016267D01*
X0095456Y0015650D01*
X0094317Y0014511D01*
X0093850Y0013384D01*
X0093850Y0013922D01*
X0093233Y0015411D01*
X0092094Y0016550D01*
X0090606Y0017167D01*
X0089678Y0017167D01*
X0090733Y0018223D01*
X0091350Y0019711D01*
X0091350Y0021322D01*
X0090733Y0022811D01*
X0089594Y0023950D01*
X0088106Y0024567D01*
X0086494Y0024567D01*
X0085006Y0023950D01*
X0083867Y0022811D01*
X0083520Y0021974D01*
X0082394Y0023100D01*
X0080906Y0023717D01*
X0079294Y0023717D01*
X0077806Y0023100D01*
X0076667Y0021961D01*
X0076050Y0020472D01*
X0076050Y0018861D01*
X0076667Y0017373D01*
X0076947Y0017092D01*
X0076467Y0016611D01*
X0075850Y0015122D01*
X0075850Y0014606D01*
X0075363Y0015782D01*
X0073815Y0017329D01*
X0071794Y0018167D01*
X0069606Y0018167D01*
X0067584Y0017329D01*
X0066037Y0015782D01*
X0065700Y0014968D01*
X0065363Y0015782D01*
X0063815Y0017329D01*
X0061794Y0018167D01*
X0059606Y0018167D01*
X0057584Y0017329D01*
X0056037Y0015782D01*
X0057101Y0016846D02*
X0014760Y0016846D01*
X0013871Y0017844D02*
X0058828Y0017844D01*
X0057307Y0021708D02*
X0055693Y0021708D01*
X0054201Y0022326D01*
X0053059Y0023467D01*
X0052441Y0024959D01*
X0052441Y0026574D01*
X0053059Y0028066D01*
X0054201Y0029208D01*
X0055693Y0029826D01*
X0057307Y0029826D01*
X0058799Y0029208D01*
X0059941Y0028066D01*
X0060559Y0026574D01*
X0060559Y0024959D01*
X0059941Y0023467D01*
X0058799Y0022326D01*
X0057307Y0021708D01*
X0057623Y0021838D02*
X0076616Y0021838D01*
X0076202Y0020840D02*
X0013482Y0020840D01*
X0013433Y0021838D02*
X0055377Y0021838D01*
X0053689Y0022837D02*
X0013384Y0022837D01*
X0013336Y0023835D02*
X0052906Y0023835D01*
X0052493Y0024834D02*
X0013287Y0024834D01*
X0013239Y0025832D02*
X0037926Y0025832D01*
X0037701Y0025926D02*
X0039193Y0025308D01*
X0040807Y0025308D01*
X0042299Y0025926D01*
X0043441Y0027067D01*
X0044059Y0028559D01*
X0044059Y0030174D01*
X0043441Y0031666D01*
X0042299Y0032808D01*
X0040807Y0033426D01*
X0039193Y0033426D01*
X0037701Y0032808D01*
X0036559Y0031666D01*
X0035941Y0030174D01*
X0035941Y0028559D01*
X0036559Y0027067D01*
X0037701Y0025926D01*
X0036795Y0026831D02*
X0013190Y0026831D01*
X0013141Y0027829D02*
X0036243Y0027829D01*
X0035941Y0028828D02*
X0013093Y0028828D01*
X0013044Y0029826D02*
X0035941Y0029826D01*
X0036211Y0030825D02*
X0012995Y0030825D01*
X0012947Y0031823D02*
X0036716Y0031823D01*
X0037735Y0032822D02*
X0012898Y0032822D01*
X0012850Y0033821D02*
X0056305Y0033821D01*
X0056367Y0033673D02*
X0057506Y0032533D01*
X0058994Y0031917D01*
X0060606Y0031917D01*
X0062094Y0032533D01*
X0063233Y0033673D01*
X0063850Y0035161D01*
X0063850Y0036772D01*
X0063233Y0038261D01*
X0062369Y0039126D01*
X0063594Y0039633D01*
X0064175Y0040214D01*
X0064894Y0039917D01*
X0066506Y0039917D01*
X0067994Y0040533D01*
X0069133Y0041673D01*
X0069750Y0043161D01*
X0069750Y0044772D01*
X0069133Y0046261D01*
X0067994Y0047400D01*
X0066506Y0048017D01*
X0064894Y0048017D01*
X0063406Y0047400D01*
X0062825Y0046819D01*
X0062106Y0047117D01*
X0060494Y0047117D01*
X0059006Y0046500D01*
X0057867Y0045361D01*
X0057250Y0043872D01*
X0057250Y0042261D01*
X0057376Y0041956D01*
X0056506Y0042317D01*
X0054894Y0042317D01*
X0053406Y0041700D01*
X0052267Y0040561D01*
X0051650Y0039072D01*
X0051650Y0037461D01*
X0052267Y0035973D01*
X0053406Y0034833D01*
X0054894Y0034217D01*
X0056141Y0034217D01*
X0056367Y0033673D01*
X0057217Y0032822D02*
X0042265Y0032822D01*
X0043284Y0031823D02*
X0080041Y0031823D01*
X0080041Y0031059D02*
X0080041Y0032674D01*
X0080659Y0034166D01*
X0081801Y0035308D01*
X0083293Y0035926D01*
X0084907Y0035926D01*
X0086399Y0035308D01*
X0087541Y0034166D01*
X0088159Y0032674D01*
X0088159Y0031059D01*
X0087541Y0029567D01*
X0086399Y0028426D01*
X0084907Y0027808D01*
X0083293Y0027808D01*
X0081801Y0028426D01*
X0080659Y0029567D01*
X0080041Y0031059D01*
X0080138Y0030825D02*
X0043789Y0030825D01*
X0044059Y0029826D02*
X0080552Y0029826D01*
X0081398Y0028828D02*
X0059179Y0028828D01*
X0060039Y0027829D02*
X0083240Y0027829D01*
X0084960Y0027829D02*
X0169829Y0027829D01*
X0169510Y0028606D02*
X0169510Y0028606D01*
X0169451Y0028828D02*
X0128639Y0028828D01*
X0128294Y0028483D02*
X0129433Y0029623D01*
X0130050Y0031111D01*
X0130050Y0032722D01*
X0129433Y0034211D01*
X0128294Y0035350D01*
X0126806Y0035967D01*
X0125194Y0035967D01*
X0123874Y0035420D01*
X0123594Y0035700D01*
X0122106Y0036317D01*
X0120494Y0036317D01*
X0119006Y0035700D01*
X0117867Y0034561D01*
X0117250Y0033072D01*
X0117250Y0031461D01*
X0117867Y0029973D01*
X0119006Y0028833D01*
X0120494Y0028217D01*
X0122106Y0028217D01*
X0123426Y0028763D01*
X0123706Y0028483D01*
X0125194Y0027867D01*
X0126806Y0027867D01*
X0128294Y0028483D01*
X0129518Y0029826D02*
X0169185Y0029826D01*
X0168920Y0030825D02*
X0129931Y0030825D01*
X0130050Y0031823D02*
X0168655Y0031823D01*
X0168390Y0032822D02*
X0130009Y0032822D01*
X0129595Y0033821D02*
X0168125Y0033821D01*
X0167859Y0034819D02*
X0128825Y0034819D01*
X0127166Y0035818D02*
X0167594Y0035818D01*
X0167329Y0036816D02*
X0063832Y0036816D01*
X0063850Y0035818D02*
X0083031Y0035818D01*
X0081312Y0034819D02*
X0063708Y0034819D01*
X0063295Y0033821D02*
X0080516Y0033821D01*
X0080102Y0032822D02*
X0062383Y0032822D01*
X0063418Y0037815D02*
X0167116Y0037815D01*
X0166986Y0038813D02*
X0075838Y0038813D01*
X0075606Y0038717D02*
X0077094Y0039333D01*
X0078233Y0040473D01*
X0078850Y0041961D01*
X0078850Y0043318D01*
X0080094Y0043833D01*
X0081233Y0044973D01*
X0081850Y0046461D01*
X0081850Y0048072D01*
X0081233Y0049561D01*
X0080094Y0050700D01*
X0078606Y0051317D01*
X0076994Y0051317D01*
X0075734Y0050794D01*
X0075333Y0051761D01*
X0074900Y0052194D01*
X0074900Y0057724D01*
X0075458Y0058282D01*
X0076056Y0057683D01*
X0077544Y0057067D01*
X0079156Y0057067D01*
X0080644Y0057683D01*
X0081783Y0058823D01*
X0082400Y0060311D01*
X0082400Y0061922D01*
X0081783Y0063411D01*
X0081185Y0064009D01*
X0081343Y0064167D01*
X0081465Y0064461D01*
X0081639Y0064727D01*
X0081691Y0065007D01*
X0081800Y0065270D01*
X0081800Y0065588D01*
X0082169Y0067556D01*
X0083493Y0067008D01*
X0084641Y0067008D01*
X0084641Y0065559D01*
X0085259Y0064067D01*
X0086401Y0062926D01*
X0087893Y0062308D01*
X0089313Y0062308D01*
X0089067Y0062061D01*
X0088450Y0060572D01*
X0088450Y0058961D01*
X0089067Y0057473D01*
X0090206Y0056333D01*
X0091694Y0055717D01*
X0093306Y0055717D01*
X0093919Y0055971D01*
X0094856Y0055033D01*
X0096344Y0054417D01*
X0097956Y0054417D01*
X0099444Y0055033D01*
X0100583Y0056173D01*
X0101200Y0057661D01*
X0101200Y0059272D01*
X0100583Y0060761D01*
X0099444Y0061900D01*
X0097956Y0062517D01*
X0096344Y0062517D01*
X0095731Y0062263D01*
X0094794Y0063200D01*
X0093306Y0063817D01*
X0091890Y0063817D01*
X0092141Y0064067D01*
X0092759Y0065559D01*
X0092759Y0067174D01*
X0092141Y0068666D01*
X0090999Y0069808D01*
X0089507Y0070426D01*
X0088359Y0070426D01*
X0088359Y0071663D01*
X0089494Y0072133D01*
X0090633Y0073273D01*
X0091250Y0074761D01*
X0091250Y0076372D01*
X0090633Y0077861D01*
X0090201Y0078294D01*
X0090559Y0079159D01*
X0090559Y0080774D01*
X0089941Y0082266D01*
X0089699Y0082508D01*
X0091307Y0082508D01*
X0092799Y0083126D01*
X0093941Y0084267D01*
X0094559Y0085759D01*
X0094559Y0087374D01*
X0093941Y0088866D01*
X0092799Y0090008D01*
X0091307Y0090626D01*
X0089693Y0090626D01*
X0088201Y0090008D01*
X0087059Y0088866D01*
X0086828Y0088309D01*
X0081928Y0086310D01*
X0081521Y0086197D01*
X0081380Y0086087D01*
X0081214Y0086019D01*
X0080914Y0085722D01*
X0080581Y0085462D01*
X0080493Y0085306D01*
X0080366Y0085180D01*
X0080202Y0084790D01*
X0072108Y0070458D01*
X0071733Y0071361D01*
X0070594Y0072500D01*
X0069106Y0073117D01*
X0067494Y0073117D01*
X0066006Y0072500D01*
X0064867Y0071361D01*
X0064250Y0069872D01*
X0064250Y0069524D01*
X0063458Y0070317D01*
X0061969Y0070933D01*
X0060358Y0070933D01*
X0058869Y0070317D01*
X0057730Y0069177D01*
X0057344Y0068246D01*
X0052601Y0072808D01*
X0052199Y0073210D01*
X0052171Y0073221D01*
X0052150Y0073242D01*
X0051621Y0073449D01*
X0051097Y0073667D01*
X0051067Y0073667D01*
X0051038Y0073678D01*
X0050471Y0073667D01*
X0045811Y0073667D01*
X0045850Y0073761D01*
X0045850Y0075372D01*
X0045500Y0076217D01*
X0045606Y0076217D01*
X0047094Y0076833D01*
X0048233Y0077973D01*
X0048850Y0079461D01*
X0048850Y0081072D01*
X0048233Y0082561D01*
X0047094Y0083700D01*
X0045606Y0084317D01*
X0043994Y0084317D01*
X0042506Y0083700D01*
X0041367Y0082561D01*
X0040750Y0081072D01*
X0040750Y0079461D01*
X0041100Y0078617D01*
X0040994Y0078617D01*
X0039506Y0078000D01*
X0038367Y0076861D01*
X0037750Y0075372D01*
X0037750Y0073761D01*
X0037533Y0073761D01*
X0037628Y0073667D02*
X0037194Y0074100D01*
X0035706Y0074717D01*
X0034094Y0074717D01*
X0032606Y0074100D01*
X0031467Y0072961D01*
X0030850Y0071472D01*
X0030850Y0069861D01*
X0031467Y0068373D01*
X0031597Y0068242D01*
X0030917Y0067561D01*
X0030300Y0066072D01*
X0030300Y0064461D01*
X0030917Y0062973D01*
X0032056Y0061833D01*
X0033544Y0061217D01*
X0035156Y0061217D01*
X0036644Y0061833D01*
X0037783Y0062973D01*
X0038400Y0064461D01*
X0038400Y0066072D01*
X0037783Y0067561D01*
X0037678Y0067667D01*
X0049291Y0067667D01*
X0056950Y0060300D01*
X0056950Y0059761D01*
X0057567Y0058273D01*
X0058706Y0057133D01*
X0060194Y0056517D01*
X0061806Y0056517D01*
X0063294Y0057133D01*
X0064433Y0058273D01*
X0064616Y0058713D01*
X0064759Y0058367D01*
X0065901Y0057226D01*
X0067393Y0056608D01*
X0068900Y0056608D01*
X0068900Y0052194D01*
X0068467Y0051761D01*
X0067850Y0050272D01*
X0067850Y0048661D01*
X0068467Y0047173D01*
X0069606Y0046033D01*
X0071094Y0045417D01*
X0071722Y0045417D01*
X0071367Y0045061D01*
X0070750Y0043572D01*
X0070750Y0041961D01*
X0071367Y0040473D01*
X0072506Y0039333D01*
X0073994Y0038717D01*
X0075606Y0038717D01*
X0073762Y0038813D02*
X0062681Y0038813D01*
X0063772Y0039812D02*
X0072028Y0039812D01*
X0071227Y0040810D02*
X0068271Y0040810D01*
X0069190Y0041809D02*
X0070813Y0041809D01*
X0070750Y0042807D02*
X0069603Y0042807D01*
X0069750Y0043806D02*
X0070847Y0043806D01*
X0071260Y0044804D02*
X0069737Y0044804D01*
X0069323Y0045803D02*
X0070163Y0045803D01*
X0068838Y0046801D02*
X0068593Y0046801D01*
X0068207Y0047800D02*
X0067029Y0047800D01*
X0067850Y0048798D02*
X0012120Y0048798D01*
X0012169Y0047800D02*
X0064371Y0047800D01*
X0059733Y0046801D02*
X0012218Y0046801D01*
X0012266Y0045803D02*
X0058308Y0045803D01*
X0057636Y0044804D02*
X0012315Y0044804D01*
X0012364Y0043806D02*
X0057250Y0043806D01*
X0057250Y0042807D02*
X0012412Y0042807D01*
X0012461Y0041809D02*
X0053668Y0041809D01*
X0052516Y0040810D02*
X0012509Y0040810D01*
X0012558Y0039812D02*
X0051956Y0039812D01*
X0051650Y0038813D02*
X0012607Y0038813D01*
X0012655Y0037815D02*
X0051650Y0037815D01*
X0051917Y0036816D02*
X0012704Y0036816D01*
X0012752Y0035818D02*
X0052422Y0035818D01*
X0053440Y0034819D02*
X0012801Y0034819D01*
X0013530Y0019841D02*
X0076050Y0019841D01*
X0076058Y0018843D02*
X0013579Y0018843D01*
X0017429Y0013850D02*
X0055237Y0013850D01*
X0055200Y0012852D02*
X0018318Y0012852D01*
X0019208Y0011853D02*
X0055200Y0011853D01*
X0055497Y0010855D02*
X0020097Y0010855D01*
X0020987Y0009856D02*
X0055911Y0009856D01*
X0056731Y0008858D02*
X0021876Y0008858D01*
X0022766Y0007859D02*
X0057934Y0007859D01*
X0065298Y0015847D02*
X0066102Y0015847D01*
X0067101Y0016846D02*
X0064299Y0016846D01*
X0062572Y0017844D02*
X0068828Y0017844D01*
X0072572Y0017844D02*
X0076471Y0017844D01*
X0076702Y0016846D02*
X0074299Y0016846D01*
X0075298Y0015847D02*
X0076150Y0015847D01*
X0075850Y0014849D02*
X0075749Y0014849D01*
X0077543Y0022837D02*
X0059311Y0022837D01*
X0060094Y0023835D02*
X0084891Y0023835D01*
X0083893Y0022837D02*
X0082657Y0022837D01*
X0086802Y0028828D02*
X0119019Y0028828D01*
X0118013Y0029826D02*
X0087648Y0029826D01*
X0088062Y0030825D02*
X0117513Y0030825D01*
X0117250Y0031823D02*
X0088159Y0031823D01*
X0088098Y0032822D02*
X0117250Y0032822D01*
X0117560Y0033821D02*
X0087684Y0033821D01*
X0086888Y0034819D02*
X0118125Y0034819D01*
X0119289Y0035818D02*
X0085169Y0035818D01*
X0078373Y0040810D02*
X0166728Y0040810D01*
X0166857Y0039812D02*
X0077572Y0039812D01*
X0078787Y0041809D02*
X0166599Y0041809D01*
X0166469Y0042807D02*
X0078850Y0042807D01*
X0080027Y0043806D02*
X0166340Y0043806D01*
X0166211Y0044804D02*
X0081065Y0044804D01*
X0081577Y0045803D02*
X0166082Y0045803D01*
X0165992Y0046494D02*
X0165992Y0046494D01*
X0165993Y0046801D02*
X0081850Y0046801D01*
X0081850Y0047800D02*
X0165995Y0047800D01*
X0165997Y0048798D02*
X0081549Y0048798D01*
X0080998Y0049797D02*
X0166000Y0049797D01*
X0166002Y0050795D02*
X0139895Y0050795D01*
X0139706Y0050717D02*
X0141194Y0051333D01*
X0142333Y0052473D01*
X0142950Y0053961D01*
X0142950Y0055089D01*
X0144033Y0056173D01*
X0144650Y0057661D01*
X0144650Y0059272D01*
X0144033Y0060761D01*
X0142894Y0061900D01*
X0141406Y0062517D01*
X0139794Y0062517D01*
X0138307Y0061901D01*
X0138033Y0062561D01*
X0136894Y0063700D01*
X0135406Y0064317D01*
X0133794Y0064317D01*
X0132306Y0063700D01*
X0131167Y0062561D01*
X0130550Y0061072D01*
X0130550Y0059461D01*
X0131167Y0057973D01*
X0132306Y0056833D01*
X0133794Y0056217D01*
X0135117Y0056217D01*
X0134850Y0055572D01*
X0134850Y0053961D01*
X0135467Y0052473D01*
X0136606Y0051333D01*
X0138094Y0050717D01*
X0139706Y0050717D01*
X0137905Y0050795D02*
X0079864Y0050795D01*
X0075736Y0050795D02*
X0075733Y0050795D01*
X0075300Y0051794D02*
X0136145Y0051794D01*
X0135334Y0052792D02*
X0108853Y0052792D01*
X0108494Y0052433D02*
X0109633Y0053573D01*
X0110250Y0055061D01*
X0110250Y0056672D01*
X0109633Y0058161D01*
X0108494Y0059300D01*
X0107006Y0059917D01*
X0105394Y0059917D01*
X0103906Y0059300D01*
X0102767Y0058161D01*
X0102150Y0056672D01*
X0102150Y0055061D01*
X0102767Y0053573D01*
X0103906Y0052433D01*
X0105394Y0051817D01*
X0107006Y0051817D01*
X0108494Y0052433D01*
X0109724Y0053791D02*
X0123108Y0053791D01*
X0123006Y0053833D02*
X0124494Y0053217D01*
X0126106Y0053217D01*
X0127594Y0053833D01*
X0128733Y0054973D01*
X0129350Y0056461D01*
X0129350Y0058072D01*
X0128733Y0059561D01*
X0127594Y0060700D01*
X0126106Y0061317D01*
X0124494Y0061317D01*
X0123006Y0060700D01*
X0121867Y0059561D01*
X0121250Y0058072D01*
X0121250Y0056461D01*
X0121867Y0054973D01*
X0123006Y0053833D01*
X0122050Y0054789D02*
X0110137Y0054789D01*
X0110250Y0055788D02*
X0121529Y0055788D01*
X0121250Y0056786D02*
X0110203Y0056786D01*
X0109789Y0057785D02*
X0121250Y0057785D01*
X0121545Y0058783D02*
X0109011Y0058783D01*
X0107331Y0059782D02*
X0122088Y0059782D01*
X0123200Y0060780D02*
X0100564Y0060780D01*
X0100989Y0059782D02*
X0105069Y0059782D01*
X0103389Y0058783D02*
X0101200Y0058783D01*
X0101200Y0057785D02*
X0102611Y0057785D01*
X0102197Y0056786D02*
X0100838Y0056786D01*
X0100199Y0055788D02*
X0102150Y0055788D01*
X0102263Y0054789D02*
X0098855Y0054789D01*
X0102676Y0053791D02*
X0074900Y0053791D01*
X0074900Y0054789D02*
X0095445Y0054789D01*
X0094101Y0055788D02*
X0093477Y0055788D01*
X0091523Y0055788D02*
X0074900Y0055788D01*
X0074900Y0056786D02*
X0089753Y0056786D01*
X0088937Y0057785D02*
X0080746Y0057785D01*
X0081744Y0058783D02*
X0088524Y0058783D01*
X0088450Y0059782D02*
X0082181Y0059782D01*
X0082400Y0060780D02*
X0088536Y0060780D01*
X0088950Y0061779D02*
X0082400Y0061779D01*
X0082046Y0062777D02*
X0086759Y0062777D01*
X0085550Y0063776D02*
X0081418Y0063776D01*
X0081647Y0064774D02*
X0084966Y0064774D01*
X0084641Y0065773D02*
X0081835Y0065773D01*
X0082022Y0066771D02*
X0084641Y0066771D01*
X0088359Y0070765D02*
X0168454Y0070765D01*
X0168281Y0069767D02*
X0091040Y0069767D01*
X0092039Y0068768D02*
X0168108Y0068768D01*
X0167935Y0067770D02*
X0092512Y0067770D01*
X0092759Y0066771D02*
X0167762Y0066771D01*
X0167589Y0065773D02*
X0092759Y0065773D01*
X0092434Y0064774D02*
X0167416Y0064774D01*
X0167242Y0063776D02*
X0136711Y0063776D01*
X0137817Y0062777D02*
X0167069Y0062777D01*
X0166896Y0061779D02*
X0143015Y0061779D01*
X0144014Y0060780D02*
X0166702Y0060780D01*
X0166550Y0059782D02*
X0144439Y0059782D01*
X0144650Y0058783D02*
X0166435Y0058783D01*
X0166301Y0057785D02*
X0144650Y0057785D01*
X0144288Y0056786D02*
X0166167Y0056786D01*
X0166034Y0055788D02*
X0143649Y0055788D01*
X0142950Y0054789D02*
X0166011Y0054789D01*
X0166008Y0053791D02*
X0142879Y0053791D01*
X0142466Y0052792D02*
X0166006Y0052792D01*
X0166004Y0051794D02*
X0141655Y0051794D01*
X0134921Y0053791D02*
X0127492Y0053791D01*
X0128550Y0054789D02*
X0134850Y0054789D01*
X0134939Y0055788D02*
X0129071Y0055788D01*
X0129350Y0056786D02*
X0132419Y0056786D01*
X0131354Y0057785D02*
X0129350Y0057785D01*
X0129055Y0058783D02*
X0130831Y0058783D01*
X0130550Y0059782D02*
X0128512Y0059782D01*
X0127400Y0060780D02*
X0130550Y0060780D01*
X0130843Y0061779D02*
X0099565Y0061779D01*
X0095217Y0062777D02*
X0131383Y0062777D01*
X0132489Y0063776D02*
X0093404Y0063776D01*
X0088603Y0071764D02*
X0168627Y0071764D01*
X0168800Y0072762D02*
X0090123Y0072762D01*
X0090836Y0073761D02*
X0168973Y0073761D01*
X0169146Y0074759D02*
X0138950Y0074759D01*
X0138606Y0074617D02*
X0140094Y0075233D01*
X0141233Y0076373D01*
X0141850Y0077861D01*
X0141850Y0079472D01*
X0141233Y0080961D01*
X0140094Y0082100D01*
X0138606Y0082717D01*
X0136994Y0082717D01*
X0135506Y0082100D01*
X0134367Y0080961D01*
X0133750Y0079472D01*
X0133750Y0077861D01*
X0134367Y0076373D01*
X0135506Y0075233D01*
X0136994Y0074617D01*
X0138606Y0074617D01*
X0136650Y0074759D02*
X0091249Y0074759D01*
X0091250Y0075758D02*
X0134981Y0075758D01*
X0134208Y0076756D02*
X0091091Y0076756D01*
X0090677Y0077755D02*
X0133794Y0077755D01*
X0133750Y0078754D02*
X0090391Y0078754D01*
X0090559Y0079752D02*
X0106985Y0079752D01*
X0106306Y0080033D02*
X0107794Y0079417D01*
X0109406Y0079417D01*
X0110894Y0080033D01*
X0112033Y0081173D01*
X0112650Y0082661D01*
X0112650Y0084272D01*
X0112557Y0084496D01*
X0113033Y0084973D01*
X0113650Y0086461D01*
X0113650Y0088072D01*
X0113557Y0088296D01*
X0114033Y0088773D01*
X0114650Y0090261D01*
X0114650Y0091872D01*
X0114033Y0093361D01*
X0112894Y0094500D01*
X0111406Y0095117D01*
X0109794Y0095117D01*
X0108306Y0094500D01*
X0107167Y0093361D01*
X0106550Y0091872D01*
X0106550Y0090261D01*
X0106643Y0090037D01*
X0106167Y0089561D01*
X0105550Y0088072D01*
X0105550Y0086461D01*
X0105643Y0086237D01*
X0105167Y0085761D01*
X0104550Y0084272D01*
X0104550Y0082661D01*
X0105167Y0081173D01*
X0106306Y0080033D01*
X0105589Y0080751D02*
X0090559Y0080751D01*
X0090155Y0081749D02*
X0104928Y0081749D01*
X0104550Y0082748D02*
X0091887Y0082748D01*
X0093420Y0083746D02*
X0104550Y0083746D01*
X0104746Y0084745D02*
X0094139Y0084745D01*
X0094552Y0085743D02*
X0105159Y0085743D01*
X0105550Y0086742D02*
X0094559Y0086742D01*
X0094407Y0087740D02*
X0105550Y0087740D01*
X0105826Y0088739D02*
X0093994Y0088739D01*
X0093070Y0089737D02*
X0106343Y0089737D01*
X0106550Y0090736D02*
X0085276Y0090736D01*
X0085994Y0091033D02*
X0084506Y0090417D01*
X0082894Y0090417D01*
X0081406Y0091033D01*
X0080267Y0092173D01*
X0079650Y0093661D01*
X0079650Y0095272D01*
X0080267Y0096761D01*
X0081406Y0097900D01*
X0082894Y0098517D01*
X0084506Y0098517D01*
X0085994Y0097900D01*
X0087133Y0096761D01*
X0087750Y0095272D01*
X0087750Y0093661D01*
X0087133Y0092173D01*
X0085994Y0091033D01*
X0086695Y0091734D02*
X0106550Y0091734D01*
X0106906Y0092733D02*
X0087365Y0092733D01*
X0087750Y0093731D02*
X0107537Y0093731D01*
X0108860Y0094730D02*
X0087750Y0094730D01*
X0087561Y0095728D02*
X0174498Y0095728D01*
X0173864Y0094807D02*
X0173864Y0094807D01*
X0173828Y0094730D02*
X0112340Y0094730D01*
X0113663Y0093731D02*
X0121137Y0093731D01*
X0121206Y0093800D02*
X0120067Y0092661D01*
X0119450Y0091172D01*
X0119450Y0089561D01*
X0120067Y0088073D01*
X0121206Y0086933D01*
X0122694Y0086317D01*
X0124306Y0086317D01*
X0125794Y0086933D01*
X0126933Y0088073D01*
X0127550Y0089561D01*
X0127550Y0091172D01*
X0126933Y0092661D01*
X0125794Y0093800D01*
X0124306Y0094417D01*
X0122694Y0094417D01*
X0121206Y0093800D01*
X0120138Y0092733D02*
X0114294Y0092733D01*
X0114650Y0091734D02*
X0119683Y0091734D01*
X0119450Y0090736D02*
X0114650Y0090736D01*
X0114433Y0089737D02*
X0119450Y0089737D01*
X0119791Y0088739D02*
X0114000Y0088739D01*
X0113650Y0087740D02*
X0120399Y0087740D01*
X0121668Y0086742D02*
X0113650Y0086742D01*
X0113353Y0085743D02*
X0171036Y0085743D01*
X0171188Y0086742D02*
X0125332Y0086742D01*
X0126601Y0087740D02*
X0171341Y0087740D01*
X0171493Y0088739D02*
X0127209Y0088739D01*
X0127550Y0089737D02*
X0171645Y0089737D01*
X0171916Y0090736D02*
X0127550Y0090736D01*
X0127317Y0091734D02*
X0172459Y0091734D01*
X0172915Y0092733D02*
X0126862Y0092733D01*
X0125863Y0093731D02*
X0173372Y0093731D01*
X0175186Y0096727D02*
X0087148Y0096727D01*
X0086169Y0097725D02*
X0175874Y0097725D01*
X0176562Y0098724D02*
X0063571Y0098724D01*
X0063106Y0098917D02*
X0061494Y0098917D01*
X0060006Y0098300D01*
X0058867Y0097161D01*
X0058250Y0095672D01*
X0058250Y0094061D01*
X0058867Y0092573D01*
X0060006Y0091433D01*
X0061494Y0090817D01*
X0061551Y0090817D01*
X0062067Y0089573D01*
X0063206Y0088433D01*
X0064694Y0087817D01*
X0066306Y0087817D01*
X0067794Y0088433D01*
X0068000Y0088639D01*
X0068106Y0088533D01*
X0069594Y0087917D01*
X0071206Y0087917D01*
X0072694Y0088533D01*
X0073833Y0089673D01*
X0073846Y0089702D01*
X0074294Y0089517D01*
X0075906Y0089517D01*
X0077394Y0090133D01*
X0078533Y0091273D01*
X0079150Y0092761D01*
X0079150Y0094372D01*
X0078533Y0095861D01*
X0077394Y0097000D01*
X0075906Y0097617D01*
X0074294Y0097617D01*
X0072806Y0097000D01*
X0071667Y0095861D01*
X0071654Y0095831D01*
X0071206Y0096017D01*
X0069594Y0096017D01*
X0068106Y0095400D01*
X0067900Y0095194D01*
X0067794Y0095300D01*
X0066306Y0095917D01*
X0066249Y0095917D01*
X0065733Y0097161D01*
X0064594Y0098300D01*
X0063106Y0098917D01*
X0061029Y0098724D02*
X0009690Y0098724D01*
X0009641Y0099722D02*
X0122917Y0099722D01*
X0123206Y0099433D02*
X0124694Y0098817D01*
X0126306Y0098817D01*
X0127794Y0099433D01*
X0128933Y0100573D01*
X0129550Y0102061D01*
X0129550Y0103672D01*
X0128933Y0105161D01*
X0127794Y0106300D01*
X0126306Y0106917D01*
X0124694Y0106917D01*
X0123206Y0106300D01*
X0122067Y0105161D01*
X0121450Y0103672D01*
X0121450Y0102061D01*
X0122067Y0100573D01*
X0123206Y0099433D01*
X0122005Y0100721D02*
X0009593Y0100721D01*
X0009544Y0101719D02*
X0078447Y0101719D01*
X0078694Y0101617D02*
X0080306Y0101617D01*
X0081794Y0102233D01*
X0082933Y0103373D01*
X0083148Y0103891D01*
X0083406Y0103633D01*
X0084894Y0103017D01*
X0086506Y0103017D01*
X0087994Y0103633D01*
X0089133Y0104773D01*
X0089582Y0105857D01*
X0090506Y0104933D01*
X0091994Y0104317D01*
X0093606Y0104317D01*
X0095094Y0104933D01*
X0096233Y0106073D01*
X0096850Y0107561D01*
X0096850Y0109172D01*
X0096233Y0110661D01*
X0095094Y0111800D01*
X0093606Y0112417D01*
X0091994Y0112417D01*
X0090506Y0111800D01*
X0089367Y0110661D01*
X0088918Y0109577D01*
X0087994Y0110500D01*
X0086506Y0111117D01*
X0084894Y0111117D01*
X0083406Y0110500D01*
X0082267Y0109361D01*
X0082052Y0108842D01*
X0081794Y0109100D01*
X0080306Y0109717D01*
X0078717Y0109717D01*
X0078533Y0110161D01*
X0077394Y0111300D01*
X0075906Y0111917D01*
X0074294Y0111917D01*
X0072806Y0111300D01*
X0071667Y0110161D01*
X0071364Y0109430D01*
X0071194Y0109600D01*
X0069706Y0110217D01*
X0068094Y0110217D01*
X0066606Y0109600D01*
X0065467Y0108461D01*
X0064850Y0106972D01*
X0064850Y0105361D01*
X0065467Y0103873D01*
X0066606Y0102733D01*
X0068094Y0102117D01*
X0069706Y0102117D01*
X0071194Y0102733D01*
X0072333Y0103873D01*
X0072636Y0104603D01*
X0072806Y0104433D01*
X0074294Y0103817D01*
X0075883Y0103817D01*
X0076067Y0103373D01*
X0077206Y0102233D01*
X0078694Y0101617D01*
X0080553Y0101719D02*
X0121592Y0101719D01*
X0121450Y0102718D02*
X0082279Y0102718D01*
X0083076Y0103716D02*
X0083323Y0103716D01*
X0088077Y0103716D02*
X0121468Y0103716D01*
X0121882Y0104715D02*
X0094567Y0104715D01*
X0095874Y0105713D02*
X0122619Y0105713D01*
X0124200Y0106712D02*
X0096498Y0106712D01*
X0096850Y0107710D02*
X0184508Y0107710D01*
X0184606Y0107809D02*
X0184606Y0107809D01*
X0183525Y0106712D02*
X0138166Y0106712D01*
X0138194Y0106700D02*
X0136706Y0107317D01*
X0135094Y0107317D01*
X0133606Y0106700D01*
X0132467Y0105561D01*
X0131850Y0104072D01*
X0131850Y0102461D01*
X0132467Y0100973D01*
X0133606Y0099833D01*
X0135094Y0099217D01*
X0136706Y0099217D01*
X0138194Y0099833D01*
X0139333Y0100973D01*
X0139950Y0102461D01*
X0139950Y0104072D01*
X0139333Y0105561D01*
X0138194Y0106700D01*
X0139181Y0105713D02*
X0182192Y0105713D01*
X0181362Y0104715D02*
X0139684Y0104715D01*
X0139950Y0103716D02*
X0180575Y0103716D01*
X0179591Y0102718D02*
X0139950Y0102718D01*
X0139643Y0101719D02*
X0178625Y0101719D01*
X0178666Y0101778D02*
X0178666Y0101778D01*
X0177937Y0100721D02*
X0139082Y0100721D01*
X0137926Y0099722D02*
X0177250Y0099722D01*
X0185870Y0108709D02*
X0096850Y0108709D01*
X0096628Y0109707D02*
X0187273Y0109707D01*
X0188676Y0110706D02*
X0096188Y0110706D01*
X0095190Y0111704D02*
X0190079Y0111704D01*
X0191483Y0112703D02*
X0009009Y0112703D01*
X0008961Y0113701D02*
X0193252Y0113701D01*
X0191503Y0112717D02*
X0191503Y0112717D01*
X0195671Y0114700D02*
X0028372Y0114700D01*
X0028694Y0114833D02*
X0027206Y0114217D01*
X0025594Y0114217D01*
X0024106Y0114833D01*
X0022967Y0115973D01*
X0022350Y0117461D01*
X0022350Y0119072D01*
X0022967Y0120561D01*
X0024106Y0121700D01*
X0025594Y0122317D01*
X0027206Y0122317D01*
X0028694Y0121700D01*
X0029833Y0120561D01*
X0030450Y0119072D01*
X0030450Y0117461D01*
X0029833Y0115973D01*
X0028694Y0114833D01*
X0029559Y0115698D02*
X0126818Y0115698D01*
X0126894Y0115667D02*
X0128506Y0115667D01*
X0129994Y0116283D01*
X0131133Y0117423D01*
X0131750Y0118911D01*
X0131750Y0120522D01*
X0131133Y0122011D01*
X0130778Y0122367D01*
X0131283Y0122873D01*
X0131900Y0124361D01*
X0131900Y0125972D01*
X0131283Y0127461D01*
X0130144Y0128600D01*
X0128656Y0129217D01*
X0127044Y0129217D01*
X0125556Y0128600D01*
X0124417Y0127461D01*
X0123800Y0125972D01*
X0123800Y0124361D01*
X0124417Y0122873D01*
X0124772Y0122517D01*
X0124267Y0122011D01*
X0123650Y0120522D01*
X0123650Y0118911D01*
X0124267Y0117423D01*
X0125406Y0116283D01*
X0126894Y0115667D01*
X0128582Y0115698D02*
X0197771Y0115698D01*
X0200392Y0116697D02*
X0130408Y0116697D01*
X0131246Y0117695D02*
X0141221Y0117695D01*
X0141894Y0117417D02*
X0143506Y0117417D01*
X0144994Y0118033D01*
X0146133Y0119173D01*
X0146750Y0120661D01*
X0146750Y0122272D01*
X0146133Y0123761D01*
X0144994Y0124900D01*
X0144124Y0125261D01*
X0145144Y0125683D01*
X0146283Y0126823D01*
X0146900Y0128311D01*
X0146900Y0129922D01*
X0146283Y0131411D01*
X0145144Y0132550D01*
X0143656Y0133167D01*
X0142044Y0133167D01*
X0140556Y0132550D01*
X0139417Y0131411D01*
X0138800Y0129922D01*
X0138800Y0128311D01*
X0139417Y0126823D01*
X0140556Y0125683D01*
X0141426Y0125323D01*
X0140406Y0124900D01*
X0139267Y0123761D01*
X0138650Y0122272D01*
X0138650Y0120661D01*
X0139267Y0119173D01*
X0140406Y0118033D01*
X0141894Y0117417D01*
X0144179Y0117695D02*
X0203902Y0117695D01*
X0203216Y0118694D02*
X0145655Y0118694D01*
X0146349Y0119692D02*
X0202803Y0119692D01*
X0202650Y0120691D02*
X0146750Y0120691D01*
X0146750Y0121690D02*
X0149650Y0121690D01*
X0149806Y0121533D02*
X0151294Y0120917D01*
X0152906Y0120917D01*
X0154394Y0121533D01*
X0155533Y0122673D01*
X0156150Y0124161D01*
X0156150Y0125772D01*
X0155533Y0127261D01*
X0154394Y0128400D01*
X0152906Y0129017D01*
X0151294Y0129017D01*
X0149806Y0128400D01*
X0148667Y0127261D01*
X0148050Y0125772D01*
X0148050Y0124161D01*
X0148667Y0122673D01*
X0149806Y0121533D01*
X0148660Y0122688D02*
X0146578Y0122688D01*
X0146164Y0123687D02*
X0148247Y0123687D01*
X0148050Y0124685D02*
X0145209Y0124685D01*
X0145144Y0125684D02*
X0148050Y0125684D01*
X0148427Y0126682D02*
X0146143Y0126682D01*
X0146639Y0127681D02*
X0149086Y0127681D01*
X0150479Y0128679D02*
X0146900Y0128679D01*
X0146900Y0129678D02*
X0202233Y0129678D01*
X0201576Y0128679D02*
X0153721Y0128679D01*
X0155114Y0127681D02*
X0201200Y0127681D01*
X0201200Y0126682D02*
X0155773Y0126682D01*
X0156150Y0125684D02*
X0201398Y0125684D01*
X0201811Y0124685D02*
X0156150Y0124685D01*
X0155953Y0123687D02*
X0202803Y0123687D01*
X0203071Y0122688D02*
X0155540Y0122688D01*
X0154550Y0121690D02*
X0202657Y0121690D01*
X0203622Y0130676D02*
X0146588Y0130676D01*
X0146020Y0131675D02*
X0209927Y0131675D01*
X0209514Y0130676D02*
X0206878Y0130676D01*
X0208267Y0129678D02*
X0209450Y0129678D01*
X0210729Y0132673D02*
X0144847Y0132673D01*
X0140853Y0132673D02*
X0064194Y0132673D01*
X0063606Y0132917D02*
X0061994Y0132917D01*
X0060506Y0132300D01*
X0059367Y0131161D01*
X0058750Y0129672D01*
X0058750Y0128061D01*
X0059367Y0126573D01*
X0060506Y0125433D01*
X0061994Y0124817D01*
X0063606Y0124817D01*
X0065094Y0125433D01*
X0066233Y0126573D01*
X0066850Y0128061D01*
X0066850Y0129672D01*
X0066233Y0131161D01*
X0065094Y0132300D01*
X0063606Y0132917D01*
X0061406Y0132673D02*
X0025057Y0132673D01*
X0025195Y0132341D02*
X0024392Y0134279D01*
X0022909Y0135762D01*
X0020972Y0136564D01*
X0018875Y0136564D01*
X0016937Y0135762D01*
X0015454Y0134279D01*
X0014651Y0132341D01*
X0014651Y0130244D01*
X0015454Y0128306D01*
X0016937Y0126823D01*
X0018875Y0126021D01*
X0020972Y0126021D01*
X0022909Y0126823D01*
X0024392Y0128306D01*
X0025195Y0130244D01*
X0025195Y0132341D01*
X0025195Y0131675D02*
X0059880Y0131675D01*
X0059166Y0130676D02*
X0025195Y0130676D01*
X0024960Y0129678D02*
X0058752Y0129678D01*
X0058750Y0128679D02*
X0024547Y0128679D01*
X0023767Y0127681D02*
X0058908Y0127681D01*
X0059321Y0126682D02*
X0022568Y0126682D01*
X0024095Y0121690D02*
X0012699Y0121690D01*
X0013814Y0122688D02*
X0067987Y0122688D01*
X0067750Y0123261D02*
X0068367Y0121773D01*
X0069506Y0120633D01*
X0070994Y0120017D01*
X0072606Y0120017D01*
X0074094Y0120633D01*
X0075233Y0121773D01*
X0075850Y0123261D01*
X0075850Y0124872D01*
X0075233Y0126361D01*
X0074094Y0127500D01*
X0072606Y0128117D01*
X0070994Y0128117D01*
X0069506Y0127500D01*
X0068367Y0126361D01*
X0067750Y0124872D01*
X0067750Y0123261D01*
X0067750Y0123687D02*
X0014687Y0123687D01*
X0015101Y0124685D02*
X0067750Y0124685D01*
X0068086Y0125684D02*
X0065344Y0125684D01*
X0066279Y0126682D02*
X0068688Y0126682D01*
X0069942Y0127681D02*
X0066692Y0127681D01*
X0066850Y0128679D02*
X0125747Y0128679D01*
X0124636Y0127681D02*
X0073658Y0127681D01*
X0074912Y0126682D02*
X0124094Y0126682D01*
X0123800Y0125684D02*
X0075514Y0125684D01*
X0075850Y0124685D02*
X0123800Y0124685D01*
X0124079Y0123687D02*
X0075850Y0123687D01*
X0075613Y0122688D02*
X0124601Y0122688D01*
X0124134Y0121690D02*
X0075150Y0121690D01*
X0074152Y0120691D02*
X0123720Y0120691D01*
X0123650Y0119692D02*
X0030193Y0119692D01*
X0030450Y0118694D02*
X0123740Y0118694D01*
X0124154Y0117695D02*
X0030450Y0117695D01*
X0030133Y0116697D02*
X0124992Y0116697D01*
X0131660Y0118694D02*
X0139745Y0118694D01*
X0139051Y0119692D02*
X0131750Y0119692D01*
X0131680Y0120691D02*
X0138650Y0120691D01*
X0138650Y0121690D02*
X0131266Y0121690D01*
X0131099Y0122688D02*
X0138822Y0122688D01*
X0139236Y0123687D02*
X0131621Y0123687D01*
X0131900Y0124685D02*
X0140191Y0124685D01*
X0140556Y0125684D02*
X0131900Y0125684D01*
X0131606Y0126682D02*
X0139557Y0126682D01*
X0139061Y0127681D02*
X0131064Y0127681D01*
X0129953Y0128679D02*
X0138800Y0128679D01*
X0138800Y0129678D02*
X0066848Y0129678D01*
X0066434Y0130676D02*
X0139112Y0130676D01*
X0139680Y0131675D02*
X0065720Y0131675D01*
X0060256Y0125684D02*
X0015514Y0125684D01*
X0015518Y0126682D02*
X0017278Y0126682D01*
X0016080Y0127681D02*
X0015518Y0127681D01*
X0015300Y0128679D02*
X0015277Y0128679D01*
X0014886Y0129678D02*
X0014864Y0129678D01*
X0014651Y0130676D02*
X0014241Y0130676D01*
X0014651Y0131675D02*
X0013242Y0131675D01*
X0014789Y0132673D02*
X0011319Y0132673D01*
X0007988Y0133672D02*
X0015203Y0133672D01*
X0015846Y0134670D02*
X0007940Y0134670D01*
X0007891Y0135669D02*
X0016844Y0135669D01*
X0023002Y0135669D02*
X0248113Y0135669D01*
X0248161Y0136667D02*
X0007843Y0136667D01*
X0007794Y0137666D02*
X0248209Y0137666D01*
X0248257Y0138664D02*
X0007745Y0138664D01*
X0007697Y0139663D02*
X0077276Y0139663D01*
X0077506Y0139433D02*
X0078994Y0138817D01*
X0080606Y0138817D01*
X0082094Y0139433D01*
X0083233Y0140573D01*
X0083850Y0142061D01*
X0083850Y0143672D01*
X0083233Y0145161D01*
X0082094Y0146300D01*
X0080606Y0146917D01*
X0078994Y0146917D01*
X0077506Y0146300D01*
X0076367Y0145161D01*
X0075750Y0143672D01*
X0075750Y0142061D01*
X0076367Y0140573D01*
X0077506Y0139433D01*
X0076330Y0140661D02*
X0052179Y0140661D01*
X0052594Y0140833D02*
X0053733Y0141973D01*
X0054350Y0143461D01*
X0054350Y0145072D01*
X0053733Y0146561D01*
X0052594Y0147700D01*
X0051106Y0148317D01*
X0049494Y0148317D01*
X0048006Y0147700D01*
X0046867Y0146561D01*
X0046250Y0145072D01*
X0046250Y0143461D01*
X0046867Y0141973D01*
X0048006Y0140833D01*
X0049494Y0140217D01*
X0051106Y0140217D01*
X0052594Y0140833D01*
X0053421Y0141660D02*
X0075916Y0141660D01*
X0075750Y0142658D02*
X0054017Y0142658D01*
X0054350Y0143657D02*
X0075750Y0143657D01*
X0076157Y0144655D02*
X0054350Y0144655D01*
X0054109Y0145654D02*
X0076860Y0145654D01*
X0078356Y0146652D02*
X0053642Y0146652D01*
X0052643Y0147651D02*
X0178017Y0147651D01*
X0178337Y0147331D02*
X0180130Y0146589D01*
X0182070Y0146589D01*
X0183863Y0147331D01*
X0184850Y0148318D01*
X0185837Y0147331D01*
X0187630Y0146589D01*
X0189570Y0146589D01*
X0191363Y0147331D01*
X0192735Y0148704D01*
X0193478Y0150496D01*
X0193478Y0152437D01*
X0192735Y0154230D01*
X0191748Y0155217D01*
X0192735Y0156204D01*
X0193478Y0157996D01*
X0193478Y0159937D01*
X0192735Y0161730D01*
X0191748Y0162717D01*
X0192735Y0163704D01*
X0193478Y0165496D01*
X0193478Y0167437D01*
X0192735Y0169230D01*
X0191363Y0170602D01*
X0189570Y0171345D01*
X0187630Y0171345D01*
X0185837Y0170602D01*
X0184465Y0169230D01*
X0184255Y0168724D01*
X0184112Y0168939D01*
X0183572Y0169479D01*
X0182937Y0169903D01*
X0182231Y0170196D01*
X0181482Y0170345D01*
X0181289Y0170345D01*
X0181289Y0166656D01*
X0180911Y0166656D01*
X0180911Y0170345D01*
X0180718Y0170345D01*
X0179969Y0170196D01*
X0179263Y0169903D01*
X0178628Y0169479D01*
X0178088Y0168939D01*
X0177663Y0168304D01*
X0177371Y0167598D01*
X0177222Y0166849D01*
X0177222Y0166656D01*
X0180911Y0166656D01*
X0180911Y0166278D01*
X0177222Y0166278D01*
X0177222Y0166085D01*
X0177371Y0165335D01*
X0177663Y0164630D01*
X0178088Y0163995D01*
X0178628Y0163454D01*
X0178842Y0163311D01*
X0178337Y0163102D01*
X0176965Y0161730D01*
X0176222Y0159937D01*
X0176222Y0157996D01*
X0176965Y0156204D01*
X0177952Y0155217D01*
X0176965Y0154230D01*
X0176222Y0152437D01*
X0176222Y0150496D01*
X0176965Y0148704D01*
X0178337Y0147331D01*
X0179976Y0146652D02*
X0081244Y0146652D01*
X0082740Y0145654D02*
X0203550Y0145654D01*
X0203550Y0145972D02*
X0203550Y0144361D01*
X0204167Y0142873D01*
X0205306Y0141733D01*
X0206794Y0141117D01*
X0208406Y0141117D01*
X0209894Y0141733D01*
X0211033Y0142873D01*
X0211650Y0144361D01*
X0211650Y0145972D01*
X0211033Y0147461D01*
X0210823Y0147671D01*
X0211150Y0148461D01*
X0211150Y0150072D01*
X0210533Y0151561D01*
X0209394Y0152700D01*
X0207906Y0153317D01*
X0206294Y0153317D01*
X0204806Y0152700D01*
X0203667Y0151561D01*
X0203050Y0150072D01*
X0203050Y0148461D01*
X0203667Y0146973D01*
X0203877Y0146762D01*
X0203550Y0145972D01*
X0203832Y0146652D02*
X0189724Y0146652D01*
X0191683Y0147651D02*
X0203386Y0147651D01*
X0203050Y0148649D02*
X0192681Y0148649D01*
X0193126Y0149648D02*
X0203050Y0149648D01*
X0203288Y0150646D02*
X0193478Y0150646D01*
X0193478Y0151645D02*
X0203751Y0151645D01*
X0204749Y0152643D02*
X0193392Y0152643D01*
X0192979Y0153642D02*
X0248978Y0153642D01*
X0249026Y0154640D02*
X0192325Y0154640D01*
X0192171Y0155639D02*
X0249074Y0155639D01*
X0249122Y0156637D02*
X0192915Y0156637D01*
X0193329Y0157636D02*
X0249170Y0157636D01*
X0249219Y0158634D02*
X0193478Y0158634D01*
X0193478Y0159633D02*
X0249267Y0159633D01*
X0249315Y0160631D02*
X0193190Y0160631D01*
X0192777Y0161630D02*
X0249363Y0161630D01*
X0249411Y0162628D02*
X0191837Y0162628D01*
X0192659Y0163627D02*
X0249459Y0163627D01*
X0249507Y0164625D02*
X0193117Y0164625D01*
X0193478Y0165624D02*
X0249555Y0165624D01*
X0249603Y0166623D02*
X0193478Y0166623D01*
X0193402Y0167621D02*
X0249651Y0167621D01*
X0249699Y0168620D02*
X0192988Y0168620D01*
X0192347Y0169618D02*
X0232684Y0169618D01*
X0232406Y0169733D02*
X0233894Y0169117D01*
X0235506Y0169117D01*
X0236994Y0169733D01*
X0238133Y0170873D01*
X0238750Y0172361D01*
X0238750Y0173972D01*
X0238133Y0175461D01*
X0236994Y0176600D01*
X0235506Y0177217D01*
X0233894Y0177217D01*
X0232406Y0176600D01*
X0231267Y0175461D01*
X0230650Y0173972D01*
X0230650Y0172361D01*
X0231267Y0170873D01*
X0232406Y0169733D01*
X0231523Y0170617D02*
X0221454Y0170617D01*
X0221494Y0170633D02*
X0222633Y0171773D01*
X0223250Y0173261D01*
X0223250Y0174872D01*
X0222633Y0176361D01*
X0221494Y0177500D01*
X0220006Y0178117D01*
X0218394Y0178117D01*
X0216906Y0177500D01*
X0215767Y0176361D01*
X0215150Y0174872D01*
X0215150Y0173261D01*
X0215767Y0171773D01*
X0216906Y0170633D01*
X0218394Y0170017D01*
X0220006Y0170017D01*
X0221494Y0170633D01*
X0222476Y0171615D02*
X0230959Y0171615D01*
X0230650Y0172614D02*
X0222982Y0172614D01*
X0223250Y0173612D02*
X0230650Y0173612D01*
X0230914Y0174611D02*
X0223250Y0174611D01*
X0222945Y0175609D02*
X0231415Y0175609D01*
X0232424Y0176608D02*
X0222387Y0176608D01*
X0221238Y0177606D02*
X0250132Y0177606D01*
X0250084Y0176608D02*
X0236976Y0176608D01*
X0237985Y0175609D02*
X0250036Y0175609D01*
X0249987Y0174611D02*
X0238486Y0174611D01*
X0238750Y0173612D02*
X0249939Y0173612D01*
X0249891Y0172614D02*
X0238750Y0172614D01*
X0238441Y0171615D02*
X0249843Y0171615D01*
X0249795Y0170617D02*
X0237877Y0170617D01*
X0236716Y0169618D02*
X0249747Y0169618D01*
X0250180Y0178605D02*
X0172266Y0178605D01*
X0172433Y0178773D02*
X0173050Y0180261D01*
X0173050Y0181872D01*
X0172433Y0183361D01*
X0171294Y0184500D01*
X0169806Y0185117D01*
X0168194Y0185117D01*
X0166706Y0184500D01*
X0166606Y0184401D01*
X0166099Y0184908D01*
X0164607Y0185526D01*
X0162993Y0185526D01*
X0161501Y0184908D01*
X0161164Y0184571D01*
X0160307Y0184926D01*
X0158693Y0184926D01*
X0157201Y0184308D01*
X0156059Y0183166D01*
X0155441Y0181674D01*
X0155441Y0180059D01*
X0156059Y0178567D01*
X0157201Y0177426D01*
X0158693Y0176808D01*
X0160307Y0176808D01*
X0161799Y0177426D01*
X0162136Y0177762D01*
X0162993Y0177408D01*
X0164607Y0177408D01*
X0166099Y0178026D01*
X0166206Y0178133D01*
X0166706Y0177633D01*
X0168194Y0177017D01*
X0169806Y0177017D01*
X0171294Y0177633D01*
X0172433Y0178773D01*
X0172777Y0179603D02*
X0250228Y0179603D01*
X0250276Y0180602D02*
X0173050Y0180602D01*
X0173050Y0181600D02*
X0207692Y0181600D01*
X0207859Y0181433D02*
X0209348Y0180817D01*
X0210959Y0180817D01*
X0212448Y0181433D01*
X0212577Y0181562D01*
X0212906Y0181233D01*
X0214394Y0180617D01*
X0216006Y0180617D01*
X0217494Y0181233D01*
X0218246Y0181985D01*
X0218894Y0181717D01*
X0220506Y0181717D01*
X0221994Y0182333D01*
X0223133Y0183473D01*
X0223750Y0184961D01*
X0223750Y0186572D01*
X0223133Y0188061D01*
X0221994Y0189200D01*
X0220506Y0189817D01*
X0218894Y0189817D01*
X0217406Y0189200D01*
X0216654Y0188448D01*
X0216006Y0188717D01*
X0214394Y0188717D01*
X0212906Y0188100D01*
X0212777Y0187971D01*
X0212448Y0188300D01*
X0210959Y0188917D01*
X0209348Y0188917D01*
X0207859Y0188300D01*
X0206720Y0187161D01*
X0206104Y0185672D01*
X0206104Y0184061D01*
X0206720Y0182573D01*
X0207859Y0181433D01*
X0206709Y0182599D02*
X0172749Y0182599D01*
X0172197Y0183597D02*
X0206296Y0183597D01*
X0206104Y0184596D02*
X0171063Y0184596D01*
X0166937Y0184596D02*
X0166411Y0184596D01*
X0161189Y0184596D02*
X0161104Y0184596D01*
X0157896Y0184596D02*
X0079940Y0184596D01*
X0081010Y0185594D02*
X0206104Y0185594D01*
X0206485Y0186593D02*
X0081623Y0186593D01*
X0081980Y0187591D02*
X0128116Y0187591D01*
X0126778Y0188590D02*
X0081993Y0188590D01*
X0081943Y0189588D02*
X0126005Y0189588D01*
X0125592Y0190587D02*
X0081894Y0190587D01*
X0081844Y0191585D02*
X0125422Y0191585D01*
X0125422Y0192584D02*
X0081795Y0192584D01*
X0081745Y0193582D02*
X0125689Y0193582D01*
X0126103Y0194581D02*
X0081695Y0194581D01*
X0081646Y0195579D02*
X0127014Y0195579D01*
X0126290Y0196578D02*
X0081596Y0196578D01*
X0081547Y0197576D02*
X0125803Y0197576D01*
X0125422Y0198575D02*
X0081497Y0198575D01*
X0081447Y0199573D02*
X0125422Y0199573D01*
X0125478Y0200572D02*
X0081398Y0200572D01*
X0081348Y0201570D02*
X0125892Y0201570D01*
X0126504Y0202569D02*
X0081299Y0202569D01*
X0081249Y0203567D02*
X0127502Y0203567D01*
X0127240Y0204566D02*
X0081199Y0204566D01*
X0081150Y0205564D02*
X0126683Y0205564D01*
X0126426Y0206563D02*
X0081100Y0206563D01*
X0081051Y0207561D02*
X0126464Y0207561D01*
X0126763Y0208560D02*
X0081001Y0208560D01*
X0098465Y0209559D02*
X0127408Y0209559D01*
X0128834Y0210557D02*
X0118998Y0210557D01*
X0130111Y0210557D02*
X0130489Y0210557D01*
X0130489Y0209559D02*
X0130111Y0209559D01*
X0130111Y0208560D02*
X0130489Y0208560D01*
X0130489Y0207561D02*
X0130111Y0207561D01*
X0131766Y0210557D02*
X0134492Y0210557D01*
X0133594Y0209559D02*
X0133192Y0209559D01*
X0139531Y0211556D02*
X0189673Y0211556D01*
X0190130Y0211745D02*
X0188337Y0211002D01*
X0186965Y0209630D01*
X0186222Y0207837D01*
X0186222Y0205896D01*
X0186965Y0204104D01*
X0187952Y0203117D01*
X0186965Y0202130D01*
X0186222Y0200337D01*
X0186222Y0198396D01*
X0186965Y0196604D01*
X0188337Y0195231D01*
X0190130Y0194489D01*
X0192070Y0194489D01*
X0193863Y0195231D01*
X0195235Y0196604D01*
X0195978Y0198396D01*
X0195978Y0200337D01*
X0195235Y0202130D01*
X0194248Y0203117D01*
X0195235Y0204104D01*
X0195978Y0205896D01*
X0195978Y0207837D01*
X0195235Y0209630D01*
X0193863Y0211002D01*
X0192070Y0211745D01*
X0190130Y0211745D01*
X0192527Y0211556D02*
X0243005Y0211556D01*
X0242244Y0210557D02*
X0194308Y0210557D01*
X0195265Y0209559D02*
X0241904Y0209559D01*
X0241822Y0208560D02*
X0195678Y0208560D01*
X0195978Y0207561D02*
X0242002Y0207561D01*
X0242508Y0206563D02*
X0195978Y0206563D01*
X0195840Y0205564D02*
X0243329Y0205564D01*
X0242101Y0204566D02*
X0195427Y0204566D01*
X0194699Y0203567D02*
X0241373Y0203567D01*
X0240960Y0202569D02*
X0194796Y0202569D01*
X0195467Y0201570D02*
X0240822Y0201570D01*
X0240822Y0200572D02*
X0195881Y0200572D01*
X0195978Y0199573D02*
X0241122Y0199573D01*
X0241535Y0198575D02*
X0195978Y0198575D01*
X0195638Y0197576D02*
X0242492Y0197576D01*
X0241613Y0196578D02*
X0195210Y0196578D01*
X0194211Y0195579D02*
X0241171Y0195579D01*
X0240822Y0194581D02*
X0192293Y0194581D01*
X0189907Y0194581D02*
X0146750Y0194581D01*
X0146750Y0195579D02*
X0187989Y0195579D01*
X0186990Y0196578D02*
X0146375Y0196578D01*
X0145718Y0197576D02*
X0186562Y0197576D01*
X0186222Y0198575D02*
X0144331Y0198575D01*
X0142678Y0199573D02*
X0186222Y0199573D01*
X0186319Y0200572D02*
X0142622Y0200572D01*
X0142208Y0201570D02*
X0186733Y0201570D01*
X0187404Y0202569D02*
X0141596Y0202569D01*
X0141299Y0203567D02*
X0187501Y0203567D01*
X0186773Y0204566D02*
X0142085Y0204566D01*
X0142499Y0205564D02*
X0186360Y0205564D01*
X0186222Y0206563D02*
X0142678Y0206563D01*
X0142678Y0207561D02*
X0186222Y0207561D01*
X0186522Y0208560D02*
X0142420Y0208560D01*
X0142006Y0209559D02*
X0186935Y0209559D01*
X0187892Y0210557D02*
X0141108Y0210557D01*
X0146552Y0193582D02*
X0240822Y0193582D01*
X0240910Y0192584D02*
X0146138Y0192584D01*
X0145146Y0191585D02*
X0241324Y0191585D01*
X0241981Y0190587D02*
X0142508Y0190587D01*
X0142095Y0189588D02*
X0218343Y0189588D01*
X0216796Y0188590D02*
X0216312Y0188590D01*
X0214088Y0188590D02*
X0211748Y0188590D01*
X0208559Y0188590D02*
X0141322Y0188590D01*
X0139984Y0187591D02*
X0207151Y0187591D01*
X0217861Y0181600D02*
X0244219Y0181600D01*
X0242469Y0182599D02*
X0222260Y0182599D01*
X0223185Y0183597D02*
X0241526Y0183597D01*
X0241112Y0184596D02*
X0223599Y0184596D01*
X0223750Y0185594D02*
X0240822Y0185594D01*
X0240822Y0186593D02*
X0223742Y0186593D01*
X0223328Y0187591D02*
X0240969Y0187591D01*
X0241382Y0188590D02*
X0222604Y0188590D01*
X0221057Y0189588D02*
X0242123Y0189588D01*
X0249277Y0189588D02*
X0250708Y0189588D01*
X0250660Y0188590D02*
X0250018Y0188590D01*
X0250431Y0187591D02*
X0250612Y0187591D01*
X0250468Y0184596D02*
X0250288Y0184596D01*
X0250420Y0183597D02*
X0249874Y0183597D01*
X0250372Y0182599D02*
X0248930Y0182599D01*
X0250324Y0181600D02*
X0247181Y0181600D01*
X0249419Y0190587D02*
X0250756Y0190587D01*
X0250805Y0191585D02*
X0250076Y0191585D01*
X0250490Y0192584D02*
X0250853Y0192584D01*
X0250901Y0193582D02*
X0250578Y0193582D01*
X0250578Y0194581D02*
X0250949Y0194581D01*
X0250997Y0195579D02*
X0250229Y0195579D01*
X0249787Y0196578D02*
X0251045Y0196578D01*
X0251093Y0197576D02*
X0248908Y0197576D01*
X0249865Y0198575D02*
X0251141Y0198575D01*
X0251189Y0199573D02*
X0250278Y0199573D01*
X0250578Y0200572D02*
X0251237Y0200572D01*
X0251285Y0201570D02*
X0250578Y0201570D01*
X0250440Y0202569D02*
X0251333Y0202569D01*
X0251381Y0203567D02*
X0250027Y0203567D01*
X0249299Y0204566D02*
X0251429Y0204566D01*
X0251477Y0205564D02*
X0248071Y0205564D01*
X0248892Y0206563D02*
X0251525Y0206563D01*
X0251573Y0207561D02*
X0249398Y0207561D01*
X0249578Y0208560D02*
X0251622Y0208560D01*
X0251670Y0209559D02*
X0249496Y0209559D01*
X0249429Y0209898D02*
X0249137Y0210604D01*
X0248712Y0211239D01*
X0248172Y0211779D01*
X0247537Y0212203D01*
X0246831Y0212496D01*
X0246082Y0212645D01*
X0245889Y0212645D01*
X0245889Y0208956D01*
X0249578Y0208956D01*
X0249578Y0209149D01*
X0249429Y0209898D01*
X0249156Y0210557D02*
X0251718Y0210557D01*
X0251766Y0211556D02*
X0248395Y0211556D01*
X0246537Y0212554D02*
X0251814Y0212554D01*
X0251862Y0213553D02*
X0180597Y0213553D01*
X0198339Y0214551D02*
X0251910Y0214551D01*
X0251958Y0215550D02*
X0244209Y0215550D01*
X0246456Y0216548D02*
X0252006Y0216548D01*
X0252054Y0217547D02*
X0247915Y0217547D01*
X0248914Y0218545D02*
X0252102Y0218545D01*
X0252150Y0219544D02*
X0249731Y0219544D01*
X0250308Y0220542D02*
X0252198Y0220542D01*
X0252246Y0221541D02*
X0250868Y0221541D01*
X0251135Y0222539D02*
X0252294Y0222539D01*
X0252342Y0223538D02*
X0251403Y0223538D01*
X0251563Y0224536D02*
X0252391Y0224536D01*
X0252439Y0225535D02*
X0251563Y0225535D01*
X0251563Y0226533D02*
X0252487Y0226533D01*
X0252535Y0227532D02*
X0251387Y0227532D01*
X0251119Y0228530D02*
X0252583Y0228530D01*
X0252631Y0229529D02*
X0250849Y0229529D01*
X0250273Y0230527D02*
X0252679Y0230527D01*
X0252727Y0231526D02*
X0249696Y0231526D01*
X0248853Y0232524D02*
X0252775Y0232524D01*
X0252823Y0233523D02*
X0247855Y0233523D01*
X0235647Y0234521D02*
X0202159Y0234521D01*
X0202112Y0233523D02*
X0234460Y0233523D01*
X0233462Y0232524D02*
X0202064Y0232524D01*
X0202016Y0231526D02*
X0232619Y0231526D01*
X0232042Y0230527D02*
X0201969Y0230527D01*
X0201921Y0229529D02*
X0231466Y0229529D01*
X0231196Y0228530D02*
X0201873Y0228530D01*
X0201825Y0227532D02*
X0230928Y0227532D01*
X0230752Y0226533D02*
X0201778Y0226533D01*
X0201730Y0225535D02*
X0230752Y0225535D01*
X0230752Y0224536D02*
X0201682Y0224536D01*
X0201635Y0223538D02*
X0230912Y0223538D01*
X0231179Y0222539D02*
X0201587Y0222539D01*
X0201539Y0221541D02*
X0231447Y0221541D01*
X0232007Y0220542D02*
X0201491Y0220542D01*
X0201444Y0219544D02*
X0232584Y0219544D01*
X0233401Y0218545D02*
X0201426Y0218545D01*
X0201266Y0217547D02*
X0234400Y0217547D01*
X0235859Y0216548D02*
X0200860Y0216548D01*
X0199986Y0215550D02*
X0238106Y0215550D01*
X0244863Y0212554D02*
X0160064Y0212554D01*
X0135616Y0187591D02*
X0132484Y0187591D01*
X0133822Y0188590D02*
X0134278Y0188590D01*
X0130915Y0178929D02*
X0128894Y0179767D01*
X0126706Y0179767D01*
X0124684Y0178929D01*
X0123137Y0177382D01*
X0122300Y0175361D01*
X0122300Y0173173D01*
X0123137Y0171151D01*
X0124684Y0169604D01*
X0126706Y0168767D01*
X0128894Y0168767D01*
X0130915Y0169604D01*
X0132463Y0171151D01*
X0133300Y0173173D01*
X0133300Y0175361D01*
X0132463Y0177382D01*
X0130915Y0178929D01*
X0131240Y0178605D02*
X0136589Y0178605D01*
X0136746Y0178656D02*
X0136073Y0178437D01*
X0135441Y0178115D01*
X0134868Y0177699D01*
X0134368Y0177198D01*
X0133951Y0176625D01*
X0133630Y0175994D01*
X0133411Y0175320D01*
X0133323Y0174767D01*
X0137300Y0174767D01*
X0137300Y0178744D01*
X0136746Y0178656D01*
X0137300Y0178605D02*
X0138300Y0178605D01*
X0138300Y0178744D02*
X0138854Y0178656D01*
X0139527Y0178437D01*
X0140159Y0178115D01*
X0140732Y0177699D01*
X0141232Y0177198D01*
X0141649Y0176625D01*
X0141970Y0175994D01*
X0142189Y0175320D01*
X0142277Y0174767D01*
X0138300Y0174767D01*
X0137300Y0174767D01*
X0137300Y0173767D01*
X0133323Y0173767D01*
X0133411Y0173213D01*
X0133630Y0172539D01*
X0133951Y0171908D01*
X0134368Y0171335D01*
X0134868Y0170834D01*
X0135441Y0170418D01*
X0136073Y0170096D01*
X0136746Y0169877D01*
X0137300Y0169790D01*
X0137300Y0173767D01*
X0138300Y0173767D01*
X0138300Y0174767D01*
X0138300Y0178744D01*
X0139011Y0178605D02*
X0156043Y0178605D01*
X0155630Y0179603D02*
X0129289Y0179603D01*
X0132239Y0177606D02*
X0134776Y0177606D01*
X0133942Y0176608D02*
X0132783Y0176608D01*
X0133197Y0175609D02*
X0133505Y0175609D01*
X0133300Y0174611D02*
X0137300Y0174611D01*
X0137300Y0175609D02*
X0138300Y0175609D01*
X0138300Y0174611D02*
X0152116Y0174611D01*
X0152067Y0174561D02*
X0151450Y0173072D01*
X0151450Y0171461D01*
X0152067Y0169973D01*
X0153206Y0168833D01*
X0153250Y0168815D01*
X0153250Y0167561D01*
X0153867Y0166073D01*
X0155006Y0164933D01*
X0156494Y0164317D01*
X0156650Y0164317D01*
X0156650Y0164261D01*
X0157267Y0162773D01*
X0158406Y0161633D01*
X0159894Y0161017D01*
X0161506Y0161017D01*
X0162994Y0161633D01*
X0164133Y0162773D01*
X0164750Y0164261D01*
X0164750Y0165872D01*
X0164133Y0167361D01*
X0162994Y0168500D01*
X0161506Y0169117D01*
X0161350Y0169117D01*
X0161350Y0169172D01*
X0160733Y0170661D01*
X0159594Y0171800D01*
X0159550Y0171818D01*
X0159550Y0173072D01*
X0158933Y0174561D01*
X0157794Y0175700D01*
X0156306Y0176317D01*
X0154694Y0176317D01*
X0153206Y0175700D01*
X0152067Y0174561D01*
X0151674Y0173612D02*
X0142252Y0173612D01*
X0142277Y0173767D02*
X0138300Y0173767D01*
X0138300Y0169790D01*
X0138854Y0169877D01*
X0139527Y0170096D01*
X0140159Y0170418D01*
X0140732Y0170834D01*
X0141232Y0171335D01*
X0141649Y0171908D01*
X0141970Y0172539D01*
X0142189Y0173213D01*
X0142277Y0173767D01*
X0141994Y0172614D02*
X0151450Y0172614D01*
X0151450Y0171615D02*
X0141436Y0171615D01*
X0140432Y0170617D02*
X0151800Y0170617D01*
X0152421Y0169618D02*
X0130930Y0169618D01*
X0131928Y0170617D02*
X0135168Y0170617D01*
X0134164Y0171615D02*
X0132655Y0171615D01*
X0133068Y0172614D02*
X0133606Y0172614D01*
X0133348Y0173612D02*
X0133300Y0173612D01*
X0137300Y0173612D02*
X0138300Y0173612D01*
X0138300Y0172614D02*
X0137300Y0172614D01*
X0137300Y0171615D02*
X0138300Y0171615D01*
X0138300Y0170617D02*
X0137300Y0170617D01*
X0137300Y0176608D02*
X0138300Y0176608D01*
X0138300Y0177606D02*
X0137300Y0177606D01*
X0140824Y0177606D02*
X0157020Y0177606D01*
X0157885Y0175609D02*
X0215455Y0175609D01*
X0215150Y0174611D02*
X0158884Y0174611D01*
X0159326Y0173612D02*
X0215150Y0173612D01*
X0215418Y0172614D02*
X0159550Y0172614D01*
X0159779Y0171615D02*
X0215924Y0171615D01*
X0216946Y0170617D02*
X0191328Y0170617D01*
X0192500Y0172267D02*
X0205300Y0159467D01*
X0205700Y0159467D01*
X0209451Y0152643D02*
X0240293Y0152643D01*
X0239706Y0152400D02*
X0238567Y0151261D01*
X0237950Y0149772D01*
X0237950Y0148161D01*
X0238567Y0146673D01*
X0239509Y0145730D01*
X0239050Y0144622D01*
X0239050Y0143011D01*
X0239667Y0141523D01*
X0240806Y0140383D01*
X0242294Y0139767D01*
X0243906Y0139767D01*
X0245394Y0140383D01*
X0246533Y0141523D01*
X0247150Y0143011D01*
X0247150Y0144622D01*
X0246533Y0146111D01*
X0245591Y0147053D01*
X0246050Y0148161D01*
X0246050Y0149772D01*
X0245433Y0151261D01*
X0244294Y0152400D01*
X0242806Y0153017D01*
X0241194Y0153017D01*
X0239706Y0152400D01*
X0238951Y0151645D02*
X0210449Y0151645D01*
X0210912Y0150646D02*
X0238312Y0150646D01*
X0237950Y0149648D02*
X0211150Y0149648D01*
X0211150Y0148649D02*
X0237950Y0148649D01*
X0238161Y0147651D02*
X0210843Y0147651D01*
X0211368Y0146652D02*
X0238587Y0146652D01*
X0239477Y0145654D02*
X0211650Y0145654D01*
X0211650Y0144655D02*
X0239064Y0144655D01*
X0239050Y0143657D02*
X0211358Y0143657D01*
X0210819Y0142658D02*
X0239196Y0142658D01*
X0239610Y0141660D02*
X0209717Y0141660D01*
X0205483Y0141660D02*
X0083684Y0141660D01*
X0083850Y0142658D02*
X0204381Y0142658D01*
X0203842Y0143657D02*
X0083850Y0143657D01*
X0083443Y0144655D02*
X0203550Y0144655D01*
X0212465Y0133672D02*
X0024644Y0133672D01*
X0024001Y0134670D02*
X0248065Y0134670D01*
X0248017Y0133672D02*
X0214535Y0133672D01*
X0216271Y0132673D02*
X0247969Y0132673D01*
X0247921Y0131675D02*
X0217073Y0131675D01*
X0217486Y0130676D02*
X0245080Y0130676D01*
X0241913Y0129678D02*
X0217550Y0129678D01*
X0217454Y0128679D02*
X0238745Y0128679D01*
X0235578Y0127681D02*
X0219564Y0127681D01*
X0220457Y0126682D02*
X0232410Y0126682D01*
X0229242Y0125684D02*
X0220871Y0125684D01*
X0221000Y0124685D02*
X0226075Y0124685D01*
X0222907Y0123687D02*
X0220969Y0123687D01*
X0240528Y0140661D02*
X0083270Y0140661D01*
X0082324Y0139663D02*
X0248305Y0139663D01*
X0248353Y0140661D02*
X0245672Y0140661D01*
X0246590Y0141660D02*
X0248401Y0141660D01*
X0248450Y0142658D02*
X0247004Y0142658D01*
X0247150Y0143657D02*
X0248498Y0143657D01*
X0248546Y0144655D02*
X0247136Y0144655D01*
X0246723Y0145654D02*
X0248594Y0145654D01*
X0248642Y0146652D02*
X0245992Y0146652D01*
X0245839Y0147651D02*
X0248690Y0147651D01*
X0248738Y0148649D02*
X0246050Y0148649D01*
X0246050Y0149648D02*
X0248786Y0149648D01*
X0248834Y0150646D02*
X0245688Y0150646D01*
X0245049Y0151645D02*
X0248882Y0151645D01*
X0248930Y0152643D02*
X0243707Y0152643D01*
X0217162Y0177606D02*
X0171229Y0177606D01*
X0166771Y0177606D02*
X0165087Y0177606D01*
X0162513Y0177606D02*
X0161980Y0177606D01*
X0155441Y0180602D02*
X0109293Y0180602D01*
X0109633Y0180261D02*
X0108494Y0181400D01*
X0107006Y0182017D01*
X0105394Y0182017D01*
X0103906Y0181400D01*
X0103300Y0180794D01*
X0102894Y0181200D01*
X0101406Y0181817D01*
X0099794Y0181817D01*
X0098306Y0181200D01*
X0097750Y0180644D01*
X0096894Y0181500D01*
X0095406Y0182117D01*
X0093794Y0182117D01*
X0092306Y0181500D01*
X0091167Y0180361D01*
X0090550Y0178872D01*
X0090550Y0177261D01*
X0091167Y0175773D01*
X0092306Y0174633D01*
X0093794Y0174017D01*
X0095406Y0174017D01*
X0096894Y0174633D01*
X0097450Y0175189D01*
X0098306Y0174333D01*
X0099794Y0173717D01*
X0101406Y0173717D01*
X0102894Y0174333D01*
X0103500Y0174939D01*
X0103906Y0174533D01*
X0105394Y0173917D01*
X0107006Y0173917D01*
X0108494Y0174533D01*
X0109633Y0175673D01*
X0110250Y0177161D01*
X0110250Y0178772D01*
X0109633Y0180261D01*
X0109906Y0179603D02*
X0126311Y0179603D01*
X0124360Y0178605D02*
X0110250Y0178605D01*
X0110250Y0177606D02*
X0123361Y0177606D01*
X0122817Y0176608D02*
X0110021Y0176608D01*
X0109570Y0175609D02*
X0122403Y0175609D01*
X0122300Y0174611D02*
X0108572Y0174611D01*
X0103828Y0174611D02*
X0103171Y0174611D01*
X0098028Y0174611D02*
X0096840Y0174611D01*
X0092360Y0174611D02*
X0023503Y0174611D01*
X0024018Y0173612D02*
X0122300Y0173612D01*
X0122532Y0172614D02*
X0024285Y0172614D01*
X0024553Y0171615D02*
X0122945Y0171615D01*
X0123672Y0170617D02*
X0024673Y0170617D01*
X0024673Y0169618D02*
X0124670Y0169618D01*
X0114433Y0165061D02*
X0115050Y0163572D01*
X0115050Y0161961D01*
X0114433Y0160473D01*
X0113294Y0159333D01*
X0111806Y0158717D01*
X0110194Y0158717D01*
X0109106Y0159167D01*
X0107656Y0158567D01*
X0106044Y0158567D01*
X0104556Y0159183D01*
X0103417Y0160323D01*
X0102800Y0161811D01*
X0102800Y0163422D01*
X0103417Y0164911D01*
X0104556Y0166050D01*
X0106044Y0166667D01*
X0107656Y0166667D01*
X0108744Y0166216D01*
X0110194Y0166817D01*
X0111806Y0166817D01*
X0113294Y0166200D01*
X0114433Y0165061D01*
X0114614Y0164625D02*
X0143750Y0164625D01*
X0143750Y0164261D02*
X0143750Y0165872D01*
X0144367Y0167361D01*
X0145506Y0168500D01*
X0146994Y0169117D01*
X0148606Y0169117D01*
X0150094Y0168500D01*
X0151233Y0167361D01*
X0151850Y0165872D01*
X0151850Y0164261D01*
X0151233Y0162773D01*
X0150094Y0161633D01*
X0148606Y0161017D01*
X0146994Y0161017D01*
X0145506Y0161633D01*
X0144367Y0162773D01*
X0143750Y0164261D01*
X0144013Y0163627D02*
X0115027Y0163627D01*
X0115050Y0162628D02*
X0144511Y0162628D01*
X0145514Y0161630D02*
X0114913Y0161630D01*
X0114499Y0160631D02*
X0176510Y0160631D01*
X0176222Y0159633D02*
X0113594Y0159633D01*
X0107819Y0158634D02*
X0176222Y0158634D01*
X0176371Y0157636D02*
X0085974Y0157636D01*
X0086150Y0158061D02*
X0085533Y0156573D01*
X0084394Y0155433D01*
X0082906Y0154817D01*
X0081294Y0154817D01*
X0079806Y0155433D01*
X0078667Y0156573D01*
X0078050Y0158061D01*
X0078050Y0159672D01*
X0078667Y0161161D01*
X0079806Y0162300D01*
X0081294Y0162917D01*
X0082906Y0162917D01*
X0084394Y0162300D01*
X0085533Y0161161D01*
X0086150Y0159672D01*
X0086150Y0158061D01*
X0086150Y0158634D02*
X0105881Y0158634D01*
X0104106Y0159633D02*
X0086150Y0159633D01*
X0085753Y0160631D02*
X0103289Y0160631D01*
X0102875Y0161630D02*
X0085064Y0161630D01*
X0083601Y0162628D02*
X0102800Y0162628D01*
X0102885Y0163627D02*
X0022721Y0163627D01*
X0023298Y0164625D02*
X0103298Y0164625D01*
X0104130Y0165624D02*
X0023874Y0165624D01*
X0024190Y0166623D02*
X0105938Y0166623D01*
X0107762Y0166623D02*
X0109726Y0166623D01*
X0112274Y0166623D02*
X0144061Y0166623D01*
X0143750Y0165624D02*
X0113870Y0165624D01*
X0108011Y0181600D02*
X0155441Y0181600D01*
X0155824Y0182599D02*
X0050626Y0182599D01*
X0030204Y0181600D02*
X0092548Y0181600D01*
X0091407Y0180602D02*
X0009782Y0180602D01*
X0010666Y0179603D02*
X0005800Y0179603D01*
X0005848Y0178605D02*
X0008714Y0178605D01*
X0007362Y0177606D02*
X0005895Y0177606D01*
X0005943Y0176608D02*
X0006364Y0176608D01*
X0017870Y0179603D02*
X0090853Y0179603D01*
X0090550Y0178605D02*
X0019821Y0178605D01*
X0021173Y0177606D02*
X0090550Y0177606D01*
X0090821Y0176608D02*
X0022171Y0176608D01*
X0022927Y0175609D02*
X0091330Y0175609D01*
X0096652Y0181600D02*
X0099272Y0181600D01*
X0101928Y0181600D02*
X0104389Y0181600D01*
X0080599Y0162628D02*
X0021816Y0162628D01*
X0020817Y0161630D02*
X0079136Y0161630D01*
X0078447Y0160631D02*
X0019206Y0160631D01*
X0016543Y0159633D02*
X0078050Y0159633D01*
X0078050Y0158634D02*
X0012613Y0158634D01*
X0011992Y0159633D02*
X0011500Y0159633D01*
X0013486Y0157636D02*
X0078226Y0157636D01*
X0078640Y0156637D02*
X0057757Y0156637D01*
X0057644Y0156750D02*
X0056156Y0157367D01*
X0054544Y0157367D01*
X0053056Y0156750D01*
X0051917Y0155611D01*
X0051300Y0154122D01*
X0051300Y0152511D01*
X0051917Y0151023D01*
X0053056Y0149883D01*
X0054544Y0149267D01*
X0056156Y0149267D01*
X0057644Y0149883D01*
X0058783Y0151023D01*
X0059400Y0152511D01*
X0059400Y0154122D01*
X0058783Y0155611D01*
X0057644Y0156750D01*
X0058755Y0155639D02*
X0079600Y0155639D01*
X0084600Y0155639D02*
X0177529Y0155639D01*
X0177375Y0154640D02*
X0059185Y0154640D01*
X0059400Y0153642D02*
X0176721Y0153642D01*
X0176308Y0152643D02*
X0059400Y0152643D01*
X0059041Y0151645D02*
X0176222Y0151645D01*
X0176222Y0150646D02*
X0058407Y0150646D01*
X0057076Y0149648D02*
X0176574Y0149648D01*
X0177019Y0148649D02*
X0047550Y0148649D01*
X0047994Y0148833D02*
X0049133Y0149973D01*
X0049750Y0151461D01*
X0049750Y0153072D01*
X0049133Y0154561D01*
X0047994Y0155700D01*
X0046506Y0156317D01*
X0044894Y0156317D01*
X0043406Y0155700D01*
X0042267Y0154561D01*
X0041650Y0153072D01*
X0041650Y0151461D01*
X0042267Y0149973D01*
X0043406Y0148833D01*
X0044894Y0148217D01*
X0046506Y0148217D01*
X0047994Y0148833D01*
X0048809Y0149648D02*
X0053624Y0149648D01*
X0052293Y0150646D02*
X0049413Y0150646D01*
X0049750Y0151645D02*
X0051659Y0151645D01*
X0051300Y0152643D02*
X0049750Y0152643D01*
X0049514Y0153642D02*
X0051300Y0153642D01*
X0051515Y0154640D02*
X0049054Y0154640D01*
X0048055Y0155639D02*
X0051945Y0155639D01*
X0052943Y0156637D02*
X0013899Y0156637D01*
X0014313Y0155639D02*
X0016588Y0155639D01*
X0015291Y0154640D02*
X0014316Y0154640D01*
X0014316Y0153642D02*
X0014470Y0153642D01*
X0013793Y0151645D02*
X0013661Y0151645D01*
X0013793Y0150646D02*
X0013037Y0150646D01*
X0013901Y0149648D02*
X0012039Y0149648D01*
X0010113Y0148649D02*
X0014315Y0148649D01*
X0014917Y0147651D02*
X0007316Y0147651D01*
X0007363Y0146652D02*
X0015916Y0146652D01*
X0022213Y0146652D02*
X0046958Y0146652D01*
X0046491Y0145654D02*
X0007411Y0145654D01*
X0007458Y0144655D02*
X0046250Y0144655D01*
X0046250Y0143657D02*
X0007505Y0143657D01*
X0007553Y0142658D02*
X0046583Y0142658D01*
X0047179Y0141660D02*
X0007600Y0141660D01*
X0007648Y0140661D02*
X0048421Y0140661D01*
X0047957Y0147651D02*
X0023212Y0147651D01*
X0023814Y0148649D02*
X0043850Y0148649D01*
X0042591Y0149648D02*
X0024227Y0149648D01*
X0024336Y0150646D02*
X0041987Y0150646D01*
X0041650Y0151645D02*
X0024336Y0151645D01*
X0024073Y0152643D02*
X0041650Y0152643D01*
X0041886Y0153642D02*
X0023659Y0153642D01*
X0022838Y0154640D02*
X0042346Y0154640D01*
X0043345Y0155639D02*
X0021541Y0155639D01*
X0024458Y0167621D02*
X0144627Y0167621D01*
X0145794Y0168620D02*
X0024673Y0168620D01*
X0071048Y0183597D02*
X0156490Y0183597D01*
X0153115Y0175609D02*
X0142095Y0175609D01*
X0141658Y0176608D02*
X0216013Y0176608D01*
X0192500Y0172267D02*
X0186900Y0172267D01*
X0181100Y0166467D01*
X0180911Y0166623D02*
X0164439Y0166623D01*
X0164750Y0165624D02*
X0177314Y0165624D01*
X0177666Y0164625D02*
X0164750Y0164625D01*
X0164487Y0163627D02*
X0178455Y0163627D01*
X0177863Y0162628D02*
X0163989Y0162628D01*
X0162986Y0161630D02*
X0176923Y0161630D01*
X0176785Y0156637D02*
X0085560Y0156637D01*
X0093550Y0146617D02*
X0097300Y0146617D01*
X0097350Y0146667D01*
X0097350Y0147067D01*
X0093550Y0146617D02*
X0093500Y0146567D01*
X0068450Y0121690D02*
X0028705Y0121690D01*
X0029703Y0120691D02*
X0069448Y0120691D01*
X0073782Y0111704D02*
X0054318Y0111704D01*
X0053806Y0111917D02*
X0055294Y0111300D01*
X0056433Y0110161D01*
X0057050Y0108672D01*
X0057050Y0107061D01*
X0056433Y0105573D01*
X0055294Y0104433D01*
X0053806Y0103817D01*
X0052194Y0103817D01*
X0050706Y0104433D01*
X0049567Y0105573D01*
X0048950Y0107061D01*
X0048950Y0108672D01*
X0049567Y0110161D01*
X0050706Y0111300D01*
X0052194Y0111917D01*
X0053806Y0111917D01*
X0051682Y0111704D02*
X0009058Y0111704D01*
X0009107Y0110706D02*
X0050112Y0110706D01*
X0049379Y0109707D02*
X0009155Y0109707D01*
X0009204Y0108709D02*
X0048965Y0108709D01*
X0048950Y0107710D02*
X0009252Y0107710D01*
X0009301Y0106712D02*
X0049095Y0106712D01*
X0049508Y0105713D02*
X0009350Y0105713D01*
X0009398Y0104715D02*
X0050424Y0104715D01*
X0055576Y0104715D02*
X0065118Y0104715D01*
X0064850Y0105713D02*
X0056492Y0105713D01*
X0056905Y0106712D02*
X0064850Y0106712D01*
X0065156Y0107710D02*
X0057050Y0107710D01*
X0057035Y0108709D02*
X0065715Y0108709D01*
X0066865Y0109707D02*
X0056621Y0109707D01*
X0055888Y0110706D02*
X0072212Y0110706D01*
X0071479Y0109707D02*
X0070935Y0109707D01*
X0076418Y0111704D02*
X0090410Y0111704D01*
X0089412Y0110706D02*
X0087497Y0110706D01*
X0088787Y0109707D02*
X0088972Y0109707D01*
X0089523Y0105713D02*
X0089726Y0105713D01*
X0089076Y0104715D02*
X0091033Y0104715D01*
X0083903Y0110706D02*
X0077988Y0110706D01*
X0080328Y0109707D02*
X0082613Y0109707D01*
X0087900Y0114267D02*
X0105050Y0114267D01*
X0087900Y0114267D02*
X0083700Y0118467D01*
X0075924Y0103716D02*
X0072177Y0103716D01*
X0071157Y0102718D02*
X0076721Y0102718D01*
X0081231Y0097725D02*
X0065169Y0097725D01*
X0065913Y0096727D02*
X0072533Y0096727D01*
X0068898Y0095728D02*
X0066761Y0095728D01*
X0061585Y0090736D02*
X0048825Y0090736D01*
X0048633Y0090273D02*
X0049250Y0091761D01*
X0049250Y0093372D01*
X0048633Y0094861D01*
X0047494Y0096000D01*
X0046006Y0096617D01*
X0044394Y0096617D01*
X0042906Y0096000D01*
X0041767Y0094861D01*
X0041150Y0093372D01*
X0041150Y0091761D01*
X0041767Y0090273D01*
X0042906Y0089133D01*
X0044394Y0088517D01*
X0046006Y0088517D01*
X0047494Y0089133D01*
X0048633Y0090273D01*
X0048098Y0089737D02*
X0061998Y0089737D01*
X0062900Y0088739D02*
X0046541Y0088739D01*
X0049239Y0091734D02*
X0059705Y0091734D01*
X0058800Y0092733D02*
X0049250Y0092733D01*
X0049101Y0093731D02*
X0058387Y0093731D01*
X0058250Y0094730D02*
X0048688Y0094730D01*
X0047766Y0095728D02*
X0058273Y0095728D01*
X0058687Y0096727D02*
X0009787Y0096727D01*
X0009738Y0097725D02*
X0059431Y0097725D01*
X0065623Y0103716D02*
X0009447Y0103716D01*
X0009495Y0102718D02*
X0066643Y0102718D01*
X0077667Y0096727D02*
X0080252Y0096727D01*
X0079839Y0095728D02*
X0078588Y0095728D01*
X0079002Y0094730D02*
X0079650Y0094730D01*
X0079650Y0093731D02*
X0079150Y0093731D01*
X0079138Y0092733D02*
X0080035Y0092733D01*
X0080705Y0091734D02*
X0078725Y0091734D01*
X0077997Y0090736D02*
X0082124Y0090736D01*
X0082986Y0086742D02*
X0038559Y0086742D01*
X0038650Y0086961D02*
X0038033Y0085473D01*
X0036894Y0084333D01*
X0035406Y0083717D01*
X0033794Y0083717D01*
X0032306Y0084333D01*
X0031167Y0085473D01*
X0030550Y0086961D01*
X0030550Y0088572D01*
X0031167Y0090061D01*
X0032306Y0091200D01*
X0033794Y0091817D01*
X0035406Y0091817D01*
X0036894Y0091200D01*
X0038033Y0090061D01*
X0038650Y0088572D01*
X0038650Y0086961D01*
X0038650Y0087740D02*
X0085434Y0087740D01*
X0087006Y0088739D02*
X0072900Y0088739D01*
X0076438Y0089737D02*
X0087930Y0089737D01*
X0090500Y0086567D02*
X0082900Y0083467D01*
X0072000Y0064167D01*
X0070200Y0063267D01*
X0068200Y0060667D01*
X0071900Y0058967D02*
X0071900Y0049467D01*
X0068067Y0050795D02*
X0016713Y0050795D01*
X0018577Y0051794D02*
X0068499Y0051794D01*
X0068900Y0052792D02*
X0019575Y0052792D01*
X0020084Y0053791D02*
X0068900Y0053791D01*
X0068900Y0054789D02*
X0020497Y0054789D01*
X0020574Y0055788D02*
X0068900Y0055788D01*
X0066961Y0056786D02*
X0062456Y0056786D01*
X0063946Y0057785D02*
X0065341Y0057785D01*
X0061000Y0060567D02*
X0050500Y0070667D01*
X0034900Y0070667D01*
X0037628Y0073667D02*
X0037789Y0073667D01*
X0037750Y0073761D01*
X0037750Y0074759D02*
X0010857Y0074759D01*
X0010905Y0073761D02*
X0032267Y0073761D01*
X0031384Y0072762D02*
X0010954Y0072762D01*
X0011002Y0071764D02*
X0030971Y0071764D01*
X0030850Y0070765D02*
X0017746Y0070765D01*
X0018800Y0069767D02*
X0030889Y0069767D01*
X0031303Y0068768D02*
X0019558Y0068768D01*
X0019972Y0067770D02*
X0031126Y0067770D01*
X0030590Y0066771D02*
X0020225Y0066771D01*
X0024771Y0065773D02*
X0030300Y0065773D01*
X0030300Y0064774D02*
X0025661Y0064774D01*
X0026074Y0063776D02*
X0030584Y0063776D01*
X0031112Y0062777D02*
X0026200Y0062777D01*
X0026166Y0061779D02*
X0032187Y0061779D01*
X0028900Y0058667D02*
X0028900Y0077317D01*
X0033723Y0083746D02*
X0015850Y0083746D01*
X0015844Y0082748D02*
X0041553Y0082748D01*
X0041030Y0081749D02*
X0015431Y0081749D01*
X0014711Y0080751D02*
X0040750Y0080751D01*
X0040750Y0079752D02*
X0013174Y0079752D01*
X0010662Y0078754D02*
X0041043Y0078754D01*
X0039261Y0077755D02*
X0010711Y0077755D01*
X0010759Y0076756D02*
X0038323Y0076756D01*
X0037910Y0075758D02*
X0010808Y0075758D01*
X0011051Y0070765D02*
X0011705Y0070765D01*
X0018074Y0060780D02*
X0018548Y0060780D01*
X0019141Y0059782D02*
X0019307Y0059782D01*
X0019904Y0058783D02*
X0020942Y0058783D01*
X0020317Y0057785D02*
X0058054Y0057785D01*
X0057355Y0058783D02*
X0023358Y0058783D01*
X0024993Y0059782D02*
X0056950Y0059782D01*
X0056450Y0060780D02*
X0025752Y0060780D01*
X0028900Y0058667D02*
X0029850Y0057717D01*
X0036513Y0061779D02*
X0055412Y0061779D01*
X0054374Y0062777D02*
X0037588Y0062777D01*
X0038116Y0063776D02*
X0053336Y0063776D01*
X0052298Y0064774D02*
X0038400Y0064774D01*
X0038400Y0065773D02*
X0051260Y0065773D01*
X0050222Y0066771D02*
X0038110Y0066771D01*
X0045850Y0073761D02*
X0059565Y0073761D01*
X0059259Y0074067D02*
X0060401Y0072926D01*
X0061893Y0072308D01*
X0063507Y0072308D01*
X0064999Y0072926D01*
X0066141Y0074067D01*
X0066759Y0075559D01*
X0066759Y0075817D01*
X0067406Y0075817D01*
X0068894Y0076433D01*
X0070033Y0077573D01*
X0070650Y0079061D01*
X0070650Y0080672D01*
X0070033Y0082161D01*
X0068894Y0083300D01*
X0067406Y0083917D01*
X0065794Y0083917D01*
X0064306Y0083300D01*
X0063167Y0082161D01*
X0062718Y0081077D01*
X0061794Y0082000D01*
X0061094Y0082290D01*
X0061094Y0082528D01*
X0060478Y0084017D01*
X0059338Y0085156D01*
X0057850Y0085773D01*
X0056238Y0085773D01*
X0054750Y0085156D01*
X0053611Y0084017D01*
X0052994Y0082528D01*
X0052994Y0080917D01*
X0053611Y0079428D01*
X0054750Y0078289D01*
X0055450Y0077999D01*
X0055450Y0077761D01*
X0056067Y0076273D01*
X0057206Y0075133D01*
X0058694Y0074517D01*
X0059073Y0074517D01*
X0059259Y0074067D01*
X0058108Y0074759D02*
X0045850Y0074759D01*
X0045690Y0075758D02*
X0056581Y0075758D01*
X0055866Y0076756D02*
X0046909Y0076756D01*
X0048016Y0077755D02*
X0055452Y0077755D01*
X0054286Y0078754D02*
X0048557Y0078754D01*
X0048850Y0079752D02*
X0053477Y0079752D01*
X0053063Y0080751D02*
X0048850Y0080751D01*
X0048570Y0081749D02*
X0052994Y0081749D01*
X0053085Y0082748D02*
X0048047Y0082748D01*
X0046983Y0083746D02*
X0053499Y0083746D01*
X0054339Y0084745D02*
X0037305Y0084745D01*
X0038145Y0085743D02*
X0056167Y0085743D01*
X0057921Y0085743D02*
X0080935Y0085743D01*
X0080176Y0084745D02*
X0059750Y0084745D01*
X0060590Y0083746D02*
X0065383Y0083746D01*
X0063753Y0082748D02*
X0061003Y0082748D01*
X0062045Y0081749D02*
X0062996Y0081749D01*
X0067817Y0083746D02*
X0079612Y0083746D01*
X0079048Y0082748D02*
X0069447Y0082748D01*
X0070204Y0081749D02*
X0078485Y0081749D01*
X0077921Y0080751D02*
X0070618Y0080751D01*
X0070650Y0079752D02*
X0077357Y0079752D01*
X0076793Y0078754D02*
X0070523Y0078754D01*
X0070109Y0077755D02*
X0076229Y0077755D01*
X0075665Y0076756D02*
X0069217Y0076756D01*
X0066759Y0075758D02*
X0075101Y0075758D01*
X0074537Y0074759D02*
X0066428Y0074759D01*
X0065835Y0073761D02*
X0073973Y0073761D01*
X0073409Y0072762D02*
X0069961Y0072762D01*
X0071330Y0071764D02*
X0072845Y0071764D01*
X0072281Y0070765D02*
X0071980Y0070765D01*
X0066639Y0072762D02*
X0064605Y0072762D01*
X0065270Y0071764D02*
X0053687Y0071764D01*
X0054725Y0070765D02*
X0059953Y0070765D01*
X0058320Y0069767D02*
X0055763Y0069767D01*
X0056801Y0068768D02*
X0057561Y0068768D01*
X0060794Y0072762D02*
X0052649Y0072762D01*
X0062374Y0070765D02*
X0064620Y0070765D01*
X0064250Y0069767D02*
X0064007Y0069767D01*
X0071900Y0058967D02*
X0078800Y0065867D01*
X0080000Y0072267D01*
X0086500Y0079967D01*
X0110215Y0079752D02*
X0133866Y0079752D01*
X0134279Y0080751D02*
X0111611Y0080751D01*
X0112272Y0081749D02*
X0135155Y0081749D01*
X0140445Y0081749D02*
X0170358Y0081749D01*
X0170185Y0080751D02*
X0141321Y0080751D01*
X0141734Y0079752D02*
X0170012Y0079752D01*
X0169839Y0078754D02*
X0141850Y0078754D01*
X0141806Y0077755D02*
X0169666Y0077755D01*
X0169492Y0076756D02*
X0141392Y0076756D01*
X0140619Y0075758D02*
X0169319Y0075758D01*
X0170531Y0082748D02*
X0112650Y0082748D01*
X0112650Y0083746D02*
X0170704Y0083746D01*
X0170877Y0084745D02*
X0112805Y0084745D01*
X0128083Y0099722D02*
X0133874Y0099722D01*
X0132718Y0100721D02*
X0128995Y0100721D01*
X0129408Y0101719D02*
X0132157Y0101719D01*
X0131850Y0102718D02*
X0129550Y0102718D01*
X0129532Y0103716D02*
X0131850Y0103716D01*
X0132116Y0104715D02*
X0129118Y0104715D01*
X0128381Y0105713D02*
X0132619Y0105713D01*
X0133634Y0106712D02*
X0126800Y0106712D01*
X0152400Y0106367D02*
X0154400Y0107367D01*
X0163900Y0107367D01*
X0182224Y0146652D02*
X0187476Y0146652D01*
X0185517Y0147651D02*
X0184183Y0147651D01*
X0181289Y0167621D02*
X0180911Y0167621D01*
X0180911Y0168620D02*
X0181289Y0168620D01*
X0181289Y0169618D02*
X0180911Y0169618D01*
X0178836Y0169618D02*
X0161165Y0169618D01*
X0160752Y0170617D02*
X0185872Y0170617D01*
X0184853Y0169618D02*
X0183364Y0169618D01*
X0177875Y0168620D02*
X0162706Y0168620D01*
X0163873Y0167621D02*
X0177381Y0167621D01*
X0158414Y0161630D02*
X0150086Y0161630D01*
X0151089Y0162628D02*
X0157411Y0162628D01*
X0156913Y0163627D02*
X0151587Y0163627D01*
X0151850Y0164625D02*
X0155749Y0164625D01*
X0154315Y0165624D02*
X0151850Y0165624D01*
X0151539Y0166623D02*
X0153639Y0166623D01*
X0153250Y0167621D02*
X0150973Y0167621D01*
X0149806Y0168620D02*
X0153250Y0168620D01*
X0202207Y0235520D02*
X0217445Y0235520D01*
X0245511Y0212554D02*
X0245889Y0212554D01*
X0245889Y0211556D02*
X0245511Y0211556D01*
X0245511Y0210557D02*
X0245889Y0210557D01*
X0245889Y0209559D02*
X0245511Y0209559D01*
X0103547Y0052792D02*
X0074900Y0052792D01*
X0074961Y0057785D02*
X0075954Y0057785D01*
X0067850Y0049797D02*
X0012072Y0049797D01*
X0012023Y0050795D02*
X0013436Y0050795D01*
X0020574Y0056786D02*
X0059543Y0056786D01*
X0042617Y0083746D02*
X0035477Y0083746D01*
X0031895Y0084745D02*
X0015696Y0084745D01*
X0015282Y0085743D02*
X0031054Y0085743D01*
X0030641Y0086742D02*
X0014353Y0086742D01*
X0010225Y0087740D02*
X0030550Y0087740D01*
X0030619Y0088739D02*
X0010176Y0088739D01*
X0010127Y0089737D02*
X0031033Y0089737D01*
X0031841Y0090736D02*
X0010079Y0090736D01*
X0010030Y0091734D02*
X0033595Y0091734D01*
X0035605Y0091734D02*
X0041161Y0091734D01*
X0041150Y0092733D02*
X0009982Y0092733D01*
X0009933Y0093731D02*
X0041299Y0093731D01*
X0041712Y0094730D02*
X0009884Y0094730D01*
X0009836Y0095728D02*
X0042634Y0095728D01*
X0041575Y0090736D02*
X0037359Y0090736D01*
X0038167Y0089737D02*
X0042302Y0089737D01*
X0043858Y0088739D02*
X0038581Y0088739D01*
X0024428Y0114700D02*
X0008912Y0114700D01*
X0008863Y0115698D02*
X0023241Y0115698D01*
X0022666Y0116697D02*
X0008815Y0116697D01*
X0008766Y0117695D02*
X0022350Y0117695D01*
X0022350Y0118694D02*
X0008718Y0118694D01*
X0008669Y0119692D02*
X0022607Y0119692D01*
X0023097Y0120691D02*
X0008620Y0120691D01*
X0044059Y0028828D02*
X0053821Y0028828D01*
X0052961Y0027829D02*
X0043757Y0027829D01*
X0043205Y0026831D02*
X0052547Y0026831D01*
X0052441Y0025832D02*
X0042074Y0025832D01*
X0060453Y0026831D02*
X0170240Y0026831D01*
X0170651Y0025832D02*
X0060559Y0025832D01*
X0060507Y0024834D02*
X0132322Y0024834D01*
X0129673Y0023835D02*
X0089709Y0023835D01*
X0090707Y0022837D02*
X0128066Y0022837D01*
X0127067Y0021838D02*
X0091136Y0021838D01*
X0091350Y0020840D02*
X0126165Y0020840D01*
X0125588Y0019841D02*
X0091350Y0019841D01*
X0090990Y0018843D02*
X0125012Y0018843D01*
X0124698Y0017844D02*
X0090355Y0017844D01*
X0091380Y0016846D02*
X0124430Y0016846D01*
X0124217Y0015847D02*
X0105106Y0015847D01*
X0106595Y0014849D02*
X0124217Y0014849D01*
X0124217Y0013850D02*
X0112452Y0013850D01*
X0113592Y0012852D02*
X0124339Y0012852D01*
X0124606Y0011853D02*
X0114147Y0011853D01*
X0114450Y0010855D02*
X0124874Y0010855D01*
X0125390Y0009856D02*
X0114450Y0009856D01*
X0114179Y0008858D02*
X0125967Y0008858D01*
X0126725Y0007859D02*
X0113670Y0007859D01*
X0108348Y0013850D02*
X0107295Y0013850D01*
X0102194Y0015847D02*
X0099568Y0015847D01*
X0095932Y0015847D02*
X0092797Y0015847D01*
X0093466Y0014849D02*
X0094655Y0014849D01*
X0094043Y0013850D02*
X0093850Y0013850D01*
X0123311Y0035818D02*
X0124834Y0035818D01*
X0136922Y0024834D02*
X0145290Y0024834D01*
X0145556Y0025100D02*
X0144417Y0023961D01*
X0143800Y0022472D01*
X0143800Y0020861D01*
X0144417Y0019373D01*
X0145556Y0018233D01*
X0147044Y0017617D01*
X0148656Y0017617D01*
X0150144Y0018233D01*
X0151283Y0019373D01*
X0151900Y0020861D01*
X0151900Y0022472D01*
X0151283Y0023961D01*
X0150144Y0025100D01*
X0148656Y0025717D01*
X0147044Y0025717D01*
X0145556Y0025100D01*
X0144365Y0023835D02*
X0139571Y0023835D01*
X0141178Y0022837D02*
X0143951Y0022837D01*
X0143800Y0021838D02*
X0142177Y0021838D01*
X0143080Y0020840D02*
X0143809Y0020840D01*
X0143656Y0019841D02*
X0144222Y0019841D01*
X0144233Y0018843D02*
X0144946Y0018843D01*
X0144546Y0017844D02*
X0146495Y0017844D01*
X0144814Y0016846D02*
X0173317Y0016846D01*
X0173375Y0015847D02*
X0145028Y0015847D01*
X0145028Y0014849D02*
X0173429Y0014849D01*
X0173478Y0013850D02*
X0145028Y0013850D01*
X0144905Y0012852D02*
X0173526Y0012852D01*
X0173575Y0011853D02*
X0144638Y0011853D01*
X0144370Y0010855D02*
X0173624Y0010855D01*
X0173673Y0009856D02*
X0143854Y0009856D01*
X0143277Y0008858D02*
X0173722Y0008858D01*
X0173770Y0007859D02*
X0142519Y0007859D01*
X0149205Y0017844D02*
X0173170Y0017844D01*
X0172944Y0018843D02*
X0150754Y0018843D01*
X0151478Y0019841D02*
X0172718Y0019841D01*
X0172492Y0020840D02*
X0151891Y0020840D01*
X0151900Y0021838D02*
X0172266Y0021838D01*
X0171883Y0022837D02*
X0151749Y0022837D01*
X0151335Y0023835D02*
X0171473Y0023835D01*
X0171029Y0024834D02*
X0150410Y0024834D01*
D17*
X0115200Y0042217D03*
X0111250Y0042217D03*
X0111250Y0046167D03*
X0115200Y0046167D03*
X0028900Y0077317D03*
X0028900Y0081967D03*
X0024250Y0081967D03*
X0024200Y0077317D03*
X0093500Y0146567D03*
X0097450Y0146567D03*
X0097450Y0150517D03*
X0093500Y0150517D03*
X0225400Y0160317D03*
X0229350Y0160317D03*
X0229350Y0164317D03*
X0225400Y0164317D03*
D18*
X0095400Y0148067D02*
X0093450Y0150017D01*
X0093500Y0150517D01*
D19*
X0093500Y0160167D01*
X0088250Y0165417D01*
X0088250Y0182067D01*
X0088150Y0182167D01*
X0145450Y0182167D01*
X0149800Y0192617D01*
X0154000Y0190717D01*
X0201900Y0190717D01*
X0225400Y0164317D02*
X0226050Y0163667D01*
X0226050Y0156668D01*
X0230750Y0151968D01*
X0230750Y0145917D01*
X0157600Y0059917D02*
X0149550Y0059917D01*
X0148300Y0058667D01*
X0111250Y0046167D02*
X0111250Y0014767D01*
X0118250Y0008467D01*
X0035400Y0107167D02*
X0021350Y0116367D01*
X0018352Y0122437D01*
X0013200Y0132867D01*
X0011100Y0136967D01*
X0025150Y0142967D01*
X0036700Y0155517D01*
X0036700Y0158217D01*
X0064200Y0158217D01*
X0088150Y0182167D01*
X0116800Y0159517D02*
X0105050Y0143067D01*
X0105050Y0137717D01*
D20*
X0178050Y0138617D02*
X0187975Y0138492D01*
X0187975Y0136742D01*
D21*
X0027500Y0081917D02*
X0014050Y0095367D01*
X0014050Y0118135D01*
X0018352Y0122437D01*
X0027500Y0081917D02*
X0027500Y0080567D01*
X0024300Y0077367D01*
X0024200Y0077317D01*
D22*
X0027200Y0047467D03*
X0027200Y0038267D03*
X0040000Y0029367D03*
X0036900Y0022667D03*
X0056500Y0025767D03*
X0084100Y0031867D03*
X0068200Y0060667D03*
X0062700Y0076367D03*
X0084300Y0071067D03*
X0088700Y0066367D03*
X0086500Y0079967D03*
X0090500Y0086567D03*
X0102400Y0117767D03*
X0102600Y0129967D03*
X0159500Y0180867D03*
X0163800Y0181467D03*
D23*
X0104300Y0124267D03*
X0015400Y0095467D03*
X0156400Y0014467D03*
X0245700Y0176967D03*
M02*
