%
M48
M72
T01C0.01500
T02C0.02362
T03C0.03543
T04C0.04724
T05C0.11811
%
T01
X61300Y41200
X65700Y42100
X74800Y40900
X77800Y45400
X84200Y59100
X89000Y64500
X106200Y54000
X125300Y55400
X134600Y58400
X140600Y56600
X138900Y52900
X148300Y56800
X137800Y76800
X141000Y97800
X145100Y101100
X153500Y104600
X174500Y107000
X179500Y108000
X201000Y131500
X204000Y135400
X207200Y142500
X207600Y147300
X219200Y172200
X210300Y180600
X202700Y181400
X201700Y189400
X219700Y183900
X234700Y171300
X242000Y147100
X244300Y143100
X169000Y179200
X151000Y184900
X112800Y159100
X108200Y160800
X106200Y176100
X100600Y175900
X94600Y176200
X87400Y181900
X82100Y157000
X79800Y141000
X62800Y127000
X71800Y122200
X85000Y115900
X75100Y106000
X79500Y103800
X85700Y105200
X92800Y101400
X85200Y91200
X75500Y91000
X70400Y90100
X65500Y90000
X62300Y93000
X68900Y104300
X53000Y106000
X45200Y90700
X34600Y85900
X44800Y78400
X41800Y72700
X34900Y68800
X35500Y64900
X45100Y61300
X59200Y65200
X57900Y69100
X58600Y73000
X59500Y76700
X57044Y79856
X66600Y78000
X65800Y69500
X65800Y65500
X61000Y58700
X23800Y61300
X11800Y81700
X36100Y99400
X18100Y106000
X26400Y116400
X13600Y133900
X36100Y158500
X45700Y150400
X50300Y142400
X50800Y134500
X55350Y151450
X121300Y30400
X126000Y28600
T02
X110400Y8450
X147850Y19800
X159100Y36900
X105050Y112400
X127850Y123300
X193550Y154550
X193802Y154802
X207500Y123300
T03
X19923Y129426
X19064Y149092
T04
X8273Y152562
X9475Y125029
T05
X14268Y167929
X134622Y12811
X241157Y223638
M30
