G75*
%MOIN*%
%OFA0B0*%
%FSLAX25Y25*%
%IPPOS*%
%LPD*%
%AMOC8*
5,1,8,0,0,1.08239X$1,22.5*
%
%ADD10R,0.02362X0.03346*%
%ADD11R,0.03346X0.02362*%
%ADD12R,0.08268X0.08268*%
%ADD13C,0.01378*%
%ADD14R,0.01000X0.05906*%
%ADD15R,0.05906X0.01000*%
%ADD16R,0.03543X0.02756*%
%ADD17R,0.04331X0.03937*%
%ADD18R,0.03937X0.04331*%
%ADD19R,0.04724X0.05512*%
%ADD20R,0.01575X0.05315*%
%ADD21C,0.04500*%
%ADD22R,0.04724X0.01378*%
%ADD23R,0.02756X0.03543*%
D10*
G36*
X0162664Y0095027D02*
X0162254Y0092702D01*
X0158960Y0093283D01*
X0159370Y0095608D01*
X0162664Y0095027D01*
G37*
G36*
X0163484Y0099680D02*
X0163074Y0097355D01*
X0159780Y0097936D01*
X0160190Y0100261D01*
X0163484Y0099680D01*
G37*
G36*
X0164305Y0104332D02*
X0163895Y0102007D01*
X0160601Y0102588D01*
X0161011Y0104913D01*
X0164305Y0104332D01*
G37*
G36*
X0165125Y0108985D02*
X0164715Y0106660D01*
X0161421Y0107241D01*
X0161831Y0109566D01*
X0165125Y0108985D01*
G37*
G36*
X0165945Y0113638D02*
X0165535Y0111313D01*
X0162241Y0111894D01*
X0162651Y0114219D01*
X0165945Y0113638D01*
G37*
G36*
X0166766Y0118290D02*
X0166356Y0115965D01*
X0163062Y0116546D01*
X0163472Y0118871D01*
X0166766Y0118290D01*
G37*
G36*
X0127665Y0199760D02*
X0130022Y0199884D01*
X0130197Y0196544D01*
X0127840Y0196420D01*
X0127665Y0199760D01*
G37*
G36*
X0122947Y0199513D02*
X0125304Y0199637D01*
X0125479Y0196297D01*
X0123122Y0196173D01*
X0122947Y0199513D01*
G37*
G36*
X0118229Y0199265D02*
X0120586Y0199389D01*
X0120761Y0196049D01*
X0118404Y0195925D01*
X0118229Y0199265D01*
G37*
G36*
X0113511Y0199018D02*
X0115868Y0199142D01*
X0116043Y0195802D01*
X0113686Y0195678D01*
X0113511Y0199018D01*
G37*
G36*
X0108793Y0198771D02*
X0111150Y0198895D01*
X0111325Y0195555D01*
X0108968Y0195431D01*
X0108793Y0198771D01*
G37*
G36*
X0104075Y0198524D02*
X0106432Y0198648D01*
X0106607Y0195308D01*
X0104250Y0195184D01*
X0104075Y0198524D01*
G37*
G36*
X0076484Y0176138D02*
X0078841Y0176262D01*
X0079016Y0172922D01*
X0076659Y0172798D01*
X0076484Y0176138D01*
G37*
G36*
X0071766Y0175891D02*
X0074123Y0176015D01*
X0074298Y0172675D01*
X0071941Y0172551D01*
X0071766Y0175891D01*
G37*
G36*
X0067048Y0175643D02*
X0069405Y0175767D01*
X0069580Y0172427D01*
X0067223Y0172303D01*
X0067048Y0175643D01*
G37*
G36*
X0062330Y0175396D02*
X0064687Y0175520D01*
X0064862Y0172180D01*
X0062505Y0172056D01*
X0062330Y0175396D01*
G37*
G36*
X0057612Y0175149D02*
X0059969Y0175273D01*
X0060144Y0171933D01*
X0057787Y0171809D01*
X0057612Y0175149D01*
G37*
G36*
X0052894Y0174901D02*
X0055251Y0175025D01*
X0055426Y0171685D01*
X0053069Y0171561D01*
X0052894Y0174901D01*
G37*
G36*
X0167067Y0202461D02*
X0169424Y0202585D01*
X0169599Y0199245D01*
X0167242Y0199121D01*
X0167067Y0202461D01*
G37*
G36*
X0171785Y0202708D02*
X0174142Y0202832D01*
X0174317Y0199492D01*
X0171960Y0199368D01*
X0171785Y0202708D01*
G37*
G36*
X0176503Y0202955D02*
X0178860Y0203079D01*
X0179035Y0199739D01*
X0176678Y0199615D01*
X0176503Y0202955D01*
G37*
G36*
X0181221Y0203202D02*
X0183578Y0203326D01*
X0183753Y0199986D01*
X0181396Y0199862D01*
X0181221Y0203202D01*
G37*
G36*
X0185939Y0203450D02*
X0188296Y0203574D01*
X0188471Y0200234D01*
X0186114Y0200110D01*
X0185939Y0203450D01*
G37*
G36*
X0190657Y0203697D02*
X0193014Y0203821D01*
X0193189Y0200481D01*
X0190832Y0200357D01*
X0190657Y0203697D01*
G37*
X0219024Y0205395D03*
X0223749Y0205395D03*
X0228473Y0205395D03*
X0233198Y0205395D03*
X0237922Y0205395D03*
X0242646Y0205395D03*
G36*
X0180425Y0329576D02*
X0178068Y0329452D01*
X0177893Y0332792D01*
X0180250Y0332916D01*
X0180425Y0329576D01*
G37*
G36*
X0175707Y0329329D02*
X0173350Y0329205D01*
X0173175Y0332545D01*
X0175532Y0332669D01*
X0175707Y0329329D01*
G37*
G36*
X0170989Y0329082D02*
X0168632Y0328958D01*
X0168457Y0332298D01*
X0170814Y0332422D01*
X0170989Y0329082D01*
G37*
G36*
X0166271Y0328835D02*
X0163914Y0328711D01*
X0163739Y0332051D01*
X0166096Y0332175D01*
X0166271Y0328835D01*
G37*
G36*
X0161553Y0328587D02*
X0159196Y0328463D01*
X0159021Y0331803D01*
X0161378Y0331927D01*
X0161553Y0328587D01*
G37*
G36*
X0156835Y0328340D02*
X0154478Y0328216D01*
X0154303Y0331556D01*
X0156660Y0331680D01*
X0156835Y0328340D01*
G37*
G36*
X0117433Y0325639D02*
X0115076Y0325515D01*
X0114901Y0328855D01*
X0117258Y0328979D01*
X0117433Y0325639D01*
G37*
G36*
X0112715Y0325392D02*
X0110358Y0325268D01*
X0110183Y0328608D01*
X0112540Y0328732D01*
X0112715Y0325392D01*
G37*
G36*
X0107997Y0325145D02*
X0105640Y0325021D01*
X0105465Y0328361D01*
X0107822Y0328485D01*
X0107997Y0325145D01*
G37*
G36*
X0103279Y0324898D02*
X0100922Y0324774D01*
X0100747Y0328114D01*
X0103104Y0328238D01*
X0103279Y0324898D01*
G37*
G36*
X0098561Y0324650D02*
X0096204Y0324526D01*
X0096029Y0327866D01*
X0098386Y0327990D01*
X0098561Y0324650D01*
G37*
G36*
X0093843Y0324403D02*
X0091486Y0324279D01*
X0091311Y0327619D01*
X0093668Y0327743D01*
X0093843Y0324403D01*
G37*
X0065476Y0322705D03*
X0060751Y0322705D03*
X0056027Y0322705D03*
X0051302Y0322705D03*
X0046578Y0322705D03*
X0041854Y0322705D03*
G36*
X0117734Y0409810D02*
X0118144Y0412135D01*
X0121438Y0411554D01*
X0121028Y0409229D01*
X0117734Y0409810D01*
G37*
G36*
X0118555Y0414462D02*
X0118965Y0416787D01*
X0122259Y0416206D01*
X0121849Y0413881D01*
X0118555Y0414462D01*
G37*
G36*
X0119375Y0419115D02*
X0119785Y0421440D01*
X0123079Y0420859D01*
X0122669Y0418534D01*
X0119375Y0419115D01*
G37*
G36*
X0120195Y0423768D02*
X0120605Y0426093D01*
X0123899Y0425512D01*
X0123489Y0423187D01*
X0120195Y0423768D01*
G37*
G36*
X0121016Y0428420D02*
X0121426Y0430745D01*
X0124720Y0430164D01*
X0124310Y0427839D01*
X0121016Y0428420D01*
G37*
G36*
X0121836Y0433073D02*
X0122246Y0435398D01*
X0125540Y0434817D01*
X0125130Y0432492D01*
X0121836Y0433073D01*
G37*
G36*
X0208016Y0351962D02*
X0205659Y0351838D01*
X0205484Y0355178D01*
X0207841Y0355302D01*
X0208016Y0351962D01*
G37*
G36*
X0212734Y0352209D02*
X0210377Y0352085D01*
X0210202Y0355425D01*
X0212559Y0355549D01*
X0212734Y0352209D01*
G37*
G36*
X0217452Y0352457D02*
X0215095Y0352333D01*
X0214920Y0355673D01*
X0217277Y0355797D01*
X0217452Y0352457D01*
G37*
G36*
X0222170Y0352704D02*
X0219813Y0352580D01*
X0219638Y0355920D01*
X0221995Y0356044D01*
X0222170Y0352704D01*
G37*
G36*
X0226888Y0352951D02*
X0224531Y0352827D01*
X0224356Y0356167D01*
X0226713Y0356291D01*
X0226888Y0352951D01*
G37*
G36*
X0231606Y0353199D02*
X0229249Y0353075D01*
X0229074Y0356415D01*
X0231431Y0356539D01*
X0231606Y0353199D01*
G37*
G36*
X0348094Y0438701D02*
X0350451Y0438825D01*
X0350626Y0435485D01*
X0348269Y0435361D01*
X0348094Y0438701D01*
G37*
G36*
X0352812Y0438949D02*
X0355169Y0439073D01*
X0355344Y0435733D01*
X0352987Y0435609D01*
X0352812Y0438949D01*
G37*
G36*
X0357530Y0439196D02*
X0359887Y0439320D01*
X0360062Y0435980D01*
X0357705Y0435856D01*
X0357530Y0439196D01*
G37*
G36*
X0362248Y0439443D02*
X0364605Y0439567D01*
X0364780Y0436227D01*
X0362423Y0436103D01*
X0362248Y0439443D01*
G37*
G36*
X0366966Y0439691D02*
X0369323Y0439815D01*
X0369498Y0436475D01*
X0367141Y0436351D01*
X0366966Y0439691D01*
G37*
G36*
X0371684Y0439938D02*
X0374041Y0440062D01*
X0374216Y0436722D01*
X0371859Y0436598D01*
X0371684Y0439938D01*
G37*
G36*
X0399275Y0462324D02*
X0401632Y0462448D01*
X0401807Y0459108D01*
X0399450Y0458984D01*
X0399275Y0462324D01*
G37*
G36*
X0403993Y0462571D02*
X0406350Y0462695D01*
X0406525Y0459355D01*
X0404168Y0459231D01*
X0403993Y0462571D01*
G37*
G36*
X0408711Y0462818D02*
X0411068Y0462942D01*
X0411243Y0459602D01*
X0408886Y0459478D01*
X0408711Y0462818D01*
G37*
G36*
X0413429Y0463065D02*
X0415786Y0463189D01*
X0415961Y0459849D01*
X0413604Y0459725D01*
X0413429Y0463065D01*
G37*
G36*
X0418147Y0463313D02*
X0420504Y0463437D01*
X0420679Y0460097D01*
X0418322Y0459973D01*
X0418147Y0463313D01*
G37*
G36*
X0422865Y0463560D02*
X0425222Y0463684D01*
X0425397Y0460344D01*
X0423040Y0460220D01*
X0422865Y0463560D01*
G37*
G36*
X0462267Y0466261D02*
X0464624Y0466385D01*
X0464799Y0463045D01*
X0462442Y0462921D01*
X0462267Y0466261D01*
G37*
G36*
X0466985Y0466508D02*
X0469342Y0466632D01*
X0469517Y0463292D01*
X0467160Y0463168D01*
X0466985Y0466508D01*
G37*
G36*
X0471703Y0466755D02*
X0474060Y0466879D01*
X0474235Y0463539D01*
X0471878Y0463415D01*
X0471703Y0466755D01*
G37*
G36*
X0476421Y0467002D02*
X0478778Y0467126D01*
X0478953Y0463786D01*
X0476596Y0463662D01*
X0476421Y0467002D01*
G37*
G36*
X0481139Y0467250D02*
X0483496Y0467374D01*
X0483671Y0464034D01*
X0481314Y0463910D01*
X0481139Y0467250D01*
G37*
G36*
X0485857Y0467497D02*
X0488214Y0467621D01*
X0488389Y0464281D01*
X0486032Y0464157D01*
X0485857Y0467497D01*
G37*
X0514224Y0469195D03*
X0518949Y0469195D03*
X0523673Y0469195D03*
X0528398Y0469195D03*
X0533122Y0469195D03*
X0537846Y0469195D03*
G36*
X0461966Y0382090D02*
X0461556Y0379765D01*
X0458262Y0380346D01*
X0458672Y0382671D01*
X0461966Y0382090D01*
G37*
G36*
X0461145Y0377438D02*
X0460735Y0375113D01*
X0457441Y0375694D01*
X0457851Y0378019D01*
X0461145Y0377438D01*
G37*
G36*
X0460325Y0372785D02*
X0459915Y0370460D01*
X0456621Y0371041D01*
X0457031Y0373366D01*
X0460325Y0372785D01*
G37*
G36*
X0459505Y0368132D02*
X0459095Y0365807D01*
X0455801Y0366388D01*
X0456211Y0368713D01*
X0459505Y0368132D01*
G37*
G36*
X0458684Y0363480D02*
X0458274Y0361155D01*
X0454980Y0361736D01*
X0455390Y0364061D01*
X0458684Y0363480D01*
G37*
G36*
X0457864Y0358827D02*
X0457454Y0356502D01*
X0454160Y0357083D01*
X0454570Y0359408D01*
X0457864Y0358827D01*
G37*
G36*
X0416536Y0168673D02*
X0416946Y0170998D01*
X0420240Y0170417D01*
X0419830Y0168092D01*
X0416536Y0168673D01*
G37*
G36*
X0415716Y0164020D02*
X0416126Y0166345D01*
X0419420Y0165764D01*
X0419010Y0163439D01*
X0415716Y0164020D01*
G37*
G36*
X0414895Y0159368D02*
X0415305Y0161693D01*
X0418599Y0161112D01*
X0418189Y0158787D01*
X0414895Y0159368D01*
G37*
G36*
X0414075Y0154715D02*
X0414485Y0157040D01*
X0417779Y0156459D01*
X0417369Y0154134D01*
X0414075Y0154715D01*
G37*
G36*
X0413255Y0150062D02*
X0413665Y0152387D01*
X0416959Y0151806D01*
X0416549Y0149481D01*
X0413255Y0150062D01*
G37*
G36*
X0412434Y0145410D02*
X0412844Y0147735D01*
X0416138Y0147154D01*
X0415728Y0144829D01*
X0412434Y0145410D01*
G37*
G36*
X0451535Y0063940D02*
X0449178Y0063816D01*
X0449003Y0067156D01*
X0451360Y0067280D01*
X0451535Y0063940D01*
G37*
G36*
X0456253Y0064187D02*
X0453896Y0064063D01*
X0453721Y0067403D01*
X0456078Y0067527D01*
X0456253Y0064187D01*
G37*
G36*
X0460971Y0064435D02*
X0458614Y0064311D01*
X0458439Y0067651D01*
X0460796Y0067775D01*
X0460971Y0064435D01*
G37*
G36*
X0465689Y0064682D02*
X0463332Y0064558D01*
X0463157Y0067898D01*
X0465514Y0068022D01*
X0465689Y0064682D01*
G37*
G36*
X0470407Y0064929D02*
X0468050Y0064805D01*
X0467875Y0068145D01*
X0470232Y0068269D01*
X0470407Y0064929D01*
G37*
G36*
X0475125Y0065176D02*
X0472768Y0065052D01*
X0472593Y0068392D01*
X0474950Y0068516D01*
X0475125Y0065176D01*
G37*
G36*
X0502716Y0087562D02*
X0500359Y0087438D01*
X0500184Y0090778D01*
X0502541Y0090902D01*
X0502716Y0087562D01*
G37*
G36*
X0507434Y0087809D02*
X0505077Y0087685D01*
X0504902Y0091025D01*
X0507259Y0091149D01*
X0507434Y0087809D01*
G37*
G36*
X0512152Y0088057D02*
X0509795Y0087933D01*
X0509620Y0091273D01*
X0511977Y0091397D01*
X0512152Y0088057D01*
G37*
G36*
X0516870Y0088304D02*
X0514513Y0088180D01*
X0514338Y0091520D01*
X0516695Y0091644D01*
X0516870Y0088304D01*
G37*
G36*
X0521588Y0088551D02*
X0519231Y0088427D01*
X0519056Y0091767D01*
X0521413Y0091891D01*
X0521588Y0088551D01*
G37*
G36*
X0526306Y0088799D02*
X0523949Y0088675D01*
X0523774Y0092015D01*
X0526131Y0092139D01*
X0526306Y0088799D01*
G37*
G36*
X0412133Y0061239D02*
X0409776Y0061115D01*
X0409601Y0064455D01*
X0411958Y0064579D01*
X0412133Y0061239D01*
G37*
G36*
X0407415Y0060992D02*
X0405058Y0060868D01*
X0404883Y0064208D01*
X0407240Y0064332D01*
X0407415Y0060992D01*
G37*
G36*
X0402697Y0060745D02*
X0400340Y0060621D01*
X0400165Y0063961D01*
X0402522Y0064085D01*
X0402697Y0060745D01*
G37*
G36*
X0397979Y0060498D02*
X0395622Y0060374D01*
X0395447Y0063714D01*
X0397804Y0063838D01*
X0397979Y0060498D01*
G37*
G36*
X0393261Y0060250D02*
X0390904Y0060126D01*
X0390729Y0063466D01*
X0393086Y0063590D01*
X0393261Y0060250D01*
G37*
G36*
X0388543Y0060003D02*
X0386186Y0059879D01*
X0386011Y0063219D01*
X0388368Y0063343D01*
X0388543Y0060003D01*
G37*
X0360176Y0058305D03*
X0355451Y0058305D03*
X0350727Y0058305D03*
X0346002Y0058305D03*
X0341278Y0058305D03*
X0336554Y0058305D03*
D11*
X0420412Y0194919D03*
X0420412Y0199643D03*
X0420412Y0204368D03*
X0420412Y0209092D03*
X0420412Y0213817D03*
X0420412Y0218541D03*
X0453988Y0308959D03*
X0453988Y0313683D03*
X0453988Y0318408D03*
X0453988Y0323132D03*
X0453988Y0327857D03*
X0453988Y0332581D03*
X0158788Y0068781D03*
X0158788Y0064057D03*
X0158788Y0059332D03*
X0158788Y0054608D03*
X0158788Y0049883D03*
X0158788Y0045159D03*
X0125712Y0459319D03*
X0125712Y0464043D03*
X0125712Y0468768D03*
X0125712Y0473492D03*
X0125712Y0478217D03*
X0125712Y0482941D03*
D12*
X0157995Y0469161D03*
X0244609Y0433728D03*
X0175712Y0364831D03*
X0043822Y0351051D03*
X0240678Y0177049D03*
X0338522Y0086651D03*
X0452695Y0204761D03*
X0539309Y0169328D03*
X0470412Y0100431D03*
X0421705Y0322739D03*
X0335091Y0358172D03*
X0403988Y0427069D03*
X0535878Y0440849D03*
X0126505Y0058939D03*
X0039891Y0094372D03*
X0108788Y0163269D03*
D13*
X0107509Y0157069D02*
X0107509Y0151557D01*
X0110068Y0151557D02*
X0110068Y0157069D01*
X0112627Y0157069D02*
X0112627Y0151557D01*
X0104950Y0151557D02*
X0104950Y0157069D01*
X0102587Y0159431D02*
X0097075Y0159431D01*
X0097075Y0161990D02*
X0102587Y0161990D01*
X0102587Y0164549D02*
X0097075Y0164549D01*
X0097075Y0167108D02*
X0102587Y0167108D01*
X0104950Y0169470D02*
X0104950Y0174982D01*
X0107509Y0174982D02*
X0107509Y0169470D01*
X0110068Y0169470D02*
X0110068Y0174982D01*
X0112627Y0174982D02*
X0112627Y0169470D01*
X0114989Y0167108D02*
X0120501Y0167108D01*
X0120501Y0164549D02*
X0114989Y0164549D01*
X0114989Y0161990D02*
X0120501Y0161990D01*
X0120501Y0159431D02*
X0114989Y0159431D01*
X0051603Y0098210D02*
X0046091Y0098210D01*
X0046091Y0095651D02*
X0051603Y0095651D01*
X0051603Y0093092D02*
X0046091Y0093092D01*
X0046091Y0090533D02*
X0051603Y0090533D01*
X0043729Y0088171D02*
X0043729Y0082659D01*
X0041170Y0082659D02*
X0041170Y0088171D01*
X0038611Y0088171D02*
X0038611Y0082659D01*
X0036052Y0082659D02*
X0036052Y0088171D01*
X0033690Y0090533D02*
X0028178Y0090533D01*
X0028178Y0093092D02*
X0033690Y0093092D01*
X0033690Y0095651D02*
X0028178Y0095651D01*
X0028178Y0098210D02*
X0033690Y0098210D01*
X0036052Y0100572D02*
X0036052Y0106084D01*
X0038611Y0106084D02*
X0038611Y0100572D01*
X0041170Y0100572D02*
X0041170Y0106084D01*
X0043729Y0106084D02*
X0043729Y0100572D01*
X0114792Y0062777D02*
X0120304Y0062777D01*
X0120304Y0060218D02*
X0114792Y0060218D01*
X0114792Y0057659D02*
X0120304Y0057659D01*
X0120304Y0055100D02*
X0114792Y0055100D01*
X0122666Y0052738D02*
X0122666Y0047226D01*
X0125225Y0047226D02*
X0125225Y0052738D01*
X0127784Y0052738D02*
X0127784Y0047226D01*
X0130343Y0047226D02*
X0130343Y0052738D01*
X0132705Y0055100D02*
X0138217Y0055100D01*
X0138217Y0057659D02*
X0132705Y0057659D01*
X0132705Y0060218D02*
X0138217Y0060218D01*
X0138217Y0062777D02*
X0132705Y0062777D01*
X0130343Y0065139D02*
X0130343Y0070651D01*
X0127784Y0070651D02*
X0127784Y0065139D01*
X0125225Y0065139D02*
X0125225Y0070651D01*
X0122666Y0070651D02*
X0122666Y0065139D01*
X0228965Y0173210D02*
X0234477Y0173210D01*
X0234477Y0175769D02*
X0228965Y0175769D01*
X0228965Y0178328D02*
X0234477Y0178328D01*
X0234477Y0180887D02*
X0228965Y0180887D01*
X0236839Y0183250D02*
X0236839Y0188762D01*
X0239398Y0188762D02*
X0239398Y0183250D01*
X0241957Y0183250D02*
X0241957Y0188762D01*
X0244517Y0188762D02*
X0244517Y0183250D01*
X0246879Y0180887D02*
X0252391Y0180887D01*
X0252391Y0178328D02*
X0246879Y0178328D01*
X0246879Y0175769D02*
X0252391Y0175769D01*
X0252391Y0173210D02*
X0246879Y0173210D01*
X0244517Y0170848D02*
X0244517Y0165336D01*
X0241957Y0165336D02*
X0241957Y0170848D01*
X0239398Y0170848D02*
X0239398Y0165336D01*
X0236839Y0165336D02*
X0236839Y0170848D01*
X0326809Y0090490D02*
X0332321Y0090490D01*
X0332321Y0087931D02*
X0326809Y0087931D01*
X0326809Y0085372D02*
X0332321Y0085372D01*
X0332321Y0082813D02*
X0326809Y0082813D01*
X0334683Y0080450D02*
X0334683Y0074938D01*
X0337243Y0074938D02*
X0337243Y0080450D01*
X0339802Y0080450D02*
X0339802Y0074938D01*
X0342361Y0074938D02*
X0342361Y0080450D01*
X0344723Y0082813D02*
X0350235Y0082813D01*
X0350235Y0085372D02*
X0344723Y0085372D01*
X0344723Y0087931D02*
X0350235Y0087931D01*
X0350235Y0090490D02*
X0344723Y0090490D01*
X0342361Y0092852D02*
X0342361Y0098364D01*
X0339802Y0098364D02*
X0339802Y0092852D01*
X0337243Y0092852D02*
X0337243Y0098364D01*
X0334683Y0098364D02*
X0334683Y0092852D01*
X0448857Y0193049D02*
X0448857Y0198561D01*
X0451416Y0198561D02*
X0451416Y0193049D01*
X0453975Y0193049D02*
X0453975Y0198561D01*
X0456534Y0198561D02*
X0456534Y0193049D01*
X0458896Y0200923D02*
X0464408Y0200923D01*
X0464408Y0203482D02*
X0458896Y0203482D01*
X0458896Y0206041D02*
X0464408Y0206041D01*
X0464408Y0208600D02*
X0458896Y0208600D01*
X0456534Y0210962D02*
X0456534Y0216474D01*
X0453975Y0216474D02*
X0453975Y0210962D01*
X0451416Y0210962D02*
X0451416Y0216474D01*
X0448857Y0216474D02*
X0448857Y0210962D01*
X0446495Y0208600D02*
X0440983Y0208600D01*
X0440983Y0206041D02*
X0446495Y0206041D01*
X0446495Y0203482D02*
X0440983Y0203482D01*
X0440983Y0200923D02*
X0446495Y0200923D01*
X0527597Y0173167D02*
X0533109Y0173167D01*
X0533109Y0170608D02*
X0527597Y0170608D01*
X0527597Y0168049D02*
X0533109Y0168049D01*
X0533109Y0165490D02*
X0527597Y0165490D01*
X0535471Y0163128D02*
X0535471Y0157616D01*
X0538030Y0157616D02*
X0538030Y0163128D01*
X0540589Y0163128D02*
X0540589Y0157616D01*
X0543148Y0157616D02*
X0543148Y0163128D01*
X0545510Y0165490D02*
X0551022Y0165490D01*
X0551022Y0168049D02*
X0545510Y0168049D01*
X0545510Y0170608D02*
X0551022Y0170608D01*
X0551022Y0173167D02*
X0545510Y0173167D01*
X0543148Y0175529D02*
X0543148Y0181041D01*
X0540589Y0181041D02*
X0540589Y0175529D01*
X0538030Y0175529D02*
X0538030Y0181041D01*
X0535471Y0181041D02*
X0535471Y0175529D01*
X0474250Y0112143D02*
X0474250Y0106631D01*
X0471691Y0106631D02*
X0471691Y0112143D01*
X0469132Y0112143D02*
X0469132Y0106631D01*
X0466573Y0106631D02*
X0466573Y0112143D01*
X0464211Y0104269D02*
X0458699Y0104269D01*
X0458699Y0101710D02*
X0464211Y0101710D01*
X0464211Y0099151D02*
X0458699Y0099151D01*
X0458699Y0096592D02*
X0464211Y0096592D01*
X0466573Y0094230D02*
X0466573Y0088718D01*
X0469132Y0088718D02*
X0469132Y0094230D01*
X0471691Y0094230D02*
X0471691Y0088718D01*
X0474250Y0088718D02*
X0474250Y0094230D01*
X0476613Y0096592D02*
X0482125Y0096592D01*
X0482125Y0099151D02*
X0476613Y0099151D01*
X0476613Y0101710D02*
X0482125Y0101710D01*
X0482125Y0104269D02*
X0476613Y0104269D01*
X0425543Y0311026D02*
X0425543Y0316538D01*
X0422984Y0316538D02*
X0422984Y0311026D01*
X0420425Y0311026D02*
X0420425Y0316538D01*
X0417866Y0316538D02*
X0417866Y0311026D01*
X0415504Y0318900D02*
X0409992Y0318900D01*
X0409992Y0321459D02*
X0415504Y0321459D01*
X0415504Y0324018D02*
X0409992Y0324018D01*
X0409992Y0326577D02*
X0415504Y0326577D01*
X0417866Y0328939D02*
X0417866Y0334451D01*
X0420425Y0334451D02*
X0420425Y0328939D01*
X0422984Y0328939D02*
X0422984Y0334451D01*
X0425543Y0334451D02*
X0425543Y0328939D01*
X0427905Y0326577D02*
X0433417Y0326577D01*
X0433417Y0324018D02*
X0427905Y0324018D01*
X0427905Y0321459D02*
X0433417Y0321459D01*
X0433417Y0318900D02*
X0427905Y0318900D01*
X0346803Y0354333D02*
X0341291Y0354333D01*
X0341291Y0356892D02*
X0346803Y0356892D01*
X0346803Y0359451D02*
X0341291Y0359451D01*
X0341291Y0362010D02*
X0346803Y0362010D01*
X0338929Y0364372D02*
X0338929Y0369884D01*
X0336370Y0369884D02*
X0336370Y0364372D01*
X0333811Y0364372D02*
X0333811Y0369884D01*
X0331252Y0369884D02*
X0331252Y0364372D01*
X0328890Y0362010D02*
X0323378Y0362010D01*
X0323378Y0359451D02*
X0328890Y0359451D01*
X0328890Y0356892D02*
X0323378Y0356892D01*
X0323378Y0354333D02*
X0328890Y0354333D01*
X0331252Y0351971D02*
X0331252Y0346459D01*
X0333811Y0346459D02*
X0333811Y0351971D01*
X0336370Y0351971D02*
X0336370Y0346459D01*
X0338929Y0346459D02*
X0338929Y0351971D01*
X0400150Y0415357D02*
X0400150Y0420869D01*
X0402709Y0420869D02*
X0402709Y0415357D01*
X0405268Y0415357D02*
X0405268Y0420869D01*
X0407827Y0420869D02*
X0407827Y0415357D01*
X0410189Y0423231D02*
X0415701Y0423231D01*
X0415701Y0425790D02*
X0410189Y0425790D01*
X0410189Y0428349D02*
X0415701Y0428349D01*
X0415701Y0430908D02*
X0410189Y0430908D01*
X0407827Y0433270D02*
X0407827Y0438782D01*
X0405268Y0438782D02*
X0405268Y0433270D01*
X0402709Y0433270D02*
X0402709Y0438782D01*
X0400150Y0438782D02*
X0400150Y0433270D01*
X0397787Y0430908D02*
X0392275Y0430908D01*
X0392275Y0428349D02*
X0397787Y0428349D01*
X0397787Y0425790D02*
X0392275Y0425790D01*
X0392275Y0423231D02*
X0397787Y0423231D01*
X0524165Y0437010D02*
X0529677Y0437010D01*
X0529677Y0439569D02*
X0524165Y0439569D01*
X0524165Y0442128D02*
X0529677Y0442128D01*
X0529677Y0444687D02*
X0524165Y0444687D01*
X0532039Y0447050D02*
X0532039Y0452562D01*
X0534598Y0452562D02*
X0534598Y0447050D01*
X0537157Y0447050D02*
X0537157Y0452562D01*
X0539717Y0452562D02*
X0539717Y0447050D01*
X0542079Y0444687D02*
X0547591Y0444687D01*
X0547591Y0442128D02*
X0542079Y0442128D01*
X0542079Y0439569D02*
X0547591Y0439569D01*
X0547591Y0437010D02*
X0542079Y0437010D01*
X0539717Y0434648D02*
X0539717Y0429136D01*
X0537157Y0429136D02*
X0537157Y0434648D01*
X0534598Y0434648D02*
X0534598Y0429136D01*
X0532039Y0429136D02*
X0532039Y0434648D01*
X0256322Y0435008D02*
X0250810Y0435008D01*
X0250810Y0437567D02*
X0256322Y0437567D01*
X0256322Y0432449D02*
X0250810Y0432449D01*
X0250810Y0429890D02*
X0256322Y0429890D01*
X0248448Y0427528D02*
X0248448Y0422016D01*
X0245889Y0422016D02*
X0245889Y0427528D01*
X0243330Y0427528D02*
X0243330Y0422016D01*
X0240771Y0422016D02*
X0240771Y0427528D01*
X0238409Y0429890D02*
X0232897Y0429890D01*
X0232897Y0432449D02*
X0238409Y0432449D01*
X0238409Y0435008D02*
X0232897Y0435008D01*
X0232897Y0437567D02*
X0238409Y0437567D01*
X0240771Y0439929D02*
X0240771Y0445441D01*
X0243330Y0445441D02*
X0243330Y0439929D01*
X0245889Y0439929D02*
X0245889Y0445441D01*
X0248448Y0445441D02*
X0248448Y0439929D01*
X0179550Y0376543D02*
X0179550Y0371031D01*
X0176991Y0371031D02*
X0176991Y0376543D01*
X0174432Y0376543D02*
X0174432Y0371031D01*
X0171873Y0371031D02*
X0171873Y0376543D01*
X0169511Y0368669D02*
X0163999Y0368669D01*
X0163999Y0366110D02*
X0169511Y0366110D01*
X0169511Y0363551D02*
X0163999Y0363551D01*
X0163999Y0360992D02*
X0169511Y0360992D01*
X0171873Y0358630D02*
X0171873Y0353118D01*
X0174432Y0353118D02*
X0174432Y0358630D01*
X0176991Y0358630D02*
X0176991Y0353118D01*
X0179550Y0353118D02*
X0179550Y0358630D01*
X0181913Y0360992D02*
X0187425Y0360992D01*
X0187425Y0363551D02*
X0181913Y0363551D01*
X0181913Y0366110D02*
X0187425Y0366110D01*
X0187425Y0368669D02*
X0181913Y0368669D01*
X0161834Y0457449D02*
X0161834Y0462961D01*
X0159275Y0462961D02*
X0159275Y0457449D01*
X0156716Y0457449D02*
X0156716Y0462961D01*
X0154157Y0462961D02*
X0154157Y0457449D01*
X0151795Y0465323D02*
X0146283Y0465323D01*
X0146283Y0467882D02*
X0151795Y0467882D01*
X0151795Y0470441D02*
X0146283Y0470441D01*
X0146283Y0473000D02*
X0151795Y0473000D01*
X0154157Y0475362D02*
X0154157Y0480874D01*
X0156716Y0480874D02*
X0156716Y0475362D01*
X0159275Y0475362D02*
X0159275Y0480874D01*
X0161834Y0480874D02*
X0161834Y0475362D01*
X0164196Y0473000D02*
X0169708Y0473000D01*
X0169708Y0470441D02*
X0164196Y0470441D01*
X0164196Y0467882D02*
X0169708Y0467882D01*
X0169708Y0465323D02*
X0164196Y0465323D01*
X0047661Y0362764D02*
X0047661Y0357252D01*
X0045102Y0357252D02*
X0045102Y0362764D01*
X0042543Y0362764D02*
X0042543Y0357252D01*
X0039983Y0357252D02*
X0039983Y0362764D01*
X0037621Y0354890D02*
X0032109Y0354890D01*
X0032109Y0352331D02*
X0037621Y0352331D01*
X0037621Y0349772D02*
X0032109Y0349772D01*
X0032109Y0347213D02*
X0037621Y0347213D01*
X0039983Y0344850D02*
X0039983Y0339338D01*
X0042543Y0339338D02*
X0042543Y0344850D01*
X0045102Y0344850D02*
X0045102Y0339338D01*
X0047661Y0339338D02*
X0047661Y0344850D01*
X0050023Y0347213D02*
X0055535Y0347213D01*
X0055535Y0349772D02*
X0050023Y0349772D01*
X0050023Y0352331D02*
X0055535Y0352331D01*
X0055535Y0354890D02*
X0050023Y0354890D01*
D14*
X0182602Y0413059D03*
X0184570Y0413059D03*
X0186539Y0413059D03*
X0188507Y0413059D03*
X0190476Y0413059D03*
X0192444Y0413059D03*
X0194413Y0413059D03*
X0196381Y0413059D03*
X0198350Y0413059D03*
X0200318Y0413059D03*
X0202287Y0413059D03*
X0204255Y0413059D03*
X0206224Y0413059D03*
X0208192Y0413059D03*
X0210161Y0413059D03*
X0212129Y0413059D03*
X0212129Y0458335D03*
X0210161Y0458335D03*
X0208192Y0458335D03*
X0206224Y0458335D03*
X0204255Y0458335D03*
X0202287Y0458335D03*
X0200318Y0458335D03*
X0198350Y0458335D03*
X0196381Y0458335D03*
X0194413Y0458335D03*
X0192444Y0458335D03*
X0190476Y0458335D03*
X0188507Y0458335D03*
X0186539Y0458335D03*
X0184570Y0458335D03*
X0182602Y0458335D03*
X0367571Y0378841D03*
X0369539Y0378841D03*
X0371508Y0378841D03*
X0373476Y0378841D03*
X0375445Y0378841D03*
X0377413Y0378841D03*
X0379382Y0378841D03*
X0381350Y0378841D03*
X0383319Y0378841D03*
X0385287Y0378841D03*
X0387256Y0378841D03*
X0389224Y0378841D03*
X0391193Y0378841D03*
X0393161Y0378841D03*
X0395130Y0378841D03*
X0397098Y0378841D03*
X0397098Y0333565D03*
X0395130Y0333565D03*
X0393161Y0333565D03*
X0391193Y0333565D03*
X0389224Y0333565D03*
X0387256Y0333565D03*
X0385287Y0333565D03*
X0383319Y0333565D03*
X0381350Y0333565D03*
X0379382Y0333565D03*
X0377413Y0333565D03*
X0375445Y0333565D03*
X0373476Y0333565D03*
X0371508Y0333565D03*
X0369539Y0333565D03*
X0367571Y0333565D03*
X0477302Y0193935D03*
X0479270Y0193935D03*
X0481239Y0193935D03*
X0483207Y0193935D03*
X0485176Y0193935D03*
X0487144Y0193935D03*
X0489113Y0193935D03*
X0491081Y0193935D03*
X0493050Y0193935D03*
X0495018Y0193935D03*
X0496987Y0193935D03*
X0498955Y0193935D03*
X0500924Y0193935D03*
X0502892Y0193935D03*
X0504861Y0193935D03*
X0506829Y0193935D03*
X0506829Y0148659D03*
X0504861Y0148659D03*
X0502892Y0148659D03*
X0500924Y0148659D03*
X0498955Y0148659D03*
X0496987Y0148659D03*
X0495018Y0148659D03*
X0493050Y0148659D03*
X0491081Y0148659D03*
X0489113Y0148659D03*
X0487144Y0148659D03*
X0485176Y0148659D03*
X0483207Y0148659D03*
X0481239Y0148659D03*
X0479270Y0148659D03*
X0477302Y0148659D03*
X0101898Y0115041D03*
X0099930Y0115041D03*
X0097961Y0115041D03*
X0095993Y0115041D03*
X0094024Y0115041D03*
X0092056Y0115041D03*
X0090087Y0115041D03*
X0088119Y0115041D03*
X0086150Y0115041D03*
X0084182Y0115041D03*
X0082213Y0115041D03*
X0080245Y0115041D03*
X0078276Y0115041D03*
X0076308Y0115041D03*
X0074339Y0115041D03*
X0072371Y0115041D03*
X0072371Y0069765D03*
X0074339Y0069765D03*
X0076308Y0069765D03*
X0078276Y0069765D03*
X0080245Y0069765D03*
X0082213Y0069765D03*
X0084182Y0069765D03*
X0086150Y0069765D03*
X0088119Y0069765D03*
X0090087Y0069765D03*
X0092056Y0069765D03*
X0094024Y0069765D03*
X0095993Y0069765D03*
X0097961Y0069765D03*
X0099930Y0069765D03*
X0101898Y0069765D03*
D15*
X0109772Y0077639D03*
X0109772Y0079608D03*
X0109772Y0081576D03*
X0109772Y0083545D03*
X0109772Y0085513D03*
X0109772Y0087482D03*
X0109772Y0089450D03*
X0109772Y0091419D03*
X0109772Y0093387D03*
X0109772Y0095356D03*
X0109772Y0097324D03*
X0109772Y0099293D03*
X0109772Y0101261D03*
X0109772Y0103230D03*
X0109772Y0105198D03*
X0109772Y0107167D03*
X0064497Y0107167D03*
X0064497Y0105198D03*
X0064497Y0103230D03*
X0064497Y0101261D03*
X0064497Y0099293D03*
X0064497Y0097324D03*
X0064497Y0095356D03*
X0064497Y0093387D03*
X0064497Y0091419D03*
X0064497Y0089450D03*
X0064497Y0087482D03*
X0064497Y0085513D03*
X0064497Y0083545D03*
X0064497Y0081576D03*
X0064497Y0079608D03*
X0064497Y0077639D03*
X0359697Y0341439D03*
X0359697Y0343408D03*
X0359697Y0345376D03*
X0359697Y0347345D03*
X0359697Y0349313D03*
X0359697Y0351282D03*
X0359697Y0353250D03*
X0359697Y0355219D03*
X0359697Y0357187D03*
X0359697Y0359156D03*
X0359697Y0361124D03*
X0359697Y0363093D03*
X0359697Y0365061D03*
X0359697Y0367030D03*
X0359697Y0368998D03*
X0359697Y0370967D03*
X0404972Y0370967D03*
X0404972Y0368998D03*
X0404972Y0367030D03*
X0404972Y0365061D03*
X0404972Y0363093D03*
X0404972Y0361124D03*
X0404972Y0359156D03*
X0404972Y0357187D03*
X0404972Y0355219D03*
X0404972Y0353250D03*
X0404972Y0351282D03*
X0404972Y0349313D03*
X0404972Y0347345D03*
X0404972Y0345376D03*
X0404972Y0343408D03*
X0404972Y0341439D03*
X0469428Y0186061D03*
X0469428Y0184092D03*
X0469428Y0182124D03*
X0469428Y0180155D03*
X0469428Y0178187D03*
X0469428Y0176218D03*
X0469428Y0174250D03*
X0469428Y0172281D03*
X0469428Y0170313D03*
X0469428Y0168344D03*
X0469428Y0166376D03*
X0469428Y0164407D03*
X0469428Y0162439D03*
X0469428Y0160470D03*
X0469428Y0158502D03*
X0469428Y0156533D03*
X0514703Y0156533D03*
X0514703Y0158502D03*
X0514703Y0160470D03*
X0514703Y0162439D03*
X0514703Y0164407D03*
X0514703Y0166376D03*
X0514703Y0168344D03*
X0514703Y0170313D03*
X0514703Y0172281D03*
X0514703Y0174250D03*
X0514703Y0176218D03*
X0514703Y0178187D03*
X0514703Y0180155D03*
X0514703Y0182124D03*
X0514703Y0184092D03*
X0514703Y0186061D03*
X0220003Y0420933D03*
X0220003Y0422902D03*
X0220003Y0424870D03*
X0220003Y0426839D03*
X0220003Y0428807D03*
X0220003Y0430776D03*
X0220003Y0432744D03*
X0220003Y0434713D03*
X0220003Y0436681D03*
X0220003Y0438650D03*
X0220003Y0440618D03*
X0220003Y0442587D03*
X0220003Y0444555D03*
X0220003Y0446524D03*
X0220003Y0448492D03*
X0220003Y0450461D03*
X0174728Y0450461D03*
X0174728Y0448492D03*
X0174728Y0446524D03*
X0174728Y0444555D03*
X0174728Y0442587D03*
X0174728Y0440618D03*
X0174728Y0438650D03*
X0174728Y0436681D03*
X0174728Y0434713D03*
X0174728Y0432744D03*
X0174728Y0430776D03*
X0174728Y0428807D03*
X0174728Y0426839D03*
X0174728Y0424870D03*
X0174728Y0422902D03*
X0174728Y0420933D03*
D16*
X0195397Y0398886D03*
X0195397Y0393768D03*
X0203271Y0393768D03*
X0203271Y0398886D03*
X0211145Y0398886D03*
X0211145Y0393768D03*
X0219019Y0393768D03*
X0219019Y0398886D03*
X0228861Y0386343D03*
X0228861Y0381225D03*
X0236935Y0389994D03*
X0236935Y0395112D03*
X0230830Y0417390D03*
X0230830Y0422508D03*
X0230830Y0444949D03*
X0230830Y0450067D03*
X0137600Y0359859D03*
X0137600Y0354741D03*
X0146900Y0173359D03*
X0146900Y0168241D03*
X0089103Y0134332D03*
X0089103Y0129214D03*
X0081229Y0129214D03*
X0081229Y0134332D03*
X0073355Y0134332D03*
X0073355Y0129214D03*
X0065481Y0129214D03*
X0065481Y0134332D03*
X0055639Y0141757D03*
X0055639Y0146875D03*
X0047565Y0138106D03*
X0047565Y0132988D03*
X0053670Y0110710D03*
X0053670Y0105592D03*
X0053670Y0083151D03*
X0053670Y0078033D03*
X0348870Y0341833D03*
X0348870Y0346951D03*
X0348870Y0369392D03*
X0348870Y0374510D03*
X0360681Y0393014D03*
X0360681Y0398132D03*
X0368555Y0398132D03*
X0368555Y0393014D03*
X0376429Y0393014D03*
X0376429Y0398132D03*
X0384303Y0398132D03*
X0384303Y0393014D03*
X0350839Y0405557D03*
X0350839Y0410675D03*
X0342765Y0401906D03*
X0342765Y0396788D03*
X0442100Y0432041D03*
X0442100Y0437159D03*
X0525530Y0185667D03*
X0525530Y0180549D03*
X0525530Y0158108D03*
X0525530Y0152990D03*
X0513719Y0134486D03*
X0513719Y0129368D03*
X0505845Y0129368D03*
X0505845Y0134486D03*
X0497971Y0134486D03*
X0497971Y0129368D03*
X0490097Y0129368D03*
X0490097Y0134486D03*
X0523561Y0121943D03*
X0523561Y0116825D03*
X0531635Y0125594D03*
X0531635Y0130712D03*
X0432300Y0095459D03*
X0432300Y0090341D03*
D17*
X0044654Y0028600D03*
X0051346Y0028600D03*
X0080450Y0042154D03*
X0088400Y0042154D03*
X0088400Y0048846D03*
X0080450Y0048846D03*
X0107247Y0033248D03*
X0113940Y0033248D03*
X0119133Y0033264D03*
X0125826Y0033264D03*
X0223989Y0153558D03*
X0230682Y0153558D03*
X0235864Y0153578D03*
X0242557Y0153578D03*
X0336643Y0110122D03*
X0343336Y0110122D03*
X0348518Y0110142D03*
X0355211Y0110142D03*
X0453374Y0230436D03*
X0460067Y0230436D03*
X0465260Y0230452D03*
X0471953Y0230452D03*
X0490800Y0221546D03*
X0490800Y0214854D03*
X0498750Y0214854D03*
X0498750Y0221546D03*
X0527854Y0235100D03*
X0534546Y0235100D03*
X0421026Y0297064D03*
X0414333Y0297064D03*
X0409140Y0297048D03*
X0402447Y0297048D03*
X0383600Y0305954D03*
X0383600Y0312646D03*
X0375650Y0312646D03*
X0375650Y0305954D03*
X0346546Y0292400D03*
X0339854Y0292400D03*
X0519189Y0417358D03*
X0525882Y0417358D03*
X0531064Y0417378D03*
X0537757Y0417378D03*
X0239846Y0499500D03*
X0233154Y0499500D03*
X0204050Y0485946D03*
X0196100Y0485946D03*
X0196100Y0479254D03*
X0204050Y0479254D03*
X0177253Y0494852D03*
X0170560Y0494852D03*
X0165367Y0494836D03*
X0158674Y0494836D03*
X0060511Y0374542D03*
X0053818Y0374542D03*
X0048636Y0374522D03*
X0041943Y0374522D03*
D18*
X0035348Y0373164D03*
X0035348Y0379857D03*
G36*
X0135695Y0415244D02*
X0132912Y0418027D01*
X0135973Y0421088D01*
X0138756Y0418305D01*
X0135695Y0415244D01*
G37*
G36*
X0140427Y0410512D02*
X0137644Y0413295D01*
X0140705Y0416356D01*
X0143488Y0413573D01*
X0140427Y0410512D01*
G37*
G36*
X0146812Y0414673D02*
X0149595Y0417456D01*
X0152656Y0414395D01*
X0149873Y0411612D01*
X0146812Y0414673D01*
G37*
G36*
X0151544Y0419405D02*
X0154327Y0422188D01*
X0157388Y0419127D01*
X0154605Y0416344D01*
X0151544Y0419405D01*
G37*
G36*
X0139393Y0421999D02*
X0141056Y0425565D01*
X0144979Y0423735D01*
X0143316Y0420169D01*
X0139393Y0421999D01*
G37*
G36*
X0142221Y0428065D02*
X0143884Y0431631D01*
X0147807Y0429801D01*
X0146144Y0426235D01*
X0142221Y0428065D01*
G37*
X0150121Y0382120D03*
X0150121Y0375427D03*
X0150131Y0370194D03*
X0150131Y0363501D03*
X0150107Y0358344D03*
X0150107Y0351651D03*
X0213704Y0384516D03*
X0220397Y0384516D03*
X0243800Y0485754D03*
X0243800Y0492446D03*
X0152090Y0493374D03*
X0152090Y0500067D03*
X0359303Y0407384D03*
X0365996Y0407384D03*
G36*
X0428156Y0372495D02*
X0425373Y0369712D01*
X0422312Y0372773D01*
X0425095Y0375556D01*
X0428156Y0372495D01*
G37*
G36*
X0432888Y0377227D02*
X0430105Y0374444D01*
X0427044Y0377505D01*
X0429827Y0380288D01*
X0432888Y0377227D01*
G37*
G36*
X0439273Y0381388D02*
X0442056Y0378605D01*
X0438995Y0375544D01*
X0436212Y0378327D01*
X0439273Y0381388D01*
G37*
G36*
X0444005Y0376656D02*
X0446788Y0373873D01*
X0443727Y0370812D01*
X0440944Y0373595D01*
X0444005Y0376656D01*
G37*
G36*
X0440307Y0369901D02*
X0438644Y0366335D01*
X0434721Y0368165D01*
X0436384Y0371731D01*
X0440307Y0369901D01*
G37*
G36*
X0437479Y0363835D02*
X0435816Y0360269D01*
X0431893Y0362099D01*
X0433556Y0365665D01*
X0437479Y0363835D01*
G37*
X0429579Y0409780D03*
X0429579Y0416473D03*
X0429569Y0421706D03*
X0429569Y0428399D03*
X0429593Y0433556D03*
X0429593Y0440249D03*
X0544352Y0418736D03*
X0544352Y0412043D03*
X0427610Y0298526D03*
X0427610Y0291833D03*
X0446790Y0235667D03*
X0446790Y0228974D03*
G36*
X0436921Y0163665D02*
X0438584Y0167231D01*
X0442507Y0165401D01*
X0440844Y0161835D01*
X0436921Y0163665D01*
G37*
G36*
X0434093Y0157599D02*
X0435756Y0161165D01*
X0439679Y0159335D01*
X0438016Y0155769D01*
X0434093Y0157599D01*
G37*
G36*
X0430395Y0150844D02*
X0427612Y0153627D01*
X0430673Y0156688D01*
X0433456Y0153905D01*
X0430395Y0150844D01*
G37*
G36*
X0435127Y0146112D02*
X0432344Y0148895D01*
X0435405Y0151956D01*
X0438188Y0149173D01*
X0435127Y0146112D01*
G37*
G36*
X0441512Y0150273D02*
X0444295Y0153056D01*
X0447356Y0149995D01*
X0444573Y0147212D01*
X0441512Y0150273D01*
G37*
G36*
X0446244Y0155005D02*
X0449027Y0157788D01*
X0452088Y0154727D01*
X0449305Y0151944D01*
X0446244Y0155005D01*
G37*
X0444821Y0117720D03*
X0444821Y0111027D03*
X0444831Y0105794D03*
X0444831Y0099101D03*
X0444807Y0093944D03*
X0444807Y0087251D03*
X0508404Y0120116D03*
X0515097Y0120116D03*
X0538500Y0221354D03*
X0538500Y0228046D03*
X0335900Y0299454D03*
X0335900Y0306146D03*
X0249152Y0154936D03*
X0249152Y0148243D03*
X0330048Y0115457D03*
X0330048Y0108764D03*
G36*
X0148805Y0112856D02*
X0151588Y0110073D01*
X0148527Y0107012D01*
X0145744Y0109795D01*
X0148805Y0112856D01*
G37*
G36*
X0144073Y0117588D02*
X0146856Y0114805D01*
X0143795Y0111744D01*
X0141012Y0114527D01*
X0144073Y0117588D01*
G37*
G36*
X0137688Y0113427D02*
X0134905Y0110644D01*
X0131844Y0113705D01*
X0134627Y0116488D01*
X0137688Y0113427D01*
G37*
G36*
X0132956Y0108695D02*
X0130173Y0105912D01*
X0127112Y0108973D01*
X0129895Y0111756D01*
X0132956Y0108695D01*
G37*
G36*
X0145107Y0106101D02*
X0143444Y0102535D01*
X0139521Y0104365D01*
X0141184Y0107931D01*
X0145107Y0106101D01*
G37*
G36*
X0142279Y0100035D02*
X0140616Y0096469D01*
X0136693Y0098299D01*
X0138356Y0101865D01*
X0142279Y0100035D01*
G37*
X0134379Y0145980D03*
X0134379Y0152673D03*
X0134369Y0157906D03*
X0134369Y0164599D03*
X0134393Y0169756D03*
X0134393Y0176449D03*
X0070796Y0143584D03*
X0064103Y0143584D03*
X0040700Y0042346D03*
X0040700Y0035654D03*
X0132410Y0034726D03*
X0132410Y0028033D03*
D19*
X0060757Y0056576D03*
X0054457Y0056576D03*
X0054457Y0065238D03*
X0060757Y0065238D03*
X0349657Y0320376D03*
X0355957Y0320376D03*
X0355957Y0329038D03*
X0349657Y0329038D03*
X0230043Y0462862D03*
X0223743Y0462862D03*
X0223743Y0471524D03*
X0230043Y0471524D03*
X0518443Y0207124D03*
X0524743Y0207124D03*
X0524743Y0198462D03*
X0518443Y0198462D03*
D20*
G36*
X0548803Y0113856D02*
X0548871Y0112284D01*
X0543563Y0112052D01*
X0543495Y0113624D01*
X0548803Y0113856D01*
G37*
G36*
X0548915Y0111300D02*
X0548983Y0109728D01*
X0543675Y0109496D01*
X0543607Y0111068D01*
X0548915Y0111300D01*
G37*
G36*
X0549026Y0108743D02*
X0549094Y0107171D01*
X0543786Y0106939D01*
X0543718Y0108511D01*
X0549026Y0108743D01*
G37*
G36*
X0549138Y0106186D02*
X0549206Y0104614D01*
X0543898Y0104382D01*
X0543830Y0105954D01*
X0549138Y0106186D01*
G37*
G36*
X0549249Y0103630D02*
X0549317Y0102058D01*
X0544009Y0101826D01*
X0543941Y0103398D01*
X0549249Y0103630D01*
G37*
G36*
X0254549Y0368030D02*
X0254617Y0366458D01*
X0249309Y0366226D01*
X0249241Y0367798D01*
X0254549Y0368030D01*
G37*
G36*
X0254438Y0370586D02*
X0254506Y0369014D01*
X0249198Y0368782D01*
X0249130Y0370354D01*
X0254438Y0370586D01*
G37*
G36*
X0254326Y0373143D02*
X0254394Y0371571D01*
X0249086Y0371339D01*
X0249018Y0372911D01*
X0254326Y0373143D01*
G37*
G36*
X0254215Y0375700D02*
X0254283Y0374128D01*
X0248975Y0373896D01*
X0248907Y0375468D01*
X0254215Y0375700D01*
G37*
G36*
X0254103Y0378256D02*
X0254171Y0376684D01*
X0248863Y0376452D01*
X0248795Y0378024D01*
X0254103Y0378256D01*
G37*
G36*
X0325597Y0413644D02*
X0325529Y0415216D01*
X0330837Y0415448D01*
X0330905Y0413876D01*
X0325597Y0413644D01*
G37*
G36*
X0325485Y0416200D02*
X0325417Y0417772D01*
X0330725Y0418004D01*
X0330793Y0416432D01*
X0325485Y0416200D01*
G37*
G36*
X0325374Y0418757D02*
X0325306Y0420329D01*
X0330614Y0420561D01*
X0330682Y0418989D01*
X0325374Y0418757D01*
G37*
G36*
X0325262Y0421314D02*
X0325194Y0422886D01*
X0330502Y0423118D01*
X0330570Y0421546D01*
X0325262Y0421314D01*
G37*
G36*
X0325151Y0423870D02*
X0325083Y0425442D01*
X0330391Y0425674D01*
X0330459Y0424102D01*
X0325151Y0423870D01*
G37*
G36*
X0029951Y0160070D02*
X0029883Y0161642D01*
X0035191Y0161874D01*
X0035259Y0160302D01*
X0029951Y0160070D01*
G37*
G36*
X0030062Y0157514D02*
X0029994Y0159086D01*
X0035302Y0159318D01*
X0035370Y0157746D01*
X0030062Y0157514D01*
G37*
G36*
X0030174Y0154957D02*
X0030106Y0156529D01*
X0035414Y0156761D01*
X0035482Y0155189D01*
X0030174Y0154957D01*
G37*
G36*
X0030285Y0152400D02*
X0030217Y0153972D01*
X0035525Y0154204D01*
X0035593Y0152632D01*
X0030285Y0152400D01*
G37*
G36*
X0030397Y0149844D02*
X0030329Y0151416D01*
X0035637Y0151648D01*
X0035705Y0150076D01*
X0030397Y0149844D01*
G37*
D21*
X0047565Y0151195D03*
X0047939Y0158532D03*
X0041859Y0116100D03*
X0033900Y0116100D03*
X0102800Y0143300D03*
X0109100Y0056700D03*
X0213000Y0178200D03*
X0366200Y0085500D03*
X0476400Y0120400D03*
X0531635Y0112505D03*
X0531261Y0105168D03*
X0537341Y0147600D03*
X0545300Y0147600D03*
X0470100Y0207000D03*
X0404300Y0320500D03*
X0337059Y0379900D03*
X0329100Y0379900D03*
X0342765Y0414995D03*
X0343139Y0422332D03*
X0398000Y0407100D03*
X0508200Y0442000D03*
X0250600Y0412000D03*
X0242641Y0412000D03*
X0236935Y0376905D03*
X0236561Y0369568D03*
X0181700Y0384800D03*
X0175400Y0471400D03*
X0071500Y0349900D03*
D22*
X0105417Y0350831D03*
X0105417Y0348272D03*
X0105417Y0353390D03*
X0105417Y0355949D03*
X0105417Y0358508D03*
X0105417Y0361067D03*
X0105417Y0363626D03*
X0105417Y0366185D03*
X0128448Y0366185D03*
X0128448Y0363626D03*
X0128448Y0361067D03*
X0128448Y0358508D03*
X0128448Y0355949D03*
X0128448Y0353390D03*
X0128448Y0350831D03*
X0128448Y0348272D03*
X0156052Y0179828D03*
X0156052Y0177269D03*
X0156052Y0174710D03*
X0156052Y0172151D03*
X0156052Y0169592D03*
X0156052Y0167033D03*
X0156052Y0164474D03*
X0156052Y0161915D03*
X0179083Y0161915D03*
X0179083Y0164474D03*
X0179083Y0167033D03*
X0179083Y0169592D03*
X0179083Y0172151D03*
X0179083Y0174710D03*
X0179083Y0177269D03*
X0179083Y0179828D03*
X0400117Y0101785D03*
X0400117Y0099226D03*
X0400117Y0096667D03*
X0400117Y0094108D03*
X0400117Y0091549D03*
X0400117Y0088990D03*
X0400117Y0086431D03*
X0400117Y0083872D03*
X0423148Y0083872D03*
X0423148Y0086431D03*
X0423148Y0088990D03*
X0423148Y0091549D03*
X0423148Y0094108D03*
X0423148Y0096667D03*
X0423148Y0099226D03*
X0423148Y0101785D03*
X0451252Y0425715D03*
X0451252Y0428274D03*
X0451252Y0430833D03*
X0451252Y0433392D03*
X0451252Y0435951D03*
X0451252Y0438510D03*
X0451252Y0441069D03*
X0451252Y0443628D03*
X0474283Y0443628D03*
X0474283Y0441069D03*
X0474283Y0438510D03*
X0474283Y0435951D03*
X0474283Y0433392D03*
X0474283Y0430833D03*
X0474283Y0428274D03*
X0474283Y0425715D03*
D23*
X0398673Y0391636D03*
X0393555Y0391636D03*
X0396208Y0325846D03*
X0401326Y0325846D03*
X0473074Y0201654D03*
X0478192Y0201654D03*
X0475727Y0135864D03*
X0480845Y0135864D03*
X0186145Y0400264D03*
X0181027Y0400264D03*
X0183492Y0466054D03*
X0178374Y0466054D03*
X0103473Y0127836D03*
X0098355Y0127836D03*
X0101008Y0062046D03*
X0106126Y0062046D03*
M02*
