%
M48
M72
T01C0.01200
T02C0.01500
T03C0.01518
T04C0.02756
T05C0.03543
T06C0.04000
T07C0.04724
T08C0.05000
T09C0.11811
%
T01
X37500Y92050
X37550Y96700
X42200Y96700
X42200Y92050
X106800Y161300
X106800Y165250
X110750Y165250
X110750Y161300
X124550Y60900
X124550Y56950
X128500Y56950
X128500Y60900
X238700Y175050
X242650Y175050
X242650Y179050
X238700Y179050
X336550Y88650
X340500Y88650
X340500Y84650
X336550Y84650
X450700Y202800
X450700Y206750
X454650Y206750
X454650Y202800
X537000Y171650
X537000Y167000
X541650Y167000
X541700Y171650
X472400Y102400
X472400Y98450
X468450Y98450
X468450Y102400
X423700Y320750
X423700Y324700
X419750Y324700
X419750Y320750
X337400Y355850
X337400Y360500
X332750Y360500
X332700Y355850
X402000Y425100
X405950Y425100
X405950Y429050
X402000Y429050
X533900Y438850
X537850Y438850
X537850Y442850
X533900Y442850
X247000Y436050
X246950Y431400
X242300Y431400
X242300Y436050
X177700Y366800
X177700Y362850
X173750Y362850
X173750Y366800
X159950Y467200
X156000Y467200
X156000Y471150
X159950Y471150
X45800Y353050
X41850Y353050
X41850Y349050
X45800Y349050
T02
X52000Y339300
X56000Y328700
X51500Y327600
X61046Y328500
X69300Y322650
X102200Y332300
X113900Y345000
X115700Y341100
X110500Y348300
X123400Y348300
X154400Y353850
X160200Y350600
X164350Y350750
X165000Y335400
X170600Y335600
X176600Y335300
X183050Y331200
X189100Y354500
X191400Y370500
X199400Y389300
X208400Y384500
X220900Y369100
X225500Y361100
X234500Y355150
X215850Y360050
X187500Y394900
X178400Y405000
X185500Y406300
X191700Y407700
X196100Y405500
X202300Y407200
X208900Y418500
X205700Y421500
X200800Y421400
X196100Y419800
X187500Y418900
X204600Y433500
X211700Y434800
X214156Y431644
X226400Y433100
X229400Y438800
X236300Y442700
X236850Y448100
X241350Y455650
X249050Y450700
X259400Y429800
X236600Y425600
X226000Y420800
X235800Y406200
X244800Y395100
X260100Y376400
X218200Y405500
X184000Y437800
X192850Y452250
X202900Y444300
X206300Y450300
X210200Y452800
X210037Y446483
X199300Y463900
X193400Y466100
X196400Y470600
X205500Y469400
X209900Y470300
X211400Y477400
X215500Y475100
X191100Y493700
X186750Y496800
X183900Y492850
X181400Y500250
X186900Y502100
X191300Y499050
X173450Y501150
X167550Y501300
X160800Y503050
X152950Y504900
X149900Y481100
X145200Y481450
X123350Y491700
X132300Y458600
X130600Y454900
X136600Y453100
X145900Y456100
X165000Y457500
X174050Y454900
X178700Y453600
X180900Y470950
X162600Y429900
X161600Y426100
X160600Y422300
X147700Y423000
X133400Y434700
X122900Y454700
X135300Y410100
X145700Y410500
X143500Y393650
X143350Y388200
X128500Y391900
X128350Y384250
X119100Y388400
X97850Y377200
X93150Y374750
X91800Y379500
X87850Y374800
X90700Y369600
X96850Y370800
X63600Y368200
X64100Y364100
X57700Y383650
X60550Y387750
X65950Y386400
X64500Y392500
X54250Y388800
X40450Y367450
X29200Y364400
X28100Y369550
X36500Y340200
X118800Y407000
X166150Y399100
X128500Y318500
X121400Y320750
X156000Y209600
X163100Y207350
X182300Y195800
X168800Y187000
X170600Y183100
X174000Y179800
X161100Y179800
X187650Y157300
X191350Y153350
X192700Y148600
X196650Y153300
X193800Y158500
X186650Y150900
X165400Y139700
X156000Y136200
X156150Y143850
X141150Y139900
X141000Y134450
X138800Y117600
X149200Y118000
X165700Y121100
X151100Y93400
X136800Y105100
X123900Y105800
X122900Y102000
X121900Y98200
X100500Y90300
X105800Y74500
X110450Y73200
X119500Y70600
X103600Y57150
X91100Y62000
X88100Y57500
X85200Y64200
X79000Y58700
X74600Y57800
X73100Y50700
X69000Y53000
X74300Y75300
X78200Y77800
X74463Y81617
X81600Y83800
X79900Y94600
X72800Y93300
X70344Y96456
X58100Y95000
X55100Y89300
X48200Y85400
X47650Y80000
X43150Y72450
X35450Y77400
X25100Y98300
X47900Y102500
X58500Y107300
X66300Y122600
X75600Y109600
X78800Y106600
X83700Y106700
X88400Y108300
X97000Y109200
X92800Y120400
X88400Y122600
X82200Y120900
X99000Y121800
X106100Y123100
X97000Y133200
X85100Y138800
X76100Y143600
X63600Y159000
X59000Y167000
X68650Y168050
X50000Y172950
X24400Y151700
X39700Y133000
X48700Y121900
X93100Y157600
X95400Y173600
X107900Y192800
X113900Y192500
X119500Y192700
X120150Y177350
X124300Y177500
X130100Y174250
X101450Y196900
X118350Y129000
X91650Y75850
X134600Y47000
X139300Y46650
X161150Y36400
X131550Y23200
X123700Y25050
X116950Y26800
X111050Y26950
X103100Y27850
X97600Y26000
X97750Y31300
X100600Y35250
X93400Y34400
X93200Y29050
X138600Y72000
X147900Y75000
X153900Y73200
X152200Y69500
X161600Y73400
X220000Y135600
X223950Y140350
X226800Y144450
X230250Y139300
X218550Y141700
X220900Y159900
X220400Y164000
X244050Y160650
X255300Y163700
X256400Y158550
X248000Y187900
X232500Y188800
X228500Y199400
X233000Y200500
X223454Y199600
X215200Y205450
X322800Y105150
X323900Y100000
X335150Y103050
X352400Y119250
X355250Y123350
X360650Y122000
X359200Y128100
X348950Y124400
X358300Y103800
X358800Y99700
X382550Y110400
X387850Y110350
X386500Y115100
X392550Y112800
X391550Y106400
X385400Y105200
X405200Y83900
X408600Y80600
X410400Y76700
X418100Y83900
X396900Y67900
X416100Y56350
X423200Y54100
X449100Y89450
X454900Y86200
X459050Y86350
X459700Y71000
X465300Y71200
X471300Y70900
X477750Y66800
X483800Y90100
X486100Y106100
X494100Y124900
X503100Y120100
X515600Y104700
X520200Y96700
X510550Y95650
X529200Y90750
X554800Y112000
X539500Y130700
X530500Y141800
X520700Y156400
X531300Y161200
X521100Y168700
X524100Y174400
X531000Y178300
X531550Y183700
X536050Y191250
X543750Y186300
X554100Y165400
X512900Y141100
X503600Y154100
X500400Y157100
X495500Y157000
X490800Y155400
X482200Y154500
X486400Y143300
X490800Y141100
X497000Y142800
X480200Y141900
X473100Y140600
X482200Y130500
X460850Y134700
X438200Y129250
X438050Y123800
X423200Y127500
X413800Y124000
X423050Y119850
X413500Y142600
X430000Y145700
X440400Y146100
X442400Y158600
X455300Y157900
X456300Y161700
X457300Y165500
X478700Y173400
X473400Y189200
X468750Y190500
X459700Y193100
X440600Y191700
X431300Y188700
X425300Y190500
X427000Y194200
X417600Y190300
X428100Y170300
X439900Y217050
X444600Y216700
X462250Y236900
X468150Y236750
X476100Y235850
X481600Y237700
X481450Y232400
X478600Y228450
X485800Y229300
X486000Y234650
X506100Y213000
X510200Y210700
X504600Y205900
X500200Y205000
X494000Y199500
X488100Y201700
X491100Y206200
X475600Y206550
X487550Y187850
X497600Y179900
X501000Y185900
X504900Y188400
X504737Y182083
X506400Y170400
X508856Y167244
X499300Y169100
X455500Y238650
X447650Y240500
X418050Y227300
X426750Y287000
X418900Y288850
X412150Y290600
X406250Y290750
X398300Y291650
X392800Y289800
X392950Y295100
X395800Y299050
X388600Y298200
X388400Y292850
X368300Y314500
X364200Y316800
X369800Y321600
X374200Y322500
X380400Y328000
X386300Y325800
X383300Y321300
X398800Y320950
X405650Y337000
X401000Y338300
X414700Y334400
X433800Y335800
X443100Y338800
X449100Y337000
X447400Y333300
X456800Y337200
X446300Y357200
X432000Y368900
X434000Y381400
X444400Y381800
X460900Y384900
X451200Y400000
X451350Y407650
X460600Y403500
X481850Y414700
X486550Y417150
X487900Y412400
X491850Y417100
X489000Y422300
X482850Y421100
X469200Y443600
X465800Y446900
X464000Y450800
X456300Y443600
X477500Y459600
X458300Y471150
X451200Y473400
X414700Y456500
X409100Y456300
X403100Y456600
X396650Y460700
X415350Y441150
X419500Y441300
X425300Y438050
X390600Y437400
X388300Y421400
X380300Y402600
X371300Y407400
X358800Y422800
X354200Y430800
X345200Y436750
X363850Y431850
X392200Y397000
X394200Y385600
X388000Y384200
X383600Y386400
X377400Y384700
X370800Y373400
X374000Y370400
X378900Y370500
X383600Y372100
X392200Y373000
X401300Y386900
X413550Y392800
X436200Y398250
X436350Y403700
X419100Y369600
X418100Y365800
X417100Y362000
X395700Y354100
X386850Y339650
X376800Y347600
X373400Y341600
X369500Y339100
X369663Y345417
X368000Y357100
X365544Y360256
X375100Y358400
X353300Y358800
X350300Y353100
X343400Y349200
X342850Y343800
X338350Y336250
X330650Y341200
X320300Y362100
X343100Y366300
X353700Y371100
X361500Y386400
X343900Y385700
X334900Y396800
X319600Y415500
X429800Y310800
X434500Y310450
X456350Y300200
X515200Y399400
X519150Y404150
X522000Y408250
X525450Y403100
X513750Y405500
X516100Y423700
X515600Y427800
X539250Y424450
X550500Y427500
X551600Y422350
X543200Y451700
X527700Y452600
X523700Y463200
X528200Y464300
X518654Y463400
X510400Y469250
X346700Y74900
X350700Y64300
X346200Y63200
X355746Y64100
X364000Y58250
X331200Y75800
T03
X50200Y37400
X53300Y44100
X40500Y53000
X40500Y62200
X69800Y40500
X97400Y46600
X81500Y75400
X76000Y91100
X97600Y85800
X102000Y81100
X99800Y94700
X103800Y101300
X115700Y132500
X115900Y144700
X172800Y195600
X177100Y196200
X107400Y331900
X111700Y332500
X168600Y383400
X168800Y395600
X180700Y426800
X184700Y433400
X186900Y442300
X182500Y447000
X203000Y452700
X208500Y437000
X244000Y465900
X244000Y475100
X231200Y484000
X234300Y490700
X214700Y487600
X187100Y481500
X335700Y326000
X335700Y316800
X348500Y307900
X345400Y301200
X365000Y304300
X392600Y310400
X376700Y339200
X371200Y354900
X392800Y349600
X397200Y344900
X395000Y358500
X399000Y365100
X410900Y396300
X411100Y408500
X468000Y459400
X472300Y460000
X509400Y223200
X525900Y219600
X529000Y226300
X538700Y210700
X538700Y201500
X497700Y188300
X503200Y172600
X481600Y177900
X477200Y182600
X479400Y169000
X475400Y162400
X463500Y131200
X463300Y119000
X406400Y68100
X402100Y67500
X481800Y217100
T04
X384800Y97500
X384800Y90000
X384800Y82500
X377300Y82500
X377300Y90000
X377300Y97500
X374800Y49600
X374800Y42100
X428100Y42000
X428100Y49500
X428100Y57000
X435600Y57000
X435600Y49500
X435600Y42000
X320200Y40200
X320200Y47700
X320200Y55200
X320200Y62700
X201900Y166200
X201900Y173700
X201900Y181200
X194400Y181200
X194400Y173700
X194400Y166200
X151100Y206700
X151100Y214200
X143600Y214200
X143600Y206700
X143600Y221700
X151100Y221700
X204400Y221600
X204400Y214100
X259000Y216000
X259000Y208500
X259000Y201000
X259000Y223500
X140900Y306400
X140900Y313900
X140900Y321400
X133400Y321400
X133400Y313900
X133400Y306400
X90100Y346900
X82600Y346900
X82600Y354400
X82600Y361900
X90100Y361900
X90100Y354400
X80100Y314000
X80100Y306500
X25500Y304600
X25500Y312100
X25500Y319600
X25500Y327100
X438800Y470500
X438800Y478000
X438800Y485500
X446300Y485500
X446300Y478000
X446300Y470500
X489600Y445000
X489600Y437500
X497100Y437500
X497100Y445000
X497100Y430000
X489600Y430000
X499600Y477900
X499600Y485400
X554200Y487300
X554200Y479800
X554200Y472300
X554200Y464800
T05
X327564Y429492
X328423Y409826
X252135Y362408
X251277Y382074
X32364Y165692
X33223Y146026
X545977Y117674
X546835Y98008
T06
X551174Y182903
X550825Y192897
X505200Y236300
X495200Y236300
X379200Y291200
X369200Y291200
X323574Y334603
X323225Y344597
X256474Y447303
X256125Y457297
X210500Y500700
X200500Y500700
X143400Y339100
X133400Y339100
X141100Y189000
X151100Y189000
X28025Y80797
X28374Y70803
X74000Y27400
X84000Y27400
X428100Y74700
X438100Y74700
X436300Y452800
X446300Y452800
T07
X316773Y432962
X317975Y405429
X261725Y386471
X262927Y358938
X21573Y169162
X22775Y141629
X556425Y122071
X557627Y94538
T08
X550500Y153500
X461600Y124700
X409500Y234500
X464900Y293000
X412800Y402800
X323900Y374000
X255800Y417900
X166900Y389100
X114800Y498900
X25500Y336400
X117600Y139000
X28700Y110200
X169700Y29200
X320200Y72000
X259000Y191700
X554200Y455500
T09
X549657Y504038
X322768Y448329
X256932Y343571
X254457Y240238
X431278Y234289
X443122Y293211
X551632Y79171
X324743Y23462
X147922Y29411
X27568Y184529
X30043Y287862
X136578Y498689
M30
