G75*
%MOIN*%
%OFA0B0*%
%FSLAX25Y25*%
%IPPOS*%
%LPD*%
%AMOC8*
5,1,8,0,0,1.08239X$1,22.5*
%
%ADD10C,0.12611*%
%ADD11C,0.06343*%
%ADD12C,0.07887*%
%ADD13R,0.04737X0.05131*%
%ADD14R,0.07898X0.07099*%
%ADD15R,0.07099X0.07898*%
%ADD16R,0.09900X0.05900*%
%ADD17R,0.26400X0.24000*%
%ADD18C,0.05556*%
%ADD19R,0.06706X0.16548*%
%ADD20R,0.06706X0.04737*%
%ADD21R,0.05131X0.04737*%
%ADD22C,0.08200*%
%ADD23C,0.03900*%
%ADD24C,0.03600*%
%ADD25C,0.03918*%
%ADD26C,0.08300*%
D10*
X0147922Y0029411D03*
X0027568Y0184529D03*
X0030043Y0287862D03*
X0254457Y0240238D03*
X0256932Y0343571D03*
X0322768Y0448329D03*
X0443122Y0293211D03*
X0431278Y0234289D03*
X0551632Y0079171D03*
X0324743Y0023462D03*
X0136578Y0498689D03*
X0549657Y0504038D03*
D11*
X0327564Y0429492D03*
X0328423Y0409826D03*
X0252135Y0362408D03*
X0251277Y0382074D03*
X0032364Y0165692D03*
X0033223Y0146026D03*
X0545977Y0117674D03*
X0546835Y0098008D03*
D12*
X0557627Y0094538D03*
X0556425Y0122071D03*
X0262927Y0358938D03*
X0261725Y0386471D03*
X0317975Y0405429D03*
X0316773Y0432962D03*
X0021573Y0169162D03*
X0022775Y0141629D03*
D13*
X0074645Y0100029D03*
X0081338Y0100029D03*
X0086504Y0095700D03*
X0093196Y0095700D03*
X0092446Y0087700D03*
X0085754Y0087700D03*
X0134954Y0096700D03*
X0141646Y0096700D03*
X0143654Y0112600D03*
X0150346Y0112600D03*
X0380954Y0351500D03*
X0387646Y0351500D03*
X0388396Y0359500D03*
X0381704Y0359500D03*
X0376538Y0363829D03*
X0369845Y0363829D03*
X0430154Y0360500D03*
X0436846Y0360500D03*
X0438854Y0376400D03*
X0445546Y0376400D03*
X0486754Y0176000D03*
X0493446Y0176000D03*
X0492696Y0168000D03*
X0497862Y0163671D03*
X0504555Y0163671D03*
X0486004Y0168000D03*
X0444246Y0167000D03*
X0437554Y0167000D03*
X0435546Y0151100D03*
X0428854Y0151100D03*
X0140846Y0415500D03*
X0134154Y0415500D03*
X0142854Y0431400D03*
X0149546Y0431400D03*
X0191304Y0432400D03*
X0197996Y0432400D03*
X0203162Y0428071D03*
X0209855Y0428071D03*
X0198746Y0440400D03*
X0192054Y0440400D03*
D14*
X0170000Y0463402D03*
X0170000Y0474598D03*
X0146000Y0474698D03*
X0146000Y0463502D03*
X0055800Y0356698D03*
X0055800Y0345502D03*
X0031800Y0345502D03*
X0031800Y0356698D03*
X0228700Y0182598D03*
X0228700Y0171402D03*
X0252700Y0171402D03*
X0252700Y0182598D03*
X0326500Y0092298D03*
X0326500Y0081102D03*
X0350500Y0081102D03*
X0350500Y0092298D03*
X0440700Y0199102D03*
X0440700Y0210298D03*
X0464700Y0210198D03*
X0464700Y0199002D03*
X0433700Y0317202D03*
X0433700Y0328398D03*
X0409700Y0328498D03*
X0409700Y0317302D03*
X0523900Y0435202D03*
X0523900Y0446398D03*
X0547900Y0446398D03*
X0547900Y0435202D03*
X0138500Y0064598D03*
X0138500Y0053402D03*
X0114500Y0053502D03*
X0114500Y0064698D03*
D15*
X0114298Y0151300D03*
X0103102Y0151300D03*
X0103102Y0175200D03*
X0114298Y0175200D03*
X0170202Y0352900D03*
X0181398Y0352900D03*
X0181398Y0376800D03*
X0170202Y0376800D03*
X0398302Y0415100D03*
X0409498Y0415100D03*
X0409498Y0439000D03*
X0398302Y0439000D03*
X0464902Y0112400D03*
X0476098Y0112400D03*
X0476098Y0088500D03*
X0464902Y0088500D03*
D16*
X0419800Y0094350D03*
X0419800Y0112350D03*
X0159400Y0151350D03*
X0159400Y0169350D03*
X0125100Y0358750D03*
X0125100Y0376750D03*
X0454600Y0415150D03*
X0454600Y0433150D03*
D17*
X0429850Y0424150D03*
X0149850Y0367750D03*
X0134650Y0160350D03*
X0444550Y0103350D03*
D18*
X0435600Y0057000D03*
X0435600Y0049500D03*
X0435600Y0042000D03*
X0428100Y0042000D03*
X0428100Y0049500D03*
X0428100Y0057000D03*
X0384800Y0082500D03*
X0384800Y0090000D03*
X0384800Y0097500D03*
X0377300Y0097500D03*
X0377300Y0090000D03*
X0377300Y0082500D03*
X0374800Y0049600D03*
X0374800Y0042100D03*
X0320200Y0040200D03*
X0320200Y0047700D03*
X0320200Y0055200D03*
X0320200Y0062700D03*
X0201900Y0166200D03*
X0201900Y0173700D03*
X0201900Y0181200D03*
X0194400Y0181200D03*
X0194400Y0173700D03*
X0194400Y0166200D03*
X0151100Y0206700D03*
X0151100Y0214200D03*
X0143600Y0214200D03*
X0143600Y0206700D03*
X0143600Y0221700D03*
X0151100Y0221700D03*
X0204400Y0221600D03*
X0204400Y0214100D03*
X0259000Y0216000D03*
X0259000Y0208500D03*
X0259000Y0201000D03*
X0259000Y0223500D03*
X0140900Y0306400D03*
X0140900Y0313900D03*
X0140900Y0321400D03*
X0133400Y0321400D03*
X0133400Y0313900D03*
X0133400Y0306400D03*
X0090100Y0346900D03*
X0082600Y0346900D03*
X0082600Y0354400D03*
X0082600Y0361900D03*
X0090100Y0361900D03*
X0090100Y0354400D03*
X0080100Y0314000D03*
X0080100Y0306500D03*
X0025500Y0304600D03*
X0025500Y0312100D03*
X0025500Y0319600D03*
X0025500Y0327100D03*
X0438800Y0470500D03*
X0438800Y0478000D03*
X0438800Y0485500D03*
X0446300Y0485500D03*
X0446300Y0478000D03*
X0446300Y0470500D03*
X0489600Y0445000D03*
X0489600Y0437500D03*
X0497100Y0437500D03*
X0497100Y0445000D03*
X0497100Y0430000D03*
X0489600Y0430000D03*
X0499600Y0477900D03*
X0499600Y0485400D03*
X0554200Y0487300D03*
X0554200Y0479800D03*
X0554200Y0472300D03*
X0554200Y0464800D03*
D19*
X0036805Y0037300D03*
X0332005Y0301100D03*
X0247695Y0490800D03*
X0542395Y0226400D03*
D20*
X0516805Y0226400D03*
X0516805Y0217345D03*
X0516805Y0235455D03*
X0357595Y0292045D03*
X0357595Y0301100D03*
X0357595Y0310155D03*
X0222105Y0481745D03*
X0222105Y0490800D03*
X0222105Y0499855D03*
X0062395Y0046355D03*
X0062395Y0037300D03*
X0062395Y0028245D03*
D21*
X0130500Y0103454D03*
X0130500Y0110146D03*
X0425700Y0367254D03*
X0425700Y0373946D03*
X0448700Y0160246D03*
X0448700Y0153554D03*
X0154000Y0417954D03*
X0154000Y0424646D03*
D22*
X0200500Y0500700D03*
X0210500Y0500700D03*
X0256125Y0457297D03*
X0256474Y0447303D03*
X0323225Y0344597D03*
X0323574Y0334603D03*
X0369200Y0291200D03*
X0379200Y0291200D03*
X0495200Y0236300D03*
X0505200Y0236300D03*
X0550825Y0192897D03*
X0551174Y0182903D03*
X0438100Y0074700D03*
X0428100Y0074700D03*
X0151100Y0189000D03*
X0141100Y0189000D03*
X0028025Y0080797D03*
X0028374Y0070803D03*
X0074000Y0027400D03*
X0084000Y0027400D03*
X0133400Y0339100D03*
X0143400Y0339100D03*
X0436300Y0452800D03*
X0446300Y0452800D03*
D23*
X0456300Y0443600D03*
X0465800Y0446900D03*
X0464000Y0450800D03*
X0469200Y0443600D03*
X0477500Y0459600D03*
X0458300Y0471150D03*
X0451200Y0473400D03*
X0414700Y0456500D03*
X0409100Y0456300D03*
X0403100Y0456600D03*
X0396650Y0460700D03*
X0415350Y0441150D03*
X0419500Y0441300D03*
X0425300Y0438050D03*
X0390600Y0437400D03*
X0388300Y0421400D03*
X0380300Y0402600D03*
X0371300Y0407400D03*
X0358800Y0422800D03*
X0354200Y0430800D03*
X0345200Y0436750D03*
X0363850Y0431850D03*
X0392200Y0397000D03*
X0394200Y0385600D03*
X0388000Y0384200D03*
X0383600Y0386400D03*
X0377400Y0384700D03*
X0370800Y0373400D03*
X0374000Y0370400D03*
X0378900Y0370500D03*
X0383600Y0372100D03*
X0392200Y0373000D03*
X0401300Y0386900D03*
X0413550Y0392800D03*
X0434000Y0381400D03*
X0444400Y0381800D03*
X0432000Y0368900D03*
X0419100Y0369600D03*
X0418100Y0365800D03*
X0417100Y0362000D03*
X0395700Y0354100D03*
X0401000Y0338300D03*
X0405650Y0337000D03*
X0414700Y0334400D03*
X0433800Y0335800D03*
X0443100Y0338800D03*
X0449100Y0337000D03*
X0447400Y0333300D03*
X0456800Y0337200D03*
X0446300Y0357200D03*
X0460900Y0384900D03*
X0451200Y0400000D03*
X0451350Y0407650D03*
X0460600Y0403500D03*
X0481850Y0414700D03*
X0486550Y0417150D03*
X0487900Y0412400D03*
X0491850Y0417100D03*
X0489000Y0422300D03*
X0482850Y0421100D03*
X0513750Y0405500D03*
X0519150Y0404150D03*
X0522000Y0408250D03*
X0525450Y0403100D03*
X0515200Y0399400D03*
X0516100Y0423700D03*
X0515600Y0427800D03*
X0539250Y0424450D03*
X0550500Y0427500D03*
X0551600Y0422350D03*
X0543200Y0451700D03*
X0527700Y0452600D03*
X0523700Y0463200D03*
X0528200Y0464300D03*
X0518654Y0463400D03*
X0510400Y0469250D03*
X0436350Y0403700D03*
X0436200Y0398250D03*
X0375100Y0358400D03*
X0368000Y0357100D03*
X0365544Y0360256D03*
X0353300Y0358800D03*
X0350300Y0353100D03*
X0343400Y0349200D03*
X0342850Y0343800D03*
X0338350Y0336250D03*
X0330650Y0341200D03*
X0320300Y0362100D03*
X0343100Y0366300D03*
X0353700Y0371100D03*
X0361500Y0386400D03*
X0343900Y0385700D03*
X0334900Y0396800D03*
X0319600Y0415500D03*
X0259400Y0429800D03*
X0236600Y0425600D03*
X0226000Y0420800D03*
X0214156Y0431644D03*
X0211700Y0434800D03*
X0204600Y0433500D03*
X0202900Y0444300D03*
X0206300Y0450300D03*
X0210200Y0452800D03*
X0210037Y0446483D03*
X0192850Y0452250D03*
X0178700Y0453600D03*
X0174050Y0454900D03*
X0165000Y0457500D03*
X0145900Y0456100D03*
X0136600Y0453100D03*
X0130600Y0454900D03*
X0132300Y0458600D03*
X0122900Y0454700D03*
X0133400Y0434700D03*
X0147700Y0423000D03*
X0145700Y0410500D03*
X0135300Y0410100D03*
X0118800Y0407000D03*
X0128500Y0391900D03*
X0128350Y0384250D03*
X0119100Y0388400D03*
X0097850Y0377200D03*
X0093150Y0374750D03*
X0091800Y0379500D03*
X0087850Y0374800D03*
X0090700Y0369600D03*
X0096850Y0370800D03*
X0110500Y0348300D03*
X0113900Y0345000D03*
X0115700Y0341100D03*
X0123400Y0348300D03*
X0102200Y0332300D03*
X0121400Y0320750D03*
X0128500Y0318500D03*
X0165000Y0335400D03*
X0170600Y0335600D03*
X0176600Y0335300D03*
X0183050Y0331200D03*
X0164350Y0350750D03*
X0160200Y0350600D03*
X0154400Y0353850D03*
X0143350Y0388200D03*
X0143500Y0393650D03*
X0166150Y0399100D03*
X0178400Y0405000D03*
X0185500Y0406300D03*
X0191700Y0407700D03*
X0196100Y0405500D03*
X0202300Y0407200D03*
X0208900Y0418500D03*
X0205700Y0421500D03*
X0200800Y0421400D03*
X0196100Y0419800D03*
X0187500Y0418900D03*
X0184000Y0437800D03*
X0162600Y0429900D03*
X0161600Y0426100D03*
X0160600Y0422300D03*
X0187500Y0394900D03*
X0199400Y0389300D03*
X0208400Y0384500D03*
X0220900Y0369100D03*
X0225500Y0361100D03*
X0234500Y0355150D03*
X0215850Y0360050D03*
X0191400Y0370500D03*
X0189100Y0354500D03*
X0218200Y0405500D03*
X0235800Y0406200D03*
X0244800Y0395100D03*
X0260100Y0376400D03*
X0226400Y0433100D03*
X0229400Y0438800D03*
X0236300Y0442700D03*
X0236850Y0448100D03*
X0241350Y0455650D03*
X0249050Y0450700D03*
X0215500Y0475100D03*
X0211400Y0477400D03*
X0209900Y0470300D03*
X0205500Y0469400D03*
X0199300Y0463900D03*
X0193400Y0466100D03*
X0196400Y0470600D03*
X0180900Y0470950D03*
X0183900Y0492850D03*
X0186750Y0496800D03*
X0191300Y0499050D03*
X0186900Y0502100D03*
X0181400Y0500250D03*
X0173450Y0501150D03*
X0167550Y0501300D03*
X0160800Y0503050D03*
X0152950Y0504900D03*
X0149900Y0481100D03*
X0145200Y0481450D03*
X0123350Y0491700D03*
X0191100Y0493700D03*
X0064500Y0392500D03*
X0060550Y0387750D03*
X0057700Y0383650D03*
X0054250Y0388800D03*
X0065950Y0386400D03*
X0063600Y0368200D03*
X0064100Y0364100D03*
X0040450Y0367450D03*
X0029200Y0364400D03*
X0028100Y0369550D03*
X0036500Y0340200D03*
X0052000Y0339300D03*
X0056000Y0328700D03*
X0051500Y0327600D03*
X0061046Y0328500D03*
X0069300Y0322650D03*
X0156000Y0209600D03*
X0163100Y0207350D03*
X0182300Y0195800D03*
X0168800Y0187000D03*
X0170600Y0183100D03*
X0174000Y0179800D03*
X0161100Y0179800D03*
X0187650Y0157300D03*
X0191350Y0153350D03*
X0192700Y0148600D03*
X0196650Y0153300D03*
X0193800Y0158500D03*
X0186650Y0150900D03*
X0165400Y0139700D03*
X0156000Y0136200D03*
X0156150Y0143850D03*
X0141150Y0139900D03*
X0141000Y0134450D03*
X0138800Y0117600D03*
X0149200Y0118000D03*
X0165700Y0121100D03*
X0151100Y0093400D03*
X0136800Y0105100D03*
X0123900Y0105800D03*
X0122900Y0102000D03*
X0121900Y0098200D03*
X0100500Y0090300D03*
X0105800Y0074500D03*
X0110450Y0073200D03*
X0119500Y0070600D03*
X0103600Y0057150D03*
X0091100Y0062000D03*
X0088100Y0057500D03*
X0085200Y0064200D03*
X0079000Y0058700D03*
X0074600Y0057800D03*
X0073100Y0050700D03*
X0069000Y0053000D03*
X0074300Y0075300D03*
X0078200Y0077800D03*
X0074463Y0081617D03*
X0081600Y0083800D03*
X0079900Y0094600D03*
X0072800Y0093300D03*
X0070344Y0096456D03*
X0058100Y0095000D03*
X0055100Y0089300D03*
X0048200Y0085400D03*
X0047650Y0080000D03*
X0043150Y0072450D03*
X0035450Y0077400D03*
X0025100Y0098300D03*
X0047900Y0102500D03*
X0058500Y0107300D03*
X0066300Y0122600D03*
X0075600Y0109600D03*
X0078800Y0106600D03*
X0083700Y0106700D03*
X0088400Y0108300D03*
X0097000Y0109200D03*
X0092800Y0120400D03*
X0088400Y0122600D03*
X0082200Y0120900D03*
X0099000Y0121800D03*
X0106100Y0123100D03*
X0097000Y0133200D03*
X0085100Y0138800D03*
X0076100Y0143600D03*
X0063600Y0159000D03*
X0059000Y0167000D03*
X0068650Y0168050D03*
X0050000Y0172950D03*
X0024400Y0151700D03*
X0039700Y0133000D03*
X0048700Y0121900D03*
X0093100Y0157600D03*
X0095400Y0173600D03*
X0107900Y0192800D03*
X0113900Y0192500D03*
X0119500Y0192700D03*
X0120150Y0177350D03*
X0124300Y0177500D03*
X0130100Y0174250D03*
X0101450Y0196900D03*
X0118350Y0129000D03*
X0091650Y0075850D03*
X0134600Y0047000D03*
X0139300Y0046650D03*
X0161150Y0036400D03*
X0131550Y0023200D03*
X0123700Y0025050D03*
X0116950Y0026800D03*
X0111050Y0026950D03*
X0103100Y0027850D03*
X0097600Y0026000D03*
X0097750Y0031300D03*
X0100600Y0035250D03*
X0093400Y0034400D03*
X0093200Y0029050D03*
X0138600Y0072000D03*
X0147900Y0075000D03*
X0153900Y0073200D03*
X0152200Y0069500D03*
X0161600Y0073400D03*
X0220000Y0135600D03*
X0223950Y0140350D03*
X0226800Y0144450D03*
X0230250Y0139300D03*
X0218550Y0141700D03*
X0220900Y0159900D03*
X0220400Y0164000D03*
X0244050Y0160650D03*
X0255300Y0163700D03*
X0256400Y0158550D03*
X0248000Y0187900D03*
X0232500Y0188800D03*
X0228500Y0199400D03*
X0233000Y0200500D03*
X0223454Y0199600D03*
X0215200Y0205450D03*
X0322800Y0105150D03*
X0323900Y0100000D03*
X0335150Y0103050D03*
X0352400Y0119250D03*
X0355250Y0123350D03*
X0360650Y0122000D03*
X0359200Y0128100D03*
X0348950Y0124400D03*
X0358300Y0103800D03*
X0358800Y0099700D03*
X0382550Y0110400D03*
X0387850Y0110350D03*
X0386500Y0115100D03*
X0392550Y0112800D03*
X0391550Y0106400D03*
X0385400Y0105200D03*
X0405200Y0083900D03*
X0408600Y0080600D03*
X0410400Y0076700D03*
X0418100Y0083900D03*
X0396900Y0067900D03*
X0416100Y0056350D03*
X0423200Y0054100D03*
X0449100Y0089450D03*
X0454900Y0086200D03*
X0459050Y0086350D03*
X0459700Y0071000D03*
X0465300Y0071200D03*
X0471300Y0070900D03*
X0477750Y0066800D03*
X0483800Y0090100D03*
X0486100Y0106100D03*
X0494100Y0124900D03*
X0503100Y0120100D03*
X0515600Y0104700D03*
X0520200Y0096700D03*
X0510550Y0095650D03*
X0529200Y0090750D03*
X0554800Y0112000D03*
X0539500Y0130700D03*
X0530500Y0141800D03*
X0520700Y0156400D03*
X0531300Y0161200D03*
X0521100Y0168700D03*
X0524100Y0174400D03*
X0531000Y0178300D03*
X0531550Y0183700D03*
X0536050Y0191250D03*
X0543750Y0186300D03*
X0554100Y0165400D03*
X0512900Y0141100D03*
X0503600Y0154100D03*
X0500400Y0157100D03*
X0495500Y0157000D03*
X0490800Y0155400D03*
X0482200Y0154500D03*
X0486400Y0143300D03*
X0490800Y0141100D03*
X0497000Y0142800D03*
X0480200Y0141900D03*
X0473100Y0140600D03*
X0482200Y0130500D03*
X0460850Y0134700D03*
X0438200Y0129250D03*
X0438050Y0123800D03*
X0423200Y0127500D03*
X0413800Y0124000D03*
X0423050Y0119850D03*
X0413500Y0142600D03*
X0430000Y0145700D03*
X0440400Y0146100D03*
X0442400Y0158600D03*
X0455300Y0157900D03*
X0456300Y0161700D03*
X0457300Y0165500D03*
X0478700Y0173400D03*
X0473400Y0189200D03*
X0468750Y0190500D03*
X0459700Y0193100D03*
X0440600Y0191700D03*
X0431300Y0188700D03*
X0425300Y0190500D03*
X0427000Y0194200D03*
X0417600Y0190300D03*
X0428100Y0170300D03*
X0439900Y0217050D03*
X0444600Y0216700D03*
X0462250Y0236900D03*
X0468150Y0236750D03*
X0476100Y0235850D03*
X0481600Y0237700D03*
X0481450Y0232400D03*
X0478600Y0228450D03*
X0485800Y0229300D03*
X0486000Y0234650D03*
X0506100Y0213000D03*
X0510200Y0210700D03*
X0504600Y0205900D03*
X0500200Y0205000D03*
X0494000Y0199500D03*
X0488100Y0201700D03*
X0491100Y0206200D03*
X0475600Y0206550D03*
X0487550Y0187850D03*
X0497600Y0179900D03*
X0501000Y0185900D03*
X0504900Y0188400D03*
X0504737Y0182083D03*
X0506400Y0170400D03*
X0508856Y0167244D03*
X0499300Y0169100D03*
X0455500Y0238650D03*
X0447650Y0240500D03*
X0418050Y0227300D03*
X0426750Y0287000D03*
X0418900Y0288850D03*
X0412150Y0290600D03*
X0406250Y0290750D03*
X0398300Y0291650D03*
X0392800Y0289800D03*
X0392950Y0295100D03*
X0395800Y0299050D03*
X0388600Y0298200D03*
X0388400Y0292850D03*
X0368300Y0314500D03*
X0364200Y0316800D03*
X0369800Y0321600D03*
X0374200Y0322500D03*
X0380400Y0328000D03*
X0386300Y0325800D03*
X0383300Y0321300D03*
X0398800Y0320950D03*
X0386850Y0339650D03*
X0376800Y0347600D03*
X0373400Y0341600D03*
X0369500Y0339100D03*
X0369663Y0345417D03*
X0429800Y0310800D03*
X0434500Y0310450D03*
X0456350Y0300200D03*
X0346700Y0074900D03*
X0350700Y0064300D03*
X0346200Y0063200D03*
X0355746Y0064100D03*
X0364000Y0058250D03*
X0331200Y0075800D03*
D24*
X0336550Y0084650D03*
X0340500Y0084650D03*
X0340500Y0088650D03*
X0336550Y0088650D03*
X0242650Y0175050D03*
X0238700Y0175050D03*
X0238700Y0179050D03*
X0242650Y0179050D03*
X0128500Y0060900D03*
X0128500Y0056950D03*
X0124550Y0056950D03*
X0124550Y0060900D03*
X0042200Y0092050D03*
X0042200Y0096700D03*
X0037550Y0096700D03*
X0037500Y0092050D03*
X0106800Y0161300D03*
X0106800Y0165250D03*
X0110750Y0165250D03*
X0110750Y0161300D03*
X0045800Y0349050D03*
X0041850Y0349050D03*
X0041850Y0353050D03*
X0045800Y0353050D03*
X0173750Y0362850D03*
X0173750Y0366800D03*
X0177700Y0366800D03*
X0177700Y0362850D03*
X0242300Y0431400D03*
X0242300Y0436050D03*
X0247000Y0436050D03*
X0246950Y0431400D03*
X0332750Y0360500D03*
X0337400Y0360500D03*
X0337400Y0355850D03*
X0332700Y0355850D03*
X0402000Y0425100D03*
X0405950Y0425100D03*
X0405950Y0429050D03*
X0402000Y0429050D03*
X0419750Y0324700D03*
X0419750Y0320750D03*
X0423700Y0320750D03*
X0423700Y0324700D03*
X0450700Y0206750D03*
X0450700Y0202800D03*
X0454650Y0202800D03*
X0454650Y0206750D03*
X0537000Y0171650D03*
X0537000Y0167000D03*
X0541650Y0167000D03*
X0541700Y0171650D03*
X0472400Y0102400D03*
X0472400Y0098450D03*
X0468450Y0098450D03*
X0468450Y0102400D03*
X0533900Y0438850D03*
X0537850Y0438850D03*
X0537850Y0442850D03*
X0533900Y0442850D03*
X0159950Y0467200D03*
X0156000Y0467200D03*
X0156000Y0471150D03*
X0159950Y0471150D03*
D25*
X0187100Y0481500D03*
X0214700Y0487600D03*
X0231200Y0484000D03*
X0234300Y0490700D03*
X0244000Y0475100D03*
X0244000Y0465900D03*
X0208500Y0437000D03*
X0203000Y0452700D03*
X0186900Y0442300D03*
X0182500Y0447000D03*
X0184700Y0433400D03*
X0180700Y0426800D03*
X0168800Y0395600D03*
X0168600Y0383400D03*
X0111700Y0332500D03*
X0107400Y0331900D03*
X0172800Y0195600D03*
X0177100Y0196200D03*
X0115900Y0144700D03*
X0115700Y0132500D03*
X0103800Y0101300D03*
X0099800Y0094700D03*
X0097600Y0085800D03*
X0102000Y0081100D03*
X0081500Y0075400D03*
X0076000Y0091100D03*
X0040500Y0062200D03*
X0040500Y0053000D03*
X0053300Y0044100D03*
X0050200Y0037400D03*
X0069800Y0040500D03*
X0097400Y0046600D03*
X0345400Y0301200D03*
X0348500Y0307900D03*
X0335700Y0316800D03*
X0335700Y0326000D03*
X0365000Y0304300D03*
X0392600Y0310400D03*
X0376700Y0339200D03*
X0371200Y0354900D03*
X0392800Y0349600D03*
X0397200Y0344900D03*
X0395000Y0358500D03*
X0399000Y0365100D03*
X0410900Y0396300D03*
X0411100Y0408500D03*
X0468000Y0459400D03*
X0472300Y0460000D03*
X0509400Y0223200D03*
X0525900Y0219600D03*
X0529000Y0226300D03*
X0538700Y0210700D03*
X0538700Y0201500D03*
X0497700Y0188300D03*
X0503200Y0172600D03*
X0481600Y0177900D03*
X0477200Y0182600D03*
X0479400Y0169000D03*
X0475400Y0162400D03*
X0463500Y0131200D03*
X0463300Y0119000D03*
X0406400Y0068100D03*
X0402100Y0067500D03*
X0481800Y0217100D03*
D26*
X0550500Y0153500D03*
X0461600Y0124700D03*
X0409500Y0234500D03*
X0464900Y0293000D03*
X0412800Y0402800D03*
X0323900Y0374000D03*
X0255800Y0417900D03*
X0166900Y0389100D03*
X0114800Y0498900D03*
X0025500Y0336400D03*
X0117600Y0139000D03*
X0028700Y0110200D03*
X0169700Y0029200D03*
X0320200Y0072000D03*
X0259000Y0191700D03*
X0554200Y0455500D03*
M02*
