G75*
%MOIN*%
%OFA0B0*%
%FSLAX25Y25*%
%IPPOS*%
%LPD*%
%AMOC8*
5,1,8,0,0,1.08239X$1,22.5*
%
%ADD10C,0.05543*%
%ADD11C,0.07087*%
%ADD12R,0.03937X0.04331*%
%ADD13R,0.07098X0.06299*%
%ADD14R,0.06299X0.07098*%
%ADD15R,0.09100X0.05100*%
%ADD16R,0.25600X0.23200*%
%ADD17C,0.04756*%
%ADD18R,0.05906X0.15748*%
%ADD19R,0.05906X0.03937*%
%ADD20R,0.04331X0.03937*%
%ADD21C,0.07400*%
%ADD22C,0.03100*%
%ADD23C,0.06000*%
%ADD24C,0.02800*%
%ADD25C,0.05000*%
%ADD26C,0.01000*%
%ADD27C,0.15000*%
%ADD28C,0.03118*%
%ADD29C,0.04000*%
%ADD30C,0.07500*%
%ADD31C,0.03000*%
%ADD32C,0.11000*%
%ADD33C,0.07500*%
%ADD34C,0.01500*%
%ADD35C,0.02500*%
%ADD36C,0.08000*%
D10*
X0019923Y0131292D03*
X0019064Y0150959D03*
D11*
X0008273Y0154428D03*
X0009475Y0126896D03*
D12*
X0061345Y0085296D03*
X0068038Y0085296D03*
X0073204Y0080967D03*
X0079896Y0080967D03*
X0079146Y0072967D03*
X0072454Y0072967D03*
X0121654Y0081967D03*
X0128346Y0081967D03*
X0130354Y0097867D03*
X0137046Y0097867D03*
D13*
X0125200Y0049865D03*
X0125200Y0038668D03*
X0101200Y0038768D03*
X0101200Y0049965D03*
X0215400Y0156668D03*
X0215400Y0167865D03*
X0239400Y0167865D03*
X0239400Y0156668D03*
D14*
X0100998Y0160467D03*
X0089802Y0160467D03*
X0089802Y0136567D03*
X0100998Y0136567D03*
D15*
X0146100Y0136617D03*
X0146100Y0154617D03*
D16*
X0121350Y0145617D03*
D17*
X0130300Y0191967D03*
X0130300Y0199467D03*
X0130300Y0206967D03*
X0137800Y0206967D03*
X0137800Y0199467D03*
X0137800Y0191967D03*
X0181100Y0166467D03*
X0188600Y0166467D03*
X0188600Y0158967D03*
X0181100Y0158967D03*
X0181100Y0151467D03*
X0188600Y0151467D03*
X0191100Y0199367D03*
X0191100Y0206867D03*
X0245700Y0208767D03*
X0245700Y0201267D03*
X0245700Y0193767D03*
X0245700Y0186267D03*
D18*
X0023505Y0022567D03*
D19*
X0049095Y0022567D03*
X0049095Y0031622D03*
X0049095Y0013512D03*
D20*
X0117200Y0088720D03*
X0117200Y0095413D03*
D21*
X0127800Y0174267D03*
X0137800Y0174267D03*
X0014725Y0066064D03*
X0015074Y0056070D03*
X0060700Y0012667D03*
X0070700Y0012667D03*
D22*
X0079900Y0014317D03*
X0084450Y0016567D03*
X0087300Y0020517D03*
X0080100Y0019667D03*
X0084300Y0011267D03*
X0089800Y0013117D03*
X0097750Y0012217D03*
X0103650Y0012067D03*
X0110400Y0010317D03*
X0118250Y0008467D03*
X0121300Y0032267D03*
X0126000Y0031917D03*
X0147850Y0021667D03*
X0138900Y0054767D03*
X0140600Y0058467D03*
X0134600Y0060267D03*
X0125300Y0057267D03*
X0106200Y0055867D03*
X0097150Y0058467D03*
X0092500Y0059767D03*
X0078350Y0061117D03*
X0068300Y0069067D03*
X0064900Y0063067D03*
X0061000Y0060567D03*
X0061163Y0066883D03*
X0059500Y0078567D03*
X0057044Y0081723D03*
X0066600Y0079867D03*
X0065500Y0091867D03*
X0062300Y0094867D03*
X0070400Y0091967D03*
X0075100Y0093567D03*
X0083700Y0094467D03*
X0079500Y0105667D03*
X0075100Y0107867D03*
X0068900Y0106167D03*
X0053000Y0107867D03*
X0045200Y0092567D03*
X0034600Y0087767D03*
X0044800Y0080267D03*
X0041800Y0074567D03*
X0034900Y0070667D03*
X0034350Y0065267D03*
X0029850Y0057717D03*
X0022150Y0062667D03*
X0011800Y0083567D03*
X0035400Y0107167D03*
X0026400Y0118267D03*
X0011100Y0136967D03*
X0036700Y0158217D03*
X0045700Y0152267D03*
X0050300Y0144267D03*
X0055350Y0153317D03*
X0079800Y0142867D03*
X0082100Y0158867D03*
X0094600Y0178067D03*
X0100600Y0177767D03*
X0106200Y0177967D03*
X0106850Y0162617D03*
X0111000Y0162767D03*
X0116800Y0159517D03*
X0088150Y0182167D03*
X0142700Y0194867D03*
X0149800Y0192617D03*
X0155500Y0172267D03*
X0157300Y0168367D03*
X0160700Y0165067D03*
X0147800Y0165067D03*
X0169000Y0181067D03*
X0201900Y0190717D03*
X0210154Y0184867D03*
X0215200Y0184667D03*
X0219700Y0185767D03*
X0219200Y0174067D03*
X0234700Y0173167D03*
X0242000Y0148967D03*
X0243100Y0143817D03*
X0230750Y0145917D03*
X0213500Y0129717D03*
X0210650Y0125617D03*
X0205250Y0126967D03*
X0206700Y0120867D03*
X0216950Y0124567D03*
X0207600Y0145167D03*
X0207100Y0149267D03*
X0183350Y0138567D03*
X0178050Y0138617D03*
X0173350Y0136167D03*
X0179400Y0133867D03*
X0174350Y0142567D03*
X0180500Y0143767D03*
X0152100Y0124967D03*
X0142700Y0121467D03*
X0142850Y0129117D03*
X0127850Y0125167D03*
X0127700Y0119717D03*
X0125500Y0102867D03*
X0135900Y0103267D03*
X0123500Y0090367D03*
X0110600Y0091067D03*
X0109600Y0087267D03*
X0108600Y0083467D03*
X0087200Y0075567D03*
X0071900Y0049467D03*
X0065700Y0043967D03*
X0061300Y0043067D03*
X0055700Y0038267D03*
X0059800Y0035967D03*
X0074800Y0042767D03*
X0077800Y0047267D03*
X0090300Y0042417D03*
X0137800Y0078667D03*
X0148300Y0058667D03*
X0152400Y0106367D03*
X0105050Y0114267D03*
X0092800Y0108367D03*
X0085700Y0107067D03*
X0083700Y0118467D03*
X0071800Y0124067D03*
X0062800Y0128867D03*
D23*
X0100998Y0136567D02*
X0100998Y0160467D01*
X0100998Y0118318D01*
X0105050Y0114267D01*
X0101200Y0038768D02*
X0101300Y0038668D01*
X0114700Y0038668D01*
X0125200Y0038668D01*
X0125298Y0038767D01*
X0135650Y0030217D02*
X0137500Y0030217D01*
X0135650Y0030217D02*
X0133500Y0028067D01*
X0131000Y0028067D01*
X0130150Y0027217D01*
X0128950Y0027217D01*
X0128200Y0026467D01*
X0127400Y0026467D01*
X0126850Y0025917D01*
X0125050Y0025917D01*
X0123400Y0024267D01*
X0215400Y0156668D02*
X0230250Y0156668D01*
X0225300Y0161618D01*
X0225400Y0164317D01*
X0230250Y0156668D02*
X0239400Y0156668D01*
D24*
X0229350Y0160317D03*
X0225400Y0160317D03*
X0225400Y0164317D03*
X0229350Y0164317D03*
X0115200Y0046167D03*
X0111250Y0046167D03*
X0111250Y0042217D03*
X0115200Y0042217D03*
X0028900Y0077317D03*
X0028900Y0081967D03*
X0024250Y0081967D03*
X0024200Y0077317D03*
X0093500Y0146567D03*
X0097450Y0146567D03*
X0097450Y0150517D03*
X0093500Y0150517D03*
D25*
X0121350Y0145617D02*
X0127800Y0152067D01*
X0127800Y0174267D01*
X0137800Y0174267D02*
X0137800Y0164367D01*
X0145500Y0156667D01*
X0160600Y0156667D01*
X0174800Y0142467D01*
X0111250Y0046167D02*
X0112800Y0040568D01*
X0114700Y0038668D01*
D26*
X0101200Y0038768D02*
X0096952Y0043017D01*
X0090300Y0042417D01*
X0071900Y0039467D02*
X0071900Y0049467D01*
X0071900Y0039467D02*
X0071300Y0038867D01*
X0062300Y0038867D01*
X0059800Y0035967D01*
X0054848Y0041864D02*
X0053632Y0041361D01*
X0053538Y0041267D01*
X0050700Y0041267D01*
X0050700Y0038317D01*
X0038050Y0038317D01*
X0038050Y0054367D01*
X0039150Y0054367D01*
X0046550Y0061767D01*
X0055400Y0061767D01*
X0057367Y0059800D01*
X0057906Y0058499D01*
X0058932Y0057472D01*
X0060233Y0056934D01*
X0060600Y0056567D01*
X0060600Y0047617D01*
X0054848Y0041864D01*
X0054713Y0041809D02*
X0038050Y0041809D01*
X0038050Y0042807D02*
X0055790Y0042807D01*
X0056789Y0043806D02*
X0038050Y0043806D01*
X0038050Y0044804D02*
X0057787Y0044804D01*
X0058786Y0045803D02*
X0038050Y0045803D01*
X0038050Y0046801D02*
X0059784Y0046801D01*
X0060600Y0047800D02*
X0038050Y0047800D01*
X0038050Y0048798D02*
X0060600Y0048798D01*
X0060600Y0049797D02*
X0038050Y0049797D01*
X0038050Y0050795D02*
X0060600Y0050795D01*
X0060600Y0051794D02*
X0038050Y0051794D01*
X0038050Y0052792D02*
X0060600Y0052792D01*
X0060600Y0053791D02*
X0038050Y0053791D01*
X0039573Y0054789D02*
X0060600Y0054789D01*
X0060600Y0055788D02*
X0040571Y0055788D01*
X0041570Y0056786D02*
X0060380Y0056786D01*
X0058620Y0057785D02*
X0042568Y0057785D01*
X0043567Y0058783D02*
X0057788Y0058783D01*
X0057374Y0059782D02*
X0044565Y0059782D01*
X0045564Y0060780D02*
X0056386Y0060780D01*
X0064900Y0063067D02*
X0066500Y0064667D01*
X0067200Y0064667D01*
X0071700Y0065967D01*
X0079146Y0068267D01*
X0088700Y0066367D01*
X0084300Y0071067D02*
X0084000Y0072767D01*
X0083600Y0076167D01*
X0081196Y0077367D01*
X0079896Y0080967D01*
X0074354Y0080917D02*
X0072454Y0072967D01*
X0079146Y0072967D02*
X0079146Y0068267D01*
X0074354Y0080917D02*
X0073204Y0080967D01*
X0069338Y0082604D02*
X0069338Y0083367D01*
X0068038Y0085296D01*
X0069667Y0085867D01*
X0061345Y0085296D02*
X0062600Y0090651D01*
X0062300Y0094867D01*
X0068900Y0106167D02*
X0075000Y0112267D01*
X0075000Y0149367D01*
X0082100Y0156467D01*
X0082100Y0158867D01*
X0079800Y0142867D02*
X0079800Y0112567D01*
X0075100Y0107867D01*
X0084300Y0105667D02*
X0085700Y0107067D01*
X0101300Y0106712D02*
X0120100Y0106712D01*
X0120100Y0107710D02*
X0101300Y0107710D01*
X0101300Y0108167D02*
X0101737Y0108603D01*
X0103757Y0107767D01*
X0106343Y0107767D01*
X0108732Y0108756D01*
X0110560Y0110585D01*
X0111550Y0112974D01*
X0111550Y0115560D01*
X0110560Y0117949D01*
X0109700Y0118809D01*
X0109700Y0119414D01*
X0110446Y0120160D01*
X0111550Y0122825D01*
X0111550Y0125709D01*
X0110446Y0128373D01*
X0109700Y0129120D01*
X0109700Y0129267D01*
X0109000Y0129967D01*
X0109000Y0132517D01*
X0120850Y0132517D01*
X0120850Y0145117D01*
X0121850Y0145117D01*
X0121850Y0132967D01*
X0121800Y0132967D01*
X0120100Y0131267D01*
X0120100Y0129975D01*
X0118850Y0126957D01*
X0118850Y0116776D01*
X0120100Y0113759D01*
X0120100Y0104367D01*
X0116615Y0100882D01*
X0114338Y0100882D01*
X0113052Y0100349D01*
X0112067Y0099364D01*
X0111535Y0098078D01*
X0111535Y0096117D01*
X0109595Y0096117D01*
X0109475Y0096067D01*
X0105900Y0096067D01*
X0101300Y0100667D01*
X0101300Y0108167D01*
X0101300Y0105713D02*
X0120100Y0105713D01*
X0120100Y0104715D02*
X0101300Y0104715D01*
X0101300Y0103716D02*
X0119450Y0103716D01*
X0118451Y0102718D02*
X0101300Y0102718D01*
X0101300Y0101719D02*
X0117453Y0101719D01*
X0113950Y0100721D02*
X0101300Y0100721D01*
X0102244Y0099722D02*
X0112426Y0099722D01*
X0111802Y0098724D02*
X0103243Y0098724D01*
X0104241Y0097725D02*
X0111535Y0097725D01*
X0111535Y0096727D02*
X0105240Y0096727D01*
X0117200Y0095413D02*
X0124754Y0102967D01*
X0125500Y0102867D01*
X0130354Y0097867D02*
X0135000Y0102513D01*
X0135900Y0103267D01*
X0137046Y0097867D02*
X0128346Y0089167D01*
X0128346Y0081967D01*
X0128346Y0080513D01*
X0126300Y0078467D01*
X0118600Y0078467D01*
X0117200Y0079467D01*
X0117200Y0088720D01*
X0121654Y0088520D02*
X0123500Y0090367D01*
X0121654Y0088520D02*
X0121654Y0081967D01*
X0128198Y0064167D02*
X0142800Y0064167D01*
X0148300Y0058667D01*
X0142450Y0027167D02*
X0127250Y0027167D01*
X0110400Y0010317D01*
X0142450Y0027167D02*
X0147850Y0021767D01*
X0147850Y0021667D01*
X0137046Y0097867D02*
X0145546Y0106367D01*
X0152400Y0106367D01*
X0120100Y0108709D02*
X0108618Y0108709D01*
X0109683Y0109707D02*
X0120100Y0109707D01*
X0120100Y0110706D02*
X0110611Y0110706D01*
X0111024Y0111704D02*
X0120100Y0111704D01*
X0120100Y0112703D02*
X0111438Y0112703D01*
X0111550Y0113701D02*
X0120100Y0113701D01*
X0119710Y0114700D02*
X0111550Y0114700D01*
X0111492Y0115698D02*
X0119297Y0115698D01*
X0118883Y0116697D02*
X0111079Y0116697D01*
X0110665Y0117695D02*
X0118850Y0117695D01*
X0118850Y0118694D02*
X0109815Y0118694D01*
X0109979Y0119692D02*
X0118850Y0119692D01*
X0118850Y0120691D02*
X0110666Y0120691D01*
X0111080Y0121690D02*
X0118850Y0121690D01*
X0118850Y0122688D02*
X0111493Y0122688D01*
X0111550Y0123687D02*
X0118850Y0123687D01*
X0118850Y0124685D02*
X0111550Y0124685D01*
X0111550Y0125684D02*
X0118850Y0125684D01*
X0118850Y0126682D02*
X0111147Y0126682D01*
X0110733Y0127681D02*
X0119150Y0127681D01*
X0119563Y0128679D02*
X0110141Y0128679D01*
X0109289Y0129678D02*
X0119977Y0129678D01*
X0120100Y0130676D02*
X0109000Y0130676D01*
X0109000Y0131675D02*
X0120508Y0131675D01*
X0120850Y0132673D02*
X0121506Y0132673D01*
X0121850Y0133672D02*
X0120850Y0133672D01*
X0120850Y0134670D02*
X0121850Y0134670D01*
X0121850Y0135669D02*
X0120850Y0135669D01*
X0120850Y0136667D02*
X0121850Y0136667D01*
X0121850Y0137666D02*
X0120850Y0137666D01*
X0120850Y0138664D02*
X0121850Y0138664D01*
X0121850Y0139663D02*
X0120850Y0139663D01*
X0120850Y0140661D02*
X0121850Y0140661D01*
X0121850Y0141660D02*
X0120850Y0141660D01*
X0120850Y0142658D02*
X0121850Y0142658D01*
X0121850Y0143657D02*
X0120850Y0143657D01*
X0120850Y0144655D02*
X0121850Y0144655D01*
X0121350Y0145417D02*
X0121350Y0145617D01*
X0121350Y0145417D02*
X0113700Y0137767D01*
X0120850Y0146117D02*
X0120850Y0156425D01*
X0121081Y0156656D01*
X0121850Y0158512D01*
X0121850Y0146117D01*
X0120850Y0146117D01*
X0120850Y0146652D02*
X0121850Y0146652D01*
X0121850Y0147651D02*
X0120850Y0147651D01*
X0120850Y0148649D02*
X0121850Y0148649D01*
X0121850Y0149648D02*
X0120850Y0149648D01*
X0120850Y0150646D02*
X0121850Y0150646D01*
X0121850Y0151645D02*
X0120850Y0151645D01*
X0120850Y0152643D02*
X0121850Y0152643D01*
X0121850Y0153642D02*
X0120850Y0153642D01*
X0120850Y0154640D02*
X0121850Y0154640D01*
X0121850Y0155639D02*
X0120850Y0155639D01*
X0121063Y0156637D02*
X0121850Y0156637D01*
X0121850Y0157636D02*
X0121487Y0157636D01*
X0121850Y0158717D02*
X0121850Y0160521D01*
X0121081Y0162377D01*
X0119661Y0163798D01*
X0117805Y0164567D01*
X0115795Y0164567D01*
X0115731Y0164540D01*
X0115281Y0165627D01*
X0113861Y0167048D01*
X0112005Y0167817D01*
X0109995Y0167817D01*
X0109000Y0167404D01*
X0109000Y0172067D01*
X0113000Y0176067D01*
X0118600Y0176067D01*
X0124200Y0181667D01*
X0129400Y0181667D01*
X0131200Y0179867D01*
X0131200Y0178221D01*
X0131188Y0178233D01*
X0130525Y0178714D01*
X0129796Y0179086D01*
X0129018Y0179339D01*
X0128300Y0179452D01*
X0128300Y0174767D01*
X0127300Y0174767D01*
X0127300Y0179452D01*
X0126582Y0179339D01*
X0125804Y0179086D01*
X0125075Y0178714D01*
X0124412Y0178233D01*
X0123834Y0177654D01*
X0123353Y0176992D01*
X0122981Y0176263D01*
X0122728Y0175484D01*
X0122614Y0174767D01*
X0127300Y0174767D01*
X0127300Y0173767D01*
X0122614Y0173767D01*
X0122728Y0173049D01*
X0122981Y0172271D01*
X0123353Y0171541D01*
X0123834Y0170879D01*
X0124412Y0170300D01*
X0125075Y0169819D01*
X0125804Y0169448D01*
X0126582Y0169195D01*
X0127300Y0169081D01*
X0127300Y0173767D01*
X0128300Y0173767D01*
X0128300Y0169081D01*
X0129018Y0169195D01*
X0129796Y0169448D01*
X0130525Y0169819D01*
X0131188Y0170300D01*
X0131200Y0170313D01*
X0131200Y0169667D01*
X0131800Y0169067D01*
X0131800Y0163173D01*
X0132713Y0160968D01*
X0133600Y0160081D01*
X0133600Y0158717D01*
X0121850Y0158717D01*
X0121850Y0159633D02*
X0133600Y0159633D01*
X0133050Y0160631D02*
X0121804Y0160631D01*
X0121391Y0161630D02*
X0132439Y0161630D01*
X0132026Y0162628D02*
X0120830Y0162628D01*
X0119831Y0163627D02*
X0131800Y0163627D01*
X0131800Y0164625D02*
X0115696Y0164625D01*
X0115283Y0165624D02*
X0131800Y0165624D01*
X0131800Y0166623D02*
X0114286Y0166623D01*
X0112477Y0167621D02*
X0131800Y0167621D01*
X0131800Y0168620D02*
X0109000Y0168620D01*
X0109000Y0169618D02*
X0125469Y0169618D01*
X0124096Y0170617D02*
X0109000Y0170617D01*
X0109000Y0171615D02*
X0123315Y0171615D01*
X0122870Y0172614D02*
X0109547Y0172614D01*
X0110545Y0173612D02*
X0122639Y0173612D01*
X0122769Y0175609D02*
X0112542Y0175609D01*
X0111544Y0174611D02*
X0127300Y0174611D01*
X0127300Y0175609D02*
X0128300Y0175609D01*
X0128300Y0176608D02*
X0127300Y0176608D01*
X0127300Y0177606D02*
X0128300Y0177606D01*
X0128300Y0178605D02*
X0127300Y0178605D01*
X0124924Y0178605D02*
X0121138Y0178605D01*
X0122137Y0179603D02*
X0131200Y0179603D01*
X0131200Y0178605D02*
X0130676Y0178605D01*
X0130465Y0180602D02*
X0123135Y0180602D01*
X0124134Y0181600D02*
X0129466Y0181600D01*
X0136200Y0180647D02*
X0140100Y0181167D01*
X0150629Y0181167D01*
X0144968Y0175505D01*
X0143561Y0174099D01*
X0142800Y0172261D01*
X0142800Y0168623D01*
X0142671Y0168494D01*
X0141750Y0166270D01*
X0141750Y0163863D01*
X0142671Y0161640D01*
X0144373Y0159938D01*
X0146597Y0159017D01*
X0149003Y0159017D01*
X0151227Y0159938D01*
X0152929Y0161640D01*
X0153673Y0163437D01*
X0153873Y0163238D01*
X0155124Y0162720D01*
X0155571Y0161640D01*
X0157273Y0159938D01*
X0159497Y0159017D01*
X0161903Y0159017D01*
X0164127Y0159938D01*
X0165829Y0161640D01*
X0166637Y0163592D01*
X0167932Y0164128D01*
X0179686Y0175881D01*
X0183987Y0171580D01*
X0182769Y0170363D01*
X0182631Y0170030D01*
X0182231Y0170196D01*
X0181482Y0170345D01*
X0181289Y0170345D01*
X0181289Y0166656D01*
X0180911Y0166656D01*
X0180911Y0170345D01*
X0180718Y0170345D01*
X0179969Y0170196D01*
X0179263Y0169903D01*
X0178628Y0169479D01*
X0178088Y0168939D01*
X0177663Y0168304D01*
X0177371Y0167598D01*
X0177222Y0166849D01*
X0177222Y0166656D01*
X0180911Y0166656D01*
X0180911Y0166278D01*
X0177222Y0166278D01*
X0177222Y0166085D01*
X0177371Y0165335D01*
X0177537Y0164935D01*
X0177204Y0164797D01*
X0175269Y0162863D01*
X0174222Y0160335D01*
X0174222Y0157599D01*
X0175209Y0155217D01*
X0174222Y0152835D01*
X0174222Y0150099D01*
X0175269Y0147571D01*
X0177204Y0145636D01*
X0179732Y0144589D01*
X0182468Y0144589D01*
X0184850Y0145575D01*
X0185100Y0145472D01*
X0185100Y0144667D01*
X0186900Y0142867D01*
X0186900Y0134867D01*
X0186331Y0134298D01*
X0174389Y0134911D01*
X0166982Y0141858D01*
X0162392Y0146349D01*
X0161674Y0147067D01*
X0161647Y0147079D01*
X0161625Y0147099D01*
X0160683Y0147478D01*
X0159744Y0147867D01*
X0159715Y0147867D01*
X0159687Y0147878D01*
X0158672Y0147867D01*
X0150479Y0147867D01*
X0147853Y0148570D01*
X0146888Y0150567D01*
X0150847Y0150567D01*
X0151229Y0150669D01*
X0151571Y0150866D01*
X0151850Y0151146D01*
X0152048Y0151488D01*
X0152150Y0151869D01*
X0152150Y0154117D01*
X0146600Y0154117D01*
X0146600Y0155117D01*
X0145600Y0155117D01*
X0145600Y0158667D01*
X0142971Y0158667D01*
X0138600Y0167708D01*
X0138600Y0168261D01*
X0137839Y0170099D01*
X0137300Y0170638D01*
X0137300Y0173767D01*
X0138300Y0173767D01*
X0138300Y0174767D01*
X0137300Y0174767D01*
X0137300Y0179452D01*
X0136582Y0179339D01*
X0136200Y0179214D01*
X0136200Y0180647D01*
X0136200Y0180602D02*
X0150064Y0180602D01*
X0149065Y0179603D02*
X0136200Y0179603D01*
X0137300Y0178605D02*
X0138300Y0178605D01*
X0138300Y0179452D02*
X0138300Y0174767D01*
X0142986Y0174767D01*
X0142872Y0175484D01*
X0142619Y0176263D01*
X0142247Y0176992D01*
X0141766Y0177654D01*
X0141188Y0178233D01*
X0140525Y0178714D01*
X0139796Y0179086D01*
X0139018Y0179339D01*
X0138300Y0179452D01*
X0138300Y0177606D02*
X0137300Y0177606D01*
X0137300Y0176608D02*
X0138300Y0176608D01*
X0138300Y0175609D02*
X0137300Y0175609D01*
X0138300Y0174611D02*
X0144073Y0174611D01*
X0143360Y0173612D02*
X0142961Y0173612D01*
X0142986Y0173767D02*
X0138300Y0173767D01*
X0138300Y0169081D01*
X0139018Y0169195D01*
X0139796Y0169448D01*
X0140525Y0169819D01*
X0141188Y0170300D01*
X0141766Y0170879D01*
X0142247Y0171541D01*
X0142619Y0172271D01*
X0142872Y0173049D01*
X0142986Y0173767D01*
X0142946Y0172614D02*
X0142730Y0172614D01*
X0142800Y0171615D02*
X0142285Y0171615D01*
X0142800Y0170617D02*
X0141504Y0170617D01*
X0142800Y0169618D02*
X0140131Y0169618D01*
X0138300Y0169618D02*
X0138038Y0169618D01*
X0138300Y0170617D02*
X0137321Y0170617D01*
X0137300Y0171615D02*
X0138300Y0171615D01*
X0138300Y0172614D02*
X0137300Y0172614D01*
X0137300Y0173612D02*
X0138300Y0173612D01*
X0142831Y0175609D02*
X0145071Y0175609D01*
X0144968Y0175505D02*
X0144968Y0175505D01*
X0146070Y0176608D02*
X0142443Y0176608D01*
X0141801Y0177606D02*
X0147068Y0177606D01*
X0148067Y0178605D02*
X0140676Y0178605D01*
X0147800Y0171267D02*
X0147800Y0165067D01*
X0153339Y0162628D02*
X0155161Y0162628D01*
X0155581Y0161630D02*
X0152919Y0161630D01*
X0151921Y0160631D02*
X0156579Y0160631D01*
X0158009Y0159633D02*
X0150491Y0159633D01*
X0150847Y0158667D02*
X0146600Y0158667D01*
X0146600Y0155117D01*
X0152150Y0155117D01*
X0152150Y0157364D01*
X0152048Y0157746D01*
X0151850Y0158088D01*
X0151571Y0158367D01*
X0151229Y0158564D01*
X0150847Y0158667D01*
X0150968Y0158634D02*
X0174222Y0158634D01*
X0174222Y0157636D02*
X0152077Y0157636D01*
X0152150Y0156637D02*
X0174620Y0156637D01*
X0175034Y0155639D02*
X0152150Y0155639D01*
X0152150Y0153642D02*
X0174556Y0153642D01*
X0174222Y0152643D02*
X0152150Y0152643D01*
X0152090Y0151645D02*
X0174222Y0151645D01*
X0174222Y0150646D02*
X0151145Y0150646D01*
X0147815Y0148649D02*
X0174822Y0148649D01*
X0175236Y0147651D02*
X0160265Y0147651D01*
X0162089Y0146652D02*
X0176187Y0146652D01*
X0177186Y0145654D02*
X0163103Y0145654D01*
X0164123Y0144655D02*
X0179571Y0144655D01*
X0182629Y0144655D02*
X0185111Y0144655D01*
X0186110Y0143657D02*
X0165144Y0143657D01*
X0166164Y0142658D02*
X0186900Y0142658D01*
X0186900Y0141660D02*
X0167193Y0141660D01*
X0168258Y0140661D02*
X0186900Y0140661D01*
X0186900Y0139663D02*
X0169323Y0139663D01*
X0170387Y0138664D02*
X0186900Y0138664D01*
X0186900Y0137666D02*
X0171452Y0137666D01*
X0172517Y0136667D02*
X0186900Y0136667D01*
X0186900Y0135669D02*
X0173581Y0135669D01*
X0179080Y0134670D02*
X0186703Y0134670D01*
X0174409Y0149648D02*
X0147332Y0149648D01*
X0146600Y0154640D02*
X0174970Y0154640D01*
X0174222Y0159633D02*
X0163391Y0159633D01*
X0164821Y0160631D02*
X0174345Y0160631D01*
X0174759Y0161630D02*
X0165819Y0161630D01*
X0166239Y0162628D02*
X0175172Y0162628D01*
X0176033Y0163627D02*
X0166723Y0163627D01*
X0168430Y0164625D02*
X0177032Y0164625D01*
X0177314Y0165624D02*
X0169428Y0165624D01*
X0170427Y0166623D02*
X0180911Y0166623D01*
X0180911Y0167621D02*
X0181289Y0167621D01*
X0181289Y0168620D02*
X0180911Y0168620D01*
X0180911Y0169618D02*
X0181289Y0169618D01*
X0183023Y0170617D02*
X0174421Y0170617D01*
X0175419Y0171615D02*
X0183952Y0171615D01*
X0182953Y0172614D02*
X0176418Y0172614D01*
X0177416Y0173612D02*
X0181955Y0173612D01*
X0180956Y0174611D02*
X0178415Y0174611D01*
X0179414Y0175609D02*
X0179958Y0175609D01*
X0178836Y0169618D02*
X0173422Y0169618D01*
X0172424Y0168620D02*
X0177875Y0168620D01*
X0177381Y0167621D02*
X0171425Y0167621D01*
X0166000Y0172267D02*
X0186300Y0192567D01*
X0186300Y0202267D01*
X0190900Y0206867D01*
X0191100Y0206867D01*
X0191100Y0199367D02*
X0191100Y0194367D01*
X0165100Y0168367D01*
X0157300Y0168367D01*
X0155500Y0172267D02*
X0166000Y0172267D01*
X0165400Y0177467D02*
X0154000Y0177467D01*
X0147800Y0171267D01*
X0142797Y0168620D02*
X0138452Y0168620D01*
X0138642Y0167621D02*
X0142310Y0167621D01*
X0141896Y0166623D02*
X0139125Y0166623D01*
X0139608Y0165624D02*
X0141750Y0165624D01*
X0141750Y0164625D02*
X0140090Y0164625D01*
X0140573Y0163627D02*
X0141848Y0163627D01*
X0142261Y0162628D02*
X0141056Y0162628D01*
X0141539Y0161630D02*
X0142681Y0161630D01*
X0142021Y0160631D02*
X0143679Y0160631D01*
X0142504Y0159633D02*
X0145109Y0159633D01*
X0145600Y0158634D02*
X0146600Y0158634D01*
X0146600Y0157636D02*
X0145600Y0157636D01*
X0145600Y0156637D02*
X0146600Y0156637D01*
X0146600Y0155639D02*
X0145600Y0155639D01*
X0131249Y0169618D02*
X0130131Y0169618D01*
X0128300Y0169618D02*
X0127300Y0169618D01*
X0127300Y0170617D02*
X0128300Y0170617D01*
X0128300Y0171615D02*
X0127300Y0171615D01*
X0127300Y0172614D02*
X0128300Y0172614D01*
X0128300Y0173612D02*
X0127300Y0173612D01*
X0123157Y0176608D02*
X0119141Y0176608D01*
X0120139Y0177606D02*
X0123799Y0177606D01*
X0109523Y0167621D02*
X0109000Y0167621D01*
X0106200Y0177967D02*
X0106200Y0184467D01*
X0109700Y0187967D01*
X0142400Y0187967D01*
X0147400Y0195867D01*
X0158900Y0195867D01*
X0142100Y0206967D01*
X0137800Y0206967D01*
X0158900Y0195867D02*
X0161700Y0190767D01*
X0169000Y0183467D01*
X0169000Y0181067D01*
X0165400Y0177467D01*
X0219700Y0185767D02*
X0235200Y0201267D01*
X0245700Y0201267D01*
X0071800Y0124067D02*
X0067600Y0124067D01*
X0062800Y0128867D01*
X0053000Y0107867D02*
X0045200Y0100067D01*
X0045200Y0092567D01*
X0034600Y0087767D02*
X0042100Y0080267D01*
X0044800Y0080267D01*
X0050744Y0081723D02*
X0057044Y0081723D01*
X0051756Y0074623D01*
X0041800Y0074567D01*
X0034900Y0070667D02*
X0021400Y0070667D01*
X0011800Y0080267D01*
X0011800Y0083567D01*
X0026400Y0105967D02*
X0050744Y0081723D01*
X0026400Y0105967D02*
X0026400Y0118267D01*
X0038050Y0040810D02*
X0050700Y0040810D01*
X0050700Y0039812D02*
X0038050Y0039812D01*
X0038050Y0038813D02*
X0050700Y0038813D01*
D27*
X0147550Y0116267D02*
X0147550Y0135167D01*
X0146100Y0136617D01*
X0146100Y0154617D02*
X0160400Y0154617D01*
X0160400Y0154467D01*
X0178050Y0138617D01*
D28*
X0163800Y0181467D03*
X0159500Y0180867D03*
X0102600Y0129967D03*
X0102400Y0117767D03*
X0090500Y0086567D03*
X0086500Y0079967D03*
X0084300Y0071067D03*
X0088700Y0066367D03*
X0068200Y0060667D03*
X0062700Y0076367D03*
X0027200Y0047467D03*
X0027200Y0038267D03*
X0040000Y0029367D03*
X0036900Y0022667D03*
X0056500Y0025767D03*
X0084100Y0031867D03*
D29*
X0084100Y0043167D01*
X0094000Y0053467D01*
X0097100Y0058417D01*
X0097150Y0058467D01*
X0073204Y0080967D02*
X0072004Y0083367D01*
X0069338Y0083367D01*
X0069338Y0082604D02*
X0066600Y0079867D01*
X0066600Y0073767D02*
X0061163Y0066883D01*
X0058100Y0065867D01*
X0035450Y0065867D01*
X0034350Y0065267D01*
X0031750Y0062667D01*
X0022150Y0062667D01*
X0027205Y0055071D02*
X0029850Y0057717D01*
X0027205Y0055071D02*
X0027400Y0036567D01*
X0023505Y0032671D01*
X0023505Y0022567D01*
X0049095Y0022567D01*
X0048245Y0016612D02*
X0053100Y0016667D01*
X0056500Y0020067D01*
X0056500Y0025767D01*
X0049095Y0031622D02*
X0042255Y0031622D01*
X0040000Y0029367D01*
X0049095Y0031622D02*
X0068145Y0031622D01*
X0080100Y0019667D01*
X0049095Y0013512D02*
X0048245Y0016612D01*
X0068038Y0085296D02*
X0071500Y0085167D01*
X0075500Y0089167D01*
X0075500Y0100067D01*
X0081300Y0105867D01*
X0079500Y0105667D02*
X0084300Y0105667D01*
X0121700Y0155167D02*
X0125500Y0158967D01*
X0125500Y0163167D01*
X0124400Y0164467D02*
X0121700Y0161767D01*
X0121700Y0155167D01*
X0130000Y0160967D02*
X0132100Y0158867D01*
X0132100Y0154967D01*
D30*
X0104300Y0124267D03*
X0015400Y0095467D03*
X0156400Y0014467D03*
X0245700Y0176967D03*
D31*
X0066600Y0079867D02*
X0066600Y0073767D01*
D32*
X0117950Y0022767D02*
X0117950Y0016667D01*
X0118000Y0016617D01*
X0084450Y0016567D01*
X0137500Y0030217D02*
X0154550Y0047267D01*
X0158050Y0047267D01*
X0158050Y0046667D01*
X0158050Y0047267D02*
X0158050Y0087017D01*
X0156050Y0089017D02*
X0161400Y0094367D01*
X0161400Y0116267D01*
X0168400Y0116267D01*
X0171100Y0118967D01*
X0183500Y0118967D01*
X0196000Y0124467D01*
X0206800Y0124467D01*
X0210650Y0125617D01*
X0161400Y0116267D02*
X0147550Y0116267D01*
X0145750Y0114467D01*
X0131950Y0114467D01*
X0131800Y0114317D01*
X0131950Y0114467D02*
X0127850Y0118567D01*
X0127850Y0125167D01*
D33*
X0118100Y0111617D02*
X0117750Y0111617D01*
X0106350Y0100217D01*
X0118100Y0111617D02*
X0113700Y0116017D01*
X0113700Y0124267D01*
X0119450Y0024267D02*
X0123400Y0024267D01*
X0119450Y0024267D02*
X0117950Y0022767D01*
D34*
X0120047Y0025967D02*
X0122553Y0025967D01*
X0123228Y0026246D01*
X0124747Y0025617D01*
X0127253Y0025617D01*
X0129569Y0026576D01*
X0131341Y0028348D01*
X0132300Y0030663D01*
X0132300Y0032352D01*
X0132776Y0032828D01*
X0133499Y0034574D01*
X0133499Y0042763D01*
X0132876Y0044267D01*
X0133499Y0045771D01*
X0133499Y0051343D01*
X0133559Y0051198D01*
X0135331Y0049426D01*
X0137647Y0048467D01*
X0140153Y0048467D01*
X0142469Y0049426D01*
X0144241Y0051198D01*
X0145065Y0053188D01*
X0147047Y0052367D01*
X0149553Y0052367D01*
X0151869Y0053326D01*
X0153641Y0055098D01*
X0154600Y0057413D01*
X0154600Y0059920D01*
X0153641Y0062235D01*
X0151869Y0064008D01*
X0149553Y0064967D01*
X0149425Y0064967D01*
X0145774Y0068617D01*
X0143844Y0069417D01*
X0135173Y0069417D01*
X0136900Y0071517D01*
X0136521Y0072377D01*
X0136547Y0072367D01*
X0139053Y0072367D01*
X0141369Y0073326D01*
X0143141Y0075098D01*
X0144100Y0077413D01*
X0144100Y0079920D01*
X0143141Y0082235D01*
X0141369Y0084008D01*
X0139053Y0084967D01*
X0136547Y0084967D01*
X0135065Y0084353D01*
X0135065Y0085077D01*
X0134342Y0086823D01*
X0133884Y0087280D01*
X0137556Y0090951D01*
X0139960Y0090951D01*
X0141706Y0091674D01*
X0143042Y0093011D01*
X0143765Y0094756D01*
X0143765Y0097161D01*
X0147721Y0101117D01*
X0148740Y0101117D01*
X0148831Y0101026D01*
X0151147Y0100067D01*
X0153653Y0100067D01*
X0155969Y0101026D01*
X0157741Y0102798D01*
X0158700Y0105113D01*
X0158700Y0107620D01*
X0157741Y0109935D01*
X0155969Y0111708D01*
X0153653Y0112667D01*
X0151147Y0112667D01*
X0148831Y0111708D01*
X0148740Y0111617D01*
X0144502Y0111617D01*
X0142573Y0110817D01*
X0141096Y0109341D01*
X0139916Y0108160D01*
X0139469Y0108608D01*
X0137153Y0109567D01*
X0134647Y0109567D01*
X0132331Y0108608D01*
X0130559Y0106835D01*
X0130524Y0106752D01*
X0129069Y0108208D01*
X0126753Y0109167D01*
X0126285Y0109167D01*
X0126600Y0109926D01*
X0126600Y0113307D01*
X0125350Y0116325D01*
X0125350Y0127717D01*
X0132444Y0127717D01*
X0134374Y0128516D01*
X0135146Y0129288D01*
X0136841Y0129990D01*
X0138177Y0131326D01*
X0138900Y0133072D01*
X0138900Y0144629D01*
X0141372Y0143201D01*
X0144487Y0142367D01*
X0155540Y0142367D01*
X0171065Y0128425D01*
X0173941Y0126964D01*
X0177097Y0126298D01*
X0180318Y0126471D01*
X0183384Y0127472D01*
X0185833Y0129066D01*
X0186800Y0129017D01*
X0197650Y0128817D01*
X0203650Y0130267D01*
X0208300Y0132967D01*
X0215900Y0131967D01*
X0220200Y0129367D01*
X0220050Y0125167D01*
X0217744Y0122321D01*
X0216549Y0121944D01*
X0212700Y0120867D01*
X0205600Y0118967D01*
X0198650Y0116467D01*
X0192900Y0113767D01*
X0192342Y0113393D01*
X0191376Y0112934D01*
X0186997Y0109818D01*
X0185650Y0108917D01*
X0185403Y0108684D01*
X0184443Y0108000D01*
X0181291Y0104800D01*
X0180250Y0103817D01*
X0180000Y0103489D01*
X0178473Y0101938D01*
X0173645Y0094931D01*
X0172547Y0092529D01*
X0172450Y0092367D01*
X0172399Y0092204D01*
X0172011Y0091355D01*
X0171678Y0090829D01*
X0171621Y0090503D01*
X0171484Y0090202D01*
X0171462Y0089581D01*
X0166544Y0061208D01*
X0166496Y0061126D01*
X0166383Y0060281D01*
X0166237Y0059440D01*
X0166258Y0059347D01*
X0165762Y0055647D01*
X0165762Y0055647D01*
X0165742Y0046479D01*
X0165742Y0046479D01*
X0166919Y0037387D01*
X0166919Y0037387D01*
X0169272Y0028526D01*
X0169272Y0028526D01*
X0170704Y0025047D01*
X0170710Y0024924D01*
X0171062Y0024177D01*
X0171377Y0023413D01*
X0171407Y0023383D01*
X0171435Y0023317D01*
X0172300Y0020752D01*
X0172646Y0019614D01*
X0172991Y0017326D01*
X0173118Y0016441D01*
X0173148Y0015692D01*
X0173139Y0015665D01*
X0173180Y0014827D01*
X0173183Y0013988D01*
X0173226Y0013887D01*
X0173532Y0007617D01*
X0161571Y0007617D01*
X0163606Y0009652D01*
X0164900Y0012776D01*
X0164900Y0016157D01*
X0163606Y0019282D01*
X0161215Y0021673D01*
X0158091Y0022967D01*
X0154709Y0022967D01*
X0151585Y0021673D01*
X0149194Y0019282D01*
X0147900Y0016157D01*
X0147900Y0012776D01*
X0149194Y0009652D01*
X0151229Y0007617D01*
X0142630Y0007617D01*
X0143149Y0008135D01*
X0144551Y0010565D01*
X0145278Y0013275D01*
X0145278Y0016080D01*
X0144551Y0018791D01*
X0143149Y0021220D01*
X0141165Y0023204D01*
X0138735Y0024607D01*
X0136025Y0025333D01*
X0133219Y0025333D01*
X0130509Y0024607D01*
X0128079Y0023204D01*
X0126096Y0021220D01*
X0124693Y0018791D01*
X0123967Y0016080D01*
X0123967Y0013275D01*
X0124693Y0010565D01*
X0126096Y0008135D01*
X0126614Y0007617D01*
X0124550Y0007617D01*
X0124550Y0009720D01*
X0123591Y0012035D01*
X0121819Y0013808D01*
X0119503Y0014767D01*
X0116997Y0014767D01*
X0114681Y0013808D01*
X0112909Y0012035D01*
X0111950Y0009720D01*
X0111950Y0007617D01*
X0078954Y0007617D01*
X0077883Y0007926D01*
X0079150Y0010986D01*
X0079150Y0014347D01*
X0077864Y0017453D01*
X0075487Y0019830D01*
X0073874Y0020498D01*
X0081878Y0025481D01*
X0082757Y0025117D01*
X0085443Y0025117D01*
X0087924Y0026144D01*
X0089822Y0028043D01*
X0090127Y0028779D01*
X0096400Y0030996D01*
X0096706Y0030869D01*
X0105694Y0030869D01*
X0105814Y0030918D01*
X0115039Y0030918D01*
X0115959Y0028698D01*
X0117731Y0026926D01*
X0120047Y0025967D01*
X0117932Y0026843D02*
X0088622Y0026843D01*
X0089946Y0028341D02*
X0116316Y0028341D01*
X0115486Y0029840D02*
X0093129Y0029840D01*
X0085992Y0025344D02*
X0170582Y0025344D01*
X0171199Y0023846D02*
X0140053Y0023846D01*
X0142022Y0022347D02*
X0153214Y0022347D01*
X0150761Y0020849D02*
X0143363Y0020849D01*
X0144228Y0019350D02*
X0149263Y0019350D01*
X0148602Y0017852D02*
X0144803Y0017852D01*
X0145204Y0016353D02*
X0147981Y0016353D01*
X0147900Y0014855D02*
X0145278Y0014855D01*
X0145278Y0013356D02*
X0147900Y0013356D01*
X0148280Y0011858D02*
X0144898Y0011858D01*
X0144433Y0010359D02*
X0148901Y0010359D01*
X0149985Y0008861D02*
X0143568Y0008861D01*
X0129191Y0023846D02*
X0079251Y0023846D01*
X0076845Y0022347D02*
X0127223Y0022347D01*
X0125881Y0020849D02*
X0074438Y0020849D01*
X0075966Y0019350D02*
X0125016Y0019350D01*
X0124441Y0017852D02*
X0077465Y0017852D01*
X0078319Y0016353D02*
X0124040Y0016353D01*
X0123967Y0014855D02*
X0078940Y0014855D01*
X0079150Y0013356D02*
X0114230Y0013356D01*
X0112836Y0011858D02*
X0079150Y0011858D01*
X0078890Y0010359D02*
X0112215Y0010359D01*
X0111950Y0008861D02*
X0078270Y0008861D01*
X0081658Y0025344D02*
X0082208Y0025344D01*
X0122270Y0013356D02*
X0123967Y0013356D01*
X0123664Y0011858D02*
X0124346Y0011858D01*
X0124285Y0010359D02*
X0124811Y0010359D01*
X0124550Y0008861D02*
X0125677Y0008861D01*
X0129836Y0026843D02*
X0169965Y0026843D01*
X0169348Y0028341D02*
X0131334Y0028341D01*
X0131959Y0029840D02*
X0168923Y0029840D01*
X0168525Y0031338D02*
X0132300Y0031338D01*
X0132780Y0032837D02*
X0168127Y0032837D01*
X0167729Y0034335D02*
X0133400Y0034335D01*
X0133499Y0035834D02*
X0167331Y0035834D01*
X0166933Y0037332D02*
X0133499Y0037332D01*
X0133499Y0038831D02*
X0166732Y0038831D01*
X0166538Y0040329D02*
X0133499Y0040329D01*
X0133499Y0041828D02*
X0166344Y0041828D01*
X0166150Y0043326D02*
X0133266Y0043326D01*
X0133107Y0044825D02*
X0165956Y0044825D01*
X0165762Y0046323D02*
X0133499Y0046323D01*
X0133499Y0047822D02*
X0165745Y0047822D01*
X0165748Y0049321D02*
X0142215Y0049321D01*
X0143862Y0050819D02*
X0165752Y0050819D01*
X0165755Y0052318D02*
X0144705Y0052318D01*
X0152359Y0053816D02*
X0165758Y0053816D01*
X0165762Y0055315D02*
X0153731Y0055315D01*
X0154351Y0056813D02*
X0165919Y0056813D01*
X0166119Y0058312D02*
X0154600Y0058312D01*
X0154600Y0059810D02*
X0166301Y0059810D01*
X0166561Y0061309D02*
X0154025Y0061309D01*
X0153069Y0062807D02*
X0166821Y0062807D01*
X0167081Y0064306D02*
X0151149Y0064306D01*
X0148587Y0065804D02*
X0167340Y0065804D01*
X0167600Y0067303D02*
X0147089Y0067303D01*
X0145330Y0068801D02*
X0167860Y0068801D01*
X0168120Y0070300D02*
X0135899Y0070300D01*
X0136776Y0071798D02*
X0168379Y0071798D01*
X0168639Y0073297D02*
X0141298Y0073297D01*
X0142838Y0074795D02*
X0168899Y0074795D01*
X0169159Y0076294D02*
X0143636Y0076294D01*
X0144100Y0077792D02*
X0169418Y0077792D01*
X0169678Y0079291D02*
X0144100Y0079291D01*
X0143740Y0080789D02*
X0169938Y0080789D01*
X0170197Y0082288D02*
X0143088Y0082288D01*
X0141590Y0083786D02*
X0170457Y0083786D01*
X0170717Y0085285D02*
X0134979Y0085285D01*
X0134358Y0086783D02*
X0170977Y0086783D01*
X0171236Y0088282D02*
X0134886Y0088282D01*
X0136385Y0089780D02*
X0171469Y0089780D01*
X0171963Y0091279D02*
X0140750Y0091279D01*
X0142809Y0092777D02*
X0172661Y0092777D01*
X0173346Y0094276D02*
X0143566Y0094276D01*
X0143765Y0095774D02*
X0174226Y0095774D01*
X0173645Y0094931D02*
X0173645Y0094931D01*
X0175259Y0097273D02*
X0143877Y0097273D01*
X0145376Y0098771D02*
X0176291Y0098771D01*
X0177323Y0100270D02*
X0154144Y0100270D01*
X0156711Y0101768D02*
X0178356Y0101768D01*
X0178473Y0101938D02*
X0178473Y0101938D01*
X0179781Y0103267D02*
X0157935Y0103267D01*
X0158556Y0104765D02*
X0181255Y0104765D01*
X0182733Y0106264D02*
X0158700Y0106264D01*
X0158641Y0107762D02*
X0184209Y0107762D01*
X0184443Y0108000D02*
X0184443Y0108000D01*
X0186165Y0109261D02*
X0158020Y0109261D01*
X0156917Y0110759D02*
X0188320Y0110759D01*
X0190426Y0112258D02*
X0154640Y0112258D01*
X0150160Y0112258D02*
X0126600Y0112258D01*
X0126600Y0110759D02*
X0142515Y0110759D01*
X0141016Y0109261D02*
X0137891Y0109261D01*
X0133909Y0109261D02*
X0126325Y0109261D01*
X0126414Y0113756D02*
X0192885Y0113756D01*
X0191376Y0112934D02*
X0191376Y0112934D01*
X0196070Y0115255D02*
X0125793Y0115255D01*
X0125350Y0116754D02*
X0199447Y0116754D01*
X0203613Y0118252D02*
X0125350Y0118252D01*
X0125350Y0119751D02*
X0208529Y0119751D01*
X0214066Y0121249D02*
X0125350Y0121249D01*
X0125350Y0122748D02*
X0218090Y0122748D01*
X0219304Y0124246D02*
X0125350Y0124246D01*
X0125350Y0125745D02*
X0220071Y0125745D01*
X0220124Y0127243D02*
X0182684Y0127243D01*
X0185334Y0128742D02*
X0220178Y0128742D01*
X0218755Y0130240D02*
X0203540Y0130240D01*
X0206185Y0131739D02*
X0216277Y0131739D01*
X0173392Y0127243D02*
X0125350Y0127243D01*
X0134600Y0128742D02*
X0170712Y0128742D01*
X0169044Y0130240D02*
X0137091Y0130240D01*
X0138348Y0131739D02*
X0167375Y0131739D01*
X0165706Y0133237D02*
X0152192Y0133237D01*
X0152281Y0133391D02*
X0152400Y0133836D01*
X0152400Y0136092D01*
X0146625Y0136092D01*
X0146625Y0137142D01*
X0145575Y0137142D01*
X0145575Y0140917D01*
X0141320Y0140917D01*
X0140875Y0140797D01*
X0140475Y0140567D01*
X0140150Y0140241D01*
X0139919Y0139842D01*
X0139800Y0139397D01*
X0139800Y0137142D01*
X0145575Y0137142D01*
X0145575Y0136092D01*
X0139800Y0136092D01*
X0139800Y0133836D01*
X0139919Y0133391D01*
X0140150Y0132992D01*
X0140475Y0132666D01*
X0140875Y0132436D01*
X0141320Y0132317D01*
X0145575Y0132317D01*
X0145575Y0136092D01*
X0146625Y0136092D01*
X0146625Y0132317D01*
X0150880Y0132317D01*
X0151325Y0132436D01*
X0151725Y0132666D01*
X0152050Y0132992D01*
X0152281Y0133391D01*
X0152400Y0134736D02*
X0164038Y0134736D01*
X0162369Y0136234D02*
X0146625Y0136234D01*
X0146625Y0137142D02*
X0152400Y0137142D01*
X0152400Y0139397D01*
X0152281Y0139842D01*
X0152050Y0140241D01*
X0151725Y0140567D01*
X0151325Y0140797D01*
X0150880Y0140917D01*
X0146625Y0140917D01*
X0146625Y0137142D01*
X0146625Y0137733D02*
X0145575Y0137733D01*
X0145575Y0139231D02*
X0146625Y0139231D01*
X0146625Y0140730D02*
X0145575Y0140730D01*
X0145575Y0136234D02*
X0138900Y0136234D01*
X0138900Y0134736D02*
X0139800Y0134736D01*
X0140008Y0133237D02*
X0138900Y0133237D01*
X0138900Y0137733D02*
X0139800Y0137733D01*
X0139800Y0139231D02*
X0138900Y0139231D01*
X0138900Y0140730D02*
X0140757Y0140730D01*
X0138900Y0142228D02*
X0155694Y0142228D01*
X0157363Y0140730D02*
X0151443Y0140730D01*
X0152400Y0139231D02*
X0159031Y0139231D01*
X0160700Y0137733D02*
X0152400Y0137733D01*
X0146625Y0134736D02*
X0145575Y0134736D01*
X0145575Y0133237D02*
X0146625Y0133237D01*
X0140462Y0143727D02*
X0138900Y0143727D01*
X0131486Y0107762D02*
X0129514Y0107762D01*
X0146874Y0100270D02*
X0150656Y0100270D01*
X0133938Y0050819D02*
X0133499Y0050819D01*
X0133499Y0049321D02*
X0135585Y0049321D01*
X0159586Y0022347D02*
X0171762Y0022347D01*
X0172268Y0020849D02*
X0162039Y0020849D01*
X0163537Y0019350D02*
X0172686Y0019350D01*
X0172912Y0017852D02*
X0164198Y0017852D01*
X0164819Y0016353D02*
X0173121Y0016353D01*
X0173178Y0014855D02*
X0164900Y0014855D01*
X0164900Y0013356D02*
X0173251Y0013356D01*
X0173325Y0011858D02*
X0164520Y0011858D01*
X0163899Y0010359D02*
X0173398Y0010359D01*
X0173471Y0008861D02*
X0162815Y0008861D01*
D35*
X0125200Y0049865D02*
X0125200Y0057167D01*
X0125300Y0057267D01*
X0106200Y0055867D02*
X0101200Y0050867D01*
X0101200Y0049965D01*
X0089802Y0136567D02*
X0087900Y0136567D01*
X0079800Y0142867D01*
X0082100Y0158867D02*
X0083700Y0160467D01*
X0089802Y0160467D01*
X0215400Y0167865D02*
X0215400Y0170267D01*
X0219200Y0174067D01*
X0234700Y0173167D02*
X0239400Y0168467D01*
X0239400Y0167865D01*
D36*
X0113700Y0137767D02*
X0113700Y0124267D01*
M02*
