G75*
%MOIN*%
%OFA0B0*%
%FSLAX25Y25*%
%IPPOS*%
%LPD*%
%AMOC8*
5,1,8,0,0,1.08239X$1,22.5*
%
%ADD10R,0.02362X0.03346*%
%ADD11R,0.02756X0.03150*%
%ADD12R,0.03346X0.02362*%
%ADD13R,0.03150X0.02756*%
%ADD14R,0.08268X0.08268*%
%ADD15C,0.01378*%
%ADD16R,0.01000X0.05906*%
%ADD17R,0.05906X0.01000*%
%ADD18R,0.03543X0.02756*%
%ADD19R,0.04331X0.03937*%
%ADD20R,0.03937X0.04331*%
%ADD21R,0.04724X0.05512*%
%ADD22R,0.01575X0.05315*%
%ADD23C,0.04500*%
%ADD24R,0.04724X0.01378*%
%ADD25R,0.02756X0.03543*%
D10*
G36*
X0149364Y0080294D02*
X0148954Y0077969D01*
X0145660Y0078550D01*
X0146070Y0080875D01*
X0149364Y0080294D01*
G37*
G36*
X0150184Y0084946D02*
X0149774Y0082621D01*
X0146480Y0083202D01*
X0146890Y0085527D01*
X0150184Y0084946D01*
G37*
G36*
X0151005Y0089599D02*
X0150595Y0087274D01*
X0147301Y0087855D01*
X0147711Y0090180D01*
X0151005Y0089599D01*
G37*
G36*
X0151825Y0094252D02*
X0151415Y0091927D01*
X0148121Y0092508D01*
X0148531Y0094833D01*
X0151825Y0094252D01*
G37*
G36*
X0152645Y0098904D02*
X0152235Y0096579D01*
X0148941Y0097160D01*
X0149351Y0099485D01*
X0152645Y0098904D01*
G37*
G36*
X0153466Y0103557D02*
X0153056Y0101232D01*
X0149762Y0101813D01*
X0150172Y0104138D01*
X0153466Y0103557D01*
G37*
G36*
X0114365Y0185026D02*
X0116722Y0185150D01*
X0116897Y0181810D01*
X0114540Y0181686D01*
X0114365Y0185026D01*
G37*
G36*
X0109647Y0184779D02*
X0112004Y0184903D01*
X0112179Y0181563D01*
X0109822Y0181439D01*
X0109647Y0184779D01*
G37*
G36*
X0104929Y0184532D02*
X0107286Y0184656D01*
X0107461Y0181316D01*
X0105104Y0181192D01*
X0104929Y0184532D01*
G37*
G36*
X0100211Y0184285D02*
X0102568Y0184409D01*
X0102743Y0181069D01*
X0100386Y0180945D01*
X0100211Y0184285D01*
G37*
G36*
X0095493Y0184037D02*
X0097850Y0184161D01*
X0098025Y0180821D01*
X0095668Y0180697D01*
X0095493Y0184037D01*
G37*
G36*
X0090775Y0183790D02*
X0093132Y0183914D01*
X0093307Y0180574D01*
X0090950Y0180450D01*
X0090775Y0183790D01*
G37*
G36*
X0063184Y0161404D02*
X0065541Y0161528D01*
X0065716Y0158188D01*
X0063359Y0158064D01*
X0063184Y0161404D01*
G37*
G36*
X0058466Y0161157D02*
X0060823Y0161281D01*
X0060998Y0157941D01*
X0058641Y0157817D01*
X0058466Y0161157D01*
G37*
G36*
X0053748Y0160910D02*
X0056105Y0161034D01*
X0056280Y0157694D01*
X0053923Y0157570D01*
X0053748Y0160910D01*
G37*
G36*
X0049030Y0160663D02*
X0051387Y0160787D01*
X0051562Y0157447D01*
X0049205Y0157323D01*
X0049030Y0160663D01*
G37*
G36*
X0044312Y0160415D02*
X0046669Y0160539D01*
X0046844Y0157199D01*
X0044487Y0157075D01*
X0044312Y0160415D01*
G37*
G36*
X0039594Y0160168D02*
X0041951Y0160292D01*
X0042126Y0156952D01*
X0039769Y0156828D01*
X0039594Y0160168D01*
G37*
G36*
X0153767Y0187727D02*
X0156124Y0187851D01*
X0156299Y0184511D01*
X0153942Y0184387D01*
X0153767Y0187727D01*
G37*
G36*
X0158485Y0187974D02*
X0160842Y0188098D01*
X0161017Y0184758D01*
X0158660Y0184634D01*
X0158485Y0187974D01*
G37*
G36*
X0163203Y0188222D02*
X0165560Y0188346D01*
X0165735Y0185006D01*
X0163378Y0184882D01*
X0163203Y0188222D01*
G37*
G36*
X0167921Y0188469D02*
X0170278Y0188593D01*
X0170453Y0185253D01*
X0168096Y0185129D01*
X0167921Y0188469D01*
G37*
G36*
X0172639Y0188716D02*
X0174996Y0188840D01*
X0175171Y0185500D01*
X0172814Y0185376D01*
X0172639Y0188716D01*
G37*
G36*
X0177357Y0188963D02*
X0179714Y0189087D01*
X0179889Y0185747D01*
X0177532Y0185623D01*
X0177357Y0188963D01*
G37*
X0205724Y0190662D03*
X0210449Y0190662D03*
X0215173Y0190662D03*
X0219898Y0190662D03*
X0224622Y0190662D03*
X0229346Y0190662D03*
D11*
X0233874Y0205524D03*
X0201197Y0205524D03*
G36*
X0180909Y0203934D02*
X0183660Y0204078D01*
X0183825Y0200934D01*
X0181074Y0200790D01*
X0180909Y0203934D01*
G37*
G36*
X0148276Y0202224D02*
X0151027Y0202368D01*
X0151192Y0199224D01*
X0148441Y0199080D01*
X0148276Y0202224D01*
G37*
G36*
X0117916Y0199997D02*
X0120667Y0200141D01*
X0120832Y0196997D01*
X0118081Y0196853D01*
X0117916Y0199997D01*
G37*
G36*
X0085284Y0198287D02*
X0088035Y0198431D01*
X0088200Y0195287D01*
X0085449Y0195143D01*
X0085284Y0198287D01*
G37*
G36*
X0066735Y0176375D02*
X0069486Y0176519D01*
X0069651Y0173375D01*
X0066900Y0173231D01*
X0066735Y0176375D01*
G37*
G36*
X0034103Y0174665D02*
X0036854Y0174809D01*
X0037019Y0171665D01*
X0034268Y0171521D01*
X0034103Y0174665D01*
G37*
G36*
X0163152Y0073465D02*
X0162673Y0070752D01*
X0159572Y0071299D01*
X0160051Y0074012D01*
X0163152Y0073465D01*
G37*
G36*
X0168826Y0105646D02*
X0168347Y0102933D01*
X0165246Y0103480D01*
X0165725Y0106193D01*
X0168826Y0105646D01*
G37*
D12*
X0145488Y0054048D03*
X0145488Y0049323D03*
X0145488Y0044599D03*
X0145488Y0039875D03*
X0145488Y0035150D03*
X0145488Y0030426D03*
D13*
X0160350Y0025898D03*
X0160350Y0058575D03*
D14*
X0113205Y0044205D03*
X0026591Y0079638D03*
X0095488Y0148536D03*
X0227378Y0162315D03*
D15*
X0221177Y0161036D02*
X0215665Y0161036D01*
X0215665Y0163595D02*
X0221177Y0163595D01*
X0221177Y0166154D02*
X0215665Y0166154D01*
X0215665Y0158477D02*
X0221177Y0158477D01*
X0223539Y0156115D02*
X0223539Y0150603D01*
X0226098Y0150603D02*
X0226098Y0156115D01*
X0228657Y0156115D02*
X0228657Y0150603D01*
X0231217Y0150603D02*
X0231217Y0156115D01*
X0233579Y0158477D02*
X0239091Y0158477D01*
X0239091Y0161036D02*
X0233579Y0161036D01*
X0233579Y0163595D02*
X0239091Y0163595D01*
X0239091Y0166154D02*
X0233579Y0166154D01*
X0231217Y0168516D02*
X0231217Y0174028D01*
X0228657Y0174028D02*
X0228657Y0168516D01*
X0226098Y0168516D02*
X0226098Y0174028D01*
X0223539Y0174028D02*
X0223539Y0168516D01*
X0107201Y0152375D02*
X0101689Y0152375D01*
X0101689Y0149815D02*
X0107201Y0149815D01*
X0107201Y0147256D02*
X0101689Y0147256D01*
X0101689Y0144697D02*
X0107201Y0144697D01*
X0099327Y0142335D02*
X0099327Y0136823D01*
X0096768Y0136823D02*
X0096768Y0142335D01*
X0094209Y0142335D02*
X0094209Y0136823D01*
X0091650Y0136823D02*
X0091650Y0142335D01*
X0089287Y0144697D02*
X0083775Y0144697D01*
X0083775Y0147256D02*
X0089287Y0147256D01*
X0089287Y0149815D02*
X0083775Y0149815D01*
X0083775Y0152375D02*
X0089287Y0152375D01*
X0091650Y0154737D02*
X0091650Y0160249D01*
X0094209Y0160249D02*
X0094209Y0154737D01*
X0096768Y0154737D02*
X0096768Y0160249D01*
X0099327Y0160249D02*
X0099327Y0154737D01*
X0030429Y0091351D02*
X0030429Y0085839D01*
X0027870Y0085839D02*
X0027870Y0091351D01*
X0025311Y0091351D02*
X0025311Y0085839D01*
X0022752Y0085839D02*
X0022752Y0091351D01*
X0020390Y0083477D02*
X0014878Y0083477D01*
X0014878Y0080918D02*
X0020390Y0080918D01*
X0020390Y0078359D02*
X0014878Y0078359D01*
X0014878Y0075800D02*
X0020390Y0075800D01*
X0022752Y0073438D02*
X0022752Y0067926D01*
X0025311Y0067926D02*
X0025311Y0073438D01*
X0027870Y0073438D02*
X0027870Y0067926D01*
X0030429Y0067926D02*
X0030429Y0073438D01*
X0032791Y0075800D02*
X0038303Y0075800D01*
X0038303Y0078359D02*
X0032791Y0078359D01*
X0032791Y0080918D02*
X0038303Y0080918D01*
X0038303Y0083477D02*
X0032791Y0083477D01*
X0101492Y0048044D02*
X0107004Y0048044D01*
X0107004Y0045485D02*
X0101492Y0045485D01*
X0101492Y0042926D02*
X0107004Y0042926D01*
X0107004Y0040367D02*
X0101492Y0040367D01*
X0109366Y0038005D02*
X0109366Y0032493D01*
X0111925Y0032493D02*
X0111925Y0038005D01*
X0114484Y0038005D02*
X0114484Y0032493D01*
X0117043Y0032493D02*
X0117043Y0038005D01*
X0119405Y0040367D02*
X0124917Y0040367D01*
X0124917Y0042926D02*
X0119405Y0042926D01*
X0119405Y0045485D02*
X0124917Y0045485D01*
X0124917Y0048044D02*
X0119405Y0048044D01*
X0117043Y0050406D02*
X0117043Y0055918D01*
X0114484Y0055918D02*
X0114484Y0050406D01*
X0111925Y0050406D02*
X0111925Y0055918D01*
X0109366Y0055918D02*
X0109366Y0050406D01*
D16*
X0088598Y0055032D03*
X0086630Y0055032D03*
X0084661Y0055032D03*
X0082693Y0055032D03*
X0080724Y0055032D03*
X0078756Y0055032D03*
X0076787Y0055032D03*
X0074819Y0055032D03*
X0072850Y0055032D03*
X0070882Y0055032D03*
X0068913Y0055032D03*
X0066945Y0055032D03*
X0064976Y0055032D03*
X0063008Y0055032D03*
X0061039Y0055032D03*
X0059071Y0055032D03*
X0059071Y0100308D03*
X0061039Y0100308D03*
X0063008Y0100308D03*
X0064976Y0100308D03*
X0066945Y0100308D03*
X0068913Y0100308D03*
X0070882Y0100308D03*
X0072850Y0100308D03*
X0074819Y0100308D03*
X0076787Y0100308D03*
X0078756Y0100308D03*
X0080724Y0100308D03*
X0082693Y0100308D03*
X0084661Y0100308D03*
X0086630Y0100308D03*
X0088598Y0100308D03*
D17*
X0096472Y0092434D03*
X0096472Y0090465D03*
X0096472Y0088497D03*
X0096472Y0086528D03*
X0096472Y0084560D03*
X0096472Y0082591D03*
X0096472Y0080623D03*
X0096472Y0078654D03*
X0096472Y0076686D03*
X0096472Y0074717D03*
X0096472Y0072749D03*
X0096472Y0070780D03*
X0096472Y0068812D03*
X0096472Y0066843D03*
X0096472Y0064875D03*
X0096472Y0062906D03*
X0051197Y0062906D03*
X0051197Y0064875D03*
X0051197Y0066843D03*
X0051197Y0068812D03*
X0051197Y0070780D03*
X0051197Y0072749D03*
X0051197Y0074717D03*
X0051197Y0076686D03*
X0051197Y0078654D03*
X0051197Y0080623D03*
X0051197Y0082591D03*
X0051197Y0084560D03*
X0051197Y0086528D03*
X0051197Y0088497D03*
X0051197Y0090465D03*
X0051197Y0092434D03*
D18*
X0040370Y0090859D03*
X0040370Y0095977D03*
X0052181Y0114481D03*
X0052181Y0119599D03*
X0060055Y0119599D03*
X0060055Y0114481D03*
X0067929Y0114481D03*
X0067929Y0119599D03*
X0075803Y0119599D03*
X0075803Y0114481D03*
X0042339Y0127023D03*
X0042339Y0132141D03*
X0034265Y0123373D03*
X0034265Y0118255D03*
X0040370Y0068418D03*
X0040370Y0063300D03*
X0133600Y0153508D03*
X0133600Y0158626D03*
D19*
X0210689Y0138825D03*
X0217382Y0138825D03*
X0222564Y0138845D03*
X0229257Y0138845D03*
X0112526Y0018530D03*
X0105833Y0018530D03*
X0100640Y0018515D03*
X0093947Y0018515D03*
X0075100Y0027420D03*
X0075100Y0034113D03*
X0067150Y0034113D03*
X0067150Y0027420D03*
X0038046Y0013867D03*
X0031354Y0013867D03*
D20*
X0027400Y0020920D03*
X0027400Y0027613D03*
G36*
X0119656Y0093961D02*
X0116873Y0091178D01*
X0113812Y0094239D01*
X0116595Y0097022D01*
X0119656Y0093961D01*
G37*
G36*
X0124388Y0098694D02*
X0121605Y0095911D01*
X0118544Y0098972D01*
X0121327Y0101755D01*
X0124388Y0098694D01*
G37*
G36*
X0130773Y0102855D02*
X0133556Y0100072D01*
X0130495Y0097011D01*
X0127712Y0099794D01*
X0130773Y0102855D01*
G37*
G36*
X0135505Y0098122D02*
X0138288Y0095339D01*
X0135227Y0092278D01*
X0132444Y0095061D01*
X0135505Y0098122D01*
G37*
G36*
X0131807Y0091368D02*
X0130144Y0087802D01*
X0126221Y0089632D01*
X0127884Y0093198D01*
X0131807Y0091368D01*
G37*
G36*
X0128979Y0085302D02*
X0127316Y0081736D01*
X0123393Y0083566D01*
X0125056Y0087132D01*
X0128979Y0085302D01*
G37*
X0121079Y0131247D03*
X0121079Y0137940D03*
X0121069Y0143173D03*
X0121069Y0149866D03*
X0121093Y0155023D03*
X0121093Y0161716D03*
X0057496Y0128851D03*
X0050803Y0128851D03*
X0119110Y0019993D03*
X0119110Y0013300D03*
X0235852Y0133510D03*
X0235852Y0140203D03*
D21*
X0047457Y0050504D03*
X0041157Y0050504D03*
X0041157Y0041843D03*
X0047457Y0041843D03*
D22*
G36*
X0017097Y0135110D02*
X0017029Y0136682D01*
X0022337Y0136914D01*
X0022405Y0135342D01*
X0017097Y0135110D01*
G37*
G36*
X0016985Y0137667D02*
X0016917Y0139239D01*
X0022225Y0139471D01*
X0022293Y0137899D01*
X0016985Y0137667D01*
G37*
G36*
X0016874Y0140224D02*
X0016806Y0141796D01*
X0022114Y0142028D01*
X0022182Y0140456D01*
X0016874Y0140224D01*
G37*
G36*
X0016762Y0142780D02*
X0016694Y0144352D01*
X0022002Y0144584D01*
X0022070Y0143012D01*
X0016762Y0142780D01*
G37*
G36*
X0016651Y0145337D02*
X0016583Y0146909D01*
X0021891Y0147141D01*
X0021959Y0145569D01*
X0016651Y0145337D01*
G37*
D23*
X0034639Y0143799D03*
X0034265Y0136462D03*
X0028559Y0101367D03*
X0020600Y0101367D03*
X0089500Y0128567D03*
X0095800Y0041967D03*
X0199700Y0163467D03*
D24*
X0165783Y0162536D03*
X0165783Y0165095D03*
X0165783Y0159977D03*
X0165783Y0157417D03*
X0165783Y0154858D03*
X0165783Y0152299D03*
X0165783Y0149740D03*
X0165783Y0147181D03*
X0142752Y0147181D03*
X0142752Y0149740D03*
X0142752Y0152299D03*
X0142752Y0154858D03*
X0142752Y0157417D03*
X0142752Y0159977D03*
X0142752Y0162536D03*
X0142752Y0165095D03*
D25*
X0090173Y0113103D03*
X0085055Y0113103D03*
X0087708Y0047312D03*
X0092826Y0047312D03*
M02*
