G75*
%MOIN*%
%OFA0B0*%
%FSLAX25Y25*%
%IPPOS*%
%LPD*%
%AMOC8*
5,1,8,0,0,1.08239X$1,22.5*
%
%ADD10C,0.00000*%
%ADD11C,0.00500*%
%ADD12C,0.01181*%
%ADD13C,0.00300*%
%ADD14C,0.03150*%
%ADD15C,0.00400*%
%ADD16C,0.00800*%
%ADD17C,0.02559*%
D10*
X0020488Y0002867D02*
X0009228Y0015662D01*
X0001000Y0184678D01*
X0077496Y0188418D01*
X0076276Y0212985D01*
X0196906Y0218851D01*
X0197969Y0241095D01*
X0257535Y0237827D01*
X0252260Y0128221D01*
X0204425Y0113142D01*
X0176197Y0089087D02*
X0171079Y0059560D01*
X0176197Y0089087D02*
X0176651Y0090049D01*
X0177128Y0091000D01*
X0177628Y0091939D01*
X0178150Y0092865D01*
X0178695Y0093778D01*
X0179262Y0094678D01*
X0179850Y0095564D01*
X0180460Y0096436D01*
X0181091Y0097292D01*
X0181742Y0098133D01*
X0182414Y0098958D01*
X0183105Y0099766D01*
X0183815Y0100558D01*
X0184545Y0101332D01*
X0185293Y0102088D01*
X0186060Y0102825D01*
X0186843Y0103544D01*
X0187645Y0104244D01*
X0188462Y0104924D01*
X0189297Y0105584D01*
X0190146Y0106223D01*
X0191011Y0106842D01*
X0191891Y0107440D01*
X0192785Y0108016D01*
X0193693Y0108570D01*
X0194614Y0109102D01*
X0195548Y0109612D01*
X0196493Y0110099D01*
X0197450Y0110562D01*
X0198418Y0111003D01*
X0199397Y0111420D01*
X0200385Y0111813D01*
X0201383Y0112182D01*
X0202389Y0112526D01*
X0203403Y0112847D01*
X0204425Y0113142D01*
X0171079Y0059559D02*
X0170891Y0058019D01*
X0170740Y0056475D01*
X0170626Y0054928D01*
X0170549Y0053378D01*
X0170508Y0051827D01*
X0170505Y0050276D01*
X0170539Y0048725D01*
X0170609Y0047175D01*
X0170716Y0045627D01*
X0170860Y0044083D01*
X0171041Y0042542D01*
X0171259Y0041006D01*
X0171512Y0039475D01*
X0171803Y0037951D01*
X0172129Y0036434D01*
X0172492Y0034926D01*
X0172890Y0033426D01*
X0173324Y0031937D01*
X0173793Y0030458D01*
X0174297Y0028991D01*
X0174836Y0027536D01*
X0175409Y0026094D01*
X0177929Y0014953D02*
X0178520Y0002867D01*
X0020488Y0002867D01*
X0128716Y0014678D02*
X0128718Y0014831D01*
X0128724Y0014985D01*
X0128734Y0015138D01*
X0128748Y0015290D01*
X0128766Y0015443D01*
X0128788Y0015594D01*
X0128813Y0015745D01*
X0128843Y0015896D01*
X0128877Y0016046D01*
X0128914Y0016194D01*
X0128955Y0016342D01*
X0129000Y0016488D01*
X0129049Y0016634D01*
X0129102Y0016778D01*
X0129158Y0016920D01*
X0129218Y0017061D01*
X0129282Y0017201D01*
X0129349Y0017339D01*
X0129420Y0017475D01*
X0129495Y0017609D01*
X0129572Y0017741D01*
X0129654Y0017871D01*
X0129738Y0017999D01*
X0129826Y0018125D01*
X0129917Y0018248D01*
X0130011Y0018369D01*
X0130109Y0018487D01*
X0130209Y0018603D01*
X0130313Y0018716D01*
X0130419Y0018827D01*
X0130528Y0018935D01*
X0130640Y0019040D01*
X0130754Y0019141D01*
X0130872Y0019240D01*
X0130991Y0019336D01*
X0131113Y0019429D01*
X0131238Y0019518D01*
X0131365Y0019605D01*
X0131494Y0019687D01*
X0131625Y0019767D01*
X0131758Y0019843D01*
X0131893Y0019916D01*
X0132030Y0019985D01*
X0132169Y0020050D01*
X0132309Y0020112D01*
X0132451Y0020170D01*
X0132594Y0020225D01*
X0132739Y0020276D01*
X0132885Y0020323D01*
X0133032Y0020366D01*
X0133180Y0020405D01*
X0133329Y0020441D01*
X0133479Y0020472D01*
X0133630Y0020500D01*
X0133781Y0020524D01*
X0133934Y0020544D01*
X0134086Y0020560D01*
X0134239Y0020572D01*
X0134392Y0020580D01*
X0134545Y0020584D01*
X0134699Y0020584D01*
X0134852Y0020580D01*
X0135005Y0020572D01*
X0135158Y0020560D01*
X0135310Y0020544D01*
X0135463Y0020524D01*
X0135614Y0020500D01*
X0135765Y0020472D01*
X0135915Y0020441D01*
X0136064Y0020405D01*
X0136212Y0020366D01*
X0136359Y0020323D01*
X0136505Y0020276D01*
X0136650Y0020225D01*
X0136793Y0020170D01*
X0136935Y0020112D01*
X0137075Y0020050D01*
X0137214Y0019985D01*
X0137351Y0019916D01*
X0137486Y0019843D01*
X0137619Y0019767D01*
X0137750Y0019687D01*
X0137879Y0019605D01*
X0138006Y0019518D01*
X0138131Y0019429D01*
X0138253Y0019336D01*
X0138372Y0019240D01*
X0138490Y0019141D01*
X0138604Y0019040D01*
X0138716Y0018935D01*
X0138825Y0018827D01*
X0138931Y0018716D01*
X0139035Y0018603D01*
X0139135Y0018487D01*
X0139233Y0018369D01*
X0139327Y0018248D01*
X0139418Y0018125D01*
X0139506Y0017999D01*
X0139590Y0017871D01*
X0139672Y0017741D01*
X0139749Y0017609D01*
X0139824Y0017475D01*
X0139895Y0017339D01*
X0139962Y0017201D01*
X0140026Y0017061D01*
X0140086Y0016920D01*
X0140142Y0016778D01*
X0140195Y0016634D01*
X0140244Y0016488D01*
X0140289Y0016342D01*
X0140330Y0016194D01*
X0140367Y0016046D01*
X0140401Y0015896D01*
X0140431Y0015745D01*
X0140456Y0015594D01*
X0140478Y0015443D01*
X0140496Y0015290D01*
X0140510Y0015138D01*
X0140520Y0014985D01*
X0140526Y0014831D01*
X0140528Y0014678D01*
X0140526Y0014525D01*
X0140520Y0014371D01*
X0140510Y0014218D01*
X0140496Y0014066D01*
X0140478Y0013913D01*
X0140456Y0013762D01*
X0140431Y0013611D01*
X0140401Y0013460D01*
X0140367Y0013310D01*
X0140330Y0013162D01*
X0140289Y0013014D01*
X0140244Y0012868D01*
X0140195Y0012722D01*
X0140142Y0012578D01*
X0140086Y0012436D01*
X0140026Y0012295D01*
X0139962Y0012155D01*
X0139895Y0012017D01*
X0139824Y0011881D01*
X0139749Y0011747D01*
X0139672Y0011615D01*
X0139590Y0011485D01*
X0139506Y0011357D01*
X0139418Y0011231D01*
X0139327Y0011108D01*
X0139233Y0010987D01*
X0139135Y0010869D01*
X0139035Y0010753D01*
X0138931Y0010640D01*
X0138825Y0010529D01*
X0138716Y0010421D01*
X0138604Y0010316D01*
X0138490Y0010215D01*
X0138372Y0010116D01*
X0138253Y0010020D01*
X0138131Y0009927D01*
X0138006Y0009838D01*
X0137879Y0009751D01*
X0137750Y0009669D01*
X0137619Y0009589D01*
X0137486Y0009513D01*
X0137351Y0009440D01*
X0137214Y0009371D01*
X0137075Y0009306D01*
X0136935Y0009244D01*
X0136793Y0009186D01*
X0136650Y0009131D01*
X0136505Y0009080D01*
X0136359Y0009033D01*
X0136212Y0008990D01*
X0136064Y0008951D01*
X0135915Y0008915D01*
X0135765Y0008884D01*
X0135614Y0008856D01*
X0135463Y0008832D01*
X0135310Y0008812D01*
X0135158Y0008796D01*
X0135005Y0008784D01*
X0134852Y0008776D01*
X0134699Y0008772D01*
X0134545Y0008772D01*
X0134392Y0008776D01*
X0134239Y0008784D01*
X0134086Y0008796D01*
X0133934Y0008812D01*
X0133781Y0008832D01*
X0133630Y0008856D01*
X0133479Y0008884D01*
X0133329Y0008915D01*
X0133180Y0008951D01*
X0133032Y0008990D01*
X0132885Y0009033D01*
X0132739Y0009080D01*
X0132594Y0009131D01*
X0132451Y0009186D01*
X0132309Y0009244D01*
X0132169Y0009306D01*
X0132030Y0009371D01*
X0131893Y0009440D01*
X0131758Y0009513D01*
X0131625Y0009589D01*
X0131494Y0009669D01*
X0131365Y0009751D01*
X0131238Y0009838D01*
X0131113Y0009927D01*
X0130991Y0010020D01*
X0130872Y0010116D01*
X0130754Y0010215D01*
X0130640Y0010316D01*
X0130528Y0010421D01*
X0130419Y0010529D01*
X0130313Y0010640D01*
X0130209Y0010753D01*
X0130109Y0010869D01*
X0130011Y0010987D01*
X0129917Y0011108D01*
X0129826Y0011231D01*
X0129738Y0011357D01*
X0129654Y0011485D01*
X0129572Y0011615D01*
X0129495Y0011747D01*
X0129420Y0011881D01*
X0129349Y0012017D01*
X0129282Y0012155D01*
X0129218Y0012295D01*
X0129158Y0012436D01*
X0129102Y0012578D01*
X0129049Y0012722D01*
X0129000Y0012868D01*
X0128955Y0013014D01*
X0128914Y0013162D01*
X0128877Y0013310D01*
X0128843Y0013460D01*
X0128813Y0013611D01*
X0128788Y0013762D01*
X0128766Y0013913D01*
X0128748Y0014066D01*
X0128734Y0014218D01*
X0128724Y0014371D01*
X0128718Y0014525D01*
X0128716Y0014678D01*
X0175410Y0026095D02*
X0175676Y0025513D01*
X0175927Y0024925D01*
X0176165Y0024331D01*
X0176387Y0023731D01*
X0176596Y0023126D01*
X0176789Y0022517D01*
X0176968Y0021902D01*
X0177131Y0021284D01*
X0177280Y0020662D01*
X0177414Y0020036D01*
X0177532Y0019408D01*
X0177635Y0018776D01*
X0177723Y0018143D01*
X0177795Y0017507D01*
X0177852Y0016870D01*
X0177893Y0016232D01*
X0177919Y0015593D01*
X0177930Y0014953D01*
X0008362Y0169796D02*
X0008364Y0169949D01*
X0008370Y0170103D01*
X0008380Y0170256D01*
X0008394Y0170408D01*
X0008412Y0170561D01*
X0008434Y0170712D01*
X0008459Y0170863D01*
X0008489Y0171014D01*
X0008523Y0171164D01*
X0008560Y0171312D01*
X0008601Y0171460D01*
X0008646Y0171606D01*
X0008695Y0171752D01*
X0008748Y0171896D01*
X0008804Y0172038D01*
X0008864Y0172179D01*
X0008928Y0172319D01*
X0008995Y0172457D01*
X0009066Y0172593D01*
X0009141Y0172727D01*
X0009218Y0172859D01*
X0009300Y0172989D01*
X0009384Y0173117D01*
X0009472Y0173243D01*
X0009563Y0173366D01*
X0009657Y0173487D01*
X0009755Y0173605D01*
X0009855Y0173721D01*
X0009959Y0173834D01*
X0010065Y0173945D01*
X0010174Y0174053D01*
X0010286Y0174158D01*
X0010400Y0174259D01*
X0010518Y0174358D01*
X0010637Y0174454D01*
X0010759Y0174547D01*
X0010884Y0174636D01*
X0011011Y0174723D01*
X0011140Y0174805D01*
X0011271Y0174885D01*
X0011404Y0174961D01*
X0011539Y0175034D01*
X0011676Y0175103D01*
X0011815Y0175168D01*
X0011955Y0175230D01*
X0012097Y0175288D01*
X0012240Y0175343D01*
X0012385Y0175394D01*
X0012531Y0175441D01*
X0012678Y0175484D01*
X0012826Y0175523D01*
X0012975Y0175559D01*
X0013125Y0175590D01*
X0013276Y0175618D01*
X0013427Y0175642D01*
X0013580Y0175662D01*
X0013732Y0175678D01*
X0013885Y0175690D01*
X0014038Y0175698D01*
X0014191Y0175702D01*
X0014345Y0175702D01*
X0014498Y0175698D01*
X0014651Y0175690D01*
X0014804Y0175678D01*
X0014956Y0175662D01*
X0015109Y0175642D01*
X0015260Y0175618D01*
X0015411Y0175590D01*
X0015561Y0175559D01*
X0015710Y0175523D01*
X0015858Y0175484D01*
X0016005Y0175441D01*
X0016151Y0175394D01*
X0016296Y0175343D01*
X0016439Y0175288D01*
X0016581Y0175230D01*
X0016721Y0175168D01*
X0016860Y0175103D01*
X0016997Y0175034D01*
X0017132Y0174961D01*
X0017265Y0174885D01*
X0017396Y0174805D01*
X0017525Y0174723D01*
X0017652Y0174636D01*
X0017777Y0174547D01*
X0017899Y0174454D01*
X0018018Y0174358D01*
X0018136Y0174259D01*
X0018250Y0174158D01*
X0018362Y0174053D01*
X0018471Y0173945D01*
X0018577Y0173834D01*
X0018681Y0173721D01*
X0018781Y0173605D01*
X0018879Y0173487D01*
X0018973Y0173366D01*
X0019064Y0173243D01*
X0019152Y0173117D01*
X0019236Y0172989D01*
X0019318Y0172859D01*
X0019395Y0172727D01*
X0019470Y0172593D01*
X0019541Y0172457D01*
X0019608Y0172319D01*
X0019672Y0172179D01*
X0019732Y0172038D01*
X0019788Y0171896D01*
X0019841Y0171752D01*
X0019890Y0171606D01*
X0019935Y0171460D01*
X0019976Y0171312D01*
X0020013Y0171164D01*
X0020047Y0171014D01*
X0020077Y0170863D01*
X0020102Y0170712D01*
X0020124Y0170561D01*
X0020142Y0170408D01*
X0020156Y0170256D01*
X0020166Y0170103D01*
X0020172Y0169949D01*
X0020174Y0169796D01*
X0020172Y0169643D01*
X0020166Y0169489D01*
X0020156Y0169336D01*
X0020142Y0169184D01*
X0020124Y0169031D01*
X0020102Y0168880D01*
X0020077Y0168729D01*
X0020047Y0168578D01*
X0020013Y0168428D01*
X0019976Y0168280D01*
X0019935Y0168132D01*
X0019890Y0167986D01*
X0019841Y0167840D01*
X0019788Y0167696D01*
X0019732Y0167554D01*
X0019672Y0167413D01*
X0019608Y0167273D01*
X0019541Y0167135D01*
X0019470Y0166999D01*
X0019395Y0166865D01*
X0019318Y0166733D01*
X0019236Y0166603D01*
X0019152Y0166475D01*
X0019064Y0166349D01*
X0018973Y0166226D01*
X0018879Y0166105D01*
X0018781Y0165987D01*
X0018681Y0165871D01*
X0018577Y0165758D01*
X0018471Y0165647D01*
X0018362Y0165539D01*
X0018250Y0165434D01*
X0018136Y0165333D01*
X0018018Y0165234D01*
X0017899Y0165138D01*
X0017777Y0165045D01*
X0017652Y0164956D01*
X0017525Y0164869D01*
X0017396Y0164787D01*
X0017265Y0164707D01*
X0017132Y0164631D01*
X0016997Y0164558D01*
X0016860Y0164489D01*
X0016721Y0164424D01*
X0016581Y0164362D01*
X0016439Y0164304D01*
X0016296Y0164249D01*
X0016151Y0164198D01*
X0016005Y0164151D01*
X0015858Y0164108D01*
X0015710Y0164069D01*
X0015561Y0164033D01*
X0015411Y0164002D01*
X0015260Y0163974D01*
X0015109Y0163950D01*
X0014956Y0163930D01*
X0014804Y0163914D01*
X0014651Y0163902D01*
X0014498Y0163894D01*
X0014345Y0163890D01*
X0014191Y0163890D01*
X0014038Y0163894D01*
X0013885Y0163902D01*
X0013732Y0163914D01*
X0013580Y0163930D01*
X0013427Y0163950D01*
X0013276Y0163974D01*
X0013125Y0164002D01*
X0012975Y0164033D01*
X0012826Y0164069D01*
X0012678Y0164108D01*
X0012531Y0164151D01*
X0012385Y0164198D01*
X0012240Y0164249D01*
X0012097Y0164304D01*
X0011955Y0164362D01*
X0011815Y0164424D01*
X0011676Y0164489D01*
X0011539Y0164558D01*
X0011404Y0164631D01*
X0011271Y0164707D01*
X0011140Y0164787D01*
X0011011Y0164869D01*
X0010884Y0164956D01*
X0010759Y0165045D01*
X0010637Y0165138D01*
X0010518Y0165234D01*
X0010400Y0165333D01*
X0010286Y0165434D01*
X0010174Y0165539D01*
X0010065Y0165647D01*
X0009959Y0165758D01*
X0009855Y0165871D01*
X0009755Y0165987D01*
X0009657Y0166105D01*
X0009563Y0166226D01*
X0009472Y0166349D01*
X0009384Y0166475D01*
X0009300Y0166603D01*
X0009218Y0166733D01*
X0009141Y0166865D01*
X0009066Y0166999D01*
X0008995Y0167135D01*
X0008928Y0167273D01*
X0008864Y0167413D01*
X0008804Y0167554D01*
X0008748Y0167696D01*
X0008695Y0167840D01*
X0008646Y0167986D01*
X0008601Y0168132D01*
X0008560Y0168280D01*
X0008523Y0168428D01*
X0008489Y0168578D01*
X0008459Y0168729D01*
X0008434Y0168880D01*
X0008412Y0169031D01*
X0008394Y0169184D01*
X0008380Y0169336D01*
X0008370Y0169489D01*
X0008364Y0169643D01*
X0008362Y0169796D01*
X0235251Y0225504D02*
X0235253Y0225657D01*
X0235259Y0225811D01*
X0235269Y0225964D01*
X0235283Y0226116D01*
X0235301Y0226269D01*
X0235323Y0226420D01*
X0235348Y0226571D01*
X0235378Y0226722D01*
X0235412Y0226872D01*
X0235449Y0227020D01*
X0235490Y0227168D01*
X0235535Y0227314D01*
X0235584Y0227460D01*
X0235637Y0227604D01*
X0235693Y0227746D01*
X0235753Y0227887D01*
X0235817Y0228027D01*
X0235884Y0228165D01*
X0235955Y0228301D01*
X0236030Y0228435D01*
X0236107Y0228567D01*
X0236189Y0228697D01*
X0236273Y0228825D01*
X0236361Y0228951D01*
X0236452Y0229074D01*
X0236546Y0229195D01*
X0236644Y0229313D01*
X0236744Y0229429D01*
X0236848Y0229542D01*
X0236954Y0229653D01*
X0237063Y0229761D01*
X0237175Y0229866D01*
X0237289Y0229967D01*
X0237407Y0230066D01*
X0237526Y0230162D01*
X0237648Y0230255D01*
X0237773Y0230344D01*
X0237900Y0230431D01*
X0238029Y0230513D01*
X0238160Y0230593D01*
X0238293Y0230669D01*
X0238428Y0230742D01*
X0238565Y0230811D01*
X0238704Y0230876D01*
X0238844Y0230938D01*
X0238986Y0230996D01*
X0239129Y0231051D01*
X0239274Y0231102D01*
X0239420Y0231149D01*
X0239567Y0231192D01*
X0239715Y0231231D01*
X0239864Y0231267D01*
X0240014Y0231298D01*
X0240165Y0231326D01*
X0240316Y0231350D01*
X0240469Y0231370D01*
X0240621Y0231386D01*
X0240774Y0231398D01*
X0240927Y0231406D01*
X0241080Y0231410D01*
X0241234Y0231410D01*
X0241387Y0231406D01*
X0241540Y0231398D01*
X0241693Y0231386D01*
X0241845Y0231370D01*
X0241998Y0231350D01*
X0242149Y0231326D01*
X0242300Y0231298D01*
X0242450Y0231267D01*
X0242599Y0231231D01*
X0242747Y0231192D01*
X0242894Y0231149D01*
X0243040Y0231102D01*
X0243185Y0231051D01*
X0243328Y0230996D01*
X0243470Y0230938D01*
X0243610Y0230876D01*
X0243749Y0230811D01*
X0243886Y0230742D01*
X0244021Y0230669D01*
X0244154Y0230593D01*
X0244285Y0230513D01*
X0244414Y0230431D01*
X0244541Y0230344D01*
X0244666Y0230255D01*
X0244788Y0230162D01*
X0244907Y0230066D01*
X0245025Y0229967D01*
X0245139Y0229866D01*
X0245251Y0229761D01*
X0245360Y0229653D01*
X0245466Y0229542D01*
X0245570Y0229429D01*
X0245670Y0229313D01*
X0245768Y0229195D01*
X0245862Y0229074D01*
X0245953Y0228951D01*
X0246041Y0228825D01*
X0246125Y0228697D01*
X0246207Y0228567D01*
X0246284Y0228435D01*
X0246359Y0228301D01*
X0246430Y0228165D01*
X0246497Y0228027D01*
X0246561Y0227887D01*
X0246621Y0227746D01*
X0246677Y0227604D01*
X0246730Y0227460D01*
X0246779Y0227314D01*
X0246824Y0227168D01*
X0246865Y0227020D01*
X0246902Y0226872D01*
X0246936Y0226722D01*
X0246966Y0226571D01*
X0246991Y0226420D01*
X0247013Y0226269D01*
X0247031Y0226116D01*
X0247045Y0225964D01*
X0247055Y0225811D01*
X0247061Y0225657D01*
X0247063Y0225504D01*
X0247061Y0225351D01*
X0247055Y0225197D01*
X0247045Y0225044D01*
X0247031Y0224892D01*
X0247013Y0224739D01*
X0246991Y0224588D01*
X0246966Y0224437D01*
X0246936Y0224286D01*
X0246902Y0224136D01*
X0246865Y0223988D01*
X0246824Y0223840D01*
X0246779Y0223694D01*
X0246730Y0223548D01*
X0246677Y0223404D01*
X0246621Y0223262D01*
X0246561Y0223121D01*
X0246497Y0222981D01*
X0246430Y0222843D01*
X0246359Y0222707D01*
X0246284Y0222573D01*
X0246207Y0222441D01*
X0246125Y0222311D01*
X0246041Y0222183D01*
X0245953Y0222057D01*
X0245862Y0221934D01*
X0245768Y0221813D01*
X0245670Y0221695D01*
X0245570Y0221579D01*
X0245466Y0221466D01*
X0245360Y0221355D01*
X0245251Y0221247D01*
X0245139Y0221142D01*
X0245025Y0221041D01*
X0244907Y0220942D01*
X0244788Y0220846D01*
X0244666Y0220753D01*
X0244541Y0220664D01*
X0244414Y0220577D01*
X0244285Y0220495D01*
X0244154Y0220415D01*
X0244021Y0220339D01*
X0243886Y0220266D01*
X0243749Y0220197D01*
X0243610Y0220132D01*
X0243470Y0220070D01*
X0243328Y0220012D01*
X0243185Y0219957D01*
X0243040Y0219906D01*
X0242894Y0219859D01*
X0242747Y0219816D01*
X0242599Y0219777D01*
X0242450Y0219741D01*
X0242300Y0219710D01*
X0242149Y0219682D01*
X0241998Y0219658D01*
X0241845Y0219638D01*
X0241693Y0219622D01*
X0241540Y0219610D01*
X0241387Y0219602D01*
X0241234Y0219598D01*
X0241080Y0219598D01*
X0240927Y0219602D01*
X0240774Y0219610D01*
X0240621Y0219622D01*
X0240469Y0219638D01*
X0240316Y0219658D01*
X0240165Y0219682D01*
X0240014Y0219710D01*
X0239864Y0219741D01*
X0239715Y0219777D01*
X0239567Y0219816D01*
X0239420Y0219859D01*
X0239274Y0219906D01*
X0239129Y0219957D01*
X0238986Y0220012D01*
X0238844Y0220070D01*
X0238704Y0220132D01*
X0238565Y0220197D01*
X0238428Y0220266D01*
X0238293Y0220339D01*
X0238160Y0220415D01*
X0238029Y0220495D01*
X0237900Y0220577D01*
X0237773Y0220664D01*
X0237648Y0220753D01*
X0237526Y0220846D01*
X0237407Y0220942D01*
X0237289Y0221041D01*
X0237175Y0221142D01*
X0237063Y0221247D01*
X0236954Y0221355D01*
X0236848Y0221466D01*
X0236744Y0221579D01*
X0236644Y0221695D01*
X0236546Y0221813D01*
X0236452Y0221934D01*
X0236361Y0222057D01*
X0236273Y0222183D01*
X0236189Y0222311D01*
X0236107Y0222441D01*
X0236030Y0222573D01*
X0235955Y0222707D01*
X0235884Y0222843D01*
X0235817Y0222981D01*
X0235753Y0223121D01*
X0235693Y0223262D01*
X0235637Y0223404D01*
X0235584Y0223548D01*
X0235535Y0223694D01*
X0235490Y0223840D01*
X0235449Y0223988D01*
X0235412Y0224136D01*
X0235378Y0224286D01*
X0235348Y0224437D01*
X0235323Y0224588D01*
X0235301Y0224739D01*
X0235283Y0224892D01*
X0235269Y0225044D01*
X0235259Y0225197D01*
X0235253Y0225351D01*
X0235251Y0225504D01*
D11*
X0235055Y0206804D02*
X0229346Y0206804D01*
X0229346Y0203654D01*
X0205724Y0203654D01*
X0205724Y0206804D01*
X0200016Y0206804D01*
X0200016Y0188693D01*
X0235055Y0188693D01*
X0235055Y0206804D01*
X0235547Y0170485D02*
X0219209Y0170485D01*
X0219209Y0154146D01*
X0235547Y0154146D01*
X0235547Y0170485D01*
X0184427Y0185688D02*
X0183479Y0203774D01*
X0177778Y0203475D01*
X0177943Y0200330D01*
X0154353Y0199094D01*
X0154189Y0202239D01*
X0148488Y0201940D01*
X0149436Y0183855D01*
X0184427Y0185688D01*
X0121435Y0181751D02*
X0120487Y0199837D01*
X0114786Y0199538D01*
X0114951Y0196393D01*
X0091361Y0195156D01*
X0091196Y0198302D01*
X0085496Y0198003D01*
X0086443Y0179918D01*
X0121435Y0181751D01*
X0103657Y0156705D02*
X0103657Y0140367D01*
X0087319Y0140367D01*
X0087319Y0156705D01*
X0103657Y0156705D01*
X0070254Y0158129D02*
X0069306Y0176215D01*
X0063605Y0175916D01*
X0063770Y0172771D01*
X0040180Y0171534D01*
X0040015Y0174680D01*
X0034315Y0174381D01*
X0035262Y0156296D01*
X0070254Y0158129D01*
X0021470Y0156778D02*
X0022827Y0125705D01*
X0003849Y0124877D01*
X0003944Y0122713D02*
X0002398Y0158113D01*
X0002492Y0155949D02*
X0021470Y0156778D01*
X0054150Y0097355D02*
X0081709Y0097355D01*
X0093520Y0085544D01*
X0093520Y0057985D01*
X0054150Y0057985D01*
X0054150Y0097355D01*
X0034760Y0087808D02*
X0034760Y0071469D01*
X0018421Y0071469D01*
X0018421Y0087808D01*
X0034760Y0087808D01*
X0039366Y0052473D02*
X0049228Y0052473D01*
X0049228Y0039875D01*
X0039386Y0039875D01*
X0039366Y0052473D01*
X0105035Y0052375D02*
X0105035Y0036036D01*
X0121374Y0036036D01*
X0121374Y0052375D01*
X0105035Y0052375D01*
X0143520Y0059756D02*
X0143520Y0024717D01*
X0161630Y0024717D01*
X0161630Y0030426D01*
X0158480Y0030426D01*
X0158480Y0054048D01*
X0161630Y0054048D01*
X0161630Y0059756D01*
X0143520Y0059756D01*
X0144582Y0074142D02*
X0162417Y0070997D01*
X0163408Y0076619D01*
X0160307Y0077166D01*
X0164408Y0100429D01*
X0167510Y0099882D01*
X0168502Y0105504D01*
X0150666Y0108649D01*
X0144582Y0074142D01*
D12*
X0122063Y0053654D02*
X0122065Y0053702D01*
X0122071Y0053750D01*
X0122081Y0053797D01*
X0122094Y0053843D01*
X0122112Y0053888D01*
X0122132Y0053932D01*
X0122157Y0053974D01*
X0122185Y0054013D01*
X0122215Y0054050D01*
X0122249Y0054084D01*
X0122286Y0054116D01*
X0122324Y0054145D01*
X0122365Y0054170D01*
X0122408Y0054192D01*
X0122453Y0054210D01*
X0122499Y0054224D01*
X0122546Y0054235D01*
X0122594Y0054242D01*
X0122642Y0054245D01*
X0122690Y0054244D01*
X0122738Y0054239D01*
X0122786Y0054230D01*
X0122832Y0054218D01*
X0122877Y0054201D01*
X0122921Y0054181D01*
X0122963Y0054158D01*
X0123003Y0054131D01*
X0123041Y0054101D01*
X0123076Y0054068D01*
X0123108Y0054032D01*
X0123138Y0053994D01*
X0123164Y0053953D01*
X0123186Y0053910D01*
X0123206Y0053866D01*
X0123221Y0053821D01*
X0123233Y0053774D01*
X0123241Y0053726D01*
X0123245Y0053678D01*
X0123245Y0053630D01*
X0123241Y0053582D01*
X0123233Y0053534D01*
X0123221Y0053487D01*
X0123206Y0053442D01*
X0123186Y0053398D01*
X0123164Y0053355D01*
X0123138Y0053314D01*
X0123108Y0053276D01*
X0123076Y0053240D01*
X0123041Y0053207D01*
X0123003Y0053177D01*
X0122963Y0053150D01*
X0122921Y0053127D01*
X0122877Y0053107D01*
X0122832Y0053090D01*
X0122786Y0053078D01*
X0122738Y0053069D01*
X0122690Y0053064D01*
X0122642Y0053063D01*
X0122594Y0053066D01*
X0122546Y0053073D01*
X0122499Y0053084D01*
X0122453Y0053098D01*
X0122408Y0053116D01*
X0122365Y0053138D01*
X0122324Y0053163D01*
X0122286Y0053192D01*
X0122249Y0053224D01*
X0122215Y0053258D01*
X0122185Y0053295D01*
X0122157Y0053334D01*
X0122132Y0053376D01*
X0122112Y0053420D01*
X0122094Y0053465D01*
X0122081Y0053511D01*
X0122071Y0053558D01*
X0122065Y0053606D01*
X0122063Y0053654D01*
X0016551Y0070189D02*
X0016553Y0070237D01*
X0016559Y0070285D01*
X0016569Y0070332D01*
X0016582Y0070378D01*
X0016600Y0070423D01*
X0016620Y0070467D01*
X0016645Y0070509D01*
X0016673Y0070548D01*
X0016703Y0070585D01*
X0016737Y0070619D01*
X0016774Y0070651D01*
X0016812Y0070680D01*
X0016853Y0070705D01*
X0016896Y0070727D01*
X0016941Y0070745D01*
X0016987Y0070759D01*
X0017034Y0070770D01*
X0017082Y0070777D01*
X0017130Y0070780D01*
X0017178Y0070779D01*
X0017226Y0070774D01*
X0017274Y0070765D01*
X0017320Y0070753D01*
X0017365Y0070736D01*
X0017409Y0070716D01*
X0017451Y0070693D01*
X0017491Y0070666D01*
X0017529Y0070636D01*
X0017564Y0070603D01*
X0017596Y0070567D01*
X0017626Y0070529D01*
X0017652Y0070488D01*
X0017674Y0070445D01*
X0017694Y0070401D01*
X0017709Y0070356D01*
X0017721Y0070309D01*
X0017729Y0070261D01*
X0017733Y0070213D01*
X0017733Y0070165D01*
X0017729Y0070117D01*
X0017721Y0070069D01*
X0017709Y0070022D01*
X0017694Y0069977D01*
X0017674Y0069933D01*
X0017652Y0069890D01*
X0017626Y0069849D01*
X0017596Y0069811D01*
X0017564Y0069775D01*
X0017529Y0069742D01*
X0017491Y0069712D01*
X0017451Y0069685D01*
X0017409Y0069662D01*
X0017365Y0069642D01*
X0017320Y0069625D01*
X0017274Y0069613D01*
X0017226Y0069604D01*
X0017178Y0069599D01*
X0017130Y0069598D01*
X0017082Y0069601D01*
X0017034Y0069608D01*
X0016987Y0069619D01*
X0016941Y0069633D01*
X0016896Y0069651D01*
X0016853Y0069673D01*
X0016812Y0069698D01*
X0016774Y0069727D01*
X0016737Y0069759D01*
X0016703Y0069793D01*
X0016673Y0069830D01*
X0016645Y0069869D01*
X0016620Y0069911D01*
X0016600Y0069955D01*
X0016582Y0070000D01*
X0016569Y0070046D01*
X0016559Y0070093D01*
X0016553Y0070141D01*
X0016551Y0070189D01*
X0085448Y0157985D02*
X0085450Y0158033D01*
X0085456Y0158081D01*
X0085466Y0158128D01*
X0085479Y0158174D01*
X0085497Y0158219D01*
X0085517Y0158263D01*
X0085542Y0158305D01*
X0085570Y0158344D01*
X0085600Y0158381D01*
X0085634Y0158415D01*
X0085671Y0158447D01*
X0085709Y0158476D01*
X0085750Y0158501D01*
X0085793Y0158523D01*
X0085838Y0158541D01*
X0085884Y0158555D01*
X0085931Y0158566D01*
X0085979Y0158573D01*
X0086027Y0158576D01*
X0086075Y0158575D01*
X0086123Y0158570D01*
X0086171Y0158561D01*
X0086217Y0158549D01*
X0086262Y0158532D01*
X0086306Y0158512D01*
X0086348Y0158489D01*
X0086388Y0158462D01*
X0086426Y0158432D01*
X0086461Y0158399D01*
X0086493Y0158363D01*
X0086523Y0158325D01*
X0086549Y0158284D01*
X0086571Y0158241D01*
X0086591Y0158197D01*
X0086606Y0158152D01*
X0086618Y0158105D01*
X0086626Y0158057D01*
X0086630Y0158009D01*
X0086630Y0157961D01*
X0086626Y0157913D01*
X0086618Y0157865D01*
X0086606Y0157818D01*
X0086591Y0157773D01*
X0086571Y0157729D01*
X0086549Y0157686D01*
X0086523Y0157645D01*
X0086493Y0157607D01*
X0086461Y0157571D01*
X0086426Y0157538D01*
X0086388Y0157508D01*
X0086348Y0157481D01*
X0086306Y0157458D01*
X0086262Y0157438D01*
X0086217Y0157421D01*
X0086171Y0157409D01*
X0086123Y0157400D01*
X0086075Y0157395D01*
X0086027Y0157394D01*
X0085979Y0157397D01*
X0085931Y0157404D01*
X0085884Y0157415D01*
X0085838Y0157429D01*
X0085793Y0157447D01*
X0085750Y0157469D01*
X0085709Y0157494D01*
X0085671Y0157523D01*
X0085634Y0157555D01*
X0085600Y0157589D01*
X0085570Y0157626D01*
X0085542Y0157665D01*
X0085517Y0157707D01*
X0085497Y0157751D01*
X0085479Y0157796D01*
X0085466Y0157842D01*
X0085456Y0157889D01*
X0085450Y0157937D01*
X0085448Y0157985D01*
X0236236Y0171764D02*
X0236238Y0171812D01*
X0236244Y0171860D01*
X0236254Y0171907D01*
X0236267Y0171953D01*
X0236285Y0171998D01*
X0236305Y0172042D01*
X0236330Y0172084D01*
X0236358Y0172123D01*
X0236388Y0172160D01*
X0236422Y0172194D01*
X0236459Y0172226D01*
X0236497Y0172255D01*
X0236538Y0172280D01*
X0236581Y0172302D01*
X0236626Y0172320D01*
X0236672Y0172334D01*
X0236719Y0172345D01*
X0236767Y0172352D01*
X0236815Y0172355D01*
X0236863Y0172354D01*
X0236911Y0172349D01*
X0236959Y0172340D01*
X0237005Y0172328D01*
X0237050Y0172311D01*
X0237094Y0172291D01*
X0237136Y0172268D01*
X0237176Y0172241D01*
X0237214Y0172211D01*
X0237249Y0172178D01*
X0237281Y0172142D01*
X0237311Y0172104D01*
X0237337Y0172063D01*
X0237359Y0172020D01*
X0237379Y0171976D01*
X0237394Y0171931D01*
X0237406Y0171884D01*
X0237414Y0171836D01*
X0237418Y0171788D01*
X0237418Y0171740D01*
X0237414Y0171692D01*
X0237406Y0171644D01*
X0237394Y0171597D01*
X0237379Y0171552D01*
X0237359Y0171508D01*
X0237337Y0171465D01*
X0237311Y0171424D01*
X0237281Y0171386D01*
X0237249Y0171350D01*
X0237214Y0171317D01*
X0237176Y0171287D01*
X0237136Y0171260D01*
X0237094Y0171237D01*
X0237050Y0171217D01*
X0237005Y0171200D01*
X0236959Y0171188D01*
X0236911Y0171179D01*
X0236863Y0171174D01*
X0236815Y0171173D01*
X0236767Y0171176D01*
X0236719Y0171183D01*
X0236672Y0171194D01*
X0236626Y0171208D01*
X0236581Y0171226D01*
X0236538Y0171248D01*
X0236497Y0171273D01*
X0236459Y0171302D01*
X0236422Y0171334D01*
X0236388Y0171368D01*
X0236358Y0171405D01*
X0236330Y0171444D01*
X0236305Y0171486D01*
X0236285Y0171530D01*
X0236267Y0171575D01*
X0236254Y0171621D01*
X0236244Y0171668D01*
X0236238Y0171716D01*
X0236236Y0171764D01*
D13*
X0242202Y0170487D02*
X0242202Y0168636D01*
X0245905Y0168636D01*
X0245905Y0170487D01*
X0245288Y0171104D01*
X0242819Y0171104D01*
X0242202Y0170487D01*
X0242202Y0167414D02*
X0242202Y0166180D01*
X0242202Y0166797D02*
X0245905Y0166797D01*
X0245905Y0166180D02*
X0245905Y0167414D01*
X0245905Y0164966D02*
X0242202Y0164966D01*
X0243436Y0163731D01*
X0242202Y0162497D01*
X0245905Y0162497D01*
X0245288Y0161283D02*
X0242819Y0161283D01*
X0242202Y0160665D01*
X0242202Y0158814D01*
X0245905Y0158814D01*
X0245905Y0160665D01*
X0245288Y0161283D01*
X0245905Y0157599D02*
X0242202Y0157599D01*
X0242202Y0155131D02*
X0245905Y0157599D01*
X0245905Y0155131D02*
X0242202Y0155131D01*
X0242202Y0153910D02*
X0242202Y0152675D01*
X0242202Y0153292D02*
X0245905Y0153292D01*
X0245905Y0152675D02*
X0245905Y0153910D01*
X0203546Y0170320D02*
X0201078Y0170320D01*
X0201078Y0166617D01*
X0199863Y0166617D02*
X0199863Y0170320D01*
X0198629Y0169085D01*
X0197395Y0170320D01*
X0197395Y0166617D01*
X0196174Y0166617D02*
X0194939Y0166617D01*
X0195556Y0166617D02*
X0195556Y0170320D01*
X0194939Y0170320D02*
X0196174Y0170320D01*
X0201078Y0168468D02*
X0202312Y0168468D01*
X0105442Y0166449D02*
X0104825Y0167066D01*
X0103590Y0167066D01*
X0102973Y0166449D01*
X0102973Y0163980D01*
X0103590Y0163363D01*
X0104825Y0163363D01*
X0105442Y0163980D01*
X0105442Y0165215D01*
X0104207Y0165215D01*
X0101759Y0163363D02*
X0101759Y0167066D01*
X0099290Y0167066D02*
X0101759Y0163363D01*
X0099290Y0163363D02*
X0099290Y0167066D01*
X0098075Y0166449D02*
X0098075Y0165215D01*
X0097458Y0164598D01*
X0095607Y0164598D01*
X0096841Y0164598D02*
X0098075Y0163363D01*
X0095607Y0163363D02*
X0095607Y0167066D01*
X0097458Y0167066D01*
X0098075Y0166449D01*
X0094392Y0166449D02*
X0094392Y0167066D01*
X0094392Y0166449D02*
X0093158Y0165215D01*
X0093158Y0163363D01*
X0093158Y0165215D02*
X0091924Y0166449D01*
X0091924Y0167066D01*
X0090709Y0167066D02*
X0088240Y0164598D01*
X0088858Y0165215D02*
X0090709Y0163363D01*
X0088240Y0163363D02*
X0088240Y0167066D01*
X0087026Y0166449D02*
X0087026Y0165215D01*
X0086409Y0164598D01*
X0084557Y0164598D01*
X0084557Y0163363D02*
X0084557Y0167066D01*
X0086409Y0167066D01*
X0087026Y0166449D01*
X0087808Y0135420D02*
X0087808Y0134803D01*
X0089043Y0133568D01*
X0089043Y0131717D01*
X0089043Y0133568D02*
X0090277Y0134803D01*
X0090277Y0135420D01*
X0091492Y0135420D02*
X0091492Y0131717D01*
X0091492Y0133568D02*
X0092726Y0133568D01*
X0091492Y0135420D02*
X0093960Y0135420D01*
X0086594Y0134803D02*
X0086594Y0133568D01*
X0085977Y0132951D01*
X0084125Y0132951D01*
X0084125Y0131717D02*
X0084125Y0135420D01*
X0085977Y0135420D01*
X0086594Y0134803D01*
X0037257Y0138801D02*
X0034789Y0138801D01*
X0033574Y0140035D02*
X0033574Y0137566D01*
X0032957Y0136949D01*
X0031105Y0136949D01*
X0031105Y0140652D01*
X0032957Y0140652D01*
X0033574Y0140035D01*
X0032583Y0133315D02*
X0030731Y0133315D01*
X0030731Y0129612D01*
X0032583Y0129612D01*
X0033200Y0130229D01*
X0033200Y0132698D01*
X0032583Y0133315D01*
X0034415Y0131464D02*
X0036883Y0131464D01*
X0035649Y0132698D02*
X0035649Y0130229D01*
X0033019Y0108220D02*
X0030551Y0108220D01*
X0031785Y0108220D02*
X0031785Y0104517D01*
X0029336Y0105134D02*
X0028719Y0104517D01*
X0027485Y0104517D01*
X0026867Y0105134D01*
X0025653Y0104517D02*
X0024419Y0105751D01*
X0025036Y0105751D02*
X0023184Y0105751D01*
X0023184Y0104517D02*
X0023184Y0108220D01*
X0025036Y0108220D01*
X0025653Y0107603D01*
X0025653Y0106368D01*
X0025036Y0105751D01*
X0026867Y0106985D02*
X0027485Y0106368D01*
X0028719Y0106368D01*
X0029336Y0105751D01*
X0029336Y0105134D01*
X0029336Y0107603D02*
X0028719Y0108220D01*
X0027485Y0108220D01*
X0026867Y0107603D01*
X0026867Y0106985D01*
X0017450Y0105210D02*
X0017450Y0103358D01*
X0013747Y0103358D01*
X0013747Y0105210D01*
X0014364Y0105827D01*
X0016833Y0105827D01*
X0017450Y0105210D01*
X0017450Y0102144D02*
X0013747Y0102144D01*
X0013747Y0099675D02*
X0017450Y0102144D01*
X0017450Y0099675D02*
X0013747Y0099675D01*
X0014364Y0098461D02*
X0013747Y0097844D01*
X0013747Y0096609D01*
X0014364Y0095992D01*
X0016833Y0095992D01*
X0017450Y0096609D01*
X0017450Y0097844D01*
X0016833Y0098461D01*
X0015598Y0098461D01*
X0015598Y0097226D01*
X0011763Y0096958D02*
X0010529Y0095724D01*
X0010529Y0096341D02*
X0010529Y0094489D01*
X0011763Y0094489D02*
X0008060Y0094489D01*
X0008060Y0096341D01*
X0008677Y0096958D01*
X0009912Y0096958D01*
X0010529Y0096341D01*
X0011763Y0093275D02*
X0011763Y0090806D01*
X0008060Y0090806D01*
X0008060Y0093275D01*
X0009912Y0092041D02*
X0009912Y0090806D01*
X0011146Y0089592D02*
X0008677Y0089592D01*
X0008060Y0088975D01*
X0008060Y0087123D01*
X0011763Y0087123D01*
X0011763Y0088975D01*
X0011146Y0089592D01*
X0011763Y0085909D02*
X0009295Y0085909D01*
X0008060Y0084674D01*
X0009295Y0083440D01*
X0011763Y0083440D01*
X0011146Y0082226D02*
X0008677Y0082226D01*
X0008060Y0081608D01*
X0008060Y0080374D01*
X0008677Y0079757D01*
X0011146Y0079757D01*
X0011763Y0080374D01*
X0011763Y0081608D01*
X0011146Y0082226D01*
X0009912Y0083440D02*
X0009912Y0085909D01*
X0011763Y0078542D02*
X0011763Y0076074D01*
X0008060Y0076074D01*
X0008060Y0074859D02*
X0008060Y0072391D01*
X0008060Y0073625D02*
X0011763Y0073625D01*
X0011146Y0071176D02*
X0008677Y0071176D01*
X0008060Y0070559D01*
X0008060Y0069325D01*
X0008677Y0068707D01*
X0011146Y0068707D01*
X0011763Y0069325D01*
X0011763Y0070559D01*
X0011146Y0071176D01*
X0011146Y0067493D02*
X0008677Y0067493D01*
X0008060Y0066876D01*
X0008060Y0065641D01*
X0008677Y0065024D01*
X0011146Y0065024D01*
X0011763Y0065641D01*
X0011763Y0066876D01*
X0011146Y0067493D01*
X0011146Y0063810D02*
X0011763Y0063193D01*
X0011763Y0061341D01*
X0008060Y0061341D01*
X0008060Y0063193D01*
X0008677Y0063810D01*
X0009295Y0063810D01*
X0009912Y0063193D01*
X0009912Y0061341D01*
X0009912Y0063193D02*
X0010529Y0063810D01*
X0011146Y0063810D01*
X0051344Y0050634D02*
X0051961Y0049400D01*
X0053195Y0048165D01*
X0053195Y0050017D01*
X0053812Y0050634D01*
X0054430Y0050634D01*
X0055047Y0050017D01*
X0055047Y0048783D01*
X0054430Y0048165D01*
X0053195Y0048165D01*
X0055047Y0046951D02*
X0055047Y0044482D01*
X0055047Y0045717D02*
X0051344Y0045717D01*
X0052578Y0044482D01*
X0051961Y0043268D02*
X0051344Y0042651D01*
X0051344Y0041416D01*
X0051961Y0040799D01*
X0054430Y0040799D01*
X0055047Y0041416D01*
X0055047Y0042651D01*
X0054430Y0043268D01*
X0051961Y0043268D01*
X0092267Y0048820D02*
X0094736Y0048820D01*
X0095950Y0048820D02*
X0098419Y0048820D01*
X0097184Y0046968D02*
X0095950Y0046968D01*
X0095950Y0045117D02*
X0095950Y0048820D01*
X0093501Y0048820D02*
X0093501Y0045117D01*
X0128029Y0044387D02*
X0129263Y0045621D01*
X0128029Y0046855D01*
X0131732Y0046855D01*
X0131732Y0048070D02*
X0131732Y0049921D01*
X0131115Y0050539D01*
X0130498Y0050539D01*
X0129880Y0049921D01*
X0129880Y0048070D01*
X0128029Y0048070D02*
X0131732Y0048070D01*
X0129880Y0049921D02*
X0129263Y0050539D01*
X0128646Y0050539D01*
X0128029Y0049921D01*
X0128029Y0048070D01*
X0128029Y0044387D02*
X0131732Y0044387D01*
X0131732Y0043172D02*
X0128029Y0043172D01*
X0129880Y0043172D02*
X0129880Y0040704D01*
X0128029Y0040704D02*
X0131732Y0040704D01*
X0131732Y0038255D02*
X0128029Y0038255D01*
X0128029Y0039489D02*
X0128029Y0037020D01*
D14*
X0094897Y0100308D02*
X0094899Y0100387D01*
X0094905Y0100466D01*
X0094915Y0100545D01*
X0094929Y0100623D01*
X0094946Y0100700D01*
X0094968Y0100776D01*
X0094993Y0100851D01*
X0095023Y0100924D01*
X0095055Y0100996D01*
X0095092Y0101067D01*
X0095132Y0101135D01*
X0095175Y0101201D01*
X0095221Y0101265D01*
X0095271Y0101327D01*
X0095324Y0101386D01*
X0095379Y0101442D01*
X0095438Y0101496D01*
X0095499Y0101546D01*
X0095562Y0101594D01*
X0095628Y0101638D01*
X0095696Y0101679D01*
X0095766Y0101716D01*
X0095837Y0101750D01*
X0095911Y0101780D01*
X0095985Y0101806D01*
X0096061Y0101828D01*
X0096138Y0101847D01*
X0096216Y0101862D01*
X0096294Y0101873D01*
X0096373Y0101880D01*
X0096452Y0101883D01*
X0096531Y0101882D01*
X0096610Y0101877D01*
X0096689Y0101868D01*
X0096767Y0101855D01*
X0096844Y0101838D01*
X0096921Y0101818D01*
X0096996Y0101793D01*
X0097070Y0101765D01*
X0097143Y0101733D01*
X0097213Y0101698D01*
X0097282Y0101659D01*
X0097349Y0101616D01*
X0097414Y0101570D01*
X0097476Y0101522D01*
X0097536Y0101470D01*
X0097593Y0101415D01*
X0097647Y0101357D01*
X0097698Y0101297D01*
X0097746Y0101234D01*
X0097791Y0101169D01*
X0097833Y0101101D01*
X0097871Y0101032D01*
X0097905Y0100961D01*
X0097936Y0100888D01*
X0097964Y0100813D01*
X0097987Y0100738D01*
X0098007Y0100661D01*
X0098023Y0100584D01*
X0098035Y0100505D01*
X0098043Y0100427D01*
X0098047Y0100348D01*
X0098047Y0100268D01*
X0098043Y0100189D01*
X0098035Y0100111D01*
X0098023Y0100032D01*
X0098007Y0099955D01*
X0097987Y0099878D01*
X0097964Y0099803D01*
X0097936Y0099728D01*
X0097905Y0099655D01*
X0097871Y0099584D01*
X0097833Y0099515D01*
X0097791Y0099447D01*
X0097746Y0099382D01*
X0097698Y0099319D01*
X0097647Y0099259D01*
X0097593Y0099201D01*
X0097536Y0099146D01*
X0097476Y0099094D01*
X0097414Y0099046D01*
X0097349Y0099000D01*
X0097282Y0098957D01*
X0097213Y0098918D01*
X0097143Y0098883D01*
X0097070Y0098851D01*
X0096996Y0098823D01*
X0096921Y0098798D01*
X0096844Y0098778D01*
X0096767Y0098761D01*
X0096689Y0098748D01*
X0096610Y0098739D01*
X0096531Y0098734D01*
X0096452Y0098733D01*
X0096373Y0098736D01*
X0096294Y0098743D01*
X0096216Y0098754D01*
X0096138Y0098769D01*
X0096061Y0098788D01*
X0095985Y0098810D01*
X0095911Y0098836D01*
X0095837Y0098866D01*
X0095766Y0098900D01*
X0095696Y0098937D01*
X0095628Y0098978D01*
X0095562Y0099022D01*
X0095499Y0099070D01*
X0095438Y0099120D01*
X0095379Y0099174D01*
X0095324Y0099230D01*
X0095271Y0099289D01*
X0095221Y0099351D01*
X0095175Y0099415D01*
X0095132Y0099481D01*
X0095092Y0099549D01*
X0095055Y0099620D01*
X0095023Y0099692D01*
X0094993Y0099765D01*
X0094968Y0099840D01*
X0094946Y0099916D01*
X0094929Y0099993D01*
X0094915Y0100071D01*
X0094905Y0100150D01*
X0094899Y0100229D01*
X0094897Y0100308D01*
D15*
X0088012Y0105803D02*
X0088012Y0110407D01*
X0085710Y0108105D01*
X0088780Y0108105D01*
X0084176Y0105803D02*
X0081106Y0105803D01*
X0082641Y0105803D02*
X0082641Y0110407D01*
X0081106Y0108872D01*
X0079572Y0109639D02*
X0078804Y0110407D01*
X0077270Y0110407D01*
X0076502Y0109639D01*
X0076502Y0106570D01*
X0077270Y0105803D01*
X0078804Y0105803D01*
X0079572Y0106570D01*
X0078499Y0110532D02*
X0078499Y0112834D01*
X0079267Y0113601D01*
X0080801Y0113601D01*
X0081569Y0112834D01*
X0081569Y0110532D01*
X0083103Y0110532D02*
X0078499Y0110532D01*
X0075229Y0110532D02*
X0075229Y0113601D01*
X0075229Y0112067D02*
X0070625Y0112067D01*
X0072160Y0110532D01*
X0071393Y0108997D02*
X0070625Y0108230D01*
X0070625Y0106695D01*
X0071393Y0105928D01*
X0074462Y0105928D01*
X0075229Y0106695D01*
X0075229Y0108230D01*
X0074462Y0108997D01*
X0075229Y0115136D02*
X0075229Y0118205D01*
X0075229Y0116671D02*
X0070625Y0116671D01*
X0072160Y0115136D01*
X0067355Y0115903D02*
X0067355Y0117438D01*
X0066588Y0118205D01*
X0063519Y0118205D01*
X0066588Y0115136D01*
X0067355Y0115903D01*
X0066588Y0115136D02*
X0063519Y0115136D01*
X0062751Y0115903D01*
X0062751Y0117438D01*
X0063519Y0118205D01*
X0059481Y0118205D02*
X0059481Y0115136D01*
X0056412Y0118205D01*
X0055645Y0118205D01*
X0054877Y0117438D01*
X0054877Y0115903D01*
X0055645Y0115136D01*
X0054877Y0112067D02*
X0059481Y0112067D01*
X0059481Y0113601D02*
X0059481Y0110532D01*
X0058714Y0108997D02*
X0059481Y0108230D01*
X0059481Y0106695D01*
X0058714Y0105928D01*
X0055645Y0105928D01*
X0054877Y0106695D01*
X0054877Y0108230D01*
X0055645Y0108997D01*
X0056412Y0110532D02*
X0054877Y0112067D01*
X0062751Y0112067D02*
X0064286Y0110532D01*
X0063519Y0108997D02*
X0062751Y0108230D01*
X0062751Y0106695D01*
X0063519Y0105928D01*
X0066588Y0105928D01*
X0067355Y0106695D01*
X0067355Y0108230D01*
X0066588Y0108997D01*
X0067355Y0110532D02*
X0067355Y0113601D01*
X0067355Y0112067D02*
X0062751Y0112067D01*
X0049639Y0123075D02*
X0045035Y0123075D01*
X0045035Y0125377D01*
X0045802Y0126144D01*
X0047337Y0126144D01*
X0048104Y0125377D01*
X0048104Y0123075D01*
X0048104Y0124609D02*
X0049639Y0126144D01*
X0049639Y0127678D02*
X0049639Y0130748D01*
X0049639Y0129213D02*
X0045035Y0129213D01*
X0046569Y0127678D01*
X0051850Y0132318D02*
X0052617Y0131551D01*
X0054152Y0131551D01*
X0054919Y0132318D01*
X0054919Y0136155D01*
X0056454Y0135388D02*
X0057221Y0136155D01*
X0058755Y0136155D01*
X0059523Y0135388D01*
X0061057Y0135388D02*
X0061825Y0136155D01*
X0063359Y0136155D01*
X0064127Y0135388D01*
X0064127Y0134620D01*
X0063359Y0133853D01*
X0064127Y0133086D01*
X0064127Y0132318D01*
X0063359Y0131551D01*
X0061825Y0131551D01*
X0061057Y0132318D01*
X0059523Y0132318D02*
X0059523Y0133086D01*
X0058755Y0133853D01*
X0057221Y0133853D01*
X0056454Y0134620D01*
X0056454Y0135388D01*
X0057988Y0136922D02*
X0057988Y0130784D01*
X0057221Y0131551D02*
X0058755Y0131551D01*
X0059523Y0132318D01*
X0057221Y0131551D02*
X0056454Y0132318D01*
X0051850Y0132318D02*
X0051850Y0136155D01*
X0062592Y0133853D02*
X0063359Y0133853D01*
X0079267Y0118205D02*
X0080034Y0118205D01*
X0080801Y0117438D01*
X0081569Y0118205D01*
X0082336Y0118205D01*
X0083103Y0117438D01*
X0083103Y0115903D01*
X0082336Y0115136D01*
X0083103Y0113601D02*
X0081569Y0112067D01*
X0079267Y0115136D02*
X0078499Y0115903D01*
X0078499Y0117438D01*
X0079267Y0118205D01*
X0080801Y0117438D02*
X0080801Y0116671D01*
X0111300Y0108943D02*
X0112927Y0110571D01*
X0115098Y0110571D01*
X0115640Y0111114D01*
X0116725Y0110028D02*
X0113470Y0106773D01*
X0115640Y0104603D01*
X0115564Y0103260D02*
X0117192Y0104888D01*
X0118277Y0104888D01*
X0119362Y0103803D01*
X0119362Y0102718D01*
X0117735Y0101090D01*
X0118896Y0101347D02*
X0116725Y0103517D01*
X0119981Y0106773D01*
X0118820Y0106516D02*
X0120990Y0108686D01*
X0122075Y0109771D02*
X0125331Y0106516D01*
X0127501Y0108686D01*
X0128586Y0109771D02*
X0125331Y0113027D01*
X0130757Y0111942D01*
X0127501Y0115197D01*
X0124246Y0111942D02*
X0122075Y0109771D01*
X0123703Y0108144D02*
X0124788Y0109229D01*
X0124246Y0105431D02*
X0122075Y0103260D01*
X0118820Y0106516D01*
X0118896Y0107858D02*
X0116725Y0110028D01*
X0115098Y0108401D02*
X0116183Y0107316D01*
X0112927Y0110571D02*
X0112927Y0112741D01*
X0113470Y0113284D01*
X0121533Y0105973D02*
X0120448Y0104888D01*
X0120990Y0102175D02*
X0118820Y0102175D01*
X0118820Y0100005D02*
X0115564Y0103260D01*
X0115022Y0101633D02*
X0113937Y0101633D01*
X0112852Y0100548D01*
X0112852Y0099462D01*
X0115022Y0097292D01*
X0116107Y0097292D01*
X0117192Y0098377D01*
X0117192Y0099462D01*
X0116107Y0100548D01*
X0115022Y0099462D01*
X0119981Y0100262D02*
X0122151Y0098092D01*
X0123779Y0097549D02*
X0123779Y0096464D01*
X0124864Y0095379D01*
X0125949Y0095379D01*
X0128120Y0097549D01*
X0128120Y0098634D01*
X0127034Y0099719D01*
X0125949Y0099719D01*
X0123779Y0097549D01*
X0123900Y0096814D02*
X0124873Y0098900D01*
X0125892Y0099271D01*
X0128674Y0097974D01*
X0129045Y0096955D01*
X0128072Y0094868D01*
X0123900Y0096814D01*
X0123251Y0095423D02*
X0121954Y0092641D01*
X0126127Y0090696D01*
X0127424Y0093477D01*
X0126492Y0093751D02*
X0128662Y0093751D01*
X0128662Y0091581D01*
X0131918Y0094836D01*
X0129747Y0097007D02*
X0126492Y0093751D01*
X0124689Y0093059D02*
X0124040Y0091669D01*
X0123392Y0090278D02*
X0123763Y0089258D01*
X0122790Y0087172D01*
X0123439Y0088563D02*
X0125478Y0089305D01*
X0123392Y0090278D02*
X0122001Y0090926D01*
X0120981Y0090555D01*
X0120008Y0088469D01*
X0124181Y0086523D01*
X0119981Y0100262D02*
X0123236Y0103517D01*
X0117611Y0132293D02*
X0114542Y0132293D01*
X0113775Y0133061D01*
X0113775Y0134595D01*
X0114542Y0135363D01*
X0116077Y0136897D02*
X0116077Y0139967D01*
X0118379Y0139199D02*
X0113775Y0139199D01*
X0116077Y0136897D01*
X0117611Y0135363D02*
X0118379Y0134595D01*
X0118379Y0133061D01*
X0117611Y0132293D01*
X0117602Y0144219D02*
X0114533Y0144219D01*
X0113765Y0144987D01*
X0113765Y0146521D01*
X0114533Y0147289D01*
X0116067Y0148823D02*
X0116067Y0151125D01*
X0116835Y0151893D01*
X0117602Y0151893D01*
X0118369Y0151125D01*
X0118369Y0149591D01*
X0117602Y0148823D01*
X0116067Y0148823D01*
X0114533Y0150358D01*
X0113765Y0151893D01*
X0117602Y0147289D02*
X0118369Y0146521D01*
X0118369Y0144987D01*
X0117602Y0144219D01*
X0124557Y0151862D02*
X0127626Y0151862D01*
X0128393Y0152629D01*
X0128393Y0154164D01*
X0127626Y0154931D01*
X0127626Y0156465D02*
X0128393Y0157233D01*
X0128393Y0158767D01*
X0127626Y0159535D01*
X0126091Y0159535D01*
X0125324Y0158767D01*
X0125324Y0158000D01*
X0126091Y0156465D01*
X0123789Y0156465D01*
X0123789Y0159535D01*
X0124557Y0154931D02*
X0123789Y0154164D01*
X0123789Y0152629D01*
X0124557Y0151862D01*
X0136296Y0151093D02*
X0140900Y0151093D01*
X0140900Y0149559D02*
X0140900Y0152628D01*
X0140133Y0154163D02*
X0140900Y0154930D01*
X0140900Y0156465D01*
X0140133Y0157232D01*
X0137063Y0157232D01*
X0136296Y0156465D01*
X0136296Y0154930D01*
X0137063Y0154163D01*
X0137831Y0154163D01*
X0138598Y0154930D01*
X0138598Y0157232D01*
X0136296Y0151093D02*
X0137831Y0149559D01*
X0137063Y0148024D02*
X0136296Y0147257D01*
X0136296Y0145722D01*
X0137063Y0144955D01*
X0140133Y0144955D01*
X0140900Y0145722D01*
X0140900Y0147257D01*
X0140133Y0148024D01*
X0143719Y0167854D02*
X0145254Y0167854D01*
X0146021Y0168621D01*
X0146021Y0172458D01*
X0147555Y0171690D02*
X0148323Y0172458D01*
X0149857Y0172458D01*
X0150625Y0171690D01*
X0152159Y0170923D02*
X0153694Y0172458D01*
X0153694Y0167854D01*
X0152159Y0167854D02*
X0155229Y0167854D01*
X0150625Y0168621D02*
X0150625Y0169388D01*
X0149857Y0170156D01*
X0148323Y0170156D01*
X0147555Y0170923D01*
X0147555Y0171690D01*
X0149090Y0173225D02*
X0149090Y0167086D01*
X0148323Y0167854D02*
X0149857Y0167854D01*
X0150625Y0168621D01*
X0148323Y0167854D02*
X0147555Y0168621D01*
X0143719Y0167854D02*
X0142952Y0168621D01*
X0142952Y0172458D01*
X0138000Y0179467D02*
X0136465Y0179467D01*
X0135698Y0180234D01*
X0135698Y0183303D01*
X0136465Y0184071D01*
X0138000Y0184071D01*
X0138767Y0183303D01*
X0138767Y0181769D02*
X0137233Y0181769D01*
X0138767Y0181769D02*
X0138767Y0180234D01*
X0138000Y0179467D01*
X0128767Y0180234D02*
X0128000Y0179467D01*
X0125698Y0179467D01*
X0125698Y0184071D01*
X0128000Y0184071D01*
X0128767Y0183303D01*
X0128767Y0182536D01*
X0128000Y0181769D01*
X0125698Y0181769D01*
X0128000Y0181769D02*
X0128767Y0181001D01*
X0128767Y0180234D01*
X0126069Y0189667D02*
X0123000Y0189667D01*
X0124535Y0189667D02*
X0124535Y0194271D01*
X0123000Y0192736D01*
X0123000Y0197167D02*
X0125302Y0197167D01*
X0126069Y0197934D01*
X0126069Y0201003D01*
X0125302Y0201771D01*
X0123000Y0201771D01*
X0123000Y0197167D01*
X0123767Y0204667D02*
X0125302Y0204667D01*
X0126069Y0205434D01*
X0126069Y0206969D01*
X0124535Y0206969D01*
X0126069Y0208503D02*
X0125302Y0209271D01*
X0123767Y0209271D01*
X0123000Y0208503D01*
X0123000Y0205434D01*
X0123767Y0204667D01*
X0143000Y0206201D02*
X0144535Y0204667D01*
X0146069Y0206201D01*
X0146069Y0209271D01*
X0143000Y0209271D02*
X0143000Y0206201D01*
X0143767Y0201771D02*
X0143000Y0201003D01*
X0143000Y0197934D01*
X0143767Y0197167D01*
X0145302Y0197167D01*
X0146069Y0197934D01*
X0145302Y0194271D02*
X0143767Y0194271D01*
X0143000Y0193503D01*
X0145302Y0194271D02*
X0146069Y0193503D01*
X0146069Y0192736D01*
X0143000Y0189667D01*
X0146069Y0189667D01*
X0146069Y0201003D02*
X0145302Y0201771D01*
X0143767Y0201771D01*
X0174567Y0168771D02*
X0173800Y0168003D01*
X0173800Y0164934D01*
X0174567Y0164167D01*
X0176102Y0164167D01*
X0176869Y0164934D01*
X0176869Y0166469D01*
X0175335Y0166469D01*
X0176869Y0168003D02*
X0176102Y0168771D01*
X0174567Y0168771D01*
X0173800Y0161271D02*
X0176102Y0161271D01*
X0176869Y0160503D01*
X0176869Y0157434D01*
X0176102Y0156667D01*
X0173800Y0156667D01*
X0173800Y0161271D01*
X0175335Y0153771D02*
X0175335Y0149167D01*
X0176869Y0149167D02*
X0173800Y0149167D01*
X0173800Y0152236D02*
X0175335Y0153771D01*
X0193800Y0153003D02*
X0194567Y0153771D01*
X0196102Y0153771D01*
X0196869Y0153003D01*
X0196869Y0152236D01*
X0193800Y0149167D01*
X0196869Y0149167D01*
X0196102Y0156667D02*
X0196869Y0157434D01*
X0196102Y0156667D02*
X0194567Y0156667D01*
X0193800Y0157434D01*
X0193800Y0160503D01*
X0194567Y0161271D01*
X0196102Y0161271D01*
X0196869Y0160503D01*
X0195335Y0164167D02*
X0196869Y0165701D01*
X0196869Y0168771D01*
X0193800Y0168771D02*
X0193800Y0165701D01*
X0195335Y0164167D01*
X0212503Y0146129D02*
X0211735Y0145362D01*
X0211735Y0142292D01*
X0212503Y0141525D01*
X0214037Y0141525D01*
X0214805Y0142292D01*
X0216339Y0141525D02*
X0219409Y0141525D01*
X0217874Y0141525D02*
X0217874Y0146129D01*
X0216339Y0144594D01*
X0214805Y0145362D02*
X0214037Y0146129D01*
X0212503Y0146129D01*
X0223610Y0145381D02*
X0223610Y0142312D01*
X0224378Y0141545D01*
X0225912Y0141545D01*
X0226680Y0142312D01*
X0228214Y0142312D02*
X0228981Y0141545D01*
X0230516Y0141545D01*
X0231283Y0142312D01*
X0231283Y0143079D01*
X0230516Y0143847D01*
X0229749Y0143847D01*
X0230516Y0143847D02*
X0231283Y0144614D01*
X0231283Y0145381D01*
X0230516Y0146149D01*
X0228981Y0146149D01*
X0228214Y0145381D01*
X0226680Y0145381D02*
X0225912Y0146149D01*
X0224378Y0146149D01*
X0223610Y0145381D01*
X0238548Y0137254D02*
X0238548Y0135720D01*
X0239315Y0134952D01*
X0239315Y0133418D02*
X0238548Y0132651D01*
X0238548Y0131116D01*
X0239315Y0130349D01*
X0242385Y0130349D01*
X0243152Y0131116D01*
X0243152Y0132651D01*
X0242385Y0133418D01*
X0243152Y0134952D02*
X0240083Y0138022D01*
X0239315Y0138022D01*
X0238548Y0137254D01*
X0243152Y0138022D02*
X0243152Y0134952D01*
X0240702Y0183967D02*
X0239167Y0183967D01*
X0238400Y0184734D01*
X0238400Y0187803D01*
X0239167Y0188571D01*
X0240702Y0188571D01*
X0241469Y0187803D01*
X0241469Y0184734D02*
X0240702Y0183967D01*
X0240702Y0191467D02*
X0238400Y0191467D01*
X0238400Y0196071D01*
X0240702Y0196071D01*
X0241469Y0195303D01*
X0241469Y0192234D01*
X0240702Y0191467D01*
X0239935Y0198967D02*
X0241469Y0200501D01*
X0241469Y0203571D01*
X0240702Y0206467D02*
X0239167Y0206467D01*
X0238400Y0207234D01*
X0238400Y0210303D01*
X0239167Y0211071D01*
X0240702Y0211071D01*
X0241469Y0210303D01*
X0241469Y0208769D02*
X0239935Y0208769D01*
X0241469Y0208769D02*
X0241469Y0207234D01*
X0240702Y0206467D01*
X0238400Y0203571D02*
X0238400Y0200501D01*
X0239935Y0198967D01*
X0193400Y0195136D02*
X0193400Y0192067D01*
X0193400Y0193601D02*
X0188796Y0193601D01*
X0190331Y0192067D01*
X0189563Y0212067D02*
X0188796Y0212834D01*
X0188796Y0214369D01*
X0189563Y0215136D01*
X0190331Y0215136D01*
X0193400Y0212067D01*
X0193400Y0215136D01*
X0041565Y0121979D02*
X0041565Y0118910D01*
X0038495Y0121979D01*
X0037728Y0121979D01*
X0036961Y0121212D01*
X0036961Y0119677D01*
X0037728Y0118910D01*
X0037728Y0117375D02*
X0039263Y0117375D01*
X0040030Y0116608D01*
X0040030Y0114306D01*
X0041565Y0114306D02*
X0036961Y0114306D01*
X0036961Y0116608D01*
X0037728Y0117375D01*
X0040030Y0115841D02*
X0041565Y0117375D01*
X0036903Y0103395D02*
X0036135Y0103395D01*
X0035368Y0102628D01*
X0035368Y0101860D01*
X0035368Y0102628D02*
X0034601Y0103395D01*
X0033833Y0103395D01*
X0033066Y0102628D01*
X0033066Y0101093D01*
X0033833Y0100326D01*
X0036903Y0100326D02*
X0037670Y0101093D01*
X0037670Y0102628D01*
X0036903Y0103395D01*
X0037670Y0098791D02*
X0037670Y0095722D01*
X0037670Y0097256D02*
X0033066Y0097256D01*
X0034601Y0095722D01*
X0033833Y0094187D02*
X0033066Y0093420D01*
X0033066Y0091885D01*
X0033833Y0091118D01*
X0036903Y0091118D01*
X0037670Y0091885D01*
X0037670Y0093420D01*
X0036903Y0094187D01*
X0024450Y0068506D02*
X0019849Y0068346D01*
X0019929Y0066045D01*
X0020723Y0065305D01*
X0023790Y0065412D01*
X0024530Y0066206D01*
X0024450Y0068506D01*
X0024032Y0058486D02*
X0020965Y0058379D01*
X0020225Y0057585D01*
X0020278Y0056051D01*
X0021072Y0055311D01*
X0024139Y0055418D02*
X0024879Y0056212D01*
X0024826Y0057746D01*
X0024032Y0058486D01*
X0043066Y0057049D02*
X0043066Y0055514D01*
X0043833Y0054747D01*
X0046903Y0054747D01*
X0047670Y0055514D01*
X0047670Y0057049D01*
X0046903Y0057816D01*
X0047670Y0059351D02*
X0047670Y0062420D01*
X0047670Y0060886D02*
X0043066Y0060886D01*
X0044601Y0059351D01*
X0043833Y0057816D02*
X0043066Y0057049D01*
X0043066Y0063955D02*
X0045368Y0063955D01*
X0044601Y0065489D01*
X0044601Y0066257D01*
X0045368Y0067024D01*
X0046903Y0067024D01*
X0047670Y0066257D01*
X0047670Y0064722D01*
X0046903Y0063955D01*
X0043066Y0063955D02*
X0043066Y0067024D01*
X0079155Y0043849D02*
X0079155Y0040780D01*
X0079922Y0040012D01*
X0081457Y0040012D01*
X0082224Y0040780D01*
X0083759Y0040012D02*
X0086828Y0040012D01*
X0085294Y0040012D02*
X0085294Y0044616D01*
X0083759Y0043082D01*
X0082224Y0043849D02*
X0081457Y0044616D01*
X0079922Y0044616D01*
X0079155Y0043849D01*
X0088363Y0042314D02*
X0088363Y0040780D01*
X0089130Y0040012D01*
X0090665Y0040012D01*
X0091432Y0040780D01*
X0091432Y0041547D01*
X0090665Y0042314D01*
X0088363Y0042314D01*
X0089898Y0043849D01*
X0091432Y0044616D01*
X0082400Y0031932D02*
X0082400Y0028863D01*
X0082400Y0030397D02*
X0077796Y0030397D01*
X0079331Y0028863D01*
X0082400Y0027328D02*
X0082400Y0024259D01*
X0082400Y0025793D02*
X0077796Y0025793D01*
X0079331Y0024259D01*
X0080098Y0022724D02*
X0080865Y0021957D01*
X0080865Y0019655D01*
X0080865Y0021189D02*
X0082400Y0022724D01*
X0080098Y0022724D02*
X0078563Y0022724D01*
X0077796Y0021957D01*
X0077796Y0019655D01*
X0082400Y0019655D01*
X0074450Y0019655D02*
X0069846Y0019655D01*
X0069846Y0021957D01*
X0070613Y0022724D01*
X0072148Y0022724D01*
X0072915Y0021957D01*
X0072915Y0019655D01*
X0072915Y0021189D02*
X0074450Y0022724D01*
X0074450Y0024259D02*
X0074450Y0027328D01*
X0074450Y0025793D02*
X0069846Y0025793D01*
X0071381Y0024259D01*
X0070613Y0028863D02*
X0069846Y0029630D01*
X0069846Y0031165D01*
X0070613Y0031932D01*
X0073683Y0028863D01*
X0074450Y0029630D01*
X0074450Y0031165D01*
X0073683Y0031932D01*
X0070613Y0031932D01*
X0070613Y0028863D02*
X0073683Y0028863D01*
X0070900Y0007471D02*
X0068598Y0007471D01*
X0068598Y0002867D01*
X0070900Y0002867D01*
X0071667Y0003634D01*
X0071667Y0006703D01*
X0070900Y0007471D01*
X0061667Y0006703D02*
X0060900Y0007471D01*
X0059365Y0007471D01*
X0058598Y0006703D01*
X0058598Y0003634D01*
X0059365Y0002867D01*
X0060900Y0002867D01*
X0061667Y0003634D01*
X0035865Y0007334D02*
X0035098Y0006567D01*
X0033563Y0006567D01*
X0032796Y0007334D01*
X0032796Y0008101D01*
X0033563Y0008869D01*
X0035098Y0008869D01*
X0035865Y0008101D01*
X0035865Y0007334D01*
X0035098Y0008869D02*
X0035865Y0009636D01*
X0035865Y0010403D01*
X0035098Y0011171D01*
X0033563Y0011171D01*
X0032796Y0010403D01*
X0032796Y0009636D01*
X0033563Y0008869D01*
X0031261Y0006567D02*
X0028192Y0006567D01*
X0029727Y0006567D02*
X0029727Y0011171D01*
X0028192Y0009636D01*
X0026657Y0010403D02*
X0025890Y0011171D01*
X0024356Y0011171D01*
X0023588Y0010403D01*
X0023588Y0007334D01*
X0024356Y0006567D01*
X0025890Y0006567D01*
X0026657Y0007334D01*
X0030863Y0013155D02*
X0033933Y0013155D01*
X0034700Y0013922D01*
X0034700Y0015457D01*
X0033933Y0016224D01*
X0034700Y0017759D02*
X0034700Y0020828D01*
X0034700Y0019293D02*
X0030096Y0019293D01*
X0031631Y0017759D01*
X0030863Y0016224D02*
X0030096Y0015457D01*
X0030096Y0013922D01*
X0030863Y0013155D01*
X0030096Y0022363D02*
X0030096Y0025432D01*
X0030863Y0025432D01*
X0033933Y0022363D01*
X0034700Y0022363D01*
X0094994Y0021982D02*
X0095761Y0021215D01*
X0097296Y0021215D01*
X0098063Y0021982D01*
X0099598Y0021982D02*
X0099598Y0021215D01*
X0099598Y0021982D02*
X0102667Y0025051D01*
X0102667Y0025819D01*
X0099598Y0025819D01*
X0098063Y0025051D02*
X0097296Y0025819D01*
X0095761Y0025819D01*
X0094994Y0025051D01*
X0094994Y0021982D01*
X0106880Y0021998D02*
X0107647Y0021230D01*
X0109181Y0021230D01*
X0109949Y0021998D01*
X0111483Y0021998D02*
X0112251Y0021230D01*
X0113785Y0021230D01*
X0114553Y0021998D01*
X0114553Y0025067D01*
X0113785Y0025834D01*
X0112251Y0025834D01*
X0111483Y0025067D01*
X0111483Y0024300D01*
X0112251Y0023532D01*
X0114553Y0023532D01*
X0109949Y0025067D02*
X0109181Y0025834D01*
X0107647Y0025834D01*
X0106880Y0025067D01*
X0106880Y0021998D01*
X0121806Y0017044D02*
X0121806Y0015510D01*
X0122574Y0014742D01*
X0123341Y0014742D01*
X0124108Y0015510D01*
X0124108Y0017044D01*
X0124876Y0017812D01*
X0125643Y0017812D01*
X0126410Y0017044D01*
X0126410Y0015510D01*
X0125643Y0014742D01*
X0124876Y0014742D01*
X0124108Y0015510D01*
X0124108Y0017044D02*
X0123341Y0017812D01*
X0122574Y0017812D01*
X0121806Y0017044D01*
X0122574Y0013208D02*
X0121806Y0012440D01*
X0121806Y0010906D01*
X0122574Y0010138D01*
X0125643Y0010138D01*
X0126410Y0010906D01*
X0126410Y0012440D01*
X0125643Y0013208D01*
D16*
X0145803Y0145508D02*
X0145803Y0166768D01*
X0162732Y0166768D01*
X0162732Y0145508D01*
X0145803Y0145508D01*
D17*
X0147870Y0163815D03*
M02*
