%
M48
M72
T01C0.01200
T02C0.01500
T03C0.01518
T04C0.02756
T05C0.03543
T06C0.04724
T07C0.05000
T08C0.11811
%
T01
X24200Y75450
X24250Y80100
X28900Y80100
X28900Y75450
X93500Y144700
X93500Y148650
X97450Y148650
X97450Y144700
X111250Y44300
X115200Y44300
X115200Y40350
X111250Y40350
X225400Y158450
X229350Y158450
X229350Y162450
X225400Y162450
T02
X219200Y172200
X210300Y180600
X202700Y181400
X201900Y188850
X219700Y183900
X234700Y171300
X242000Y147100
X243100Y141950
X230750Y144050
X210650Y123750
X207650Y119100
X202400Y120000
X202950Y125100
X206800Y127750
X201000Y131500
X204000Y135400
X207200Y142500
X207600Y147300
X175850Y149300
X171850Y152750
X167200Y152000
X170100Y147900
X169650Y157300
X175650Y156400
X169000Y179200
X149800Y184650
X116800Y157650
X111000Y160900
X106850Y160750
X106200Y176100
X100600Y175900
X94600Y176200
X88150Y180300
X82100Y157000
X79800Y141000
X62800Y127000
X71800Y122200
X83700Y116600
X92800Y106500
X85700Y105200
X79500Y103800
X75100Y106000
X68900Y104300
X62300Y93000
X65500Y90000
X70400Y90100
X75500Y91000
X83700Y92600
X66600Y78000
X59500Y76700
X57044Y79856
X44800Y78400
X41800Y72700
X34900Y68800
X34350Y63400
X29850Y55850
X22150Y60800
X11800Y81700
X34600Y85900
X45200Y90700
X35400Y105300
X26400Y116400
X11100Y135100
X36700Y156350
X45700Y150400
X50300Y142400
X55350Y151450
X53000Y106000
X61000Y58700
X65700Y42100
X61300Y41200
X74800Y40900
X77800Y45400
X90900Y41150
X97150Y56600
X92500Y57900
X78350Y59250
X106200Y54000
X125300Y55400
X134600Y58400
X140600Y56600
X138900Y52900
X148300Y56800
X137800Y76800
X146400Y99750
X147550Y103700
X152400Y104500
X142700Y119600
X142850Y127250
X152100Y123100
X127850Y123300
X127700Y117850
X105050Y112400
X174500Y107000
X179500Y108000
X126000Y30050
X121300Y30400
X103650Y10200
X110400Y8450
X118250Y6600
X97750Y10350
X89800Y11250
X84300Y9400
X79900Y12450
X84450Y14700
X87300Y18650
X80100Y17800
X147850Y19800
T03
X39900Y20800
X42400Y27500
X27200Y36400
X27200Y45600
X62700Y74500
X64700Y63900
X66000Y59100
X75600Y65900
X85400Y69700
X86800Y75800
X90100Y80300
X85700Y81600
X89100Y61700
X84100Y30000
X62800Y14000
X143100Y95500
X142300Y99600
X102400Y115900
X102600Y128100
X159500Y177000
X163800Y177600
T04
X137800Y190100
X137800Y197600
X137800Y205100
X130300Y205100
X130300Y197600
X130300Y190100
X191100Y197500
X191100Y205000
X245700Y206900
X245700Y199400
X245700Y191900
X245700Y184400
X198900Y58900
X191400Y58900
X191400Y51400
X198900Y51400
X198900Y43900
X191400Y43900
T05
X19923Y129426
X19064Y149092
T06
X8273Y152562
X9475Y125029
T07
X15400Y93600
X104800Y122200
X156400Y12600
X245700Y175100
T08
X241157Y223638
X14268Y167929
X134622Y12811
M30
