G75*
%MOIN*%
%OFA0B0*%
%FSLAX25Y25*%
%IPPOS*%
%LPD*%
%AMOC8*
5,1,8,0,0,1.08239X$1,22.5*
%
%ADD10R,0.02362X0.03346*%
%ADD11R,0.02756X0.03150*%
%ADD12R,0.03346X0.02362*%
%ADD13R,0.03150X0.02756*%
%ADD14R,0.08268X0.08268*%
%ADD15C,0.01378*%
%ADD16R,0.01000X0.05906*%
%ADD17R,0.05906X0.01000*%
%ADD18C,0.00984*%
%ADD19R,0.02756X0.02756*%
%ADD20R,0.00984X0.02559*%
%ADD21R,0.02559X0.00984*%
%ADD22R,0.03543X0.02756*%
%ADD23R,0.04331X0.03937*%
%ADD24R,0.03937X0.04331*%
%ADD25R,0.04724X0.05512*%
%ADD26R,0.01575X0.05315*%
%ADD27C,0.04500*%
%ADD28R,0.04724X0.01378*%
%ADD29R,0.02756X0.03543*%
D10*
G36*
X0160664Y0102627D02*
X0160254Y0100302D01*
X0156960Y0100883D01*
X0157370Y0103208D01*
X0160664Y0102627D01*
G37*
G36*
X0161484Y0107280D02*
X0161074Y0104955D01*
X0157780Y0105536D01*
X0158190Y0107861D01*
X0161484Y0107280D01*
G37*
G36*
X0162305Y0111932D02*
X0161895Y0109607D01*
X0158601Y0110188D01*
X0159011Y0112513D01*
X0162305Y0111932D01*
G37*
G36*
X0163125Y0116585D02*
X0162715Y0114260D01*
X0159421Y0114841D01*
X0159831Y0117166D01*
X0163125Y0116585D01*
G37*
G36*
X0163945Y0121238D02*
X0163535Y0118913D01*
X0160241Y0119494D01*
X0160651Y0121819D01*
X0163945Y0121238D01*
G37*
G36*
X0164766Y0125890D02*
X0164356Y0123565D01*
X0161062Y0124146D01*
X0161472Y0126471D01*
X0164766Y0125890D01*
G37*
G36*
X0120947Y0207113D02*
X0123304Y0207237D01*
X0123479Y0203897D01*
X0121122Y0203773D01*
X0120947Y0207113D01*
G37*
G36*
X0116229Y0206865D02*
X0118586Y0206989D01*
X0118761Y0203649D01*
X0116404Y0203525D01*
X0116229Y0206865D01*
G37*
G36*
X0111511Y0206618D02*
X0113868Y0206742D01*
X0114043Y0203402D01*
X0111686Y0203278D01*
X0111511Y0206618D01*
G37*
G36*
X0106793Y0206371D02*
X0109150Y0206495D01*
X0109325Y0203155D01*
X0106968Y0203031D01*
X0106793Y0206371D01*
G37*
G36*
X0102075Y0206124D02*
X0104432Y0206248D01*
X0104607Y0202908D01*
X0102250Y0202784D01*
X0102075Y0206124D01*
G37*
G36*
X0125665Y0207360D02*
X0128022Y0207484D01*
X0128197Y0204144D01*
X0125840Y0204020D01*
X0125665Y0207360D01*
G37*
G36*
X0165067Y0210061D02*
X0167424Y0210185D01*
X0167599Y0206845D01*
X0165242Y0206721D01*
X0165067Y0210061D01*
G37*
G36*
X0169785Y0210308D02*
X0172142Y0210432D01*
X0172317Y0207092D01*
X0169960Y0206968D01*
X0169785Y0210308D01*
G37*
G36*
X0174503Y0210555D02*
X0176860Y0210679D01*
X0177035Y0207339D01*
X0174678Y0207215D01*
X0174503Y0210555D01*
G37*
G36*
X0179221Y0210802D02*
X0181578Y0210926D01*
X0181753Y0207586D01*
X0179396Y0207462D01*
X0179221Y0210802D01*
G37*
G36*
X0183939Y0211050D02*
X0186296Y0211174D01*
X0186471Y0207834D01*
X0184114Y0207710D01*
X0183939Y0211050D01*
G37*
G36*
X0188657Y0211297D02*
X0191014Y0211421D01*
X0191189Y0208081D01*
X0188832Y0207957D01*
X0188657Y0211297D01*
G37*
X0217024Y0212995D03*
X0221749Y0212995D03*
X0226473Y0212995D03*
X0231198Y0212995D03*
X0235922Y0212995D03*
X0240646Y0212995D03*
G36*
X0113633Y0334039D02*
X0111276Y0333915D01*
X0111101Y0337255D01*
X0113458Y0337379D01*
X0113633Y0334039D01*
G37*
G36*
X0108915Y0333792D02*
X0106558Y0333668D01*
X0106383Y0337008D01*
X0108740Y0337132D01*
X0108915Y0333792D01*
G37*
G36*
X0104197Y0333545D02*
X0101840Y0333421D01*
X0101665Y0336761D01*
X0104022Y0336885D01*
X0104197Y0333545D01*
G37*
G36*
X0099479Y0333298D02*
X0097122Y0333174D01*
X0096947Y0336514D01*
X0099304Y0336638D01*
X0099479Y0333298D01*
G37*
G36*
X0094761Y0333050D02*
X0092404Y0332926D01*
X0092229Y0336266D01*
X0094586Y0336390D01*
X0094761Y0333050D01*
G37*
G36*
X0090043Y0332803D02*
X0087686Y0332679D01*
X0087511Y0336019D01*
X0089868Y0336143D01*
X0090043Y0332803D01*
G37*
X0061676Y0331105D03*
X0056951Y0331105D03*
X0052227Y0331105D03*
X0047502Y0331105D03*
X0042778Y0331105D03*
X0038054Y0331105D03*
G36*
X0113934Y0418210D02*
X0114344Y0420535D01*
X0117638Y0419954D01*
X0117228Y0417629D01*
X0113934Y0418210D01*
G37*
G36*
X0114755Y0422862D02*
X0115165Y0425187D01*
X0118459Y0424606D01*
X0118049Y0422281D01*
X0114755Y0422862D01*
G37*
G36*
X0115575Y0427515D02*
X0115985Y0429840D01*
X0119279Y0429259D01*
X0118869Y0426934D01*
X0115575Y0427515D01*
G37*
G36*
X0116395Y0432168D02*
X0116805Y0434493D01*
X0120099Y0433912D01*
X0119689Y0431587D01*
X0116395Y0432168D01*
G37*
G36*
X0117216Y0436820D02*
X0117626Y0439145D01*
X0120920Y0438564D01*
X0120510Y0436239D01*
X0117216Y0436820D01*
G37*
G36*
X0118036Y0441473D02*
X0118446Y0443798D01*
X0121740Y0443217D01*
X0121330Y0440892D01*
X0118036Y0441473D01*
G37*
G36*
X0204216Y0360362D02*
X0201859Y0360238D01*
X0201684Y0363578D01*
X0204041Y0363702D01*
X0204216Y0360362D01*
G37*
G36*
X0208934Y0360609D02*
X0206577Y0360485D01*
X0206402Y0363825D01*
X0208759Y0363949D01*
X0208934Y0360609D01*
G37*
G36*
X0213652Y0360857D02*
X0211295Y0360733D01*
X0211120Y0364073D01*
X0213477Y0364197D01*
X0213652Y0360857D01*
G37*
G36*
X0218370Y0361104D02*
X0216013Y0360980D01*
X0215838Y0364320D01*
X0218195Y0364444D01*
X0218370Y0361104D01*
G37*
G36*
X0223088Y0361351D02*
X0220731Y0361227D01*
X0220556Y0364567D01*
X0222913Y0364691D01*
X0223088Y0361351D01*
G37*
G36*
X0227806Y0361599D02*
X0225449Y0361475D01*
X0225274Y0364815D01*
X0227631Y0364939D01*
X0227806Y0361599D01*
G37*
G36*
X0176625Y0337976D02*
X0174268Y0337852D01*
X0174093Y0341192D01*
X0176450Y0341316D01*
X0176625Y0337976D01*
G37*
G36*
X0171907Y0337729D02*
X0169550Y0337605D01*
X0169375Y0340945D01*
X0171732Y0341069D01*
X0171907Y0337729D01*
G37*
G36*
X0167189Y0337482D02*
X0164832Y0337358D01*
X0164657Y0340698D01*
X0167014Y0340822D01*
X0167189Y0337482D01*
G37*
G36*
X0162471Y0337235D02*
X0160114Y0337111D01*
X0159939Y0340451D01*
X0162296Y0340575D01*
X0162471Y0337235D01*
G37*
G36*
X0157753Y0336987D02*
X0155396Y0336863D01*
X0155221Y0340203D01*
X0157578Y0340327D01*
X0157753Y0336987D01*
G37*
G36*
X0153035Y0336740D02*
X0150678Y0336616D01*
X0150503Y0339956D01*
X0152860Y0340080D01*
X0153035Y0336740D01*
G37*
G36*
X0074484Y0183738D02*
X0076841Y0183862D01*
X0077016Y0180522D01*
X0074659Y0180398D01*
X0074484Y0183738D01*
G37*
G36*
X0069766Y0183491D02*
X0072123Y0183615D01*
X0072298Y0180275D01*
X0069941Y0180151D01*
X0069766Y0183491D01*
G37*
G36*
X0065048Y0183243D02*
X0067405Y0183367D01*
X0067580Y0180027D01*
X0065223Y0179903D01*
X0065048Y0183243D01*
G37*
G36*
X0060330Y0182996D02*
X0062687Y0183120D01*
X0062862Y0179780D01*
X0060505Y0179656D01*
X0060330Y0182996D01*
G37*
G36*
X0055612Y0182749D02*
X0057969Y0182873D01*
X0058144Y0179533D01*
X0055787Y0179409D01*
X0055612Y0182749D01*
G37*
G36*
X0050894Y0182501D02*
X0053251Y0182625D01*
X0053426Y0179285D01*
X0051069Y0179161D01*
X0050894Y0182501D01*
G37*
X0318754Y0062105D03*
X0323478Y0062105D03*
X0328202Y0062105D03*
X0332927Y0062105D03*
X0337651Y0062105D03*
X0342376Y0062105D03*
G36*
X0370743Y0063803D02*
X0368386Y0063679D01*
X0368211Y0067019D01*
X0370568Y0067143D01*
X0370743Y0063803D01*
G37*
G36*
X0375461Y0064050D02*
X0373104Y0063926D01*
X0372929Y0067266D01*
X0375286Y0067390D01*
X0375461Y0064050D01*
G37*
G36*
X0380179Y0064298D02*
X0377822Y0064174D01*
X0377647Y0067514D01*
X0380004Y0067638D01*
X0380179Y0064298D01*
G37*
G36*
X0384897Y0064545D02*
X0382540Y0064421D01*
X0382365Y0067761D01*
X0384722Y0067885D01*
X0384897Y0064545D01*
G37*
G36*
X0389615Y0064792D02*
X0387258Y0064668D01*
X0387083Y0068008D01*
X0389440Y0068132D01*
X0389615Y0064792D01*
G37*
G36*
X0394333Y0065039D02*
X0391976Y0064915D01*
X0391801Y0068255D01*
X0394158Y0068379D01*
X0394333Y0065039D01*
G37*
G36*
X0433735Y0067740D02*
X0431378Y0067616D01*
X0431203Y0070956D01*
X0433560Y0071080D01*
X0433735Y0067740D01*
G37*
G36*
X0438453Y0067987D02*
X0436096Y0067863D01*
X0435921Y0071203D01*
X0438278Y0071327D01*
X0438453Y0067987D01*
G37*
G36*
X0443171Y0068235D02*
X0440814Y0068111D01*
X0440639Y0071451D01*
X0442996Y0071575D01*
X0443171Y0068235D01*
G37*
G36*
X0447889Y0068482D02*
X0445532Y0068358D01*
X0445357Y0071698D01*
X0447714Y0071822D01*
X0447889Y0068482D01*
G37*
G36*
X0452607Y0068729D02*
X0450250Y0068605D01*
X0450075Y0071945D01*
X0452432Y0072069D01*
X0452607Y0068729D01*
G37*
G36*
X0457325Y0068976D02*
X0454968Y0068852D01*
X0454793Y0072192D01*
X0457150Y0072316D01*
X0457325Y0068976D01*
G37*
G36*
X0484916Y0091362D02*
X0482559Y0091238D01*
X0482384Y0094578D01*
X0484741Y0094702D01*
X0484916Y0091362D01*
G37*
G36*
X0489634Y0091609D02*
X0487277Y0091485D01*
X0487102Y0094825D01*
X0489459Y0094949D01*
X0489634Y0091609D01*
G37*
G36*
X0494352Y0091857D02*
X0491995Y0091733D01*
X0491820Y0095073D01*
X0494177Y0095197D01*
X0494352Y0091857D01*
G37*
G36*
X0499070Y0092104D02*
X0496713Y0091980D01*
X0496538Y0095320D01*
X0498895Y0095444D01*
X0499070Y0092104D01*
G37*
G36*
X0503788Y0092351D02*
X0501431Y0092227D01*
X0501256Y0095567D01*
X0503613Y0095691D01*
X0503788Y0092351D01*
G37*
G36*
X0508506Y0092599D02*
X0506149Y0092475D01*
X0505974Y0095815D01*
X0508331Y0095939D01*
X0508506Y0092599D01*
G37*
G36*
X0398736Y0172473D02*
X0399146Y0174798D01*
X0402440Y0174217D01*
X0402030Y0171892D01*
X0398736Y0172473D01*
G37*
G36*
X0397916Y0167820D02*
X0398326Y0170145D01*
X0401620Y0169564D01*
X0401210Y0167239D01*
X0397916Y0167820D01*
G37*
G36*
X0397095Y0163168D02*
X0397505Y0165493D01*
X0400799Y0164912D01*
X0400389Y0162587D01*
X0397095Y0163168D01*
G37*
G36*
X0396275Y0158515D02*
X0396685Y0160840D01*
X0399979Y0160259D01*
X0399569Y0157934D01*
X0396275Y0158515D01*
G37*
G36*
X0395455Y0153862D02*
X0395865Y0156187D01*
X0399159Y0155606D01*
X0398749Y0153281D01*
X0395455Y0153862D01*
G37*
G36*
X0394634Y0149210D02*
X0395044Y0151535D01*
X0398338Y0150954D01*
X0397928Y0148629D01*
X0394634Y0149210D01*
G37*
G36*
X0451564Y0351627D02*
X0451154Y0349302D01*
X0447860Y0349883D01*
X0448270Y0352208D01*
X0451564Y0351627D01*
G37*
G36*
X0452384Y0356280D02*
X0451974Y0353955D01*
X0448680Y0354536D01*
X0449090Y0356861D01*
X0452384Y0356280D01*
G37*
G36*
X0453205Y0360932D02*
X0452795Y0358607D01*
X0449501Y0359188D01*
X0449911Y0361513D01*
X0453205Y0360932D01*
G37*
G36*
X0454025Y0365585D02*
X0453615Y0363260D01*
X0450321Y0363841D01*
X0450731Y0366166D01*
X0454025Y0365585D01*
G37*
G36*
X0454845Y0370238D02*
X0454435Y0367913D01*
X0451141Y0368494D01*
X0451551Y0370819D01*
X0454845Y0370238D01*
G37*
G36*
X0455666Y0374890D02*
X0455256Y0372565D01*
X0451962Y0373146D01*
X0452372Y0375471D01*
X0455666Y0374890D01*
G37*
G36*
X0455967Y0459061D02*
X0458324Y0459185D01*
X0458499Y0455845D01*
X0456142Y0455721D01*
X0455967Y0459061D01*
G37*
G36*
X0460685Y0459308D02*
X0463042Y0459432D01*
X0463217Y0456092D01*
X0460860Y0455968D01*
X0460685Y0459308D01*
G37*
G36*
X0465403Y0459555D02*
X0467760Y0459679D01*
X0467935Y0456339D01*
X0465578Y0456215D01*
X0465403Y0459555D01*
G37*
G36*
X0470121Y0459802D02*
X0472478Y0459926D01*
X0472653Y0456586D01*
X0470296Y0456462D01*
X0470121Y0459802D01*
G37*
G36*
X0474839Y0460050D02*
X0477196Y0460174D01*
X0477371Y0456834D01*
X0475014Y0456710D01*
X0474839Y0460050D01*
G37*
G36*
X0479557Y0460297D02*
X0481914Y0460421D01*
X0482089Y0457081D01*
X0479732Y0456957D01*
X0479557Y0460297D01*
G37*
X0507924Y0461995D03*
X0512649Y0461995D03*
X0517373Y0461995D03*
X0522098Y0461995D03*
X0526822Y0461995D03*
X0531546Y0461995D03*
G36*
X0416565Y0456360D02*
X0418922Y0456484D01*
X0419097Y0453144D01*
X0416740Y0453020D01*
X0416565Y0456360D01*
G37*
G36*
X0411847Y0456113D02*
X0414204Y0456237D01*
X0414379Y0452897D01*
X0412022Y0452773D01*
X0411847Y0456113D01*
G37*
G36*
X0407129Y0455865D02*
X0409486Y0455989D01*
X0409661Y0452649D01*
X0407304Y0452525D01*
X0407129Y0455865D01*
G37*
G36*
X0402411Y0455618D02*
X0404768Y0455742D01*
X0404943Y0452402D01*
X0402586Y0452278D01*
X0402411Y0455618D01*
G37*
G36*
X0397693Y0455371D02*
X0400050Y0455495D01*
X0400225Y0452155D01*
X0397868Y0452031D01*
X0397693Y0455371D01*
G37*
G36*
X0392975Y0455124D02*
X0395332Y0455248D01*
X0395507Y0451908D01*
X0393150Y0451784D01*
X0392975Y0455124D01*
G37*
G36*
X0365384Y0432738D02*
X0367741Y0432862D01*
X0367916Y0429522D01*
X0365559Y0429398D01*
X0365384Y0432738D01*
G37*
G36*
X0360666Y0432491D02*
X0363023Y0432615D01*
X0363198Y0429275D01*
X0360841Y0429151D01*
X0360666Y0432491D01*
G37*
G36*
X0355948Y0432243D02*
X0358305Y0432367D01*
X0358480Y0429027D01*
X0356123Y0428903D01*
X0355948Y0432243D01*
G37*
G36*
X0351230Y0431996D02*
X0353587Y0432120D01*
X0353762Y0428780D01*
X0351405Y0428656D01*
X0351230Y0431996D01*
G37*
G36*
X0346512Y0431749D02*
X0348869Y0431873D01*
X0349044Y0428533D01*
X0346687Y0428409D01*
X0346512Y0431749D01*
G37*
G36*
X0341794Y0431501D02*
X0344151Y0431625D01*
X0344326Y0428285D01*
X0341969Y0428161D01*
X0341794Y0431501D01*
G37*
D11*
G36*
X0336303Y0445998D02*
X0339054Y0446142D01*
X0339219Y0442998D01*
X0336468Y0442854D01*
X0336303Y0445998D01*
G37*
G36*
X0368935Y0447709D02*
X0371686Y0447853D01*
X0371851Y0444709D01*
X0369100Y0444565D01*
X0368935Y0447709D01*
G37*
G36*
X0387484Y0469620D02*
X0390235Y0469764D01*
X0390400Y0466620D01*
X0387649Y0466476D01*
X0387484Y0469620D01*
G37*
G36*
X0420116Y0471331D02*
X0422867Y0471475D01*
X0423032Y0468331D01*
X0420281Y0468187D01*
X0420116Y0471331D01*
G37*
G36*
X0450476Y0473557D02*
X0453227Y0473701D01*
X0453392Y0470557D01*
X0450641Y0470413D01*
X0450476Y0473557D01*
G37*
G36*
X0483109Y0475268D02*
X0485860Y0475412D01*
X0486025Y0472268D01*
X0483274Y0472124D01*
X0483109Y0475268D01*
G37*
X0503397Y0476857D03*
X0536074Y0476857D03*
G36*
X0471026Y0376979D02*
X0470547Y0374266D01*
X0467446Y0374813D01*
X0467925Y0377526D01*
X0471026Y0376979D01*
G37*
G36*
X0465352Y0344798D02*
X0464873Y0342085D01*
X0461772Y0342632D01*
X0462251Y0345345D01*
X0465352Y0344798D01*
G37*
G36*
X0384948Y0179302D02*
X0385427Y0182015D01*
X0388528Y0181468D01*
X0388049Y0178755D01*
X0384948Y0179302D01*
G37*
G36*
X0379274Y0147121D02*
X0379753Y0149834D01*
X0382854Y0149287D01*
X0382375Y0146574D01*
X0379274Y0147121D01*
G37*
G36*
X0430184Y0052769D02*
X0427433Y0052625D01*
X0427268Y0055769D01*
X0430019Y0055913D01*
X0430184Y0052769D01*
G37*
G36*
X0462816Y0054480D02*
X0460065Y0054336D01*
X0459900Y0057480D01*
X0462651Y0057624D01*
X0462816Y0054480D01*
G37*
G36*
X0481365Y0076391D02*
X0478614Y0076247D01*
X0478449Y0079391D01*
X0481200Y0079535D01*
X0481365Y0076391D01*
G37*
G36*
X0513997Y0078102D02*
X0511246Y0077958D01*
X0511081Y0081102D01*
X0513832Y0081246D01*
X0513997Y0078102D01*
G37*
G36*
X0399824Y0050543D02*
X0397073Y0050399D01*
X0396908Y0053543D01*
X0399659Y0053687D01*
X0399824Y0050543D01*
G37*
G36*
X0367191Y0048832D02*
X0364440Y0048688D01*
X0364275Y0051832D01*
X0367026Y0051976D01*
X0367191Y0048832D01*
G37*
X0346903Y0047243D03*
X0314226Y0047243D03*
G36*
X0180126Y0127979D02*
X0179647Y0125266D01*
X0176546Y0125813D01*
X0177025Y0128526D01*
X0180126Y0127979D01*
G37*
G36*
X0174452Y0095798D02*
X0173973Y0093085D01*
X0170872Y0093632D01*
X0171351Y0096345D01*
X0174452Y0095798D01*
G37*
G36*
X0078035Y0198709D02*
X0080786Y0198853D01*
X0080951Y0195709D01*
X0078200Y0195565D01*
X0078035Y0198709D01*
G37*
G36*
X0096584Y0220620D02*
X0099335Y0220764D01*
X0099500Y0217620D01*
X0096749Y0217476D01*
X0096584Y0220620D01*
G37*
G36*
X0129216Y0222331D02*
X0131967Y0222475D01*
X0132132Y0219331D01*
X0129381Y0219187D01*
X0129216Y0222331D01*
G37*
G36*
X0159576Y0224557D02*
X0162327Y0224701D01*
X0162492Y0221557D01*
X0159741Y0221413D01*
X0159576Y0224557D01*
G37*
G36*
X0192209Y0226268D02*
X0194960Y0226412D01*
X0195125Y0223268D01*
X0192374Y0223124D01*
X0192209Y0226268D01*
G37*
X0212497Y0227857D03*
X0245174Y0227857D03*
G36*
X0182116Y0323480D02*
X0179365Y0323336D01*
X0179200Y0326480D01*
X0181951Y0326624D01*
X0182116Y0323480D01*
G37*
G36*
X0200665Y0345391D02*
X0197914Y0345247D01*
X0197749Y0348391D01*
X0200500Y0348535D01*
X0200665Y0345391D01*
G37*
G36*
X0233297Y0347102D02*
X0230546Y0346958D01*
X0230381Y0350102D01*
X0233132Y0350246D01*
X0233297Y0347102D01*
G37*
G36*
X0149484Y0321769D02*
X0146733Y0321625D01*
X0146568Y0324769D01*
X0149319Y0324913D01*
X0149484Y0321769D01*
G37*
G36*
X0119124Y0319543D02*
X0116373Y0319399D01*
X0116208Y0322543D01*
X0118959Y0322687D01*
X0119124Y0319543D01*
G37*
G36*
X0086491Y0317832D02*
X0083740Y0317688D01*
X0083575Y0320832D01*
X0086326Y0320976D01*
X0086491Y0317832D01*
G37*
X0066203Y0316243D03*
X0033526Y0316243D03*
G36*
X0098574Y0416121D02*
X0099053Y0418834D01*
X0102154Y0418287D01*
X0101675Y0415574D01*
X0098574Y0416121D01*
G37*
G36*
X0104248Y0448302D02*
X0104727Y0451015D01*
X0107828Y0450468D01*
X0107349Y0447755D01*
X0104248Y0448302D01*
G37*
G36*
X0045403Y0196998D02*
X0048154Y0197142D01*
X0048319Y0193998D01*
X0045568Y0193854D01*
X0045403Y0196998D01*
G37*
D12*
X0156788Y0076381D03*
X0156788Y0071657D03*
X0156788Y0066932D03*
X0156788Y0062208D03*
X0156788Y0057483D03*
X0156788Y0052759D03*
X0402612Y0198719D03*
X0402612Y0203443D03*
X0402612Y0208168D03*
X0402612Y0212892D03*
X0402612Y0217617D03*
X0402612Y0222341D03*
X0447688Y0301759D03*
X0447688Y0306483D03*
X0447688Y0311208D03*
X0447688Y0315932D03*
X0447688Y0320657D03*
X0447688Y0325381D03*
X0121912Y0467719D03*
X0121912Y0472443D03*
X0121912Y0477168D03*
X0121912Y0481892D03*
X0121912Y0486617D03*
X0121912Y0491341D03*
D13*
X0107050Y0495869D03*
X0107050Y0463191D03*
X0387750Y0226869D03*
X0387750Y0194191D03*
X0462550Y0297231D03*
X0462550Y0329909D03*
X0171650Y0080909D03*
X0171650Y0048231D03*
D14*
X0124505Y0066539D03*
X0106788Y0170869D03*
X0238678Y0184649D03*
X0320722Y0090451D03*
X0434895Y0208561D03*
X0452612Y0104231D03*
X0415405Y0315539D03*
X0397688Y0419869D03*
X0529578Y0433649D03*
X0171912Y0373231D03*
X0154195Y0477561D03*
X0040022Y0359451D03*
D15*
X0033821Y0358172D02*
X0028309Y0358172D01*
X0028309Y0360731D02*
X0033821Y0360731D01*
X0033821Y0363290D02*
X0028309Y0363290D01*
X0028309Y0355613D02*
X0033821Y0355613D01*
X0036183Y0353250D02*
X0036183Y0347738D01*
X0038743Y0347738D02*
X0038743Y0353250D01*
X0041302Y0353250D02*
X0041302Y0347738D01*
X0043861Y0347738D02*
X0043861Y0353250D01*
X0046223Y0355613D02*
X0051735Y0355613D01*
X0051735Y0358172D02*
X0046223Y0358172D01*
X0046223Y0360731D02*
X0051735Y0360731D01*
X0051735Y0363290D02*
X0046223Y0363290D01*
X0043861Y0365652D02*
X0043861Y0371164D01*
X0041302Y0371164D02*
X0041302Y0365652D01*
X0038743Y0365652D02*
X0038743Y0371164D01*
X0036183Y0371164D02*
X0036183Y0365652D01*
X0142483Y0473723D02*
X0147995Y0473723D01*
X0147995Y0476282D02*
X0142483Y0476282D01*
X0142483Y0478841D02*
X0147995Y0478841D01*
X0147995Y0481400D02*
X0142483Y0481400D01*
X0150357Y0483762D02*
X0150357Y0489274D01*
X0152916Y0489274D02*
X0152916Y0483762D01*
X0155475Y0483762D02*
X0155475Y0489274D01*
X0158034Y0489274D02*
X0158034Y0483762D01*
X0160396Y0481400D02*
X0165908Y0481400D01*
X0165908Y0478841D02*
X0160396Y0478841D01*
X0160396Y0476282D02*
X0165908Y0476282D01*
X0165908Y0473723D02*
X0160396Y0473723D01*
X0158034Y0471361D02*
X0158034Y0465849D01*
X0155475Y0465849D02*
X0155475Y0471361D01*
X0152916Y0471361D02*
X0152916Y0465849D01*
X0150357Y0465849D02*
X0150357Y0471361D01*
X0168073Y0384943D02*
X0168073Y0379431D01*
X0170632Y0379431D02*
X0170632Y0384943D01*
X0173191Y0384943D02*
X0173191Y0379431D01*
X0175750Y0379431D02*
X0175750Y0384943D01*
X0178113Y0377069D02*
X0183625Y0377069D01*
X0183625Y0374510D02*
X0178113Y0374510D01*
X0178113Y0371951D02*
X0183625Y0371951D01*
X0183625Y0369392D02*
X0178113Y0369392D01*
X0175750Y0367030D02*
X0175750Y0361518D01*
X0173191Y0361518D02*
X0173191Y0367030D01*
X0170632Y0367030D02*
X0170632Y0361518D01*
X0168073Y0361518D02*
X0168073Y0367030D01*
X0165711Y0369392D02*
X0160199Y0369392D01*
X0160199Y0371951D02*
X0165711Y0371951D01*
X0165711Y0374510D02*
X0160199Y0374510D01*
X0160199Y0377069D02*
X0165711Y0377069D01*
X0234839Y0196362D02*
X0234839Y0190850D01*
X0237398Y0190850D02*
X0237398Y0196362D01*
X0239957Y0196362D02*
X0239957Y0190850D01*
X0242517Y0190850D02*
X0242517Y0196362D01*
X0244879Y0188487D02*
X0250391Y0188487D01*
X0250391Y0185928D02*
X0244879Y0185928D01*
X0244879Y0183369D02*
X0250391Y0183369D01*
X0250391Y0180810D02*
X0244879Y0180810D01*
X0242517Y0178448D02*
X0242517Y0172936D01*
X0239957Y0172936D02*
X0239957Y0178448D01*
X0237398Y0178448D02*
X0237398Y0172936D01*
X0234839Y0172936D02*
X0234839Y0178448D01*
X0232477Y0180810D02*
X0226965Y0180810D01*
X0226965Y0183369D02*
X0232477Y0183369D01*
X0232477Y0185928D02*
X0226965Y0185928D01*
X0226965Y0188487D02*
X0232477Y0188487D01*
X0316883Y0102164D02*
X0316883Y0096652D01*
X0319443Y0096652D02*
X0319443Y0102164D01*
X0322002Y0102164D02*
X0322002Y0096652D01*
X0324561Y0096652D02*
X0324561Y0102164D01*
X0326923Y0094290D02*
X0332435Y0094290D01*
X0332435Y0091731D02*
X0326923Y0091731D01*
X0326923Y0089172D02*
X0332435Y0089172D01*
X0332435Y0086613D02*
X0326923Y0086613D01*
X0324561Y0084250D02*
X0324561Y0078738D01*
X0322002Y0078738D02*
X0322002Y0084250D01*
X0319443Y0084250D02*
X0319443Y0078738D01*
X0316883Y0078738D02*
X0316883Y0084250D01*
X0314521Y0086613D02*
X0309009Y0086613D01*
X0309009Y0089172D02*
X0314521Y0089172D01*
X0314521Y0091731D02*
X0309009Y0091731D01*
X0309009Y0094290D02*
X0314521Y0094290D01*
X0423183Y0204723D02*
X0428695Y0204723D01*
X0428695Y0207282D02*
X0423183Y0207282D01*
X0423183Y0209841D02*
X0428695Y0209841D01*
X0428695Y0212400D02*
X0423183Y0212400D01*
X0431057Y0214762D02*
X0431057Y0220274D01*
X0433616Y0220274D02*
X0433616Y0214762D01*
X0436175Y0214762D02*
X0436175Y0220274D01*
X0438734Y0220274D02*
X0438734Y0214762D01*
X0441096Y0212400D02*
X0446608Y0212400D01*
X0446608Y0209841D02*
X0441096Y0209841D01*
X0441096Y0207282D02*
X0446608Y0207282D01*
X0446608Y0204723D02*
X0441096Y0204723D01*
X0438734Y0202361D02*
X0438734Y0196849D01*
X0436175Y0196849D02*
X0436175Y0202361D01*
X0433616Y0202361D02*
X0433616Y0196849D01*
X0431057Y0196849D02*
X0431057Y0202361D01*
X0448773Y0115943D02*
X0448773Y0110431D01*
X0451332Y0110431D02*
X0451332Y0115943D01*
X0453891Y0115943D02*
X0453891Y0110431D01*
X0456450Y0110431D02*
X0456450Y0115943D01*
X0458813Y0108069D02*
X0464325Y0108069D01*
X0464325Y0105510D02*
X0458813Y0105510D01*
X0458813Y0102951D02*
X0464325Y0102951D01*
X0464325Y0100392D02*
X0458813Y0100392D01*
X0456450Y0098030D02*
X0456450Y0092518D01*
X0453891Y0092518D02*
X0453891Y0098030D01*
X0451332Y0098030D02*
X0451332Y0092518D01*
X0448773Y0092518D02*
X0448773Y0098030D01*
X0446411Y0100392D02*
X0440899Y0100392D01*
X0440899Y0102951D02*
X0446411Y0102951D01*
X0446411Y0105510D02*
X0440899Y0105510D01*
X0440899Y0108069D02*
X0446411Y0108069D01*
X0419243Y0303826D02*
X0419243Y0309338D01*
X0416684Y0309338D02*
X0416684Y0303826D01*
X0414125Y0303826D02*
X0414125Y0309338D01*
X0411566Y0309338D02*
X0411566Y0303826D01*
X0409204Y0311700D02*
X0403692Y0311700D01*
X0403692Y0314259D02*
X0409204Y0314259D01*
X0409204Y0316818D02*
X0403692Y0316818D01*
X0403692Y0319377D02*
X0409204Y0319377D01*
X0411566Y0321739D02*
X0411566Y0327251D01*
X0414125Y0327251D02*
X0414125Y0321739D01*
X0416684Y0321739D02*
X0416684Y0327251D01*
X0419243Y0327251D02*
X0419243Y0321739D01*
X0421605Y0319377D02*
X0427117Y0319377D01*
X0427117Y0316818D02*
X0421605Y0316818D01*
X0421605Y0314259D02*
X0427117Y0314259D01*
X0427117Y0311700D02*
X0421605Y0311700D01*
X0401527Y0408157D02*
X0401527Y0413669D01*
X0398968Y0413669D02*
X0398968Y0408157D01*
X0396409Y0408157D02*
X0396409Y0413669D01*
X0393850Y0413669D02*
X0393850Y0408157D01*
X0391487Y0416031D02*
X0385975Y0416031D01*
X0385975Y0418590D02*
X0391487Y0418590D01*
X0391487Y0421149D02*
X0385975Y0421149D01*
X0385975Y0423708D02*
X0391487Y0423708D01*
X0393850Y0426070D02*
X0393850Y0431582D01*
X0396409Y0431582D02*
X0396409Y0426070D01*
X0398968Y0426070D02*
X0398968Y0431582D01*
X0401527Y0431582D02*
X0401527Y0426070D01*
X0403889Y0423708D02*
X0409401Y0423708D01*
X0409401Y0421149D02*
X0403889Y0421149D01*
X0403889Y0418590D02*
X0409401Y0418590D01*
X0409401Y0416031D02*
X0403889Y0416031D01*
X0517865Y0429810D02*
X0523377Y0429810D01*
X0523377Y0432369D02*
X0517865Y0432369D01*
X0517865Y0434928D02*
X0523377Y0434928D01*
X0523377Y0437487D02*
X0517865Y0437487D01*
X0525739Y0439850D02*
X0525739Y0445362D01*
X0528298Y0445362D02*
X0528298Y0439850D01*
X0530857Y0439850D02*
X0530857Y0445362D01*
X0533417Y0445362D02*
X0533417Y0439850D01*
X0535779Y0437487D02*
X0541291Y0437487D01*
X0541291Y0434928D02*
X0535779Y0434928D01*
X0535779Y0432369D02*
X0541291Y0432369D01*
X0541291Y0429810D02*
X0535779Y0429810D01*
X0533417Y0427448D02*
X0533417Y0421936D01*
X0530857Y0421936D02*
X0530857Y0427448D01*
X0528298Y0427448D02*
X0528298Y0421936D01*
X0525739Y0421936D02*
X0525739Y0427448D01*
X0136217Y0070377D02*
X0130705Y0070377D01*
X0130705Y0067818D02*
X0136217Y0067818D01*
X0136217Y0065259D02*
X0130705Y0065259D01*
X0130705Y0062700D02*
X0136217Y0062700D01*
X0128343Y0060338D02*
X0128343Y0054826D01*
X0125784Y0054826D02*
X0125784Y0060338D01*
X0123225Y0060338D02*
X0123225Y0054826D01*
X0120666Y0054826D02*
X0120666Y0060338D01*
X0118304Y0062700D02*
X0112792Y0062700D01*
X0112792Y0065259D02*
X0118304Y0065259D01*
X0118304Y0067818D02*
X0112792Y0067818D01*
X0112792Y0070377D02*
X0118304Y0070377D01*
X0120666Y0072739D02*
X0120666Y0078251D01*
X0123225Y0078251D02*
X0123225Y0072739D01*
X0125784Y0072739D02*
X0125784Y0078251D01*
X0128343Y0078251D02*
X0128343Y0072739D01*
X0110627Y0159157D02*
X0110627Y0164669D01*
X0108068Y0164669D02*
X0108068Y0159157D01*
X0105509Y0159157D02*
X0105509Y0164669D01*
X0102950Y0164669D02*
X0102950Y0159157D01*
X0100587Y0167031D02*
X0095075Y0167031D01*
X0095075Y0169590D02*
X0100587Y0169590D01*
X0100587Y0172149D02*
X0095075Y0172149D01*
X0095075Y0174708D02*
X0100587Y0174708D01*
X0102950Y0177070D02*
X0102950Y0182582D01*
X0105509Y0182582D02*
X0105509Y0177070D01*
X0108068Y0177070D02*
X0108068Y0182582D01*
X0110627Y0182582D02*
X0110627Y0177070D01*
X0112989Y0174708D02*
X0118501Y0174708D01*
X0118501Y0172149D02*
X0112989Y0172149D01*
X0112989Y0169590D02*
X0118501Y0169590D01*
X0118501Y0167031D02*
X0112989Y0167031D01*
D16*
X0099898Y0122641D03*
X0097930Y0122641D03*
X0095961Y0122641D03*
X0093993Y0122641D03*
X0092024Y0122641D03*
X0090056Y0122641D03*
X0088087Y0122641D03*
X0086119Y0122641D03*
X0084150Y0122641D03*
X0082182Y0122641D03*
X0080213Y0122641D03*
X0078245Y0122641D03*
X0076276Y0122641D03*
X0074308Y0122641D03*
X0072339Y0122641D03*
X0070371Y0122641D03*
X0070371Y0077365D03*
X0072339Y0077365D03*
X0074308Y0077365D03*
X0076276Y0077365D03*
X0078245Y0077365D03*
X0080213Y0077365D03*
X0082182Y0077365D03*
X0084150Y0077365D03*
X0086119Y0077365D03*
X0088087Y0077365D03*
X0090056Y0077365D03*
X0092024Y0077365D03*
X0093993Y0077365D03*
X0095961Y0077365D03*
X0097930Y0077365D03*
X0099898Y0077365D03*
X0361271Y0326365D03*
X0363239Y0326365D03*
X0365208Y0326365D03*
X0367176Y0326365D03*
X0369145Y0326365D03*
X0371113Y0326365D03*
X0373082Y0326365D03*
X0375050Y0326365D03*
X0377019Y0326365D03*
X0378987Y0326365D03*
X0380956Y0326365D03*
X0382924Y0326365D03*
X0384893Y0326365D03*
X0386861Y0326365D03*
X0388830Y0326365D03*
X0390798Y0326365D03*
X0390798Y0371641D03*
X0388830Y0371641D03*
X0386861Y0371641D03*
X0384893Y0371641D03*
X0382924Y0371641D03*
X0380956Y0371641D03*
X0378987Y0371641D03*
X0377019Y0371641D03*
X0375050Y0371641D03*
X0373082Y0371641D03*
X0371113Y0371641D03*
X0369145Y0371641D03*
X0367176Y0371641D03*
X0365208Y0371641D03*
X0363239Y0371641D03*
X0361271Y0371641D03*
X0208329Y0421459D03*
X0206361Y0421459D03*
X0204392Y0421459D03*
X0202424Y0421459D03*
X0200455Y0421459D03*
X0198487Y0421459D03*
X0196518Y0421459D03*
X0194550Y0421459D03*
X0192581Y0421459D03*
X0190613Y0421459D03*
X0188644Y0421459D03*
X0186676Y0421459D03*
X0184707Y0421459D03*
X0182739Y0421459D03*
X0180770Y0421459D03*
X0178802Y0421459D03*
X0178802Y0466735D03*
X0180770Y0466735D03*
X0182739Y0466735D03*
X0184707Y0466735D03*
X0186676Y0466735D03*
X0188644Y0466735D03*
X0190613Y0466735D03*
X0192581Y0466735D03*
X0194550Y0466735D03*
X0196518Y0466735D03*
X0198487Y0466735D03*
X0200455Y0466735D03*
X0202424Y0466735D03*
X0204392Y0466735D03*
X0206361Y0466735D03*
X0208329Y0466735D03*
X0459502Y0197735D03*
X0461470Y0197735D03*
X0463439Y0197735D03*
X0465407Y0197735D03*
X0467376Y0197735D03*
X0469344Y0197735D03*
X0471313Y0197735D03*
X0473281Y0197735D03*
X0475250Y0197735D03*
X0477218Y0197735D03*
X0479187Y0197735D03*
X0481155Y0197735D03*
X0483124Y0197735D03*
X0485092Y0197735D03*
X0487061Y0197735D03*
X0489029Y0197735D03*
X0489029Y0152459D03*
X0487061Y0152459D03*
X0485092Y0152459D03*
X0483124Y0152459D03*
X0481155Y0152459D03*
X0479187Y0152459D03*
X0477218Y0152459D03*
X0475250Y0152459D03*
X0473281Y0152459D03*
X0471313Y0152459D03*
X0469344Y0152459D03*
X0467376Y0152459D03*
X0465407Y0152459D03*
X0463439Y0152459D03*
X0461470Y0152459D03*
X0459502Y0152459D03*
D17*
X0451628Y0160333D03*
X0451628Y0162302D03*
X0451628Y0164270D03*
X0451628Y0166239D03*
X0451628Y0168207D03*
X0451628Y0170176D03*
X0451628Y0172144D03*
X0451628Y0174113D03*
X0451628Y0176081D03*
X0451628Y0178050D03*
X0451628Y0180018D03*
X0451628Y0181987D03*
X0451628Y0183955D03*
X0451628Y0185924D03*
X0451628Y0187892D03*
X0451628Y0189861D03*
X0496903Y0189861D03*
X0496903Y0187892D03*
X0496903Y0185924D03*
X0496903Y0183955D03*
X0496903Y0181987D03*
X0496903Y0180018D03*
X0496903Y0178050D03*
X0496903Y0176081D03*
X0496903Y0174113D03*
X0496903Y0172144D03*
X0496903Y0170176D03*
X0496903Y0168207D03*
X0496903Y0166239D03*
X0496903Y0164270D03*
X0496903Y0162302D03*
X0496903Y0160333D03*
X0398672Y0334239D03*
X0398672Y0336208D03*
X0398672Y0338176D03*
X0398672Y0340145D03*
X0398672Y0342113D03*
X0398672Y0344082D03*
X0398672Y0346050D03*
X0398672Y0348019D03*
X0398672Y0349987D03*
X0398672Y0351956D03*
X0398672Y0353924D03*
X0398672Y0355893D03*
X0398672Y0357861D03*
X0398672Y0359830D03*
X0398672Y0361798D03*
X0398672Y0363767D03*
X0353397Y0363767D03*
X0353397Y0361798D03*
X0353397Y0359830D03*
X0353397Y0357861D03*
X0353397Y0355893D03*
X0353397Y0353924D03*
X0353397Y0351956D03*
X0353397Y0349987D03*
X0353397Y0348019D03*
X0353397Y0346050D03*
X0353397Y0344082D03*
X0353397Y0342113D03*
X0353397Y0340145D03*
X0353397Y0338176D03*
X0353397Y0336208D03*
X0353397Y0334239D03*
X0216203Y0429333D03*
X0216203Y0431302D03*
X0216203Y0433270D03*
X0216203Y0435239D03*
X0216203Y0437207D03*
X0216203Y0439176D03*
X0216203Y0441144D03*
X0216203Y0443113D03*
X0216203Y0445081D03*
X0216203Y0447050D03*
X0216203Y0449018D03*
X0216203Y0450987D03*
X0216203Y0452955D03*
X0216203Y0454924D03*
X0216203Y0456892D03*
X0216203Y0458861D03*
X0170928Y0458861D03*
X0170928Y0456892D03*
X0170928Y0454924D03*
X0170928Y0452955D03*
X0170928Y0450987D03*
X0170928Y0449018D03*
X0170928Y0447050D03*
X0170928Y0445081D03*
X0170928Y0443113D03*
X0170928Y0441144D03*
X0170928Y0439176D03*
X0170928Y0437207D03*
X0170928Y0435239D03*
X0170928Y0433270D03*
X0170928Y0431302D03*
X0170928Y0429333D03*
X0107772Y0114767D03*
X0107772Y0112798D03*
X0107772Y0110830D03*
X0107772Y0108861D03*
X0107772Y0106893D03*
X0107772Y0104924D03*
X0107772Y0102956D03*
X0107772Y0100987D03*
X0107772Y0099019D03*
X0107772Y0097050D03*
X0107772Y0095082D03*
X0107772Y0093113D03*
X0107772Y0091145D03*
X0107772Y0089176D03*
X0107772Y0087208D03*
X0107772Y0085239D03*
X0062497Y0085239D03*
X0062497Y0087208D03*
X0062497Y0089176D03*
X0062497Y0091145D03*
X0062497Y0093113D03*
X0062497Y0095082D03*
X0062497Y0097050D03*
X0062497Y0099019D03*
X0062497Y0100987D03*
X0062497Y0102956D03*
X0062497Y0104924D03*
X0062497Y0106893D03*
X0062497Y0108861D03*
X0062497Y0110830D03*
X0062497Y0112798D03*
X0062497Y0114767D03*
D18*
X0042615Y0104924D03*
X0042615Y0102956D03*
X0042615Y0100987D03*
X0042615Y0099019D03*
X0040843Y0097247D03*
X0038875Y0097247D03*
X0036906Y0097247D03*
X0034938Y0097247D03*
X0033166Y0099019D03*
X0033166Y0100987D03*
X0033166Y0102956D03*
X0033166Y0104924D03*
X0034938Y0106696D03*
X0036906Y0106696D03*
X0038875Y0106696D03*
X0040843Y0106696D03*
X0324066Y0348019D03*
X0324066Y0349987D03*
X0324066Y0351956D03*
X0324066Y0353924D03*
X0325838Y0355696D03*
X0327806Y0355696D03*
X0329775Y0355696D03*
X0331743Y0355696D03*
X0333515Y0353924D03*
X0333515Y0351956D03*
X0333515Y0349987D03*
X0333515Y0348019D03*
X0331743Y0346247D03*
X0329775Y0346247D03*
X0327806Y0346247D03*
X0325838Y0346247D03*
X0243762Y0437404D03*
X0241794Y0437404D03*
X0239825Y0437404D03*
X0237857Y0437404D03*
X0236085Y0439176D03*
X0236085Y0441144D03*
X0236085Y0443113D03*
X0236085Y0445081D03*
X0237857Y0446853D03*
X0239825Y0446853D03*
X0241794Y0446853D03*
X0243762Y0446853D03*
X0245534Y0445081D03*
X0245534Y0443113D03*
X0245534Y0441144D03*
X0245534Y0439176D03*
X0516785Y0176081D03*
X0516785Y0174113D03*
X0516785Y0172144D03*
X0516785Y0170176D03*
X0518557Y0168404D03*
X0520525Y0168404D03*
X0522494Y0168404D03*
X0524462Y0168404D03*
X0526234Y0170176D03*
X0526234Y0172144D03*
X0526234Y0174113D03*
X0526234Y0176081D03*
X0524462Y0177853D03*
X0522494Y0177853D03*
X0520525Y0177853D03*
X0518557Y0177853D03*
D19*
X0519738Y0174900D03*
X0523281Y0174900D03*
X0523281Y0171357D03*
X0519738Y0171357D03*
X0330562Y0349200D03*
X0327019Y0349200D03*
X0327019Y0352743D03*
X0330562Y0352743D03*
X0242581Y0440357D03*
X0242581Y0443900D03*
X0239038Y0443900D03*
X0239038Y0440357D03*
X0039662Y0103743D03*
X0039662Y0100200D03*
X0036119Y0100200D03*
X0036119Y0103743D03*
D20*
X0036906Y0107976D03*
X0034938Y0107976D03*
X0038875Y0107976D03*
X0040843Y0107976D03*
X0040843Y0095968D03*
X0038875Y0095968D03*
X0036906Y0095968D03*
X0034938Y0095968D03*
X0325838Y0344968D03*
X0327806Y0344968D03*
X0329775Y0344968D03*
X0331743Y0344968D03*
X0331743Y0356976D03*
X0329775Y0356976D03*
X0327806Y0356976D03*
X0325838Y0356976D03*
X0243762Y0436124D03*
X0241794Y0436124D03*
X0239825Y0436124D03*
X0237857Y0436124D03*
X0237857Y0448132D03*
X0239825Y0448132D03*
X0241794Y0448132D03*
X0243762Y0448132D03*
X0518557Y0179132D03*
X0520525Y0179132D03*
X0522494Y0179132D03*
X0524462Y0179132D03*
X0524462Y0167124D03*
X0522494Y0167124D03*
X0520525Y0167124D03*
X0518557Y0167124D03*
D21*
X0515506Y0170176D03*
X0515506Y0172144D03*
X0515506Y0174113D03*
X0515506Y0176081D03*
X0527513Y0176081D03*
X0527513Y0174113D03*
X0527513Y0172144D03*
X0527513Y0170176D03*
X0334794Y0348019D03*
X0334794Y0349987D03*
X0334794Y0351956D03*
X0334794Y0353924D03*
X0322787Y0353924D03*
X0322787Y0351956D03*
X0322787Y0349987D03*
X0322787Y0348019D03*
X0246813Y0439176D03*
X0246813Y0441144D03*
X0246813Y0443113D03*
X0246813Y0445081D03*
X0234806Y0445081D03*
X0234806Y0443113D03*
X0234806Y0441144D03*
X0234806Y0439176D03*
X0043894Y0104924D03*
X0043894Y0102956D03*
X0043894Y0100987D03*
X0043894Y0099019D03*
X0031887Y0099019D03*
X0031887Y0100987D03*
X0031887Y0102956D03*
X0031887Y0104924D03*
D22*
X0051670Y0113192D03*
X0051670Y0118310D03*
X0063481Y0136814D03*
X0063481Y0141932D03*
X0071355Y0141932D03*
X0071355Y0136814D03*
X0079229Y0136814D03*
X0079229Y0141932D03*
X0087103Y0141932D03*
X0087103Y0136814D03*
X0053639Y0149357D03*
X0053639Y0154475D03*
X0045565Y0145706D03*
X0045565Y0140588D03*
X0051670Y0090751D03*
X0051670Y0085633D03*
X0144900Y0175841D03*
X0144900Y0180959D03*
X0133800Y0363141D03*
X0133800Y0368259D03*
X0191597Y0402168D03*
X0191597Y0407286D03*
X0199471Y0407286D03*
X0199471Y0402168D03*
X0207345Y0402168D03*
X0207345Y0407286D03*
X0215219Y0407286D03*
X0215219Y0402168D03*
X0225061Y0394743D03*
X0225061Y0389625D03*
X0233135Y0398394D03*
X0233135Y0403512D03*
X0227030Y0425790D03*
X0227030Y0430908D03*
X0227030Y0453349D03*
X0227030Y0458467D03*
X0336465Y0394706D03*
X0336465Y0389588D03*
X0344539Y0398357D03*
X0344539Y0403475D03*
X0354381Y0390932D03*
X0354381Y0385814D03*
X0362255Y0385814D03*
X0362255Y0390932D03*
X0370129Y0390932D03*
X0370129Y0385814D03*
X0378003Y0385814D03*
X0378003Y0390932D03*
X0342570Y0367310D03*
X0342570Y0362192D03*
X0342570Y0339751D03*
X0342570Y0334633D03*
X0435800Y0424841D03*
X0435800Y0429959D03*
X0507730Y0189467D03*
X0507730Y0184349D03*
X0507730Y0161908D03*
X0507730Y0156790D03*
X0495919Y0138286D03*
X0495919Y0133168D03*
X0488045Y0133168D03*
X0488045Y0138286D03*
X0480171Y0138286D03*
X0480171Y0133168D03*
X0472297Y0133168D03*
X0472297Y0138286D03*
X0505761Y0125743D03*
X0505761Y0120625D03*
X0513835Y0129394D03*
X0513835Y0134512D03*
X0414500Y0099259D03*
X0414500Y0094141D03*
D23*
X0042654Y0036200D03*
X0049346Y0036200D03*
X0078450Y0049754D03*
X0078450Y0056446D03*
X0086400Y0056446D03*
X0086400Y0049754D03*
X0105247Y0040848D03*
X0111940Y0040848D03*
X0117133Y0040864D03*
X0123826Y0040864D03*
X0221989Y0161158D03*
X0228682Y0161158D03*
X0233864Y0161178D03*
X0240557Y0161178D03*
X0318843Y0113922D03*
X0325536Y0113922D03*
X0330718Y0113942D03*
X0337411Y0113942D03*
X0435574Y0234236D03*
X0442267Y0234236D03*
X0447460Y0234252D03*
X0454153Y0234252D03*
X0473000Y0225346D03*
X0473000Y0218654D03*
X0480950Y0218654D03*
X0480950Y0225346D03*
X0510054Y0238900D03*
X0516746Y0238900D03*
X0414726Y0289864D03*
X0408033Y0289864D03*
X0402840Y0289848D03*
X0396147Y0289848D03*
X0377300Y0298754D03*
X0377300Y0305446D03*
X0369350Y0305446D03*
X0369350Y0298754D03*
X0340246Y0285200D03*
X0333554Y0285200D03*
X0512889Y0410158D03*
X0519582Y0410158D03*
X0524764Y0410178D03*
X0531457Y0410178D03*
X0236046Y0507900D03*
X0229354Y0507900D03*
X0200250Y0494346D03*
X0200250Y0487654D03*
X0192300Y0487654D03*
X0192300Y0494346D03*
X0173453Y0503252D03*
X0166760Y0503252D03*
X0161567Y0503236D03*
X0154874Y0503236D03*
X0056711Y0382942D03*
X0050018Y0382942D03*
X0044836Y0382922D03*
X0038143Y0382922D03*
D24*
X0031548Y0381564D03*
X0031548Y0388257D03*
G36*
X0131895Y0423644D02*
X0129112Y0426427D01*
X0132173Y0429488D01*
X0134956Y0426705D01*
X0131895Y0423644D01*
G37*
G36*
X0136627Y0418912D02*
X0133844Y0421695D01*
X0136905Y0424756D01*
X0139688Y0421973D01*
X0136627Y0418912D01*
G37*
G36*
X0143012Y0423073D02*
X0145795Y0425856D01*
X0148856Y0422795D01*
X0146073Y0420012D01*
X0143012Y0423073D01*
G37*
G36*
X0147744Y0427805D02*
X0150527Y0430588D01*
X0153588Y0427527D01*
X0150805Y0424744D01*
X0147744Y0427805D01*
G37*
G36*
X0135593Y0430399D02*
X0137256Y0433965D01*
X0141179Y0432135D01*
X0139516Y0428569D01*
X0135593Y0430399D01*
G37*
G36*
X0138421Y0436465D02*
X0140084Y0440031D01*
X0144007Y0438201D01*
X0142344Y0434635D01*
X0138421Y0436465D01*
G37*
X0146321Y0390520D03*
X0146321Y0383827D03*
X0146331Y0378594D03*
X0146331Y0371901D03*
X0146307Y0366744D03*
X0146307Y0360051D03*
X0209904Y0392916D03*
X0216597Y0392916D03*
X0240000Y0494154D03*
X0240000Y0500846D03*
X0148290Y0501774D03*
X0148290Y0508467D03*
X0353003Y0400184D03*
X0359696Y0400184D03*
X0423279Y0402580D03*
X0423279Y0409273D03*
X0423269Y0414506D03*
X0423269Y0421199D03*
X0423293Y0426356D03*
X0423293Y0433049D03*
G36*
X0432973Y0374188D02*
X0435756Y0371405D01*
X0432695Y0368344D01*
X0429912Y0371127D01*
X0432973Y0374188D01*
G37*
G36*
X0426588Y0370027D02*
X0423805Y0367244D01*
X0420744Y0370305D01*
X0423527Y0373088D01*
X0426588Y0370027D01*
G37*
G36*
X0421856Y0365295D02*
X0419073Y0362512D01*
X0416012Y0365573D01*
X0418795Y0368356D01*
X0421856Y0365295D01*
G37*
G36*
X0434007Y0362701D02*
X0432344Y0359135D01*
X0428421Y0360965D01*
X0430084Y0364531D01*
X0434007Y0362701D01*
G37*
G36*
X0437705Y0369456D02*
X0440488Y0366673D01*
X0437427Y0363612D01*
X0434644Y0366395D01*
X0437705Y0369456D01*
G37*
G36*
X0431179Y0356635D02*
X0429516Y0353069D01*
X0425593Y0354899D01*
X0427256Y0358465D01*
X0431179Y0356635D01*
G37*
X0421310Y0291326D03*
X0421310Y0284633D03*
X0428990Y0239467D03*
X0428990Y0232774D03*
G36*
X0419121Y0167465D02*
X0420784Y0171031D01*
X0424707Y0169201D01*
X0423044Y0165635D01*
X0419121Y0167465D01*
G37*
G36*
X0416293Y0161399D02*
X0417956Y0164965D01*
X0421879Y0163135D01*
X0420216Y0159569D01*
X0416293Y0161399D01*
G37*
G36*
X0412595Y0154644D02*
X0409812Y0157427D01*
X0412873Y0160488D01*
X0415656Y0157705D01*
X0412595Y0154644D01*
G37*
G36*
X0417327Y0149912D02*
X0414544Y0152695D01*
X0417605Y0155756D01*
X0420388Y0152973D01*
X0417327Y0149912D01*
G37*
G36*
X0423712Y0154073D02*
X0426495Y0156856D01*
X0429556Y0153795D01*
X0426773Y0151012D01*
X0423712Y0154073D01*
G37*
G36*
X0428444Y0158805D02*
X0431227Y0161588D01*
X0434288Y0158527D01*
X0431505Y0155744D01*
X0428444Y0158805D01*
G37*
X0427021Y0121520D03*
X0427021Y0114827D03*
X0427031Y0109594D03*
X0427031Y0102901D03*
X0427007Y0097744D03*
X0427007Y0091051D03*
X0490604Y0123916D03*
X0497297Y0123916D03*
X0520700Y0225154D03*
X0520700Y0231846D03*
X0538052Y0404843D03*
X0538052Y0411536D03*
X0329600Y0298946D03*
X0329600Y0292254D03*
X0247152Y0162536D03*
X0247152Y0155843D03*
X0312248Y0119257D03*
X0312248Y0112564D03*
G36*
X0146805Y0120456D02*
X0149588Y0117673D01*
X0146527Y0114612D01*
X0143744Y0117395D01*
X0146805Y0120456D01*
G37*
G36*
X0142073Y0125188D02*
X0144856Y0122405D01*
X0141795Y0119344D01*
X0139012Y0122127D01*
X0142073Y0125188D01*
G37*
G36*
X0135688Y0121027D02*
X0132905Y0118244D01*
X0129844Y0121305D01*
X0132627Y0124088D01*
X0135688Y0121027D01*
G37*
G36*
X0130956Y0116295D02*
X0128173Y0113512D01*
X0125112Y0116573D01*
X0127895Y0119356D01*
X0130956Y0116295D01*
G37*
G36*
X0143107Y0113701D02*
X0141444Y0110135D01*
X0137521Y0111965D01*
X0139184Y0115531D01*
X0143107Y0113701D01*
G37*
G36*
X0140279Y0107635D02*
X0138616Y0104069D01*
X0134693Y0105899D01*
X0136356Y0109465D01*
X0140279Y0107635D01*
G37*
X0132379Y0153580D03*
X0132379Y0160273D03*
X0132369Y0165506D03*
X0132369Y0172199D03*
X0132393Y0177356D03*
X0132393Y0184049D03*
X0068796Y0151184D03*
X0062103Y0151184D03*
X0038700Y0049946D03*
X0038700Y0043254D03*
X0130410Y0042326D03*
X0130410Y0035633D03*
D25*
X0058757Y0064176D03*
X0052457Y0064176D03*
X0052457Y0072838D03*
X0058757Y0072838D03*
X0343357Y0313176D03*
X0349657Y0313176D03*
X0349657Y0321838D03*
X0343357Y0321838D03*
X0500643Y0210924D03*
X0506943Y0210924D03*
X0506943Y0202262D03*
X0500643Y0202262D03*
X0226243Y0471262D03*
X0219943Y0471262D03*
X0219943Y0479924D03*
X0226243Y0479924D03*
D26*
G36*
X0318851Y0416670D02*
X0318783Y0418242D01*
X0324091Y0418474D01*
X0324159Y0416902D01*
X0318851Y0416670D01*
G37*
G36*
X0318962Y0414114D02*
X0318894Y0415686D01*
X0324202Y0415918D01*
X0324270Y0414346D01*
X0318962Y0414114D01*
G37*
G36*
X0319074Y0411557D02*
X0319006Y0413129D01*
X0324314Y0413361D01*
X0324382Y0411789D01*
X0319074Y0411557D01*
G37*
G36*
X0319185Y0409000D02*
X0319117Y0410572D01*
X0324425Y0410804D01*
X0324493Y0409232D01*
X0319185Y0409000D01*
G37*
G36*
X0319297Y0406444D02*
X0319229Y0408016D01*
X0324537Y0408248D01*
X0324605Y0406676D01*
X0319297Y0406444D01*
G37*
G36*
X0250303Y0386656D02*
X0250371Y0385084D01*
X0245063Y0384852D01*
X0244995Y0386424D01*
X0250303Y0386656D01*
G37*
G36*
X0250415Y0384100D02*
X0250483Y0382528D01*
X0245175Y0382296D01*
X0245107Y0383868D01*
X0250415Y0384100D01*
G37*
G36*
X0250526Y0381543D02*
X0250594Y0379971D01*
X0245286Y0379739D01*
X0245218Y0381311D01*
X0250526Y0381543D01*
G37*
G36*
X0250638Y0378986D02*
X0250706Y0377414D01*
X0245398Y0377182D01*
X0245330Y0378754D01*
X0250638Y0378986D01*
G37*
G36*
X0250749Y0376430D02*
X0250817Y0374858D01*
X0245509Y0374626D01*
X0245441Y0376198D01*
X0250749Y0376430D01*
G37*
G36*
X0027951Y0167670D02*
X0027883Y0169242D01*
X0033191Y0169474D01*
X0033259Y0167902D01*
X0027951Y0167670D01*
G37*
G36*
X0028062Y0165114D02*
X0027994Y0166686D01*
X0033302Y0166918D01*
X0033370Y0165346D01*
X0028062Y0165114D01*
G37*
G36*
X0028174Y0162557D02*
X0028106Y0164129D01*
X0033414Y0164361D01*
X0033482Y0162789D01*
X0028174Y0162557D01*
G37*
G36*
X0028285Y0160000D02*
X0028217Y0161572D01*
X0033525Y0161804D01*
X0033593Y0160232D01*
X0028285Y0160000D01*
G37*
G36*
X0028397Y0157444D02*
X0028329Y0159016D01*
X0033637Y0159248D01*
X0033705Y0157676D01*
X0028397Y0157444D01*
G37*
G36*
X0531003Y0117656D02*
X0531071Y0116084D01*
X0525763Y0115852D01*
X0525695Y0117424D01*
X0531003Y0117656D01*
G37*
G36*
X0531115Y0115100D02*
X0531183Y0113528D01*
X0525875Y0113296D01*
X0525807Y0114868D01*
X0531115Y0115100D01*
G37*
G36*
X0531226Y0112543D02*
X0531294Y0110971D01*
X0525986Y0110739D01*
X0525918Y0112311D01*
X0531226Y0112543D01*
G37*
G36*
X0531338Y0109986D02*
X0531406Y0108414D01*
X0526098Y0108182D01*
X0526030Y0109754D01*
X0531338Y0109986D01*
G37*
G36*
X0531449Y0107430D02*
X0531517Y0105858D01*
X0526209Y0105626D01*
X0526141Y0107198D01*
X0531449Y0107430D01*
G37*
D27*
X0513461Y0108968D03*
X0513835Y0116305D03*
X0519541Y0151400D03*
X0527500Y0151400D03*
X0458600Y0124200D03*
X0452300Y0210800D03*
X0398000Y0313300D03*
X0330759Y0372700D03*
X0322800Y0372700D03*
X0336465Y0407795D03*
X0336839Y0415132D03*
X0391700Y0399900D03*
X0501900Y0434800D03*
X0246800Y0420400D03*
X0238841Y0420400D03*
X0233135Y0385305D03*
X0232761Y0377968D03*
X0177900Y0393200D03*
X0171600Y0479800D03*
X0067700Y0358300D03*
X0211000Y0185800D03*
X0100800Y0150900D03*
X0045939Y0166132D03*
X0045565Y0158795D03*
X0039859Y0123700D03*
X0031900Y0123700D03*
X0107100Y0064300D03*
X0348400Y0089300D03*
D28*
X0382317Y0090231D03*
X0382317Y0087672D03*
X0382317Y0092790D03*
X0382317Y0095349D03*
X0382317Y0097908D03*
X0382317Y0100467D03*
X0382317Y0103026D03*
X0382317Y0105585D03*
X0405348Y0105585D03*
X0405348Y0103026D03*
X0405348Y0100467D03*
X0405348Y0097908D03*
X0405348Y0095349D03*
X0405348Y0092790D03*
X0405348Y0090231D03*
X0405348Y0087672D03*
X0177083Y0169515D03*
X0177083Y0172074D03*
X0177083Y0174633D03*
X0177083Y0177192D03*
X0177083Y0179751D03*
X0177083Y0182310D03*
X0177083Y0184869D03*
X0177083Y0187428D03*
X0154052Y0187428D03*
X0154052Y0184869D03*
X0154052Y0182310D03*
X0154052Y0179751D03*
X0154052Y0177192D03*
X0154052Y0174633D03*
X0154052Y0172074D03*
X0154052Y0169515D03*
X0124648Y0356672D03*
X0124648Y0359231D03*
X0124648Y0361790D03*
X0124648Y0364349D03*
X0124648Y0366908D03*
X0124648Y0369467D03*
X0124648Y0372026D03*
X0124648Y0374585D03*
X0101617Y0374585D03*
X0101617Y0372026D03*
X0101617Y0369467D03*
X0101617Y0366908D03*
X0101617Y0364349D03*
X0101617Y0361790D03*
X0101617Y0359231D03*
X0101617Y0356672D03*
X0444952Y0418515D03*
X0444952Y0421074D03*
X0444952Y0423633D03*
X0444952Y0426192D03*
X0444952Y0428751D03*
X0444952Y0431310D03*
X0444952Y0433869D03*
X0444952Y0436428D03*
X0467983Y0436428D03*
X0467983Y0433869D03*
X0467983Y0431310D03*
X0467983Y0428751D03*
X0467983Y0426192D03*
X0467983Y0423633D03*
X0467983Y0421074D03*
X0467983Y0418515D03*
D29*
X0392373Y0384436D03*
X0387255Y0384436D03*
X0389908Y0318646D03*
X0395026Y0318646D03*
X0455274Y0205454D03*
X0460392Y0205454D03*
X0457927Y0139664D03*
X0463045Y0139664D03*
X0182345Y0408664D03*
X0177227Y0408664D03*
X0179692Y0474454D03*
X0174574Y0474454D03*
X0101473Y0135436D03*
X0096355Y0135436D03*
X0099008Y0069646D03*
X0104126Y0069646D03*
M02*
