G75*
%MOIN*%
%OFA0B0*%
%FSLAX25Y25*%
%IPPOS*%
%LPD*%
%AMOC8*
5,1,8,0,0,1.08239X$1,22.5*
%
%ADD10C,0.12611*%
%ADD11C,0.06343*%
%ADD12C,0.07887*%
%ADD13R,0.04737X0.05131*%
%ADD14R,0.07898X0.07099*%
%ADD15R,0.07099X0.07898*%
%ADD16R,0.09900X0.05900*%
%ADD17R,0.26400X0.24000*%
%ADD18C,0.05556*%
%ADD19R,0.06706X0.16548*%
%ADD20R,0.06706X0.04737*%
%ADD21R,0.05131X0.04737*%
%ADD22C,0.08200*%
%ADD23C,0.03900*%
%ADD24C,0.03600*%
%ADD25C,0.03918*%
%ADD26C,0.08300*%
D10*
X0145922Y0037011D03*
X0306943Y0027262D03*
X0533832Y0082971D03*
X0413478Y0238089D03*
X0436822Y0286011D03*
X0316468Y0441129D03*
X0253132Y0351971D03*
X0252457Y0247838D03*
X0026243Y0296262D03*
X0025568Y0192129D03*
X0132778Y0507089D03*
X0543357Y0496838D03*
D11*
X0321264Y0422292D03*
X0322123Y0402626D03*
X0247477Y0390474D03*
X0248335Y0370808D03*
X0030364Y0173292D03*
X0031223Y0153626D03*
X0528177Y0121474D03*
X0529035Y0101808D03*
D12*
X0539827Y0098338D03*
X0538625Y0125871D03*
X0259127Y0367338D03*
X0257925Y0394871D03*
X0311675Y0398229D03*
X0310473Y0425762D03*
X0019573Y0176762D03*
X0020775Y0149229D03*
D13*
X0072645Y0107629D03*
X0079338Y0107629D03*
X0084504Y0103300D03*
X0091196Y0103300D03*
X0090446Y0095300D03*
X0083754Y0095300D03*
X0132954Y0104300D03*
X0139646Y0104300D03*
X0141654Y0120200D03*
X0148346Y0120200D03*
X0374654Y0344300D03*
X0381346Y0344300D03*
X0382096Y0352300D03*
X0375404Y0352300D03*
X0370238Y0356629D03*
X0363545Y0356629D03*
X0423854Y0353300D03*
X0430546Y0353300D03*
X0432554Y0369200D03*
X0439246Y0369200D03*
X0468954Y0179800D03*
X0475646Y0179800D03*
X0474896Y0171800D03*
X0480062Y0167471D03*
X0486755Y0167471D03*
X0468204Y0171800D03*
X0426446Y0170800D03*
X0419754Y0170800D03*
X0417746Y0154900D03*
X0411054Y0154900D03*
X0137046Y0423900D03*
X0130354Y0423900D03*
X0139054Y0439800D03*
X0145746Y0439800D03*
X0187504Y0440800D03*
X0194196Y0440800D03*
X0199362Y0436471D03*
X0206055Y0436471D03*
X0194946Y0448800D03*
X0188254Y0448800D03*
D14*
X0166200Y0471802D03*
X0166200Y0482998D03*
X0142200Y0483098D03*
X0142200Y0471902D03*
X0052000Y0365098D03*
X0052000Y0353902D03*
X0028000Y0353902D03*
X0028000Y0365098D03*
X0226700Y0190198D03*
X0226700Y0179002D03*
X0250700Y0179002D03*
X0250700Y0190198D03*
X0308700Y0096098D03*
X0308700Y0084902D03*
X0332700Y0084902D03*
X0332700Y0096098D03*
X0422900Y0202902D03*
X0422900Y0214098D03*
X0446900Y0213998D03*
X0446900Y0202802D03*
X0427400Y0310002D03*
X0427400Y0321198D03*
X0403400Y0321298D03*
X0403400Y0310102D03*
X0517600Y0428002D03*
X0517600Y0439198D03*
X0541600Y0439198D03*
X0541600Y0428002D03*
X0136500Y0072198D03*
X0136500Y0061002D03*
X0112500Y0061102D03*
X0112500Y0072298D03*
D15*
X0112298Y0158900D03*
X0101102Y0158900D03*
X0101102Y0182800D03*
X0112298Y0182800D03*
X0166402Y0361300D03*
X0177598Y0361300D03*
X0177598Y0385200D03*
X0166402Y0385200D03*
X0392002Y0407900D03*
X0403198Y0407900D03*
X0403198Y0431800D03*
X0392002Y0431800D03*
X0447102Y0116200D03*
X0458298Y0116200D03*
X0458298Y0092300D03*
X0447102Y0092300D03*
D16*
X0402000Y0098150D03*
X0402000Y0116150D03*
X0157400Y0158950D03*
X0157400Y0176950D03*
X0121300Y0367150D03*
X0121300Y0385150D03*
X0448300Y0407950D03*
X0448300Y0425950D03*
D17*
X0423550Y0416950D03*
X0146050Y0376150D03*
X0132650Y0167950D03*
X0426750Y0107150D03*
D18*
X0417800Y0060800D03*
X0417800Y0053300D03*
X0417800Y0045800D03*
X0410300Y0045800D03*
X0410300Y0053300D03*
X0410300Y0060800D03*
X0367000Y0086300D03*
X0367000Y0093800D03*
X0367000Y0101300D03*
X0359500Y0101300D03*
X0359500Y0093800D03*
X0359500Y0086300D03*
X0357000Y0053400D03*
X0357000Y0045900D03*
X0302400Y0044000D03*
X0302400Y0051500D03*
X0302400Y0059000D03*
X0302400Y0066500D03*
X0199900Y0173800D03*
X0192400Y0173800D03*
X0192400Y0181300D03*
X0192400Y0188800D03*
X0199900Y0188800D03*
X0199900Y0181300D03*
X0202400Y0221700D03*
X0202400Y0229200D03*
X0149100Y0229300D03*
X0149100Y0221800D03*
X0149100Y0214300D03*
X0141600Y0214300D03*
X0141600Y0221800D03*
X0141600Y0229300D03*
X0137100Y0314800D03*
X0129600Y0314800D03*
X0129600Y0322300D03*
X0129600Y0329800D03*
X0137100Y0329800D03*
X0137100Y0322300D03*
X0086300Y0355300D03*
X0086300Y0362800D03*
X0086300Y0370300D03*
X0078800Y0370300D03*
X0078800Y0362800D03*
X0078800Y0355300D03*
X0076300Y0322400D03*
X0076300Y0314900D03*
X0021700Y0313000D03*
X0021700Y0320500D03*
X0021700Y0328000D03*
X0021700Y0335500D03*
X0257000Y0231100D03*
X0257000Y0223600D03*
X0257000Y0216100D03*
X0257000Y0208600D03*
X0483300Y0422800D03*
X0483300Y0430300D03*
X0490800Y0430300D03*
X0490800Y0422800D03*
X0490800Y0437800D03*
X0483300Y0437800D03*
X0493300Y0470700D03*
X0493300Y0478200D03*
X0547900Y0480100D03*
X0547900Y0472600D03*
X0547900Y0465100D03*
X0547900Y0457600D03*
X0440000Y0463300D03*
X0432500Y0463300D03*
X0432500Y0470800D03*
X0432500Y0478300D03*
X0440000Y0478300D03*
X0440000Y0470800D03*
D19*
X0034805Y0044900D03*
X0325705Y0293900D03*
X0524595Y0230200D03*
X0243895Y0499200D03*
D20*
X0218305Y0499200D03*
X0218305Y0490145D03*
X0218305Y0508255D03*
X0351295Y0302955D03*
X0351295Y0293900D03*
X0351295Y0284845D03*
X0499005Y0239255D03*
X0499005Y0230200D03*
X0499005Y0221145D03*
X0060395Y0053955D03*
X0060395Y0044900D03*
X0060395Y0035845D03*
D21*
X0128500Y0111054D03*
X0128500Y0117746D03*
X0419400Y0360054D03*
X0419400Y0366746D03*
X0430900Y0164046D03*
X0430900Y0157354D03*
X0150200Y0426354D03*
X0150200Y0433046D03*
D22*
X0196700Y0509100D03*
X0206700Y0509100D03*
X0252325Y0465697D03*
X0252674Y0455703D03*
X0139600Y0347500D03*
X0129600Y0347500D03*
X0139100Y0196600D03*
X0149100Y0196600D03*
X0026025Y0088397D03*
X0026374Y0078403D03*
X0072000Y0035000D03*
X0082000Y0035000D03*
X0362900Y0284000D03*
X0372900Y0284000D03*
X0317274Y0327403D03*
X0316925Y0337397D03*
X0430000Y0445600D03*
X0440000Y0445600D03*
X0477400Y0240100D03*
X0487400Y0240100D03*
X0533025Y0196697D03*
X0533374Y0186703D03*
X0420300Y0078500D03*
X0410300Y0078500D03*
D23*
X0400300Y0087700D03*
X0390800Y0084400D03*
X0392600Y0080500D03*
X0387400Y0087700D03*
X0379100Y0071700D03*
X0398300Y0060150D03*
X0405400Y0057900D03*
X0441900Y0074800D03*
X0447500Y0075000D03*
X0453500Y0074700D03*
X0459950Y0070600D03*
X0466000Y0093900D03*
X0468300Y0109900D03*
X0485300Y0123900D03*
X0484300Y0129600D03*
X0481600Y0142900D03*
X0479200Y0146600D03*
X0473000Y0144900D03*
X0468600Y0147100D03*
X0462400Y0145700D03*
X0455300Y0144400D03*
X0464400Y0134300D03*
X0443050Y0138500D03*
X0420400Y0133050D03*
X0420250Y0127600D03*
X0405400Y0131300D03*
X0405250Y0123650D03*
X0396000Y0127800D03*
X0395700Y0146400D03*
X0412200Y0149500D03*
X0422600Y0149900D03*
X0424600Y0162400D03*
X0437500Y0161700D03*
X0438500Y0165500D03*
X0439500Y0169300D03*
X0460900Y0177200D03*
X0455600Y0193000D03*
X0450950Y0194300D03*
X0441900Y0196900D03*
X0457800Y0210350D03*
X0470300Y0205500D03*
X0473300Y0210000D03*
X0476200Y0203300D03*
X0482400Y0208800D03*
X0486800Y0209700D03*
X0492400Y0214500D03*
X0488300Y0216800D03*
X0468000Y0233100D03*
X0463650Y0236200D03*
X0460800Y0232250D03*
X0458300Y0239650D03*
X0463800Y0241500D03*
X0468200Y0238450D03*
X0450350Y0240550D03*
X0444450Y0240700D03*
X0437700Y0242450D03*
X0429850Y0244300D03*
X0426800Y0220500D03*
X0422100Y0220850D03*
X0400250Y0231100D03*
X0409200Y0198000D03*
X0407500Y0194300D03*
X0413500Y0192500D03*
X0422800Y0195500D03*
X0399800Y0194100D03*
X0410300Y0174100D03*
X0464400Y0158300D03*
X0473000Y0159200D03*
X0477700Y0160800D03*
X0482600Y0160900D03*
X0485800Y0157900D03*
X0495100Y0144900D03*
X0502900Y0160200D03*
X0512900Y0165300D03*
X0502400Y0172900D03*
X0506300Y0178200D03*
X0513200Y0182100D03*
X0513750Y0187500D03*
X0518250Y0195050D03*
X0525950Y0190100D03*
X0536300Y0169200D03*
X0512700Y0145600D03*
X0521700Y0134500D03*
X0537000Y0115800D03*
X0511400Y0094550D03*
X0502400Y0100500D03*
X0497800Y0108500D03*
X0492750Y0099450D03*
X0441250Y0090150D03*
X0437100Y0090000D03*
X0431300Y0093250D03*
X0373750Y0110200D03*
X0370050Y0114150D03*
X0368700Y0118900D03*
X0364750Y0114200D03*
X0367600Y0109000D03*
X0374750Y0116600D03*
X0342850Y0125800D03*
X0337450Y0127150D03*
X0334600Y0123050D03*
X0331150Y0128200D03*
X0341400Y0131900D03*
X0340500Y0107600D03*
X0341000Y0103500D03*
X0317350Y0106850D03*
X0306100Y0103800D03*
X0305000Y0108950D03*
X0313400Y0079600D03*
X0328900Y0078700D03*
X0332900Y0068100D03*
X0328400Y0067000D03*
X0337946Y0067900D03*
X0346200Y0062050D03*
X0254400Y0166150D03*
X0253300Y0171300D03*
X0242050Y0168250D03*
X0224800Y0152050D03*
X0221950Y0147950D03*
X0216550Y0149300D03*
X0218000Y0143200D03*
X0228250Y0146900D03*
X0218900Y0167500D03*
X0218400Y0171600D03*
X0194650Y0160900D03*
X0189350Y0160950D03*
X0190700Y0156200D03*
X0184650Y0158500D03*
X0185650Y0164900D03*
X0191800Y0166100D03*
X0172000Y0187400D03*
X0168600Y0190700D03*
X0166800Y0194600D03*
X0159100Y0187400D03*
X0180300Y0203400D03*
X0161100Y0214950D03*
X0154000Y0217200D03*
X0117500Y0200300D03*
X0111900Y0200100D03*
X0105900Y0200400D03*
X0099450Y0204500D03*
X0118150Y0184950D03*
X0122300Y0185100D03*
X0128100Y0181850D03*
X0093400Y0181200D03*
X0091100Y0165200D03*
X0074100Y0151200D03*
X0075100Y0145500D03*
X0077800Y0132200D03*
X0080200Y0128500D03*
X0086400Y0130200D03*
X0090800Y0128000D03*
X0097000Y0129400D03*
X0104100Y0130700D03*
X0095000Y0140800D03*
X0116350Y0136600D03*
X0136800Y0125200D03*
X0147200Y0125600D03*
X0134800Y0112700D03*
X0121900Y0113400D03*
X0120900Y0109600D03*
X0119900Y0105800D03*
X0098500Y0097900D03*
X0103800Y0082100D03*
X0108450Y0080800D03*
X0117500Y0078200D03*
X0136600Y0079600D03*
X0145900Y0082600D03*
X0151900Y0080800D03*
X0150200Y0077100D03*
X0159600Y0081000D03*
X0149100Y0101000D03*
X0163700Y0128700D03*
X0154000Y0143800D03*
X0154150Y0151450D03*
X0163400Y0147300D03*
X0139150Y0147500D03*
X0139000Y0142050D03*
X0095000Y0116800D03*
X0086400Y0115900D03*
X0081700Y0114300D03*
X0076800Y0114200D03*
X0073600Y0117200D03*
X0064300Y0130200D03*
X0056500Y0114900D03*
X0046500Y0109800D03*
X0057000Y0102200D03*
X0053100Y0096900D03*
X0046200Y0093000D03*
X0045650Y0087600D03*
X0041150Y0080050D03*
X0033450Y0085000D03*
X0023100Y0105900D03*
X0046700Y0129500D03*
X0037700Y0140600D03*
X0022400Y0159300D03*
X0048000Y0180550D03*
X0057000Y0174600D03*
X0061600Y0166600D03*
X0066650Y0175650D03*
X0068344Y0104056D03*
X0070800Y0100900D03*
X0077900Y0102200D03*
X0079600Y0091400D03*
X0076200Y0085400D03*
X0072300Y0082900D03*
X0072463Y0089217D03*
X0089650Y0083450D03*
X0083200Y0071800D03*
X0089100Y0069600D03*
X0086100Y0065100D03*
X0077000Y0066300D03*
X0072600Y0065400D03*
X0071100Y0058300D03*
X0067000Y0060600D03*
X0091400Y0042000D03*
X0095750Y0038900D03*
X0098600Y0042850D03*
X0101100Y0035450D03*
X0095600Y0033600D03*
X0091200Y0036650D03*
X0109050Y0034550D03*
X0114950Y0034400D03*
X0121700Y0032650D03*
X0129550Y0030800D03*
X0132600Y0054600D03*
X0137300Y0054250D03*
X0159150Y0044000D03*
X0101600Y0064750D03*
X0230500Y0196400D03*
X0226500Y0207000D03*
X0231000Y0208100D03*
X0221454Y0207200D03*
X0213200Y0213050D03*
X0246000Y0195500D03*
X0357900Y0309600D03*
X0362000Y0307300D03*
X0363500Y0314400D03*
X0367900Y0315300D03*
X0374100Y0320800D03*
X0380000Y0318600D03*
X0377000Y0314100D03*
X0392500Y0313750D03*
X0399350Y0329800D03*
X0394700Y0331100D03*
X0408400Y0327200D03*
X0427500Y0328600D03*
X0436800Y0331600D03*
X0442800Y0329800D03*
X0441100Y0326100D03*
X0450500Y0330000D03*
X0440000Y0350000D03*
X0425700Y0361700D03*
X0412800Y0362400D03*
X0411800Y0358600D03*
X0410800Y0354800D03*
X0389400Y0346900D03*
X0380550Y0332450D03*
X0370500Y0340400D03*
X0367100Y0334400D03*
X0363200Y0331900D03*
X0363363Y0338217D03*
X0361700Y0349900D03*
X0359244Y0353056D03*
X0368800Y0351200D03*
X0367700Y0363200D03*
X0364500Y0366200D03*
X0372600Y0363300D03*
X0377300Y0364900D03*
X0385900Y0365800D03*
X0381700Y0377000D03*
X0377300Y0379200D03*
X0371100Y0377500D03*
X0368700Y0381200D03*
X0366000Y0394500D03*
X0365000Y0400200D03*
X0352500Y0415600D03*
X0347900Y0423600D03*
X0338900Y0429550D03*
X0357550Y0424650D03*
X0382000Y0414200D03*
X0384300Y0430200D03*
X0396800Y0449400D03*
X0402800Y0449100D03*
X0408400Y0449300D03*
X0409050Y0433950D03*
X0413200Y0434100D03*
X0419000Y0430850D03*
X0450000Y0436400D03*
X0459500Y0439700D03*
X0457700Y0443600D03*
X0462900Y0436400D03*
X0471200Y0452400D03*
X0452000Y0463950D03*
X0444900Y0466200D03*
X0390350Y0453500D03*
X0430050Y0396500D03*
X0429900Y0391050D03*
X0444900Y0392800D03*
X0445050Y0400450D03*
X0454300Y0396300D03*
X0454600Y0377700D03*
X0438100Y0374600D03*
X0427700Y0374200D03*
X0407250Y0385600D03*
X0395000Y0379700D03*
X0387900Y0378400D03*
X0385900Y0389800D03*
X0355200Y0379200D03*
X0347400Y0363900D03*
X0337400Y0358800D03*
X0347900Y0351200D03*
X0344000Y0345900D03*
X0337100Y0342000D03*
X0336550Y0336600D03*
X0332050Y0329050D03*
X0324350Y0334000D03*
X0314000Y0354900D03*
X0337600Y0378500D03*
X0328600Y0389600D03*
X0313300Y0408300D03*
X0256300Y0384800D03*
X0241000Y0403500D03*
X0232000Y0414600D03*
X0222200Y0429200D03*
X0232200Y0434300D03*
X0221700Y0441900D03*
X0225600Y0447200D03*
X0232500Y0451100D03*
X0233050Y0456500D03*
X0237550Y0464050D03*
X0245250Y0459100D03*
X0255600Y0438200D03*
X0214400Y0413900D03*
X0200900Y0411900D03*
X0198500Y0415600D03*
X0192300Y0413900D03*
X0187900Y0416100D03*
X0181700Y0414700D03*
X0174600Y0413400D03*
X0183700Y0403300D03*
X0203600Y0398600D03*
X0204600Y0392900D03*
X0217100Y0377500D03*
X0221700Y0369500D03*
X0212050Y0368450D03*
X0230700Y0363550D03*
X0185300Y0362900D03*
X0187600Y0378900D03*
X0160550Y0359150D03*
X0156400Y0359000D03*
X0150600Y0362250D03*
X0161200Y0343800D03*
X0166800Y0344000D03*
X0172800Y0343700D03*
X0179250Y0339600D03*
X0124700Y0326900D03*
X0117600Y0329150D03*
X0098400Y0340700D03*
X0111900Y0349500D03*
X0110100Y0353400D03*
X0106700Y0356700D03*
X0119600Y0356700D03*
X0093050Y0379200D03*
X0089350Y0383150D03*
X0088000Y0387900D03*
X0084050Y0383200D03*
X0086900Y0378000D03*
X0094050Y0385600D03*
X0115300Y0396800D03*
X0124700Y0400300D03*
X0124550Y0392650D03*
X0139550Y0396600D03*
X0139700Y0402050D03*
X0141900Y0418900D03*
X0131500Y0418500D03*
X0115000Y0415400D03*
X0143900Y0431400D03*
X0156800Y0430700D03*
X0157800Y0434500D03*
X0158800Y0438300D03*
X0180200Y0446200D03*
X0174900Y0462000D03*
X0170250Y0463300D03*
X0161200Y0465900D03*
X0177100Y0479350D03*
X0189600Y0474500D03*
X0192600Y0479000D03*
X0195500Y0472300D03*
X0201700Y0477800D03*
X0206100Y0478700D03*
X0211700Y0483500D03*
X0207600Y0485800D03*
X0187300Y0502100D03*
X0182950Y0505200D03*
X0180100Y0501250D03*
X0177600Y0508650D03*
X0183100Y0510500D03*
X0187500Y0507450D03*
X0169650Y0509550D03*
X0163750Y0509700D03*
X0157000Y0511450D03*
X0149150Y0513300D03*
X0146100Y0489500D03*
X0141400Y0489850D03*
X0119550Y0500100D03*
X0128500Y0467000D03*
X0126800Y0463300D03*
X0132800Y0461500D03*
X0142100Y0464500D03*
X0119100Y0463100D03*
X0129600Y0443100D03*
X0162350Y0407500D03*
X0183700Y0427300D03*
X0192300Y0428200D03*
X0197000Y0429800D03*
X0201900Y0429900D03*
X0205100Y0426900D03*
X0210356Y0440044D03*
X0207900Y0443200D03*
X0200800Y0441900D03*
X0199100Y0452700D03*
X0202500Y0458700D03*
X0206400Y0461200D03*
X0206237Y0454883D03*
X0189050Y0460650D03*
X0060700Y0400900D03*
X0056750Y0396150D03*
X0053900Y0392050D03*
X0050450Y0397200D03*
X0062150Y0394800D03*
X0059800Y0376600D03*
X0060300Y0372500D03*
X0036650Y0375850D03*
X0025400Y0372800D03*
X0024300Y0377950D03*
X0032700Y0348600D03*
X0048200Y0347700D03*
X0052200Y0337100D03*
X0047700Y0336000D03*
X0057246Y0336900D03*
X0065500Y0331050D03*
X0382300Y0291000D03*
X0386650Y0287900D03*
X0389500Y0291850D03*
X0392000Y0284450D03*
X0386500Y0282600D03*
X0382100Y0285650D03*
X0399950Y0283550D03*
X0405850Y0283400D03*
X0412600Y0281650D03*
X0420450Y0279800D03*
X0423500Y0303600D03*
X0428200Y0303250D03*
X0450050Y0293000D03*
X0469750Y0191650D03*
X0479800Y0183700D03*
X0483200Y0189700D03*
X0487100Y0192200D03*
X0486937Y0185883D03*
X0488600Y0174200D03*
X0491056Y0171044D03*
X0481500Y0172900D03*
X0508900Y0392200D03*
X0512850Y0396950D03*
X0515700Y0401050D03*
X0519150Y0395900D03*
X0507450Y0398300D03*
X0509800Y0416500D03*
X0509300Y0420600D03*
X0532950Y0417250D03*
X0544200Y0420300D03*
X0545300Y0415150D03*
X0536900Y0444500D03*
X0521400Y0445400D03*
X0517400Y0456000D03*
X0521900Y0457100D03*
X0512354Y0456200D03*
X0504100Y0462050D03*
X0482700Y0415100D03*
X0480250Y0409950D03*
X0481600Y0405200D03*
X0485550Y0409900D03*
X0476550Y0413900D03*
X0475550Y0407500D03*
D24*
X0527600Y0431650D03*
X0531550Y0431650D03*
X0531550Y0435650D03*
X0527600Y0435650D03*
X0417400Y0317500D03*
X0413450Y0317500D03*
X0413450Y0313550D03*
X0417400Y0313550D03*
X0330700Y0351250D03*
X0327050Y0352700D03*
X0327200Y0349250D03*
X0321200Y0359000D03*
X0395700Y0417900D03*
X0399650Y0417900D03*
X0399650Y0421850D03*
X0395700Y0421850D03*
X0248400Y0434100D03*
X0242550Y0440400D03*
X0242400Y0443850D03*
X0238900Y0441850D03*
X0173900Y0375200D03*
X0173900Y0371250D03*
X0169950Y0371250D03*
X0169950Y0375200D03*
X0156150Y0475600D03*
X0156150Y0479550D03*
X0152200Y0479550D03*
X0152200Y0475600D03*
X0042000Y0361450D03*
X0038050Y0361450D03*
X0038050Y0357450D03*
X0042000Y0357450D03*
X0236700Y0186650D03*
X0240650Y0186650D03*
X0240650Y0182650D03*
X0236700Y0182650D03*
X0318750Y0092450D03*
X0322700Y0092450D03*
X0322700Y0088450D03*
X0318750Y0088450D03*
X0450650Y0102250D03*
X0450650Y0106200D03*
X0454600Y0106200D03*
X0454600Y0102250D03*
X0519600Y0172850D03*
X0523250Y0171400D03*
X0523100Y0174850D03*
X0529100Y0165100D03*
X0436850Y0206600D03*
X0436850Y0210550D03*
X0432900Y0210550D03*
X0432900Y0206600D03*
X0126500Y0068500D03*
X0126500Y0064550D03*
X0122550Y0064550D03*
X0122550Y0068500D03*
X0039800Y0102250D03*
X0036150Y0103700D03*
X0036300Y0100250D03*
X0030300Y0110000D03*
X0104800Y0168900D03*
X0104800Y0172850D03*
X0108750Y0172850D03*
X0108750Y0168900D03*
D25*
X0113900Y0152300D03*
X0113700Y0140100D03*
X0101800Y0108900D03*
X0097800Y0102300D03*
X0095600Y0093400D03*
X0100000Y0088700D03*
X0079500Y0083000D03*
X0074000Y0098700D03*
X0038500Y0069800D03*
X0038500Y0060600D03*
X0051300Y0051700D03*
X0048200Y0045000D03*
X0067800Y0048100D03*
X0095400Y0054200D03*
X0170800Y0203200D03*
X0175100Y0203800D03*
X0107900Y0340900D03*
X0103600Y0340300D03*
X0164800Y0391800D03*
X0165000Y0404000D03*
X0176900Y0435200D03*
X0180900Y0441800D03*
X0183100Y0450700D03*
X0178700Y0455400D03*
X0199200Y0461100D03*
X0204700Y0445400D03*
X0240200Y0474300D03*
X0240200Y0483500D03*
X0227400Y0492400D03*
X0230500Y0499100D03*
X0210900Y0496000D03*
X0183300Y0489900D03*
X0364900Y0347700D03*
X0370400Y0332000D03*
X0386500Y0342400D03*
X0390900Y0337700D03*
X0388700Y0351300D03*
X0392700Y0357900D03*
X0404600Y0389100D03*
X0404800Y0401300D03*
X0461700Y0452200D03*
X0466000Y0452800D03*
X0329400Y0318800D03*
X0329400Y0309600D03*
X0342200Y0300700D03*
X0339100Y0294000D03*
X0358700Y0297100D03*
X0386300Y0303200D03*
X0464000Y0220900D03*
X0491600Y0227000D03*
X0508100Y0223400D03*
X0511200Y0230100D03*
X0520900Y0214500D03*
X0520900Y0205300D03*
X0485400Y0176400D03*
X0479900Y0192100D03*
X0463800Y0181700D03*
X0459400Y0186400D03*
X0461600Y0172800D03*
X0457600Y0166200D03*
X0445700Y0135000D03*
X0445500Y0122800D03*
X0388600Y0071900D03*
X0384300Y0071300D03*
D26*
X0443800Y0128500D03*
X0532700Y0157300D03*
X0458600Y0285800D03*
X0391700Y0238300D03*
X0257000Y0199300D03*
X0302400Y0075800D03*
X0167700Y0036800D03*
X0115600Y0146600D03*
X0026700Y0117800D03*
X0021700Y0344800D03*
X0163100Y0397500D03*
X0252000Y0426300D03*
X0317600Y0366800D03*
X0406500Y0395600D03*
X0547900Y0448300D03*
X0111000Y0507300D03*
M02*
