G75*
%MOIN*%
%OFA0B0*%
%FSLAX25Y25*%
%IPPOS*%
%LPD*%
%AMOC8*
5,1,8,0,0,1.08239X$1,22.5*
%
%ADD10C,0.12611*%
%ADD11R,0.03162X0.04146*%
%ADD12R,0.03556X0.03950*%
%ADD13R,0.04146X0.03162*%
%ADD14R,0.03950X0.03556*%
%ADD15R,0.09068X0.09068*%
%ADD16C,0.02178*%
%ADD17R,0.01800X0.06706*%
%ADD18R,0.06706X0.01800*%
%ADD19C,0.01575*%
%ADD20R,0.06890X0.06890*%
%ADD21R,0.01575X0.02756*%
%ADD22R,0.02756X0.01575*%
%ADD23R,0.04343X0.03556*%
%ADD24R,0.05131X0.04737*%
%ADD25R,0.04737X0.05131*%
%ADD26R,0.05524X0.06312*%
%ADD27R,0.02375X0.06115*%
%ADD28C,0.06343*%
%ADD29C,0.07887*%
%ADD30C,0.05300*%
%ADD31R,0.05315X0.01772*%
%ADD32R,0.03556X0.04343*%
%ADD33C,0.05556*%
%ADD34C,0.08200*%
%ADD35C,0.03900*%
%ADD36C,0.03600*%
%ADD37C,0.03918*%
%ADD38C,0.08300*%
D10*
X0145922Y0037011D03*
X0306943Y0027262D03*
X0533832Y0082971D03*
X0413478Y0238089D03*
X0436822Y0286011D03*
X0316468Y0441129D03*
X0253132Y0351971D03*
X0252457Y0247838D03*
X0026243Y0296262D03*
X0025568Y0192129D03*
X0132778Y0507089D03*
X0543357Y0496838D03*
D11*
X0531546Y0461995D03*
X0526822Y0461995D03*
X0522098Y0461995D03*
X0517373Y0461995D03*
X0512649Y0461995D03*
X0507924Y0461995D03*
G36*
X0479136Y0460676D02*
X0482293Y0460841D01*
X0482510Y0456702D01*
X0479353Y0456537D01*
X0479136Y0460676D01*
G37*
G36*
X0474418Y0460429D02*
X0477575Y0460594D01*
X0477792Y0456455D01*
X0474635Y0456290D01*
X0474418Y0460429D01*
G37*
G36*
X0469700Y0460181D02*
X0472857Y0460346D01*
X0473074Y0456207D01*
X0469917Y0456042D01*
X0469700Y0460181D01*
G37*
G36*
X0464982Y0459934D02*
X0468139Y0460099D01*
X0468356Y0455960D01*
X0465199Y0455795D01*
X0464982Y0459934D01*
G37*
G36*
X0460264Y0459687D02*
X0463421Y0459852D01*
X0463638Y0455713D01*
X0460481Y0455548D01*
X0460264Y0459687D01*
G37*
G36*
X0455546Y0459440D02*
X0458703Y0459605D01*
X0458920Y0455466D01*
X0455763Y0455301D01*
X0455546Y0459440D01*
G37*
G36*
X0416144Y0456739D02*
X0419301Y0456904D01*
X0419518Y0452765D01*
X0416361Y0452600D01*
X0416144Y0456739D01*
G37*
G36*
X0411426Y0456492D02*
X0414583Y0456657D01*
X0414800Y0452518D01*
X0411643Y0452353D01*
X0411426Y0456492D01*
G37*
G36*
X0406708Y0456244D02*
X0409865Y0456409D01*
X0410082Y0452270D01*
X0406925Y0452105D01*
X0406708Y0456244D01*
G37*
G36*
X0401990Y0455997D02*
X0405147Y0456162D01*
X0405364Y0452023D01*
X0402207Y0451858D01*
X0401990Y0455997D01*
G37*
G36*
X0397272Y0455750D02*
X0400429Y0455915D01*
X0400646Y0451776D01*
X0397489Y0451611D01*
X0397272Y0455750D01*
G37*
G36*
X0392554Y0455503D02*
X0395711Y0455668D01*
X0395928Y0451529D01*
X0392771Y0451364D01*
X0392554Y0455503D01*
G37*
G36*
X0364963Y0433117D02*
X0368120Y0433282D01*
X0368337Y0429143D01*
X0365180Y0428978D01*
X0364963Y0433117D01*
G37*
G36*
X0360245Y0432870D02*
X0363402Y0433035D01*
X0363619Y0428896D01*
X0360462Y0428731D01*
X0360245Y0432870D01*
G37*
G36*
X0355527Y0432622D02*
X0358684Y0432787D01*
X0358901Y0428648D01*
X0355744Y0428483D01*
X0355527Y0432622D01*
G37*
G36*
X0350809Y0432375D02*
X0353966Y0432540D01*
X0354183Y0428401D01*
X0351026Y0428236D01*
X0350809Y0432375D01*
G37*
G36*
X0346091Y0432128D02*
X0349248Y0432293D01*
X0349465Y0428154D01*
X0346308Y0427989D01*
X0346091Y0432128D01*
G37*
G36*
X0341373Y0431880D02*
X0344530Y0432045D01*
X0344747Y0427906D01*
X0341590Y0427741D01*
X0341373Y0431880D01*
G37*
G36*
X0453669Y0361257D02*
X0453119Y0358144D01*
X0449037Y0358863D01*
X0449587Y0361976D01*
X0453669Y0361257D01*
G37*
G36*
X0454489Y0365910D02*
X0453939Y0362797D01*
X0449857Y0363516D01*
X0450407Y0366629D01*
X0454489Y0365910D01*
G37*
G36*
X0455309Y0370563D02*
X0454759Y0367450D01*
X0450677Y0368169D01*
X0451227Y0371282D01*
X0455309Y0370563D01*
G37*
G36*
X0456130Y0375215D02*
X0455580Y0372102D01*
X0451498Y0372821D01*
X0452048Y0375934D01*
X0456130Y0375215D01*
G37*
G36*
X0452848Y0356605D02*
X0452298Y0353492D01*
X0448216Y0354211D01*
X0448766Y0357324D01*
X0452848Y0356605D01*
G37*
G36*
X0452028Y0351952D02*
X0451478Y0348839D01*
X0447396Y0349558D01*
X0447946Y0352671D01*
X0452028Y0351952D01*
G37*
G36*
X0398272Y0172148D02*
X0398822Y0175261D01*
X0402904Y0174542D01*
X0402354Y0171429D01*
X0398272Y0172148D01*
G37*
G36*
X0397452Y0167495D02*
X0398002Y0170608D01*
X0402084Y0169889D01*
X0401534Y0166776D01*
X0397452Y0167495D01*
G37*
G36*
X0396631Y0162843D02*
X0397181Y0165956D01*
X0401263Y0165237D01*
X0400713Y0162124D01*
X0396631Y0162843D01*
G37*
G36*
X0395811Y0158190D02*
X0396361Y0161303D01*
X0400443Y0160584D01*
X0399893Y0157471D01*
X0395811Y0158190D01*
G37*
G36*
X0394991Y0153537D02*
X0395541Y0156650D01*
X0399623Y0155931D01*
X0399073Y0152818D01*
X0394991Y0153537D01*
G37*
G36*
X0394170Y0148885D02*
X0394720Y0151998D01*
X0398802Y0151279D01*
X0398252Y0148166D01*
X0394170Y0148885D01*
G37*
G36*
X0434156Y0067361D02*
X0430999Y0067196D01*
X0430782Y0071335D01*
X0433939Y0071500D01*
X0434156Y0067361D01*
G37*
G36*
X0438874Y0067608D02*
X0435717Y0067443D01*
X0435500Y0071582D01*
X0438657Y0071747D01*
X0438874Y0067608D01*
G37*
G36*
X0443592Y0067856D02*
X0440435Y0067691D01*
X0440218Y0071830D01*
X0443375Y0071995D01*
X0443592Y0067856D01*
G37*
G36*
X0448310Y0068103D02*
X0445153Y0067938D01*
X0444936Y0072077D01*
X0448093Y0072242D01*
X0448310Y0068103D01*
G37*
G36*
X0453028Y0068350D02*
X0449871Y0068185D01*
X0449654Y0072324D01*
X0452811Y0072489D01*
X0453028Y0068350D01*
G37*
G36*
X0457746Y0068597D02*
X0454589Y0068432D01*
X0454372Y0072571D01*
X0457529Y0072736D01*
X0457746Y0068597D01*
G37*
G36*
X0485337Y0090983D02*
X0482180Y0090818D01*
X0481963Y0094957D01*
X0485120Y0095122D01*
X0485337Y0090983D01*
G37*
G36*
X0490055Y0091230D02*
X0486898Y0091065D01*
X0486681Y0095204D01*
X0489838Y0095369D01*
X0490055Y0091230D01*
G37*
G36*
X0494773Y0091478D02*
X0491616Y0091313D01*
X0491399Y0095452D01*
X0494556Y0095617D01*
X0494773Y0091478D01*
G37*
G36*
X0499491Y0091725D02*
X0496334Y0091560D01*
X0496117Y0095699D01*
X0499274Y0095864D01*
X0499491Y0091725D01*
G37*
G36*
X0504209Y0091972D02*
X0501052Y0091807D01*
X0500835Y0095946D01*
X0503992Y0096111D01*
X0504209Y0091972D01*
G37*
G36*
X0508927Y0092220D02*
X0505770Y0092055D01*
X0505553Y0096194D01*
X0508710Y0096359D01*
X0508927Y0092220D01*
G37*
G36*
X0394754Y0064660D02*
X0391597Y0064495D01*
X0391380Y0068634D01*
X0394537Y0068799D01*
X0394754Y0064660D01*
G37*
G36*
X0390036Y0064413D02*
X0386879Y0064248D01*
X0386662Y0068387D01*
X0389819Y0068552D01*
X0390036Y0064413D01*
G37*
G36*
X0385318Y0064166D02*
X0382161Y0064001D01*
X0381944Y0068140D01*
X0385101Y0068305D01*
X0385318Y0064166D01*
G37*
G36*
X0380600Y0063919D02*
X0377443Y0063754D01*
X0377226Y0067893D01*
X0380383Y0068058D01*
X0380600Y0063919D01*
G37*
G36*
X0375882Y0063671D02*
X0372725Y0063506D01*
X0372508Y0067645D01*
X0375665Y0067810D01*
X0375882Y0063671D01*
G37*
G36*
X0371164Y0063424D02*
X0368007Y0063259D01*
X0367790Y0067398D01*
X0370947Y0067563D01*
X0371164Y0063424D01*
G37*
X0342376Y0062105D03*
X0337651Y0062105D03*
X0332927Y0062105D03*
X0328202Y0062105D03*
X0323478Y0062105D03*
X0318754Y0062105D03*
G36*
X0162769Y0112257D02*
X0162219Y0109144D01*
X0158137Y0109863D01*
X0158687Y0112976D01*
X0162769Y0112257D01*
G37*
G36*
X0163589Y0116910D02*
X0163039Y0113797D01*
X0158957Y0114516D01*
X0159507Y0117629D01*
X0163589Y0116910D01*
G37*
G36*
X0164409Y0121563D02*
X0163859Y0118450D01*
X0159777Y0119169D01*
X0160327Y0122282D01*
X0164409Y0121563D01*
G37*
G36*
X0165230Y0126215D02*
X0164680Y0123102D01*
X0160598Y0123821D01*
X0161148Y0126934D01*
X0165230Y0126215D01*
G37*
G36*
X0161948Y0107605D02*
X0161398Y0104492D01*
X0157316Y0105211D01*
X0157866Y0108324D01*
X0161948Y0107605D01*
G37*
G36*
X0161128Y0102952D02*
X0160578Y0099839D01*
X0156496Y0100558D01*
X0157046Y0103671D01*
X0161128Y0102952D01*
G37*
G36*
X0074063Y0184117D02*
X0077220Y0184282D01*
X0077437Y0180143D01*
X0074280Y0179978D01*
X0074063Y0184117D01*
G37*
G36*
X0069345Y0183870D02*
X0072502Y0184035D01*
X0072719Y0179896D01*
X0069562Y0179731D01*
X0069345Y0183870D01*
G37*
G36*
X0064627Y0183622D02*
X0067784Y0183787D01*
X0068001Y0179648D01*
X0064844Y0179483D01*
X0064627Y0183622D01*
G37*
G36*
X0059909Y0183375D02*
X0063066Y0183540D01*
X0063283Y0179401D01*
X0060126Y0179236D01*
X0059909Y0183375D01*
G37*
G36*
X0055191Y0183128D02*
X0058348Y0183293D01*
X0058565Y0179154D01*
X0055408Y0178989D01*
X0055191Y0183128D01*
G37*
G36*
X0050473Y0182880D02*
X0053630Y0183045D01*
X0053847Y0178906D01*
X0050690Y0178741D01*
X0050473Y0182880D01*
G37*
G36*
X0101654Y0206503D02*
X0104811Y0206668D01*
X0105028Y0202529D01*
X0101871Y0202364D01*
X0101654Y0206503D01*
G37*
G36*
X0106372Y0206750D02*
X0109529Y0206915D01*
X0109746Y0202776D01*
X0106589Y0202611D01*
X0106372Y0206750D01*
G37*
G36*
X0111090Y0206997D02*
X0114247Y0207162D01*
X0114464Y0203023D01*
X0111307Y0202858D01*
X0111090Y0206997D01*
G37*
G36*
X0115808Y0207244D02*
X0118965Y0207409D01*
X0119182Y0203270D01*
X0116025Y0203105D01*
X0115808Y0207244D01*
G37*
G36*
X0120526Y0207492D02*
X0123683Y0207657D01*
X0123900Y0203518D01*
X0120743Y0203353D01*
X0120526Y0207492D01*
G37*
G36*
X0125244Y0207739D02*
X0128401Y0207904D01*
X0128618Y0203765D01*
X0125461Y0203600D01*
X0125244Y0207739D01*
G37*
G36*
X0164646Y0210440D02*
X0167803Y0210605D01*
X0168020Y0206466D01*
X0164863Y0206301D01*
X0164646Y0210440D01*
G37*
G36*
X0169364Y0210687D02*
X0172521Y0210852D01*
X0172738Y0206713D01*
X0169581Y0206548D01*
X0169364Y0210687D01*
G37*
G36*
X0174082Y0210934D02*
X0177239Y0211099D01*
X0177456Y0206960D01*
X0174299Y0206795D01*
X0174082Y0210934D01*
G37*
G36*
X0178800Y0211181D02*
X0181957Y0211346D01*
X0182174Y0207207D01*
X0179017Y0207042D01*
X0178800Y0211181D01*
G37*
G36*
X0183518Y0211429D02*
X0186675Y0211594D01*
X0186892Y0207455D01*
X0183735Y0207290D01*
X0183518Y0211429D01*
G37*
G36*
X0188236Y0211676D02*
X0191393Y0211841D01*
X0191610Y0207702D01*
X0188453Y0207537D01*
X0188236Y0211676D01*
G37*
X0217024Y0212995D03*
X0221749Y0212995D03*
X0226473Y0212995D03*
X0231198Y0212995D03*
X0235922Y0212995D03*
X0240646Y0212995D03*
G36*
X0114054Y0333660D02*
X0110897Y0333495D01*
X0110680Y0337634D01*
X0113837Y0337799D01*
X0114054Y0333660D01*
G37*
G36*
X0109336Y0333413D02*
X0106179Y0333248D01*
X0105962Y0337387D01*
X0109119Y0337552D01*
X0109336Y0333413D01*
G37*
G36*
X0104618Y0333166D02*
X0101461Y0333001D01*
X0101244Y0337140D01*
X0104401Y0337305D01*
X0104618Y0333166D01*
G37*
G36*
X0099900Y0332919D02*
X0096743Y0332754D01*
X0096526Y0336893D01*
X0099683Y0337058D01*
X0099900Y0332919D01*
G37*
G36*
X0095182Y0332671D02*
X0092025Y0332506D01*
X0091808Y0336645D01*
X0094965Y0336810D01*
X0095182Y0332671D01*
G37*
G36*
X0090464Y0332424D02*
X0087307Y0332259D01*
X0087090Y0336398D01*
X0090247Y0336563D01*
X0090464Y0332424D01*
G37*
X0061676Y0331105D03*
X0056951Y0331105D03*
X0052227Y0331105D03*
X0047502Y0331105D03*
X0042778Y0331105D03*
X0038054Y0331105D03*
G36*
X0113470Y0417885D02*
X0114020Y0420998D01*
X0118102Y0420279D01*
X0117552Y0417166D01*
X0113470Y0417885D01*
G37*
G36*
X0114291Y0422537D02*
X0114841Y0425650D01*
X0118923Y0424931D01*
X0118373Y0421818D01*
X0114291Y0422537D01*
G37*
G36*
X0115111Y0427190D02*
X0115661Y0430303D01*
X0119743Y0429584D01*
X0119193Y0426471D01*
X0115111Y0427190D01*
G37*
G36*
X0115931Y0431843D02*
X0116481Y0434956D01*
X0120563Y0434237D01*
X0120013Y0431124D01*
X0115931Y0431843D01*
G37*
G36*
X0116752Y0436495D02*
X0117302Y0439608D01*
X0121384Y0438889D01*
X0120834Y0435776D01*
X0116752Y0436495D01*
G37*
G36*
X0117572Y0441148D02*
X0118122Y0444261D01*
X0122204Y0443542D01*
X0121654Y0440429D01*
X0117572Y0441148D01*
G37*
G36*
X0204637Y0359983D02*
X0201480Y0359818D01*
X0201263Y0363957D01*
X0204420Y0364122D01*
X0204637Y0359983D01*
G37*
G36*
X0209355Y0360230D02*
X0206198Y0360065D01*
X0205981Y0364204D01*
X0209138Y0364369D01*
X0209355Y0360230D01*
G37*
G36*
X0214073Y0360478D02*
X0210916Y0360313D01*
X0210699Y0364452D01*
X0213856Y0364617D01*
X0214073Y0360478D01*
G37*
G36*
X0218791Y0360725D02*
X0215634Y0360560D01*
X0215417Y0364699D01*
X0218574Y0364864D01*
X0218791Y0360725D01*
G37*
G36*
X0223509Y0360972D02*
X0220352Y0360807D01*
X0220135Y0364946D01*
X0223292Y0365111D01*
X0223509Y0360972D01*
G37*
G36*
X0228227Y0361220D02*
X0225070Y0361055D01*
X0224853Y0365194D01*
X0228010Y0365359D01*
X0228227Y0361220D01*
G37*
G36*
X0177046Y0337597D02*
X0173889Y0337432D01*
X0173672Y0341571D01*
X0176829Y0341736D01*
X0177046Y0337597D01*
G37*
G36*
X0172328Y0337350D02*
X0169171Y0337185D01*
X0168954Y0341324D01*
X0172111Y0341489D01*
X0172328Y0337350D01*
G37*
G36*
X0167610Y0337103D02*
X0164453Y0336938D01*
X0164236Y0341077D01*
X0167393Y0341242D01*
X0167610Y0337103D01*
G37*
G36*
X0162892Y0336856D02*
X0159735Y0336691D01*
X0159518Y0340830D01*
X0162675Y0340995D01*
X0162892Y0336856D01*
G37*
G36*
X0158174Y0336608D02*
X0155017Y0336443D01*
X0154800Y0340582D01*
X0157957Y0340747D01*
X0158174Y0336608D01*
G37*
G36*
X0153456Y0336361D02*
X0150299Y0336196D01*
X0150082Y0340335D01*
X0153239Y0340500D01*
X0153456Y0336361D01*
G37*
D12*
G36*
X0149904Y0321390D02*
X0146354Y0321204D01*
X0146148Y0325148D01*
X0149698Y0325334D01*
X0149904Y0321390D01*
G37*
G36*
X0182536Y0323101D02*
X0178986Y0322915D01*
X0178780Y0326859D01*
X0182330Y0327045D01*
X0182536Y0323101D01*
G37*
G36*
X0201085Y0345012D02*
X0197535Y0344826D01*
X0197329Y0348770D01*
X0200879Y0348956D01*
X0201085Y0345012D01*
G37*
G36*
X0233717Y0346723D02*
X0230167Y0346537D01*
X0229961Y0350481D01*
X0233511Y0350667D01*
X0233717Y0346723D01*
G37*
G36*
X0335883Y0446377D02*
X0339433Y0446563D01*
X0339639Y0442619D01*
X0336089Y0442433D01*
X0335883Y0446377D01*
G37*
G36*
X0368515Y0448088D02*
X0372065Y0448274D01*
X0372271Y0444330D01*
X0368721Y0444144D01*
X0368515Y0448088D01*
G37*
G36*
X0387064Y0469999D02*
X0390614Y0470185D01*
X0390820Y0466241D01*
X0387270Y0466055D01*
X0387064Y0469999D01*
G37*
G36*
X0419696Y0471710D02*
X0423246Y0471896D01*
X0423452Y0467952D01*
X0419902Y0467766D01*
X0419696Y0471710D01*
G37*
G36*
X0450056Y0473936D02*
X0453606Y0474122D01*
X0453812Y0470178D01*
X0450262Y0469992D01*
X0450056Y0473936D01*
G37*
G36*
X0482689Y0475647D02*
X0486239Y0475833D01*
X0486445Y0471889D01*
X0482895Y0471703D01*
X0482689Y0475647D01*
G37*
X0503397Y0476857D03*
X0536074Y0476857D03*
G36*
X0471489Y0377304D02*
X0470872Y0373803D01*
X0466983Y0374488D01*
X0467600Y0377989D01*
X0471489Y0377304D01*
G37*
G36*
X0465815Y0345123D02*
X0465198Y0341622D01*
X0461309Y0342307D01*
X0461926Y0345808D01*
X0465815Y0345123D01*
G37*
G36*
X0384485Y0178977D02*
X0385102Y0182478D01*
X0388991Y0181793D01*
X0388374Y0178292D01*
X0384485Y0178977D01*
G37*
G36*
X0378811Y0146796D02*
X0379428Y0150297D01*
X0383317Y0149612D01*
X0382700Y0146111D01*
X0378811Y0146796D01*
G37*
G36*
X0430604Y0052390D02*
X0427054Y0052204D01*
X0426848Y0056148D01*
X0430398Y0056334D01*
X0430604Y0052390D01*
G37*
G36*
X0463236Y0054101D02*
X0459686Y0053915D01*
X0459480Y0057859D01*
X0463030Y0058045D01*
X0463236Y0054101D01*
G37*
G36*
X0481785Y0076012D02*
X0478235Y0075826D01*
X0478029Y0079770D01*
X0481579Y0079956D01*
X0481785Y0076012D01*
G37*
G36*
X0514417Y0077723D02*
X0510867Y0077537D01*
X0510661Y0081481D01*
X0514211Y0081667D01*
X0514417Y0077723D01*
G37*
G36*
X0400244Y0050164D02*
X0396694Y0049978D01*
X0396488Y0053922D01*
X0400038Y0054108D01*
X0400244Y0050164D01*
G37*
G36*
X0367611Y0048453D02*
X0364061Y0048267D01*
X0363855Y0052211D01*
X0367405Y0052397D01*
X0367611Y0048453D01*
G37*
X0346903Y0047243D03*
X0314226Y0047243D03*
G36*
X0180589Y0128304D02*
X0179972Y0124803D01*
X0176083Y0125488D01*
X0176700Y0128989D01*
X0180589Y0128304D01*
G37*
G36*
X0174915Y0096123D02*
X0174298Y0092622D01*
X0170409Y0093307D01*
X0171026Y0096808D01*
X0174915Y0096123D01*
G37*
G36*
X0077615Y0199088D02*
X0081165Y0199274D01*
X0081371Y0195330D01*
X0077821Y0195144D01*
X0077615Y0199088D01*
G37*
G36*
X0096164Y0220999D02*
X0099714Y0221185D01*
X0099920Y0217241D01*
X0096370Y0217055D01*
X0096164Y0220999D01*
G37*
G36*
X0128796Y0222710D02*
X0132346Y0222896D01*
X0132552Y0218952D01*
X0129002Y0218766D01*
X0128796Y0222710D01*
G37*
G36*
X0159156Y0224936D02*
X0162706Y0225122D01*
X0162912Y0221178D01*
X0159362Y0220992D01*
X0159156Y0224936D01*
G37*
G36*
X0191789Y0226647D02*
X0195339Y0226833D01*
X0195545Y0222889D01*
X0191995Y0222703D01*
X0191789Y0226647D01*
G37*
X0212497Y0227857D03*
X0245174Y0227857D03*
G36*
X0119544Y0319164D02*
X0115994Y0318978D01*
X0115788Y0322922D01*
X0119338Y0323108D01*
X0119544Y0319164D01*
G37*
G36*
X0086911Y0317453D02*
X0083361Y0317267D01*
X0083155Y0321211D01*
X0086705Y0321397D01*
X0086911Y0317453D01*
G37*
X0066203Y0316243D03*
X0033526Y0316243D03*
G36*
X0098111Y0415796D02*
X0098728Y0419297D01*
X0102617Y0418612D01*
X0102000Y0415111D01*
X0098111Y0415796D01*
G37*
G36*
X0103785Y0447977D02*
X0104402Y0451478D01*
X0108291Y0450793D01*
X0107674Y0447292D01*
X0103785Y0447977D01*
G37*
G36*
X0044983Y0197377D02*
X0048533Y0197563D01*
X0048739Y0193619D01*
X0045189Y0193433D01*
X0044983Y0197377D01*
G37*
D13*
X0156788Y0076381D03*
X0156788Y0071657D03*
X0156788Y0066932D03*
X0156788Y0062208D03*
X0156788Y0057483D03*
X0156788Y0052759D03*
X0402612Y0198719D03*
X0402612Y0203443D03*
X0402612Y0208168D03*
X0402612Y0212892D03*
X0402612Y0217617D03*
X0402612Y0222341D03*
X0447688Y0301759D03*
X0447688Y0306483D03*
X0447688Y0311208D03*
X0447688Y0315932D03*
X0447688Y0320657D03*
X0447688Y0325381D03*
X0121912Y0467719D03*
X0121912Y0472443D03*
X0121912Y0477168D03*
X0121912Y0481892D03*
X0121912Y0486617D03*
X0121912Y0491341D03*
D14*
X0107050Y0495869D03*
X0107050Y0463191D03*
X0387750Y0226869D03*
X0387750Y0194191D03*
X0462550Y0297231D03*
X0462550Y0329909D03*
X0171650Y0080909D03*
X0171650Y0048231D03*
D15*
X0124505Y0066539D03*
X0106788Y0170869D03*
X0238678Y0184649D03*
X0320722Y0090451D03*
X0434895Y0208561D03*
X0452612Y0104231D03*
X0415405Y0315539D03*
X0397688Y0419869D03*
X0529578Y0433649D03*
X0171912Y0373231D03*
X0154195Y0477561D03*
X0040022Y0359451D03*
D16*
X0033821Y0358172D02*
X0028309Y0358172D01*
X0028309Y0360731D02*
X0033821Y0360731D01*
X0033821Y0363290D02*
X0028309Y0363290D01*
X0028309Y0355613D02*
X0033821Y0355613D01*
X0036183Y0353250D02*
X0036183Y0347738D01*
X0038743Y0347738D02*
X0038743Y0353250D01*
X0041302Y0353250D02*
X0041302Y0347738D01*
X0043861Y0347738D02*
X0043861Y0353250D01*
X0046223Y0355613D02*
X0051735Y0355613D01*
X0051735Y0358172D02*
X0046223Y0358172D01*
X0046223Y0360731D02*
X0051735Y0360731D01*
X0051735Y0363290D02*
X0046223Y0363290D01*
X0043861Y0365652D02*
X0043861Y0371164D01*
X0041302Y0371164D02*
X0041302Y0365652D01*
X0038743Y0365652D02*
X0038743Y0371164D01*
X0036183Y0371164D02*
X0036183Y0365652D01*
X0142483Y0473723D02*
X0147995Y0473723D01*
X0147995Y0476282D02*
X0142483Y0476282D01*
X0142483Y0478841D02*
X0147995Y0478841D01*
X0147995Y0481400D02*
X0142483Y0481400D01*
X0150357Y0483762D02*
X0150357Y0489274D01*
X0152916Y0489274D02*
X0152916Y0483762D01*
X0155475Y0483762D02*
X0155475Y0489274D01*
X0158034Y0489274D02*
X0158034Y0483762D01*
X0160396Y0481400D02*
X0165908Y0481400D01*
X0165908Y0478841D02*
X0160396Y0478841D01*
X0160396Y0476282D02*
X0165908Y0476282D01*
X0165908Y0473723D02*
X0160396Y0473723D01*
X0158034Y0471361D02*
X0158034Y0465849D01*
X0155475Y0465849D02*
X0155475Y0471361D01*
X0152916Y0471361D02*
X0152916Y0465849D01*
X0150357Y0465849D02*
X0150357Y0471361D01*
X0168073Y0384943D02*
X0168073Y0379431D01*
X0170632Y0379431D02*
X0170632Y0384943D01*
X0173191Y0384943D02*
X0173191Y0379431D01*
X0175750Y0379431D02*
X0175750Y0384943D01*
X0178113Y0377069D02*
X0183625Y0377069D01*
X0183625Y0374510D02*
X0178113Y0374510D01*
X0178113Y0371951D02*
X0183625Y0371951D01*
X0183625Y0369392D02*
X0178113Y0369392D01*
X0175750Y0367030D02*
X0175750Y0361518D01*
X0173191Y0361518D02*
X0173191Y0367030D01*
X0170632Y0367030D02*
X0170632Y0361518D01*
X0168073Y0361518D02*
X0168073Y0367030D01*
X0165711Y0369392D02*
X0160199Y0369392D01*
X0160199Y0371951D02*
X0165711Y0371951D01*
X0165711Y0374510D02*
X0160199Y0374510D01*
X0160199Y0377069D02*
X0165711Y0377069D01*
X0234839Y0196362D02*
X0234839Y0190850D01*
X0237398Y0190850D02*
X0237398Y0196362D01*
X0239957Y0196362D02*
X0239957Y0190850D01*
X0242517Y0190850D02*
X0242517Y0196362D01*
X0244879Y0188487D02*
X0250391Y0188487D01*
X0250391Y0185928D02*
X0244879Y0185928D01*
X0244879Y0183369D02*
X0250391Y0183369D01*
X0250391Y0180810D02*
X0244879Y0180810D01*
X0242517Y0178448D02*
X0242517Y0172936D01*
X0239957Y0172936D02*
X0239957Y0178448D01*
X0237398Y0178448D02*
X0237398Y0172936D01*
X0234839Y0172936D02*
X0234839Y0178448D01*
X0232477Y0180810D02*
X0226965Y0180810D01*
X0226965Y0183369D02*
X0232477Y0183369D01*
X0232477Y0185928D02*
X0226965Y0185928D01*
X0226965Y0188487D02*
X0232477Y0188487D01*
X0316883Y0102164D02*
X0316883Y0096652D01*
X0319443Y0096652D02*
X0319443Y0102164D01*
X0322002Y0102164D02*
X0322002Y0096652D01*
X0324561Y0096652D02*
X0324561Y0102164D01*
X0326923Y0094290D02*
X0332435Y0094290D01*
X0332435Y0091731D02*
X0326923Y0091731D01*
X0326923Y0089172D02*
X0332435Y0089172D01*
X0332435Y0086613D02*
X0326923Y0086613D01*
X0324561Y0084250D02*
X0324561Y0078738D01*
X0322002Y0078738D02*
X0322002Y0084250D01*
X0319443Y0084250D02*
X0319443Y0078738D01*
X0316883Y0078738D02*
X0316883Y0084250D01*
X0314521Y0086613D02*
X0309009Y0086613D01*
X0309009Y0089172D02*
X0314521Y0089172D01*
X0314521Y0091731D02*
X0309009Y0091731D01*
X0309009Y0094290D02*
X0314521Y0094290D01*
X0423183Y0204723D02*
X0428695Y0204723D01*
X0428695Y0207282D02*
X0423183Y0207282D01*
X0423183Y0209841D02*
X0428695Y0209841D01*
X0428695Y0212400D02*
X0423183Y0212400D01*
X0431057Y0214762D02*
X0431057Y0220274D01*
X0433616Y0220274D02*
X0433616Y0214762D01*
X0436175Y0214762D02*
X0436175Y0220274D01*
X0438734Y0220274D02*
X0438734Y0214762D01*
X0441096Y0212400D02*
X0446608Y0212400D01*
X0446608Y0209841D02*
X0441096Y0209841D01*
X0441096Y0207282D02*
X0446608Y0207282D01*
X0446608Y0204723D02*
X0441096Y0204723D01*
X0438734Y0202361D02*
X0438734Y0196849D01*
X0436175Y0196849D02*
X0436175Y0202361D01*
X0433616Y0202361D02*
X0433616Y0196849D01*
X0431057Y0196849D02*
X0431057Y0202361D01*
X0448773Y0115943D02*
X0448773Y0110431D01*
X0451332Y0110431D02*
X0451332Y0115943D01*
X0453891Y0115943D02*
X0453891Y0110431D01*
X0456450Y0110431D02*
X0456450Y0115943D01*
X0458813Y0108069D02*
X0464325Y0108069D01*
X0464325Y0105510D02*
X0458813Y0105510D01*
X0458813Y0102951D02*
X0464325Y0102951D01*
X0464325Y0100392D02*
X0458813Y0100392D01*
X0456450Y0098030D02*
X0456450Y0092518D01*
X0453891Y0092518D02*
X0453891Y0098030D01*
X0451332Y0098030D02*
X0451332Y0092518D01*
X0448773Y0092518D02*
X0448773Y0098030D01*
X0446411Y0100392D02*
X0440899Y0100392D01*
X0440899Y0102951D02*
X0446411Y0102951D01*
X0446411Y0105510D02*
X0440899Y0105510D01*
X0440899Y0108069D02*
X0446411Y0108069D01*
X0419243Y0303826D02*
X0419243Y0309338D01*
X0416684Y0309338D02*
X0416684Y0303826D01*
X0414125Y0303826D02*
X0414125Y0309338D01*
X0411566Y0309338D02*
X0411566Y0303826D01*
X0409204Y0311700D02*
X0403692Y0311700D01*
X0403692Y0314259D02*
X0409204Y0314259D01*
X0409204Y0316818D02*
X0403692Y0316818D01*
X0403692Y0319377D02*
X0409204Y0319377D01*
X0411566Y0321739D02*
X0411566Y0327251D01*
X0414125Y0327251D02*
X0414125Y0321739D01*
X0416684Y0321739D02*
X0416684Y0327251D01*
X0419243Y0327251D02*
X0419243Y0321739D01*
X0421605Y0319377D02*
X0427117Y0319377D01*
X0427117Y0316818D02*
X0421605Y0316818D01*
X0421605Y0314259D02*
X0427117Y0314259D01*
X0427117Y0311700D02*
X0421605Y0311700D01*
X0401527Y0408157D02*
X0401527Y0413669D01*
X0398968Y0413669D02*
X0398968Y0408157D01*
X0396409Y0408157D02*
X0396409Y0413669D01*
X0393850Y0413669D02*
X0393850Y0408157D01*
X0391487Y0416031D02*
X0385975Y0416031D01*
X0385975Y0418590D02*
X0391487Y0418590D01*
X0391487Y0421149D02*
X0385975Y0421149D01*
X0385975Y0423708D02*
X0391487Y0423708D01*
X0393850Y0426070D02*
X0393850Y0431582D01*
X0396409Y0431582D02*
X0396409Y0426070D01*
X0398968Y0426070D02*
X0398968Y0431582D01*
X0401527Y0431582D02*
X0401527Y0426070D01*
X0403889Y0423708D02*
X0409401Y0423708D01*
X0409401Y0421149D02*
X0403889Y0421149D01*
X0403889Y0418590D02*
X0409401Y0418590D01*
X0409401Y0416031D02*
X0403889Y0416031D01*
X0517865Y0429810D02*
X0523377Y0429810D01*
X0523377Y0432369D02*
X0517865Y0432369D01*
X0517865Y0434928D02*
X0523377Y0434928D01*
X0523377Y0437487D02*
X0517865Y0437487D01*
X0525739Y0439850D02*
X0525739Y0445362D01*
X0528298Y0445362D02*
X0528298Y0439850D01*
X0530857Y0439850D02*
X0530857Y0445362D01*
X0533417Y0445362D02*
X0533417Y0439850D01*
X0535779Y0437487D02*
X0541291Y0437487D01*
X0541291Y0434928D02*
X0535779Y0434928D01*
X0535779Y0432369D02*
X0541291Y0432369D01*
X0541291Y0429810D02*
X0535779Y0429810D01*
X0533417Y0427448D02*
X0533417Y0421936D01*
X0530857Y0421936D02*
X0530857Y0427448D01*
X0528298Y0427448D02*
X0528298Y0421936D01*
X0525739Y0421936D02*
X0525739Y0427448D01*
X0136217Y0070377D02*
X0130705Y0070377D01*
X0130705Y0067818D02*
X0136217Y0067818D01*
X0136217Y0065259D02*
X0130705Y0065259D01*
X0130705Y0062700D02*
X0136217Y0062700D01*
X0128343Y0060338D02*
X0128343Y0054826D01*
X0125784Y0054826D02*
X0125784Y0060338D01*
X0123225Y0060338D02*
X0123225Y0054826D01*
X0120666Y0054826D02*
X0120666Y0060338D01*
X0118304Y0062700D02*
X0112792Y0062700D01*
X0112792Y0065259D02*
X0118304Y0065259D01*
X0118304Y0067818D02*
X0112792Y0067818D01*
X0112792Y0070377D02*
X0118304Y0070377D01*
X0120666Y0072739D02*
X0120666Y0078251D01*
X0123225Y0078251D02*
X0123225Y0072739D01*
X0125784Y0072739D02*
X0125784Y0078251D01*
X0128343Y0078251D02*
X0128343Y0072739D01*
X0110627Y0159157D02*
X0110627Y0164669D01*
X0108068Y0164669D02*
X0108068Y0159157D01*
X0105509Y0159157D02*
X0105509Y0164669D01*
X0102950Y0164669D02*
X0102950Y0159157D01*
X0100587Y0167031D02*
X0095075Y0167031D01*
X0095075Y0169590D02*
X0100587Y0169590D01*
X0100587Y0172149D02*
X0095075Y0172149D01*
X0095075Y0174708D02*
X0100587Y0174708D01*
X0102950Y0177070D02*
X0102950Y0182582D01*
X0105509Y0182582D02*
X0105509Y0177070D01*
X0108068Y0177070D02*
X0108068Y0182582D01*
X0110627Y0182582D02*
X0110627Y0177070D01*
X0112989Y0174708D02*
X0118501Y0174708D01*
X0118501Y0172149D02*
X0112989Y0172149D01*
X0112989Y0169590D02*
X0118501Y0169590D01*
X0118501Y0167031D02*
X0112989Y0167031D01*
D17*
X0099898Y0122641D03*
X0097930Y0122641D03*
X0095961Y0122641D03*
X0093993Y0122641D03*
X0092024Y0122641D03*
X0090056Y0122641D03*
X0088087Y0122641D03*
X0086119Y0122641D03*
X0084150Y0122641D03*
X0082182Y0122641D03*
X0080213Y0122641D03*
X0078245Y0122641D03*
X0076276Y0122641D03*
X0074308Y0122641D03*
X0072339Y0122641D03*
X0070371Y0122641D03*
X0070371Y0077365D03*
X0072339Y0077365D03*
X0074308Y0077365D03*
X0076276Y0077365D03*
X0078245Y0077365D03*
X0080213Y0077365D03*
X0082182Y0077365D03*
X0084150Y0077365D03*
X0086119Y0077365D03*
X0088087Y0077365D03*
X0090056Y0077365D03*
X0092024Y0077365D03*
X0093993Y0077365D03*
X0095961Y0077365D03*
X0097930Y0077365D03*
X0099898Y0077365D03*
X0361271Y0326365D03*
X0363239Y0326365D03*
X0365208Y0326365D03*
X0367176Y0326365D03*
X0369145Y0326365D03*
X0371113Y0326365D03*
X0373082Y0326365D03*
X0375050Y0326365D03*
X0377019Y0326365D03*
X0378987Y0326365D03*
X0380956Y0326365D03*
X0382924Y0326365D03*
X0384893Y0326365D03*
X0386861Y0326365D03*
X0388830Y0326365D03*
X0390798Y0326365D03*
X0390798Y0371641D03*
X0388830Y0371641D03*
X0386861Y0371641D03*
X0384893Y0371641D03*
X0382924Y0371641D03*
X0380956Y0371641D03*
X0378987Y0371641D03*
X0377019Y0371641D03*
X0375050Y0371641D03*
X0373082Y0371641D03*
X0371113Y0371641D03*
X0369145Y0371641D03*
X0367176Y0371641D03*
X0365208Y0371641D03*
X0363239Y0371641D03*
X0361271Y0371641D03*
X0208329Y0421459D03*
X0206361Y0421459D03*
X0204392Y0421459D03*
X0202424Y0421459D03*
X0200455Y0421459D03*
X0198487Y0421459D03*
X0196518Y0421459D03*
X0194550Y0421459D03*
X0192581Y0421459D03*
X0190613Y0421459D03*
X0188644Y0421459D03*
X0186676Y0421459D03*
X0184707Y0421459D03*
X0182739Y0421459D03*
X0180770Y0421459D03*
X0178802Y0421459D03*
X0178802Y0466735D03*
X0180770Y0466735D03*
X0182739Y0466735D03*
X0184707Y0466735D03*
X0186676Y0466735D03*
X0188644Y0466735D03*
X0190613Y0466735D03*
X0192581Y0466735D03*
X0194550Y0466735D03*
X0196518Y0466735D03*
X0198487Y0466735D03*
X0200455Y0466735D03*
X0202424Y0466735D03*
X0204392Y0466735D03*
X0206361Y0466735D03*
X0208329Y0466735D03*
X0459502Y0197735D03*
X0461470Y0197735D03*
X0463439Y0197735D03*
X0465407Y0197735D03*
X0467376Y0197735D03*
X0469344Y0197735D03*
X0471313Y0197735D03*
X0473281Y0197735D03*
X0475250Y0197735D03*
X0477218Y0197735D03*
X0479187Y0197735D03*
X0481155Y0197735D03*
X0483124Y0197735D03*
X0485092Y0197735D03*
X0487061Y0197735D03*
X0489029Y0197735D03*
X0489029Y0152459D03*
X0487061Y0152459D03*
X0485092Y0152459D03*
X0483124Y0152459D03*
X0481155Y0152459D03*
X0479187Y0152459D03*
X0477218Y0152459D03*
X0475250Y0152459D03*
X0473281Y0152459D03*
X0471313Y0152459D03*
X0469344Y0152459D03*
X0467376Y0152459D03*
X0465407Y0152459D03*
X0463439Y0152459D03*
X0461470Y0152459D03*
X0459502Y0152459D03*
D18*
X0451628Y0160333D03*
X0451628Y0162302D03*
X0451628Y0164270D03*
X0451628Y0166239D03*
X0451628Y0168207D03*
X0451628Y0170176D03*
X0451628Y0172144D03*
X0451628Y0174113D03*
X0451628Y0176081D03*
X0451628Y0178050D03*
X0451628Y0180018D03*
X0451628Y0181987D03*
X0451628Y0183955D03*
X0451628Y0185924D03*
X0451628Y0187892D03*
X0451628Y0189861D03*
X0496903Y0189861D03*
X0496903Y0187892D03*
X0496903Y0185924D03*
X0496903Y0183955D03*
X0496903Y0181987D03*
X0496903Y0180018D03*
X0496903Y0178050D03*
X0496903Y0176081D03*
X0496903Y0174113D03*
X0496903Y0172144D03*
X0496903Y0170176D03*
X0496903Y0168207D03*
X0496903Y0166239D03*
X0496903Y0164270D03*
X0496903Y0162302D03*
X0496903Y0160333D03*
X0398672Y0334239D03*
X0398672Y0336208D03*
X0398672Y0338176D03*
X0398672Y0340145D03*
X0398672Y0342113D03*
X0398672Y0344082D03*
X0398672Y0346050D03*
X0398672Y0348019D03*
X0398672Y0349987D03*
X0398672Y0351956D03*
X0398672Y0353924D03*
X0398672Y0355893D03*
X0398672Y0357861D03*
X0398672Y0359830D03*
X0398672Y0361798D03*
X0398672Y0363767D03*
X0353397Y0363767D03*
X0353397Y0361798D03*
X0353397Y0359830D03*
X0353397Y0357861D03*
X0353397Y0355893D03*
X0353397Y0353924D03*
X0353397Y0351956D03*
X0353397Y0349987D03*
X0353397Y0348019D03*
X0353397Y0346050D03*
X0353397Y0344082D03*
X0353397Y0342113D03*
X0353397Y0340145D03*
X0353397Y0338176D03*
X0353397Y0336208D03*
X0353397Y0334239D03*
X0216203Y0429333D03*
X0216203Y0431302D03*
X0216203Y0433270D03*
X0216203Y0435239D03*
X0216203Y0437207D03*
X0216203Y0439176D03*
X0216203Y0441144D03*
X0216203Y0443113D03*
X0216203Y0445081D03*
X0216203Y0447050D03*
X0216203Y0449018D03*
X0216203Y0450987D03*
X0216203Y0452955D03*
X0216203Y0454924D03*
X0216203Y0456892D03*
X0216203Y0458861D03*
X0170928Y0458861D03*
X0170928Y0456892D03*
X0170928Y0454924D03*
X0170928Y0452955D03*
X0170928Y0450987D03*
X0170928Y0449018D03*
X0170928Y0447050D03*
X0170928Y0445081D03*
X0170928Y0443113D03*
X0170928Y0441144D03*
X0170928Y0439176D03*
X0170928Y0437207D03*
X0170928Y0435239D03*
X0170928Y0433270D03*
X0170928Y0431302D03*
X0170928Y0429333D03*
X0107772Y0114767D03*
X0107772Y0112798D03*
X0107772Y0110830D03*
X0107772Y0108861D03*
X0107772Y0106893D03*
X0107772Y0104924D03*
X0107772Y0102956D03*
X0107772Y0100987D03*
X0107772Y0099019D03*
X0107772Y0097050D03*
X0107772Y0095082D03*
X0107772Y0093113D03*
X0107772Y0091145D03*
X0107772Y0089176D03*
X0107772Y0087208D03*
X0107772Y0085239D03*
X0062497Y0085239D03*
X0062497Y0087208D03*
X0062497Y0089176D03*
X0062497Y0091145D03*
X0062497Y0093113D03*
X0062497Y0095082D03*
X0062497Y0097050D03*
X0062497Y0099019D03*
X0062497Y0100987D03*
X0062497Y0102956D03*
X0062497Y0104924D03*
X0062497Y0106893D03*
X0062497Y0108861D03*
X0062497Y0110830D03*
X0062497Y0112798D03*
X0062497Y0114767D03*
D19*
X0042615Y0104924D03*
X0042615Y0102956D03*
X0042615Y0100987D03*
X0042615Y0099019D03*
X0040843Y0097247D03*
X0038875Y0097247D03*
X0036906Y0097247D03*
X0034938Y0097247D03*
X0033166Y0099019D03*
X0033166Y0100987D03*
X0033166Y0102956D03*
X0033166Y0104924D03*
X0034938Y0106696D03*
X0036906Y0106696D03*
X0038875Y0106696D03*
X0040843Y0106696D03*
X0324066Y0348019D03*
X0324066Y0349987D03*
X0324066Y0351956D03*
X0324066Y0353924D03*
X0325838Y0355696D03*
X0327806Y0355696D03*
X0329775Y0355696D03*
X0331743Y0355696D03*
X0333515Y0353924D03*
X0333515Y0351956D03*
X0333515Y0349987D03*
X0333515Y0348019D03*
X0331743Y0346247D03*
X0329775Y0346247D03*
X0327806Y0346247D03*
X0325838Y0346247D03*
X0243762Y0437404D03*
X0241794Y0437404D03*
X0239825Y0437404D03*
X0237857Y0437404D03*
X0236085Y0439176D03*
X0236085Y0441144D03*
X0236085Y0443113D03*
X0236085Y0445081D03*
X0237857Y0446853D03*
X0239825Y0446853D03*
X0241794Y0446853D03*
X0243762Y0446853D03*
X0245534Y0445081D03*
X0245534Y0443113D03*
X0245534Y0441144D03*
X0245534Y0439176D03*
X0516785Y0176081D03*
X0516785Y0174113D03*
X0516785Y0172144D03*
X0516785Y0170176D03*
X0518557Y0168404D03*
X0520525Y0168404D03*
X0522494Y0168404D03*
X0524462Y0168404D03*
X0526234Y0170176D03*
X0526234Y0172144D03*
X0526234Y0174113D03*
X0526234Y0176081D03*
X0524462Y0177853D03*
X0522494Y0177853D03*
X0520525Y0177853D03*
X0518557Y0177853D03*
D20*
X0521509Y0173128D03*
X0328791Y0350972D03*
X0240809Y0442128D03*
X0037891Y0101972D03*
D21*
X0038875Y0108074D03*
X0040843Y0108074D03*
X0036906Y0108074D03*
X0034938Y0108074D03*
X0034938Y0095869D03*
X0036906Y0095869D03*
X0038875Y0095869D03*
X0040843Y0095869D03*
X0325838Y0344869D03*
X0327806Y0344869D03*
X0329775Y0344869D03*
X0331743Y0344869D03*
X0331743Y0357074D03*
X0329775Y0357074D03*
X0327806Y0357074D03*
X0325838Y0357074D03*
X0243762Y0436026D03*
X0241794Y0436026D03*
X0239825Y0436026D03*
X0237857Y0436026D03*
X0237857Y0448231D03*
X0239825Y0448231D03*
X0241794Y0448231D03*
X0243762Y0448231D03*
X0518557Y0179231D03*
X0520525Y0179231D03*
X0522494Y0179231D03*
X0524462Y0179231D03*
X0524462Y0167026D03*
X0522494Y0167026D03*
X0520525Y0167026D03*
X0518557Y0167026D03*
D22*
X0515407Y0170176D03*
X0515407Y0172144D03*
X0515407Y0174113D03*
X0515407Y0176081D03*
X0527612Y0176081D03*
X0527612Y0174113D03*
X0527612Y0172144D03*
X0527612Y0170176D03*
X0334893Y0348019D03*
X0334893Y0349987D03*
X0334893Y0351956D03*
X0334893Y0353924D03*
X0322688Y0353924D03*
X0322688Y0351956D03*
X0322688Y0349987D03*
X0322688Y0348019D03*
X0246912Y0439176D03*
X0246912Y0441144D03*
X0246912Y0443113D03*
X0246912Y0445081D03*
X0234707Y0445081D03*
X0234707Y0443113D03*
X0234707Y0441144D03*
X0234707Y0439176D03*
X0043993Y0104924D03*
X0043993Y0102956D03*
X0043993Y0100987D03*
X0043993Y0099019D03*
X0031788Y0099019D03*
X0031788Y0100987D03*
X0031788Y0102956D03*
X0031788Y0104924D03*
D23*
X0051670Y0113192D03*
X0051670Y0118310D03*
X0063481Y0136814D03*
X0063481Y0141932D03*
X0071355Y0141932D03*
X0071355Y0136814D03*
X0079229Y0136814D03*
X0079229Y0141932D03*
X0087103Y0141932D03*
X0087103Y0136814D03*
X0053639Y0149357D03*
X0053639Y0154475D03*
X0045565Y0145706D03*
X0045565Y0140588D03*
X0051670Y0090751D03*
X0051670Y0085633D03*
X0144900Y0175841D03*
X0144900Y0180959D03*
X0133800Y0363141D03*
X0133800Y0368259D03*
X0191597Y0402168D03*
X0191597Y0407286D03*
X0199471Y0407286D03*
X0199471Y0402168D03*
X0207345Y0402168D03*
X0207345Y0407286D03*
X0215219Y0407286D03*
X0215219Y0402168D03*
X0225061Y0394743D03*
X0225061Y0389625D03*
X0233135Y0398394D03*
X0233135Y0403512D03*
X0227030Y0425790D03*
X0227030Y0430908D03*
X0227030Y0453349D03*
X0227030Y0458467D03*
X0336465Y0394706D03*
X0336465Y0389588D03*
X0344539Y0398357D03*
X0344539Y0403475D03*
X0354381Y0390932D03*
X0354381Y0385814D03*
X0362255Y0385814D03*
X0362255Y0390932D03*
X0370129Y0390932D03*
X0370129Y0385814D03*
X0378003Y0385814D03*
X0378003Y0390932D03*
X0342570Y0367310D03*
X0342570Y0362192D03*
X0342570Y0339751D03*
X0342570Y0334633D03*
X0435800Y0424841D03*
X0435800Y0429959D03*
X0507730Y0189467D03*
X0507730Y0184349D03*
X0507730Y0161908D03*
X0507730Y0156790D03*
X0495919Y0138286D03*
X0495919Y0133168D03*
X0488045Y0133168D03*
X0488045Y0138286D03*
X0480171Y0138286D03*
X0480171Y0133168D03*
X0472297Y0133168D03*
X0472297Y0138286D03*
X0505761Y0125743D03*
X0505761Y0120625D03*
X0513835Y0129394D03*
X0513835Y0134512D03*
X0414500Y0099259D03*
X0414500Y0094141D03*
D24*
X0042654Y0036200D03*
X0049346Y0036200D03*
X0078450Y0049754D03*
X0078450Y0056446D03*
X0086400Y0056446D03*
X0086400Y0049754D03*
X0105247Y0040848D03*
X0111940Y0040848D03*
X0117133Y0040864D03*
X0123826Y0040864D03*
X0221989Y0161158D03*
X0228682Y0161158D03*
X0233864Y0161178D03*
X0240557Y0161178D03*
X0318843Y0113922D03*
X0325536Y0113922D03*
X0330718Y0113942D03*
X0337411Y0113942D03*
X0435574Y0234236D03*
X0442267Y0234236D03*
X0447460Y0234252D03*
X0454153Y0234252D03*
X0473000Y0225346D03*
X0473000Y0218654D03*
X0480950Y0218654D03*
X0480950Y0225346D03*
X0510054Y0238900D03*
X0516746Y0238900D03*
X0414726Y0289864D03*
X0408033Y0289864D03*
X0402840Y0289848D03*
X0396147Y0289848D03*
X0377300Y0298754D03*
X0377300Y0305446D03*
X0369350Y0305446D03*
X0369350Y0298754D03*
X0340246Y0285200D03*
X0333554Y0285200D03*
X0512889Y0410158D03*
X0519582Y0410158D03*
X0524764Y0410178D03*
X0531457Y0410178D03*
X0236046Y0507900D03*
X0229354Y0507900D03*
X0200250Y0494346D03*
X0200250Y0487654D03*
X0192300Y0487654D03*
X0192300Y0494346D03*
X0173453Y0503252D03*
X0166760Y0503252D03*
X0161567Y0503236D03*
X0154874Y0503236D03*
X0056711Y0382942D03*
X0050018Y0382942D03*
X0044836Y0382922D03*
X0038143Y0382922D03*
D25*
X0031548Y0381564D03*
X0031548Y0388257D03*
G36*
X0131895Y0423078D02*
X0128546Y0426427D01*
X0132173Y0430054D01*
X0135522Y0426705D01*
X0131895Y0423078D01*
G37*
G36*
X0136627Y0418346D02*
X0133278Y0421695D01*
X0136905Y0425322D01*
X0140254Y0421973D01*
X0136627Y0418346D01*
G37*
G36*
X0142446Y0423073D02*
X0145795Y0426422D01*
X0149422Y0422795D01*
X0146073Y0419446D01*
X0142446Y0423073D01*
G37*
G36*
X0135061Y0430205D02*
X0137063Y0434497D01*
X0141711Y0432329D01*
X0139709Y0428037D01*
X0135061Y0430205D01*
G37*
G36*
X0137889Y0436271D02*
X0139891Y0440563D01*
X0144539Y0438395D01*
X0142537Y0434103D01*
X0137889Y0436271D01*
G37*
G36*
X0147178Y0427805D02*
X0150527Y0431154D01*
X0154154Y0427527D01*
X0150805Y0424178D01*
X0147178Y0427805D01*
G37*
X0146321Y0390520D03*
X0146321Y0383827D03*
X0146331Y0378594D03*
X0146331Y0371901D03*
X0146307Y0366744D03*
X0146307Y0360051D03*
X0209904Y0392916D03*
X0216597Y0392916D03*
X0240000Y0494154D03*
X0240000Y0500846D03*
X0148290Y0501774D03*
X0148290Y0508467D03*
X0353003Y0400184D03*
X0359696Y0400184D03*
X0423279Y0402580D03*
X0423279Y0409273D03*
X0423269Y0414506D03*
X0423269Y0421199D03*
X0423293Y0426356D03*
X0423293Y0433049D03*
G36*
X0432973Y0374754D02*
X0436322Y0371405D01*
X0432695Y0367778D01*
X0429346Y0371127D01*
X0432973Y0374754D01*
G37*
G36*
X0427154Y0370027D02*
X0423805Y0366678D01*
X0420178Y0370305D01*
X0423527Y0373654D01*
X0427154Y0370027D01*
G37*
G36*
X0422422Y0365295D02*
X0419073Y0361946D01*
X0415446Y0365573D01*
X0418795Y0368922D01*
X0422422Y0365295D01*
G37*
G36*
X0434539Y0362895D02*
X0432537Y0358603D01*
X0427889Y0360771D01*
X0429891Y0365063D01*
X0434539Y0362895D01*
G37*
G36*
X0437705Y0370022D02*
X0441054Y0366673D01*
X0437427Y0363046D01*
X0434078Y0366395D01*
X0437705Y0370022D01*
G37*
G36*
X0431711Y0356829D02*
X0429709Y0352537D01*
X0425061Y0354705D01*
X0427063Y0358997D01*
X0431711Y0356829D01*
G37*
X0421310Y0291326D03*
X0421310Y0284633D03*
X0428990Y0239467D03*
X0428990Y0232774D03*
G36*
X0418589Y0167271D02*
X0420591Y0171563D01*
X0425239Y0169395D01*
X0423237Y0165103D01*
X0418589Y0167271D01*
G37*
G36*
X0415761Y0161205D02*
X0417763Y0165497D01*
X0422411Y0163329D01*
X0420409Y0159037D01*
X0415761Y0161205D01*
G37*
G36*
X0412595Y0154078D02*
X0409246Y0157427D01*
X0412873Y0161054D01*
X0416222Y0157705D01*
X0412595Y0154078D01*
G37*
G36*
X0417327Y0149346D02*
X0413978Y0152695D01*
X0417605Y0156322D01*
X0420954Y0152973D01*
X0417327Y0149346D01*
G37*
G36*
X0423146Y0154073D02*
X0426495Y0157422D01*
X0430122Y0153795D01*
X0426773Y0150446D01*
X0423146Y0154073D01*
G37*
G36*
X0427878Y0158805D02*
X0431227Y0162154D01*
X0434854Y0158527D01*
X0431505Y0155178D01*
X0427878Y0158805D01*
G37*
X0427021Y0121520D03*
X0427021Y0114827D03*
X0427031Y0109594D03*
X0427031Y0102901D03*
X0427007Y0097744D03*
X0427007Y0091051D03*
X0490604Y0123916D03*
X0497297Y0123916D03*
X0520700Y0225154D03*
X0520700Y0231846D03*
X0538052Y0404843D03*
X0538052Y0411536D03*
X0329600Y0298946D03*
X0329600Y0292254D03*
X0247152Y0162536D03*
X0247152Y0155843D03*
X0312248Y0119257D03*
X0312248Y0112564D03*
G36*
X0146805Y0121022D02*
X0150154Y0117673D01*
X0146527Y0114046D01*
X0143178Y0117395D01*
X0146805Y0121022D01*
G37*
G36*
X0142073Y0125754D02*
X0145422Y0122405D01*
X0141795Y0118778D01*
X0138446Y0122127D01*
X0142073Y0125754D01*
G37*
G36*
X0136254Y0121027D02*
X0132905Y0117678D01*
X0129278Y0121305D01*
X0132627Y0124654D01*
X0136254Y0121027D01*
G37*
G36*
X0143639Y0113895D02*
X0141637Y0109603D01*
X0136989Y0111771D01*
X0138991Y0116063D01*
X0143639Y0113895D01*
G37*
G36*
X0140811Y0107829D02*
X0138809Y0103537D01*
X0134161Y0105705D01*
X0136163Y0109997D01*
X0140811Y0107829D01*
G37*
G36*
X0131522Y0116295D02*
X0128173Y0112946D01*
X0124546Y0116573D01*
X0127895Y0119922D01*
X0131522Y0116295D01*
G37*
X0132379Y0153580D03*
X0132379Y0160273D03*
X0132369Y0165506D03*
X0132369Y0172199D03*
X0132393Y0177356D03*
X0132393Y0184049D03*
X0068796Y0151184D03*
X0062103Y0151184D03*
X0038700Y0049946D03*
X0038700Y0043254D03*
X0130410Y0042326D03*
X0130410Y0035633D03*
D26*
X0058757Y0064176D03*
X0052457Y0064176D03*
X0052457Y0072838D03*
X0058757Y0072838D03*
X0343357Y0313176D03*
X0349657Y0313176D03*
X0349657Y0321838D03*
X0343357Y0321838D03*
X0500643Y0210924D03*
X0506943Y0210924D03*
X0506943Y0202262D03*
X0500643Y0202262D03*
X0226243Y0471262D03*
X0219943Y0471262D03*
X0219943Y0479924D03*
X0226243Y0479924D03*
D27*
G36*
X0318469Y0416253D02*
X0318366Y0418624D01*
X0324473Y0418891D01*
X0324576Y0416520D01*
X0318469Y0416253D01*
G37*
G36*
X0318580Y0413697D02*
X0318477Y0416068D01*
X0324584Y0416335D01*
X0324687Y0413964D01*
X0318580Y0413697D01*
G37*
G36*
X0318692Y0411140D02*
X0318589Y0413511D01*
X0324696Y0413778D01*
X0324799Y0411407D01*
X0318692Y0411140D01*
G37*
G36*
X0318803Y0408583D02*
X0318700Y0410954D01*
X0324807Y0411221D01*
X0324910Y0408850D01*
X0318803Y0408583D01*
G37*
G36*
X0318915Y0406027D02*
X0318812Y0408398D01*
X0324919Y0408665D01*
X0325022Y0406294D01*
X0318915Y0406027D01*
G37*
G36*
X0250685Y0387073D02*
X0250788Y0384702D01*
X0244681Y0384435D01*
X0244578Y0386806D01*
X0250685Y0387073D01*
G37*
G36*
X0250797Y0384517D02*
X0250900Y0382146D01*
X0244793Y0381879D01*
X0244690Y0384250D01*
X0250797Y0384517D01*
G37*
G36*
X0250908Y0381960D02*
X0251011Y0379589D01*
X0244904Y0379322D01*
X0244801Y0381693D01*
X0250908Y0381960D01*
G37*
G36*
X0251020Y0379403D02*
X0251123Y0377032D01*
X0245016Y0376765D01*
X0244913Y0379136D01*
X0251020Y0379403D01*
G37*
G36*
X0251131Y0376847D02*
X0251234Y0374476D01*
X0245127Y0374209D01*
X0245024Y0376580D01*
X0251131Y0376847D01*
G37*
G36*
X0027569Y0167253D02*
X0027466Y0169624D01*
X0033573Y0169891D01*
X0033676Y0167520D01*
X0027569Y0167253D01*
G37*
G36*
X0027680Y0164697D02*
X0027577Y0167068D01*
X0033684Y0167335D01*
X0033787Y0164964D01*
X0027680Y0164697D01*
G37*
G36*
X0027792Y0162140D02*
X0027689Y0164511D01*
X0033796Y0164778D01*
X0033899Y0162407D01*
X0027792Y0162140D01*
G37*
G36*
X0027903Y0159583D02*
X0027800Y0161954D01*
X0033907Y0162221D01*
X0034010Y0159850D01*
X0027903Y0159583D01*
G37*
G36*
X0028015Y0157027D02*
X0027912Y0159398D01*
X0034019Y0159665D01*
X0034122Y0157294D01*
X0028015Y0157027D01*
G37*
G36*
X0531385Y0118073D02*
X0531488Y0115702D01*
X0525381Y0115435D01*
X0525278Y0117806D01*
X0531385Y0118073D01*
G37*
G36*
X0531497Y0115517D02*
X0531600Y0113146D01*
X0525493Y0112879D01*
X0525390Y0115250D01*
X0531497Y0115517D01*
G37*
G36*
X0531608Y0112960D02*
X0531711Y0110589D01*
X0525604Y0110322D01*
X0525501Y0112693D01*
X0531608Y0112960D01*
G37*
G36*
X0531720Y0110403D02*
X0531823Y0108032D01*
X0525716Y0107765D01*
X0525613Y0110136D01*
X0531720Y0110403D01*
G37*
G36*
X0531831Y0107847D02*
X0531934Y0105476D01*
X0525827Y0105209D01*
X0525724Y0107580D01*
X0531831Y0107847D01*
G37*
D28*
X0529035Y0101808D03*
X0528177Y0121474D03*
X0248335Y0370808D03*
X0247477Y0390474D03*
X0322123Y0402626D03*
X0321264Y0422292D03*
X0030364Y0173292D03*
X0031223Y0153626D03*
D29*
X0020775Y0149229D03*
X0019573Y0176762D03*
X0259127Y0367338D03*
X0257925Y0394871D03*
X0311675Y0398229D03*
X0310473Y0425762D03*
X0538625Y0125871D03*
X0539827Y0098338D03*
D30*
X0513461Y0108968D03*
X0513835Y0116305D03*
X0519541Y0151400D03*
X0527500Y0151400D03*
X0458600Y0124200D03*
X0452300Y0210800D03*
X0398000Y0313300D03*
X0330759Y0372700D03*
X0322800Y0372700D03*
X0336465Y0407795D03*
X0336839Y0415132D03*
X0391700Y0399900D03*
X0501900Y0434800D03*
X0246800Y0420400D03*
X0238841Y0420400D03*
X0233135Y0385305D03*
X0232761Y0377968D03*
X0177900Y0393200D03*
X0171600Y0479800D03*
X0067700Y0358300D03*
X0211000Y0185800D03*
X0100800Y0150900D03*
X0045939Y0166132D03*
X0045565Y0158795D03*
X0039859Y0123700D03*
X0031900Y0123700D03*
X0107100Y0064300D03*
X0348400Y0089300D03*
D31*
X0382317Y0090231D03*
X0382317Y0087672D03*
X0382317Y0092790D03*
X0382317Y0095349D03*
X0382317Y0097908D03*
X0382317Y0100467D03*
X0382317Y0103026D03*
X0382317Y0105585D03*
X0405348Y0105585D03*
X0405348Y0103026D03*
X0405348Y0100467D03*
X0405348Y0097908D03*
X0405348Y0095349D03*
X0405348Y0092790D03*
X0405348Y0090231D03*
X0405348Y0087672D03*
X0177083Y0169515D03*
X0177083Y0172074D03*
X0177083Y0174633D03*
X0177083Y0177192D03*
X0177083Y0179751D03*
X0177083Y0182310D03*
X0177083Y0184869D03*
X0177083Y0187428D03*
X0154052Y0187428D03*
X0154052Y0184869D03*
X0154052Y0182310D03*
X0154052Y0179751D03*
X0154052Y0177192D03*
X0154052Y0174633D03*
X0154052Y0172074D03*
X0154052Y0169515D03*
X0124648Y0356672D03*
X0124648Y0359231D03*
X0124648Y0361790D03*
X0124648Y0364349D03*
X0124648Y0366908D03*
X0124648Y0369467D03*
X0124648Y0372026D03*
X0124648Y0374585D03*
X0101617Y0374585D03*
X0101617Y0372026D03*
X0101617Y0369467D03*
X0101617Y0366908D03*
X0101617Y0364349D03*
X0101617Y0361790D03*
X0101617Y0359231D03*
X0101617Y0356672D03*
X0444952Y0418515D03*
X0444952Y0421074D03*
X0444952Y0423633D03*
X0444952Y0426192D03*
X0444952Y0428751D03*
X0444952Y0431310D03*
X0444952Y0433869D03*
X0444952Y0436428D03*
X0467983Y0436428D03*
X0467983Y0433869D03*
X0467983Y0431310D03*
X0467983Y0428751D03*
X0467983Y0426192D03*
X0467983Y0423633D03*
X0467983Y0421074D03*
X0467983Y0418515D03*
D32*
X0392373Y0384436D03*
X0387255Y0384436D03*
X0389908Y0318646D03*
X0395026Y0318646D03*
X0455274Y0205454D03*
X0460392Y0205454D03*
X0457927Y0139664D03*
X0463045Y0139664D03*
X0182345Y0408664D03*
X0177227Y0408664D03*
X0179692Y0474454D03*
X0174574Y0474454D03*
X0101473Y0135436D03*
X0096355Y0135436D03*
X0099008Y0069646D03*
X0104126Y0069646D03*
D33*
X0192400Y0173800D03*
X0199900Y0173800D03*
X0199900Y0181300D03*
X0199900Y0188800D03*
X0192400Y0188800D03*
X0192400Y0181300D03*
X0149100Y0214300D03*
X0149100Y0221800D03*
X0149100Y0229300D03*
X0141600Y0229300D03*
X0141600Y0221800D03*
X0141600Y0214300D03*
X0202400Y0221700D03*
X0202400Y0229200D03*
X0257000Y0231100D03*
X0257000Y0223600D03*
X0257000Y0216100D03*
X0257000Y0208600D03*
X0359500Y0101300D03*
X0359500Y0093800D03*
X0359500Y0086300D03*
X0367000Y0086300D03*
X0367000Y0093800D03*
X0367000Y0101300D03*
X0410300Y0060800D03*
X0410300Y0053300D03*
X0410300Y0045800D03*
X0417800Y0045800D03*
X0417800Y0053300D03*
X0417800Y0060800D03*
X0357000Y0053400D03*
X0357000Y0045900D03*
X0302400Y0044000D03*
X0302400Y0051500D03*
X0302400Y0059000D03*
X0302400Y0066500D03*
X0137100Y0314800D03*
X0129600Y0314800D03*
X0129600Y0322300D03*
X0129600Y0329800D03*
X0137100Y0329800D03*
X0137100Y0322300D03*
X0086300Y0355300D03*
X0086300Y0362800D03*
X0086300Y0370300D03*
X0078800Y0370300D03*
X0078800Y0362800D03*
X0078800Y0355300D03*
X0076300Y0322400D03*
X0076300Y0314900D03*
X0021700Y0313000D03*
X0021700Y0320500D03*
X0021700Y0328000D03*
X0021700Y0335500D03*
X0432500Y0463300D03*
X0440000Y0463300D03*
X0440000Y0470800D03*
X0440000Y0478300D03*
X0432500Y0478300D03*
X0432500Y0470800D03*
X0483300Y0437800D03*
X0490800Y0437800D03*
X0490800Y0430300D03*
X0490800Y0422800D03*
X0483300Y0422800D03*
X0483300Y0430300D03*
X0493300Y0470700D03*
X0493300Y0478200D03*
X0547900Y0480100D03*
X0547900Y0472600D03*
X0547900Y0465100D03*
X0547900Y0457600D03*
D34*
X0440000Y0445600D03*
X0430000Y0445600D03*
X0316925Y0337397D03*
X0317274Y0327403D03*
X0362900Y0284000D03*
X0372900Y0284000D03*
X0477400Y0240100D03*
X0487400Y0240100D03*
X0533025Y0196697D03*
X0533374Y0186703D03*
X0420300Y0078500D03*
X0410300Y0078500D03*
X0149100Y0196600D03*
X0139100Y0196600D03*
X0026025Y0088397D03*
X0026374Y0078403D03*
X0072000Y0035000D03*
X0082000Y0035000D03*
X0129600Y0347500D03*
X0139600Y0347500D03*
X0252674Y0455703D03*
X0252325Y0465697D03*
X0206700Y0509100D03*
X0196700Y0509100D03*
D35*
X0187500Y0507450D03*
X0182950Y0505200D03*
X0180100Y0501250D03*
X0187300Y0502100D03*
X0183100Y0510500D03*
X0177600Y0508650D03*
X0169650Y0509550D03*
X0163750Y0509700D03*
X0157000Y0511450D03*
X0149150Y0513300D03*
X0146100Y0489500D03*
X0141400Y0489850D03*
X0119550Y0500100D03*
X0128500Y0467000D03*
X0126800Y0463300D03*
X0132800Y0461500D03*
X0142100Y0464500D03*
X0161200Y0465900D03*
X0170250Y0463300D03*
X0174900Y0462000D03*
X0189050Y0460650D03*
X0199100Y0452700D03*
X0202500Y0458700D03*
X0206400Y0461200D03*
X0206237Y0454883D03*
X0207900Y0443200D03*
X0210356Y0440044D03*
X0200800Y0441900D03*
X0201900Y0429900D03*
X0205100Y0426900D03*
X0197000Y0429800D03*
X0192300Y0428200D03*
X0183700Y0427300D03*
X0187900Y0416100D03*
X0192300Y0413900D03*
X0198500Y0415600D03*
X0200900Y0411900D03*
X0214400Y0413900D03*
X0222200Y0429200D03*
X0232200Y0434300D03*
X0221700Y0441900D03*
X0225600Y0447200D03*
X0232500Y0451100D03*
X0233050Y0456500D03*
X0237550Y0464050D03*
X0245250Y0459100D03*
X0255600Y0438200D03*
X0232000Y0414600D03*
X0241000Y0403500D03*
X0256300Y0384800D03*
X0230700Y0363550D03*
X0221700Y0369500D03*
X0217100Y0377500D03*
X0212050Y0368450D03*
X0204600Y0392900D03*
X0203600Y0398600D03*
X0183700Y0403300D03*
X0181700Y0414700D03*
X0174600Y0413400D03*
X0162350Y0407500D03*
X0139700Y0402050D03*
X0139550Y0396600D03*
X0124700Y0400300D03*
X0124550Y0392650D03*
X0115300Y0396800D03*
X0115000Y0415400D03*
X0131500Y0418500D03*
X0141900Y0418900D03*
X0143900Y0431400D03*
X0156800Y0430700D03*
X0157800Y0434500D03*
X0158800Y0438300D03*
X0180200Y0446200D03*
X0195500Y0472300D03*
X0189600Y0474500D03*
X0192600Y0479000D03*
X0201700Y0477800D03*
X0206100Y0478700D03*
X0211700Y0483500D03*
X0207600Y0485800D03*
X0177100Y0479350D03*
X0129600Y0443100D03*
X0119100Y0463100D03*
X0060700Y0400900D03*
X0056750Y0396150D03*
X0053900Y0392050D03*
X0050450Y0397200D03*
X0062150Y0394800D03*
X0059800Y0376600D03*
X0060300Y0372500D03*
X0036650Y0375850D03*
X0025400Y0372800D03*
X0024300Y0377950D03*
X0032700Y0348600D03*
X0048200Y0347700D03*
X0052200Y0337100D03*
X0047700Y0336000D03*
X0057246Y0336900D03*
X0065500Y0331050D03*
X0098400Y0340700D03*
X0111900Y0349500D03*
X0110100Y0353400D03*
X0106700Y0356700D03*
X0119600Y0356700D03*
X0093050Y0379200D03*
X0089350Y0383150D03*
X0088000Y0387900D03*
X0084050Y0383200D03*
X0086900Y0378000D03*
X0094050Y0385600D03*
X0150600Y0362250D03*
X0156400Y0359000D03*
X0160550Y0359150D03*
X0161200Y0343800D03*
X0166800Y0344000D03*
X0172800Y0343700D03*
X0179250Y0339600D03*
X0185300Y0362900D03*
X0187600Y0378900D03*
X0124700Y0326900D03*
X0117600Y0329150D03*
X0154000Y0217200D03*
X0161100Y0214950D03*
X0180300Y0203400D03*
X0166800Y0194600D03*
X0168600Y0190700D03*
X0172000Y0187400D03*
X0159100Y0187400D03*
X0128100Y0181850D03*
X0122300Y0185100D03*
X0118150Y0184950D03*
X0111900Y0200100D03*
X0117500Y0200300D03*
X0105900Y0200400D03*
X0099450Y0204500D03*
X0093400Y0181200D03*
X0091100Y0165200D03*
X0074100Y0151200D03*
X0075100Y0145500D03*
X0077800Y0132200D03*
X0080200Y0128500D03*
X0086400Y0130200D03*
X0090800Y0128000D03*
X0097000Y0129400D03*
X0104100Y0130700D03*
X0095000Y0140800D03*
X0116350Y0136600D03*
X0136800Y0125200D03*
X0147200Y0125600D03*
X0134800Y0112700D03*
X0121900Y0113400D03*
X0120900Y0109600D03*
X0119900Y0105800D03*
X0098500Y0097900D03*
X0103800Y0082100D03*
X0108450Y0080800D03*
X0117500Y0078200D03*
X0136600Y0079600D03*
X0145900Y0082600D03*
X0151900Y0080800D03*
X0150200Y0077100D03*
X0159600Y0081000D03*
X0149100Y0101000D03*
X0163700Y0128700D03*
X0154000Y0143800D03*
X0154150Y0151450D03*
X0163400Y0147300D03*
X0184650Y0158500D03*
X0189350Y0160950D03*
X0190700Y0156200D03*
X0194650Y0160900D03*
X0191800Y0166100D03*
X0185650Y0164900D03*
X0216550Y0149300D03*
X0221950Y0147950D03*
X0224800Y0152050D03*
X0228250Y0146900D03*
X0218000Y0143200D03*
X0218900Y0167500D03*
X0218400Y0171600D03*
X0242050Y0168250D03*
X0253300Y0171300D03*
X0254400Y0166150D03*
X0246000Y0195500D03*
X0230500Y0196400D03*
X0226500Y0207000D03*
X0231000Y0208100D03*
X0221454Y0207200D03*
X0213200Y0213050D03*
X0139150Y0147500D03*
X0139000Y0142050D03*
X0095000Y0116800D03*
X0086400Y0115900D03*
X0081700Y0114300D03*
X0076800Y0114200D03*
X0073600Y0117200D03*
X0064300Y0130200D03*
X0056500Y0114900D03*
X0046500Y0109800D03*
X0057000Y0102200D03*
X0053100Y0096900D03*
X0046200Y0093000D03*
X0045650Y0087600D03*
X0041150Y0080050D03*
X0033450Y0085000D03*
X0023100Y0105900D03*
X0046700Y0129500D03*
X0037700Y0140600D03*
X0022400Y0159300D03*
X0048000Y0180550D03*
X0057000Y0174600D03*
X0061600Y0166600D03*
X0066650Y0175650D03*
X0068344Y0104056D03*
X0070800Y0100900D03*
X0077900Y0102200D03*
X0079600Y0091400D03*
X0076200Y0085400D03*
X0072300Y0082900D03*
X0072463Y0089217D03*
X0089650Y0083450D03*
X0083200Y0071800D03*
X0089100Y0069600D03*
X0086100Y0065100D03*
X0077000Y0066300D03*
X0072600Y0065400D03*
X0071100Y0058300D03*
X0067000Y0060600D03*
X0091400Y0042000D03*
X0095750Y0038900D03*
X0098600Y0042850D03*
X0101100Y0035450D03*
X0095600Y0033600D03*
X0091200Y0036650D03*
X0109050Y0034550D03*
X0114950Y0034400D03*
X0121700Y0032650D03*
X0129550Y0030800D03*
X0132600Y0054600D03*
X0137300Y0054250D03*
X0159150Y0044000D03*
X0101600Y0064750D03*
X0305000Y0108950D03*
X0306100Y0103800D03*
X0317350Y0106850D03*
X0334600Y0123050D03*
X0337450Y0127150D03*
X0342850Y0125800D03*
X0341400Y0131900D03*
X0331150Y0128200D03*
X0340500Y0107600D03*
X0341000Y0103500D03*
X0364750Y0114200D03*
X0370050Y0114150D03*
X0368700Y0118900D03*
X0374750Y0116600D03*
X0373750Y0110200D03*
X0367600Y0109000D03*
X0387400Y0087700D03*
X0390800Y0084400D03*
X0392600Y0080500D03*
X0400300Y0087700D03*
X0379100Y0071700D03*
X0398300Y0060150D03*
X0405400Y0057900D03*
X0441900Y0074800D03*
X0447500Y0075000D03*
X0453500Y0074700D03*
X0459950Y0070600D03*
X0466000Y0093900D03*
X0468300Y0109900D03*
X0485300Y0123900D03*
X0484300Y0129600D03*
X0481600Y0142900D03*
X0479200Y0146600D03*
X0473000Y0144900D03*
X0468600Y0147100D03*
X0462400Y0145700D03*
X0455300Y0144400D03*
X0464400Y0134300D03*
X0443050Y0138500D03*
X0420400Y0133050D03*
X0420250Y0127600D03*
X0405400Y0131300D03*
X0405250Y0123650D03*
X0396000Y0127800D03*
X0395700Y0146400D03*
X0412200Y0149500D03*
X0422600Y0149900D03*
X0424600Y0162400D03*
X0437500Y0161700D03*
X0438500Y0165500D03*
X0439500Y0169300D03*
X0460900Y0177200D03*
X0455600Y0193000D03*
X0450950Y0194300D03*
X0441900Y0196900D03*
X0457800Y0210350D03*
X0470300Y0205500D03*
X0473300Y0210000D03*
X0476200Y0203300D03*
X0482400Y0208800D03*
X0486800Y0209700D03*
X0492400Y0214500D03*
X0488300Y0216800D03*
X0468000Y0233100D03*
X0463650Y0236200D03*
X0460800Y0232250D03*
X0458300Y0239650D03*
X0463800Y0241500D03*
X0468200Y0238450D03*
X0450350Y0240550D03*
X0444450Y0240700D03*
X0437700Y0242450D03*
X0429850Y0244300D03*
X0426800Y0220500D03*
X0422100Y0220850D03*
X0400250Y0231100D03*
X0409200Y0198000D03*
X0407500Y0194300D03*
X0413500Y0192500D03*
X0422800Y0195500D03*
X0399800Y0194100D03*
X0410300Y0174100D03*
X0464400Y0158300D03*
X0473000Y0159200D03*
X0477700Y0160800D03*
X0482600Y0160900D03*
X0485800Y0157900D03*
X0495100Y0144900D03*
X0502900Y0160200D03*
X0512900Y0165300D03*
X0502400Y0172900D03*
X0506300Y0178200D03*
X0513200Y0182100D03*
X0513750Y0187500D03*
X0518250Y0195050D03*
X0525950Y0190100D03*
X0536300Y0169200D03*
X0512700Y0145600D03*
X0521700Y0134500D03*
X0537000Y0115800D03*
X0511400Y0094550D03*
X0502400Y0100500D03*
X0497800Y0108500D03*
X0492750Y0099450D03*
X0441250Y0090150D03*
X0437100Y0090000D03*
X0431300Y0093250D03*
X0346200Y0062050D03*
X0337946Y0067900D03*
X0332900Y0068100D03*
X0328400Y0067000D03*
X0328900Y0078700D03*
X0313400Y0079600D03*
X0469750Y0191650D03*
X0479800Y0183700D03*
X0483200Y0189700D03*
X0487100Y0192200D03*
X0486937Y0185883D03*
X0488600Y0174200D03*
X0491056Y0171044D03*
X0481500Y0172900D03*
X0420450Y0279800D03*
X0412600Y0281650D03*
X0405850Y0283400D03*
X0399950Y0283550D03*
X0392000Y0284450D03*
X0386500Y0282600D03*
X0386650Y0287900D03*
X0389500Y0291850D03*
X0382300Y0291000D03*
X0382100Y0285650D03*
X0362000Y0307300D03*
X0357900Y0309600D03*
X0363500Y0314400D03*
X0367900Y0315300D03*
X0374100Y0320800D03*
X0380000Y0318600D03*
X0377000Y0314100D03*
X0392500Y0313750D03*
X0399350Y0329800D03*
X0394700Y0331100D03*
X0408400Y0327200D03*
X0427500Y0328600D03*
X0436800Y0331600D03*
X0442800Y0329800D03*
X0441100Y0326100D03*
X0450500Y0330000D03*
X0440000Y0350000D03*
X0425700Y0361700D03*
X0412800Y0362400D03*
X0411800Y0358600D03*
X0410800Y0354800D03*
X0389400Y0346900D03*
X0380550Y0332450D03*
X0370500Y0340400D03*
X0367100Y0334400D03*
X0363200Y0331900D03*
X0363363Y0338217D03*
X0361700Y0349900D03*
X0359244Y0353056D03*
X0368800Y0351200D03*
X0367700Y0363200D03*
X0364500Y0366200D03*
X0372600Y0363300D03*
X0377300Y0364900D03*
X0385900Y0365800D03*
X0381700Y0377000D03*
X0377300Y0379200D03*
X0371100Y0377500D03*
X0368700Y0381200D03*
X0366000Y0394500D03*
X0365000Y0400200D03*
X0352500Y0415600D03*
X0347900Y0423600D03*
X0338900Y0429550D03*
X0357550Y0424650D03*
X0382000Y0414200D03*
X0384300Y0430200D03*
X0396800Y0449400D03*
X0402800Y0449100D03*
X0408400Y0449300D03*
X0409050Y0433950D03*
X0413200Y0434100D03*
X0419000Y0430850D03*
X0450000Y0436400D03*
X0459500Y0439700D03*
X0457700Y0443600D03*
X0462900Y0436400D03*
X0471200Y0452400D03*
X0452000Y0463950D03*
X0444900Y0466200D03*
X0390350Y0453500D03*
X0430050Y0396500D03*
X0429900Y0391050D03*
X0444900Y0392800D03*
X0445050Y0400450D03*
X0454300Y0396300D03*
X0454600Y0377700D03*
X0438100Y0374600D03*
X0427700Y0374200D03*
X0407250Y0385600D03*
X0395000Y0379700D03*
X0387900Y0378400D03*
X0385900Y0389800D03*
X0355200Y0379200D03*
X0347400Y0363900D03*
X0337400Y0358800D03*
X0347900Y0351200D03*
X0344000Y0345900D03*
X0337100Y0342000D03*
X0336550Y0336600D03*
X0332050Y0329050D03*
X0324350Y0334000D03*
X0314000Y0354900D03*
X0337600Y0378500D03*
X0328600Y0389600D03*
X0313300Y0408300D03*
X0423500Y0303600D03*
X0428200Y0303250D03*
X0450050Y0293000D03*
X0508900Y0392200D03*
X0512850Y0396950D03*
X0515700Y0401050D03*
X0519150Y0395900D03*
X0507450Y0398300D03*
X0509800Y0416500D03*
X0509300Y0420600D03*
X0532950Y0417250D03*
X0544200Y0420300D03*
X0545300Y0415150D03*
X0536900Y0444500D03*
X0521400Y0445400D03*
X0517400Y0456000D03*
X0521900Y0457100D03*
X0512354Y0456200D03*
X0504100Y0462050D03*
X0482700Y0415100D03*
X0480250Y0409950D03*
X0481600Y0405200D03*
X0485550Y0409900D03*
X0476550Y0413900D03*
X0475550Y0407500D03*
D36*
X0527600Y0431650D03*
X0531550Y0431650D03*
X0531550Y0435650D03*
X0527600Y0435650D03*
X0417400Y0317500D03*
X0413450Y0317500D03*
X0413450Y0313550D03*
X0417400Y0313550D03*
X0330700Y0351250D03*
X0327050Y0352700D03*
X0327200Y0349250D03*
X0321200Y0359000D03*
X0395700Y0417900D03*
X0399650Y0417900D03*
X0399650Y0421850D03*
X0395700Y0421850D03*
X0248400Y0434100D03*
X0242550Y0440400D03*
X0242400Y0443850D03*
X0238900Y0441850D03*
X0173900Y0375200D03*
X0173900Y0371250D03*
X0169950Y0371250D03*
X0169950Y0375200D03*
X0156150Y0475600D03*
X0156150Y0479550D03*
X0152200Y0479550D03*
X0152200Y0475600D03*
X0042000Y0361450D03*
X0038050Y0361450D03*
X0038050Y0357450D03*
X0042000Y0357450D03*
X0236700Y0186650D03*
X0240650Y0186650D03*
X0240650Y0182650D03*
X0236700Y0182650D03*
X0318750Y0092450D03*
X0322700Y0092450D03*
X0322700Y0088450D03*
X0318750Y0088450D03*
X0450650Y0102250D03*
X0450650Y0106200D03*
X0454600Y0106200D03*
X0454600Y0102250D03*
X0519600Y0172850D03*
X0523250Y0171400D03*
X0523100Y0174850D03*
X0529100Y0165100D03*
X0436850Y0206600D03*
X0436850Y0210550D03*
X0432900Y0210550D03*
X0432900Y0206600D03*
X0126500Y0068500D03*
X0126500Y0064550D03*
X0122550Y0064550D03*
X0122550Y0068500D03*
X0039800Y0102250D03*
X0036150Y0103700D03*
X0036300Y0100250D03*
X0030300Y0110000D03*
X0104800Y0168900D03*
X0104800Y0172850D03*
X0108750Y0172850D03*
X0108750Y0168900D03*
D37*
X0113900Y0152300D03*
X0113700Y0140100D03*
X0101800Y0108900D03*
X0097800Y0102300D03*
X0095600Y0093400D03*
X0100000Y0088700D03*
X0079500Y0083000D03*
X0074000Y0098700D03*
X0038500Y0069800D03*
X0038500Y0060600D03*
X0051300Y0051700D03*
X0048200Y0045000D03*
X0067800Y0048100D03*
X0095400Y0054200D03*
X0170800Y0203200D03*
X0175100Y0203800D03*
X0107900Y0340900D03*
X0103600Y0340300D03*
X0164800Y0391800D03*
X0165000Y0404000D03*
X0176900Y0435200D03*
X0180900Y0441800D03*
X0183100Y0450700D03*
X0178700Y0455400D03*
X0199200Y0461100D03*
X0204700Y0445400D03*
X0240200Y0474300D03*
X0240200Y0483500D03*
X0227400Y0492400D03*
X0230500Y0499100D03*
X0210900Y0496000D03*
X0183300Y0489900D03*
X0364900Y0347700D03*
X0370400Y0332000D03*
X0386500Y0342400D03*
X0390900Y0337700D03*
X0388700Y0351300D03*
X0392700Y0357900D03*
X0404600Y0389100D03*
X0404800Y0401300D03*
X0461700Y0452200D03*
X0466000Y0452800D03*
X0329400Y0318800D03*
X0329400Y0309600D03*
X0342200Y0300700D03*
X0339100Y0294000D03*
X0358700Y0297100D03*
X0386300Y0303200D03*
X0464000Y0220900D03*
X0491600Y0227000D03*
X0508100Y0223400D03*
X0511200Y0230100D03*
X0520900Y0214500D03*
X0520900Y0205300D03*
X0485400Y0176400D03*
X0479900Y0192100D03*
X0463800Y0181700D03*
X0459400Y0186400D03*
X0461600Y0172800D03*
X0457600Y0166200D03*
X0445700Y0135000D03*
X0445500Y0122800D03*
X0388600Y0071900D03*
X0384300Y0071300D03*
D38*
X0443800Y0128500D03*
X0532700Y0157300D03*
X0458600Y0285800D03*
X0391700Y0238300D03*
X0257000Y0199300D03*
X0302400Y0075800D03*
X0167700Y0036800D03*
X0115600Y0146600D03*
X0026700Y0117800D03*
X0021700Y0344800D03*
X0163100Y0397500D03*
X0252000Y0426300D03*
X0317600Y0366800D03*
X0406500Y0395600D03*
X0547900Y0448300D03*
X0111000Y0507300D03*
M02*
