G75*
%MOIN*%
%OFA0B0*%
%FSLAX25Y25*%
%IPPOS*%
%LPD*%
%AMOC8*
5,1,8,0,0,1.08239X$1,22.5*
%
%ADD10C,0.05543*%
%ADD11C,0.07087*%
%ADD12R,0.03937X0.04331*%
%ADD13R,0.07098X0.06299*%
%ADD14R,0.06299X0.07098*%
%ADD15R,0.09100X0.05100*%
%ADD16R,0.25600X0.23200*%
%ADD17C,0.04756*%
%ADD18R,0.05906X0.15748*%
%ADD19R,0.05906X0.03937*%
%ADD20R,0.04331X0.03937*%
%ADD21C,0.07400*%
%ADD22C,0.03100*%
%ADD23C,0.06000*%
%ADD24C,0.02800*%
%ADD25C,0.05000*%
%ADD26C,0.01000*%
%ADD27C,0.15000*%
%ADD28C,0.03118*%
%ADD29C,0.04000*%
%ADD30C,0.07500*%
%ADD31C,0.03000*%
%ADD32C,0.11000*%
%ADD33C,0.07500*%
%ADD34C,0.01500*%
%ADD35C,0.02500*%
%ADD36C,0.08000*%
D10*
X0031223Y0153626D03*
X0030364Y0173292D03*
X0248335Y0370808D03*
X0247477Y0390474D03*
X0322123Y0402626D03*
X0321264Y0422292D03*
X0528177Y0121474D03*
X0529035Y0101808D03*
D11*
X0539827Y0098338D03*
X0538625Y0125871D03*
X0259127Y0367338D03*
X0257925Y0394871D03*
X0311675Y0398229D03*
X0310473Y0425762D03*
X0019573Y0176762D03*
X0020775Y0149229D03*
D12*
X0072645Y0107629D03*
X0079338Y0107629D03*
X0084504Y0103300D03*
X0091196Y0103300D03*
X0090446Y0095300D03*
X0083754Y0095300D03*
X0132954Y0104300D03*
X0139646Y0104300D03*
X0141654Y0120200D03*
X0148346Y0120200D03*
X0374654Y0344300D03*
X0381346Y0344300D03*
X0382096Y0352300D03*
X0375404Y0352300D03*
X0370238Y0356629D03*
X0363545Y0356629D03*
X0423854Y0353300D03*
X0430546Y0353300D03*
X0432554Y0369200D03*
X0439246Y0369200D03*
X0468954Y0179800D03*
X0475646Y0179800D03*
X0474896Y0171800D03*
X0480062Y0167471D03*
X0486755Y0167471D03*
X0468204Y0171800D03*
X0426446Y0170800D03*
X0419754Y0170800D03*
X0417746Y0154900D03*
X0411054Y0154900D03*
X0137046Y0423900D03*
X0130354Y0423900D03*
X0139054Y0439800D03*
X0145746Y0439800D03*
X0187504Y0440800D03*
X0194196Y0440800D03*
X0199362Y0436471D03*
X0206055Y0436471D03*
X0194946Y0448800D03*
X0188254Y0448800D03*
D13*
X0166200Y0471802D03*
X0166200Y0482998D03*
X0142200Y0483098D03*
X0142200Y0471902D03*
X0052000Y0365098D03*
X0052000Y0353902D03*
X0028000Y0353902D03*
X0028000Y0365098D03*
X0226700Y0190198D03*
X0226700Y0179002D03*
X0250700Y0179002D03*
X0250700Y0190198D03*
X0308700Y0096098D03*
X0308700Y0084902D03*
X0332700Y0084902D03*
X0332700Y0096098D03*
X0422900Y0202902D03*
X0422900Y0214098D03*
X0446900Y0213998D03*
X0446900Y0202802D03*
X0427400Y0310002D03*
X0427400Y0321198D03*
X0403400Y0321298D03*
X0403400Y0310102D03*
X0517600Y0428002D03*
X0517600Y0439198D03*
X0541600Y0439198D03*
X0541600Y0428002D03*
X0136500Y0072198D03*
X0136500Y0061002D03*
X0112500Y0061102D03*
X0112500Y0072298D03*
D14*
X0112298Y0158900D03*
X0101102Y0158900D03*
X0101102Y0182800D03*
X0112298Y0182800D03*
X0166402Y0361300D03*
X0177598Y0361300D03*
X0177598Y0385200D03*
X0166402Y0385200D03*
X0392002Y0407900D03*
X0403198Y0407900D03*
X0403198Y0431800D03*
X0392002Y0431800D03*
X0447102Y0116200D03*
X0458298Y0116200D03*
X0458298Y0092300D03*
X0447102Y0092300D03*
D15*
X0402000Y0098150D03*
X0402000Y0116150D03*
X0157400Y0158950D03*
X0157400Y0176950D03*
X0121300Y0367150D03*
X0121300Y0385150D03*
X0448300Y0407950D03*
X0448300Y0425950D03*
D16*
X0423550Y0416950D03*
X0146050Y0376150D03*
X0132650Y0167950D03*
X0426750Y0107150D03*
D17*
X0417800Y0060800D03*
X0417800Y0053300D03*
X0417800Y0045800D03*
X0410300Y0045800D03*
X0410300Y0053300D03*
X0410300Y0060800D03*
X0367000Y0086300D03*
X0367000Y0093800D03*
X0367000Y0101300D03*
X0359500Y0101300D03*
X0359500Y0093800D03*
X0359500Y0086300D03*
X0357000Y0053400D03*
X0357000Y0045900D03*
X0302400Y0044000D03*
X0302400Y0051500D03*
X0302400Y0059000D03*
X0302400Y0066500D03*
X0199900Y0173800D03*
X0192400Y0173800D03*
X0192400Y0181300D03*
X0192400Y0188800D03*
X0199900Y0188800D03*
X0199900Y0181300D03*
X0202400Y0221700D03*
X0202400Y0229200D03*
X0149100Y0229300D03*
X0149100Y0221800D03*
X0149100Y0214300D03*
X0141600Y0214300D03*
X0141600Y0221800D03*
X0141600Y0229300D03*
X0137100Y0314800D03*
X0129600Y0314800D03*
X0129600Y0322300D03*
X0129600Y0329800D03*
X0137100Y0329800D03*
X0137100Y0322300D03*
X0086300Y0355300D03*
X0086300Y0362800D03*
X0086300Y0370300D03*
X0078800Y0370300D03*
X0078800Y0362800D03*
X0078800Y0355300D03*
X0076300Y0322400D03*
X0076300Y0314900D03*
X0021700Y0313000D03*
X0021700Y0320500D03*
X0021700Y0328000D03*
X0021700Y0335500D03*
X0257000Y0231100D03*
X0257000Y0223600D03*
X0257000Y0216100D03*
X0257000Y0208600D03*
X0483300Y0422800D03*
X0483300Y0430300D03*
X0490800Y0430300D03*
X0490800Y0422800D03*
X0490800Y0437800D03*
X0483300Y0437800D03*
X0493300Y0470700D03*
X0493300Y0478200D03*
X0547900Y0480100D03*
X0547900Y0472600D03*
X0547900Y0465100D03*
X0547900Y0457600D03*
X0440000Y0463300D03*
X0432500Y0463300D03*
X0432500Y0470800D03*
X0432500Y0478300D03*
X0440000Y0478300D03*
X0440000Y0470800D03*
D18*
X0034805Y0044900D03*
X0325705Y0293900D03*
X0524595Y0230200D03*
X0243895Y0499200D03*
D19*
X0218305Y0499200D03*
X0218305Y0490145D03*
X0218305Y0508255D03*
X0351295Y0302955D03*
X0351295Y0293900D03*
X0351295Y0284845D03*
X0499005Y0239255D03*
X0499005Y0230200D03*
X0499005Y0221145D03*
X0060395Y0053955D03*
X0060395Y0044900D03*
X0060395Y0035845D03*
D20*
X0128500Y0111054D03*
X0128500Y0117746D03*
X0419400Y0360054D03*
X0419400Y0366746D03*
X0430900Y0164046D03*
X0430900Y0157354D03*
X0150200Y0426354D03*
X0150200Y0433046D03*
D21*
X0196700Y0509100D03*
X0206700Y0509100D03*
X0252325Y0465697D03*
X0252674Y0455703D03*
X0139600Y0347500D03*
X0129600Y0347500D03*
X0139100Y0196600D03*
X0149100Y0196600D03*
X0026025Y0088397D03*
X0026374Y0078403D03*
X0072000Y0035000D03*
X0082000Y0035000D03*
X0362900Y0284000D03*
X0372900Y0284000D03*
X0317274Y0327403D03*
X0316925Y0337397D03*
X0430000Y0445600D03*
X0440000Y0445600D03*
X0477400Y0240100D03*
X0487400Y0240100D03*
X0533025Y0196697D03*
X0533374Y0186703D03*
X0420300Y0078500D03*
X0410300Y0078500D03*
D22*
X0400300Y0087700D03*
X0390800Y0084400D03*
X0392600Y0080500D03*
X0387400Y0087700D03*
X0379100Y0071700D03*
X0398300Y0060150D03*
X0405400Y0057900D03*
X0441900Y0074800D03*
X0447500Y0075000D03*
X0453500Y0074700D03*
X0459950Y0070600D03*
X0466000Y0093900D03*
X0468300Y0109900D03*
X0485300Y0123900D03*
X0484300Y0129600D03*
X0481600Y0142900D03*
X0479200Y0146600D03*
X0473000Y0144900D03*
X0468600Y0147100D03*
X0462400Y0145700D03*
X0455300Y0144400D03*
X0464400Y0134300D03*
X0443050Y0138500D03*
X0420400Y0133050D03*
X0420250Y0127600D03*
X0405400Y0131300D03*
X0405250Y0123650D03*
X0396000Y0127800D03*
X0395700Y0146400D03*
X0412200Y0149500D03*
X0422600Y0149900D03*
X0424600Y0162400D03*
X0437500Y0161700D03*
X0438500Y0165500D03*
X0439500Y0169300D03*
X0460900Y0177200D03*
X0455600Y0193000D03*
X0450950Y0194300D03*
X0441900Y0196900D03*
X0457800Y0210350D03*
X0470300Y0205500D03*
X0473300Y0210000D03*
X0476200Y0203300D03*
X0482400Y0208800D03*
X0486800Y0209700D03*
X0492400Y0214500D03*
X0488300Y0216800D03*
X0468000Y0233100D03*
X0463650Y0236200D03*
X0460800Y0232250D03*
X0458300Y0239650D03*
X0463800Y0241500D03*
X0468200Y0238450D03*
X0450350Y0240550D03*
X0444450Y0240700D03*
X0437700Y0242450D03*
X0429850Y0244300D03*
X0426800Y0220500D03*
X0422100Y0220850D03*
X0400250Y0231100D03*
X0409200Y0198000D03*
X0407500Y0194300D03*
X0413500Y0192500D03*
X0422800Y0195500D03*
X0399800Y0194100D03*
X0410300Y0174100D03*
X0464400Y0158300D03*
X0473000Y0159200D03*
X0477700Y0160800D03*
X0482600Y0160900D03*
X0485800Y0157900D03*
X0495100Y0144900D03*
X0502900Y0160200D03*
X0512900Y0165300D03*
X0502400Y0172900D03*
X0506300Y0178200D03*
X0513200Y0182100D03*
X0513750Y0187500D03*
X0518250Y0195050D03*
X0525950Y0190100D03*
X0536300Y0169200D03*
X0512700Y0145600D03*
X0521700Y0134500D03*
X0537000Y0115800D03*
X0511400Y0094550D03*
X0502400Y0100500D03*
X0497800Y0108500D03*
X0492750Y0099450D03*
X0441250Y0090150D03*
X0437100Y0090000D03*
X0431300Y0093250D03*
X0373750Y0110200D03*
X0370050Y0114150D03*
X0368700Y0118900D03*
X0364750Y0114200D03*
X0367600Y0109000D03*
X0374750Y0116600D03*
X0342850Y0125800D03*
X0337450Y0127150D03*
X0334600Y0123050D03*
X0331150Y0128200D03*
X0341400Y0131900D03*
X0340500Y0107600D03*
X0341000Y0103500D03*
X0317350Y0106850D03*
X0306100Y0103800D03*
X0305000Y0108950D03*
X0313400Y0079600D03*
X0328900Y0078700D03*
X0332900Y0068100D03*
X0328400Y0067000D03*
X0337946Y0067900D03*
X0346200Y0062050D03*
X0254400Y0166150D03*
X0253300Y0171300D03*
X0242050Y0168250D03*
X0224800Y0152050D03*
X0221950Y0147950D03*
X0216550Y0149300D03*
X0218000Y0143200D03*
X0228250Y0146900D03*
X0218900Y0167500D03*
X0218400Y0171600D03*
X0194650Y0160900D03*
X0189350Y0160950D03*
X0190700Y0156200D03*
X0184650Y0158500D03*
X0185650Y0164900D03*
X0191800Y0166100D03*
X0172000Y0187400D03*
X0168600Y0190700D03*
X0166800Y0194600D03*
X0159100Y0187400D03*
X0180300Y0203400D03*
X0161100Y0214950D03*
X0154000Y0217200D03*
X0117500Y0200300D03*
X0111900Y0200100D03*
X0105900Y0200400D03*
X0099450Y0204500D03*
X0118150Y0184950D03*
X0122300Y0185100D03*
X0128100Y0181850D03*
X0093400Y0181200D03*
X0091100Y0165200D03*
X0074100Y0151200D03*
X0075100Y0145500D03*
X0077800Y0132200D03*
X0080200Y0128500D03*
X0086400Y0130200D03*
X0090800Y0128000D03*
X0097000Y0129400D03*
X0104100Y0130700D03*
X0095000Y0140800D03*
X0116350Y0136600D03*
X0136800Y0125200D03*
X0147200Y0125600D03*
X0134800Y0112700D03*
X0121900Y0113400D03*
X0120900Y0109600D03*
X0119900Y0105800D03*
X0098500Y0097900D03*
X0103800Y0082100D03*
X0108450Y0080800D03*
X0117500Y0078200D03*
X0136600Y0079600D03*
X0145900Y0082600D03*
X0151900Y0080800D03*
X0150200Y0077100D03*
X0159600Y0081000D03*
X0149100Y0101000D03*
X0163700Y0128700D03*
X0154000Y0143800D03*
X0154150Y0151450D03*
X0163400Y0147300D03*
X0139150Y0147500D03*
X0139000Y0142050D03*
X0095000Y0116800D03*
X0086400Y0115900D03*
X0081700Y0114300D03*
X0076800Y0114200D03*
X0073600Y0117200D03*
X0064300Y0130200D03*
X0056500Y0114900D03*
X0046500Y0109800D03*
X0057000Y0102200D03*
X0053100Y0096900D03*
X0046200Y0093000D03*
X0045650Y0087600D03*
X0041150Y0080050D03*
X0033450Y0085000D03*
X0023100Y0105900D03*
X0046700Y0129500D03*
X0037700Y0140600D03*
X0022400Y0159300D03*
X0048000Y0180550D03*
X0057000Y0174600D03*
X0061600Y0166600D03*
X0066650Y0175650D03*
X0068344Y0104056D03*
X0070800Y0100900D03*
X0077900Y0102200D03*
X0079600Y0091400D03*
X0076200Y0085400D03*
X0072300Y0082900D03*
X0072463Y0089217D03*
X0089650Y0083450D03*
X0083200Y0071800D03*
X0089100Y0069600D03*
X0086100Y0065100D03*
X0077000Y0066300D03*
X0072600Y0065400D03*
X0071100Y0058300D03*
X0067000Y0060600D03*
X0091400Y0042000D03*
X0095750Y0038900D03*
X0098600Y0042850D03*
X0101100Y0035450D03*
X0095600Y0033600D03*
X0091200Y0036650D03*
X0109050Y0034550D03*
X0114950Y0034400D03*
X0121700Y0032650D03*
X0129550Y0030800D03*
X0132600Y0054600D03*
X0137300Y0054250D03*
X0159150Y0044000D03*
X0101600Y0064750D03*
X0230500Y0196400D03*
X0226500Y0207000D03*
X0231000Y0208100D03*
X0221454Y0207200D03*
X0213200Y0213050D03*
X0246000Y0195500D03*
X0357900Y0309600D03*
X0362000Y0307300D03*
X0363500Y0314400D03*
X0367900Y0315300D03*
X0374100Y0320800D03*
X0380000Y0318600D03*
X0377000Y0314100D03*
X0392500Y0313750D03*
X0399350Y0329800D03*
X0394700Y0331100D03*
X0408400Y0327200D03*
X0427500Y0328600D03*
X0436800Y0331600D03*
X0442800Y0329800D03*
X0441100Y0326100D03*
X0450500Y0330000D03*
X0440000Y0350000D03*
X0425700Y0361700D03*
X0412800Y0362400D03*
X0411800Y0358600D03*
X0410800Y0354800D03*
X0389400Y0346900D03*
X0380550Y0332450D03*
X0370500Y0340400D03*
X0367100Y0334400D03*
X0363200Y0331900D03*
X0363363Y0338217D03*
X0361700Y0349900D03*
X0359244Y0353056D03*
X0368800Y0351200D03*
X0367700Y0363200D03*
X0364500Y0366200D03*
X0372600Y0363300D03*
X0377300Y0364900D03*
X0385900Y0365800D03*
X0381700Y0377000D03*
X0377300Y0379200D03*
X0371100Y0377500D03*
X0368700Y0381200D03*
X0366000Y0394500D03*
X0365000Y0400200D03*
X0352500Y0415600D03*
X0347900Y0423600D03*
X0338900Y0429550D03*
X0357550Y0424650D03*
X0382000Y0414200D03*
X0384300Y0430200D03*
X0396800Y0449400D03*
X0402800Y0449100D03*
X0408400Y0449300D03*
X0409050Y0433950D03*
X0413200Y0434100D03*
X0419000Y0430850D03*
X0450000Y0436400D03*
X0459500Y0439700D03*
X0457700Y0443600D03*
X0462900Y0436400D03*
X0471200Y0452400D03*
X0452000Y0463950D03*
X0444900Y0466200D03*
X0390350Y0453500D03*
X0430050Y0396500D03*
X0429900Y0391050D03*
X0444900Y0392800D03*
X0445050Y0400450D03*
X0454300Y0396300D03*
X0454600Y0377700D03*
X0438100Y0374600D03*
X0427700Y0374200D03*
X0407250Y0385600D03*
X0395000Y0379700D03*
X0387900Y0378400D03*
X0385900Y0389800D03*
X0355200Y0379200D03*
X0347400Y0363900D03*
X0337400Y0358800D03*
X0347900Y0351200D03*
X0344000Y0345900D03*
X0337100Y0342000D03*
X0336550Y0336600D03*
X0332050Y0329050D03*
X0324350Y0334000D03*
X0314000Y0354900D03*
X0337600Y0378500D03*
X0328600Y0389600D03*
X0313300Y0408300D03*
X0256300Y0384800D03*
X0241000Y0403500D03*
X0232000Y0414600D03*
X0222200Y0429200D03*
X0232200Y0434300D03*
X0221700Y0441900D03*
X0225600Y0447200D03*
X0232500Y0451100D03*
X0233050Y0456500D03*
X0237550Y0464050D03*
X0245250Y0459100D03*
X0255600Y0438200D03*
X0214400Y0413900D03*
X0200900Y0411900D03*
X0198500Y0415600D03*
X0192300Y0413900D03*
X0187900Y0416100D03*
X0181700Y0414700D03*
X0174600Y0413400D03*
X0183700Y0403300D03*
X0203600Y0398600D03*
X0204600Y0392900D03*
X0217100Y0377500D03*
X0221700Y0369500D03*
X0212050Y0368450D03*
X0230700Y0363550D03*
X0185300Y0362900D03*
X0187600Y0378900D03*
X0160550Y0359150D03*
X0156400Y0359000D03*
X0150600Y0362250D03*
X0161200Y0343800D03*
X0166800Y0344000D03*
X0172800Y0343700D03*
X0179250Y0339600D03*
X0124700Y0326900D03*
X0117600Y0329150D03*
X0098400Y0340700D03*
X0111900Y0349500D03*
X0110100Y0353400D03*
X0106700Y0356700D03*
X0119600Y0356700D03*
X0093050Y0379200D03*
X0089350Y0383150D03*
X0088000Y0387900D03*
X0084050Y0383200D03*
X0086900Y0378000D03*
X0094050Y0385600D03*
X0115300Y0396800D03*
X0124700Y0400300D03*
X0124550Y0392650D03*
X0139550Y0396600D03*
X0139700Y0402050D03*
X0141900Y0418900D03*
X0131500Y0418500D03*
X0115000Y0415400D03*
X0143900Y0431400D03*
X0156800Y0430700D03*
X0157800Y0434500D03*
X0158800Y0438300D03*
X0180200Y0446200D03*
X0174900Y0462000D03*
X0170250Y0463300D03*
X0161200Y0465900D03*
X0177100Y0479350D03*
X0189600Y0474500D03*
X0192600Y0479000D03*
X0195500Y0472300D03*
X0201700Y0477800D03*
X0206100Y0478700D03*
X0211700Y0483500D03*
X0207600Y0485800D03*
X0187300Y0502100D03*
X0182950Y0505200D03*
X0180100Y0501250D03*
X0177600Y0508650D03*
X0183100Y0510500D03*
X0187500Y0507450D03*
X0169650Y0509550D03*
X0163750Y0509700D03*
X0157000Y0511450D03*
X0149150Y0513300D03*
X0146100Y0489500D03*
X0141400Y0489850D03*
X0119550Y0500100D03*
X0128500Y0467000D03*
X0126800Y0463300D03*
X0132800Y0461500D03*
X0142100Y0464500D03*
X0119100Y0463100D03*
X0129600Y0443100D03*
X0162350Y0407500D03*
X0183700Y0427300D03*
X0192300Y0428200D03*
X0197000Y0429800D03*
X0201900Y0429900D03*
X0205100Y0426900D03*
X0210356Y0440044D03*
X0207900Y0443200D03*
X0200800Y0441900D03*
X0199100Y0452700D03*
X0202500Y0458700D03*
X0206400Y0461200D03*
X0206237Y0454883D03*
X0189050Y0460650D03*
X0060700Y0400900D03*
X0056750Y0396150D03*
X0053900Y0392050D03*
X0050450Y0397200D03*
X0062150Y0394800D03*
X0059800Y0376600D03*
X0060300Y0372500D03*
X0036650Y0375850D03*
X0025400Y0372800D03*
X0024300Y0377950D03*
X0032700Y0348600D03*
X0048200Y0347700D03*
X0052200Y0337100D03*
X0047700Y0336000D03*
X0057246Y0336900D03*
X0065500Y0331050D03*
X0382300Y0291000D03*
X0386650Y0287900D03*
X0389500Y0291850D03*
X0392000Y0284450D03*
X0386500Y0282600D03*
X0382100Y0285650D03*
X0399950Y0283550D03*
X0405850Y0283400D03*
X0412600Y0281650D03*
X0420450Y0279800D03*
X0423500Y0303600D03*
X0428200Y0303250D03*
X0450050Y0293000D03*
X0469750Y0191650D03*
X0479800Y0183700D03*
X0483200Y0189700D03*
X0487100Y0192200D03*
X0486937Y0185883D03*
X0488600Y0174200D03*
X0491056Y0171044D03*
X0481500Y0172900D03*
X0508900Y0392200D03*
X0512850Y0396950D03*
X0515700Y0401050D03*
X0519150Y0395900D03*
X0507450Y0398300D03*
X0509800Y0416500D03*
X0509300Y0420600D03*
X0532950Y0417250D03*
X0544200Y0420300D03*
X0545300Y0415150D03*
X0536900Y0444500D03*
X0521400Y0445400D03*
X0517400Y0456000D03*
X0521900Y0457100D03*
X0512354Y0456200D03*
X0504100Y0462050D03*
X0482700Y0415100D03*
X0480250Y0409950D03*
X0481600Y0405200D03*
X0485550Y0409900D03*
X0476550Y0413900D03*
X0475550Y0407500D03*
D23*
X0517600Y0428002D02*
X0532450Y0428002D01*
X0527500Y0432952D01*
X0527600Y0435650D01*
X0532450Y0428002D02*
X0541600Y0428002D01*
X0407250Y0385600D02*
X0403198Y0389652D01*
X0403198Y0431800D01*
X0403198Y0407900D01*
X0403400Y0310102D02*
X0403500Y0310002D01*
X0416900Y0310002D01*
X0427400Y0310002D01*
X0427498Y0310100D01*
X0431150Y0298550D02*
X0432350Y0298550D01*
X0433200Y0299400D01*
X0435700Y0299400D01*
X0437850Y0301550D01*
X0439700Y0301550D01*
X0431150Y0298550D02*
X0430400Y0297800D01*
X0429600Y0297800D01*
X0429050Y0297250D01*
X0427250Y0297250D01*
X0425600Y0295600D01*
X0424700Y0228500D02*
X0423050Y0226850D01*
X0421250Y0226850D01*
X0420700Y0226300D01*
X0419900Y0226300D01*
X0419150Y0225550D01*
X0417950Y0225550D01*
X0417100Y0224700D01*
X0414600Y0224700D01*
X0412450Y0222550D01*
X0410600Y0222550D01*
X0422802Y0214000D02*
X0422900Y0214098D01*
X0433400Y0214098D01*
X0446800Y0214098D01*
X0446900Y0213998D01*
X0443050Y0138500D02*
X0447102Y0134448D01*
X0447102Y0092300D01*
X0447102Y0116200D01*
X0332700Y0096098D02*
X0317850Y0096098D01*
X0322800Y0091148D01*
X0322700Y0088450D01*
X0317850Y0096098D02*
X0308700Y0096098D01*
X0250700Y0179002D02*
X0241550Y0179002D01*
X0236600Y0183952D01*
X0236700Y0186650D01*
X0241550Y0179002D02*
X0226700Y0179002D01*
X0116350Y0136600D02*
X0112298Y0140652D01*
X0112298Y0182800D01*
X0112298Y0158900D01*
X0112500Y0061102D02*
X0112600Y0061002D01*
X0126000Y0061002D01*
X0136500Y0061002D01*
X0136598Y0061100D01*
X0140250Y0049550D02*
X0141450Y0049550D01*
X0142300Y0050400D01*
X0144800Y0050400D01*
X0146950Y0052550D01*
X0148800Y0052550D01*
X0140250Y0049550D02*
X0139500Y0048800D01*
X0138700Y0048800D01*
X0138150Y0048250D01*
X0136350Y0048250D01*
X0134700Y0046600D01*
X0042000Y0357450D02*
X0042100Y0360148D01*
X0037150Y0365098D01*
X0028000Y0365098D01*
X0037150Y0365098D02*
X0052000Y0365098D01*
X0162350Y0407500D02*
X0166402Y0403448D01*
X0166402Y0361300D01*
X0166402Y0385200D01*
X0166200Y0482998D02*
X0166100Y0483098D01*
X0152700Y0483098D01*
X0142200Y0483098D01*
X0142102Y0483000D01*
X0138450Y0494550D02*
X0137250Y0494550D01*
X0136400Y0493700D01*
X0133900Y0493700D01*
X0131750Y0491550D01*
X0129900Y0491550D01*
X0138450Y0494550D02*
X0139200Y0495300D01*
X0140000Y0495300D01*
X0140550Y0495850D01*
X0142350Y0495850D01*
X0144000Y0497500D01*
D24*
X0152200Y0479550D03*
X0152200Y0475600D03*
X0156150Y0475600D03*
X0156150Y0479550D03*
X0238900Y0441850D03*
X0242550Y0440400D03*
X0242400Y0443850D03*
X0248400Y0434100D03*
X0173900Y0375200D03*
X0173900Y0371250D03*
X0169950Y0371250D03*
X0169950Y0375200D03*
X0042000Y0361450D03*
X0038050Y0361450D03*
X0038050Y0357450D03*
X0042000Y0357450D03*
X0236700Y0186650D03*
X0240650Y0186650D03*
X0240650Y0182650D03*
X0236700Y0182650D03*
X0318750Y0092450D03*
X0322700Y0092450D03*
X0322700Y0088450D03*
X0318750Y0088450D03*
X0450650Y0102250D03*
X0450650Y0106200D03*
X0454600Y0106200D03*
X0454600Y0102250D03*
X0519600Y0172850D03*
X0523250Y0171400D03*
X0523100Y0174850D03*
X0529100Y0165100D03*
X0436850Y0206600D03*
X0436850Y0210550D03*
X0432900Y0210550D03*
X0432900Y0206600D03*
X0417400Y0313550D03*
X0413450Y0313550D03*
X0413450Y0317500D03*
X0417400Y0317500D03*
X0330700Y0351250D03*
X0327050Y0352700D03*
X0327200Y0349250D03*
X0321200Y0359000D03*
X0395700Y0417900D03*
X0399650Y0417900D03*
X0399650Y0421850D03*
X0395700Y0421850D03*
X0527600Y0431650D03*
X0531550Y0431650D03*
X0531550Y0435650D03*
X0527600Y0435650D03*
X0126500Y0068500D03*
X0126500Y0064550D03*
X0122550Y0064550D03*
X0122550Y0068500D03*
X0039800Y0102250D03*
X0036150Y0103700D03*
X0036300Y0100250D03*
X0030300Y0110000D03*
X0104800Y0168900D03*
X0104800Y0172850D03*
X0108750Y0172850D03*
X0108750Y0168900D03*
D25*
X0132650Y0167950D02*
X0139100Y0174400D01*
X0139100Y0196600D01*
X0149100Y0196600D02*
X0149100Y0186700D01*
X0156800Y0179000D01*
X0171900Y0179000D01*
X0186100Y0164800D01*
X0122550Y0068500D02*
X0124100Y0062902D01*
X0126000Y0061002D01*
X0373300Y0110300D02*
X0387500Y0096100D01*
X0402600Y0096100D01*
X0410300Y0088400D01*
X0410300Y0078500D01*
X0420300Y0078500D02*
X0420300Y0100700D01*
X0426750Y0107150D01*
X0436850Y0206600D02*
X0435300Y0212198D01*
X0433400Y0214098D01*
X0416900Y0310002D02*
X0415000Y0311902D01*
X0413450Y0317500D01*
X0477000Y0413800D02*
X0462800Y0428000D01*
X0447700Y0428000D01*
X0440000Y0435700D01*
X0440000Y0445600D01*
X0430000Y0445600D02*
X0430000Y0423400D01*
X0423550Y0416950D01*
X0156150Y0475600D02*
X0154600Y0481198D01*
X0152700Y0483098D01*
X0146050Y0376150D02*
X0139600Y0369700D01*
X0139600Y0347500D01*
X0129600Y0347500D02*
X0129600Y0357400D01*
X0121900Y0365100D01*
X0106800Y0365100D01*
X0092600Y0379300D01*
D26*
X0090196Y0376131D02*
X0092131Y0374196D01*
X0093178Y0371668D01*
X0093178Y0368932D01*
X0092191Y0366550D01*
X0093178Y0364168D01*
X0093178Y0361432D01*
X0092131Y0358904D01*
X0090196Y0356969D01*
X0089863Y0356831D01*
X0090029Y0356431D01*
X0090178Y0355682D01*
X0090178Y0355489D01*
X0086489Y0355489D01*
X0086489Y0355111D01*
X0090178Y0355111D01*
X0090178Y0354918D01*
X0090029Y0354169D01*
X0089737Y0353463D01*
X0089312Y0352828D01*
X0088772Y0352288D01*
X0088137Y0351863D01*
X0087431Y0351571D01*
X0086682Y0351422D01*
X0086489Y0351422D01*
X0086489Y0355111D01*
X0086111Y0355111D01*
X0086111Y0351422D01*
X0085918Y0351422D01*
X0085169Y0351571D01*
X0084769Y0351737D01*
X0084631Y0351404D01*
X0083413Y0350187D01*
X0087714Y0345886D01*
X0099468Y0357639D01*
X0100763Y0358175D01*
X0101571Y0360127D01*
X0103273Y0361829D01*
X0105497Y0362750D01*
X0107903Y0362750D01*
X0110127Y0361829D01*
X0111829Y0360127D01*
X0112276Y0359047D01*
X0113527Y0358529D01*
X0113726Y0358329D01*
X0114471Y0360127D01*
X0116173Y0361829D01*
X0118397Y0362750D01*
X0120803Y0362750D01*
X0123027Y0361829D01*
X0124729Y0360127D01*
X0125650Y0357903D01*
X0125650Y0355497D01*
X0124729Y0353273D01*
X0124600Y0353144D01*
X0124600Y0349505D01*
X0123839Y0347668D01*
X0122432Y0346261D01*
X0116771Y0340600D01*
X0127300Y0340600D01*
X0131200Y0341120D01*
X0131200Y0342552D01*
X0130818Y0342428D01*
X0130100Y0342314D01*
X0130100Y0347000D01*
X0129100Y0347000D01*
X0129100Y0342314D01*
X0128382Y0342428D01*
X0127604Y0342681D01*
X0126875Y0343053D01*
X0126212Y0343534D01*
X0125634Y0344112D01*
X0125153Y0344775D01*
X0124781Y0345504D01*
X0124528Y0346282D01*
X0124414Y0347000D01*
X0129100Y0347000D01*
X0129100Y0348000D01*
X0129100Y0352686D01*
X0128382Y0352572D01*
X0127604Y0352319D01*
X0126875Y0351947D01*
X0126212Y0351466D01*
X0125634Y0350888D01*
X0125153Y0350225D01*
X0124781Y0349496D01*
X0124528Y0348718D01*
X0124414Y0348000D01*
X0129100Y0348000D01*
X0130100Y0348000D01*
X0130100Y0351129D01*
X0129561Y0351668D01*
X0128800Y0353505D01*
X0128800Y0354059D01*
X0124429Y0363100D01*
X0121800Y0363100D01*
X0121800Y0366650D01*
X0120800Y0366650D01*
X0120800Y0363100D01*
X0116553Y0363100D01*
X0116171Y0363202D01*
X0115829Y0363400D01*
X0115550Y0363679D01*
X0115352Y0364021D01*
X0115250Y0364403D01*
X0115250Y0366650D01*
X0120800Y0366650D01*
X0120800Y0367650D01*
X0115250Y0367650D01*
X0115250Y0369897D01*
X0115352Y0370279D01*
X0115550Y0370621D01*
X0115829Y0370900D01*
X0116171Y0371098D01*
X0116553Y0371200D01*
X0120512Y0371200D01*
X0119547Y0373196D01*
X0116921Y0373900D01*
X0108728Y0373900D01*
X0107713Y0373889D01*
X0107685Y0373900D01*
X0107656Y0373900D01*
X0106717Y0374289D01*
X0105775Y0374667D01*
X0105753Y0374688D01*
X0105726Y0374699D01*
X0105008Y0375417D01*
X0100418Y0379909D01*
X0093011Y0386856D01*
X0081069Y0387469D01*
X0080500Y0386900D01*
X0080500Y0378900D01*
X0082300Y0377100D01*
X0082300Y0376295D01*
X0082550Y0376191D01*
X0084932Y0377178D01*
X0087668Y0377178D01*
X0090196Y0376131D01*
X0089449Y0376440D02*
X0103963Y0376440D01*
X0104983Y0375442D02*
X0090885Y0375442D01*
X0091884Y0374443D02*
X0106332Y0374443D01*
X0102942Y0377439D02*
X0081961Y0377439D01*
X0082300Y0376440D02*
X0083151Y0376440D01*
X0080963Y0378437D02*
X0101922Y0378437D01*
X0100901Y0379436D02*
X0080500Y0379436D01*
X0080500Y0380434D02*
X0099858Y0380434D01*
X0098793Y0381433D02*
X0080500Y0381433D01*
X0080500Y0382431D02*
X0097728Y0382431D01*
X0096663Y0383430D02*
X0080500Y0383430D01*
X0080500Y0384428D02*
X0095599Y0384428D01*
X0094534Y0385427D02*
X0080500Y0385427D01*
X0080500Y0386425D02*
X0093469Y0386425D01*
X0081947Y0387424D02*
X0081024Y0387424D01*
X0092442Y0373445D02*
X0118620Y0373445D01*
X0119910Y0372446D02*
X0092856Y0372446D01*
X0093178Y0371448D02*
X0120393Y0371448D01*
X0120800Y0367454D02*
X0092566Y0367454D01*
X0092231Y0366455D02*
X0115250Y0366455D01*
X0115250Y0365457D02*
X0092644Y0365457D01*
X0093058Y0364458D02*
X0115250Y0364458D01*
X0115769Y0363460D02*
X0093178Y0363460D01*
X0093178Y0362461D02*
X0104799Y0362461D01*
X0102907Y0361463D02*
X0093178Y0361463D01*
X0092777Y0360464D02*
X0101908Y0360464D01*
X0101297Y0359466D02*
X0092363Y0359466D01*
X0091694Y0358467D02*
X0100883Y0358467D01*
X0099297Y0357469D02*
X0090695Y0357469D01*
X0090013Y0356470D02*
X0098299Y0356470D01*
X0097300Y0355472D02*
X0086489Y0355472D01*
X0086489Y0354473D02*
X0086111Y0354473D01*
X0086111Y0353474D02*
X0086489Y0353474D01*
X0086489Y0352476D02*
X0086111Y0352476D01*
X0086111Y0351477D02*
X0086489Y0351477D01*
X0086961Y0351477D02*
X0093306Y0351477D01*
X0092308Y0350479D02*
X0083706Y0350479D01*
X0084120Y0349480D02*
X0091309Y0349480D01*
X0090311Y0348482D02*
X0085118Y0348482D01*
X0086117Y0347483D02*
X0089312Y0347483D01*
X0088314Y0346485D02*
X0087115Y0346485D01*
X0085639Y0351477D02*
X0084661Y0351477D01*
X0088960Y0352476D02*
X0094305Y0352476D01*
X0095303Y0353474D02*
X0089741Y0353474D01*
X0090089Y0354473D02*
X0096302Y0354473D01*
X0102300Y0353400D02*
X0076300Y0327400D01*
X0076300Y0322400D01*
X0081100Y0319500D02*
X0076500Y0314900D01*
X0076300Y0314900D01*
X0081100Y0319500D02*
X0081100Y0329200D01*
X0101400Y0349500D01*
X0111900Y0349500D01*
X0110100Y0353400D02*
X0102300Y0353400D01*
X0108601Y0362461D02*
X0117699Y0362461D01*
X0115807Y0361463D02*
X0110493Y0361463D01*
X0111492Y0360464D02*
X0114808Y0360464D01*
X0114197Y0359466D02*
X0112103Y0359466D01*
X0113589Y0358467D02*
X0113783Y0358467D01*
X0119600Y0356700D02*
X0119600Y0350500D01*
X0113400Y0344300D01*
X0102000Y0344300D01*
X0098400Y0340700D01*
X0098400Y0338300D01*
X0105700Y0331000D01*
X0108500Y0325900D01*
X0125300Y0314800D01*
X0129600Y0314800D01*
X0120000Y0325900D02*
X0108500Y0325900D01*
X0120000Y0325900D02*
X0125000Y0333800D01*
X0157700Y0333800D01*
X0161200Y0337300D01*
X0161200Y0343800D01*
X0157182Y0348482D02*
X0144709Y0348482D01*
X0144672Y0348718D02*
X0144419Y0349496D01*
X0144047Y0350225D01*
X0143566Y0350888D01*
X0142988Y0351466D01*
X0142325Y0351947D01*
X0141596Y0352319D01*
X0140818Y0352572D01*
X0140100Y0352686D01*
X0140100Y0348000D01*
X0144786Y0348000D01*
X0144672Y0348718D01*
X0144424Y0349480D02*
X0158180Y0349480D01*
X0158400Y0349700D02*
X0154400Y0345700D01*
X0148800Y0345700D01*
X0143200Y0340100D01*
X0138000Y0340100D01*
X0136200Y0341900D01*
X0136200Y0343546D01*
X0136212Y0343534D01*
X0136875Y0343053D01*
X0137604Y0342681D01*
X0138382Y0342428D01*
X0139100Y0342314D01*
X0139100Y0347000D01*
X0140100Y0347000D01*
X0140100Y0348000D01*
X0139100Y0348000D01*
X0139100Y0352686D01*
X0138382Y0352572D01*
X0137604Y0352319D01*
X0136875Y0351947D01*
X0136212Y0351466D01*
X0136200Y0351454D01*
X0136200Y0352100D01*
X0135600Y0352700D01*
X0135600Y0358593D01*
X0134687Y0360799D01*
X0133800Y0361685D01*
X0133800Y0363050D01*
X0145550Y0363050D01*
X0145550Y0361245D01*
X0146319Y0359389D01*
X0147739Y0357969D01*
X0149595Y0357200D01*
X0151605Y0357200D01*
X0151669Y0357227D01*
X0152119Y0356139D01*
X0153539Y0354719D01*
X0155395Y0353950D01*
X0157405Y0353950D01*
X0158400Y0354362D01*
X0158400Y0349700D01*
X0158400Y0350479D02*
X0143863Y0350479D01*
X0142972Y0351477D02*
X0158400Y0351477D01*
X0158400Y0352476D02*
X0141113Y0352476D01*
X0140100Y0352476D02*
X0139100Y0352476D01*
X0139100Y0351477D02*
X0140100Y0351477D01*
X0140100Y0350479D02*
X0139100Y0350479D01*
X0139100Y0349480D02*
X0140100Y0349480D01*
X0140100Y0348482D02*
X0139100Y0348482D01*
X0140100Y0347483D02*
X0156183Y0347483D01*
X0155185Y0346485D02*
X0144704Y0346485D01*
X0144672Y0346282D02*
X0144786Y0347000D01*
X0140100Y0347000D01*
X0140100Y0342314D01*
X0140818Y0342428D01*
X0141596Y0342681D01*
X0142325Y0343053D01*
X0142988Y0343534D01*
X0143566Y0344112D01*
X0144047Y0344775D01*
X0144419Y0345504D01*
X0144672Y0346282D01*
X0144410Y0345486D02*
X0148586Y0345486D01*
X0147588Y0344488D02*
X0143839Y0344488D01*
X0142927Y0343489D02*
X0146589Y0343489D01*
X0145591Y0342491D02*
X0141011Y0342491D01*
X0140100Y0342491D02*
X0139100Y0342491D01*
X0138189Y0342491D02*
X0136200Y0342491D01*
X0136200Y0343489D02*
X0136273Y0343489D01*
X0136608Y0341492D02*
X0144592Y0341492D01*
X0143594Y0340494D02*
X0137606Y0340494D01*
X0139100Y0343489D02*
X0140100Y0343489D01*
X0140100Y0344488D02*
X0139100Y0344488D01*
X0139100Y0345486D02*
X0140100Y0345486D01*
X0140100Y0346485D02*
X0139100Y0346485D01*
X0136228Y0351477D02*
X0136200Y0351477D01*
X0135824Y0352476D02*
X0138087Y0352476D01*
X0135600Y0353474D02*
X0158400Y0353474D01*
X0154133Y0354473D02*
X0135600Y0354473D01*
X0135600Y0355472D02*
X0152787Y0355472D01*
X0151982Y0356470D02*
X0135600Y0356470D01*
X0135600Y0357469D02*
X0148947Y0357469D01*
X0147241Y0358467D02*
X0135600Y0358467D01*
X0135239Y0359466D02*
X0146287Y0359466D01*
X0145874Y0360464D02*
X0134825Y0360464D01*
X0134023Y0361463D02*
X0145550Y0361463D01*
X0145550Y0362461D02*
X0133800Y0362461D01*
X0126669Y0358467D02*
X0125417Y0358467D01*
X0125650Y0357469D02*
X0127151Y0357469D01*
X0127634Y0356470D02*
X0125650Y0356470D01*
X0125640Y0355472D02*
X0128117Y0355472D01*
X0128600Y0354473D02*
X0125226Y0354473D01*
X0124812Y0353474D02*
X0128813Y0353474D01*
X0129100Y0352476D02*
X0129226Y0352476D01*
X0129100Y0351477D02*
X0129751Y0351477D01*
X0130100Y0350479D02*
X0129100Y0350479D01*
X0129100Y0349480D02*
X0130100Y0349480D01*
X0130100Y0348482D02*
X0129100Y0348482D01*
X0129100Y0347483D02*
X0123654Y0347483D01*
X0124176Y0348482D02*
X0124491Y0348482D01*
X0124590Y0349480D02*
X0124776Y0349480D01*
X0124600Y0350479D02*
X0125337Y0350479D01*
X0124600Y0351477D02*
X0126228Y0351477D01*
X0124600Y0352476D02*
X0128087Y0352476D01*
X0129100Y0346485D02*
X0130100Y0346485D01*
X0130100Y0345486D02*
X0129100Y0345486D01*
X0129100Y0344488D02*
X0130100Y0344488D01*
X0130100Y0343489D02*
X0129100Y0343489D01*
X0129100Y0342491D02*
X0130100Y0342491D01*
X0131011Y0342491D02*
X0131200Y0342491D01*
X0131200Y0341492D02*
X0117663Y0341492D01*
X0118662Y0342491D02*
X0128189Y0342491D01*
X0126273Y0343489D02*
X0119660Y0343489D01*
X0120659Y0344488D02*
X0125361Y0344488D01*
X0124790Y0345486D02*
X0121657Y0345486D01*
X0122656Y0346485D02*
X0124496Y0346485D01*
X0125003Y0359466D02*
X0126186Y0359466D01*
X0125703Y0360464D02*
X0124392Y0360464D01*
X0125220Y0361463D02*
X0123393Y0361463D01*
X0124738Y0362461D02*
X0121501Y0362461D01*
X0121800Y0363460D02*
X0120800Y0363460D01*
X0120800Y0364458D02*
X0121800Y0364458D01*
X0121800Y0365457D02*
X0120800Y0365457D01*
X0120800Y0366455D02*
X0121800Y0366455D01*
X0115250Y0368452D02*
X0092979Y0368452D01*
X0093178Y0369451D02*
X0115250Y0369451D01*
X0115451Y0370449D02*
X0093178Y0370449D01*
X0115000Y0415400D02*
X0121854Y0415400D01*
X0130354Y0423900D01*
X0139054Y0432600D01*
X0139054Y0439800D01*
X0139054Y0441254D01*
X0141100Y0443300D01*
X0148800Y0443300D01*
X0150200Y0442300D01*
X0150200Y0433046D01*
X0145746Y0433246D02*
X0143900Y0431400D01*
X0145746Y0433246D02*
X0145746Y0439800D01*
X0150200Y0426354D02*
X0142646Y0418800D01*
X0141900Y0418900D01*
X0147300Y0417400D02*
X0150785Y0420885D01*
X0153062Y0420885D01*
X0154348Y0421418D01*
X0155333Y0422402D01*
X0155865Y0423689D01*
X0155865Y0425650D01*
X0157805Y0425650D01*
X0157925Y0425700D01*
X0161500Y0425700D01*
X0166100Y0421100D01*
X0166100Y0413600D01*
X0165663Y0413163D01*
X0163643Y0414000D01*
X0161057Y0414000D01*
X0158668Y0413010D01*
X0156840Y0411182D01*
X0155850Y0408793D01*
X0155850Y0406207D01*
X0156840Y0403818D01*
X0157700Y0402958D01*
X0157700Y0402353D01*
X0156954Y0401607D01*
X0155850Y0398942D01*
X0155850Y0396058D01*
X0156954Y0393393D01*
X0157700Y0392647D01*
X0157700Y0392500D01*
X0158400Y0391800D01*
X0158400Y0389250D01*
X0146550Y0389250D01*
X0146550Y0376650D01*
X0145550Y0376650D01*
X0145550Y0388800D01*
X0145600Y0388800D01*
X0147300Y0390500D01*
X0147300Y0391792D01*
X0148550Y0394810D01*
X0148550Y0404990D01*
X0147300Y0408008D01*
X0147300Y0417400D01*
X0147300Y0417379D02*
X0166100Y0417379D01*
X0166100Y0416381D02*
X0147300Y0416381D01*
X0147300Y0415382D02*
X0166100Y0415382D01*
X0166100Y0414384D02*
X0147300Y0414384D01*
X0147300Y0413385D02*
X0159573Y0413385D01*
X0158044Y0412387D02*
X0147300Y0412387D01*
X0147300Y0411388D02*
X0157046Y0411388D01*
X0156511Y0410390D02*
X0147300Y0410390D01*
X0147300Y0409391D02*
X0156098Y0409391D01*
X0155850Y0408393D02*
X0147300Y0408393D01*
X0147554Y0407394D02*
X0155850Y0407394D01*
X0155850Y0406396D02*
X0147968Y0406396D01*
X0148381Y0405397D02*
X0156185Y0405397D01*
X0156599Y0404399D02*
X0148550Y0404399D01*
X0148550Y0403400D02*
X0157258Y0403400D01*
X0157700Y0402402D02*
X0148550Y0402402D01*
X0148550Y0401403D02*
X0156869Y0401403D01*
X0156456Y0400405D02*
X0148550Y0400405D01*
X0148550Y0399406D02*
X0156042Y0399406D01*
X0155850Y0398408D02*
X0148550Y0398408D01*
X0148550Y0397409D02*
X0155850Y0397409D01*
X0155850Y0396410D02*
X0148550Y0396410D01*
X0148550Y0395412D02*
X0156118Y0395412D01*
X0156531Y0394413D02*
X0148386Y0394413D01*
X0147972Y0393415D02*
X0156945Y0393415D01*
X0157784Y0392416D02*
X0147559Y0392416D01*
X0147300Y0391418D02*
X0158400Y0391418D01*
X0158400Y0390419D02*
X0147219Y0390419D01*
X0146221Y0389421D02*
X0158400Y0389421D01*
X0153700Y0384000D02*
X0146050Y0376350D01*
X0146050Y0376150D01*
X0146550Y0375650D02*
X0146550Y0365342D01*
X0146319Y0365111D01*
X0145550Y0363255D01*
X0145550Y0375650D01*
X0146550Y0375650D01*
X0146550Y0375442D02*
X0145550Y0375442D01*
X0145550Y0374443D02*
X0146550Y0374443D01*
X0146550Y0373445D02*
X0145550Y0373445D01*
X0145550Y0372446D02*
X0146550Y0372446D01*
X0146550Y0371448D02*
X0145550Y0371448D01*
X0145550Y0370449D02*
X0146550Y0370449D01*
X0146550Y0369451D02*
X0145550Y0369451D01*
X0145550Y0368452D02*
X0146550Y0368452D01*
X0146550Y0367454D02*
X0145550Y0367454D01*
X0145550Y0366455D02*
X0146550Y0366455D01*
X0146550Y0365457D02*
X0145550Y0365457D01*
X0145550Y0364458D02*
X0146049Y0364458D01*
X0145635Y0363460D02*
X0145550Y0363460D01*
X0145550Y0377439D02*
X0146550Y0377439D01*
X0146550Y0378437D02*
X0145550Y0378437D01*
X0145550Y0379436D02*
X0146550Y0379436D01*
X0146550Y0380434D02*
X0145550Y0380434D01*
X0145550Y0381433D02*
X0146550Y0381433D01*
X0146550Y0382431D02*
X0145550Y0382431D01*
X0145550Y0383430D02*
X0146550Y0383430D01*
X0146550Y0384428D02*
X0145550Y0384428D01*
X0145550Y0385427D02*
X0146550Y0385427D01*
X0146550Y0386425D02*
X0145550Y0386425D01*
X0145550Y0387424D02*
X0146550Y0387424D01*
X0146550Y0388422D02*
X0145550Y0388422D01*
X0165127Y0413385D02*
X0165885Y0413385D01*
X0166100Y0418378D02*
X0148278Y0418378D01*
X0149276Y0419376D02*
X0166100Y0419376D01*
X0166100Y0420375D02*
X0150275Y0420375D01*
X0154240Y0421373D02*
X0165827Y0421373D01*
X0164828Y0422372D02*
X0155302Y0422372D01*
X0155733Y0423370D02*
X0163830Y0423370D01*
X0162831Y0424369D02*
X0155865Y0424369D01*
X0155865Y0425367D02*
X0161833Y0425367D01*
X0181700Y0414700D02*
X0183100Y0416100D01*
X0187600Y0409200D02*
X0187600Y0378900D01*
X0192400Y0372400D02*
X0185300Y0365300D01*
X0185300Y0362900D01*
X0192400Y0372400D02*
X0192400Y0409500D01*
X0198500Y0415600D01*
X0192300Y0413900D02*
X0187600Y0409200D01*
X0205100Y0426900D02*
X0204800Y0431116D01*
X0206055Y0436471D01*
X0210356Y0440044D02*
X0216656Y0440044D01*
X0241000Y0415800D01*
X0241000Y0403500D01*
X0222200Y0421700D02*
X0214400Y0413900D01*
X0222200Y0421700D02*
X0222200Y0429200D01*
X0210356Y0440044D02*
X0215644Y0447144D01*
X0225600Y0447200D01*
X0232500Y0451100D02*
X0246000Y0451100D01*
X0255600Y0441500D01*
X0255600Y0438200D01*
X0229350Y0467400D02*
X0228250Y0467400D01*
X0220850Y0460000D01*
X0212000Y0460000D01*
X0210033Y0461967D01*
X0209494Y0463268D01*
X0208468Y0464294D01*
X0207167Y0464833D01*
X0206800Y0465200D01*
X0206800Y0474150D01*
X0212552Y0479902D01*
X0213768Y0480406D01*
X0213862Y0480500D01*
X0216700Y0480500D01*
X0216700Y0483450D01*
X0229350Y0483450D01*
X0229350Y0467400D01*
X0229350Y0468303D02*
X0206800Y0468303D01*
X0206800Y0467305D02*
X0228155Y0467305D01*
X0227156Y0466306D02*
X0206800Y0466306D01*
X0206800Y0465308D02*
X0226158Y0465308D01*
X0225159Y0464309D02*
X0208432Y0464309D01*
X0209451Y0463311D02*
X0224161Y0463311D01*
X0223162Y0462312D02*
X0209890Y0462312D01*
X0210686Y0461314D02*
X0222164Y0461314D01*
X0221165Y0460315D02*
X0211685Y0460315D01*
X0202500Y0458700D02*
X0200900Y0457100D01*
X0200200Y0457100D01*
X0195700Y0455800D01*
X0188254Y0453500D01*
X0178700Y0455400D01*
X0183100Y0450700D02*
X0183400Y0449000D01*
X0183800Y0445600D01*
X0186204Y0444400D01*
X0187504Y0440800D01*
X0193046Y0440850D02*
X0194946Y0448800D01*
X0188254Y0448800D02*
X0188254Y0453500D01*
X0193046Y0440850D02*
X0194196Y0440800D01*
X0198062Y0439162D02*
X0198062Y0438400D01*
X0199362Y0436471D01*
X0197733Y0435900D01*
X0206800Y0469302D02*
X0229350Y0469302D01*
X0229350Y0470300D02*
X0206800Y0470300D01*
X0206800Y0471299D02*
X0229350Y0471299D01*
X0229350Y0472297D02*
X0206800Y0472297D01*
X0206800Y0473296D02*
X0229350Y0473296D01*
X0229350Y0474294D02*
X0206944Y0474294D01*
X0207943Y0475293D02*
X0229350Y0475293D01*
X0229350Y0476291D02*
X0208941Y0476291D01*
X0209940Y0477290D02*
X0229350Y0477290D01*
X0229350Y0478288D02*
X0210938Y0478288D01*
X0211937Y0479287D02*
X0229350Y0479287D01*
X0229350Y0480285D02*
X0213477Y0480285D01*
X0216700Y0481284D02*
X0229350Y0481284D01*
X0229350Y0482282D02*
X0216700Y0482282D01*
X0216700Y0483281D02*
X0229350Y0483281D01*
X0207600Y0485800D02*
X0205100Y0482900D01*
X0196100Y0482900D01*
X0195500Y0482300D01*
X0195500Y0472300D01*
X0177100Y0479350D02*
X0170448Y0478750D01*
X0166200Y0482998D01*
X0140150Y0494600D02*
X0157000Y0511450D01*
X0140150Y0494600D02*
X0124950Y0494600D01*
X0119550Y0500000D01*
X0119550Y0500100D01*
X0119100Y0463100D02*
X0124600Y0457600D01*
X0139202Y0457600D01*
X0137046Y0423900D02*
X0132400Y0419254D01*
X0131500Y0418500D01*
X0047700Y0336000D02*
X0032200Y0320500D01*
X0021700Y0320500D01*
X0121000Y0210300D02*
X0117500Y0206800D01*
X0117500Y0200300D01*
X0121610Y0195710D02*
X0133976Y0195710D01*
X0134028Y0195382D02*
X0134281Y0194604D01*
X0134653Y0193875D01*
X0135134Y0193212D01*
X0135712Y0192634D01*
X0136375Y0192153D01*
X0137104Y0191781D01*
X0137882Y0191528D01*
X0138600Y0191414D01*
X0138600Y0196100D01*
X0139600Y0196100D01*
X0139600Y0191414D01*
X0140318Y0191528D01*
X0141096Y0191781D01*
X0141825Y0192153D01*
X0142488Y0192634D01*
X0142500Y0192646D01*
X0142500Y0192000D01*
X0143100Y0191400D01*
X0143100Y0185507D01*
X0144013Y0183301D01*
X0144900Y0182415D01*
X0144900Y0181050D01*
X0133150Y0181050D01*
X0133150Y0182855D01*
X0132381Y0184711D01*
X0130961Y0186131D01*
X0129105Y0186900D01*
X0127095Y0186900D01*
X0127031Y0186873D01*
X0126581Y0187961D01*
X0125161Y0189381D01*
X0123305Y0190150D01*
X0121295Y0190150D01*
X0120300Y0189738D01*
X0120300Y0194400D01*
X0124300Y0198400D01*
X0129900Y0198400D01*
X0135500Y0204000D01*
X0140700Y0204000D01*
X0142500Y0202200D01*
X0142500Y0200554D01*
X0142488Y0200566D01*
X0141825Y0201047D01*
X0141096Y0201419D01*
X0140318Y0201672D01*
X0139600Y0201786D01*
X0139600Y0197100D01*
X0138600Y0197100D01*
X0138600Y0201786D01*
X0137882Y0201672D01*
X0137104Y0201419D01*
X0136375Y0201047D01*
X0135712Y0200566D01*
X0135134Y0199988D01*
X0134653Y0199325D01*
X0134281Y0198596D01*
X0134028Y0197818D01*
X0133914Y0197100D01*
X0138600Y0197100D01*
X0138600Y0196100D01*
X0133914Y0196100D01*
X0134028Y0195382D01*
X0134246Y0194711D02*
X0120611Y0194711D01*
X0120300Y0193713D02*
X0134770Y0193713D01*
X0135632Y0192714D02*
X0120300Y0192714D01*
X0120300Y0191716D02*
X0137305Y0191716D01*
X0138600Y0191716D02*
X0139600Y0191716D01*
X0139600Y0192714D02*
X0138600Y0192714D01*
X0138600Y0193713D02*
X0139600Y0193713D01*
X0139600Y0194711D02*
X0138600Y0194711D01*
X0138600Y0195710D02*
X0139600Y0195710D01*
X0138600Y0196708D02*
X0122608Y0196708D01*
X0123607Y0197707D02*
X0134010Y0197707D01*
X0134337Y0198705D02*
X0130205Y0198705D01*
X0131204Y0199704D02*
X0134927Y0199704D01*
X0135900Y0200702D02*
X0132202Y0200702D01*
X0133201Y0201701D02*
X0138064Y0201701D01*
X0138600Y0201701D02*
X0139600Y0201701D01*
X0140136Y0201701D02*
X0142500Y0201701D01*
X0142500Y0200702D02*
X0142300Y0200702D01*
X0142001Y0202699D02*
X0134199Y0202699D01*
X0135198Y0203698D02*
X0141002Y0203698D01*
X0139600Y0200702D02*
X0138600Y0200702D01*
X0138600Y0199704D02*
X0139600Y0199704D01*
X0139600Y0198705D02*
X0138600Y0198705D01*
X0138600Y0197707D02*
X0139600Y0197707D01*
X0140895Y0191716D02*
X0142784Y0191716D01*
X0143100Y0190717D02*
X0120300Y0190717D01*
X0124346Y0189719D02*
X0143100Y0189719D01*
X0143100Y0188720D02*
X0125822Y0188720D01*
X0126680Y0187722D02*
X0143100Y0187722D01*
X0143100Y0186723D02*
X0129532Y0186723D01*
X0131367Y0185725D02*
X0143100Y0185725D01*
X0143423Y0184726D02*
X0132366Y0184726D01*
X0132788Y0183728D02*
X0143837Y0183728D01*
X0144586Y0182729D02*
X0133150Y0182729D01*
X0133150Y0181731D02*
X0144900Y0181731D01*
X0151987Y0185725D02*
X0153245Y0185725D01*
X0153050Y0186197D02*
X0153971Y0183973D01*
X0155673Y0182271D01*
X0157897Y0181350D01*
X0160303Y0181350D01*
X0162527Y0182271D01*
X0164229Y0183973D01*
X0164973Y0185771D01*
X0165173Y0185571D01*
X0166424Y0185053D01*
X0166871Y0183973D01*
X0168573Y0182271D01*
X0170797Y0181350D01*
X0173203Y0181350D01*
X0175427Y0182271D01*
X0177129Y0183973D01*
X0177937Y0185925D01*
X0179232Y0186461D01*
X0190986Y0198214D01*
X0195287Y0193913D01*
X0194069Y0192696D01*
X0193931Y0192363D01*
X0193531Y0192529D01*
X0192782Y0192678D01*
X0192589Y0192678D01*
X0192589Y0188989D01*
X0192211Y0188989D01*
X0192211Y0192678D01*
X0192018Y0192678D01*
X0191269Y0192529D01*
X0190563Y0192237D01*
X0189928Y0191812D01*
X0189388Y0191272D01*
X0188963Y0190637D01*
X0188671Y0189931D01*
X0188522Y0189182D01*
X0188522Y0188989D01*
X0192211Y0188989D01*
X0192211Y0188611D01*
X0188522Y0188611D01*
X0188522Y0188418D01*
X0188671Y0187669D01*
X0188837Y0187269D01*
X0188504Y0187131D01*
X0186569Y0185196D01*
X0185522Y0182668D01*
X0185522Y0179932D01*
X0186509Y0177550D01*
X0185522Y0175168D01*
X0185522Y0172432D01*
X0186569Y0169904D01*
X0188504Y0167969D01*
X0191032Y0166922D01*
X0193768Y0166922D01*
X0196150Y0167909D01*
X0196400Y0167805D01*
X0196400Y0167000D01*
X0198200Y0165200D01*
X0198200Y0157200D01*
X0197631Y0156631D01*
X0185689Y0157244D01*
X0178282Y0164191D01*
X0173692Y0168683D01*
X0172974Y0169401D01*
X0172947Y0169412D01*
X0172925Y0169433D01*
X0171983Y0169811D01*
X0171044Y0170200D01*
X0171015Y0170200D01*
X0170987Y0170211D01*
X0169972Y0170200D01*
X0161779Y0170200D01*
X0159153Y0170904D01*
X0158188Y0172900D01*
X0162147Y0172900D01*
X0162529Y0173002D01*
X0162871Y0173200D01*
X0163150Y0173479D01*
X0163348Y0173821D01*
X0163450Y0174203D01*
X0163450Y0176450D01*
X0157900Y0176450D01*
X0157900Y0177450D01*
X0156900Y0177450D01*
X0156900Y0181000D01*
X0154271Y0181000D01*
X0149900Y0190041D01*
X0149900Y0190595D01*
X0149139Y0192432D01*
X0148600Y0192971D01*
X0148600Y0196100D01*
X0149600Y0196100D01*
X0149600Y0197100D01*
X0148600Y0197100D01*
X0148600Y0201786D01*
X0147882Y0201672D01*
X0147500Y0201548D01*
X0147500Y0202980D01*
X0151400Y0203500D01*
X0161929Y0203500D01*
X0156268Y0197839D01*
X0154861Y0196432D01*
X0154100Y0194595D01*
X0154100Y0190956D01*
X0153971Y0190827D01*
X0153050Y0188603D01*
X0153050Y0186197D01*
X0153050Y0186723D02*
X0151504Y0186723D01*
X0151021Y0187722D02*
X0153050Y0187722D01*
X0153098Y0188720D02*
X0150539Y0188720D01*
X0150056Y0189719D02*
X0153512Y0189719D01*
X0153926Y0190717D02*
X0149849Y0190717D01*
X0149600Y0191414D02*
X0150318Y0191528D01*
X0151096Y0191781D01*
X0151825Y0192153D01*
X0152488Y0192634D01*
X0153066Y0193212D01*
X0153547Y0193875D01*
X0153919Y0194604D01*
X0154172Y0195382D01*
X0154286Y0196100D01*
X0149600Y0196100D01*
X0149600Y0191414D01*
X0149600Y0191716D02*
X0149436Y0191716D01*
X0149600Y0192714D02*
X0148857Y0192714D01*
X0148600Y0193713D02*
X0149600Y0193713D01*
X0149600Y0194711D02*
X0148600Y0194711D01*
X0148600Y0195710D02*
X0149600Y0195710D01*
X0149600Y0196708D02*
X0155137Y0196708D01*
X0154286Y0197100D02*
X0154172Y0197818D01*
X0153919Y0198596D01*
X0153547Y0199325D01*
X0153066Y0199988D01*
X0152488Y0200566D01*
X0151825Y0201047D01*
X0151096Y0201419D01*
X0150318Y0201672D01*
X0149600Y0201786D01*
X0149600Y0197100D01*
X0154286Y0197100D01*
X0154190Y0197707D02*
X0156136Y0197707D01*
X0157134Y0198705D02*
X0153863Y0198705D01*
X0153273Y0199704D02*
X0158133Y0199704D01*
X0159131Y0200702D02*
X0152300Y0200702D01*
X0150136Y0201701D02*
X0160130Y0201701D01*
X0161128Y0202699D02*
X0147500Y0202699D01*
X0147500Y0201701D02*
X0148064Y0201701D01*
X0148600Y0201701D02*
X0149600Y0201701D01*
X0149600Y0200702D02*
X0148600Y0200702D01*
X0148600Y0199704D02*
X0149600Y0199704D01*
X0149600Y0198705D02*
X0148600Y0198705D01*
X0148600Y0197707D02*
X0149600Y0197707D01*
X0154224Y0195710D02*
X0154562Y0195710D01*
X0154148Y0194711D02*
X0153954Y0194711D01*
X0154100Y0193713D02*
X0153430Y0193713D01*
X0154100Y0192714D02*
X0152568Y0192714D01*
X0154100Y0191716D02*
X0150895Y0191716D01*
X0152470Y0184726D02*
X0153659Y0184726D01*
X0154216Y0183728D02*
X0152953Y0183728D01*
X0153435Y0182729D02*
X0155215Y0182729D01*
X0153918Y0181731D02*
X0156978Y0181731D01*
X0156900Y0180732D02*
X0157900Y0180732D01*
X0157900Y0181000D02*
X0157900Y0177450D01*
X0163450Y0177450D01*
X0163450Y0179697D01*
X0163348Y0180079D01*
X0163150Y0180421D01*
X0162871Y0180700D01*
X0162529Y0180898D01*
X0162147Y0181000D01*
X0157900Y0181000D01*
X0157900Y0179734D02*
X0156900Y0179734D01*
X0156900Y0178735D02*
X0157900Y0178735D01*
X0157900Y0177737D02*
X0156900Y0177737D01*
X0157900Y0176738D02*
X0186172Y0176738D01*
X0186431Y0177737D02*
X0163450Y0177737D01*
X0163450Y0178735D02*
X0186018Y0178735D01*
X0185604Y0179734D02*
X0163440Y0179734D01*
X0162816Y0180732D02*
X0185522Y0180732D01*
X0185522Y0181731D02*
X0174122Y0181731D01*
X0175885Y0182729D02*
X0185547Y0182729D01*
X0185961Y0183728D02*
X0176884Y0183728D01*
X0177441Y0184726D02*
X0186374Y0184726D01*
X0187098Y0185725D02*
X0177854Y0185725D01*
X0179494Y0186723D02*
X0188096Y0186723D01*
X0188661Y0187722D02*
X0180493Y0187722D01*
X0181491Y0188720D02*
X0192211Y0188720D01*
X0192211Y0189719D02*
X0192589Y0189719D01*
X0192589Y0190717D02*
X0192211Y0190717D01*
X0192211Y0191716D02*
X0192589Y0191716D01*
X0194087Y0192714D02*
X0185485Y0192714D01*
X0184487Y0191716D02*
X0189831Y0191716D01*
X0189017Y0190717D02*
X0183488Y0190717D01*
X0182490Y0189719D02*
X0188629Y0189719D01*
X0186484Y0193713D02*
X0195086Y0193713D01*
X0194489Y0194711D02*
X0187482Y0194711D01*
X0188481Y0195710D02*
X0193490Y0195710D01*
X0192492Y0196708D02*
X0189479Y0196708D01*
X0190478Y0197707D02*
X0191493Y0197707D01*
X0180300Y0203400D02*
X0180300Y0205800D01*
X0173000Y0213100D01*
X0170200Y0218200D01*
X0153400Y0229300D01*
X0149100Y0229300D01*
X0158700Y0218200D02*
X0170200Y0218200D01*
X0158700Y0218200D02*
X0153700Y0210300D01*
X0121000Y0210300D01*
X0133150Y0180845D02*
X0133150Y0168450D01*
X0132150Y0168450D01*
X0132150Y0178758D01*
X0132381Y0178989D01*
X0133150Y0180845D01*
X0133150Y0180732D02*
X0133103Y0180732D01*
X0133150Y0179734D02*
X0132689Y0179734D01*
X0133150Y0178735D02*
X0132150Y0178735D01*
X0132150Y0177737D02*
X0133150Y0177737D01*
X0133150Y0176738D02*
X0132150Y0176738D01*
X0132150Y0175739D02*
X0133150Y0175739D01*
X0133150Y0174741D02*
X0132150Y0174741D01*
X0132150Y0173742D02*
X0133150Y0173742D01*
X0133150Y0172744D02*
X0132150Y0172744D01*
X0132150Y0171745D02*
X0133150Y0171745D01*
X0133150Y0170747D02*
X0132150Y0170747D01*
X0132150Y0169748D02*
X0133150Y0169748D01*
X0133150Y0168750D02*
X0132150Y0168750D01*
X0132650Y0167950D02*
X0132650Y0167750D01*
X0125000Y0160100D01*
X0120300Y0154850D02*
X0132150Y0154850D01*
X0132150Y0167450D01*
X0133150Y0167450D01*
X0133150Y0155300D01*
X0133100Y0155300D01*
X0131400Y0153600D01*
X0131400Y0152308D01*
X0130150Y0149290D01*
X0130150Y0139110D01*
X0131400Y0136092D01*
X0131400Y0126700D01*
X0127915Y0123215D01*
X0125638Y0123215D01*
X0124352Y0122682D01*
X0123367Y0121698D01*
X0122835Y0120411D01*
X0122835Y0118450D01*
X0120895Y0118450D01*
X0120775Y0118400D01*
X0117200Y0118400D01*
X0112600Y0123000D01*
X0112600Y0130500D01*
X0113037Y0130937D01*
X0115057Y0130100D01*
X0117643Y0130100D01*
X0120032Y0131090D01*
X0121860Y0132918D01*
X0122850Y0135307D01*
X0122850Y0137893D01*
X0121860Y0140282D01*
X0121000Y0141142D01*
X0121000Y0141747D01*
X0121746Y0142493D01*
X0122850Y0145158D01*
X0122850Y0148042D01*
X0121746Y0150707D01*
X0121000Y0151453D01*
X0121000Y0151600D01*
X0120300Y0152300D01*
X0120300Y0154850D01*
X0120300Y0154771D02*
X0132571Y0154771D01*
X0132150Y0155769D02*
X0133150Y0155769D01*
X0133150Y0156768D02*
X0132150Y0156768D01*
X0132150Y0157766D02*
X0133150Y0157766D01*
X0133150Y0158765D02*
X0132150Y0158765D01*
X0132150Y0159763D02*
X0133150Y0159763D01*
X0133150Y0160762D02*
X0132150Y0160762D01*
X0132150Y0161760D02*
X0133150Y0161760D01*
X0133150Y0162759D02*
X0132150Y0162759D01*
X0132150Y0163757D02*
X0133150Y0163757D01*
X0133150Y0164756D02*
X0132150Y0164756D01*
X0132150Y0165754D02*
X0133150Y0165754D01*
X0133150Y0166753D02*
X0132150Y0166753D01*
X0131572Y0153772D02*
X0120300Y0153772D01*
X0120300Y0152774D02*
X0131400Y0152774D01*
X0131179Y0151775D02*
X0120825Y0151775D01*
X0121676Y0150777D02*
X0130766Y0150777D01*
X0130352Y0149778D02*
X0122131Y0149778D01*
X0122544Y0148780D02*
X0130150Y0148780D01*
X0130150Y0147781D02*
X0122850Y0147781D01*
X0122850Y0146783D02*
X0130150Y0146783D01*
X0130150Y0145784D02*
X0122850Y0145784D01*
X0122696Y0144786D02*
X0130150Y0144786D01*
X0130150Y0143787D02*
X0122282Y0143787D01*
X0121869Y0142789D02*
X0130150Y0142789D01*
X0130150Y0141790D02*
X0121043Y0141790D01*
X0121351Y0140792D02*
X0130150Y0140792D01*
X0130150Y0139793D02*
X0122063Y0139793D01*
X0122477Y0138795D02*
X0130281Y0138795D01*
X0130694Y0137796D02*
X0122850Y0137796D01*
X0122850Y0136798D02*
X0131108Y0136798D01*
X0131400Y0135799D02*
X0122850Y0135799D01*
X0122640Y0134801D02*
X0131400Y0134801D01*
X0131400Y0133802D02*
X0122227Y0133802D01*
X0121746Y0132803D02*
X0131400Y0132803D01*
X0131400Y0131805D02*
X0120747Y0131805D01*
X0119348Y0130806D02*
X0131400Y0130806D01*
X0131400Y0129808D02*
X0112600Y0129808D01*
X0112600Y0128809D02*
X0131400Y0128809D01*
X0131400Y0127811D02*
X0112600Y0127811D01*
X0112600Y0126812D02*
X0131400Y0126812D01*
X0130514Y0125814D02*
X0112600Y0125814D01*
X0112600Y0124815D02*
X0129515Y0124815D01*
X0128517Y0123817D02*
X0112600Y0123817D01*
X0112782Y0122818D02*
X0124681Y0122818D01*
X0123490Y0121820D02*
X0113780Y0121820D01*
X0114779Y0120821D02*
X0123005Y0120821D01*
X0122835Y0119823D02*
X0115777Y0119823D01*
X0116776Y0118824D02*
X0122835Y0118824D01*
X0128500Y0117746D02*
X0136054Y0125300D01*
X0136800Y0125200D01*
X0141654Y0120200D02*
X0146300Y0124846D01*
X0147200Y0125600D01*
X0148346Y0120200D02*
X0139646Y0111500D01*
X0139646Y0104300D01*
X0139646Y0102846D01*
X0137600Y0100800D01*
X0129900Y0100800D01*
X0128500Y0101800D01*
X0128500Y0111054D01*
X0132954Y0110854D02*
X0134800Y0112700D01*
X0132954Y0110854D02*
X0132954Y0104300D01*
X0139498Y0086500D02*
X0154100Y0086500D01*
X0159600Y0081000D01*
X0153750Y0049500D02*
X0138550Y0049500D01*
X0121700Y0032650D01*
X0112500Y0061102D02*
X0108252Y0065350D01*
X0101600Y0064750D01*
X0083200Y0061800D02*
X0083200Y0071800D01*
X0083200Y0061800D02*
X0082600Y0061200D01*
X0073600Y0061200D01*
X0071100Y0058300D01*
X0066148Y0064198D02*
X0064932Y0063694D01*
X0064838Y0063600D01*
X0062000Y0063600D01*
X0062000Y0060650D01*
X0049350Y0060650D01*
X0049350Y0076700D01*
X0050450Y0076700D01*
X0057850Y0084100D01*
X0066700Y0084100D01*
X0068667Y0082133D01*
X0069206Y0080832D01*
X0070232Y0079806D01*
X0071533Y0079267D01*
X0071900Y0078900D01*
X0071900Y0069950D01*
X0066148Y0064198D01*
X0065444Y0063906D02*
X0049350Y0063906D01*
X0049350Y0062908D02*
X0062000Y0062908D01*
X0062000Y0061909D02*
X0049350Y0061909D01*
X0049350Y0060911D02*
X0062000Y0060911D01*
X0066855Y0064905D02*
X0049350Y0064905D01*
X0049350Y0065903D02*
X0067853Y0065903D01*
X0068852Y0066902D02*
X0049350Y0066902D01*
X0049350Y0067900D02*
X0069850Y0067900D01*
X0070849Y0068899D02*
X0049350Y0068899D01*
X0049350Y0069897D02*
X0071847Y0069897D01*
X0071900Y0070896D02*
X0049350Y0070896D01*
X0049350Y0071894D02*
X0071900Y0071894D01*
X0071900Y0072893D02*
X0049350Y0072893D01*
X0049350Y0073891D02*
X0071900Y0073891D01*
X0071900Y0074890D02*
X0049350Y0074890D01*
X0049350Y0075888D02*
X0071900Y0075888D01*
X0071900Y0076887D02*
X0050637Y0076887D01*
X0051635Y0077885D02*
X0071900Y0077885D01*
X0071900Y0078884D02*
X0052634Y0078884D01*
X0053632Y0079882D02*
X0070156Y0079882D01*
X0069186Y0080881D02*
X0054631Y0080881D01*
X0055629Y0081879D02*
X0068772Y0081879D01*
X0067922Y0082878D02*
X0056628Y0082878D01*
X0057626Y0083876D02*
X0066924Y0083876D01*
X0076200Y0085400D02*
X0077800Y0087000D01*
X0078500Y0087000D01*
X0083000Y0088300D01*
X0090446Y0090600D01*
X0100000Y0088700D01*
X0095600Y0093400D02*
X0095300Y0095100D01*
X0094900Y0098500D01*
X0092496Y0099700D01*
X0091196Y0103300D01*
X0085654Y0103250D02*
X0083754Y0095300D01*
X0090446Y0095300D02*
X0090446Y0090600D01*
X0085654Y0103250D02*
X0084504Y0103300D01*
X0080638Y0104938D02*
X0080638Y0105700D01*
X0079338Y0107629D01*
X0080967Y0108200D01*
X0072645Y0107629D02*
X0073900Y0112984D01*
X0073600Y0117200D01*
X0080200Y0128500D02*
X0086300Y0134600D01*
X0086300Y0171700D01*
X0093400Y0178800D01*
X0093400Y0181200D01*
X0091100Y0165200D02*
X0091100Y0134900D01*
X0086400Y0130200D01*
X0095600Y0128000D02*
X0097000Y0129400D01*
X0112906Y0130806D02*
X0113352Y0130806D01*
X0148346Y0120200D02*
X0156846Y0128700D01*
X0163700Y0128700D01*
X0185133Y0157766D02*
X0198200Y0157766D01*
X0198200Y0158765D02*
X0184068Y0158765D01*
X0183003Y0159763D02*
X0198200Y0159763D01*
X0198200Y0160762D02*
X0181939Y0160762D01*
X0180874Y0161760D02*
X0198200Y0161760D01*
X0198200Y0162759D02*
X0179809Y0162759D01*
X0178745Y0163757D02*
X0198200Y0163757D01*
X0198200Y0164756D02*
X0177705Y0164756D01*
X0176685Y0165754D02*
X0197646Y0165754D01*
X0196647Y0166753D02*
X0175664Y0166753D01*
X0174644Y0167751D02*
X0189030Y0167751D01*
X0187723Y0168750D02*
X0173625Y0168750D01*
X0172139Y0169748D02*
X0186725Y0169748D01*
X0186220Y0170747D02*
X0159738Y0170747D01*
X0158746Y0171745D02*
X0185806Y0171745D01*
X0185522Y0172744D02*
X0158263Y0172744D01*
X0163302Y0173742D02*
X0185522Y0173742D01*
X0185522Y0174741D02*
X0163450Y0174741D01*
X0163450Y0175739D02*
X0185759Y0175739D01*
X0195770Y0167751D02*
X0196400Y0167751D01*
X0197768Y0156768D02*
X0194969Y0156768D01*
X0169878Y0181731D02*
X0161222Y0181731D01*
X0162985Y0182729D02*
X0168115Y0182729D01*
X0167116Y0183728D02*
X0163984Y0183728D01*
X0164541Y0184726D02*
X0166559Y0184726D01*
X0165019Y0185725D02*
X0164954Y0185725D01*
X0159100Y0187400D02*
X0159100Y0193600D01*
X0165300Y0199800D01*
X0176700Y0199800D01*
X0180300Y0203400D01*
X0177300Y0194600D02*
X0166800Y0194600D01*
X0168600Y0190700D02*
X0176400Y0190700D01*
X0202400Y0216700D01*
X0202400Y0221700D01*
X0197600Y0224600D02*
X0202200Y0229200D01*
X0202400Y0229200D01*
X0197600Y0224600D02*
X0197600Y0214900D01*
X0177300Y0194600D01*
X0231000Y0208100D02*
X0246500Y0223600D01*
X0257000Y0223600D01*
X0340250Y0309650D02*
X0340250Y0325700D01*
X0341350Y0325700D01*
X0348750Y0333100D01*
X0357600Y0333100D01*
X0359567Y0331133D01*
X0360106Y0329832D01*
X0361132Y0328806D01*
X0362433Y0328267D01*
X0362800Y0327900D01*
X0362800Y0318950D01*
X0357048Y0313198D01*
X0355832Y0312694D01*
X0355738Y0312600D01*
X0352900Y0312600D01*
X0352900Y0309650D01*
X0340250Y0309650D01*
X0340250Y0310539D02*
X0352900Y0310539D01*
X0352900Y0311537D02*
X0340250Y0311537D01*
X0340250Y0312536D02*
X0352900Y0312536D01*
X0357384Y0313534D02*
X0340250Y0313534D01*
X0340250Y0314533D02*
X0358383Y0314533D01*
X0359381Y0315531D02*
X0340250Y0315531D01*
X0340250Y0316530D02*
X0360380Y0316530D01*
X0361378Y0317528D02*
X0340250Y0317528D01*
X0340250Y0318527D02*
X0362377Y0318527D01*
X0362800Y0319525D02*
X0340250Y0319525D01*
X0340250Y0320524D02*
X0362800Y0320524D01*
X0362800Y0321522D02*
X0340250Y0321522D01*
X0340250Y0322521D02*
X0362800Y0322521D01*
X0362800Y0323519D02*
X0340250Y0323519D01*
X0340250Y0324518D02*
X0362800Y0324518D01*
X0362800Y0325516D02*
X0340250Y0325516D01*
X0342165Y0326515D02*
X0362800Y0326515D01*
X0362800Y0327513D02*
X0343163Y0327513D01*
X0344162Y0328512D02*
X0361842Y0328512D01*
X0360428Y0329510D02*
X0345160Y0329510D01*
X0346159Y0330509D02*
X0359826Y0330509D01*
X0359193Y0331507D02*
X0347157Y0331507D01*
X0348156Y0332506D02*
X0358194Y0332506D01*
X0367100Y0334400D02*
X0368700Y0336000D01*
X0369400Y0336000D01*
X0373900Y0337300D01*
X0381346Y0339600D01*
X0390900Y0337700D01*
X0386500Y0342400D02*
X0386200Y0344100D01*
X0385800Y0347500D01*
X0383396Y0348700D01*
X0382096Y0352300D01*
X0376554Y0352250D02*
X0374654Y0344300D01*
X0381346Y0344300D02*
X0381346Y0339600D01*
X0376554Y0352250D02*
X0375404Y0352300D01*
X0371538Y0353938D02*
X0371538Y0354700D01*
X0370238Y0356629D01*
X0371867Y0357200D01*
X0363545Y0356629D02*
X0364800Y0361984D01*
X0364500Y0366200D01*
X0371100Y0377500D02*
X0377200Y0383600D01*
X0377200Y0420700D01*
X0384300Y0427800D01*
X0384300Y0430200D01*
X0382000Y0414200D02*
X0382000Y0383900D01*
X0377300Y0379200D01*
X0386500Y0377000D02*
X0387900Y0378400D01*
X0403500Y0378437D02*
X0422300Y0378437D01*
X0422300Y0377439D02*
X0403500Y0377439D01*
X0403500Y0376440D02*
X0422300Y0376440D01*
X0422300Y0375700D02*
X0418815Y0372215D01*
X0416538Y0372215D01*
X0415252Y0371682D01*
X0414267Y0370698D01*
X0413735Y0369411D01*
X0413735Y0367450D01*
X0411795Y0367450D01*
X0411675Y0367400D01*
X0408100Y0367400D01*
X0403500Y0372000D01*
X0403500Y0379500D01*
X0403937Y0379937D01*
X0405957Y0379100D01*
X0408543Y0379100D01*
X0410932Y0380090D01*
X0412760Y0381918D01*
X0413750Y0384307D01*
X0413750Y0386893D01*
X0412760Y0389282D01*
X0411900Y0390142D01*
X0411900Y0390747D01*
X0412646Y0391493D01*
X0413750Y0394158D01*
X0413750Y0397042D01*
X0412646Y0399707D01*
X0411900Y0400453D01*
X0411900Y0400600D01*
X0411200Y0401300D01*
X0411200Y0403850D01*
X0423050Y0403850D01*
X0423050Y0416450D01*
X0424050Y0416450D01*
X0424050Y0404300D01*
X0424000Y0404300D01*
X0422300Y0402600D01*
X0422300Y0401308D01*
X0421050Y0398290D01*
X0421050Y0388110D01*
X0422300Y0385092D01*
X0422300Y0375700D01*
X0422042Y0375442D02*
X0403500Y0375442D01*
X0403500Y0374443D02*
X0421043Y0374443D01*
X0420045Y0373445D02*
X0403500Y0373445D01*
X0403500Y0372446D02*
X0419046Y0372446D01*
X0415018Y0371448D02*
X0404052Y0371448D01*
X0405051Y0370449D02*
X0414165Y0370449D01*
X0413751Y0369451D02*
X0406049Y0369451D01*
X0407048Y0368452D02*
X0413735Y0368452D01*
X0413735Y0367454D02*
X0408046Y0367454D01*
X0419400Y0366746D02*
X0426954Y0374300D01*
X0427700Y0374200D01*
X0432554Y0369200D02*
X0437200Y0373846D01*
X0438100Y0374600D01*
X0439246Y0369200D02*
X0430546Y0360500D01*
X0430546Y0353300D01*
X0430546Y0351846D01*
X0428500Y0349800D01*
X0420800Y0349800D01*
X0419400Y0350800D01*
X0419400Y0360054D01*
X0423854Y0359854D02*
X0423854Y0353300D01*
X0423854Y0359854D02*
X0425700Y0361700D01*
X0439246Y0369200D02*
X0447746Y0377700D01*
X0454600Y0377700D01*
X0424050Y0404399D02*
X0423050Y0404399D01*
X0423050Y0405397D02*
X0424050Y0405397D01*
X0424050Y0406396D02*
X0423050Y0406396D01*
X0423050Y0407394D02*
X0424050Y0407394D01*
X0424050Y0408393D02*
X0423050Y0408393D01*
X0423050Y0409391D02*
X0424050Y0409391D01*
X0424050Y0410390D02*
X0423050Y0410390D01*
X0423050Y0411388D02*
X0424050Y0411388D01*
X0424050Y0412387D02*
X0423050Y0412387D01*
X0423050Y0413385D02*
X0424050Y0413385D01*
X0424050Y0414384D02*
X0423050Y0414384D01*
X0423050Y0415382D02*
X0424050Y0415382D01*
X0424050Y0416381D02*
X0423050Y0416381D01*
X0423550Y0416750D02*
X0423550Y0416950D01*
X0423550Y0416750D02*
X0415900Y0409100D01*
X0411200Y0403400D02*
X0423100Y0403400D01*
X0422300Y0402402D02*
X0411200Y0402402D01*
X0411200Y0401403D02*
X0422300Y0401403D01*
X0421926Y0400405D02*
X0411949Y0400405D01*
X0412771Y0399406D02*
X0421512Y0399406D01*
X0421099Y0398408D02*
X0413184Y0398408D01*
X0413598Y0397409D02*
X0421050Y0397409D01*
X0421050Y0396410D02*
X0413750Y0396410D01*
X0413750Y0395412D02*
X0421050Y0395412D01*
X0421050Y0394413D02*
X0413750Y0394413D01*
X0413442Y0393415D02*
X0421050Y0393415D01*
X0421050Y0392416D02*
X0413029Y0392416D01*
X0412571Y0391418D02*
X0421050Y0391418D01*
X0421050Y0390419D02*
X0411900Y0390419D01*
X0412621Y0389421D02*
X0421050Y0389421D01*
X0421050Y0388422D02*
X0413116Y0388422D01*
X0413530Y0387424D02*
X0421334Y0387424D01*
X0421748Y0386425D02*
X0413750Y0386425D01*
X0413750Y0385427D02*
X0422161Y0385427D01*
X0422300Y0384428D02*
X0413750Y0384428D01*
X0413387Y0383430D02*
X0422300Y0383430D01*
X0422300Y0382431D02*
X0412973Y0382431D01*
X0412275Y0381433D02*
X0422300Y0381433D01*
X0422300Y0380434D02*
X0411277Y0380434D01*
X0409354Y0379436D02*
X0422300Y0379436D01*
X0405146Y0379436D02*
X0403500Y0379436D01*
X0423050Y0417450D02*
X0423050Y0427758D01*
X0423281Y0427989D01*
X0424050Y0429845D01*
X0424050Y0417450D01*
X0423050Y0417450D01*
X0423050Y0418378D02*
X0424050Y0418378D01*
X0424050Y0419376D02*
X0423050Y0419376D01*
X0423050Y0420375D02*
X0424050Y0420375D01*
X0424050Y0421373D02*
X0423050Y0421373D01*
X0423050Y0422372D02*
X0424050Y0422372D01*
X0424050Y0423370D02*
X0423050Y0423370D01*
X0423050Y0424369D02*
X0424050Y0424369D01*
X0424050Y0425367D02*
X0423050Y0425367D01*
X0423050Y0426366D02*
X0424050Y0426366D01*
X0424050Y0427364D02*
X0423050Y0427364D01*
X0423436Y0428363D02*
X0424050Y0428363D01*
X0424050Y0429361D02*
X0423849Y0429361D01*
X0424050Y0430050D02*
X0424050Y0431855D01*
X0423281Y0433711D01*
X0421861Y0435131D01*
X0420005Y0435900D01*
X0417995Y0435900D01*
X0417931Y0435873D01*
X0417481Y0436961D01*
X0416061Y0438381D01*
X0414205Y0439150D01*
X0412195Y0439150D01*
X0411200Y0438738D01*
X0411200Y0443400D01*
X0415200Y0447400D01*
X0420800Y0447400D01*
X0426400Y0453000D01*
X0431600Y0453000D01*
X0433400Y0451200D01*
X0433400Y0449554D01*
X0433388Y0449566D01*
X0432725Y0450047D01*
X0431996Y0450419D01*
X0431218Y0450672D01*
X0430500Y0450786D01*
X0430500Y0446100D01*
X0429500Y0446100D01*
X0429500Y0450786D01*
X0428782Y0450672D01*
X0428004Y0450419D01*
X0427275Y0450047D01*
X0426612Y0449566D01*
X0426034Y0448988D01*
X0425553Y0448325D01*
X0425181Y0447596D01*
X0424928Y0446818D01*
X0424814Y0446100D01*
X0429500Y0446100D01*
X0429500Y0445100D01*
X0430500Y0445100D01*
X0430500Y0440414D01*
X0431218Y0440528D01*
X0431996Y0440781D01*
X0432725Y0441153D01*
X0433388Y0441634D01*
X0433400Y0441646D01*
X0433400Y0441000D01*
X0434000Y0440400D01*
X0434000Y0434507D01*
X0434913Y0432301D01*
X0435800Y0431415D01*
X0435800Y0430050D01*
X0424050Y0430050D01*
X0424050Y0430360D02*
X0435800Y0430360D01*
X0435800Y0431358D02*
X0424050Y0431358D01*
X0423842Y0432357D02*
X0434890Y0432357D01*
X0434477Y0433355D02*
X0423428Y0433355D01*
X0422638Y0434354D02*
X0434063Y0434354D01*
X0434000Y0435352D02*
X0421326Y0435352D01*
X0417734Y0436351D02*
X0434000Y0436351D01*
X0434000Y0437349D02*
X0417092Y0437349D01*
X0416094Y0438348D02*
X0434000Y0438348D01*
X0434000Y0439346D02*
X0411200Y0439346D01*
X0411200Y0440345D02*
X0434000Y0440345D01*
X0433400Y0441343D02*
X0432988Y0441343D01*
X0430500Y0441343D02*
X0429500Y0441343D01*
X0429500Y0440414D02*
X0429500Y0445100D01*
X0424814Y0445100D01*
X0424928Y0444382D01*
X0425181Y0443604D01*
X0425553Y0442875D01*
X0426034Y0442212D01*
X0426612Y0441634D01*
X0427275Y0441153D01*
X0428004Y0440781D01*
X0428782Y0440528D01*
X0429500Y0440414D01*
X0429500Y0442342D02*
X0430500Y0442342D01*
X0430500Y0443341D02*
X0429500Y0443341D01*
X0429500Y0444339D02*
X0430500Y0444339D01*
X0429500Y0445338D02*
X0413138Y0445338D01*
X0414136Y0446336D02*
X0424852Y0446336D01*
X0425096Y0447335D02*
X0415135Y0447335D01*
X0412139Y0444339D02*
X0424942Y0444339D01*
X0425315Y0443341D02*
X0411200Y0443341D01*
X0411200Y0442342D02*
X0425940Y0442342D01*
X0427012Y0441343D02*
X0411200Y0441343D01*
X0408400Y0449300D02*
X0408400Y0455800D01*
X0411900Y0459300D01*
X0444600Y0459300D01*
X0449600Y0467200D01*
X0461100Y0467200D01*
X0444300Y0478300D01*
X0440000Y0478300D01*
X0461100Y0467200D02*
X0463900Y0462100D01*
X0471200Y0454800D01*
X0471200Y0452400D01*
X0467600Y0448800D01*
X0456200Y0448800D01*
X0450000Y0442600D01*
X0450000Y0436400D01*
X0443950Y0436351D02*
X0442101Y0436351D01*
X0442583Y0435352D02*
X0443950Y0435352D01*
X0443950Y0435197D02*
X0444871Y0432973D01*
X0446573Y0431271D01*
X0448797Y0430350D01*
X0451203Y0430350D01*
X0453427Y0431271D01*
X0455129Y0432973D01*
X0455873Y0434770D01*
X0456073Y0434571D01*
X0457324Y0434053D01*
X0457771Y0432973D01*
X0459473Y0431271D01*
X0461697Y0430350D01*
X0464103Y0430350D01*
X0466327Y0431271D01*
X0468029Y0432973D01*
X0468837Y0434925D01*
X0470132Y0435461D01*
X0471539Y0436868D01*
X0481886Y0447214D01*
X0486187Y0442913D01*
X0484969Y0441696D01*
X0484831Y0441363D01*
X0484431Y0441529D01*
X0483682Y0441678D01*
X0483489Y0441678D01*
X0483489Y0437989D01*
X0483111Y0437989D01*
X0483111Y0441678D01*
X0482918Y0441678D01*
X0482169Y0441529D01*
X0481463Y0441237D01*
X0480828Y0440812D01*
X0480288Y0440272D01*
X0479863Y0439637D01*
X0479571Y0438931D01*
X0479422Y0438182D01*
X0479422Y0437989D01*
X0483111Y0437989D01*
X0483111Y0437611D01*
X0479422Y0437611D01*
X0479422Y0437418D01*
X0479571Y0436669D01*
X0479737Y0436269D01*
X0479404Y0436131D01*
X0477469Y0434196D01*
X0476422Y0431668D01*
X0476422Y0428932D01*
X0477409Y0426550D01*
X0476422Y0424168D01*
X0476422Y0421432D01*
X0477469Y0418904D01*
X0479404Y0416969D01*
X0481932Y0415922D01*
X0484668Y0415922D01*
X0487050Y0416909D01*
X0487300Y0416805D01*
X0487300Y0416000D01*
X0489100Y0414200D01*
X0489100Y0406200D01*
X0488531Y0405631D01*
X0476589Y0406244D01*
X0469182Y0413191D01*
X0464592Y0417683D01*
X0463874Y0418401D01*
X0463847Y0418412D01*
X0463825Y0418433D01*
X0462883Y0418811D01*
X0461944Y0419200D01*
X0461915Y0419200D01*
X0461887Y0419211D01*
X0460872Y0419200D01*
X0452679Y0419200D01*
X0450053Y0419904D01*
X0449088Y0421900D01*
X0453047Y0421900D01*
X0453429Y0422002D01*
X0453771Y0422200D01*
X0454050Y0422479D01*
X0454248Y0422821D01*
X0454350Y0423203D01*
X0454350Y0425450D01*
X0448800Y0425450D01*
X0448800Y0426450D01*
X0447800Y0426450D01*
X0447800Y0430000D01*
X0445171Y0430000D01*
X0440800Y0439041D01*
X0440800Y0439595D01*
X0440039Y0441432D01*
X0439500Y0441971D01*
X0439500Y0445100D01*
X0440500Y0445100D01*
X0440500Y0446100D01*
X0439500Y0446100D01*
X0439500Y0450786D01*
X0438782Y0450672D01*
X0438400Y0450548D01*
X0438400Y0451980D01*
X0442300Y0452500D01*
X0452829Y0452500D01*
X0447168Y0446839D01*
X0445761Y0445432D01*
X0445000Y0443595D01*
X0445000Y0439956D01*
X0444871Y0439827D01*
X0443950Y0437603D01*
X0443950Y0435197D01*
X0444299Y0434354D02*
X0443066Y0434354D01*
X0443549Y0433355D02*
X0444713Y0433355D01*
X0444032Y0432357D02*
X0445487Y0432357D01*
X0444515Y0431358D02*
X0446486Y0431358D01*
X0444997Y0430360D02*
X0448773Y0430360D01*
X0448800Y0430000D02*
X0448800Y0426450D01*
X0454350Y0426450D01*
X0454350Y0428697D01*
X0454248Y0429079D01*
X0454050Y0429421D01*
X0453771Y0429700D01*
X0453429Y0429898D01*
X0453047Y0430000D01*
X0448800Y0430000D01*
X0448800Y0429361D02*
X0447800Y0429361D01*
X0447800Y0428363D02*
X0448800Y0428363D01*
X0448800Y0427364D02*
X0447800Y0427364D01*
X0448800Y0426366D02*
X0477332Y0426366D01*
X0477071Y0427364D02*
X0454350Y0427364D01*
X0454350Y0428363D02*
X0476658Y0428363D01*
X0476422Y0429361D02*
X0454085Y0429361D01*
X0453514Y0431358D02*
X0459386Y0431358D01*
X0458387Y0432357D02*
X0454513Y0432357D01*
X0455287Y0433355D02*
X0457613Y0433355D01*
X0456597Y0434354D02*
X0455701Y0434354D01*
X0451227Y0430360D02*
X0461673Y0430360D01*
X0464127Y0430360D02*
X0476422Y0430360D01*
X0476422Y0431358D02*
X0466414Y0431358D01*
X0467413Y0432357D02*
X0476707Y0432357D01*
X0477121Y0433355D02*
X0468187Y0433355D01*
X0468601Y0434354D02*
X0477627Y0434354D01*
X0478626Y0435352D02*
X0469870Y0435352D01*
X0471022Y0436351D02*
X0479703Y0436351D01*
X0479436Y0437349D02*
X0472020Y0437349D01*
X0471539Y0436868D02*
X0471539Y0436868D01*
X0473019Y0438348D02*
X0479455Y0438348D01*
X0479743Y0439346D02*
X0474018Y0439346D01*
X0475016Y0440345D02*
X0480361Y0440345D01*
X0481721Y0441343D02*
X0476015Y0441343D01*
X0477013Y0442342D02*
X0485615Y0442342D01*
X0485759Y0443341D02*
X0478012Y0443341D01*
X0479010Y0444339D02*
X0484761Y0444339D01*
X0483762Y0445338D02*
X0480009Y0445338D01*
X0481007Y0446336D02*
X0482764Y0446336D01*
X0483111Y0441343D02*
X0483489Y0441343D01*
X0483489Y0440345D02*
X0483111Y0440345D01*
X0483111Y0439346D02*
X0483489Y0439346D01*
X0483489Y0438348D02*
X0483111Y0438348D01*
X0476919Y0425367D02*
X0454350Y0425367D01*
X0454350Y0424369D02*
X0476505Y0424369D01*
X0476422Y0423370D02*
X0454350Y0423370D01*
X0453943Y0422372D02*
X0476422Y0422372D01*
X0476446Y0421373D02*
X0449342Y0421373D01*
X0449825Y0420375D02*
X0476860Y0420375D01*
X0477274Y0419376D02*
X0452021Y0419376D01*
X0463897Y0418378D02*
X0477995Y0418378D01*
X0478994Y0417379D02*
X0464902Y0417379D01*
X0465923Y0416381D02*
X0480825Y0416381D01*
X0485775Y0416381D02*
X0487300Y0416381D01*
X0487918Y0415382D02*
X0466943Y0415382D01*
X0467963Y0414384D02*
X0488916Y0414384D01*
X0489100Y0413385D02*
X0468984Y0413385D01*
X0470040Y0412387D02*
X0489100Y0412387D01*
X0489100Y0411388D02*
X0471105Y0411388D01*
X0472169Y0410390D02*
X0489100Y0410390D01*
X0489100Y0409391D02*
X0473234Y0409391D01*
X0474299Y0408393D02*
X0489100Y0408393D01*
X0489100Y0407394D02*
X0475363Y0407394D01*
X0476428Y0406396D02*
X0489100Y0406396D01*
X0467300Y0439700D02*
X0459500Y0439700D01*
X0457700Y0443600D02*
X0468200Y0443600D01*
X0488500Y0463900D01*
X0488500Y0473600D01*
X0493100Y0478200D01*
X0493300Y0478200D01*
X0493300Y0470700D02*
X0493300Y0465700D01*
X0467300Y0439700D01*
X0452656Y0452327D02*
X0441003Y0452327D01*
X0440500Y0450786D02*
X0440500Y0446100D01*
X0445186Y0446100D01*
X0445072Y0446818D01*
X0444819Y0447596D01*
X0444447Y0448325D01*
X0443966Y0448988D01*
X0443388Y0449566D01*
X0442725Y0450047D01*
X0441996Y0450419D01*
X0441218Y0450672D01*
X0440500Y0450786D01*
X0440500Y0450330D02*
X0439500Y0450330D01*
X0439500Y0449332D02*
X0440500Y0449332D01*
X0440500Y0448333D02*
X0439500Y0448333D01*
X0439500Y0447335D02*
X0440500Y0447335D01*
X0440500Y0446336D02*
X0439500Y0446336D01*
X0440500Y0445338D02*
X0445722Y0445338D01*
X0445186Y0445100D02*
X0440500Y0445100D01*
X0440500Y0440414D01*
X0441218Y0440528D01*
X0441996Y0440781D01*
X0442725Y0441153D01*
X0443388Y0441634D01*
X0443966Y0442212D01*
X0444447Y0442875D01*
X0444819Y0443604D01*
X0445072Y0444382D01*
X0445186Y0445100D01*
X0445308Y0444339D02*
X0445058Y0444339D01*
X0445000Y0443341D02*
X0444685Y0443341D01*
X0445000Y0442342D02*
X0444060Y0442342D01*
X0445000Y0441343D02*
X0442988Y0441343D01*
X0445000Y0440345D02*
X0440489Y0440345D01*
X0440500Y0441343D02*
X0440076Y0441343D01*
X0440500Y0442342D02*
X0439500Y0442342D01*
X0439500Y0443341D02*
X0440500Y0443341D01*
X0440500Y0444339D02*
X0439500Y0444339D01*
X0440800Y0439346D02*
X0444672Y0439346D01*
X0444258Y0438348D02*
X0441135Y0438348D01*
X0441618Y0437349D02*
X0443950Y0437349D01*
X0445148Y0446336D02*
X0446665Y0446336D01*
X0447663Y0447335D02*
X0444904Y0447335D01*
X0444442Y0448333D02*
X0448662Y0448333D01*
X0449661Y0449332D02*
X0443622Y0449332D01*
X0442171Y0450330D02*
X0450659Y0450330D01*
X0451658Y0451329D02*
X0438400Y0451329D01*
X0433400Y0450330D02*
X0432171Y0450330D01*
X0433271Y0451329D02*
X0424729Y0451329D01*
X0425727Y0452327D02*
X0432273Y0452327D01*
X0430500Y0450330D02*
X0429500Y0450330D01*
X0429500Y0449332D02*
X0430500Y0449332D01*
X0430500Y0448333D02*
X0429500Y0448333D01*
X0429500Y0447335D02*
X0430500Y0447335D01*
X0430500Y0446336D02*
X0429500Y0446336D01*
X0426378Y0449332D02*
X0422732Y0449332D01*
X0423730Y0450330D02*
X0427829Y0450330D01*
X0425558Y0448333D02*
X0421733Y0448333D01*
X0355200Y0379200D02*
X0347400Y0371400D01*
X0347400Y0363900D01*
X0352944Y0353056D02*
X0359244Y0353056D01*
X0353956Y0345956D01*
X0344000Y0345900D01*
X0352944Y0353056D02*
X0328600Y0377300D01*
X0328600Y0389600D01*
X0314000Y0354900D02*
X0314000Y0351600D01*
X0323600Y0342000D01*
X0337100Y0342000D01*
X0364500Y0310200D02*
X0373500Y0310200D01*
X0374100Y0310800D01*
X0374100Y0320800D01*
X0364500Y0310200D02*
X0362000Y0307300D01*
X0392500Y0313750D02*
X0399152Y0314350D01*
X0403400Y0310102D01*
X0429450Y0298500D02*
X0412600Y0281650D01*
X0429450Y0298500D02*
X0444650Y0298500D01*
X0450050Y0293100D01*
X0450050Y0293000D01*
X0450500Y0330000D02*
X0445000Y0335500D01*
X0430398Y0335500D01*
X0437700Y0242450D02*
X0420850Y0225600D01*
X0405650Y0225600D01*
X0400250Y0231000D01*
X0400250Y0231100D01*
X0399800Y0194100D02*
X0405300Y0188600D01*
X0419902Y0188600D01*
X0421800Y0174300D02*
X0419754Y0172254D01*
X0419754Y0170800D01*
X0419754Y0163600D01*
X0411054Y0154900D01*
X0402554Y0146400D01*
X0395700Y0146400D01*
X0412200Y0149500D02*
X0413100Y0150254D01*
X0417746Y0154900D01*
X0422600Y0149900D02*
X0423346Y0149800D01*
X0430900Y0157354D01*
X0431485Y0151885D02*
X0428000Y0148400D01*
X0428000Y0139008D01*
X0429250Y0135990D01*
X0429250Y0125810D01*
X0428000Y0122792D01*
X0428000Y0121500D01*
X0426300Y0119800D01*
X0426250Y0119800D01*
X0426250Y0107650D01*
X0427250Y0107650D01*
X0427250Y0120250D01*
X0439100Y0120250D01*
X0439100Y0122800D01*
X0438400Y0123500D01*
X0438400Y0123647D01*
X0437654Y0124393D01*
X0436550Y0127058D01*
X0436550Y0129942D01*
X0437654Y0132607D01*
X0438400Y0133353D01*
X0438400Y0133958D01*
X0437540Y0134818D01*
X0436550Y0137207D01*
X0436550Y0139793D01*
X0437540Y0142182D01*
X0439368Y0144010D01*
X0441757Y0145000D01*
X0444343Y0145000D01*
X0446363Y0144163D01*
X0446800Y0144600D01*
X0446800Y0152100D01*
X0442200Y0156700D01*
X0438625Y0156700D01*
X0438505Y0156650D01*
X0436565Y0156650D01*
X0436565Y0154689D01*
X0436033Y0153402D01*
X0435048Y0152418D01*
X0433762Y0151885D01*
X0431485Y0151885D01*
X0431375Y0151775D02*
X0446800Y0151775D01*
X0446800Y0150777D02*
X0430377Y0150777D01*
X0429378Y0149778D02*
X0446800Y0149778D01*
X0446800Y0148780D02*
X0428380Y0148780D01*
X0428000Y0147781D02*
X0446800Y0147781D01*
X0446800Y0146783D02*
X0428000Y0146783D01*
X0428000Y0145784D02*
X0446800Y0145784D01*
X0446800Y0144786D02*
X0444860Y0144786D01*
X0441240Y0144786D02*
X0428000Y0144786D01*
X0428000Y0143787D02*
X0439145Y0143787D01*
X0438146Y0142789D02*
X0428000Y0142789D01*
X0428000Y0141790D02*
X0437377Y0141790D01*
X0436964Y0140792D02*
X0428000Y0140792D01*
X0428000Y0139793D02*
X0436550Y0139793D01*
X0436550Y0138795D02*
X0428088Y0138795D01*
X0428502Y0137796D02*
X0436550Y0137796D01*
X0436720Y0136798D02*
X0428916Y0136798D01*
X0429250Y0135799D02*
X0437133Y0135799D01*
X0437557Y0134801D02*
X0429250Y0134801D01*
X0429250Y0133802D02*
X0438400Y0133802D01*
X0437850Y0132803D02*
X0429250Y0132803D01*
X0429250Y0131805D02*
X0437322Y0131805D01*
X0436908Y0130806D02*
X0429250Y0130806D01*
X0429250Y0129808D02*
X0436550Y0129808D01*
X0436550Y0128809D02*
X0429250Y0128809D01*
X0429250Y0127811D02*
X0436550Y0127811D01*
X0436652Y0126812D02*
X0429250Y0126812D01*
X0429250Y0125814D02*
X0437065Y0125814D01*
X0437479Y0124815D02*
X0428838Y0124815D01*
X0428424Y0123817D02*
X0438230Y0123817D01*
X0439082Y0122818D02*
X0428011Y0122818D01*
X0428000Y0121820D02*
X0439100Y0121820D01*
X0439100Y0120821D02*
X0427321Y0120821D01*
X0427250Y0119823D02*
X0426323Y0119823D01*
X0426250Y0118824D02*
X0427250Y0118824D01*
X0427250Y0117826D02*
X0426250Y0117826D01*
X0426250Y0116827D02*
X0427250Y0116827D01*
X0427250Y0115829D02*
X0426250Y0115829D01*
X0426250Y0114830D02*
X0427250Y0114830D01*
X0427250Y0113832D02*
X0426250Y0113832D01*
X0426250Y0112833D02*
X0427250Y0112833D01*
X0427250Y0111835D02*
X0426250Y0111835D01*
X0426250Y0110836D02*
X0427250Y0110836D01*
X0427250Y0109838D02*
X0426250Y0109838D01*
X0426250Y0108839D02*
X0427250Y0108839D01*
X0427250Y0107841D02*
X0426250Y0107841D01*
X0426750Y0107350D02*
X0426750Y0107150D01*
X0426750Y0107350D02*
X0434400Y0115000D01*
X0427250Y0106650D02*
X0427250Y0096342D01*
X0427019Y0096111D01*
X0426250Y0094255D01*
X0426250Y0106650D01*
X0427250Y0106650D01*
X0427250Y0105844D02*
X0426250Y0105844D01*
X0426250Y0104845D02*
X0427250Y0104845D01*
X0427250Y0103847D02*
X0426250Y0103847D01*
X0426250Y0102848D02*
X0427250Y0102848D01*
X0427250Y0101850D02*
X0426250Y0101850D01*
X0426250Y0100851D02*
X0427250Y0100851D01*
X0427250Y0099853D02*
X0426250Y0099853D01*
X0426250Y0098854D02*
X0427250Y0098854D01*
X0427250Y0097856D02*
X0426250Y0097856D01*
X0426250Y0096857D02*
X0427250Y0096857D01*
X0426914Y0095859D02*
X0426250Y0095859D01*
X0426250Y0094860D02*
X0426501Y0094860D01*
X0426250Y0094050D02*
X0426250Y0092245D01*
X0427019Y0090389D01*
X0428439Y0088969D01*
X0430295Y0088200D01*
X0432305Y0088200D01*
X0432369Y0088227D01*
X0432819Y0087139D01*
X0434239Y0085719D01*
X0436095Y0084950D01*
X0438105Y0084950D01*
X0439100Y0085362D01*
X0439100Y0080700D01*
X0435100Y0076700D01*
X0429500Y0076700D01*
X0423900Y0071100D01*
X0418700Y0071100D01*
X0416900Y0072900D01*
X0416900Y0074546D01*
X0416912Y0074534D01*
X0417575Y0074053D01*
X0418304Y0073681D01*
X0419082Y0073428D01*
X0419800Y0073314D01*
X0419800Y0078000D01*
X0420800Y0078000D01*
X0420800Y0079000D01*
X0425486Y0079000D01*
X0425372Y0079718D01*
X0425119Y0080496D01*
X0424747Y0081225D01*
X0424266Y0081888D01*
X0423688Y0082466D01*
X0423025Y0082947D01*
X0422296Y0083319D01*
X0421518Y0083572D01*
X0420800Y0083686D01*
X0420800Y0079000D01*
X0419800Y0079000D01*
X0419800Y0083686D01*
X0419082Y0083572D01*
X0418304Y0083319D01*
X0417575Y0082947D01*
X0416912Y0082466D01*
X0416900Y0082454D01*
X0416900Y0083100D01*
X0416300Y0083700D01*
X0416300Y0089593D01*
X0415387Y0091799D01*
X0414500Y0092685D01*
X0414500Y0094050D01*
X0426250Y0094050D01*
X0426250Y0093862D02*
X0414500Y0093862D01*
X0414500Y0092863D02*
X0426250Y0092863D01*
X0426408Y0091865D02*
X0415321Y0091865D01*
X0415773Y0090866D02*
X0426821Y0090866D01*
X0427541Y0089868D02*
X0416186Y0089868D01*
X0416300Y0088869D02*
X0428680Y0088869D01*
X0432516Y0087870D02*
X0416300Y0087870D01*
X0416300Y0086872D02*
X0433086Y0086872D01*
X0434085Y0085873D02*
X0416300Y0085873D01*
X0416300Y0084875D02*
X0439100Y0084875D01*
X0439100Y0083876D02*
X0416300Y0083876D01*
X0416900Y0082878D02*
X0417479Y0082878D01*
X0419800Y0082878D02*
X0420800Y0082878D01*
X0420800Y0081879D02*
X0419800Y0081879D01*
X0419800Y0080881D02*
X0420800Y0080881D01*
X0420800Y0079882D02*
X0419800Y0079882D01*
X0420800Y0078884D02*
X0437284Y0078884D01*
X0438282Y0079882D02*
X0425318Y0079882D01*
X0424923Y0080881D02*
X0439100Y0080881D01*
X0439100Y0081879D02*
X0424272Y0081879D01*
X0423121Y0082878D02*
X0439100Y0082878D01*
X0436285Y0077885D02*
X0425467Y0077885D01*
X0425486Y0078000D02*
X0420800Y0078000D01*
X0420800Y0073314D01*
X0421518Y0073428D01*
X0422296Y0073681D01*
X0423025Y0074053D01*
X0423688Y0074534D01*
X0424266Y0075112D01*
X0424747Y0075775D01*
X0425119Y0076504D01*
X0425372Y0077282D01*
X0425486Y0078000D01*
X0425243Y0076887D02*
X0435287Y0076887D01*
X0441900Y0074800D02*
X0441900Y0068300D01*
X0438400Y0064800D01*
X0405700Y0064800D01*
X0400700Y0056900D01*
X0389200Y0056900D01*
X0406000Y0045800D01*
X0410300Y0045800D01*
X0389200Y0056900D02*
X0386400Y0062000D01*
X0379100Y0069300D01*
X0379100Y0071700D01*
X0382700Y0075300D01*
X0394100Y0075300D01*
X0400300Y0081500D01*
X0400300Y0087700D01*
X0394649Y0089868D02*
X0393410Y0089868D01*
X0392976Y0090047D02*
X0392529Y0091127D01*
X0390827Y0092829D01*
X0388603Y0093750D01*
X0386197Y0093750D01*
X0383973Y0092829D01*
X0382271Y0091127D01*
X0381463Y0089175D01*
X0380168Y0088639D01*
X0368414Y0076886D01*
X0364113Y0081187D01*
X0365331Y0082404D01*
X0365469Y0082737D01*
X0365869Y0082571D01*
X0366618Y0082422D01*
X0366811Y0082422D01*
X0366811Y0086111D01*
X0367189Y0086111D01*
X0367189Y0086489D01*
X0370878Y0086489D01*
X0370878Y0086682D01*
X0370729Y0087431D01*
X0370563Y0087831D01*
X0370896Y0087969D01*
X0372831Y0089904D01*
X0373878Y0092432D01*
X0373878Y0095168D01*
X0372891Y0097550D01*
X0373878Y0099932D01*
X0373878Y0102668D01*
X0372831Y0105196D01*
X0370896Y0107131D01*
X0368368Y0108178D01*
X0365632Y0108178D01*
X0363250Y0107191D01*
X0363000Y0107295D01*
X0363000Y0108100D01*
X0361200Y0109900D01*
X0361200Y0117900D01*
X0361769Y0118469D01*
X0373711Y0117856D01*
X0381118Y0110909D01*
X0385708Y0106417D01*
X0386426Y0105699D01*
X0386453Y0105688D01*
X0386475Y0105667D01*
X0387417Y0105289D01*
X0388356Y0104900D01*
X0388385Y0104900D01*
X0388413Y0104889D01*
X0389428Y0104900D01*
X0397621Y0104900D01*
X0400247Y0104196D01*
X0401212Y0102200D01*
X0397253Y0102200D01*
X0396871Y0102098D01*
X0396529Y0101900D01*
X0396250Y0101621D01*
X0396052Y0101279D01*
X0395950Y0100897D01*
X0395950Y0098650D01*
X0401500Y0098650D01*
X0401500Y0097650D01*
X0402500Y0097650D01*
X0402500Y0094100D01*
X0405129Y0094100D01*
X0409500Y0085059D01*
X0409500Y0084505D01*
X0410261Y0082668D01*
X0410800Y0082129D01*
X0410800Y0079000D01*
X0409800Y0079000D01*
X0409800Y0083686D01*
X0409082Y0083572D01*
X0408304Y0083319D01*
X0407575Y0082947D01*
X0406912Y0082466D01*
X0406334Y0081888D01*
X0405853Y0081225D01*
X0405481Y0080496D01*
X0405228Y0079718D01*
X0405114Y0079000D01*
X0409800Y0079000D01*
X0409800Y0078000D01*
X0410800Y0078000D01*
X0410800Y0073314D01*
X0411518Y0073428D01*
X0411900Y0073552D01*
X0411900Y0072120D01*
X0408000Y0071600D01*
X0397471Y0071600D01*
X0403132Y0077261D01*
X0404539Y0078668D01*
X0405300Y0080505D01*
X0405300Y0084144D01*
X0405429Y0084273D01*
X0406350Y0086497D01*
X0406350Y0088903D01*
X0405429Y0091127D01*
X0403727Y0092829D01*
X0401503Y0093750D01*
X0399097Y0093750D01*
X0396873Y0092829D01*
X0395171Y0091127D01*
X0394426Y0089329D01*
X0394227Y0089529D01*
X0392976Y0090047D01*
X0392637Y0090866D02*
X0395063Y0090866D01*
X0395909Y0091865D02*
X0391791Y0091865D01*
X0390745Y0092863D02*
X0396955Y0092863D01*
X0397253Y0094100D02*
X0401500Y0094100D01*
X0401500Y0097650D01*
X0395950Y0097650D01*
X0395950Y0095403D01*
X0396052Y0095021D01*
X0396250Y0094679D01*
X0396529Y0094400D01*
X0396871Y0094202D01*
X0397253Y0094100D01*
X0396145Y0094860D02*
X0373878Y0094860D01*
X0373878Y0093862D02*
X0405244Y0093862D01*
X0405727Y0092863D02*
X0403645Y0092863D01*
X0404691Y0091865D02*
X0406209Y0091865D01*
X0406692Y0090866D02*
X0405537Y0090866D01*
X0405951Y0089868D02*
X0407175Y0089868D01*
X0407658Y0088869D02*
X0406350Y0088869D01*
X0406350Y0087870D02*
X0408141Y0087870D01*
X0408623Y0086872D02*
X0406350Y0086872D01*
X0406092Y0085873D02*
X0409106Y0085873D01*
X0409500Y0084875D02*
X0405678Y0084875D01*
X0405300Y0083876D02*
X0409761Y0083876D01*
X0409800Y0082878D02*
X0410174Y0082878D01*
X0409800Y0081879D02*
X0410800Y0081879D01*
X0410800Y0080881D02*
X0409800Y0080881D01*
X0409800Y0079882D02*
X0410800Y0079882D01*
X0409800Y0078884D02*
X0404628Y0078884D01*
X0405114Y0078000D02*
X0405228Y0077282D01*
X0405481Y0076504D01*
X0405853Y0075775D01*
X0406334Y0075112D01*
X0406912Y0074534D01*
X0407575Y0074053D01*
X0408304Y0073681D01*
X0409082Y0073428D01*
X0409800Y0073314D01*
X0409800Y0078000D01*
X0405114Y0078000D01*
X0405133Y0077885D02*
X0403756Y0077885D01*
X0402758Y0076887D02*
X0405357Y0076887D01*
X0405795Y0075888D02*
X0401759Y0075888D01*
X0400761Y0074890D02*
X0406556Y0074890D01*
X0407891Y0073891D02*
X0399762Y0073891D01*
X0398764Y0072893D02*
X0411900Y0072893D01*
X0410800Y0073891D02*
X0409800Y0073891D01*
X0409800Y0074890D02*
X0410800Y0074890D01*
X0410800Y0075888D02*
X0409800Y0075888D01*
X0409800Y0076887D02*
X0410800Y0076887D01*
X0410800Y0077885D02*
X0409800Y0077885D01*
X0405282Y0079882D02*
X0405042Y0079882D01*
X0405300Y0080881D02*
X0405677Y0080881D01*
X0405300Y0081879D02*
X0406328Y0081879D01*
X0405300Y0082878D02*
X0407479Y0082878D01*
X0416900Y0073891D02*
X0417891Y0073891D01*
X0416907Y0072893D02*
X0425693Y0072893D01*
X0426691Y0073891D02*
X0422709Y0073891D01*
X0424044Y0074890D02*
X0427690Y0074890D01*
X0428688Y0075888D02*
X0424805Y0075888D01*
X0424694Y0071894D02*
X0417906Y0071894D01*
X0419800Y0073891D02*
X0420800Y0073891D01*
X0420800Y0074890D02*
X0419800Y0074890D01*
X0419800Y0075888D02*
X0420800Y0075888D01*
X0420800Y0076887D02*
X0419800Y0076887D01*
X0419800Y0077885D02*
X0420800Y0077885D01*
X0410207Y0071894D02*
X0397765Y0071894D01*
X0392600Y0080500D02*
X0382100Y0080500D01*
X0361800Y0060200D01*
X0361800Y0050500D01*
X0357200Y0045900D01*
X0357000Y0045900D01*
X0357000Y0053400D02*
X0357000Y0058400D01*
X0383000Y0084400D01*
X0390800Y0084400D01*
X0384055Y0092863D02*
X0373878Y0092863D01*
X0373643Y0091865D02*
X0383009Y0091865D01*
X0382163Y0090866D02*
X0373229Y0090866D01*
X0372794Y0089868D02*
X0381749Y0089868D01*
X0380724Y0088869D02*
X0371796Y0088869D01*
X0370658Y0087870D02*
X0379399Y0087870D01*
X0378401Y0086872D02*
X0370840Y0086872D01*
X0370878Y0086111D02*
X0367189Y0086111D01*
X0367189Y0082422D01*
X0367382Y0082422D01*
X0368131Y0082571D01*
X0368837Y0082863D01*
X0369472Y0083288D01*
X0370012Y0083828D01*
X0370437Y0084463D01*
X0370729Y0085169D01*
X0370878Y0085918D01*
X0370878Y0086111D01*
X0370869Y0085873D02*
X0377402Y0085873D01*
X0376404Y0084875D02*
X0370607Y0084875D01*
X0370045Y0083876D02*
X0375405Y0083876D01*
X0374407Y0082878D02*
X0368859Y0082878D01*
X0367189Y0082878D02*
X0366811Y0082878D01*
X0366811Y0083876D02*
X0367189Y0083876D01*
X0367189Y0084875D02*
X0366811Y0084875D01*
X0366811Y0085873D02*
X0367189Y0085873D01*
X0364806Y0081879D02*
X0373408Y0081879D01*
X0372410Y0080881D02*
X0364419Y0080881D01*
X0365418Y0079882D02*
X0371411Y0079882D01*
X0370413Y0078884D02*
X0366416Y0078884D01*
X0367415Y0077885D02*
X0369414Y0077885D01*
X0368416Y0076887D02*
X0368413Y0076887D01*
X0373592Y0095859D02*
X0395950Y0095859D01*
X0395950Y0096857D02*
X0373178Y0096857D01*
X0373018Y0097856D02*
X0401500Y0097856D01*
X0401500Y0096857D02*
X0402500Y0096857D01*
X0402500Y0095859D02*
X0401500Y0095859D01*
X0401500Y0094860D02*
X0402500Y0094860D01*
X0395950Y0098854D02*
X0373431Y0098854D01*
X0373845Y0099853D02*
X0395950Y0099853D01*
X0395950Y0100851D02*
X0373878Y0100851D01*
X0373878Y0101850D02*
X0396478Y0101850D01*
X0397826Y0104845D02*
X0372976Y0104845D01*
X0373390Y0103847D02*
X0400416Y0103847D01*
X0400899Y0102848D02*
X0373803Y0102848D01*
X0372183Y0105844D02*
X0386282Y0105844D01*
X0385274Y0106842D02*
X0371185Y0106842D01*
X0369182Y0107841D02*
X0384253Y0107841D01*
X0383233Y0108839D02*
X0362261Y0108839D01*
X0363000Y0107841D02*
X0364818Y0107841D01*
X0361262Y0109838D02*
X0382212Y0109838D01*
X0381192Y0110836D02*
X0361200Y0110836D01*
X0361200Y0111835D02*
X0380131Y0111835D01*
X0379066Y0112833D02*
X0361200Y0112833D01*
X0361200Y0113832D02*
X0378001Y0113832D01*
X0376937Y0114830D02*
X0361200Y0114830D01*
X0361200Y0115829D02*
X0375872Y0115829D01*
X0374807Y0116827D02*
X0361200Y0116827D01*
X0361200Y0117826D02*
X0373742Y0117826D01*
X0424600Y0162400D02*
X0426446Y0164246D01*
X0426446Y0170800D01*
X0429500Y0174300D02*
X0421800Y0174300D01*
X0429500Y0174300D02*
X0430900Y0173300D01*
X0430900Y0164046D01*
X0436565Y0155769D02*
X0443131Y0155769D01*
X0444129Y0154771D02*
X0436565Y0154771D01*
X0436186Y0153772D02*
X0445128Y0153772D01*
X0446126Y0152774D02*
X0435404Y0152774D01*
X0462400Y0145700D02*
X0463800Y0147100D01*
X0468300Y0140200D02*
X0468300Y0109900D01*
X0473100Y0103400D02*
X0466000Y0096300D01*
X0466000Y0093900D01*
X0473100Y0103400D02*
X0473100Y0140500D01*
X0479200Y0146600D01*
X0473000Y0144900D02*
X0468300Y0140200D01*
X0485800Y0157900D02*
X0485500Y0162116D01*
X0486755Y0167471D01*
X0491056Y0171044D02*
X0497356Y0171044D01*
X0521700Y0146800D01*
X0521700Y0134500D01*
X0502900Y0152700D02*
X0495100Y0144900D01*
X0502900Y0152700D02*
X0502900Y0160200D01*
X0491056Y0171044D02*
X0496344Y0178144D01*
X0506300Y0178200D01*
X0513200Y0182100D02*
X0526700Y0182100D01*
X0536300Y0172500D01*
X0536300Y0169200D01*
X0510050Y0198400D02*
X0508950Y0198400D01*
X0501550Y0191000D01*
X0492700Y0191000D01*
X0490733Y0192967D01*
X0490194Y0194268D01*
X0489168Y0195294D01*
X0487867Y0195833D01*
X0487500Y0196200D01*
X0487500Y0205150D01*
X0493252Y0210902D01*
X0494468Y0211406D01*
X0494562Y0211500D01*
X0497400Y0211500D01*
X0497400Y0214450D01*
X0510050Y0214450D01*
X0510050Y0198400D01*
X0510050Y0198705D02*
X0487500Y0198705D01*
X0487500Y0197707D02*
X0508257Y0197707D01*
X0507258Y0196708D02*
X0487500Y0196708D01*
X0488165Y0195710D02*
X0506260Y0195710D01*
X0505261Y0194711D02*
X0489751Y0194711D01*
X0490424Y0193713D02*
X0504263Y0193713D01*
X0503264Y0192714D02*
X0490986Y0192714D01*
X0491984Y0191716D02*
X0502266Y0191716D01*
X0510050Y0199704D02*
X0487500Y0199704D01*
X0487500Y0200702D02*
X0510050Y0200702D01*
X0510050Y0201701D02*
X0487500Y0201701D01*
X0487500Y0202699D02*
X0510050Y0202699D01*
X0510050Y0203698D02*
X0487500Y0203698D01*
X0487500Y0204696D02*
X0510050Y0204696D01*
X0510050Y0205695D02*
X0488045Y0205695D01*
X0489043Y0206693D02*
X0510050Y0206693D01*
X0510050Y0207692D02*
X0490042Y0207692D01*
X0491040Y0208690D02*
X0510050Y0208690D01*
X0510050Y0209689D02*
X0492039Y0209689D01*
X0493037Y0210687D02*
X0510050Y0210687D01*
X0510050Y0211686D02*
X0497400Y0211686D01*
X0497400Y0212684D02*
X0510050Y0212684D01*
X0510050Y0213683D02*
X0497400Y0213683D01*
X0488300Y0216800D02*
X0485800Y0213900D01*
X0476800Y0213900D01*
X0476200Y0213300D01*
X0476200Y0203300D01*
X0483200Y0189700D02*
X0481600Y0188100D01*
X0480900Y0188100D01*
X0476400Y0186800D01*
X0468954Y0184500D01*
X0459400Y0186400D01*
X0463800Y0181700D02*
X0464100Y0180000D01*
X0464500Y0176600D01*
X0466904Y0175400D01*
X0468204Y0171800D01*
X0473746Y0171850D02*
X0475646Y0179800D01*
X0468954Y0179800D02*
X0468954Y0184500D01*
X0473746Y0171850D02*
X0474896Y0171800D01*
X0478762Y0170162D02*
X0478762Y0169400D01*
X0480062Y0167471D01*
X0478433Y0166900D01*
X0457800Y0210350D02*
X0451148Y0209750D01*
X0446900Y0213998D01*
X0328400Y0067000D02*
X0312900Y0051500D01*
X0302400Y0051500D01*
X0159150Y0044100D02*
X0153750Y0049500D01*
X0159150Y0044100D02*
X0159150Y0044000D01*
X0068344Y0104056D02*
X0063056Y0096956D01*
X0053100Y0096900D01*
X0046200Y0093000D02*
X0032700Y0093000D01*
X0023100Y0102600D01*
X0023100Y0105900D01*
X0037700Y0128300D02*
X0062044Y0104056D01*
X0068344Y0104056D01*
X0056500Y0114900D02*
X0056500Y0122400D01*
X0064300Y0130200D01*
X0037700Y0128300D02*
X0037700Y0140600D01*
X0521900Y0457100D02*
X0537400Y0472600D01*
X0547900Y0472600D01*
D27*
X0480250Y0409950D02*
X0462600Y0425800D01*
X0462600Y0425950D01*
X0448300Y0425950D01*
X0448300Y0407950D02*
X0449750Y0406500D01*
X0449750Y0387600D01*
X0189350Y0160950D02*
X0171700Y0176800D01*
X0171700Y0176950D01*
X0157400Y0176950D01*
X0157400Y0158950D02*
X0158850Y0157500D01*
X0158850Y0138600D01*
X0370050Y0114150D02*
X0387700Y0098300D01*
X0387700Y0098150D01*
X0402000Y0098150D01*
X0402000Y0116150D02*
X0400550Y0117600D01*
X0400550Y0136500D01*
X0121300Y0367150D02*
X0107000Y0367150D01*
X0107000Y0367300D01*
X0089350Y0383150D01*
X0119850Y0386600D02*
X0119850Y0405500D01*
X0119850Y0386600D02*
X0121300Y0385150D01*
D28*
X0164800Y0391800D03*
X0165000Y0404000D03*
X0176900Y0435200D03*
X0180900Y0441800D03*
X0183100Y0450700D03*
X0178700Y0455400D03*
X0199200Y0461100D03*
X0204700Y0445400D03*
X0240200Y0474300D03*
X0240200Y0483500D03*
X0227400Y0492400D03*
X0230500Y0499100D03*
X0210900Y0496000D03*
X0183300Y0489900D03*
X0107900Y0340900D03*
X0103600Y0340300D03*
X0170800Y0203200D03*
X0175100Y0203800D03*
X0113900Y0152300D03*
X0113700Y0140100D03*
X0101800Y0108900D03*
X0097800Y0102300D03*
X0095600Y0093400D03*
X0100000Y0088700D03*
X0079500Y0083000D03*
X0074000Y0098700D03*
X0038500Y0069800D03*
X0038500Y0060600D03*
X0051300Y0051700D03*
X0048200Y0045000D03*
X0067800Y0048100D03*
X0095400Y0054200D03*
X0339100Y0294000D03*
X0342200Y0300700D03*
X0329400Y0309600D03*
X0329400Y0318800D03*
X0358700Y0297100D03*
X0386300Y0303200D03*
X0370400Y0332000D03*
X0364900Y0347700D03*
X0386500Y0342400D03*
X0390900Y0337700D03*
X0388700Y0351300D03*
X0392700Y0357900D03*
X0404600Y0389100D03*
X0404800Y0401300D03*
X0461700Y0452200D03*
X0466000Y0452800D03*
X0511200Y0230100D03*
X0508100Y0223400D03*
X0520900Y0214500D03*
X0520900Y0205300D03*
X0491600Y0227000D03*
X0464000Y0220900D03*
X0479900Y0192100D03*
X0463800Y0181700D03*
X0459400Y0186400D03*
X0461600Y0172800D03*
X0457600Y0166200D03*
X0485400Y0176400D03*
X0445700Y0135000D03*
X0445500Y0122800D03*
X0388600Y0071900D03*
X0384300Y0071300D03*
D29*
X0416000Y0093900D02*
X0416000Y0097800D01*
X0416000Y0093900D02*
X0418100Y0091800D01*
X0422600Y0093800D02*
X0422600Y0089600D01*
X0423700Y0088300D02*
X0426400Y0091000D01*
X0426400Y0097600D01*
X0422600Y0093800D01*
X0463800Y0147100D02*
X0468600Y0147100D01*
X0466800Y0146900D02*
X0472600Y0152700D01*
X0472600Y0163600D01*
X0476600Y0167600D01*
X0480062Y0167471D01*
X0478762Y0169400D02*
X0476096Y0169400D01*
X0474896Y0171800D01*
X0478762Y0170162D02*
X0481500Y0172900D01*
X0481500Y0179000D02*
X0486937Y0185883D01*
X0490000Y0186900D01*
X0512650Y0186900D01*
X0513750Y0187500D01*
X0516350Y0190100D01*
X0525950Y0190100D01*
X0520895Y0197695D02*
X0518250Y0195050D01*
X0520895Y0197695D02*
X0520700Y0216200D01*
X0524595Y0220095D01*
X0524595Y0230200D01*
X0499005Y0230200D01*
X0499855Y0236155D02*
X0495000Y0236100D01*
X0491600Y0232700D01*
X0491600Y0227000D01*
X0499005Y0221145D02*
X0479955Y0221145D01*
X0468000Y0233100D01*
X0464000Y0220900D02*
X0464000Y0209600D01*
X0454100Y0199300D01*
X0451000Y0194350D01*
X0450950Y0194300D01*
X0499005Y0221145D02*
X0505845Y0221145D01*
X0508100Y0223400D01*
X0499855Y0236155D02*
X0499005Y0239255D01*
X0396200Y0324800D02*
X0386300Y0314500D01*
X0386300Y0303200D01*
X0382300Y0291000D02*
X0370345Y0302955D01*
X0351295Y0302955D01*
X0344455Y0302955D01*
X0342200Y0300700D01*
X0351295Y0293900D02*
X0325705Y0293900D01*
X0325705Y0304005D01*
X0329600Y0307900D01*
X0329405Y0326405D01*
X0332050Y0329050D01*
X0333950Y0334000D02*
X0324350Y0334000D01*
X0333950Y0334000D02*
X0336550Y0336600D01*
X0337650Y0337200D01*
X0360300Y0337200D01*
X0363363Y0338217D01*
X0368800Y0345100D01*
X0368800Y0351200D02*
X0371538Y0353938D01*
X0371538Y0354700D02*
X0374204Y0354700D01*
X0375404Y0352300D01*
X0373700Y0356500D02*
X0370238Y0356629D01*
X0373700Y0356500D02*
X0377700Y0360500D01*
X0377700Y0371400D01*
X0383500Y0377200D01*
X0381700Y0377000D02*
X0386500Y0377000D01*
X0399350Y0329800D02*
X0399300Y0329750D01*
X0396200Y0324800D01*
X0358700Y0297100D02*
X0358700Y0291400D01*
X0355300Y0288000D01*
X0350445Y0287945D01*
X0351295Y0284845D01*
X0423900Y0426500D02*
X0427700Y0430300D01*
X0427700Y0434500D01*
X0426600Y0435800D02*
X0423900Y0433100D01*
X0423900Y0426500D01*
X0432200Y0432300D02*
X0434300Y0430200D01*
X0434300Y0426300D01*
X0245250Y0459100D02*
X0235650Y0459100D01*
X0233050Y0456500D01*
X0231950Y0455900D01*
X0209300Y0455900D01*
X0206237Y0454883D01*
X0200800Y0448000D01*
X0200800Y0441900D02*
X0198062Y0439162D01*
X0198062Y0438400D02*
X0195396Y0438400D01*
X0194196Y0440800D01*
X0195900Y0436600D02*
X0191900Y0432600D01*
X0191900Y0421700D01*
X0186100Y0415900D01*
X0187900Y0416100D02*
X0183100Y0416100D01*
X0195900Y0436600D02*
X0199362Y0436471D01*
X0170300Y0463350D02*
X0173400Y0468300D01*
X0183300Y0478600D01*
X0183300Y0489900D01*
X0187300Y0502100D02*
X0199255Y0490145D01*
X0218305Y0490145D01*
X0225145Y0490145D01*
X0227400Y0492400D01*
X0218305Y0499200D02*
X0243895Y0499200D01*
X0243895Y0489095D01*
X0240000Y0485200D01*
X0240195Y0466695D01*
X0237550Y0464050D01*
X0210900Y0496000D02*
X0210900Y0501700D01*
X0214300Y0505100D01*
X0219155Y0505155D01*
X0218305Y0508255D01*
X0170300Y0463350D02*
X0170250Y0463300D01*
X0145700Y0366600D02*
X0141900Y0362800D01*
X0141900Y0358600D01*
X0143000Y0357300D02*
X0145700Y0360000D01*
X0145700Y0366600D01*
X0137400Y0360800D02*
X0135300Y0362900D01*
X0135300Y0366800D01*
X0135700Y0186800D02*
X0133000Y0184100D01*
X0133000Y0177500D01*
X0136800Y0181300D01*
X0136800Y0185500D01*
X0141300Y0183300D02*
X0143400Y0181200D01*
X0143400Y0177300D01*
X0095600Y0128000D02*
X0090800Y0128000D01*
X0092600Y0128200D02*
X0086800Y0122400D01*
X0086800Y0111500D01*
X0082800Y0107500D01*
X0079338Y0107629D01*
X0080638Y0105700D02*
X0083304Y0105700D01*
X0084504Y0103300D01*
X0080638Y0104938D02*
X0077900Y0102200D01*
X0077900Y0096100D02*
X0072463Y0089217D01*
X0069400Y0088200D01*
X0046750Y0088200D01*
X0045650Y0087600D01*
X0043050Y0085000D01*
X0033450Y0085000D01*
X0038505Y0077405D02*
X0041150Y0080050D01*
X0038505Y0077405D02*
X0038700Y0058900D01*
X0034805Y0055005D01*
X0034805Y0044900D01*
X0060395Y0044900D01*
X0059545Y0038945D02*
X0064400Y0039000D01*
X0067800Y0042400D01*
X0067800Y0048100D01*
X0060395Y0053955D02*
X0053555Y0053955D01*
X0051300Y0051700D01*
X0060395Y0053955D02*
X0079445Y0053955D01*
X0091400Y0042000D01*
X0095400Y0054200D02*
X0095400Y0065500D01*
X0105300Y0075800D01*
X0108400Y0080750D01*
X0108450Y0080800D01*
X0059545Y0038945D02*
X0060395Y0035845D01*
D30*
X0026700Y0117800D03*
X0115600Y0146600D03*
X0167700Y0036800D03*
X0302400Y0075800D03*
X0257000Y0199300D03*
X0391700Y0238300D03*
X0458600Y0285800D03*
X0406500Y0395600D03*
X0317600Y0366800D03*
X0252000Y0426300D03*
X0163100Y0397500D03*
X0111000Y0507300D03*
X0021700Y0344800D03*
X0443800Y0128500D03*
X0532700Y0157300D03*
X0547900Y0448300D03*
D31*
X0368800Y0351200D02*
X0368800Y0345100D01*
X0200800Y0441900D02*
X0200800Y0448000D01*
X0481500Y0179000D02*
X0481500Y0172900D01*
X0077900Y0102200D02*
X0077900Y0096100D01*
D32*
X0129250Y0045100D02*
X0129250Y0039000D01*
X0129300Y0038950D01*
X0095750Y0038900D01*
X0148800Y0052550D02*
X0165850Y0069600D01*
X0169350Y0069600D01*
X0169350Y0069000D01*
X0169350Y0069600D02*
X0169350Y0109350D01*
X0167350Y0111350D02*
X0172700Y0116700D01*
X0172700Y0138600D01*
X0179700Y0138600D01*
X0182400Y0141300D01*
X0194800Y0141300D01*
X0207300Y0146800D01*
X0218100Y0146800D01*
X0221950Y0147950D01*
X0172700Y0138600D02*
X0158850Y0138600D01*
X0157050Y0136800D01*
X0143250Y0136800D01*
X0143100Y0136650D01*
X0143250Y0136800D02*
X0139150Y0140900D01*
X0139150Y0147500D01*
X0337450Y0127150D02*
X0341300Y0128300D01*
X0352100Y0128300D01*
X0364600Y0133800D01*
X0377000Y0133800D01*
X0379700Y0136500D01*
X0386700Y0136500D01*
X0386700Y0158400D01*
X0392050Y0163750D01*
X0390050Y0165750D02*
X0390050Y0205500D01*
X0393550Y0205500D01*
X0410600Y0222550D01*
X0390050Y0206100D02*
X0390050Y0205500D01*
X0430150Y0230000D02*
X0430150Y0236100D01*
X0430100Y0236150D01*
X0463650Y0236200D01*
X0420200Y0287950D02*
X0420150Y0288000D01*
X0420150Y0294100D01*
X0420200Y0287950D02*
X0386650Y0287900D01*
X0439700Y0301550D02*
X0456750Y0318600D01*
X0460250Y0318600D01*
X0460250Y0318000D01*
X0460250Y0318600D02*
X0460250Y0358350D01*
X0458250Y0360350D02*
X0463600Y0365700D01*
X0463600Y0387600D01*
X0470600Y0387600D01*
X0473300Y0390300D01*
X0485700Y0390300D01*
X0498200Y0395800D01*
X0509000Y0395800D01*
X0512850Y0396950D01*
X0463600Y0387600D02*
X0449750Y0387600D01*
X0447950Y0385800D01*
X0434150Y0385800D01*
X0434000Y0385650D01*
X0434150Y0385800D02*
X0430050Y0389900D01*
X0430050Y0396500D01*
X0182950Y0505200D02*
X0149400Y0505150D01*
X0149450Y0505100D01*
X0149450Y0499000D01*
X0129900Y0491550D02*
X0112850Y0474500D01*
X0109350Y0474500D01*
X0109350Y0475100D01*
X0109350Y0474500D02*
X0109350Y0434750D01*
X0111350Y0432750D02*
X0106000Y0427400D01*
X0106000Y0405500D01*
X0099000Y0405500D01*
X0096300Y0402800D01*
X0083900Y0402800D01*
X0071400Y0397300D01*
X0060600Y0397300D01*
X0056750Y0396150D01*
X0106000Y0405500D02*
X0119850Y0405500D01*
X0121650Y0407300D01*
X0135450Y0407300D01*
X0135600Y0407450D01*
X0135450Y0407300D02*
X0139550Y0403200D01*
X0139550Y0396600D01*
X0400550Y0136500D02*
X0402350Y0138300D01*
X0416150Y0138300D01*
X0416300Y0138450D01*
X0416150Y0138300D02*
X0420250Y0134200D01*
X0420250Y0127600D01*
X0400550Y0136500D02*
X0386700Y0136500D01*
D33*
X0430000Y0141150D02*
X0434400Y0136750D01*
X0434400Y0128500D01*
X0430350Y0141150D02*
X0441750Y0152550D01*
X0430350Y0141150D02*
X0430000Y0141150D01*
X0428650Y0228500D02*
X0424700Y0228500D01*
X0428650Y0228500D02*
X0430150Y0230000D01*
X0420150Y0294100D02*
X0421650Y0295600D01*
X0425600Y0295600D01*
X0408550Y0371550D02*
X0419950Y0382950D01*
X0420300Y0382950D01*
X0415900Y0387350D01*
X0415900Y0395600D01*
X0161050Y0421550D02*
X0149650Y0410150D01*
X0149300Y0410150D01*
X0153700Y0405750D01*
X0153700Y0397500D01*
X0147950Y0497500D02*
X0144000Y0497500D01*
X0147950Y0497500D02*
X0149450Y0499000D01*
X0125000Y0146600D02*
X0125000Y0138350D01*
X0129400Y0133950D01*
X0129050Y0133950D01*
X0117650Y0122550D01*
X0130750Y0046600D02*
X0134700Y0046600D01*
X0130750Y0046600D02*
X0129250Y0045100D01*
D34*
X0131347Y0048300D02*
X0133853Y0048300D01*
X0134528Y0048579D01*
X0136047Y0047950D01*
X0138553Y0047950D01*
X0140869Y0048909D01*
X0142641Y0050681D01*
X0143600Y0052997D01*
X0143600Y0054685D01*
X0144076Y0055161D01*
X0144799Y0056907D01*
X0144799Y0065096D01*
X0144176Y0066600D01*
X0144799Y0068104D01*
X0144799Y0073676D01*
X0144859Y0073531D01*
X0146631Y0071759D01*
X0148947Y0070800D01*
X0151453Y0070800D01*
X0153769Y0071759D01*
X0155541Y0073531D01*
X0156365Y0075521D01*
X0158347Y0074700D01*
X0160853Y0074700D01*
X0163169Y0075659D01*
X0164941Y0077431D01*
X0165900Y0079747D01*
X0165900Y0082253D01*
X0164941Y0084569D01*
X0163169Y0086341D01*
X0160853Y0087300D01*
X0160725Y0087300D01*
X0157074Y0090951D01*
X0155144Y0091750D01*
X0146473Y0091750D01*
X0148200Y0093850D01*
X0147821Y0094711D01*
X0147847Y0094700D01*
X0150353Y0094700D01*
X0152669Y0095659D01*
X0154441Y0097431D01*
X0155400Y0099747D01*
X0155400Y0102253D01*
X0154441Y0104569D01*
X0152669Y0106341D01*
X0150353Y0107300D01*
X0147847Y0107300D01*
X0146365Y0106686D01*
X0146365Y0107410D01*
X0145642Y0109156D01*
X0145184Y0109613D01*
X0148856Y0113285D01*
X0151260Y0113285D01*
X0153006Y0114008D01*
X0154342Y0115344D01*
X0155065Y0117090D01*
X0155065Y0119494D01*
X0159021Y0123450D01*
X0160040Y0123450D01*
X0160131Y0123359D01*
X0162447Y0122400D01*
X0164953Y0122400D01*
X0167269Y0123359D01*
X0169041Y0125131D01*
X0170000Y0127447D01*
X0170000Y0129953D01*
X0169041Y0132269D01*
X0167269Y0134041D01*
X0164953Y0135000D01*
X0162447Y0135000D01*
X0160131Y0134041D01*
X0160040Y0133950D01*
X0155802Y0133950D01*
X0153873Y0133151D01*
X0152396Y0131674D01*
X0151216Y0130494D01*
X0150769Y0130941D01*
X0148453Y0131900D01*
X0145947Y0131900D01*
X0143631Y0130941D01*
X0141859Y0129169D01*
X0141824Y0129085D01*
X0140369Y0130541D01*
X0138053Y0131500D01*
X0137585Y0131500D01*
X0137900Y0132259D01*
X0137900Y0135641D01*
X0136650Y0138659D01*
X0136650Y0150050D01*
X0143744Y0150050D01*
X0145674Y0150849D01*
X0146446Y0151621D01*
X0148141Y0152323D01*
X0149477Y0153659D01*
X0150200Y0155405D01*
X0150200Y0166962D01*
X0152672Y0165535D01*
X0155787Y0164700D01*
X0166840Y0164700D01*
X0182365Y0150758D01*
X0185241Y0149298D01*
X0188397Y0148631D01*
X0191618Y0148804D01*
X0194684Y0149805D01*
X0197133Y0151400D01*
X0198100Y0151350D01*
X0208950Y0151150D01*
X0214950Y0152600D01*
X0219600Y0155300D01*
X0227200Y0154300D01*
X0231500Y0151700D01*
X0231350Y0147500D01*
X0229000Y0144600D01*
X0224000Y0143200D01*
X0216900Y0141300D01*
X0209950Y0138800D01*
X0204200Y0136100D01*
X0196950Y0131250D01*
X0191550Y0126150D01*
X0187200Y0120450D01*
X0183750Y0114700D01*
X0182900Y0112000D01*
X0178650Y0087750D01*
X0177300Y0079500D01*
X0177150Y0069350D01*
X0177750Y0064550D01*
X0178300Y0059700D01*
X0180550Y0051100D01*
X0182600Y0046050D01*
X0183950Y0042050D01*
X0184500Y0038200D01*
X0185100Y0029700D01*
X0172641Y0029720D01*
X0174906Y0031985D01*
X0176200Y0035109D01*
X0176200Y0038491D01*
X0174906Y0041615D01*
X0172515Y0044006D01*
X0169391Y0045300D01*
X0166009Y0045300D01*
X0162885Y0044006D01*
X0160494Y0041615D01*
X0159200Y0038491D01*
X0159200Y0035109D01*
X0160494Y0031985D01*
X0162744Y0029735D01*
X0153730Y0029750D01*
X0154449Y0030468D01*
X0155851Y0032898D01*
X0156578Y0035608D01*
X0156578Y0038414D01*
X0155851Y0041124D01*
X0154449Y0043554D01*
X0152465Y0045538D01*
X0150035Y0046940D01*
X0147325Y0047667D01*
X0144519Y0047667D01*
X0141809Y0046940D01*
X0139379Y0045538D01*
X0137396Y0043554D01*
X0135993Y0041124D01*
X0135267Y0038414D01*
X0135267Y0035608D01*
X0135993Y0032898D01*
X0137396Y0030468D01*
X0138089Y0029775D01*
X0135850Y0029778D01*
X0135850Y0032053D01*
X0134891Y0034369D01*
X0133119Y0036141D01*
X0130803Y0037100D01*
X0128297Y0037100D01*
X0125981Y0036141D01*
X0124209Y0034369D01*
X0123250Y0032053D01*
X0123250Y0029798D01*
X0090600Y0029850D01*
X0089183Y0030259D01*
X0090450Y0033319D01*
X0090450Y0036681D01*
X0089164Y0039787D01*
X0086787Y0042164D01*
X0085174Y0042831D01*
X0093178Y0047814D01*
X0094057Y0047450D01*
X0096743Y0047450D01*
X0099224Y0048478D01*
X0101122Y0050376D01*
X0101427Y0051112D01*
X0107700Y0053329D01*
X0108006Y0053202D01*
X0116994Y0053202D01*
X0117114Y0053252D01*
X0126339Y0053252D01*
X0127259Y0051031D01*
X0129031Y0049259D01*
X0131347Y0048300D01*
X0129772Y0048952D02*
X0099698Y0048952D01*
X0101153Y0050451D02*
X0127840Y0050451D01*
X0126879Y0051949D02*
X0103796Y0051949D01*
X0096752Y0047454D02*
X0143726Y0047454D01*
X0140912Y0048952D02*
X0181422Y0048952D01*
X0182030Y0047454D02*
X0148119Y0047454D01*
X0151741Y0045955D02*
X0182632Y0045955D01*
X0183138Y0044457D02*
X0171426Y0044457D01*
X0173562Y0042958D02*
X0183643Y0042958D01*
X0184034Y0041460D02*
X0174970Y0041460D01*
X0175591Y0039961D02*
X0184248Y0039961D01*
X0184462Y0038463D02*
X0176200Y0038463D01*
X0176200Y0036964D02*
X0184587Y0036964D01*
X0184693Y0035466D02*
X0176200Y0035466D01*
X0175727Y0033967D02*
X0184799Y0033967D01*
X0184905Y0032469D02*
X0175106Y0032469D01*
X0173891Y0030970D02*
X0185010Y0030970D01*
X0180813Y0050451D02*
X0142410Y0050451D01*
X0143166Y0051949D02*
X0180328Y0051949D01*
X0179936Y0053448D02*
X0143600Y0053448D01*
X0143861Y0054946D02*
X0179544Y0054946D01*
X0179152Y0056445D02*
X0144608Y0056445D01*
X0144799Y0057943D02*
X0178760Y0057943D01*
X0178368Y0059442D02*
X0144799Y0059442D01*
X0144799Y0060940D02*
X0178159Y0060940D01*
X0177989Y0062439D02*
X0144799Y0062439D01*
X0144799Y0063937D02*
X0177819Y0063937D01*
X0177639Y0065436D02*
X0144658Y0065436D01*
X0144315Y0066934D02*
X0177452Y0066934D01*
X0177265Y0068433D02*
X0144799Y0068433D01*
X0144799Y0069932D02*
X0177159Y0069932D01*
X0177181Y0071430D02*
X0152974Y0071430D01*
X0154938Y0072929D02*
X0177203Y0072929D01*
X0177225Y0074427D02*
X0155912Y0074427D01*
X0163435Y0075926D02*
X0177247Y0075926D01*
X0177269Y0077424D02*
X0164934Y0077424D01*
X0165559Y0078923D02*
X0177291Y0078923D01*
X0177451Y0080421D02*
X0165900Y0080421D01*
X0165900Y0081920D02*
X0177696Y0081920D01*
X0177941Y0083418D02*
X0165417Y0083418D01*
X0164593Y0084917D02*
X0178186Y0084917D01*
X0178432Y0086415D02*
X0162989Y0086415D01*
X0160111Y0087914D02*
X0178679Y0087914D01*
X0178941Y0089412D02*
X0158612Y0089412D01*
X0157114Y0090911D02*
X0179204Y0090911D01*
X0179467Y0092409D02*
X0147015Y0092409D01*
X0148175Y0093908D02*
X0179729Y0093908D01*
X0179992Y0095406D02*
X0152058Y0095406D01*
X0153914Y0096905D02*
X0180254Y0096905D01*
X0180517Y0098403D02*
X0154843Y0098403D01*
X0155400Y0099902D02*
X0180780Y0099902D01*
X0181042Y0101400D02*
X0155400Y0101400D01*
X0155133Y0102899D02*
X0181305Y0102899D01*
X0181568Y0104397D02*
X0154512Y0104397D01*
X0153114Y0105896D02*
X0181830Y0105896D01*
X0182093Y0107394D02*
X0146365Y0107394D01*
X0145751Y0108893D02*
X0182355Y0108893D01*
X0182618Y0110391D02*
X0145962Y0110391D01*
X0147461Y0111890D02*
X0182881Y0111890D01*
X0183337Y0113388D02*
X0151510Y0113388D01*
X0153885Y0114887D02*
X0183862Y0114887D01*
X0184761Y0116385D02*
X0154773Y0116385D01*
X0155065Y0117884D02*
X0185660Y0117884D01*
X0186559Y0119382D02*
X0155065Y0119382D01*
X0156452Y0120881D02*
X0187529Y0120881D01*
X0188672Y0122379D02*
X0157950Y0122379D01*
X0152092Y0131370D02*
X0149731Y0131370D01*
X0153591Y0132869D02*
X0137900Y0132869D01*
X0137900Y0134368D02*
X0160920Y0134368D01*
X0166480Y0134368D02*
X0201610Y0134368D01*
X0203850Y0135866D02*
X0137807Y0135866D01*
X0137186Y0137365D02*
X0206893Y0137365D01*
X0210125Y0138863D02*
X0136650Y0138863D01*
X0136650Y0140362D02*
X0214291Y0140362D01*
X0218993Y0141860D02*
X0136650Y0141860D01*
X0136650Y0143359D02*
X0224566Y0143359D01*
X0229208Y0144857D02*
X0136650Y0144857D01*
X0136650Y0146356D02*
X0230423Y0146356D01*
X0231363Y0147854D02*
X0136650Y0147854D01*
X0136650Y0149353D02*
X0185133Y0149353D01*
X0182262Y0150851D02*
X0145676Y0150851D01*
X0148167Y0152350D02*
X0180593Y0152350D01*
X0178924Y0153848D02*
X0149555Y0153848D01*
X0150176Y0155347D02*
X0151437Y0155347D01*
X0151450Y0155325D02*
X0151775Y0155000D01*
X0152175Y0154769D01*
X0152620Y0154650D01*
X0156875Y0154650D01*
X0156875Y0158425D01*
X0157925Y0158425D01*
X0157925Y0159475D01*
X0156875Y0159475D01*
X0156875Y0163250D01*
X0152620Y0163250D01*
X0152175Y0163131D01*
X0151775Y0162900D01*
X0151450Y0162575D01*
X0151219Y0162175D01*
X0151100Y0161730D01*
X0151100Y0159475D01*
X0156875Y0159475D01*
X0156875Y0158425D01*
X0151100Y0158425D01*
X0151100Y0156170D01*
X0151219Y0155725D01*
X0151450Y0155325D01*
X0151100Y0156845D02*
X0150200Y0156845D01*
X0150200Y0158344D02*
X0151100Y0158344D01*
X0151100Y0159842D02*
X0150200Y0159842D01*
X0150200Y0161341D02*
X0151100Y0161341D01*
X0151714Y0162839D02*
X0150200Y0162839D01*
X0150200Y0164338D02*
X0167243Y0164338D01*
X0168912Y0162839D02*
X0163086Y0162839D01*
X0163025Y0162900D02*
X0162625Y0163131D01*
X0162180Y0163250D01*
X0157925Y0163250D01*
X0157925Y0159475D01*
X0163700Y0159475D01*
X0163700Y0161730D01*
X0163581Y0162175D01*
X0163350Y0162575D01*
X0163025Y0162900D01*
X0163700Y0161341D02*
X0170581Y0161341D01*
X0172249Y0159842D02*
X0163700Y0159842D01*
X0163700Y0158425D02*
X0163700Y0156170D01*
X0163581Y0155725D01*
X0163350Y0155325D01*
X0163025Y0155000D01*
X0162625Y0154769D01*
X0162180Y0154650D01*
X0157925Y0154650D01*
X0157925Y0158425D01*
X0163700Y0158425D01*
X0163700Y0158344D02*
X0173918Y0158344D01*
X0175587Y0156845D02*
X0163700Y0156845D01*
X0163363Y0155347D02*
X0177255Y0155347D01*
X0193298Y0149353D02*
X0231416Y0149353D01*
X0231470Y0150851D02*
X0196290Y0150851D01*
X0213914Y0152350D02*
X0230426Y0152350D01*
X0227947Y0153848D02*
X0217100Y0153848D01*
X0199370Y0132869D02*
X0168441Y0132869D01*
X0169413Y0131370D02*
X0197130Y0131370D01*
X0195491Y0129872D02*
X0170000Y0129872D01*
X0170000Y0128373D02*
X0193904Y0128373D01*
X0192318Y0126875D02*
X0169763Y0126875D01*
X0169142Y0125376D02*
X0190960Y0125376D01*
X0189816Y0123878D02*
X0167787Y0123878D01*
X0144669Y0131370D02*
X0138366Y0131370D01*
X0141038Y0129872D02*
X0142562Y0129872D01*
X0156875Y0155347D02*
X0157925Y0155347D01*
X0157925Y0156845D02*
X0156875Y0156845D01*
X0156875Y0158344D02*
X0157925Y0158344D01*
X0157925Y0159842D02*
X0156875Y0159842D01*
X0156875Y0161341D02*
X0157925Y0161341D01*
X0157925Y0162839D02*
X0156875Y0162839D01*
X0152150Y0165836D02*
X0150200Y0165836D01*
X0145462Y0072929D02*
X0144799Y0072929D01*
X0144799Y0071430D02*
X0147426Y0071430D01*
X0140103Y0045955D02*
X0090192Y0045955D01*
X0087785Y0044457D02*
X0138299Y0044457D01*
X0137052Y0042958D02*
X0085379Y0042958D01*
X0087490Y0041460D02*
X0136187Y0041460D01*
X0135681Y0039961D02*
X0088989Y0039961D01*
X0089712Y0038463D02*
X0135280Y0038463D01*
X0135267Y0036964D02*
X0131131Y0036964D01*
X0133794Y0035466D02*
X0135305Y0035466D01*
X0135057Y0033967D02*
X0135706Y0033967D01*
X0135678Y0032469D02*
X0136241Y0032469D01*
X0135850Y0030970D02*
X0137106Y0030970D01*
X0127969Y0036964D02*
X0090333Y0036964D01*
X0090450Y0035466D02*
X0125306Y0035466D01*
X0124043Y0033967D02*
X0090450Y0033967D01*
X0090098Y0032469D02*
X0123422Y0032469D01*
X0123250Y0030970D02*
X0089477Y0030970D01*
X0092599Y0047454D02*
X0094048Y0047454D01*
X0153545Y0044457D02*
X0163974Y0044457D01*
X0161838Y0042958D02*
X0154792Y0042958D01*
X0155657Y0041460D02*
X0160430Y0041460D01*
X0159809Y0039961D02*
X0156163Y0039961D01*
X0156564Y0038463D02*
X0159200Y0038463D01*
X0159200Y0036964D02*
X0156578Y0036964D01*
X0156539Y0035466D02*
X0159200Y0035466D01*
X0159673Y0033967D02*
X0156138Y0033967D01*
X0155603Y0032469D02*
X0160294Y0032469D01*
X0161509Y0030970D02*
X0154738Y0030970D01*
X0327900Y0123400D02*
X0328050Y0127600D01*
X0330400Y0130500D01*
X0335400Y0131900D01*
X0342500Y0133800D01*
X0349450Y0136300D01*
X0355200Y0139000D01*
X0362450Y0143850D01*
X0367850Y0148950D01*
X0372200Y0154650D01*
X0375650Y0160400D01*
X0376500Y0163100D01*
X0380750Y0187350D01*
X0382100Y0195600D01*
X0382250Y0205750D01*
X0381650Y0210550D01*
X0381100Y0215400D01*
X0378850Y0224000D01*
X0376800Y0229050D01*
X0375450Y0233050D01*
X0374900Y0236900D01*
X0374300Y0245400D01*
X0386759Y0245380D01*
X0384494Y0243115D01*
X0383200Y0239991D01*
X0383200Y0236609D01*
X0384494Y0233485D01*
X0386885Y0231094D01*
X0390009Y0229800D01*
X0393391Y0229800D01*
X0396515Y0231094D01*
X0398906Y0233485D01*
X0400200Y0236609D01*
X0400200Y0239991D01*
X0398906Y0243115D01*
X0396656Y0245365D01*
X0405670Y0245350D01*
X0404951Y0244632D01*
X0403549Y0242202D01*
X0402822Y0239492D01*
X0402822Y0236686D01*
X0403549Y0233976D01*
X0404951Y0231546D01*
X0406935Y0229562D01*
X0409365Y0228160D01*
X0412075Y0227433D01*
X0414881Y0227433D01*
X0417591Y0228160D01*
X0420021Y0229562D01*
X0422004Y0231546D01*
X0423407Y0233976D01*
X0424133Y0236686D01*
X0424133Y0239492D01*
X0423407Y0242202D01*
X0422004Y0244632D01*
X0421311Y0245325D01*
X0423550Y0245322D01*
X0423550Y0243047D01*
X0424509Y0240731D01*
X0426281Y0238959D01*
X0428597Y0238000D01*
X0431103Y0238000D01*
X0433419Y0238959D01*
X0435191Y0240731D01*
X0436150Y0243047D01*
X0436150Y0245302D01*
X0468800Y0245250D01*
X0470217Y0244841D01*
X0468950Y0241781D01*
X0468950Y0238419D01*
X0470236Y0235313D01*
X0472613Y0232936D01*
X0474226Y0232269D01*
X0466222Y0227286D01*
X0465343Y0227650D01*
X0462657Y0227650D01*
X0460176Y0226622D01*
X0458278Y0224724D01*
X0457973Y0223988D01*
X0451700Y0221771D01*
X0451394Y0221898D01*
X0442406Y0221898D01*
X0442286Y0221848D01*
X0433061Y0221848D01*
X0432141Y0224069D01*
X0430369Y0225841D01*
X0428053Y0226800D01*
X0425547Y0226800D01*
X0424872Y0226521D01*
X0423353Y0227150D01*
X0420847Y0227150D01*
X0418531Y0226191D01*
X0416759Y0224419D01*
X0415800Y0222103D01*
X0415800Y0220415D01*
X0415324Y0219939D01*
X0414601Y0218193D01*
X0414601Y0210004D01*
X0415224Y0208500D01*
X0414601Y0206996D01*
X0414601Y0201424D01*
X0414541Y0201569D01*
X0412769Y0203341D01*
X0410453Y0204300D01*
X0407947Y0204300D01*
X0405631Y0203341D01*
X0403859Y0201569D01*
X0403035Y0199579D01*
X0401053Y0200400D01*
X0398547Y0200400D01*
X0396231Y0199441D01*
X0394459Y0197669D01*
X0393500Y0195353D01*
X0393500Y0192847D01*
X0394459Y0190531D01*
X0396231Y0188759D01*
X0398547Y0187800D01*
X0398675Y0187800D01*
X0402326Y0184149D01*
X0404256Y0183350D01*
X0412927Y0183350D01*
X0411200Y0181250D01*
X0411579Y0180389D01*
X0411553Y0180400D01*
X0409047Y0180400D01*
X0406731Y0179441D01*
X0404959Y0177669D01*
X0404000Y0175353D01*
X0404000Y0172847D01*
X0404959Y0170531D01*
X0406731Y0168759D01*
X0409047Y0167800D01*
X0411553Y0167800D01*
X0413035Y0168414D01*
X0413035Y0167690D01*
X0413758Y0165944D01*
X0414216Y0165487D01*
X0410544Y0161815D01*
X0408140Y0161815D01*
X0406394Y0161092D01*
X0405058Y0159756D01*
X0404335Y0158010D01*
X0404335Y0155606D01*
X0400379Y0151650D01*
X0399360Y0151650D01*
X0399269Y0151741D01*
X0396953Y0152700D01*
X0394447Y0152700D01*
X0392131Y0151741D01*
X0390359Y0149969D01*
X0389400Y0147653D01*
X0389400Y0145147D01*
X0390359Y0142831D01*
X0392131Y0141059D01*
X0394447Y0140100D01*
X0396953Y0140100D01*
X0399269Y0141059D01*
X0399360Y0141150D01*
X0403598Y0141150D01*
X0405527Y0141949D01*
X0407004Y0143426D01*
X0408184Y0144606D01*
X0408631Y0144159D01*
X0410947Y0143200D01*
X0413453Y0143200D01*
X0415769Y0144159D01*
X0417541Y0145931D01*
X0417576Y0146015D01*
X0419031Y0144559D01*
X0421347Y0143600D01*
X0421814Y0143600D01*
X0421500Y0142841D01*
X0421500Y0139459D01*
X0422750Y0136441D01*
X0422750Y0125050D01*
X0415656Y0125050D01*
X0413726Y0124251D01*
X0412954Y0123479D01*
X0411259Y0122777D01*
X0409923Y0121441D01*
X0409200Y0119695D01*
X0409200Y0108138D01*
X0406728Y0109565D01*
X0403613Y0110400D01*
X0392560Y0110400D01*
X0377035Y0124342D01*
X0374159Y0125802D01*
X0371003Y0126469D01*
X0367782Y0126296D01*
X0364716Y0125295D01*
X0362267Y0123700D01*
X0361300Y0123750D01*
X0350450Y0123950D01*
X0344450Y0122500D01*
X0339800Y0119800D01*
X0332200Y0120800D01*
X0327900Y0123400D01*
X0327917Y0123878D02*
X0350152Y0123878D01*
X0354360Y0123878D02*
X0362540Y0123878D01*
X0364965Y0125376D02*
X0327971Y0125376D01*
X0328024Y0126875D02*
X0422750Y0126875D01*
X0422750Y0128373D02*
X0328677Y0128373D01*
X0329891Y0129872D02*
X0422750Y0129872D01*
X0422750Y0131370D02*
X0333509Y0131370D01*
X0339021Y0132869D02*
X0422750Y0132869D01*
X0422750Y0134368D02*
X0344078Y0134368D01*
X0348244Y0135866D02*
X0422750Y0135866D01*
X0422368Y0137365D02*
X0351717Y0137365D01*
X0354908Y0138863D02*
X0421747Y0138863D01*
X0421500Y0140362D02*
X0397585Y0140362D01*
X0393815Y0140362D02*
X0357235Y0140362D01*
X0359475Y0141860D02*
X0391330Y0141860D01*
X0390141Y0143359D02*
X0361715Y0143359D01*
X0363516Y0144857D02*
X0389520Y0144857D01*
X0389400Y0146356D02*
X0365103Y0146356D01*
X0366690Y0147854D02*
X0389483Y0147854D01*
X0390104Y0149353D02*
X0368157Y0149353D01*
X0369301Y0150851D02*
X0391242Y0150851D01*
X0393601Y0152350D02*
X0370444Y0152350D01*
X0371588Y0153848D02*
X0402577Y0153848D01*
X0401079Y0152350D02*
X0397799Y0152350D01*
X0404076Y0155347D02*
X0372618Y0155347D01*
X0373517Y0156845D02*
X0404335Y0156845D01*
X0404473Y0158344D02*
X0374416Y0158344D01*
X0375315Y0159842D02*
X0405144Y0159842D01*
X0406994Y0161341D02*
X0375946Y0161341D01*
X0376418Y0162839D02*
X0411568Y0162839D01*
X0413067Y0164338D02*
X0376717Y0164338D01*
X0376980Y0165836D02*
X0413866Y0165836D01*
X0413182Y0167335D02*
X0377242Y0167335D01*
X0377505Y0168833D02*
X0406657Y0168833D01*
X0405159Y0170332D02*
X0377767Y0170332D01*
X0378030Y0171830D02*
X0404421Y0171830D01*
X0404000Y0173329D02*
X0378293Y0173329D01*
X0378555Y0174827D02*
X0404000Y0174827D01*
X0404403Y0176326D02*
X0378818Y0176326D01*
X0379081Y0177824D02*
X0405115Y0177824D01*
X0406613Y0179323D02*
X0379343Y0179323D01*
X0379606Y0180821D02*
X0411389Y0180821D01*
X0412080Y0182320D02*
X0379868Y0182320D01*
X0380131Y0183818D02*
X0403125Y0183818D01*
X0401158Y0185317D02*
X0380394Y0185317D01*
X0380656Y0186815D02*
X0399660Y0186815D01*
X0397306Y0188314D02*
X0380908Y0188314D01*
X0381153Y0189812D02*
X0395178Y0189812D01*
X0394136Y0191311D02*
X0381398Y0191311D01*
X0381643Y0192809D02*
X0393515Y0192809D01*
X0393500Y0194308D02*
X0381889Y0194308D01*
X0382103Y0195806D02*
X0393688Y0195806D01*
X0394308Y0197305D02*
X0382125Y0197305D01*
X0382147Y0198803D02*
X0395594Y0198803D01*
X0398310Y0200302D02*
X0382169Y0200302D01*
X0382192Y0201801D02*
X0404091Y0201801D01*
X0403334Y0200302D02*
X0401290Y0200302D01*
X0405589Y0203299D02*
X0382214Y0203299D01*
X0382236Y0204798D02*
X0414601Y0204798D01*
X0414601Y0206296D02*
X0382182Y0206296D01*
X0381994Y0207795D02*
X0414932Y0207795D01*
X0414895Y0209293D02*
X0381807Y0209293D01*
X0381623Y0210792D02*
X0414601Y0210792D01*
X0414601Y0212290D02*
X0381453Y0212290D01*
X0381283Y0213789D02*
X0414601Y0213789D01*
X0414601Y0215287D02*
X0381113Y0215287D01*
X0380737Y0216786D02*
X0414601Y0216786D01*
X0414639Y0218284D02*
X0380345Y0218284D01*
X0379953Y0219783D02*
X0415259Y0219783D01*
X0415800Y0221281D02*
X0379561Y0221281D01*
X0379169Y0222780D02*
X0416080Y0222780D01*
X0416701Y0224278D02*
X0378737Y0224278D01*
X0378129Y0225777D02*
X0418117Y0225777D01*
X0418654Y0228774D02*
X0468612Y0228774D01*
X0471019Y0230272D02*
X0420730Y0230272D01*
X0422134Y0231771D02*
X0473426Y0231771D01*
X0472281Y0233269D02*
X0422999Y0233269D01*
X0423619Y0234768D02*
X0470782Y0234768D01*
X0469842Y0236266D02*
X0424021Y0236266D01*
X0424133Y0237765D02*
X0469221Y0237765D01*
X0468950Y0239263D02*
X0433723Y0239263D01*
X0435203Y0240762D02*
X0468950Y0240762D01*
X0469149Y0242260D02*
X0435824Y0242260D01*
X0436150Y0243759D02*
X0469769Y0243759D01*
X0464172Y0245257D02*
X0436150Y0245257D01*
X0425977Y0239263D02*
X0424133Y0239263D01*
X0423793Y0240762D02*
X0424496Y0240762D01*
X0423876Y0242260D02*
X0423374Y0242260D01*
X0423550Y0243759D02*
X0422508Y0243759D01*
X0423550Y0245257D02*
X0421379Y0245257D01*
X0405577Y0245257D02*
X0396763Y0245257D01*
X0398262Y0243759D02*
X0404448Y0243759D01*
X0403582Y0242260D02*
X0399260Y0242260D01*
X0399881Y0240762D02*
X0403163Y0240762D01*
X0402822Y0239263D02*
X0400200Y0239263D01*
X0400200Y0237765D02*
X0402822Y0237765D01*
X0402935Y0236266D02*
X0400058Y0236266D01*
X0399437Y0234768D02*
X0403336Y0234768D01*
X0403957Y0233269D02*
X0398690Y0233269D01*
X0397192Y0231771D02*
X0404822Y0231771D01*
X0406226Y0230272D02*
X0394531Y0230272D01*
X0388869Y0230272D02*
X0376387Y0230272D01*
X0375882Y0231771D02*
X0386208Y0231771D01*
X0384710Y0233269D02*
X0375419Y0233269D01*
X0375205Y0234768D02*
X0383963Y0234768D01*
X0383342Y0236266D02*
X0374991Y0236266D01*
X0374839Y0237765D02*
X0383200Y0237765D01*
X0383200Y0239263D02*
X0374733Y0239263D01*
X0374627Y0240762D02*
X0383519Y0240762D01*
X0384140Y0242260D02*
X0374522Y0242260D01*
X0374416Y0243759D02*
X0385138Y0243759D01*
X0386637Y0245257D02*
X0374310Y0245257D01*
X0376912Y0228774D02*
X0408301Y0228774D01*
X0430433Y0225777D02*
X0459331Y0225777D01*
X0458093Y0224278D02*
X0431931Y0224278D01*
X0432675Y0222780D02*
X0454555Y0222780D01*
X0461753Y0227275D02*
X0377520Y0227275D01*
X0412810Y0203299D02*
X0414601Y0203299D01*
X0414601Y0201801D02*
X0414309Y0201801D01*
X0416467Y0144857D02*
X0418733Y0144857D01*
X0421714Y0143359D02*
X0413836Y0143359D01*
X0410564Y0143359D02*
X0406937Y0143359D01*
X0405312Y0141860D02*
X0421500Y0141860D01*
X0422750Y0125376D02*
X0374998Y0125376D01*
X0377552Y0123878D02*
X0413353Y0123878D01*
X0410862Y0122379D02*
X0379220Y0122379D01*
X0380889Y0120881D02*
X0409691Y0120881D01*
X0409200Y0119382D02*
X0408177Y0119382D01*
X0408181Y0119375D02*
X0407950Y0119775D01*
X0407625Y0120100D01*
X0407225Y0120331D01*
X0406780Y0120450D01*
X0402525Y0120450D01*
X0402525Y0116675D01*
X0401475Y0116675D01*
X0401475Y0120450D01*
X0397220Y0120450D01*
X0396775Y0120331D01*
X0396375Y0120100D01*
X0396050Y0119775D01*
X0395819Y0119375D01*
X0395700Y0118930D01*
X0395700Y0116675D01*
X0401475Y0116675D01*
X0401475Y0115625D01*
X0402525Y0115625D01*
X0402525Y0116675D01*
X0408300Y0116675D01*
X0408300Y0118930D01*
X0408181Y0119375D01*
X0408300Y0117884D02*
X0409200Y0117884D01*
X0409200Y0116385D02*
X0402525Y0116385D01*
X0402525Y0115625D02*
X0408300Y0115625D01*
X0408300Y0113370D01*
X0408181Y0112925D01*
X0407950Y0112525D01*
X0407625Y0112200D01*
X0407225Y0111969D01*
X0406780Y0111850D01*
X0402525Y0111850D01*
X0402525Y0115625D01*
X0402525Y0114887D02*
X0401475Y0114887D01*
X0401475Y0115625D02*
X0401475Y0111850D01*
X0397220Y0111850D01*
X0396775Y0111969D01*
X0396375Y0112200D01*
X0396050Y0112525D01*
X0395819Y0112925D01*
X0395700Y0113370D01*
X0395700Y0115625D01*
X0401475Y0115625D01*
X0401475Y0116385D02*
X0385895Y0116385D01*
X0387564Y0114887D02*
X0395700Y0114887D01*
X0395700Y0113388D02*
X0389232Y0113388D01*
X0390901Y0111890D02*
X0397071Y0111890D01*
X0401475Y0111890D02*
X0402525Y0111890D01*
X0402525Y0113388D02*
X0401475Y0113388D01*
X0403645Y0110391D02*
X0409200Y0110391D01*
X0409200Y0108893D02*
X0407893Y0108893D01*
X0406929Y0111890D02*
X0409200Y0111890D01*
X0409200Y0113388D02*
X0408300Y0113388D01*
X0408300Y0114887D02*
X0409200Y0114887D01*
X0402525Y0117884D02*
X0401475Y0117884D01*
X0401475Y0119382D02*
X0402525Y0119382D01*
X0395823Y0119382D02*
X0382558Y0119382D01*
X0384226Y0117884D02*
X0395700Y0117884D01*
X0344242Y0122379D02*
X0329588Y0122379D01*
X0332066Y0120881D02*
X0341662Y0120881D01*
X0381500Y0278850D02*
X0380083Y0279259D01*
X0381350Y0282319D01*
X0381350Y0285681D01*
X0380064Y0288787D01*
X0377687Y0291164D01*
X0376074Y0291831D01*
X0384078Y0296814D01*
X0384957Y0296450D01*
X0387643Y0296450D01*
X0390124Y0297478D01*
X0392022Y0299376D01*
X0392327Y0300112D01*
X0398600Y0302329D01*
X0398906Y0302202D01*
X0407894Y0302202D01*
X0408014Y0302252D01*
X0417239Y0302252D01*
X0418159Y0300031D01*
X0419931Y0298259D01*
X0422247Y0297300D01*
X0424753Y0297300D01*
X0425428Y0297579D01*
X0426947Y0296950D01*
X0429453Y0296950D01*
X0431769Y0297909D01*
X0433541Y0299681D01*
X0434500Y0301997D01*
X0434500Y0303685D01*
X0434976Y0304161D01*
X0435699Y0305907D01*
X0435699Y0314096D01*
X0435076Y0315600D01*
X0435699Y0317104D01*
X0435699Y0322676D01*
X0435759Y0322531D01*
X0437531Y0320759D01*
X0439847Y0319800D01*
X0442353Y0319800D01*
X0444669Y0320759D01*
X0446441Y0322531D01*
X0447265Y0324521D01*
X0449247Y0323700D01*
X0451753Y0323700D01*
X0454069Y0324659D01*
X0455841Y0326431D01*
X0456800Y0328747D01*
X0456800Y0331253D01*
X0455841Y0333569D01*
X0454069Y0335341D01*
X0451753Y0336300D01*
X0451625Y0336300D01*
X0447974Y0339951D01*
X0446044Y0340750D01*
X0437373Y0340750D01*
X0439100Y0342850D01*
X0438721Y0343711D01*
X0438747Y0343700D01*
X0441253Y0343700D01*
X0443569Y0344659D01*
X0445341Y0346431D01*
X0446300Y0348747D01*
X0446300Y0351253D01*
X0445341Y0353569D01*
X0443569Y0355341D01*
X0441253Y0356300D01*
X0438747Y0356300D01*
X0437265Y0355686D01*
X0437265Y0356410D01*
X0436542Y0358156D01*
X0436084Y0358613D01*
X0439756Y0362285D01*
X0442160Y0362285D01*
X0443906Y0363008D01*
X0445242Y0364344D01*
X0445965Y0366090D01*
X0445965Y0368494D01*
X0449921Y0372450D01*
X0450940Y0372450D01*
X0451031Y0372359D01*
X0453347Y0371400D01*
X0455853Y0371400D01*
X0458169Y0372359D01*
X0459941Y0374131D01*
X0460900Y0376447D01*
X0460900Y0378953D01*
X0459941Y0381269D01*
X0458169Y0383041D01*
X0455853Y0384000D01*
X0453347Y0384000D01*
X0451031Y0383041D01*
X0450940Y0382950D01*
X0446702Y0382950D01*
X0444773Y0382151D01*
X0443296Y0380674D01*
X0442116Y0379494D01*
X0441669Y0379941D01*
X0439353Y0380900D01*
X0436847Y0380900D01*
X0434531Y0379941D01*
X0432759Y0378169D01*
X0432724Y0378085D01*
X0431269Y0379541D01*
X0428953Y0380500D01*
X0428485Y0380500D01*
X0428800Y0381259D01*
X0428800Y0384641D01*
X0427550Y0387659D01*
X0427550Y0399050D01*
X0434644Y0399050D01*
X0436574Y0399849D01*
X0437346Y0400621D01*
X0439041Y0401323D01*
X0440377Y0402659D01*
X0441100Y0404405D01*
X0441100Y0415962D01*
X0443572Y0414535D01*
X0446687Y0413700D01*
X0457740Y0413700D01*
X0473265Y0399758D01*
X0476141Y0398298D01*
X0479297Y0397631D01*
X0482518Y0397804D01*
X0485584Y0398805D01*
X0488033Y0400400D01*
X0489000Y0400350D01*
X0499850Y0400150D01*
X0505850Y0401600D01*
X0510500Y0404300D01*
X0518100Y0403300D01*
X0522400Y0400700D01*
X0522250Y0396500D01*
X0519900Y0393600D01*
X0514900Y0392200D01*
X0507800Y0390300D01*
X0500850Y0387800D01*
X0495100Y0385100D01*
X0487850Y0380250D01*
X0482450Y0375150D01*
X0478100Y0369450D01*
X0474650Y0363700D01*
X0473800Y0361000D01*
X0469550Y0336750D01*
X0468200Y0328500D01*
X0468050Y0318350D01*
X0468650Y0313550D01*
X0469200Y0308700D01*
X0471450Y0300100D01*
X0473500Y0295050D01*
X0474850Y0291050D01*
X0475400Y0287200D01*
X0476000Y0278700D01*
X0463541Y0278720D01*
X0465806Y0280985D01*
X0467100Y0284109D01*
X0467100Y0287491D01*
X0465806Y0290615D01*
X0463415Y0293006D01*
X0460291Y0294300D01*
X0456909Y0294300D01*
X0453785Y0293006D01*
X0451394Y0290615D01*
X0450100Y0287491D01*
X0450100Y0284109D01*
X0451394Y0280985D01*
X0453644Y0278735D01*
X0444630Y0278750D01*
X0445349Y0279468D01*
X0446751Y0281898D01*
X0447478Y0284608D01*
X0447478Y0287414D01*
X0446751Y0290124D01*
X0445349Y0292554D01*
X0443365Y0294538D01*
X0440935Y0295940D01*
X0438225Y0296667D01*
X0435419Y0296667D01*
X0432709Y0295940D01*
X0430279Y0294538D01*
X0428296Y0292554D01*
X0426893Y0290124D01*
X0426167Y0287414D01*
X0426167Y0284608D01*
X0426893Y0281898D01*
X0428296Y0279468D01*
X0428989Y0278775D01*
X0426750Y0278778D01*
X0426750Y0281053D01*
X0425791Y0283369D01*
X0424019Y0285141D01*
X0421703Y0286100D01*
X0419197Y0286100D01*
X0416881Y0285141D01*
X0415109Y0283369D01*
X0414150Y0281053D01*
X0414150Y0278798D01*
X0381500Y0278850D01*
X0380275Y0279723D02*
X0414150Y0279723D01*
X0414220Y0281222D02*
X0380895Y0281222D01*
X0381350Y0282720D02*
X0414840Y0282720D01*
X0415959Y0284219D02*
X0381350Y0284219D01*
X0381335Y0285717D02*
X0418273Y0285717D01*
X0422627Y0285717D02*
X0426167Y0285717D01*
X0426167Y0287216D02*
X0380714Y0287216D01*
X0380094Y0288714D02*
X0426515Y0288714D01*
X0426944Y0290213D02*
X0378637Y0290213D01*
X0376364Y0291711D02*
X0427809Y0291711D01*
X0428952Y0293210D02*
X0378288Y0293210D01*
X0380695Y0294708D02*
X0430575Y0294708D01*
X0431276Y0297705D02*
X0472422Y0297705D01*
X0473030Y0296207D02*
X0439941Y0296207D01*
X0443069Y0294708D02*
X0473615Y0294708D01*
X0474121Y0293210D02*
X0462923Y0293210D01*
X0464710Y0291711D02*
X0474627Y0291711D01*
X0474970Y0290213D02*
X0465973Y0290213D01*
X0466593Y0288714D02*
X0475184Y0288714D01*
X0475398Y0287216D02*
X0467100Y0287216D01*
X0467100Y0285717D02*
X0475505Y0285717D01*
X0475610Y0284219D02*
X0467100Y0284219D01*
X0466525Y0282720D02*
X0475716Y0282720D01*
X0475822Y0281222D02*
X0465904Y0281222D01*
X0464544Y0279723D02*
X0475928Y0279723D01*
X0471814Y0299204D02*
X0433063Y0299204D01*
X0433964Y0300702D02*
X0471292Y0300702D01*
X0470900Y0302201D02*
X0434500Y0302201D01*
X0434514Y0303699D02*
X0470508Y0303699D01*
X0470116Y0305198D02*
X0435405Y0305198D01*
X0435699Y0306696D02*
X0469724Y0306696D01*
X0469332Y0308195D02*
X0435699Y0308195D01*
X0435699Y0309693D02*
X0469087Y0309693D01*
X0468917Y0311192D02*
X0435699Y0311192D01*
X0435699Y0312690D02*
X0468747Y0312690D01*
X0468570Y0314189D02*
X0435661Y0314189D01*
X0435112Y0315687D02*
X0468383Y0315687D01*
X0468196Y0317186D02*
X0435699Y0317186D01*
X0435699Y0318684D02*
X0468055Y0318684D01*
X0468077Y0320183D02*
X0443278Y0320183D01*
X0445591Y0321681D02*
X0468099Y0321681D01*
X0468121Y0323180D02*
X0446710Y0323180D01*
X0454088Y0324678D02*
X0468144Y0324678D01*
X0468166Y0326177D02*
X0455586Y0326177D01*
X0456356Y0327675D02*
X0468188Y0327675D01*
X0468310Y0329174D02*
X0456800Y0329174D01*
X0456800Y0330672D02*
X0468555Y0330672D01*
X0468801Y0332171D02*
X0456420Y0332171D01*
X0455740Y0333670D02*
X0469046Y0333670D01*
X0469291Y0335168D02*
X0454241Y0335168D01*
X0451258Y0336667D02*
X0469536Y0336667D01*
X0469798Y0338165D02*
X0449760Y0338165D01*
X0448261Y0339664D02*
X0470061Y0339664D01*
X0470323Y0341162D02*
X0437712Y0341162D01*
X0438944Y0342661D02*
X0470586Y0342661D01*
X0470849Y0344159D02*
X0442361Y0344159D01*
X0444567Y0345658D02*
X0471111Y0345658D01*
X0471374Y0347156D02*
X0445641Y0347156D01*
X0446262Y0348655D02*
X0471636Y0348655D01*
X0471899Y0350153D02*
X0446300Y0350153D01*
X0446135Y0351652D02*
X0472162Y0351652D01*
X0472424Y0353150D02*
X0445514Y0353150D01*
X0444261Y0354649D02*
X0472687Y0354649D01*
X0472950Y0356147D02*
X0441622Y0356147D01*
X0438378Y0356147D02*
X0437265Y0356147D01*
X0436753Y0357646D02*
X0473212Y0357646D01*
X0473475Y0359144D02*
X0436615Y0359144D01*
X0438114Y0360643D02*
X0473737Y0360643D01*
X0474159Y0362141D02*
X0439612Y0362141D01*
X0444538Y0363640D02*
X0474631Y0363640D01*
X0475513Y0365138D02*
X0445571Y0365138D01*
X0445965Y0366637D02*
X0476412Y0366637D01*
X0477311Y0368135D02*
X0445965Y0368135D01*
X0447105Y0369634D02*
X0478240Y0369634D01*
X0479384Y0371132D02*
X0448603Y0371132D01*
X0458440Y0372631D02*
X0480527Y0372631D01*
X0481671Y0374129D02*
X0459939Y0374129D01*
X0460561Y0375628D02*
X0482956Y0375628D01*
X0484543Y0377126D02*
X0460900Y0377126D01*
X0460900Y0378625D02*
X0486129Y0378625D01*
X0487716Y0380123D02*
X0460415Y0380123D01*
X0459588Y0381622D02*
X0489901Y0381622D01*
X0492141Y0383120D02*
X0457977Y0383120D01*
X0451223Y0383120D02*
X0428800Y0383120D01*
X0428800Y0381622D02*
X0444244Y0381622D01*
X0442745Y0380123D02*
X0441228Y0380123D01*
X0434972Y0380123D02*
X0429862Y0380123D01*
X0432185Y0378625D02*
X0433215Y0378625D01*
X0428800Y0384619D02*
X0494381Y0384619D01*
X0497267Y0386117D02*
X0428188Y0386117D01*
X0427568Y0387616D02*
X0500458Y0387616D01*
X0504504Y0389114D02*
X0427550Y0389114D01*
X0427550Y0390613D02*
X0508969Y0390613D01*
X0514569Y0392111D02*
X0427550Y0392111D01*
X0427550Y0393610D02*
X0519908Y0393610D01*
X0521122Y0395108D02*
X0427550Y0395108D01*
X0427550Y0396607D02*
X0522254Y0396607D01*
X0522307Y0398105D02*
X0483441Y0398105D01*
X0486811Y0399604D02*
X0522361Y0399604D01*
X0521734Y0401103D02*
X0503791Y0401103D01*
X0507574Y0402601D02*
X0519256Y0402601D01*
X0512023Y0404100D02*
X0510155Y0404100D01*
X0477050Y0398105D02*
X0427550Y0398105D01*
X0435982Y0399604D02*
X0473569Y0399604D01*
X0471768Y0401103D02*
X0438508Y0401103D01*
X0440319Y0402601D02*
X0470099Y0402601D01*
X0468431Y0404100D02*
X0454024Y0404100D01*
X0453925Y0404000D02*
X0454250Y0404325D01*
X0454481Y0404725D01*
X0454600Y0405170D01*
X0454600Y0407425D01*
X0448825Y0407425D01*
X0448825Y0408475D01*
X0447775Y0408475D01*
X0447775Y0412250D01*
X0443520Y0412250D01*
X0443075Y0412131D01*
X0442675Y0411900D01*
X0442350Y0411575D01*
X0442119Y0411175D01*
X0442000Y0410730D01*
X0442000Y0408475D01*
X0447775Y0408475D01*
X0447775Y0407425D01*
X0448825Y0407425D01*
X0448825Y0403650D01*
X0453080Y0403650D01*
X0453525Y0403769D01*
X0453925Y0404000D01*
X0454600Y0405598D02*
X0466762Y0405598D01*
X0465093Y0407097D02*
X0454600Y0407097D01*
X0454600Y0408475D02*
X0454600Y0410730D01*
X0454481Y0411175D01*
X0454250Y0411575D01*
X0453925Y0411900D01*
X0453525Y0412131D01*
X0453080Y0412250D01*
X0448825Y0412250D01*
X0448825Y0408475D01*
X0454600Y0408475D01*
X0454600Y0408595D02*
X0463425Y0408595D01*
X0461756Y0410094D02*
X0454600Y0410094D01*
X0454233Y0411592D02*
X0460087Y0411592D01*
X0458418Y0413091D02*
X0441100Y0413091D01*
X0441100Y0414589D02*
X0443478Y0414589D01*
X0442367Y0411592D02*
X0441100Y0411592D01*
X0441100Y0410094D02*
X0442000Y0410094D01*
X0442000Y0408595D02*
X0441100Y0408595D01*
X0442000Y0407425D02*
X0442000Y0405170D01*
X0442119Y0404725D01*
X0442350Y0404325D01*
X0442675Y0404000D01*
X0443075Y0403769D01*
X0443520Y0403650D01*
X0447775Y0403650D01*
X0447775Y0407425D01*
X0442000Y0407425D01*
X0442000Y0407097D02*
X0441100Y0407097D01*
X0441100Y0405598D02*
X0442000Y0405598D01*
X0442576Y0404100D02*
X0440973Y0404100D01*
X0447775Y0404100D02*
X0448825Y0404100D01*
X0448825Y0405598D02*
X0447775Y0405598D01*
X0447775Y0407097D02*
X0448825Y0407097D01*
X0448825Y0408595D02*
X0447775Y0408595D01*
X0447775Y0410094D02*
X0448825Y0410094D01*
X0448825Y0411592D02*
X0447775Y0411592D01*
X0436609Y0321681D02*
X0435699Y0321681D01*
X0435699Y0320183D02*
X0438922Y0320183D01*
X0417881Y0300702D02*
X0393996Y0300702D01*
X0391850Y0299204D02*
X0418987Y0299204D01*
X0421268Y0297705D02*
X0390351Y0297705D01*
X0398237Y0302201D02*
X0417261Y0302201D01*
X0433703Y0296207D02*
X0383102Y0296207D01*
X0424941Y0284219D02*
X0426271Y0284219D01*
X0426060Y0282720D02*
X0426672Y0282720D01*
X0426680Y0281222D02*
X0427283Y0281222D01*
X0426750Y0279723D02*
X0428148Y0279723D01*
X0445496Y0279723D02*
X0452656Y0279723D01*
X0451296Y0281222D02*
X0446361Y0281222D01*
X0446972Y0282720D02*
X0450675Y0282720D01*
X0450100Y0284219D02*
X0447373Y0284219D01*
X0447478Y0285717D02*
X0450100Y0285717D01*
X0450100Y0287216D02*
X0447478Y0287216D01*
X0447129Y0288714D02*
X0450607Y0288714D01*
X0451227Y0290213D02*
X0446700Y0290213D01*
X0445835Y0291711D02*
X0452490Y0291711D01*
X0454277Y0293210D02*
X0444693Y0293210D01*
X0193526Y0501269D02*
X0185522Y0496286D01*
X0184643Y0496650D01*
X0181957Y0496650D01*
X0179476Y0495622D01*
X0177578Y0493724D01*
X0177273Y0492988D01*
X0171000Y0490771D01*
X0170694Y0490898D01*
X0161706Y0490898D01*
X0161586Y0490848D01*
X0152361Y0490848D01*
X0151441Y0493069D01*
X0149669Y0494841D01*
X0147353Y0495800D01*
X0144847Y0495800D01*
X0144172Y0495521D01*
X0142653Y0496150D01*
X0140147Y0496150D01*
X0137831Y0495191D01*
X0136059Y0493419D01*
X0135100Y0491103D01*
X0135100Y0489415D01*
X0134624Y0488939D01*
X0133901Y0487193D01*
X0133901Y0479004D01*
X0134524Y0477500D01*
X0133901Y0475996D01*
X0133901Y0470424D01*
X0133841Y0470569D01*
X0132069Y0472341D01*
X0129753Y0473300D01*
X0127247Y0473300D01*
X0124931Y0472341D01*
X0123159Y0470569D01*
X0122335Y0468579D01*
X0120353Y0469400D01*
X0117847Y0469400D01*
X0115531Y0468441D01*
X0113759Y0466669D01*
X0112800Y0464353D01*
X0112800Y0461847D01*
X0113759Y0459531D01*
X0115531Y0457759D01*
X0117847Y0456800D01*
X0117975Y0456800D01*
X0121626Y0453149D01*
X0123556Y0452350D01*
X0132227Y0452350D01*
X0130500Y0450250D01*
X0130879Y0449389D01*
X0130853Y0449400D01*
X0128347Y0449400D01*
X0126031Y0448441D01*
X0124259Y0446669D01*
X0123300Y0444353D01*
X0123300Y0441847D01*
X0124259Y0439531D01*
X0126031Y0437759D01*
X0128347Y0436800D01*
X0130853Y0436800D01*
X0132335Y0437414D01*
X0132335Y0436690D01*
X0133058Y0434944D01*
X0133516Y0434487D01*
X0129844Y0430815D01*
X0127440Y0430815D01*
X0125694Y0430092D01*
X0124358Y0428756D01*
X0123635Y0427010D01*
X0123635Y0424606D01*
X0119679Y0420650D01*
X0118660Y0420650D01*
X0118569Y0420741D01*
X0116253Y0421700D01*
X0113747Y0421700D01*
X0111431Y0420741D01*
X0109659Y0418969D01*
X0108700Y0416653D01*
X0108700Y0414147D01*
X0109659Y0411831D01*
X0111431Y0410059D01*
X0113747Y0409100D01*
X0116253Y0409100D01*
X0118569Y0410059D01*
X0118660Y0410150D01*
X0122898Y0410150D01*
X0124827Y0410949D01*
X0126304Y0412426D01*
X0127484Y0413606D01*
X0127931Y0413159D01*
X0130247Y0412200D01*
X0132753Y0412200D01*
X0135069Y0413159D01*
X0136841Y0414931D01*
X0136876Y0415015D01*
X0138331Y0413559D01*
X0140647Y0412600D01*
X0141114Y0412600D01*
X0140800Y0411841D01*
X0140800Y0408459D01*
X0142050Y0405441D01*
X0142050Y0394050D01*
X0134956Y0394050D01*
X0133026Y0393251D01*
X0132254Y0392479D01*
X0130559Y0391777D01*
X0129223Y0390441D01*
X0128500Y0388695D01*
X0128500Y0377138D01*
X0126028Y0378565D01*
X0122913Y0379400D01*
X0111860Y0379400D01*
X0096335Y0393342D01*
X0093459Y0394802D01*
X0090303Y0395469D01*
X0087082Y0395296D01*
X0084016Y0394295D01*
X0081567Y0392700D01*
X0080600Y0392750D01*
X0069750Y0392950D01*
X0063750Y0391500D01*
X0059100Y0388800D01*
X0051500Y0389800D01*
X0047200Y0392400D01*
X0047350Y0396600D01*
X0049700Y0399500D01*
X0054700Y0400900D01*
X0061800Y0402800D01*
X0068750Y0405300D01*
X0074500Y0408000D01*
X0081750Y0412850D01*
X0087150Y0417950D01*
X0091500Y0423650D01*
X0094950Y0429400D01*
X0095800Y0432100D01*
X0100050Y0456350D01*
X0101400Y0464600D01*
X0101550Y0474750D01*
X0100950Y0479550D01*
X0100400Y0484400D01*
X0098150Y0493000D01*
X0096100Y0498050D01*
X0094750Y0502050D01*
X0094200Y0505900D01*
X0093600Y0514400D01*
X0106059Y0514380D01*
X0103794Y0512115D01*
X0102500Y0508991D01*
X0102500Y0505609D01*
X0103794Y0502485D01*
X0106185Y0500094D01*
X0109309Y0498800D01*
X0112691Y0498800D01*
X0115815Y0500094D01*
X0118206Y0502485D01*
X0119500Y0505609D01*
X0119500Y0508991D01*
X0118206Y0512115D01*
X0115956Y0514365D01*
X0124970Y0514350D01*
X0124251Y0513632D01*
X0122849Y0511202D01*
X0122122Y0508492D01*
X0122122Y0505686D01*
X0122849Y0502976D01*
X0124251Y0500546D01*
X0126235Y0498562D01*
X0128665Y0497160D01*
X0131375Y0496433D01*
X0134181Y0496433D01*
X0136891Y0497160D01*
X0139321Y0498562D01*
X0141304Y0500546D01*
X0142707Y0502976D01*
X0143433Y0505686D01*
X0143433Y0508492D01*
X0142707Y0511202D01*
X0141304Y0513632D01*
X0140611Y0514325D01*
X0142850Y0514322D01*
X0142850Y0512047D01*
X0143809Y0509731D01*
X0145581Y0507959D01*
X0147897Y0507000D01*
X0150403Y0507000D01*
X0152719Y0507959D01*
X0154491Y0509731D01*
X0155450Y0512047D01*
X0155450Y0514302D01*
X0188100Y0514250D01*
X0189517Y0513841D01*
X0188250Y0510781D01*
X0188250Y0507419D01*
X0189536Y0504313D01*
X0191913Y0501936D01*
X0193526Y0501269D01*
X0192960Y0501503D02*
X0141857Y0501503D01*
X0142714Y0503001D02*
X0190849Y0503001D01*
X0189459Y0504500D02*
X0143116Y0504500D01*
X0143433Y0505998D02*
X0188839Y0505998D01*
X0188250Y0507497D02*
X0151603Y0507497D01*
X0153755Y0508995D02*
X0188250Y0508995D01*
X0188250Y0510494D02*
X0154807Y0510494D01*
X0155427Y0511992D02*
X0188752Y0511992D01*
X0189373Y0513491D02*
X0155450Y0513491D01*
X0146697Y0507497D02*
X0143433Y0507497D01*
X0143299Y0508995D02*
X0144545Y0508995D01*
X0143493Y0510494D02*
X0142897Y0510494D01*
X0142873Y0511992D02*
X0142251Y0511992D01*
X0142850Y0513491D02*
X0141386Y0513491D01*
X0140762Y0500004D02*
X0191495Y0500004D01*
X0189088Y0498506D02*
X0139222Y0498506D01*
X0138599Y0495509D02*
X0097132Y0495509D01*
X0096523Y0497007D02*
X0129234Y0497007D01*
X0126333Y0498506D02*
X0095946Y0498506D01*
X0095440Y0500004D02*
X0106402Y0500004D01*
X0104776Y0501503D02*
X0094935Y0501503D01*
X0094614Y0503001D02*
X0103580Y0503001D01*
X0102960Y0504500D02*
X0094400Y0504500D01*
X0094193Y0505998D02*
X0102500Y0505998D01*
X0102500Y0507497D02*
X0094087Y0507497D01*
X0093982Y0508995D02*
X0102502Y0508995D01*
X0103123Y0510494D02*
X0093876Y0510494D01*
X0093770Y0511992D02*
X0103743Y0511992D01*
X0105170Y0513491D02*
X0093664Y0513491D01*
X0097740Y0494010D02*
X0136651Y0494010D01*
X0135683Y0492512D02*
X0098278Y0492512D01*
X0098670Y0491013D02*
X0135100Y0491013D01*
X0135100Y0489515D02*
X0099062Y0489515D01*
X0099454Y0488016D02*
X0134242Y0488016D01*
X0133901Y0486518D02*
X0099846Y0486518D01*
X0100238Y0485019D02*
X0133901Y0485019D01*
X0133901Y0483521D02*
X0100500Y0483521D01*
X0100670Y0482022D02*
X0133901Y0482022D01*
X0133901Y0480524D02*
X0100840Y0480524D01*
X0101016Y0479025D02*
X0133901Y0479025D01*
X0134513Y0477527D02*
X0101203Y0477527D01*
X0101390Y0476028D02*
X0133914Y0476028D01*
X0133901Y0474530D02*
X0101547Y0474530D01*
X0101525Y0473031D02*
X0126598Y0473031D01*
X0124123Y0471533D02*
X0101502Y0471533D01*
X0101480Y0470034D02*
X0122938Y0470034D01*
X0115760Y0468536D02*
X0101458Y0468536D01*
X0101436Y0467037D02*
X0114127Y0467037D01*
X0113291Y0465539D02*
X0101414Y0465539D01*
X0101308Y0464040D02*
X0112800Y0464040D01*
X0112800Y0462541D02*
X0101063Y0462541D01*
X0100818Y0461043D02*
X0113133Y0461043D01*
X0113754Y0459544D02*
X0100573Y0459544D01*
X0100328Y0458046D02*
X0115245Y0458046D01*
X0118228Y0456547D02*
X0100082Y0456547D01*
X0099822Y0455049D02*
X0119726Y0455049D01*
X0121225Y0453550D02*
X0099559Y0453550D01*
X0099297Y0452052D02*
X0131982Y0452052D01*
X0130749Y0450553D02*
X0099034Y0450553D01*
X0098771Y0449055D02*
X0127514Y0449055D01*
X0125147Y0447556D02*
X0098509Y0447556D01*
X0098246Y0446058D02*
X0124006Y0446058D01*
X0123385Y0444559D02*
X0097984Y0444559D01*
X0097721Y0443061D02*
X0123300Y0443061D01*
X0123418Y0441562D02*
X0097458Y0441562D01*
X0097196Y0440064D02*
X0124039Y0440064D01*
X0125225Y0438565D02*
X0096933Y0438565D01*
X0096670Y0437067D02*
X0127703Y0437067D01*
X0131497Y0437067D02*
X0132335Y0437067D01*
X0132800Y0435568D02*
X0096408Y0435568D01*
X0096145Y0434070D02*
X0133099Y0434070D01*
X0131600Y0432571D02*
X0095883Y0432571D01*
X0095477Y0431073D02*
X0130102Y0431073D01*
X0125176Y0429574D02*
X0095005Y0429574D01*
X0094155Y0428076D02*
X0124076Y0428076D01*
X0123635Y0426577D02*
X0093256Y0426577D01*
X0092357Y0425079D02*
X0123635Y0425079D01*
X0122609Y0423580D02*
X0091447Y0423580D01*
X0090303Y0422082D02*
X0121111Y0422082D01*
X0111274Y0420583D02*
X0089160Y0420583D01*
X0088016Y0419085D02*
X0109775Y0419085D01*
X0109086Y0417586D02*
X0086765Y0417586D01*
X0085178Y0416088D02*
X0108700Y0416088D01*
X0108700Y0414589D02*
X0083591Y0414589D01*
X0082005Y0413091D02*
X0109137Y0413091D01*
X0109898Y0411592D02*
X0079870Y0411592D01*
X0077630Y0410094D02*
X0111397Y0410094D01*
X0118603Y0410094D02*
X0140800Y0410094D01*
X0140800Y0411592D02*
X0125470Y0411592D01*
X0126969Y0413091D02*
X0128097Y0413091D01*
X0134903Y0413091D02*
X0139462Y0413091D01*
X0137301Y0414589D02*
X0136499Y0414589D01*
X0140800Y0408595D02*
X0075390Y0408595D01*
X0072576Y0407097D02*
X0141364Y0407097D01*
X0141985Y0405598D02*
X0069385Y0405598D01*
X0065413Y0404100D02*
X0142050Y0404100D01*
X0142050Y0402601D02*
X0061056Y0402601D01*
X0055457Y0401103D02*
X0142050Y0401103D01*
X0142050Y0399604D02*
X0050071Y0399604D01*
X0048570Y0398105D02*
X0142050Y0398105D01*
X0142050Y0396607D02*
X0047356Y0396607D01*
X0047297Y0395108D02*
X0086508Y0395108D01*
X0082964Y0393610D02*
X0047243Y0393610D01*
X0047677Y0392111D02*
X0066280Y0392111D01*
X0062222Y0390613D02*
X0050156Y0390613D01*
X0056710Y0389114D02*
X0059642Y0389114D01*
X0092010Y0395108D02*
X0142050Y0395108D01*
X0133893Y0393610D02*
X0095807Y0393610D01*
X0097705Y0392111D02*
X0131367Y0392111D01*
X0129395Y0390613D02*
X0099374Y0390613D01*
X0101042Y0389114D02*
X0115700Y0389114D01*
X0115675Y0389100D02*
X0115350Y0388775D01*
X0115119Y0388375D01*
X0115000Y0387930D01*
X0115000Y0385675D01*
X0120775Y0385675D01*
X0120775Y0389450D01*
X0116520Y0389450D01*
X0116075Y0389331D01*
X0115675Y0389100D01*
X0115000Y0387616D02*
X0102711Y0387616D01*
X0104380Y0386117D02*
X0115000Y0386117D01*
X0115000Y0384625D02*
X0115000Y0382370D01*
X0115119Y0381925D01*
X0115350Y0381525D01*
X0115675Y0381200D01*
X0116075Y0380969D01*
X0116520Y0380850D01*
X0120775Y0380850D01*
X0120775Y0384625D01*
X0121825Y0384625D01*
X0121825Y0385675D01*
X0120775Y0385675D01*
X0120775Y0384625D01*
X0115000Y0384625D01*
X0115000Y0384619D02*
X0106048Y0384619D01*
X0107717Y0383120D02*
X0115000Y0383120D01*
X0115294Y0381622D02*
X0109386Y0381622D01*
X0111055Y0380123D02*
X0128500Y0380123D01*
X0128500Y0378625D02*
X0125806Y0378625D01*
X0126080Y0380850D02*
X0121825Y0380850D01*
X0121825Y0384625D01*
X0127600Y0384625D01*
X0127600Y0382370D01*
X0127481Y0381925D01*
X0127250Y0381525D01*
X0126925Y0381200D01*
X0126525Y0380969D01*
X0126080Y0380850D01*
X0127306Y0381622D02*
X0128500Y0381622D01*
X0128500Y0383120D02*
X0127600Y0383120D01*
X0127600Y0384619D02*
X0128500Y0384619D01*
X0127600Y0385675D02*
X0121825Y0385675D01*
X0121825Y0389450D01*
X0126080Y0389450D01*
X0126525Y0389331D01*
X0126925Y0389100D01*
X0127250Y0388775D01*
X0127481Y0388375D01*
X0127600Y0387930D01*
X0127600Y0385675D01*
X0127600Y0386117D02*
X0128500Y0386117D01*
X0128500Y0387616D02*
X0127600Y0387616D01*
X0126900Y0389114D02*
X0128674Y0389114D01*
X0121825Y0389114D02*
X0120775Y0389114D01*
X0120775Y0387616D02*
X0121825Y0387616D01*
X0121825Y0386117D02*
X0120775Y0386117D01*
X0120775Y0384619D02*
X0121825Y0384619D01*
X0121825Y0383120D02*
X0120775Y0383120D01*
X0120775Y0381622D02*
X0121825Y0381622D01*
X0132877Y0471533D02*
X0133901Y0471533D01*
X0133901Y0473031D02*
X0130402Y0473031D01*
X0152292Y0491013D02*
X0171685Y0491013D01*
X0175926Y0492512D02*
X0151672Y0492512D01*
X0150499Y0494010D02*
X0177864Y0494010D01*
X0179363Y0495509D02*
X0148056Y0495509D01*
X0136322Y0497007D02*
X0186681Y0497007D01*
X0124793Y0500004D02*
X0115598Y0500004D01*
X0117224Y0501503D02*
X0123699Y0501503D01*
X0122842Y0503001D02*
X0118420Y0503001D01*
X0119040Y0504500D02*
X0122440Y0504500D01*
X0122122Y0505998D02*
X0119500Y0505998D01*
X0119500Y0507497D02*
X0122122Y0507497D01*
X0122257Y0508995D02*
X0119498Y0508995D01*
X0118877Y0510494D02*
X0122659Y0510494D01*
X0123305Y0511992D02*
X0118257Y0511992D01*
X0116830Y0513491D02*
X0124170Y0513491D01*
D35*
X0142200Y0471902D02*
X0142200Y0464600D01*
X0142100Y0464500D01*
X0161200Y0465900D02*
X0166200Y0470900D01*
X0166200Y0471802D01*
X0177598Y0385200D02*
X0179500Y0385200D01*
X0187600Y0378900D01*
X0185300Y0362900D02*
X0183700Y0361300D01*
X0177598Y0361300D01*
X0052000Y0353902D02*
X0052000Y0351500D01*
X0048200Y0347700D01*
X0032700Y0348600D02*
X0028000Y0353300D01*
X0028000Y0353902D01*
X0095000Y0182800D02*
X0101102Y0182800D01*
X0095000Y0182800D02*
X0093400Y0181200D01*
X0091100Y0165200D02*
X0099200Y0158900D01*
X0101102Y0158900D01*
X0136600Y0079600D02*
X0136500Y0079500D01*
X0136500Y0072198D01*
X0117500Y0078200D02*
X0112500Y0073200D01*
X0112500Y0072298D01*
X0226700Y0190198D02*
X0226700Y0192600D01*
X0230500Y0196400D01*
X0246000Y0195500D02*
X0250700Y0190800D01*
X0250700Y0190198D01*
X0308700Y0084902D02*
X0308700Y0084300D01*
X0313400Y0079600D01*
X0328900Y0078700D02*
X0332700Y0082500D01*
X0332700Y0084902D01*
X0422800Y0195500D02*
X0422900Y0195600D01*
X0422900Y0202902D01*
X0441900Y0196900D02*
X0446900Y0201900D01*
X0446900Y0202802D01*
X0458298Y0116200D02*
X0460200Y0116200D01*
X0468300Y0109900D01*
X0466000Y0093900D02*
X0464400Y0092300D01*
X0458298Y0092300D01*
X0427400Y0321198D02*
X0427400Y0328500D01*
X0427500Y0328600D01*
X0408400Y0327200D02*
X0403400Y0322200D01*
X0403400Y0321298D01*
X0392002Y0407900D02*
X0390100Y0407900D01*
X0382000Y0414200D01*
X0384300Y0430200D02*
X0385900Y0431800D01*
X0392002Y0431800D01*
X0517600Y0439198D02*
X0517600Y0441600D01*
X0521400Y0445400D01*
X0536900Y0444500D02*
X0541600Y0439800D01*
X0541600Y0439198D01*
D36*
X0415900Y0409100D02*
X0415900Y0395600D01*
X0153700Y0397500D02*
X0153700Y0384000D01*
X0125000Y0160100D02*
X0125000Y0146600D01*
X0434400Y0128500D02*
X0434400Y0115000D01*
M02*
