%
M48
M72
T01C0.01200
T02C0.01500
T03C0.01518
T04C0.02756
T05C0.03543
T06C0.04000
T07C0.04724
T08C0.05000
T09C0.11811
%
T01
X36300Y100250
X36150Y103700
X39800Y102250
X30300Y110000
X104800Y168900
X104800Y172850
X108750Y172850
X108750Y168900
X122550Y68500
X122550Y64550
X126500Y64550
X126500Y68500
X236700Y182650
X240650Y182650
X240650Y186650
X236700Y186650
X318750Y92450
X322700Y92450
X322700Y88450
X318750Y88450
X450650Y102250
X450650Y106200
X454600Y106200
X454600Y102250
X519600Y172850
X523250Y171400
X523100Y174850
X529100Y165100
X436850Y206600
X436850Y210550
X432900Y210550
X432900Y206600
X417400Y313550
X413450Y313550
X413450Y317500
X417400Y317500
X330700Y351250
X327050Y352700
X327200Y349250
X321200Y359000
X395700Y417900
X399650Y417900
X399650Y421850
X395700Y421850
X527600Y431650
X531550Y431650
X531550Y435650
X527600Y435650
X248400Y434100
X242550Y440400
X242400Y443850
X238900Y441850
X173900Y375200
X173900Y371250
X169950Y371250
X169950Y375200
X156150Y475600
X156150Y479550
X152200Y479550
X152200Y475600
X42000Y361450
X38050Y361450
X38050Y357450
X42000Y357450
T02
X48200Y347700
X52200Y337100
X47700Y336000
X57246Y336900
X65500Y331050
X98400Y340700
X111900Y349500
X110100Y353400
X106700Y356700
X119600Y356700
X93050Y379200
X89350Y383150
X88000Y387900
X84050Y383200
X86900Y378000
X94050Y385600
X115300Y396800
X124700Y400300
X124550Y392650
X139550Y396600
X139700Y402050
X141900Y418900
X131500Y418500
X115000Y415400
X143900Y431400
X156800Y430700
X157800Y434500
X158800Y438300
X180200Y446200
X174900Y462000
X170250Y463300
X161200Y465900
X177100Y479350
X189600Y474500
X192600Y479000
X195500Y472300
X201700Y477800
X206100Y478700
X211700Y483500
X207600Y485800
X187300Y502100
X182950Y505200
X180100Y501250
X177600Y508650
X183100Y510500
X187500Y507450
X169650Y509550
X163750Y509700
X157000Y511450
X149150Y513300
X146100Y489500
X141400Y489850
X119550Y500100
X128500Y467000
X126800Y463300
X132800Y461500
X142100Y464500
X119100Y463100
X129600Y443100
X162350Y407500
X174600Y413400
X181700Y414700
X187900Y416100
X192300Y413900
X198500Y415600
X200900Y411900
X214400Y413900
X205100Y426900
X201900Y429900
X197000Y429800
X192300Y428200
X183700Y427300
X200800Y441900
X207900Y443200
X210356Y440044
X221700Y441900
X225600Y447200
X232500Y451100
X233050Y456500
X237550Y464050
X245250Y459100
X255600Y438200
X232200Y434300
X222200Y429200
X232000Y414600
X241000Y403500
X256300Y384800
X230700Y363550
X221700Y369500
X217100Y377500
X212050Y368450
X204600Y392900
X203600Y398600
X183700Y403300
X187600Y378900
X185300Y362900
X172800Y343700
X166800Y344000
X161200Y343800
X160550Y359150
X156400Y359000
X150600Y362250
X179250Y339600
X124700Y326900
X117600Y329150
X60300Y372500
X59800Y376600
X53900Y392050
X56750Y396150
X62150Y394800
X60700Y400900
X50450Y397200
X36650Y375850
X25400Y372800
X24300Y377950
X32700Y348600
X154000Y217200
X161100Y214950
X180300Y203400
X166800Y194600
X168600Y190700
X172000Y187400
X159100Y187400
X128100Y181850
X122300Y185100
X118150Y184950
X111900Y200100
X117500Y200300
X105900Y200400
X99450Y204500
X93400Y181200
X91100Y165200
X74100Y151200
X75100Y145500
X77800Y132200
X80200Y128500
X86400Y130200
X90800Y128000
X97000Y129400
X104100Y130700
X95000Y140800
X116350Y136600
X136800Y125200
X147200Y125600
X134800Y112700
X121900Y113400
X120900Y109600
X119900Y105800
X98500Y97900
X103800Y82100
X108450Y80800
X117500Y78200
X136600Y79600
X145900Y82600
X151900Y80800
X150200Y77100
X159600Y81000
X149100Y101000
X163700Y128700
X154000Y143800
X154150Y151450
X163400Y147300
X184650Y158500
X189350Y160950
X190700Y156200
X194650Y160900
X191800Y166100
X185650Y164900
X216550Y149300
X221950Y147950
X224800Y152050
X228250Y146900
X218000Y143200
X218900Y167500
X218400Y171600
X242050Y168250
X253300Y171300
X254400Y166150
X246000Y195500
X230500Y196400
X226500Y207000
X231000Y208100
X221454Y207200
X213200Y213050
X139150Y147500
X139000Y142050
X95000Y116800
X86400Y115900
X81700Y114300
X76800Y114200
X73600Y117200
X64300Y130200
X56500Y114900
X46500Y109800
X57000Y102200
X53100Y96900
X46200Y93000
X45650Y87600
X41150Y80050
X33450Y85000
X23100Y105900
X46700Y129500
X37700Y140600
X22400Y159300
X48000Y180550
X57000Y174600
X61600Y166600
X66650Y175650
X68344Y104056
X70800Y100900
X77900Y102200
X79600Y91400
X76200Y85400
X72300Y82900
X72463Y89217
X89650Y83450
X83200Y71800
X89100Y69600
X86100Y65100
X77000Y66300
X72600Y65400
X71100Y58300
X67000Y60600
X91400Y42000
X95750Y38900
X98600Y42850
X101100Y35450
X95600Y33600
X91200Y36650
X109050Y34550
X114950Y34400
X121700Y32650
X129550Y30800
X132600Y54600
X137300Y54250
X159150Y44000
X101600Y64750
X305000Y108950
X306100Y103800
X317350Y106850
X334600Y123050
X337450Y127150
X342850Y125800
X341400Y131900
X331150Y128200
X340500Y107600
X341000Y103500
X364750Y114200
X370050Y114150
X368700Y118900
X374750Y116600
X373750Y110200
X367600Y109000
X387400Y87700
X390800Y84400
X392600Y80500
X400300Y87700
X379100Y71700
X398300Y60150
X405400Y57900
X441900Y74800
X447500Y75000
X453500Y74700
X459950Y70600
X466000Y93900
X468300Y109900
X485300Y123900
X484300Y129600
X481600Y142900
X479200Y146600
X473000Y144900
X468600Y147100
X462400Y145700
X455300Y144400
X464400Y134300
X443050Y138500
X420400Y133050
X420250Y127600
X405400Y131300
X405250Y123650
X396000Y127800
X395700Y146400
X412200Y149500
X422600Y149900
X424600Y162400
X437500Y161700
X438500Y165500
X439500Y169300
X460900Y177200
X455600Y193000
X450950Y194300
X441900Y196900
X457800Y210350
X470300Y205500
X473300Y210000
X476200Y203300
X482400Y208800
X486800Y209700
X492400Y214500
X488300Y216800
X468000Y233100
X463650Y236200
X460800Y232250
X458300Y239650
X463800Y241500
X468200Y238450
X450350Y240550
X444450Y240700
X437700Y242450
X429850Y244300
X426800Y220500
X422100Y220850
X400250Y231100
X409200Y198000
X407500Y194300
X413500Y192500
X422800Y195500
X399800Y194100
X410300Y174100
X464400Y158300
X473000Y159200
X477700Y160800
X482600Y160900
X485800Y157900
X495100Y144900
X502900Y160200
X512900Y165300
X502400Y172900
X506300Y178200
X513200Y182100
X513750Y187500
X518250Y195050
X525950Y190100
X536300Y169200
X512700Y145600
X521700Y134500
X537000Y115800
X511400Y94550
X502400Y100500
X497800Y108500
X492750Y99450
X441250Y90150
X437100Y90000
X431300Y93250
X346200Y62050
X337946Y67900
X332900Y68100
X328400Y67000
X328900Y78700
X313400Y79600
X469750Y191650
X479800Y183700
X483200Y189700
X487100Y192200
X486937Y185883
X488600Y174200
X491056Y171044
X481500Y172900
X420450Y279800
X412600Y281650
X405850Y283400
X399950Y283550
X392000Y284450
X386500Y282600
X386650Y287900
X389500Y291850
X382300Y291000
X382100Y285650
X362000Y307300
X357900Y309600
X363500Y314400
X367900Y315300
X374100Y320800
X380000Y318600
X377000Y314100
X392500Y313750
X399350Y329800
X394700Y331100
X408400Y327200
X427500Y328600
X436800Y331600
X442800Y329800
X441100Y326100
X450500Y330000
X440000Y350000
X425700Y361700
X412800Y362400
X411800Y358600
X410800Y354800
X389400Y346900
X380550Y332450
X370500Y340400
X367100Y334400
X363200Y331900
X363363Y338217
X361700Y349900
X359244Y353056
X368800Y351200
X367700Y363200
X364500Y366200
X372600Y363300
X377300Y364900
X385900Y365800
X381700Y377000
X377300Y379200
X371100Y377500
X368700Y381200
X366000Y394500
X365000Y400200
X352500Y415600
X347900Y423600
X338900Y429550
X357550Y424650
X382000Y414200
X384300Y430200
X396800Y449400
X402800Y449100
X408400Y449300
X409050Y433950
X413200Y434100
X419000Y430850
X450000Y436400
X459500Y439700
X457700Y443600
X462900Y436400
X471200Y452400
X452000Y463950
X444900Y466200
X390350Y453500
X430050Y396500
X429900Y391050
X444900Y392800
X445050Y400450
X454300Y396300
X454600Y377700
X438100Y374600
X427700Y374200
X407250Y385600
X395000Y379700
X387900Y378400
X385900Y389800
X355200Y379200
X347400Y363900
X337400Y358800
X347900Y351200
X344000Y345900
X337100Y342000
X336550Y336600
X332050Y329050
X324350Y334000
X314000Y354900
X337600Y378500
X328600Y389600
X313300Y408300
X206237Y454883
X202500Y458700
X206400Y461200
X199100Y452700
X189050Y460650
X423500Y303600
X428200Y303250
X450050Y293000
X508900Y392200
X512850Y396950
X515700Y401050
X519150Y395900
X507450Y398300
X509800Y416500
X509300Y420600
X532950Y417250
X544200Y420300
X545300Y415150
X536900Y444500
X521400Y445400
X517400Y456000
X521900Y457100
X512354Y456200
X504100Y462050
X482700Y415100
X480250Y409950
X481600Y405200
X485550Y409900
X476550Y413900
X475550Y407500
T03
X48200Y45000
X51300Y51700
X38500Y60600
X38500Y69800
X67800Y48100
X95400Y54200
X79500Y83000
X74000Y98700
X95600Y93400
X100000Y88700
X97800Y102300
X101800Y108900
X113700Y140100
X113900Y152300
X170800Y203200
X175100Y203800
X107900Y340900
X103600Y340300
X164800Y391800
X165000Y404000
X176900Y435200
X180900Y441800
X183100Y450700
X178700Y455400
X199200Y461100
X204700Y445400
X240200Y474300
X240200Y483500
X227400Y492400
X230500Y499100
X210900Y496000
X183300Y489900
X364900Y347700
X370400Y332000
X386500Y342400
X390900Y337700
X388700Y351300
X392700Y357900
X404600Y389100
X404800Y401300
X461700Y452200
X466000Y452800
X329400Y318800
X329400Y309600
X342200Y300700
X339100Y294000
X358700Y297100
X386300Y303200
X464000Y220900
X491600Y227000
X508100Y223400
X511200Y230100
X520900Y214500
X520900Y205300
X485400Y176400
X479900Y192100
X463800Y181700
X459400Y186400
X461600Y172800
X457600Y166200
X445700Y135000
X445500Y122800
X388600Y71900
X384300Y71300
T04
X367000Y86300
X367000Y93800
X367000Y101300
X359500Y101300
X359500Y93800
X359500Y86300
X357000Y53400
X357000Y45900
X410300Y45800
X410300Y53300
X410300Y60800
X417800Y60800
X417800Y53300
X417800Y45800
X302400Y44000
X302400Y51500
X302400Y59000
X302400Y66500
X199900Y173800
X192400Y173800
X192400Y181300
X192400Y188800
X199900Y188800
X199900Y181300
X202400Y221700
X202400Y229200
X149100Y229300
X149100Y221800
X149100Y214300
X141600Y214300
X141600Y221800
X141600Y229300
X137100Y314800
X129600Y314800
X129600Y322300
X129600Y329800
X137100Y329800
X137100Y322300
X86300Y355300
X86300Y362800
X86300Y370300
X78800Y370300
X78800Y362800
X78800Y355300
X76300Y322400
X76300Y314900
X21700Y313000
X21700Y320500
X21700Y328000
X21700Y335500
X257000Y231100
X257000Y223600
X257000Y216100
X257000Y208600
X483300Y422800
X483300Y430300
X490800Y430300
X490800Y422800
X490800Y437800
X483300Y437800
X493300Y470700
X493300Y478200
X547900Y480100
X547900Y472600
X547900Y465100
X547900Y457600
X440000Y463300
X432500Y463300
X432500Y470800
X432500Y478300
X440000Y478300
X440000Y470800
T05
X321264Y422292
X322123Y402626
X247477Y390474
X248335Y370808
X30364Y173292
X31223Y153626
X528177Y121474
X529035Y101808
T06
X533374Y186703
X533025Y196697
X487400Y240100
X477400Y240100
X372900Y284000
X362900Y284000
X317274Y327403
X316925Y337397
X430000Y445600
X440000Y445600
X252674Y455703
X252325Y465697
X206700Y509100
X196700Y509100
X139600Y347500
X129600Y347500
X139100Y196600
X149100Y196600
X26025Y88397
X26374Y78403
X72000Y35000
X82000Y35000
X410300Y78500
X420300Y78500
T07
X539827Y98338
X538625Y125871
X259127Y367338
X257925Y394871
X311675Y398229
X310473Y425762
X19573Y176762
X20775Y149229
T08
X26700Y117800
X115600Y146600
X167700Y36800
X302400Y75800
X257000Y199300
X391700Y238300
X458600Y285800
X406500Y395600
X317600Y366800
X252000Y426300
X163100Y397500
X111000Y507300
X21700Y344800
X443800Y128500
X532700Y157300
X547900Y448300
T09
X543357Y496838
X316468Y441129
X253132Y351971
X252457Y247838
X413478Y238089
X436822Y286011
X533832Y82971
X306943Y27262
X145922Y37011
X25568Y192129
X26243Y296262
X132778Y507089
M30
