G75*
%MOIN*%
%OFA0B0*%
%FSLAX25Y25*%
%IPPOS*%
%LPD*%
%AMOC8*
5,1,8,0,0,1.08239X$1,22.5*
%
%ADD10C,0.00000*%
%ADD11C,0.00400*%
%ADD12C,0.00500*%
D10*
X0001000Y0001000D02*
X0001000Y0526000D01*
X0571000Y0526000D01*
X0571000Y0001000D01*
X0001000Y0001000D01*
X0140016Y0037011D02*
X0140018Y0037164D01*
X0140024Y0037318D01*
X0140034Y0037471D01*
X0140048Y0037623D01*
X0140066Y0037776D01*
X0140088Y0037927D01*
X0140113Y0038078D01*
X0140143Y0038229D01*
X0140177Y0038379D01*
X0140214Y0038527D01*
X0140255Y0038675D01*
X0140300Y0038821D01*
X0140349Y0038967D01*
X0140402Y0039111D01*
X0140458Y0039253D01*
X0140518Y0039394D01*
X0140582Y0039534D01*
X0140649Y0039672D01*
X0140720Y0039808D01*
X0140795Y0039942D01*
X0140872Y0040074D01*
X0140954Y0040204D01*
X0141038Y0040332D01*
X0141126Y0040458D01*
X0141217Y0040581D01*
X0141311Y0040702D01*
X0141409Y0040820D01*
X0141509Y0040936D01*
X0141613Y0041049D01*
X0141719Y0041160D01*
X0141828Y0041268D01*
X0141940Y0041373D01*
X0142054Y0041474D01*
X0142172Y0041573D01*
X0142291Y0041669D01*
X0142413Y0041762D01*
X0142538Y0041851D01*
X0142665Y0041938D01*
X0142794Y0042020D01*
X0142925Y0042100D01*
X0143058Y0042176D01*
X0143193Y0042249D01*
X0143330Y0042318D01*
X0143469Y0042383D01*
X0143609Y0042445D01*
X0143751Y0042503D01*
X0143894Y0042558D01*
X0144039Y0042609D01*
X0144185Y0042656D01*
X0144332Y0042699D01*
X0144480Y0042738D01*
X0144629Y0042774D01*
X0144779Y0042805D01*
X0144930Y0042833D01*
X0145081Y0042857D01*
X0145234Y0042877D01*
X0145386Y0042893D01*
X0145539Y0042905D01*
X0145692Y0042913D01*
X0145845Y0042917D01*
X0145999Y0042917D01*
X0146152Y0042913D01*
X0146305Y0042905D01*
X0146458Y0042893D01*
X0146610Y0042877D01*
X0146763Y0042857D01*
X0146914Y0042833D01*
X0147065Y0042805D01*
X0147215Y0042774D01*
X0147364Y0042738D01*
X0147512Y0042699D01*
X0147659Y0042656D01*
X0147805Y0042609D01*
X0147950Y0042558D01*
X0148093Y0042503D01*
X0148235Y0042445D01*
X0148375Y0042383D01*
X0148514Y0042318D01*
X0148651Y0042249D01*
X0148786Y0042176D01*
X0148919Y0042100D01*
X0149050Y0042020D01*
X0149179Y0041938D01*
X0149306Y0041851D01*
X0149431Y0041762D01*
X0149553Y0041669D01*
X0149672Y0041573D01*
X0149790Y0041474D01*
X0149904Y0041373D01*
X0150016Y0041268D01*
X0150125Y0041160D01*
X0150231Y0041049D01*
X0150335Y0040936D01*
X0150435Y0040820D01*
X0150533Y0040702D01*
X0150627Y0040581D01*
X0150718Y0040458D01*
X0150806Y0040332D01*
X0150890Y0040204D01*
X0150972Y0040074D01*
X0151049Y0039942D01*
X0151124Y0039808D01*
X0151195Y0039672D01*
X0151262Y0039534D01*
X0151326Y0039394D01*
X0151386Y0039253D01*
X0151442Y0039111D01*
X0151495Y0038967D01*
X0151544Y0038821D01*
X0151589Y0038675D01*
X0151630Y0038527D01*
X0151667Y0038379D01*
X0151701Y0038229D01*
X0151731Y0038078D01*
X0151756Y0037927D01*
X0151778Y0037776D01*
X0151796Y0037623D01*
X0151810Y0037471D01*
X0151820Y0037318D01*
X0151826Y0037164D01*
X0151828Y0037011D01*
X0151826Y0036858D01*
X0151820Y0036704D01*
X0151810Y0036551D01*
X0151796Y0036399D01*
X0151778Y0036246D01*
X0151756Y0036095D01*
X0151731Y0035944D01*
X0151701Y0035793D01*
X0151667Y0035643D01*
X0151630Y0035495D01*
X0151589Y0035347D01*
X0151544Y0035201D01*
X0151495Y0035055D01*
X0151442Y0034911D01*
X0151386Y0034769D01*
X0151326Y0034628D01*
X0151262Y0034488D01*
X0151195Y0034350D01*
X0151124Y0034214D01*
X0151049Y0034080D01*
X0150972Y0033948D01*
X0150890Y0033818D01*
X0150806Y0033690D01*
X0150718Y0033564D01*
X0150627Y0033441D01*
X0150533Y0033320D01*
X0150435Y0033202D01*
X0150335Y0033086D01*
X0150231Y0032973D01*
X0150125Y0032862D01*
X0150016Y0032754D01*
X0149904Y0032649D01*
X0149790Y0032548D01*
X0149672Y0032449D01*
X0149553Y0032353D01*
X0149431Y0032260D01*
X0149306Y0032171D01*
X0149179Y0032084D01*
X0149050Y0032002D01*
X0148919Y0031922D01*
X0148786Y0031846D01*
X0148651Y0031773D01*
X0148514Y0031704D01*
X0148375Y0031639D01*
X0148235Y0031577D01*
X0148093Y0031519D01*
X0147950Y0031464D01*
X0147805Y0031413D01*
X0147659Y0031366D01*
X0147512Y0031323D01*
X0147364Y0031284D01*
X0147215Y0031248D01*
X0147065Y0031217D01*
X0146914Y0031189D01*
X0146763Y0031165D01*
X0146610Y0031145D01*
X0146458Y0031129D01*
X0146305Y0031117D01*
X0146152Y0031109D01*
X0145999Y0031105D01*
X0145845Y0031105D01*
X0145692Y0031109D01*
X0145539Y0031117D01*
X0145386Y0031129D01*
X0145234Y0031145D01*
X0145081Y0031165D01*
X0144930Y0031189D01*
X0144779Y0031217D01*
X0144629Y0031248D01*
X0144480Y0031284D01*
X0144332Y0031323D01*
X0144185Y0031366D01*
X0144039Y0031413D01*
X0143894Y0031464D01*
X0143751Y0031519D01*
X0143609Y0031577D01*
X0143469Y0031639D01*
X0143330Y0031704D01*
X0143193Y0031773D01*
X0143058Y0031846D01*
X0142925Y0031922D01*
X0142794Y0032002D01*
X0142665Y0032084D01*
X0142538Y0032171D01*
X0142413Y0032260D01*
X0142291Y0032353D01*
X0142172Y0032449D01*
X0142054Y0032548D01*
X0141940Y0032649D01*
X0141828Y0032754D01*
X0141719Y0032862D01*
X0141613Y0032973D01*
X0141509Y0033086D01*
X0141409Y0033202D01*
X0141311Y0033320D01*
X0141217Y0033441D01*
X0141126Y0033564D01*
X0141038Y0033690D01*
X0140954Y0033818D01*
X0140872Y0033948D01*
X0140795Y0034080D01*
X0140720Y0034214D01*
X0140649Y0034350D01*
X0140582Y0034488D01*
X0140518Y0034628D01*
X0140458Y0034769D01*
X0140402Y0034911D01*
X0140349Y0035055D01*
X0140300Y0035201D01*
X0140255Y0035347D01*
X0140214Y0035495D01*
X0140177Y0035643D01*
X0140143Y0035793D01*
X0140113Y0035944D01*
X0140088Y0036095D01*
X0140066Y0036246D01*
X0140048Y0036399D01*
X0140034Y0036551D01*
X0140024Y0036704D01*
X0140018Y0036858D01*
X0140016Y0037011D01*
X0301037Y0027262D02*
X0301039Y0027415D01*
X0301045Y0027569D01*
X0301055Y0027722D01*
X0301069Y0027874D01*
X0301087Y0028027D01*
X0301109Y0028178D01*
X0301134Y0028329D01*
X0301164Y0028480D01*
X0301198Y0028630D01*
X0301235Y0028778D01*
X0301276Y0028926D01*
X0301321Y0029072D01*
X0301370Y0029218D01*
X0301423Y0029362D01*
X0301479Y0029504D01*
X0301539Y0029645D01*
X0301603Y0029785D01*
X0301670Y0029923D01*
X0301741Y0030059D01*
X0301816Y0030193D01*
X0301893Y0030325D01*
X0301975Y0030455D01*
X0302059Y0030583D01*
X0302147Y0030709D01*
X0302238Y0030832D01*
X0302332Y0030953D01*
X0302430Y0031071D01*
X0302530Y0031187D01*
X0302634Y0031300D01*
X0302740Y0031411D01*
X0302849Y0031519D01*
X0302961Y0031624D01*
X0303075Y0031725D01*
X0303193Y0031824D01*
X0303312Y0031920D01*
X0303434Y0032013D01*
X0303559Y0032102D01*
X0303686Y0032189D01*
X0303815Y0032271D01*
X0303946Y0032351D01*
X0304079Y0032427D01*
X0304214Y0032500D01*
X0304351Y0032569D01*
X0304490Y0032634D01*
X0304630Y0032696D01*
X0304772Y0032754D01*
X0304915Y0032809D01*
X0305060Y0032860D01*
X0305206Y0032907D01*
X0305353Y0032950D01*
X0305501Y0032989D01*
X0305650Y0033025D01*
X0305800Y0033056D01*
X0305951Y0033084D01*
X0306102Y0033108D01*
X0306255Y0033128D01*
X0306407Y0033144D01*
X0306560Y0033156D01*
X0306713Y0033164D01*
X0306866Y0033168D01*
X0307020Y0033168D01*
X0307173Y0033164D01*
X0307326Y0033156D01*
X0307479Y0033144D01*
X0307631Y0033128D01*
X0307784Y0033108D01*
X0307935Y0033084D01*
X0308086Y0033056D01*
X0308236Y0033025D01*
X0308385Y0032989D01*
X0308533Y0032950D01*
X0308680Y0032907D01*
X0308826Y0032860D01*
X0308971Y0032809D01*
X0309114Y0032754D01*
X0309256Y0032696D01*
X0309396Y0032634D01*
X0309535Y0032569D01*
X0309672Y0032500D01*
X0309807Y0032427D01*
X0309940Y0032351D01*
X0310071Y0032271D01*
X0310200Y0032189D01*
X0310327Y0032102D01*
X0310452Y0032013D01*
X0310574Y0031920D01*
X0310693Y0031824D01*
X0310811Y0031725D01*
X0310925Y0031624D01*
X0311037Y0031519D01*
X0311146Y0031411D01*
X0311252Y0031300D01*
X0311356Y0031187D01*
X0311456Y0031071D01*
X0311554Y0030953D01*
X0311648Y0030832D01*
X0311739Y0030709D01*
X0311827Y0030583D01*
X0311911Y0030455D01*
X0311993Y0030325D01*
X0312070Y0030193D01*
X0312145Y0030059D01*
X0312216Y0029923D01*
X0312283Y0029785D01*
X0312347Y0029645D01*
X0312407Y0029504D01*
X0312463Y0029362D01*
X0312516Y0029218D01*
X0312565Y0029072D01*
X0312610Y0028926D01*
X0312651Y0028778D01*
X0312688Y0028630D01*
X0312722Y0028480D01*
X0312752Y0028329D01*
X0312777Y0028178D01*
X0312799Y0028027D01*
X0312817Y0027874D01*
X0312831Y0027722D01*
X0312841Y0027569D01*
X0312847Y0027415D01*
X0312849Y0027262D01*
X0312847Y0027109D01*
X0312841Y0026955D01*
X0312831Y0026802D01*
X0312817Y0026650D01*
X0312799Y0026497D01*
X0312777Y0026346D01*
X0312752Y0026195D01*
X0312722Y0026044D01*
X0312688Y0025894D01*
X0312651Y0025746D01*
X0312610Y0025598D01*
X0312565Y0025452D01*
X0312516Y0025306D01*
X0312463Y0025162D01*
X0312407Y0025020D01*
X0312347Y0024879D01*
X0312283Y0024739D01*
X0312216Y0024601D01*
X0312145Y0024465D01*
X0312070Y0024331D01*
X0311993Y0024199D01*
X0311911Y0024069D01*
X0311827Y0023941D01*
X0311739Y0023815D01*
X0311648Y0023692D01*
X0311554Y0023571D01*
X0311456Y0023453D01*
X0311356Y0023337D01*
X0311252Y0023224D01*
X0311146Y0023113D01*
X0311037Y0023005D01*
X0310925Y0022900D01*
X0310811Y0022799D01*
X0310693Y0022700D01*
X0310574Y0022604D01*
X0310452Y0022511D01*
X0310327Y0022422D01*
X0310200Y0022335D01*
X0310071Y0022253D01*
X0309940Y0022173D01*
X0309807Y0022097D01*
X0309672Y0022024D01*
X0309535Y0021955D01*
X0309396Y0021890D01*
X0309256Y0021828D01*
X0309114Y0021770D01*
X0308971Y0021715D01*
X0308826Y0021664D01*
X0308680Y0021617D01*
X0308533Y0021574D01*
X0308385Y0021535D01*
X0308236Y0021499D01*
X0308086Y0021468D01*
X0307935Y0021440D01*
X0307784Y0021416D01*
X0307631Y0021396D01*
X0307479Y0021380D01*
X0307326Y0021368D01*
X0307173Y0021360D01*
X0307020Y0021356D01*
X0306866Y0021356D01*
X0306713Y0021360D01*
X0306560Y0021368D01*
X0306407Y0021380D01*
X0306255Y0021396D01*
X0306102Y0021416D01*
X0305951Y0021440D01*
X0305800Y0021468D01*
X0305650Y0021499D01*
X0305501Y0021535D01*
X0305353Y0021574D01*
X0305206Y0021617D01*
X0305060Y0021664D01*
X0304915Y0021715D01*
X0304772Y0021770D01*
X0304630Y0021828D01*
X0304490Y0021890D01*
X0304351Y0021955D01*
X0304214Y0022024D01*
X0304079Y0022097D01*
X0303946Y0022173D01*
X0303815Y0022253D01*
X0303686Y0022335D01*
X0303559Y0022422D01*
X0303434Y0022511D01*
X0303312Y0022604D01*
X0303193Y0022700D01*
X0303075Y0022799D01*
X0302961Y0022900D01*
X0302849Y0023005D01*
X0302740Y0023113D01*
X0302634Y0023224D01*
X0302530Y0023337D01*
X0302430Y0023453D01*
X0302332Y0023571D01*
X0302238Y0023692D01*
X0302147Y0023815D01*
X0302059Y0023941D01*
X0301975Y0024069D01*
X0301893Y0024199D01*
X0301816Y0024331D01*
X0301741Y0024465D01*
X0301670Y0024601D01*
X0301603Y0024739D01*
X0301539Y0024879D01*
X0301479Y0025020D01*
X0301423Y0025162D01*
X0301370Y0025306D01*
X0301321Y0025452D01*
X0301276Y0025598D01*
X0301235Y0025746D01*
X0301198Y0025894D01*
X0301164Y0026044D01*
X0301134Y0026195D01*
X0301109Y0026346D01*
X0301087Y0026497D01*
X0301069Y0026650D01*
X0301055Y0026802D01*
X0301045Y0026955D01*
X0301039Y0027109D01*
X0301037Y0027262D01*
X0407572Y0238089D02*
X0407574Y0238242D01*
X0407580Y0238396D01*
X0407590Y0238549D01*
X0407604Y0238701D01*
X0407622Y0238854D01*
X0407644Y0239005D01*
X0407669Y0239156D01*
X0407699Y0239307D01*
X0407733Y0239457D01*
X0407770Y0239605D01*
X0407811Y0239753D01*
X0407856Y0239899D01*
X0407905Y0240045D01*
X0407958Y0240189D01*
X0408014Y0240331D01*
X0408074Y0240472D01*
X0408138Y0240612D01*
X0408205Y0240750D01*
X0408276Y0240886D01*
X0408351Y0241020D01*
X0408428Y0241152D01*
X0408510Y0241282D01*
X0408594Y0241410D01*
X0408682Y0241536D01*
X0408773Y0241659D01*
X0408867Y0241780D01*
X0408965Y0241898D01*
X0409065Y0242014D01*
X0409169Y0242127D01*
X0409275Y0242238D01*
X0409384Y0242346D01*
X0409496Y0242451D01*
X0409610Y0242552D01*
X0409728Y0242651D01*
X0409847Y0242747D01*
X0409969Y0242840D01*
X0410094Y0242929D01*
X0410221Y0243016D01*
X0410350Y0243098D01*
X0410481Y0243178D01*
X0410614Y0243254D01*
X0410749Y0243327D01*
X0410886Y0243396D01*
X0411025Y0243461D01*
X0411165Y0243523D01*
X0411307Y0243581D01*
X0411450Y0243636D01*
X0411595Y0243687D01*
X0411741Y0243734D01*
X0411888Y0243777D01*
X0412036Y0243816D01*
X0412185Y0243852D01*
X0412335Y0243883D01*
X0412486Y0243911D01*
X0412637Y0243935D01*
X0412790Y0243955D01*
X0412942Y0243971D01*
X0413095Y0243983D01*
X0413248Y0243991D01*
X0413401Y0243995D01*
X0413555Y0243995D01*
X0413708Y0243991D01*
X0413861Y0243983D01*
X0414014Y0243971D01*
X0414166Y0243955D01*
X0414319Y0243935D01*
X0414470Y0243911D01*
X0414621Y0243883D01*
X0414771Y0243852D01*
X0414920Y0243816D01*
X0415068Y0243777D01*
X0415215Y0243734D01*
X0415361Y0243687D01*
X0415506Y0243636D01*
X0415649Y0243581D01*
X0415791Y0243523D01*
X0415931Y0243461D01*
X0416070Y0243396D01*
X0416207Y0243327D01*
X0416342Y0243254D01*
X0416475Y0243178D01*
X0416606Y0243098D01*
X0416735Y0243016D01*
X0416862Y0242929D01*
X0416987Y0242840D01*
X0417109Y0242747D01*
X0417228Y0242651D01*
X0417346Y0242552D01*
X0417460Y0242451D01*
X0417572Y0242346D01*
X0417681Y0242238D01*
X0417787Y0242127D01*
X0417891Y0242014D01*
X0417991Y0241898D01*
X0418089Y0241780D01*
X0418183Y0241659D01*
X0418274Y0241536D01*
X0418362Y0241410D01*
X0418446Y0241282D01*
X0418528Y0241152D01*
X0418605Y0241020D01*
X0418680Y0240886D01*
X0418751Y0240750D01*
X0418818Y0240612D01*
X0418882Y0240472D01*
X0418942Y0240331D01*
X0418998Y0240189D01*
X0419051Y0240045D01*
X0419100Y0239899D01*
X0419145Y0239753D01*
X0419186Y0239605D01*
X0419223Y0239457D01*
X0419257Y0239307D01*
X0419287Y0239156D01*
X0419312Y0239005D01*
X0419334Y0238854D01*
X0419352Y0238701D01*
X0419366Y0238549D01*
X0419376Y0238396D01*
X0419382Y0238242D01*
X0419384Y0238089D01*
X0419382Y0237936D01*
X0419376Y0237782D01*
X0419366Y0237629D01*
X0419352Y0237477D01*
X0419334Y0237324D01*
X0419312Y0237173D01*
X0419287Y0237022D01*
X0419257Y0236871D01*
X0419223Y0236721D01*
X0419186Y0236573D01*
X0419145Y0236425D01*
X0419100Y0236279D01*
X0419051Y0236133D01*
X0418998Y0235989D01*
X0418942Y0235847D01*
X0418882Y0235706D01*
X0418818Y0235566D01*
X0418751Y0235428D01*
X0418680Y0235292D01*
X0418605Y0235158D01*
X0418528Y0235026D01*
X0418446Y0234896D01*
X0418362Y0234768D01*
X0418274Y0234642D01*
X0418183Y0234519D01*
X0418089Y0234398D01*
X0417991Y0234280D01*
X0417891Y0234164D01*
X0417787Y0234051D01*
X0417681Y0233940D01*
X0417572Y0233832D01*
X0417460Y0233727D01*
X0417346Y0233626D01*
X0417228Y0233527D01*
X0417109Y0233431D01*
X0416987Y0233338D01*
X0416862Y0233249D01*
X0416735Y0233162D01*
X0416606Y0233080D01*
X0416475Y0233000D01*
X0416342Y0232924D01*
X0416207Y0232851D01*
X0416070Y0232782D01*
X0415931Y0232717D01*
X0415791Y0232655D01*
X0415649Y0232597D01*
X0415506Y0232542D01*
X0415361Y0232491D01*
X0415215Y0232444D01*
X0415068Y0232401D01*
X0414920Y0232362D01*
X0414771Y0232326D01*
X0414621Y0232295D01*
X0414470Y0232267D01*
X0414319Y0232243D01*
X0414166Y0232223D01*
X0414014Y0232207D01*
X0413861Y0232195D01*
X0413708Y0232187D01*
X0413555Y0232183D01*
X0413401Y0232183D01*
X0413248Y0232187D01*
X0413095Y0232195D01*
X0412942Y0232207D01*
X0412790Y0232223D01*
X0412637Y0232243D01*
X0412486Y0232267D01*
X0412335Y0232295D01*
X0412185Y0232326D01*
X0412036Y0232362D01*
X0411888Y0232401D01*
X0411741Y0232444D01*
X0411595Y0232491D01*
X0411450Y0232542D01*
X0411307Y0232597D01*
X0411165Y0232655D01*
X0411025Y0232717D01*
X0410886Y0232782D01*
X0410749Y0232851D01*
X0410614Y0232924D01*
X0410481Y0233000D01*
X0410350Y0233080D01*
X0410221Y0233162D01*
X0410094Y0233249D01*
X0409969Y0233338D01*
X0409847Y0233431D01*
X0409728Y0233527D01*
X0409610Y0233626D01*
X0409496Y0233727D01*
X0409384Y0233832D01*
X0409275Y0233940D01*
X0409169Y0234051D01*
X0409065Y0234164D01*
X0408965Y0234280D01*
X0408867Y0234398D01*
X0408773Y0234519D01*
X0408682Y0234642D01*
X0408594Y0234768D01*
X0408510Y0234896D01*
X0408428Y0235026D01*
X0408351Y0235158D01*
X0408276Y0235292D01*
X0408205Y0235428D01*
X0408138Y0235566D01*
X0408074Y0235706D01*
X0408014Y0235847D01*
X0407958Y0235989D01*
X0407905Y0236133D01*
X0407856Y0236279D01*
X0407811Y0236425D01*
X0407770Y0236573D01*
X0407733Y0236721D01*
X0407699Y0236871D01*
X0407669Y0237022D01*
X0407644Y0237173D01*
X0407622Y0237324D01*
X0407604Y0237477D01*
X0407590Y0237629D01*
X0407580Y0237782D01*
X0407574Y0237936D01*
X0407572Y0238089D01*
X0430916Y0286011D02*
X0430918Y0286164D01*
X0430924Y0286318D01*
X0430934Y0286471D01*
X0430948Y0286623D01*
X0430966Y0286776D01*
X0430988Y0286927D01*
X0431013Y0287078D01*
X0431043Y0287229D01*
X0431077Y0287379D01*
X0431114Y0287527D01*
X0431155Y0287675D01*
X0431200Y0287821D01*
X0431249Y0287967D01*
X0431302Y0288111D01*
X0431358Y0288253D01*
X0431418Y0288394D01*
X0431482Y0288534D01*
X0431549Y0288672D01*
X0431620Y0288808D01*
X0431695Y0288942D01*
X0431772Y0289074D01*
X0431854Y0289204D01*
X0431938Y0289332D01*
X0432026Y0289458D01*
X0432117Y0289581D01*
X0432211Y0289702D01*
X0432309Y0289820D01*
X0432409Y0289936D01*
X0432513Y0290049D01*
X0432619Y0290160D01*
X0432728Y0290268D01*
X0432840Y0290373D01*
X0432954Y0290474D01*
X0433072Y0290573D01*
X0433191Y0290669D01*
X0433313Y0290762D01*
X0433438Y0290851D01*
X0433565Y0290938D01*
X0433694Y0291020D01*
X0433825Y0291100D01*
X0433958Y0291176D01*
X0434093Y0291249D01*
X0434230Y0291318D01*
X0434369Y0291383D01*
X0434509Y0291445D01*
X0434651Y0291503D01*
X0434794Y0291558D01*
X0434939Y0291609D01*
X0435085Y0291656D01*
X0435232Y0291699D01*
X0435380Y0291738D01*
X0435529Y0291774D01*
X0435679Y0291805D01*
X0435830Y0291833D01*
X0435981Y0291857D01*
X0436134Y0291877D01*
X0436286Y0291893D01*
X0436439Y0291905D01*
X0436592Y0291913D01*
X0436745Y0291917D01*
X0436899Y0291917D01*
X0437052Y0291913D01*
X0437205Y0291905D01*
X0437358Y0291893D01*
X0437510Y0291877D01*
X0437663Y0291857D01*
X0437814Y0291833D01*
X0437965Y0291805D01*
X0438115Y0291774D01*
X0438264Y0291738D01*
X0438412Y0291699D01*
X0438559Y0291656D01*
X0438705Y0291609D01*
X0438850Y0291558D01*
X0438993Y0291503D01*
X0439135Y0291445D01*
X0439275Y0291383D01*
X0439414Y0291318D01*
X0439551Y0291249D01*
X0439686Y0291176D01*
X0439819Y0291100D01*
X0439950Y0291020D01*
X0440079Y0290938D01*
X0440206Y0290851D01*
X0440331Y0290762D01*
X0440453Y0290669D01*
X0440572Y0290573D01*
X0440690Y0290474D01*
X0440804Y0290373D01*
X0440916Y0290268D01*
X0441025Y0290160D01*
X0441131Y0290049D01*
X0441235Y0289936D01*
X0441335Y0289820D01*
X0441433Y0289702D01*
X0441527Y0289581D01*
X0441618Y0289458D01*
X0441706Y0289332D01*
X0441790Y0289204D01*
X0441872Y0289074D01*
X0441949Y0288942D01*
X0442024Y0288808D01*
X0442095Y0288672D01*
X0442162Y0288534D01*
X0442226Y0288394D01*
X0442286Y0288253D01*
X0442342Y0288111D01*
X0442395Y0287967D01*
X0442444Y0287821D01*
X0442489Y0287675D01*
X0442530Y0287527D01*
X0442567Y0287379D01*
X0442601Y0287229D01*
X0442631Y0287078D01*
X0442656Y0286927D01*
X0442678Y0286776D01*
X0442696Y0286623D01*
X0442710Y0286471D01*
X0442720Y0286318D01*
X0442726Y0286164D01*
X0442728Y0286011D01*
X0442726Y0285858D01*
X0442720Y0285704D01*
X0442710Y0285551D01*
X0442696Y0285399D01*
X0442678Y0285246D01*
X0442656Y0285095D01*
X0442631Y0284944D01*
X0442601Y0284793D01*
X0442567Y0284643D01*
X0442530Y0284495D01*
X0442489Y0284347D01*
X0442444Y0284201D01*
X0442395Y0284055D01*
X0442342Y0283911D01*
X0442286Y0283769D01*
X0442226Y0283628D01*
X0442162Y0283488D01*
X0442095Y0283350D01*
X0442024Y0283214D01*
X0441949Y0283080D01*
X0441872Y0282948D01*
X0441790Y0282818D01*
X0441706Y0282690D01*
X0441618Y0282564D01*
X0441527Y0282441D01*
X0441433Y0282320D01*
X0441335Y0282202D01*
X0441235Y0282086D01*
X0441131Y0281973D01*
X0441025Y0281862D01*
X0440916Y0281754D01*
X0440804Y0281649D01*
X0440690Y0281548D01*
X0440572Y0281449D01*
X0440453Y0281353D01*
X0440331Y0281260D01*
X0440206Y0281171D01*
X0440079Y0281084D01*
X0439950Y0281002D01*
X0439819Y0280922D01*
X0439686Y0280846D01*
X0439551Y0280773D01*
X0439414Y0280704D01*
X0439275Y0280639D01*
X0439135Y0280577D01*
X0438993Y0280519D01*
X0438850Y0280464D01*
X0438705Y0280413D01*
X0438559Y0280366D01*
X0438412Y0280323D01*
X0438264Y0280284D01*
X0438115Y0280248D01*
X0437965Y0280217D01*
X0437814Y0280189D01*
X0437663Y0280165D01*
X0437510Y0280145D01*
X0437358Y0280129D01*
X0437205Y0280117D01*
X0437052Y0280109D01*
X0436899Y0280105D01*
X0436745Y0280105D01*
X0436592Y0280109D01*
X0436439Y0280117D01*
X0436286Y0280129D01*
X0436134Y0280145D01*
X0435981Y0280165D01*
X0435830Y0280189D01*
X0435679Y0280217D01*
X0435529Y0280248D01*
X0435380Y0280284D01*
X0435232Y0280323D01*
X0435085Y0280366D01*
X0434939Y0280413D01*
X0434794Y0280464D01*
X0434651Y0280519D01*
X0434509Y0280577D01*
X0434369Y0280639D01*
X0434230Y0280704D01*
X0434093Y0280773D01*
X0433958Y0280846D01*
X0433825Y0280922D01*
X0433694Y0281002D01*
X0433565Y0281084D01*
X0433438Y0281171D01*
X0433313Y0281260D01*
X0433191Y0281353D01*
X0433072Y0281449D01*
X0432954Y0281548D01*
X0432840Y0281649D01*
X0432728Y0281754D01*
X0432619Y0281862D01*
X0432513Y0281973D01*
X0432409Y0282086D01*
X0432309Y0282202D01*
X0432211Y0282320D01*
X0432117Y0282441D01*
X0432026Y0282564D01*
X0431938Y0282690D01*
X0431854Y0282818D01*
X0431772Y0282948D01*
X0431695Y0283080D01*
X0431620Y0283214D01*
X0431549Y0283350D01*
X0431482Y0283488D01*
X0431418Y0283628D01*
X0431358Y0283769D01*
X0431302Y0283911D01*
X0431249Y0284055D01*
X0431200Y0284201D01*
X0431155Y0284347D01*
X0431114Y0284495D01*
X0431077Y0284643D01*
X0431043Y0284793D01*
X0431013Y0284944D01*
X0430988Y0285095D01*
X0430966Y0285246D01*
X0430948Y0285399D01*
X0430934Y0285551D01*
X0430924Y0285704D01*
X0430918Y0285858D01*
X0430916Y0286011D01*
X0310562Y0441129D02*
X0310564Y0441282D01*
X0310570Y0441436D01*
X0310580Y0441589D01*
X0310594Y0441741D01*
X0310612Y0441894D01*
X0310634Y0442045D01*
X0310659Y0442196D01*
X0310689Y0442347D01*
X0310723Y0442497D01*
X0310760Y0442645D01*
X0310801Y0442793D01*
X0310846Y0442939D01*
X0310895Y0443085D01*
X0310948Y0443229D01*
X0311004Y0443371D01*
X0311064Y0443512D01*
X0311128Y0443652D01*
X0311195Y0443790D01*
X0311266Y0443926D01*
X0311341Y0444060D01*
X0311418Y0444192D01*
X0311500Y0444322D01*
X0311584Y0444450D01*
X0311672Y0444576D01*
X0311763Y0444699D01*
X0311857Y0444820D01*
X0311955Y0444938D01*
X0312055Y0445054D01*
X0312159Y0445167D01*
X0312265Y0445278D01*
X0312374Y0445386D01*
X0312486Y0445491D01*
X0312600Y0445592D01*
X0312718Y0445691D01*
X0312837Y0445787D01*
X0312959Y0445880D01*
X0313084Y0445969D01*
X0313211Y0446056D01*
X0313340Y0446138D01*
X0313471Y0446218D01*
X0313604Y0446294D01*
X0313739Y0446367D01*
X0313876Y0446436D01*
X0314015Y0446501D01*
X0314155Y0446563D01*
X0314297Y0446621D01*
X0314440Y0446676D01*
X0314585Y0446727D01*
X0314731Y0446774D01*
X0314878Y0446817D01*
X0315026Y0446856D01*
X0315175Y0446892D01*
X0315325Y0446923D01*
X0315476Y0446951D01*
X0315627Y0446975D01*
X0315780Y0446995D01*
X0315932Y0447011D01*
X0316085Y0447023D01*
X0316238Y0447031D01*
X0316391Y0447035D01*
X0316545Y0447035D01*
X0316698Y0447031D01*
X0316851Y0447023D01*
X0317004Y0447011D01*
X0317156Y0446995D01*
X0317309Y0446975D01*
X0317460Y0446951D01*
X0317611Y0446923D01*
X0317761Y0446892D01*
X0317910Y0446856D01*
X0318058Y0446817D01*
X0318205Y0446774D01*
X0318351Y0446727D01*
X0318496Y0446676D01*
X0318639Y0446621D01*
X0318781Y0446563D01*
X0318921Y0446501D01*
X0319060Y0446436D01*
X0319197Y0446367D01*
X0319332Y0446294D01*
X0319465Y0446218D01*
X0319596Y0446138D01*
X0319725Y0446056D01*
X0319852Y0445969D01*
X0319977Y0445880D01*
X0320099Y0445787D01*
X0320218Y0445691D01*
X0320336Y0445592D01*
X0320450Y0445491D01*
X0320562Y0445386D01*
X0320671Y0445278D01*
X0320777Y0445167D01*
X0320881Y0445054D01*
X0320981Y0444938D01*
X0321079Y0444820D01*
X0321173Y0444699D01*
X0321264Y0444576D01*
X0321352Y0444450D01*
X0321436Y0444322D01*
X0321518Y0444192D01*
X0321595Y0444060D01*
X0321670Y0443926D01*
X0321741Y0443790D01*
X0321808Y0443652D01*
X0321872Y0443512D01*
X0321932Y0443371D01*
X0321988Y0443229D01*
X0322041Y0443085D01*
X0322090Y0442939D01*
X0322135Y0442793D01*
X0322176Y0442645D01*
X0322213Y0442497D01*
X0322247Y0442347D01*
X0322277Y0442196D01*
X0322302Y0442045D01*
X0322324Y0441894D01*
X0322342Y0441741D01*
X0322356Y0441589D01*
X0322366Y0441436D01*
X0322372Y0441282D01*
X0322374Y0441129D01*
X0322372Y0440976D01*
X0322366Y0440822D01*
X0322356Y0440669D01*
X0322342Y0440517D01*
X0322324Y0440364D01*
X0322302Y0440213D01*
X0322277Y0440062D01*
X0322247Y0439911D01*
X0322213Y0439761D01*
X0322176Y0439613D01*
X0322135Y0439465D01*
X0322090Y0439319D01*
X0322041Y0439173D01*
X0321988Y0439029D01*
X0321932Y0438887D01*
X0321872Y0438746D01*
X0321808Y0438606D01*
X0321741Y0438468D01*
X0321670Y0438332D01*
X0321595Y0438198D01*
X0321518Y0438066D01*
X0321436Y0437936D01*
X0321352Y0437808D01*
X0321264Y0437682D01*
X0321173Y0437559D01*
X0321079Y0437438D01*
X0320981Y0437320D01*
X0320881Y0437204D01*
X0320777Y0437091D01*
X0320671Y0436980D01*
X0320562Y0436872D01*
X0320450Y0436767D01*
X0320336Y0436666D01*
X0320218Y0436567D01*
X0320099Y0436471D01*
X0319977Y0436378D01*
X0319852Y0436289D01*
X0319725Y0436202D01*
X0319596Y0436120D01*
X0319465Y0436040D01*
X0319332Y0435964D01*
X0319197Y0435891D01*
X0319060Y0435822D01*
X0318921Y0435757D01*
X0318781Y0435695D01*
X0318639Y0435637D01*
X0318496Y0435582D01*
X0318351Y0435531D01*
X0318205Y0435484D01*
X0318058Y0435441D01*
X0317910Y0435402D01*
X0317761Y0435366D01*
X0317611Y0435335D01*
X0317460Y0435307D01*
X0317309Y0435283D01*
X0317156Y0435263D01*
X0317004Y0435247D01*
X0316851Y0435235D01*
X0316698Y0435227D01*
X0316545Y0435223D01*
X0316391Y0435223D01*
X0316238Y0435227D01*
X0316085Y0435235D01*
X0315932Y0435247D01*
X0315780Y0435263D01*
X0315627Y0435283D01*
X0315476Y0435307D01*
X0315325Y0435335D01*
X0315175Y0435366D01*
X0315026Y0435402D01*
X0314878Y0435441D01*
X0314731Y0435484D01*
X0314585Y0435531D01*
X0314440Y0435582D01*
X0314297Y0435637D01*
X0314155Y0435695D01*
X0314015Y0435757D01*
X0313876Y0435822D01*
X0313739Y0435891D01*
X0313604Y0435964D01*
X0313471Y0436040D01*
X0313340Y0436120D01*
X0313211Y0436202D01*
X0313084Y0436289D01*
X0312959Y0436378D01*
X0312837Y0436471D01*
X0312718Y0436567D01*
X0312600Y0436666D01*
X0312486Y0436767D01*
X0312374Y0436872D01*
X0312265Y0436980D01*
X0312159Y0437091D01*
X0312055Y0437204D01*
X0311955Y0437320D01*
X0311857Y0437438D01*
X0311763Y0437559D01*
X0311672Y0437682D01*
X0311584Y0437808D01*
X0311500Y0437936D01*
X0311418Y0438066D01*
X0311341Y0438198D01*
X0311266Y0438332D01*
X0311195Y0438468D01*
X0311128Y0438606D01*
X0311064Y0438746D01*
X0311004Y0438887D01*
X0310948Y0439029D01*
X0310895Y0439173D01*
X0310846Y0439319D01*
X0310801Y0439465D01*
X0310760Y0439613D01*
X0310723Y0439761D01*
X0310689Y0439911D01*
X0310659Y0440062D01*
X0310634Y0440213D01*
X0310612Y0440364D01*
X0310594Y0440517D01*
X0310580Y0440669D01*
X0310570Y0440822D01*
X0310564Y0440976D01*
X0310562Y0441129D01*
X0247226Y0351971D02*
X0247228Y0352124D01*
X0247234Y0352278D01*
X0247244Y0352431D01*
X0247258Y0352583D01*
X0247276Y0352736D01*
X0247298Y0352887D01*
X0247323Y0353038D01*
X0247353Y0353189D01*
X0247387Y0353339D01*
X0247424Y0353487D01*
X0247465Y0353635D01*
X0247510Y0353781D01*
X0247559Y0353927D01*
X0247612Y0354071D01*
X0247668Y0354213D01*
X0247728Y0354354D01*
X0247792Y0354494D01*
X0247859Y0354632D01*
X0247930Y0354768D01*
X0248005Y0354902D01*
X0248082Y0355034D01*
X0248164Y0355164D01*
X0248248Y0355292D01*
X0248336Y0355418D01*
X0248427Y0355541D01*
X0248521Y0355662D01*
X0248619Y0355780D01*
X0248719Y0355896D01*
X0248823Y0356009D01*
X0248929Y0356120D01*
X0249038Y0356228D01*
X0249150Y0356333D01*
X0249264Y0356434D01*
X0249382Y0356533D01*
X0249501Y0356629D01*
X0249623Y0356722D01*
X0249748Y0356811D01*
X0249875Y0356898D01*
X0250004Y0356980D01*
X0250135Y0357060D01*
X0250268Y0357136D01*
X0250403Y0357209D01*
X0250540Y0357278D01*
X0250679Y0357343D01*
X0250819Y0357405D01*
X0250961Y0357463D01*
X0251104Y0357518D01*
X0251249Y0357569D01*
X0251395Y0357616D01*
X0251542Y0357659D01*
X0251690Y0357698D01*
X0251839Y0357734D01*
X0251989Y0357765D01*
X0252140Y0357793D01*
X0252291Y0357817D01*
X0252444Y0357837D01*
X0252596Y0357853D01*
X0252749Y0357865D01*
X0252902Y0357873D01*
X0253055Y0357877D01*
X0253209Y0357877D01*
X0253362Y0357873D01*
X0253515Y0357865D01*
X0253668Y0357853D01*
X0253820Y0357837D01*
X0253973Y0357817D01*
X0254124Y0357793D01*
X0254275Y0357765D01*
X0254425Y0357734D01*
X0254574Y0357698D01*
X0254722Y0357659D01*
X0254869Y0357616D01*
X0255015Y0357569D01*
X0255160Y0357518D01*
X0255303Y0357463D01*
X0255445Y0357405D01*
X0255585Y0357343D01*
X0255724Y0357278D01*
X0255861Y0357209D01*
X0255996Y0357136D01*
X0256129Y0357060D01*
X0256260Y0356980D01*
X0256389Y0356898D01*
X0256516Y0356811D01*
X0256641Y0356722D01*
X0256763Y0356629D01*
X0256882Y0356533D01*
X0257000Y0356434D01*
X0257114Y0356333D01*
X0257226Y0356228D01*
X0257335Y0356120D01*
X0257441Y0356009D01*
X0257545Y0355896D01*
X0257645Y0355780D01*
X0257743Y0355662D01*
X0257837Y0355541D01*
X0257928Y0355418D01*
X0258016Y0355292D01*
X0258100Y0355164D01*
X0258182Y0355034D01*
X0258259Y0354902D01*
X0258334Y0354768D01*
X0258405Y0354632D01*
X0258472Y0354494D01*
X0258536Y0354354D01*
X0258596Y0354213D01*
X0258652Y0354071D01*
X0258705Y0353927D01*
X0258754Y0353781D01*
X0258799Y0353635D01*
X0258840Y0353487D01*
X0258877Y0353339D01*
X0258911Y0353189D01*
X0258941Y0353038D01*
X0258966Y0352887D01*
X0258988Y0352736D01*
X0259006Y0352583D01*
X0259020Y0352431D01*
X0259030Y0352278D01*
X0259036Y0352124D01*
X0259038Y0351971D01*
X0259036Y0351818D01*
X0259030Y0351664D01*
X0259020Y0351511D01*
X0259006Y0351359D01*
X0258988Y0351206D01*
X0258966Y0351055D01*
X0258941Y0350904D01*
X0258911Y0350753D01*
X0258877Y0350603D01*
X0258840Y0350455D01*
X0258799Y0350307D01*
X0258754Y0350161D01*
X0258705Y0350015D01*
X0258652Y0349871D01*
X0258596Y0349729D01*
X0258536Y0349588D01*
X0258472Y0349448D01*
X0258405Y0349310D01*
X0258334Y0349174D01*
X0258259Y0349040D01*
X0258182Y0348908D01*
X0258100Y0348778D01*
X0258016Y0348650D01*
X0257928Y0348524D01*
X0257837Y0348401D01*
X0257743Y0348280D01*
X0257645Y0348162D01*
X0257545Y0348046D01*
X0257441Y0347933D01*
X0257335Y0347822D01*
X0257226Y0347714D01*
X0257114Y0347609D01*
X0257000Y0347508D01*
X0256882Y0347409D01*
X0256763Y0347313D01*
X0256641Y0347220D01*
X0256516Y0347131D01*
X0256389Y0347044D01*
X0256260Y0346962D01*
X0256129Y0346882D01*
X0255996Y0346806D01*
X0255861Y0346733D01*
X0255724Y0346664D01*
X0255585Y0346599D01*
X0255445Y0346537D01*
X0255303Y0346479D01*
X0255160Y0346424D01*
X0255015Y0346373D01*
X0254869Y0346326D01*
X0254722Y0346283D01*
X0254574Y0346244D01*
X0254425Y0346208D01*
X0254275Y0346177D01*
X0254124Y0346149D01*
X0253973Y0346125D01*
X0253820Y0346105D01*
X0253668Y0346089D01*
X0253515Y0346077D01*
X0253362Y0346069D01*
X0253209Y0346065D01*
X0253055Y0346065D01*
X0252902Y0346069D01*
X0252749Y0346077D01*
X0252596Y0346089D01*
X0252444Y0346105D01*
X0252291Y0346125D01*
X0252140Y0346149D01*
X0251989Y0346177D01*
X0251839Y0346208D01*
X0251690Y0346244D01*
X0251542Y0346283D01*
X0251395Y0346326D01*
X0251249Y0346373D01*
X0251104Y0346424D01*
X0250961Y0346479D01*
X0250819Y0346537D01*
X0250679Y0346599D01*
X0250540Y0346664D01*
X0250403Y0346733D01*
X0250268Y0346806D01*
X0250135Y0346882D01*
X0250004Y0346962D01*
X0249875Y0347044D01*
X0249748Y0347131D01*
X0249623Y0347220D01*
X0249501Y0347313D01*
X0249382Y0347409D01*
X0249264Y0347508D01*
X0249150Y0347609D01*
X0249038Y0347714D01*
X0248929Y0347822D01*
X0248823Y0347933D01*
X0248719Y0348046D01*
X0248619Y0348162D01*
X0248521Y0348280D01*
X0248427Y0348401D01*
X0248336Y0348524D01*
X0248248Y0348650D01*
X0248164Y0348778D01*
X0248082Y0348908D01*
X0248005Y0349040D01*
X0247930Y0349174D01*
X0247859Y0349310D01*
X0247792Y0349448D01*
X0247728Y0349588D01*
X0247668Y0349729D01*
X0247612Y0349871D01*
X0247559Y0350015D01*
X0247510Y0350161D01*
X0247465Y0350307D01*
X0247424Y0350455D01*
X0247387Y0350603D01*
X0247353Y0350753D01*
X0247323Y0350904D01*
X0247298Y0351055D01*
X0247276Y0351206D01*
X0247258Y0351359D01*
X0247244Y0351511D01*
X0247234Y0351664D01*
X0247228Y0351818D01*
X0247226Y0351971D01*
X0246551Y0247838D02*
X0246553Y0247991D01*
X0246559Y0248145D01*
X0246569Y0248298D01*
X0246583Y0248450D01*
X0246601Y0248603D01*
X0246623Y0248754D01*
X0246648Y0248905D01*
X0246678Y0249056D01*
X0246712Y0249206D01*
X0246749Y0249354D01*
X0246790Y0249502D01*
X0246835Y0249648D01*
X0246884Y0249794D01*
X0246937Y0249938D01*
X0246993Y0250080D01*
X0247053Y0250221D01*
X0247117Y0250361D01*
X0247184Y0250499D01*
X0247255Y0250635D01*
X0247330Y0250769D01*
X0247407Y0250901D01*
X0247489Y0251031D01*
X0247573Y0251159D01*
X0247661Y0251285D01*
X0247752Y0251408D01*
X0247846Y0251529D01*
X0247944Y0251647D01*
X0248044Y0251763D01*
X0248148Y0251876D01*
X0248254Y0251987D01*
X0248363Y0252095D01*
X0248475Y0252200D01*
X0248589Y0252301D01*
X0248707Y0252400D01*
X0248826Y0252496D01*
X0248948Y0252589D01*
X0249073Y0252678D01*
X0249200Y0252765D01*
X0249329Y0252847D01*
X0249460Y0252927D01*
X0249593Y0253003D01*
X0249728Y0253076D01*
X0249865Y0253145D01*
X0250004Y0253210D01*
X0250144Y0253272D01*
X0250286Y0253330D01*
X0250429Y0253385D01*
X0250574Y0253436D01*
X0250720Y0253483D01*
X0250867Y0253526D01*
X0251015Y0253565D01*
X0251164Y0253601D01*
X0251314Y0253632D01*
X0251465Y0253660D01*
X0251616Y0253684D01*
X0251769Y0253704D01*
X0251921Y0253720D01*
X0252074Y0253732D01*
X0252227Y0253740D01*
X0252380Y0253744D01*
X0252534Y0253744D01*
X0252687Y0253740D01*
X0252840Y0253732D01*
X0252993Y0253720D01*
X0253145Y0253704D01*
X0253298Y0253684D01*
X0253449Y0253660D01*
X0253600Y0253632D01*
X0253750Y0253601D01*
X0253899Y0253565D01*
X0254047Y0253526D01*
X0254194Y0253483D01*
X0254340Y0253436D01*
X0254485Y0253385D01*
X0254628Y0253330D01*
X0254770Y0253272D01*
X0254910Y0253210D01*
X0255049Y0253145D01*
X0255186Y0253076D01*
X0255321Y0253003D01*
X0255454Y0252927D01*
X0255585Y0252847D01*
X0255714Y0252765D01*
X0255841Y0252678D01*
X0255966Y0252589D01*
X0256088Y0252496D01*
X0256207Y0252400D01*
X0256325Y0252301D01*
X0256439Y0252200D01*
X0256551Y0252095D01*
X0256660Y0251987D01*
X0256766Y0251876D01*
X0256870Y0251763D01*
X0256970Y0251647D01*
X0257068Y0251529D01*
X0257162Y0251408D01*
X0257253Y0251285D01*
X0257341Y0251159D01*
X0257425Y0251031D01*
X0257507Y0250901D01*
X0257584Y0250769D01*
X0257659Y0250635D01*
X0257730Y0250499D01*
X0257797Y0250361D01*
X0257861Y0250221D01*
X0257921Y0250080D01*
X0257977Y0249938D01*
X0258030Y0249794D01*
X0258079Y0249648D01*
X0258124Y0249502D01*
X0258165Y0249354D01*
X0258202Y0249206D01*
X0258236Y0249056D01*
X0258266Y0248905D01*
X0258291Y0248754D01*
X0258313Y0248603D01*
X0258331Y0248450D01*
X0258345Y0248298D01*
X0258355Y0248145D01*
X0258361Y0247991D01*
X0258363Y0247838D01*
X0258361Y0247685D01*
X0258355Y0247531D01*
X0258345Y0247378D01*
X0258331Y0247226D01*
X0258313Y0247073D01*
X0258291Y0246922D01*
X0258266Y0246771D01*
X0258236Y0246620D01*
X0258202Y0246470D01*
X0258165Y0246322D01*
X0258124Y0246174D01*
X0258079Y0246028D01*
X0258030Y0245882D01*
X0257977Y0245738D01*
X0257921Y0245596D01*
X0257861Y0245455D01*
X0257797Y0245315D01*
X0257730Y0245177D01*
X0257659Y0245041D01*
X0257584Y0244907D01*
X0257507Y0244775D01*
X0257425Y0244645D01*
X0257341Y0244517D01*
X0257253Y0244391D01*
X0257162Y0244268D01*
X0257068Y0244147D01*
X0256970Y0244029D01*
X0256870Y0243913D01*
X0256766Y0243800D01*
X0256660Y0243689D01*
X0256551Y0243581D01*
X0256439Y0243476D01*
X0256325Y0243375D01*
X0256207Y0243276D01*
X0256088Y0243180D01*
X0255966Y0243087D01*
X0255841Y0242998D01*
X0255714Y0242911D01*
X0255585Y0242829D01*
X0255454Y0242749D01*
X0255321Y0242673D01*
X0255186Y0242600D01*
X0255049Y0242531D01*
X0254910Y0242466D01*
X0254770Y0242404D01*
X0254628Y0242346D01*
X0254485Y0242291D01*
X0254340Y0242240D01*
X0254194Y0242193D01*
X0254047Y0242150D01*
X0253899Y0242111D01*
X0253750Y0242075D01*
X0253600Y0242044D01*
X0253449Y0242016D01*
X0253298Y0241992D01*
X0253145Y0241972D01*
X0252993Y0241956D01*
X0252840Y0241944D01*
X0252687Y0241936D01*
X0252534Y0241932D01*
X0252380Y0241932D01*
X0252227Y0241936D01*
X0252074Y0241944D01*
X0251921Y0241956D01*
X0251769Y0241972D01*
X0251616Y0241992D01*
X0251465Y0242016D01*
X0251314Y0242044D01*
X0251164Y0242075D01*
X0251015Y0242111D01*
X0250867Y0242150D01*
X0250720Y0242193D01*
X0250574Y0242240D01*
X0250429Y0242291D01*
X0250286Y0242346D01*
X0250144Y0242404D01*
X0250004Y0242466D01*
X0249865Y0242531D01*
X0249728Y0242600D01*
X0249593Y0242673D01*
X0249460Y0242749D01*
X0249329Y0242829D01*
X0249200Y0242911D01*
X0249073Y0242998D01*
X0248948Y0243087D01*
X0248826Y0243180D01*
X0248707Y0243276D01*
X0248589Y0243375D01*
X0248475Y0243476D01*
X0248363Y0243581D01*
X0248254Y0243689D01*
X0248148Y0243800D01*
X0248044Y0243913D01*
X0247944Y0244029D01*
X0247846Y0244147D01*
X0247752Y0244268D01*
X0247661Y0244391D01*
X0247573Y0244517D01*
X0247489Y0244645D01*
X0247407Y0244775D01*
X0247330Y0244907D01*
X0247255Y0245041D01*
X0247184Y0245177D01*
X0247117Y0245315D01*
X0247053Y0245455D01*
X0246993Y0245596D01*
X0246937Y0245738D01*
X0246884Y0245882D01*
X0246835Y0246028D01*
X0246790Y0246174D01*
X0246749Y0246322D01*
X0246712Y0246470D01*
X0246678Y0246620D01*
X0246648Y0246771D01*
X0246623Y0246922D01*
X0246601Y0247073D01*
X0246583Y0247226D01*
X0246569Y0247378D01*
X0246559Y0247531D01*
X0246553Y0247685D01*
X0246551Y0247838D01*
X0020337Y0296262D02*
X0020339Y0296415D01*
X0020345Y0296569D01*
X0020355Y0296722D01*
X0020369Y0296874D01*
X0020387Y0297027D01*
X0020409Y0297178D01*
X0020434Y0297329D01*
X0020464Y0297480D01*
X0020498Y0297630D01*
X0020535Y0297778D01*
X0020576Y0297926D01*
X0020621Y0298072D01*
X0020670Y0298218D01*
X0020723Y0298362D01*
X0020779Y0298504D01*
X0020839Y0298645D01*
X0020903Y0298785D01*
X0020970Y0298923D01*
X0021041Y0299059D01*
X0021116Y0299193D01*
X0021193Y0299325D01*
X0021275Y0299455D01*
X0021359Y0299583D01*
X0021447Y0299709D01*
X0021538Y0299832D01*
X0021632Y0299953D01*
X0021730Y0300071D01*
X0021830Y0300187D01*
X0021934Y0300300D01*
X0022040Y0300411D01*
X0022149Y0300519D01*
X0022261Y0300624D01*
X0022375Y0300725D01*
X0022493Y0300824D01*
X0022612Y0300920D01*
X0022734Y0301013D01*
X0022859Y0301102D01*
X0022986Y0301189D01*
X0023115Y0301271D01*
X0023246Y0301351D01*
X0023379Y0301427D01*
X0023514Y0301500D01*
X0023651Y0301569D01*
X0023790Y0301634D01*
X0023930Y0301696D01*
X0024072Y0301754D01*
X0024215Y0301809D01*
X0024360Y0301860D01*
X0024506Y0301907D01*
X0024653Y0301950D01*
X0024801Y0301989D01*
X0024950Y0302025D01*
X0025100Y0302056D01*
X0025251Y0302084D01*
X0025402Y0302108D01*
X0025555Y0302128D01*
X0025707Y0302144D01*
X0025860Y0302156D01*
X0026013Y0302164D01*
X0026166Y0302168D01*
X0026320Y0302168D01*
X0026473Y0302164D01*
X0026626Y0302156D01*
X0026779Y0302144D01*
X0026931Y0302128D01*
X0027084Y0302108D01*
X0027235Y0302084D01*
X0027386Y0302056D01*
X0027536Y0302025D01*
X0027685Y0301989D01*
X0027833Y0301950D01*
X0027980Y0301907D01*
X0028126Y0301860D01*
X0028271Y0301809D01*
X0028414Y0301754D01*
X0028556Y0301696D01*
X0028696Y0301634D01*
X0028835Y0301569D01*
X0028972Y0301500D01*
X0029107Y0301427D01*
X0029240Y0301351D01*
X0029371Y0301271D01*
X0029500Y0301189D01*
X0029627Y0301102D01*
X0029752Y0301013D01*
X0029874Y0300920D01*
X0029993Y0300824D01*
X0030111Y0300725D01*
X0030225Y0300624D01*
X0030337Y0300519D01*
X0030446Y0300411D01*
X0030552Y0300300D01*
X0030656Y0300187D01*
X0030756Y0300071D01*
X0030854Y0299953D01*
X0030948Y0299832D01*
X0031039Y0299709D01*
X0031127Y0299583D01*
X0031211Y0299455D01*
X0031293Y0299325D01*
X0031370Y0299193D01*
X0031445Y0299059D01*
X0031516Y0298923D01*
X0031583Y0298785D01*
X0031647Y0298645D01*
X0031707Y0298504D01*
X0031763Y0298362D01*
X0031816Y0298218D01*
X0031865Y0298072D01*
X0031910Y0297926D01*
X0031951Y0297778D01*
X0031988Y0297630D01*
X0032022Y0297480D01*
X0032052Y0297329D01*
X0032077Y0297178D01*
X0032099Y0297027D01*
X0032117Y0296874D01*
X0032131Y0296722D01*
X0032141Y0296569D01*
X0032147Y0296415D01*
X0032149Y0296262D01*
X0032147Y0296109D01*
X0032141Y0295955D01*
X0032131Y0295802D01*
X0032117Y0295650D01*
X0032099Y0295497D01*
X0032077Y0295346D01*
X0032052Y0295195D01*
X0032022Y0295044D01*
X0031988Y0294894D01*
X0031951Y0294746D01*
X0031910Y0294598D01*
X0031865Y0294452D01*
X0031816Y0294306D01*
X0031763Y0294162D01*
X0031707Y0294020D01*
X0031647Y0293879D01*
X0031583Y0293739D01*
X0031516Y0293601D01*
X0031445Y0293465D01*
X0031370Y0293331D01*
X0031293Y0293199D01*
X0031211Y0293069D01*
X0031127Y0292941D01*
X0031039Y0292815D01*
X0030948Y0292692D01*
X0030854Y0292571D01*
X0030756Y0292453D01*
X0030656Y0292337D01*
X0030552Y0292224D01*
X0030446Y0292113D01*
X0030337Y0292005D01*
X0030225Y0291900D01*
X0030111Y0291799D01*
X0029993Y0291700D01*
X0029874Y0291604D01*
X0029752Y0291511D01*
X0029627Y0291422D01*
X0029500Y0291335D01*
X0029371Y0291253D01*
X0029240Y0291173D01*
X0029107Y0291097D01*
X0028972Y0291024D01*
X0028835Y0290955D01*
X0028696Y0290890D01*
X0028556Y0290828D01*
X0028414Y0290770D01*
X0028271Y0290715D01*
X0028126Y0290664D01*
X0027980Y0290617D01*
X0027833Y0290574D01*
X0027685Y0290535D01*
X0027536Y0290499D01*
X0027386Y0290468D01*
X0027235Y0290440D01*
X0027084Y0290416D01*
X0026931Y0290396D01*
X0026779Y0290380D01*
X0026626Y0290368D01*
X0026473Y0290360D01*
X0026320Y0290356D01*
X0026166Y0290356D01*
X0026013Y0290360D01*
X0025860Y0290368D01*
X0025707Y0290380D01*
X0025555Y0290396D01*
X0025402Y0290416D01*
X0025251Y0290440D01*
X0025100Y0290468D01*
X0024950Y0290499D01*
X0024801Y0290535D01*
X0024653Y0290574D01*
X0024506Y0290617D01*
X0024360Y0290664D01*
X0024215Y0290715D01*
X0024072Y0290770D01*
X0023930Y0290828D01*
X0023790Y0290890D01*
X0023651Y0290955D01*
X0023514Y0291024D01*
X0023379Y0291097D01*
X0023246Y0291173D01*
X0023115Y0291253D01*
X0022986Y0291335D01*
X0022859Y0291422D01*
X0022734Y0291511D01*
X0022612Y0291604D01*
X0022493Y0291700D01*
X0022375Y0291799D01*
X0022261Y0291900D01*
X0022149Y0292005D01*
X0022040Y0292113D01*
X0021934Y0292224D01*
X0021830Y0292337D01*
X0021730Y0292453D01*
X0021632Y0292571D01*
X0021538Y0292692D01*
X0021447Y0292815D01*
X0021359Y0292941D01*
X0021275Y0293069D01*
X0021193Y0293199D01*
X0021116Y0293331D01*
X0021041Y0293465D01*
X0020970Y0293601D01*
X0020903Y0293739D01*
X0020839Y0293879D01*
X0020779Y0294020D01*
X0020723Y0294162D01*
X0020670Y0294306D01*
X0020621Y0294452D01*
X0020576Y0294598D01*
X0020535Y0294746D01*
X0020498Y0294894D01*
X0020464Y0295044D01*
X0020434Y0295195D01*
X0020409Y0295346D01*
X0020387Y0295497D01*
X0020369Y0295650D01*
X0020355Y0295802D01*
X0020345Y0295955D01*
X0020339Y0296109D01*
X0020337Y0296262D01*
X0019662Y0192129D02*
X0019664Y0192282D01*
X0019670Y0192436D01*
X0019680Y0192589D01*
X0019694Y0192741D01*
X0019712Y0192894D01*
X0019734Y0193045D01*
X0019759Y0193196D01*
X0019789Y0193347D01*
X0019823Y0193497D01*
X0019860Y0193645D01*
X0019901Y0193793D01*
X0019946Y0193939D01*
X0019995Y0194085D01*
X0020048Y0194229D01*
X0020104Y0194371D01*
X0020164Y0194512D01*
X0020228Y0194652D01*
X0020295Y0194790D01*
X0020366Y0194926D01*
X0020441Y0195060D01*
X0020518Y0195192D01*
X0020600Y0195322D01*
X0020684Y0195450D01*
X0020772Y0195576D01*
X0020863Y0195699D01*
X0020957Y0195820D01*
X0021055Y0195938D01*
X0021155Y0196054D01*
X0021259Y0196167D01*
X0021365Y0196278D01*
X0021474Y0196386D01*
X0021586Y0196491D01*
X0021700Y0196592D01*
X0021818Y0196691D01*
X0021937Y0196787D01*
X0022059Y0196880D01*
X0022184Y0196969D01*
X0022311Y0197056D01*
X0022440Y0197138D01*
X0022571Y0197218D01*
X0022704Y0197294D01*
X0022839Y0197367D01*
X0022976Y0197436D01*
X0023115Y0197501D01*
X0023255Y0197563D01*
X0023397Y0197621D01*
X0023540Y0197676D01*
X0023685Y0197727D01*
X0023831Y0197774D01*
X0023978Y0197817D01*
X0024126Y0197856D01*
X0024275Y0197892D01*
X0024425Y0197923D01*
X0024576Y0197951D01*
X0024727Y0197975D01*
X0024880Y0197995D01*
X0025032Y0198011D01*
X0025185Y0198023D01*
X0025338Y0198031D01*
X0025491Y0198035D01*
X0025645Y0198035D01*
X0025798Y0198031D01*
X0025951Y0198023D01*
X0026104Y0198011D01*
X0026256Y0197995D01*
X0026409Y0197975D01*
X0026560Y0197951D01*
X0026711Y0197923D01*
X0026861Y0197892D01*
X0027010Y0197856D01*
X0027158Y0197817D01*
X0027305Y0197774D01*
X0027451Y0197727D01*
X0027596Y0197676D01*
X0027739Y0197621D01*
X0027881Y0197563D01*
X0028021Y0197501D01*
X0028160Y0197436D01*
X0028297Y0197367D01*
X0028432Y0197294D01*
X0028565Y0197218D01*
X0028696Y0197138D01*
X0028825Y0197056D01*
X0028952Y0196969D01*
X0029077Y0196880D01*
X0029199Y0196787D01*
X0029318Y0196691D01*
X0029436Y0196592D01*
X0029550Y0196491D01*
X0029662Y0196386D01*
X0029771Y0196278D01*
X0029877Y0196167D01*
X0029981Y0196054D01*
X0030081Y0195938D01*
X0030179Y0195820D01*
X0030273Y0195699D01*
X0030364Y0195576D01*
X0030452Y0195450D01*
X0030536Y0195322D01*
X0030618Y0195192D01*
X0030695Y0195060D01*
X0030770Y0194926D01*
X0030841Y0194790D01*
X0030908Y0194652D01*
X0030972Y0194512D01*
X0031032Y0194371D01*
X0031088Y0194229D01*
X0031141Y0194085D01*
X0031190Y0193939D01*
X0031235Y0193793D01*
X0031276Y0193645D01*
X0031313Y0193497D01*
X0031347Y0193347D01*
X0031377Y0193196D01*
X0031402Y0193045D01*
X0031424Y0192894D01*
X0031442Y0192741D01*
X0031456Y0192589D01*
X0031466Y0192436D01*
X0031472Y0192282D01*
X0031474Y0192129D01*
X0031472Y0191976D01*
X0031466Y0191822D01*
X0031456Y0191669D01*
X0031442Y0191517D01*
X0031424Y0191364D01*
X0031402Y0191213D01*
X0031377Y0191062D01*
X0031347Y0190911D01*
X0031313Y0190761D01*
X0031276Y0190613D01*
X0031235Y0190465D01*
X0031190Y0190319D01*
X0031141Y0190173D01*
X0031088Y0190029D01*
X0031032Y0189887D01*
X0030972Y0189746D01*
X0030908Y0189606D01*
X0030841Y0189468D01*
X0030770Y0189332D01*
X0030695Y0189198D01*
X0030618Y0189066D01*
X0030536Y0188936D01*
X0030452Y0188808D01*
X0030364Y0188682D01*
X0030273Y0188559D01*
X0030179Y0188438D01*
X0030081Y0188320D01*
X0029981Y0188204D01*
X0029877Y0188091D01*
X0029771Y0187980D01*
X0029662Y0187872D01*
X0029550Y0187767D01*
X0029436Y0187666D01*
X0029318Y0187567D01*
X0029199Y0187471D01*
X0029077Y0187378D01*
X0028952Y0187289D01*
X0028825Y0187202D01*
X0028696Y0187120D01*
X0028565Y0187040D01*
X0028432Y0186964D01*
X0028297Y0186891D01*
X0028160Y0186822D01*
X0028021Y0186757D01*
X0027881Y0186695D01*
X0027739Y0186637D01*
X0027596Y0186582D01*
X0027451Y0186531D01*
X0027305Y0186484D01*
X0027158Y0186441D01*
X0027010Y0186402D01*
X0026861Y0186366D01*
X0026711Y0186335D01*
X0026560Y0186307D01*
X0026409Y0186283D01*
X0026256Y0186263D01*
X0026104Y0186247D01*
X0025951Y0186235D01*
X0025798Y0186227D01*
X0025645Y0186223D01*
X0025491Y0186223D01*
X0025338Y0186227D01*
X0025185Y0186235D01*
X0025032Y0186247D01*
X0024880Y0186263D01*
X0024727Y0186283D01*
X0024576Y0186307D01*
X0024425Y0186335D01*
X0024275Y0186366D01*
X0024126Y0186402D01*
X0023978Y0186441D01*
X0023831Y0186484D01*
X0023685Y0186531D01*
X0023540Y0186582D01*
X0023397Y0186637D01*
X0023255Y0186695D01*
X0023115Y0186757D01*
X0022976Y0186822D01*
X0022839Y0186891D01*
X0022704Y0186964D01*
X0022571Y0187040D01*
X0022440Y0187120D01*
X0022311Y0187202D01*
X0022184Y0187289D01*
X0022059Y0187378D01*
X0021937Y0187471D01*
X0021818Y0187567D01*
X0021700Y0187666D01*
X0021586Y0187767D01*
X0021474Y0187872D01*
X0021365Y0187980D01*
X0021259Y0188091D01*
X0021155Y0188204D01*
X0021055Y0188320D01*
X0020957Y0188438D01*
X0020863Y0188559D01*
X0020772Y0188682D01*
X0020684Y0188808D01*
X0020600Y0188936D01*
X0020518Y0189066D01*
X0020441Y0189198D01*
X0020366Y0189332D01*
X0020295Y0189468D01*
X0020228Y0189606D01*
X0020164Y0189746D01*
X0020104Y0189887D01*
X0020048Y0190029D01*
X0019995Y0190173D01*
X0019946Y0190319D01*
X0019901Y0190465D01*
X0019860Y0190613D01*
X0019823Y0190761D01*
X0019789Y0190911D01*
X0019759Y0191062D01*
X0019734Y0191213D01*
X0019712Y0191364D01*
X0019694Y0191517D01*
X0019680Y0191669D01*
X0019670Y0191822D01*
X0019664Y0191976D01*
X0019662Y0192129D01*
X0126872Y0507089D02*
X0126874Y0507242D01*
X0126880Y0507396D01*
X0126890Y0507549D01*
X0126904Y0507701D01*
X0126922Y0507854D01*
X0126944Y0508005D01*
X0126969Y0508156D01*
X0126999Y0508307D01*
X0127033Y0508457D01*
X0127070Y0508605D01*
X0127111Y0508753D01*
X0127156Y0508899D01*
X0127205Y0509045D01*
X0127258Y0509189D01*
X0127314Y0509331D01*
X0127374Y0509472D01*
X0127438Y0509612D01*
X0127505Y0509750D01*
X0127576Y0509886D01*
X0127651Y0510020D01*
X0127728Y0510152D01*
X0127810Y0510282D01*
X0127894Y0510410D01*
X0127982Y0510536D01*
X0128073Y0510659D01*
X0128167Y0510780D01*
X0128265Y0510898D01*
X0128365Y0511014D01*
X0128469Y0511127D01*
X0128575Y0511238D01*
X0128684Y0511346D01*
X0128796Y0511451D01*
X0128910Y0511552D01*
X0129028Y0511651D01*
X0129147Y0511747D01*
X0129269Y0511840D01*
X0129394Y0511929D01*
X0129521Y0512016D01*
X0129650Y0512098D01*
X0129781Y0512178D01*
X0129914Y0512254D01*
X0130049Y0512327D01*
X0130186Y0512396D01*
X0130325Y0512461D01*
X0130465Y0512523D01*
X0130607Y0512581D01*
X0130750Y0512636D01*
X0130895Y0512687D01*
X0131041Y0512734D01*
X0131188Y0512777D01*
X0131336Y0512816D01*
X0131485Y0512852D01*
X0131635Y0512883D01*
X0131786Y0512911D01*
X0131937Y0512935D01*
X0132090Y0512955D01*
X0132242Y0512971D01*
X0132395Y0512983D01*
X0132548Y0512991D01*
X0132701Y0512995D01*
X0132855Y0512995D01*
X0133008Y0512991D01*
X0133161Y0512983D01*
X0133314Y0512971D01*
X0133466Y0512955D01*
X0133619Y0512935D01*
X0133770Y0512911D01*
X0133921Y0512883D01*
X0134071Y0512852D01*
X0134220Y0512816D01*
X0134368Y0512777D01*
X0134515Y0512734D01*
X0134661Y0512687D01*
X0134806Y0512636D01*
X0134949Y0512581D01*
X0135091Y0512523D01*
X0135231Y0512461D01*
X0135370Y0512396D01*
X0135507Y0512327D01*
X0135642Y0512254D01*
X0135775Y0512178D01*
X0135906Y0512098D01*
X0136035Y0512016D01*
X0136162Y0511929D01*
X0136287Y0511840D01*
X0136409Y0511747D01*
X0136528Y0511651D01*
X0136646Y0511552D01*
X0136760Y0511451D01*
X0136872Y0511346D01*
X0136981Y0511238D01*
X0137087Y0511127D01*
X0137191Y0511014D01*
X0137291Y0510898D01*
X0137389Y0510780D01*
X0137483Y0510659D01*
X0137574Y0510536D01*
X0137662Y0510410D01*
X0137746Y0510282D01*
X0137828Y0510152D01*
X0137905Y0510020D01*
X0137980Y0509886D01*
X0138051Y0509750D01*
X0138118Y0509612D01*
X0138182Y0509472D01*
X0138242Y0509331D01*
X0138298Y0509189D01*
X0138351Y0509045D01*
X0138400Y0508899D01*
X0138445Y0508753D01*
X0138486Y0508605D01*
X0138523Y0508457D01*
X0138557Y0508307D01*
X0138587Y0508156D01*
X0138612Y0508005D01*
X0138634Y0507854D01*
X0138652Y0507701D01*
X0138666Y0507549D01*
X0138676Y0507396D01*
X0138682Y0507242D01*
X0138684Y0507089D01*
X0138682Y0506936D01*
X0138676Y0506782D01*
X0138666Y0506629D01*
X0138652Y0506477D01*
X0138634Y0506324D01*
X0138612Y0506173D01*
X0138587Y0506022D01*
X0138557Y0505871D01*
X0138523Y0505721D01*
X0138486Y0505573D01*
X0138445Y0505425D01*
X0138400Y0505279D01*
X0138351Y0505133D01*
X0138298Y0504989D01*
X0138242Y0504847D01*
X0138182Y0504706D01*
X0138118Y0504566D01*
X0138051Y0504428D01*
X0137980Y0504292D01*
X0137905Y0504158D01*
X0137828Y0504026D01*
X0137746Y0503896D01*
X0137662Y0503768D01*
X0137574Y0503642D01*
X0137483Y0503519D01*
X0137389Y0503398D01*
X0137291Y0503280D01*
X0137191Y0503164D01*
X0137087Y0503051D01*
X0136981Y0502940D01*
X0136872Y0502832D01*
X0136760Y0502727D01*
X0136646Y0502626D01*
X0136528Y0502527D01*
X0136409Y0502431D01*
X0136287Y0502338D01*
X0136162Y0502249D01*
X0136035Y0502162D01*
X0135906Y0502080D01*
X0135775Y0502000D01*
X0135642Y0501924D01*
X0135507Y0501851D01*
X0135370Y0501782D01*
X0135231Y0501717D01*
X0135091Y0501655D01*
X0134949Y0501597D01*
X0134806Y0501542D01*
X0134661Y0501491D01*
X0134515Y0501444D01*
X0134368Y0501401D01*
X0134220Y0501362D01*
X0134071Y0501326D01*
X0133921Y0501295D01*
X0133770Y0501267D01*
X0133619Y0501243D01*
X0133466Y0501223D01*
X0133314Y0501207D01*
X0133161Y0501195D01*
X0133008Y0501187D01*
X0132855Y0501183D01*
X0132701Y0501183D01*
X0132548Y0501187D01*
X0132395Y0501195D01*
X0132242Y0501207D01*
X0132090Y0501223D01*
X0131937Y0501243D01*
X0131786Y0501267D01*
X0131635Y0501295D01*
X0131485Y0501326D01*
X0131336Y0501362D01*
X0131188Y0501401D01*
X0131041Y0501444D01*
X0130895Y0501491D01*
X0130750Y0501542D01*
X0130607Y0501597D01*
X0130465Y0501655D01*
X0130325Y0501717D01*
X0130186Y0501782D01*
X0130049Y0501851D01*
X0129914Y0501924D01*
X0129781Y0502000D01*
X0129650Y0502080D01*
X0129521Y0502162D01*
X0129394Y0502249D01*
X0129269Y0502338D01*
X0129147Y0502431D01*
X0129028Y0502527D01*
X0128910Y0502626D01*
X0128796Y0502727D01*
X0128684Y0502832D01*
X0128575Y0502940D01*
X0128469Y0503051D01*
X0128365Y0503164D01*
X0128265Y0503280D01*
X0128167Y0503398D01*
X0128073Y0503519D01*
X0127982Y0503642D01*
X0127894Y0503768D01*
X0127810Y0503896D01*
X0127728Y0504026D01*
X0127651Y0504158D01*
X0127576Y0504292D01*
X0127505Y0504428D01*
X0127438Y0504566D01*
X0127374Y0504706D01*
X0127314Y0504847D01*
X0127258Y0504989D01*
X0127205Y0505133D01*
X0127156Y0505279D01*
X0127111Y0505425D01*
X0127070Y0505573D01*
X0127033Y0505721D01*
X0126999Y0505871D01*
X0126969Y0506022D01*
X0126944Y0506173D01*
X0126922Y0506324D01*
X0126904Y0506477D01*
X0126890Y0506629D01*
X0126880Y0506782D01*
X0126874Y0506936D01*
X0126872Y0507089D01*
X0537451Y0496838D02*
X0537453Y0496991D01*
X0537459Y0497145D01*
X0537469Y0497298D01*
X0537483Y0497450D01*
X0537501Y0497603D01*
X0537523Y0497754D01*
X0537548Y0497905D01*
X0537578Y0498056D01*
X0537612Y0498206D01*
X0537649Y0498354D01*
X0537690Y0498502D01*
X0537735Y0498648D01*
X0537784Y0498794D01*
X0537837Y0498938D01*
X0537893Y0499080D01*
X0537953Y0499221D01*
X0538017Y0499361D01*
X0538084Y0499499D01*
X0538155Y0499635D01*
X0538230Y0499769D01*
X0538307Y0499901D01*
X0538389Y0500031D01*
X0538473Y0500159D01*
X0538561Y0500285D01*
X0538652Y0500408D01*
X0538746Y0500529D01*
X0538844Y0500647D01*
X0538944Y0500763D01*
X0539048Y0500876D01*
X0539154Y0500987D01*
X0539263Y0501095D01*
X0539375Y0501200D01*
X0539489Y0501301D01*
X0539607Y0501400D01*
X0539726Y0501496D01*
X0539848Y0501589D01*
X0539973Y0501678D01*
X0540100Y0501765D01*
X0540229Y0501847D01*
X0540360Y0501927D01*
X0540493Y0502003D01*
X0540628Y0502076D01*
X0540765Y0502145D01*
X0540904Y0502210D01*
X0541044Y0502272D01*
X0541186Y0502330D01*
X0541329Y0502385D01*
X0541474Y0502436D01*
X0541620Y0502483D01*
X0541767Y0502526D01*
X0541915Y0502565D01*
X0542064Y0502601D01*
X0542214Y0502632D01*
X0542365Y0502660D01*
X0542516Y0502684D01*
X0542669Y0502704D01*
X0542821Y0502720D01*
X0542974Y0502732D01*
X0543127Y0502740D01*
X0543280Y0502744D01*
X0543434Y0502744D01*
X0543587Y0502740D01*
X0543740Y0502732D01*
X0543893Y0502720D01*
X0544045Y0502704D01*
X0544198Y0502684D01*
X0544349Y0502660D01*
X0544500Y0502632D01*
X0544650Y0502601D01*
X0544799Y0502565D01*
X0544947Y0502526D01*
X0545094Y0502483D01*
X0545240Y0502436D01*
X0545385Y0502385D01*
X0545528Y0502330D01*
X0545670Y0502272D01*
X0545810Y0502210D01*
X0545949Y0502145D01*
X0546086Y0502076D01*
X0546221Y0502003D01*
X0546354Y0501927D01*
X0546485Y0501847D01*
X0546614Y0501765D01*
X0546741Y0501678D01*
X0546866Y0501589D01*
X0546988Y0501496D01*
X0547107Y0501400D01*
X0547225Y0501301D01*
X0547339Y0501200D01*
X0547451Y0501095D01*
X0547560Y0500987D01*
X0547666Y0500876D01*
X0547770Y0500763D01*
X0547870Y0500647D01*
X0547968Y0500529D01*
X0548062Y0500408D01*
X0548153Y0500285D01*
X0548241Y0500159D01*
X0548325Y0500031D01*
X0548407Y0499901D01*
X0548484Y0499769D01*
X0548559Y0499635D01*
X0548630Y0499499D01*
X0548697Y0499361D01*
X0548761Y0499221D01*
X0548821Y0499080D01*
X0548877Y0498938D01*
X0548930Y0498794D01*
X0548979Y0498648D01*
X0549024Y0498502D01*
X0549065Y0498354D01*
X0549102Y0498206D01*
X0549136Y0498056D01*
X0549166Y0497905D01*
X0549191Y0497754D01*
X0549213Y0497603D01*
X0549231Y0497450D01*
X0549245Y0497298D01*
X0549255Y0497145D01*
X0549261Y0496991D01*
X0549263Y0496838D01*
X0549261Y0496685D01*
X0549255Y0496531D01*
X0549245Y0496378D01*
X0549231Y0496226D01*
X0549213Y0496073D01*
X0549191Y0495922D01*
X0549166Y0495771D01*
X0549136Y0495620D01*
X0549102Y0495470D01*
X0549065Y0495322D01*
X0549024Y0495174D01*
X0548979Y0495028D01*
X0548930Y0494882D01*
X0548877Y0494738D01*
X0548821Y0494596D01*
X0548761Y0494455D01*
X0548697Y0494315D01*
X0548630Y0494177D01*
X0548559Y0494041D01*
X0548484Y0493907D01*
X0548407Y0493775D01*
X0548325Y0493645D01*
X0548241Y0493517D01*
X0548153Y0493391D01*
X0548062Y0493268D01*
X0547968Y0493147D01*
X0547870Y0493029D01*
X0547770Y0492913D01*
X0547666Y0492800D01*
X0547560Y0492689D01*
X0547451Y0492581D01*
X0547339Y0492476D01*
X0547225Y0492375D01*
X0547107Y0492276D01*
X0546988Y0492180D01*
X0546866Y0492087D01*
X0546741Y0491998D01*
X0546614Y0491911D01*
X0546485Y0491829D01*
X0546354Y0491749D01*
X0546221Y0491673D01*
X0546086Y0491600D01*
X0545949Y0491531D01*
X0545810Y0491466D01*
X0545670Y0491404D01*
X0545528Y0491346D01*
X0545385Y0491291D01*
X0545240Y0491240D01*
X0545094Y0491193D01*
X0544947Y0491150D01*
X0544799Y0491111D01*
X0544650Y0491075D01*
X0544500Y0491044D01*
X0544349Y0491016D01*
X0544198Y0490992D01*
X0544045Y0490972D01*
X0543893Y0490956D01*
X0543740Y0490944D01*
X0543587Y0490936D01*
X0543434Y0490932D01*
X0543280Y0490932D01*
X0543127Y0490936D01*
X0542974Y0490944D01*
X0542821Y0490956D01*
X0542669Y0490972D01*
X0542516Y0490992D01*
X0542365Y0491016D01*
X0542214Y0491044D01*
X0542064Y0491075D01*
X0541915Y0491111D01*
X0541767Y0491150D01*
X0541620Y0491193D01*
X0541474Y0491240D01*
X0541329Y0491291D01*
X0541186Y0491346D01*
X0541044Y0491404D01*
X0540904Y0491466D01*
X0540765Y0491531D01*
X0540628Y0491600D01*
X0540493Y0491673D01*
X0540360Y0491749D01*
X0540229Y0491829D01*
X0540100Y0491911D01*
X0539973Y0491998D01*
X0539848Y0492087D01*
X0539726Y0492180D01*
X0539607Y0492276D01*
X0539489Y0492375D01*
X0539375Y0492476D01*
X0539263Y0492581D01*
X0539154Y0492689D01*
X0539048Y0492800D01*
X0538944Y0492913D01*
X0538844Y0493029D01*
X0538746Y0493147D01*
X0538652Y0493268D01*
X0538561Y0493391D01*
X0538473Y0493517D01*
X0538389Y0493645D01*
X0538307Y0493775D01*
X0538230Y0493907D01*
X0538155Y0494041D01*
X0538084Y0494177D01*
X0538017Y0494315D01*
X0537953Y0494455D01*
X0537893Y0494596D01*
X0537837Y0494738D01*
X0537784Y0494882D01*
X0537735Y0495028D01*
X0537690Y0495174D01*
X0537649Y0495322D01*
X0537612Y0495470D01*
X0537578Y0495620D01*
X0537548Y0495771D01*
X0537523Y0495922D01*
X0537501Y0496073D01*
X0537483Y0496226D01*
X0537469Y0496378D01*
X0537459Y0496531D01*
X0537453Y0496685D01*
X0537451Y0496838D01*
X0527926Y0082971D02*
X0527928Y0083124D01*
X0527934Y0083278D01*
X0527944Y0083431D01*
X0527958Y0083583D01*
X0527976Y0083736D01*
X0527998Y0083887D01*
X0528023Y0084038D01*
X0528053Y0084189D01*
X0528087Y0084339D01*
X0528124Y0084487D01*
X0528165Y0084635D01*
X0528210Y0084781D01*
X0528259Y0084927D01*
X0528312Y0085071D01*
X0528368Y0085213D01*
X0528428Y0085354D01*
X0528492Y0085494D01*
X0528559Y0085632D01*
X0528630Y0085768D01*
X0528705Y0085902D01*
X0528782Y0086034D01*
X0528864Y0086164D01*
X0528948Y0086292D01*
X0529036Y0086418D01*
X0529127Y0086541D01*
X0529221Y0086662D01*
X0529319Y0086780D01*
X0529419Y0086896D01*
X0529523Y0087009D01*
X0529629Y0087120D01*
X0529738Y0087228D01*
X0529850Y0087333D01*
X0529964Y0087434D01*
X0530082Y0087533D01*
X0530201Y0087629D01*
X0530323Y0087722D01*
X0530448Y0087811D01*
X0530575Y0087898D01*
X0530704Y0087980D01*
X0530835Y0088060D01*
X0530968Y0088136D01*
X0531103Y0088209D01*
X0531240Y0088278D01*
X0531379Y0088343D01*
X0531519Y0088405D01*
X0531661Y0088463D01*
X0531804Y0088518D01*
X0531949Y0088569D01*
X0532095Y0088616D01*
X0532242Y0088659D01*
X0532390Y0088698D01*
X0532539Y0088734D01*
X0532689Y0088765D01*
X0532840Y0088793D01*
X0532991Y0088817D01*
X0533144Y0088837D01*
X0533296Y0088853D01*
X0533449Y0088865D01*
X0533602Y0088873D01*
X0533755Y0088877D01*
X0533909Y0088877D01*
X0534062Y0088873D01*
X0534215Y0088865D01*
X0534368Y0088853D01*
X0534520Y0088837D01*
X0534673Y0088817D01*
X0534824Y0088793D01*
X0534975Y0088765D01*
X0535125Y0088734D01*
X0535274Y0088698D01*
X0535422Y0088659D01*
X0535569Y0088616D01*
X0535715Y0088569D01*
X0535860Y0088518D01*
X0536003Y0088463D01*
X0536145Y0088405D01*
X0536285Y0088343D01*
X0536424Y0088278D01*
X0536561Y0088209D01*
X0536696Y0088136D01*
X0536829Y0088060D01*
X0536960Y0087980D01*
X0537089Y0087898D01*
X0537216Y0087811D01*
X0537341Y0087722D01*
X0537463Y0087629D01*
X0537582Y0087533D01*
X0537700Y0087434D01*
X0537814Y0087333D01*
X0537926Y0087228D01*
X0538035Y0087120D01*
X0538141Y0087009D01*
X0538245Y0086896D01*
X0538345Y0086780D01*
X0538443Y0086662D01*
X0538537Y0086541D01*
X0538628Y0086418D01*
X0538716Y0086292D01*
X0538800Y0086164D01*
X0538882Y0086034D01*
X0538959Y0085902D01*
X0539034Y0085768D01*
X0539105Y0085632D01*
X0539172Y0085494D01*
X0539236Y0085354D01*
X0539296Y0085213D01*
X0539352Y0085071D01*
X0539405Y0084927D01*
X0539454Y0084781D01*
X0539499Y0084635D01*
X0539540Y0084487D01*
X0539577Y0084339D01*
X0539611Y0084189D01*
X0539641Y0084038D01*
X0539666Y0083887D01*
X0539688Y0083736D01*
X0539706Y0083583D01*
X0539720Y0083431D01*
X0539730Y0083278D01*
X0539736Y0083124D01*
X0539738Y0082971D01*
X0539736Y0082818D01*
X0539730Y0082664D01*
X0539720Y0082511D01*
X0539706Y0082359D01*
X0539688Y0082206D01*
X0539666Y0082055D01*
X0539641Y0081904D01*
X0539611Y0081753D01*
X0539577Y0081603D01*
X0539540Y0081455D01*
X0539499Y0081307D01*
X0539454Y0081161D01*
X0539405Y0081015D01*
X0539352Y0080871D01*
X0539296Y0080729D01*
X0539236Y0080588D01*
X0539172Y0080448D01*
X0539105Y0080310D01*
X0539034Y0080174D01*
X0538959Y0080040D01*
X0538882Y0079908D01*
X0538800Y0079778D01*
X0538716Y0079650D01*
X0538628Y0079524D01*
X0538537Y0079401D01*
X0538443Y0079280D01*
X0538345Y0079162D01*
X0538245Y0079046D01*
X0538141Y0078933D01*
X0538035Y0078822D01*
X0537926Y0078714D01*
X0537814Y0078609D01*
X0537700Y0078508D01*
X0537582Y0078409D01*
X0537463Y0078313D01*
X0537341Y0078220D01*
X0537216Y0078131D01*
X0537089Y0078044D01*
X0536960Y0077962D01*
X0536829Y0077882D01*
X0536696Y0077806D01*
X0536561Y0077733D01*
X0536424Y0077664D01*
X0536285Y0077599D01*
X0536145Y0077537D01*
X0536003Y0077479D01*
X0535860Y0077424D01*
X0535715Y0077373D01*
X0535569Y0077326D01*
X0535422Y0077283D01*
X0535274Y0077244D01*
X0535125Y0077208D01*
X0534975Y0077177D01*
X0534824Y0077149D01*
X0534673Y0077125D01*
X0534520Y0077105D01*
X0534368Y0077089D01*
X0534215Y0077077D01*
X0534062Y0077069D01*
X0533909Y0077065D01*
X0533755Y0077065D01*
X0533602Y0077069D01*
X0533449Y0077077D01*
X0533296Y0077089D01*
X0533144Y0077105D01*
X0532991Y0077125D01*
X0532840Y0077149D01*
X0532689Y0077177D01*
X0532539Y0077208D01*
X0532390Y0077244D01*
X0532242Y0077283D01*
X0532095Y0077326D01*
X0531949Y0077373D01*
X0531804Y0077424D01*
X0531661Y0077479D01*
X0531519Y0077537D01*
X0531379Y0077599D01*
X0531240Y0077664D01*
X0531103Y0077733D01*
X0530968Y0077806D01*
X0530835Y0077882D01*
X0530704Y0077962D01*
X0530575Y0078044D01*
X0530448Y0078131D01*
X0530323Y0078220D01*
X0530201Y0078313D01*
X0530082Y0078409D01*
X0529964Y0078508D01*
X0529850Y0078609D01*
X0529738Y0078714D01*
X0529629Y0078822D01*
X0529523Y0078933D01*
X0529419Y0079046D01*
X0529319Y0079162D01*
X0529221Y0079280D01*
X0529127Y0079401D01*
X0529036Y0079524D01*
X0528948Y0079650D01*
X0528864Y0079778D01*
X0528782Y0079908D01*
X0528705Y0080040D01*
X0528630Y0080174D01*
X0528559Y0080310D01*
X0528492Y0080448D01*
X0528428Y0080588D01*
X0528368Y0080729D01*
X0528312Y0080871D01*
X0528259Y0081015D01*
X0528210Y0081161D01*
X0528165Y0081307D01*
X0528124Y0081455D01*
X0528087Y0081603D01*
X0528053Y0081753D01*
X0528023Y0081904D01*
X0527998Y0082055D01*
X0527976Y0082206D01*
X0527958Y0082359D01*
X0527944Y0082511D01*
X0527934Y0082664D01*
X0527928Y0082818D01*
X0527926Y0082971D01*
D11*
X0461312Y0082500D02*
X0461312Y0087104D01*
X0459010Y0087104D01*
X0458243Y0086337D01*
X0458243Y0084802D01*
X0459010Y0084035D01*
X0461312Y0084035D01*
X0459777Y0084035D02*
X0458243Y0082500D01*
X0456708Y0083267D02*
X0455941Y0082500D01*
X0454406Y0082500D01*
X0453639Y0083267D01*
X0453639Y0084802D01*
X0454406Y0085569D01*
X0455173Y0085569D01*
X0456708Y0084802D01*
X0456708Y0087104D01*
X0453639Y0087104D01*
X0452104Y0084802D02*
X0449802Y0084802D01*
X0449035Y0084035D01*
X0449035Y0083267D01*
X0449802Y0082500D01*
X0451337Y0082500D01*
X0452104Y0083267D01*
X0452104Y0084802D01*
X0450569Y0086337D01*
X0449035Y0087104D01*
X0452104Y0106400D02*
X0452104Y0107167D01*
X0449035Y0110237D01*
X0449035Y0111004D01*
X0452104Y0111004D01*
X0453639Y0111004D02*
X0456708Y0111004D01*
X0456708Y0108702D01*
X0455173Y0109469D01*
X0454406Y0109469D01*
X0453639Y0108702D01*
X0453639Y0107167D01*
X0454406Y0106400D01*
X0455941Y0106400D01*
X0456708Y0107167D01*
X0458243Y0106400D02*
X0459777Y0107935D01*
X0459010Y0107935D02*
X0461312Y0107935D01*
X0461312Y0106400D02*
X0461312Y0111004D01*
X0459010Y0111004D01*
X0458243Y0110237D01*
X0458243Y0108702D01*
X0459010Y0107935D01*
X0416700Y0157600D02*
X0416700Y0162204D01*
X0414398Y0162204D01*
X0413631Y0161437D01*
X0413631Y0159902D01*
X0414398Y0159135D01*
X0416700Y0159135D01*
X0415165Y0159135D02*
X0413631Y0157600D01*
X0412096Y0158367D02*
X0411329Y0157600D01*
X0409794Y0157600D01*
X0409027Y0158367D01*
X0409027Y0159135D01*
X0409794Y0159902D01*
X0412096Y0159902D01*
X0412096Y0158367D01*
X0412096Y0159902D02*
X0410561Y0161437D01*
X0409027Y0162204D01*
X0407492Y0159902D02*
X0404423Y0159902D01*
X0405190Y0162204D02*
X0407492Y0159902D01*
X0405190Y0157600D02*
X0405190Y0162204D01*
X0413123Y0173500D02*
X0416192Y0173500D01*
X0413123Y0176569D01*
X0413123Y0177337D01*
X0413890Y0178104D01*
X0415425Y0178104D01*
X0416192Y0177337D01*
X0417727Y0178104D02*
X0419261Y0177337D01*
X0420796Y0175802D01*
X0418494Y0175802D01*
X0417727Y0175035D01*
X0417727Y0174267D01*
X0418494Y0173500D01*
X0420029Y0173500D01*
X0420796Y0174267D01*
X0420796Y0175802D01*
X0422331Y0175802D02*
X0423098Y0175035D01*
X0425400Y0175035D01*
X0423865Y0175035D02*
X0422331Y0173500D01*
X0422331Y0175802D02*
X0422331Y0177337D01*
X0423098Y0178104D01*
X0425400Y0178104D01*
X0425400Y0173500D01*
X0433600Y0169910D02*
X0433600Y0168375D01*
X0434367Y0167608D01*
X0434367Y0166073D02*
X0435135Y0166073D01*
X0435902Y0165306D01*
X0435902Y0163004D01*
X0434367Y0163004D01*
X0433600Y0163771D01*
X0433600Y0165306D01*
X0434367Y0166073D01*
X0437437Y0164539D02*
X0435902Y0163004D01*
X0435902Y0161469D02*
X0435135Y0160702D01*
X0435135Y0158400D01*
X0435135Y0159935D02*
X0433600Y0161469D01*
X0435902Y0161469D02*
X0437437Y0161469D01*
X0438204Y0160702D01*
X0438204Y0158400D01*
X0433600Y0158400D01*
X0437437Y0164539D02*
X0438204Y0166073D01*
X0437437Y0167608D02*
X0438204Y0168375D01*
X0438204Y0169910D01*
X0437437Y0170677D01*
X0436669Y0170677D01*
X0435902Y0169910D01*
X0435135Y0170677D01*
X0434367Y0170677D01*
X0433600Y0169910D01*
X0435902Y0169910D02*
X0435902Y0169142D01*
X0437100Y0199788D02*
X0441704Y0199788D01*
X0441704Y0202090D01*
X0440937Y0202857D01*
X0439402Y0202857D01*
X0438635Y0202090D01*
X0438635Y0199788D01*
X0438635Y0201323D02*
X0437100Y0202857D01*
X0437867Y0204392D02*
X0437100Y0205159D01*
X0437100Y0206694D01*
X0437867Y0207461D01*
X0439402Y0207461D01*
X0440169Y0206694D01*
X0440169Y0205927D01*
X0439402Y0204392D01*
X0441704Y0204392D01*
X0441704Y0207461D01*
X0440937Y0208996D02*
X0441704Y0209763D01*
X0441704Y0211298D01*
X0440937Y0212065D01*
X0440169Y0212065D01*
X0439402Y0211298D01*
X0438635Y0212065D01*
X0437867Y0212065D01*
X0437100Y0211298D01*
X0437100Y0209763D01*
X0437867Y0208996D01*
X0439402Y0210531D02*
X0439402Y0211298D01*
X0417704Y0211398D02*
X0417704Y0209863D01*
X0416937Y0209096D01*
X0417704Y0207561D02*
X0417704Y0204492D01*
X0415402Y0204492D01*
X0416169Y0206027D01*
X0416169Y0206794D01*
X0415402Y0207561D01*
X0413867Y0207561D01*
X0413100Y0206794D01*
X0413100Y0205259D01*
X0413867Y0204492D01*
X0413100Y0202957D02*
X0414635Y0201423D01*
X0414635Y0202190D02*
X0414635Y0199888D01*
X0413100Y0199888D02*
X0417704Y0199888D01*
X0417704Y0202190D01*
X0416937Y0202957D01*
X0415402Y0202957D01*
X0414635Y0202190D01*
X0413100Y0209096D02*
X0416169Y0212165D01*
X0416937Y0212165D01*
X0417704Y0211398D01*
X0413100Y0212165D02*
X0413100Y0209096D01*
X0471135Y0176337D02*
X0474204Y0173267D01*
X0473437Y0172500D01*
X0471902Y0172500D01*
X0471135Y0173267D01*
X0471135Y0176337D01*
X0471902Y0177104D01*
X0473437Y0177104D01*
X0474204Y0176337D01*
X0474204Y0173267D01*
X0475739Y0173267D02*
X0475739Y0174035D01*
X0476506Y0174802D01*
X0478808Y0174802D01*
X0478808Y0173267D01*
X0478041Y0172500D01*
X0476506Y0172500D01*
X0475739Y0173267D01*
X0477273Y0176337D02*
X0478808Y0174802D01*
X0480343Y0174802D02*
X0481110Y0174035D01*
X0483412Y0174035D01*
X0481877Y0174035D02*
X0480343Y0172500D01*
X0480343Y0174802D02*
X0480343Y0176337D01*
X0481110Y0177104D01*
X0483412Y0177104D01*
X0483412Y0172500D01*
X0482662Y0169104D02*
X0480360Y0169104D01*
X0479593Y0168337D01*
X0479593Y0166802D01*
X0480360Y0166035D01*
X0482662Y0166035D01*
X0483011Y0164775D02*
X0484545Y0164775D01*
X0485313Y0164007D01*
X0485313Y0163240D01*
X0484545Y0162473D01*
X0482243Y0162473D01*
X0482243Y0164007D02*
X0482243Y0160938D01*
X0483011Y0160171D01*
X0484545Y0160171D01*
X0485313Y0160938D01*
X0486847Y0160938D02*
X0487615Y0160171D01*
X0489149Y0160171D01*
X0489917Y0160938D01*
X0491451Y0160938D02*
X0491451Y0161705D01*
X0492219Y0162473D01*
X0493753Y0162473D01*
X0494520Y0163240D01*
X0494520Y0164007D01*
X0493753Y0164775D01*
X0492219Y0164775D01*
X0491451Y0164007D01*
X0489917Y0164007D02*
X0489149Y0164775D01*
X0487615Y0164775D01*
X0486847Y0164007D01*
X0486847Y0163240D01*
X0487615Y0162473D01*
X0486847Y0161705D01*
X0486847Y0160938D01*
X0487615Y0162473D02*
X0488382Y0162473D01*
X0491451Y0160938D02*
X0492219Y0160171D01*
X0493753Y0160171D01*
X0494520Y0160938D01*
X0496055Y0160938D02*
X0496055Y0164775D01*
X0499124Y0164775D02*
X0499124Y0160938D01*
X0498357Y0160171D01*
X0496822Y0160171D01*
X0496055Y0160938D01*
X0492986Y0159404D02*
X0492986Y0165542D01*
X0483011Y0164775D02*
X0482243Y0164007D01*
X0482662Y0164500D02*
X0482662Y0169104D01*
X0481127Y0166035D02*
X0479593Y0164500D01*
X0478058Y0165267D02*
X0477291Y0164500D01*
X0475756Y0164500D01*
X0474989Y0165267D01*
X0474989Y0166035D01*
X0475756Y0166802D01*
X0478058Y0166802D01*
X0478058Y0165267D01*
X0478058Y0166802D02*
X0476523Y0168337D01*
X0474989Y0169104D01*
X0473454Y0167569D02*
X0471919Y0169104D01*
X0471919Y0164500D01*
X0470385Y0164500D02*
X0473454Y0164500D01*
X0477273Y0176337D02*
X0475739Y0177104D01*
X0437204Y0310800D02*
X0432600Y0310800D01*
X0434135Y0310800D02*
X0434135Y0313102D01*
X0434902Y0313869D01*
X0436437Y0313869D01*
X0437204Y0313102D01*
X0437204Y0310800D01*
X0434135Y0312335D02*
X0432600Y0313869D01*
X0433367Y0315404D02*
X0432600Y0316171D01*
X0432600Y0317706D01*
X0433367Y0318473D01*
X0434135Y0318473D01*
X0434902Y0317706D01*
X0434902Y0316939D01*
X0434902Y0317706D02*
X0435669Y0318473D01*
X0436437Y0318473D01*
X0437204Y0317706D01*
X0437204Y0316171D01*
X0436437Y0315404D01*
X0434902Y0320008D02*
X0433367Y0320008D01*
X0432600Y0320775D01*
X0432600Y0322310D01*
X0433367Y0323077D01*
X0434135Y0323077D01*
X0434902Y0322310D01*
X0434902Y0320008D01*
X0436437Y0321542D01*
X0437204Y0323077D01*
X0438312Y0346000D02*
X0438312Y0350604D01*
X0436010Y0350604D01*
X0435243Y0349837D01*
X0435243Y0348302D01*
X0436010Y0347535D01*
X0438312Y0347535D01*
X0436777Y0347535D02*
X0435243Y0346000D01*
X0433708Y0348302D02*
X0430639Y0348302D01*
X0429104Y0348302D02*
X0426802Y0348302D01*
X0426035Y0347535D01*
X0426035Y0346767D01*
X0426802Y0346000D01*
X0428337Y0346000D01*
X0429104Y0346767D01*
X0429104Y0348302D01*
X0427569Y0349837D01*
X0426035Y0350604D01*
X0431406Y0350604D02*
X0431406Y0346000D01*
X0433708Y0348302D02*
X0431406Y0350604D01*
X0435502Y0361900D02*
X0437037Y0361900D01*
X0437804Y0362667D01*
X0437804Y0363435D01*
X0437037Y0364202D01*
X0435502Y0364202D01*
X0434735Y0363435D01*
X0434735Y0362667D01*
X0435502Y0361900D01*
X0435502Y0364202D02*
X0434735Y0364969D01*
X0434735Y0365737D01*
X0435502Y0366504D01*
X0437037Y0366504D01*
X0437804Y0365737D01*
X0437804Y0364969D01*
X0437037Y0364202D01*
X0439339Y0364202D02*
X0442408Y0364202D01*
X0440106Y0366504D01*
X0440106Y0361900D01*
X0443943Y0361900D02*
X0445477Y0363435D01*
X0444710Y0363435D02*
X0447012Y0363435D01*
X0447012Y0361900D02*
X0447012Y0366504D01*
X0444710Y0366504D01*
X0443943Y0365737D01*
X0443943Y0364202D01*
X0444710Y0363435D01*
X0416704Y0364565D02*
X0416704Y0361496D01*
X0416704Y0359194D02*
X0414402Y0356892D01*
X0414402Y0359961D01*
X0412867Y0361496D02*
X0412100Y0361496D01*
X0412867Y0361496D02*
X0415937Y0364565D01*
X0416704Y0364565D01*
X0416704Y0359194D02*
X0412100Y0359194D01*
X0412100Y0355357D02*
X0413635Y0353823D01*
X0413635Y0354590D02*
X0413635Y0352288D01*
X0412100Y0352288D02*
X0416704Y0352288D01*
X0416704Y0354590D01*
X0415937Y0355357D01*
X0414402Y0355357D01*
X0413635Y0354590D01*
X0413204Y0323177D02*
X0412437Y0323177D01*
X0409367Y0320108D01*
X0408600Y0320108D01*
X0409367Y0318573D02*
X0408600Y0317806D01*
X0408600Y0316271D01*
X0409367Y0315504D01*
X0408600Y0313969D02*
X0410135Y0312435D01*
X0410135Y0313202D02*
X0410135Y0310900D01*
X0408600Y0310900D02*
X0413204Y0310900D01*
X0413204Y0313202D01*
X0412437Y0313969D01*
X0410902Y0313969D01*
X0410135Y0313202D01*
X0412437Y0315504D02*
X0413204Y0316271D01*
X0413204Y0317806D01*
X0412437Y0318573D01*
X0411669Y0318573D01*
X0410902Y0317806D01*
X0410135Y0318573D01*
X0409367Y0318573D01*
X0410902Y0317806D02*
X0410902Y0317039D01*
X0413204Y0320108D02*
X0413204Y0323177D01*
X0380300Y0347000D02*
X0380300Y0351604D01*
X0377998Y0351604D01*
X0377231Y0350837D01*
X0377231Y0349302D01*
X0377998Y0348535D01*
X0380300Y0348535D01*
X0378765Y0348535D02*
X0377231Y0347000D01*
X0375696Y0349302D02*
X0372627Y0349302D01*
X0371092Y0349302D02*
X0368023Y0349302D01*
X0368790Y0351604D02*
X0371092Y0349302D01*
X0368790Y0347000D02*
X0368790Y0351604D01*
X0369540Y0355000D02*
X0371075Y0355000D01*
X0371842Y0355767D01*
X0371842Y0357302D02*
X0370308Y0358069D01*
X0369540Y0358069D01*
X0368773Y0357302D01*
X0368773Y0355767D01*
X0369540Y0355000D01*
X0371842Y0357302D02*
X0371842Y0359604D01*
X0368773Y0359604D01*
X0368424Y0359329D02*
X0366889Y0359329D01*
X0366122Y0360096D01*
X0366122Y0363933D01*
X0364587Y0363166D02*
X0363820Y0363933D01*
X0362285Y0363933D01*
X0361518Y0363166D01*
X0359983Y0363166D02*
X0359216Y0363933D01*
X0357682Y0363933D01*
X0356914Y0363166D01*
X0356914Y0362398D01*
X0359983Y0359329D01*
X0356914Y0359329D01*
X0355380Y0359329D02*
X0355380Y0360096D01*
X0352310Y0363166D01*
X0352310Y0363933D01*
X0355380Y0363933D01*
X0361518Y0360864D02*
X0362285Y0361631D01*
X0363820Y0361631D01*
X0364587Y0362398D01*
X0364587Y0363166D01*
X0363053Y0364700D02*
X0363053Y0358562D01*
X0363820Y0359329D02*
X0362285Y0359329D01*
X0361518Y0360096D01*
X0361518Y0360864D01*
X0363820Y0359329D02*
X0364587Y0360096D01*
X0368424Y0359329D02*
X0369191Y0360096D01*
X0369191Y0363933D01*
X0374144Y0359604D02*
X0376446Y0357302D01*
X0373377Y0357302D01*
X0374144Y0355000D02*
X0374144Y0359604D01*
X0377981Y0358837D02*
X0377981Y0357302D01*
X0378748Y0356535D01*
X0381050Y0356535D01*
X0379515Y0356535D02*
X0377981Y0355000D01*
X0381050Y0355000D02*
X0381050Y0359604D01*
X0378748Y0359604D01*
X0377981Y0358837D01*
X0373394Y0351604D02*
X0375696Y0349302D01*
X0373394Y0347000D02*
X0373394Y0351604D01*
X0390123Y0413100D02*
X0393192Y0413100D01*
X0391658Y0413100D02*
X0391658Y0417704D01*
X0393192Y0416169D01*
X0394727Y0415402D02*
X0397796Y0415402D01*
X0395494Y0417704D01*
X0395494Y0413100D01*
X0399331Y0413100D02*
X0400865Y0414635D01*
X0400098Y0414635D02*
X0402400Y0414635D01*
X0402400Y0413100D02*
X0402400Y0417704D01*
X0400098Y0417704D01*
X0399331Y0416937D01*
X0399331Y0415402D01*
X0400098Y0414635D01*
X0399331Y0437000D02*
X0400865Y0438535D01*
X0400098Y0438535D02*
X0402400Y0438535D01*
X0402400Y0437000D02*
X0402400Y0441604D01*
X0400098Y0441604D01*
X0399331Y0440837D01*
X0399331Y0439302D01*
X0400098Y0438535D01*
X0397796Y0439302D02*
X0394727Y0439302D01*
X0393192Y0440837D02*
X0392425Y0441604D01*
X0390890Y0441604D01*
X0390123Y0440837D01*
X0393192Y0437767D01*
X0392425Y0437000D01*
X0390890Y0437000D01*
X0390123Y0437767D01*
X0390123Y0440837D01*
X0393192Y0440837D02*
X0393192Y0437767D01*
X0395494Y0437000D02*
X0395494Y0441604D01*
X0397796Y0439302D01*
X0522800Y0438775D02*
X0522800Y0440310D01*
X0523567Y0441077D01*
X0526637Y0441077D01*
X0527404Y0440310D01*
X0527404Y0438775D01*
X0526637Y0438008D01*
X0525869Y0438008D01*
X0525102Y0438775D01*
X0525102Y0441077D01*
X0522800Y0438775D02*
X0523567Y0438008D01*
X0523567Y0436473D02*
X0522800Y0435706D01*
X0522800Y0434171D01*
X0523567Y0433404D01*
X0522800Y0431869D02*
X0524335Y0430335D01*
X0524335Y0431102D02*
X0524335Y0428800D01*
X0522800Y0428800D02*
X0527404Y0428800D01*
X0527404Y0431102D01*
X0526637Y0431869D01*
X0525102Y0431869D01*
X0524335Y0431102D01*
X0526637Y0433404D02*
X0527404Y0434171D01*
X0527404Y0435706D01*
X0526637Y0436473D01*
X0525869Y0436473D01*
X0525102Y0435706D01*
X0524335Y0436473D01*
X0523567Y0436473D01*
X0525102Y0435706D02*
X0525102Y0434939D01*
X0546800Y0435706D02*
X0546800Y0434171D01*
X0547567Y0433404D01*
X0546800Y0431869D02*
X0548335Y0430335D01*
X0548335Y0431102D02*
X0548335Y0428800D01*
X0546800Y0428800D02*
X0551404Y0428800D01*
X0551404Y0431102D01*
X0550637Y0431869D01*
X0549102Y0431869D01*
X0548335Y0431102D01*
X0550637Y0433404D02*
X0551404Y0434171D01*
X0551404Y0435706D01*
X0550637Y0436473D01*
X0549869Y0436473D01*
X0549102Y0435706D01*
X0548335Y0436473D01*
X0547567Y0436473D01*
X0546800Y0435706D01*
X0549102Y0435706D02*
X0549102Y0434939D01*
X0549869Y0438008D02*
X0549102Y0438775D01*
X0549102Y0440310D01*
X0548335Y0441077D01*
X0547567Y0441077D01*
X0546800Y0440310D01*
X0546800Y0438775D01*
X0547567Y0438008D01*
X0548335Y0438008D01*
X0549102Y0438775D01*
X0549869Y0438008D02*
X0550637Y0438008D01*
X0551404Y0438775D01*
X0551404Y0440310D01*
X0550637Y0441077D01*
X0549869Y0441077D01*
X0549102Y0440310D01*
X0260504Y0187473D02*
X0259737Y0185939D01*
X0258202Y0184404D01*
X0258202Y0186706D01*
X0257435Y0187473D01*
X0256667Y0187473D01*
X0255900Y0186706D01*
X0255900Y0185171D01*
X0256667Y0184404D01*
X0258202Y0184404D01*
X0258202Y0182869D02*
X0257435Y0182102D01*
X0257435Y0179800D01*
X0257435Y0181335D02*
X0255900Y0182869D01*
X0258202Y0182869D02*
X0259737Y0182869D01*
X0260504Y0182102D01*
X0260504Y0179800D01*
X0255900Y0179800D01*
X0236504Y0179800D02*
X0236504Y0182102D01*
X0235737Y0182869D01*
X0234202Y0182869D01*
X0233435Y0182102D01*
X0233435Y0179800D01*
X0233435Y0181335D02*
X0231900Y0182869D01*
X0231900Y0184404D02*
X0232667Y0184404D01*
X0235737Y0187473D01*
X0236504Y0187473D01*
X0236504Y0184404D01*
X0236504Y0179800D02*
X0231900Y0179800D01*
X0156112Y0117504D02*
X0156112Y0112900D01*
X0156112Y0114435D02*
X0153810Y0114435D01*
X0153043Y0115202D01*
X0153043Y0116737D01*
X0153810Y0117504D01*
X0156112Y0117504D01*
X0154577Y0114435D02*
X0153043Y0112900D01*
X0151508Y0112900D02*
X0148439Y0112900D01*
X0149973Y0112900D02*
X0149973Y0117504D01*
X0151508Y0115969D01*
X0146904Y0115202D02*
X0144602Y0115202D01*
X0143835Y0114435D01*
X0143835Y0113667D01*
X0144602Y0112900D01*
X0146137Y0112900D01*
X0146904Y0113667D01*
X0146904Y0115202D01*
X0145369Y0116737D01*
X0143835Y0117504D01*
X0145110Y0101604D02*
X0144343Y0100837D01*
X0144343Y0099302D01*
X0145110Y0098535D01*
X0147412Y0098535D01*
X0145877Y0098535D02*
X0144343Y0097000D01*
X0142808Y0097000D02*
X0139739Y0097000D01*
X0141273Y0097000D02*
X0141273Y0101604D01*
X0142808Y0100069D01*
X0145110Y0101604D02*
X0147412Y0101604D01*
X0147412Y0097000D01*
X0138204Y0099302D02*
X0135135Y0099302D01*
X0135902Y0097000D02*
X0135902Y0101604D01*
X0138204Y0099302D01*
X0125804Y0103288D02*
X0125804Y0105590D01*
X0125037Y0106357D01*
X0123502Y0106357D01*
X0122735Y0105590D01*
X0122735Y0103288D01*
X0122735Y0104823D02*
X0121200Y0106357D01*
X0121200Y0107892D02*
X0121200Y0110961D01*
X0121200Y0109427D02*
X0125804Y0109427D01*
X0124269Y0107892D01*
X0123502Y0112496D02*
X0124269Y0114031D01*
X0124269Y0114798D01*
X0123502Y0115565D01*
X0121967Y0115565D01*
X0121200Y0114798D01*
X0121200Y0113263D01*
X0121967Y0112496D01*
X0123502Y0112496D02*
X0125804Y0112496D01*
X0125804Y0115565D01*
X0125804Y0103288D02*
X0121200Y0103288D01*
X0090150Y0106000D02*
X0090150Y0110604D01*
X0087848Y0110604D01*
X0087081Y0109837D01*
X0087081Y0108302D01*
X0087848Y0107535D01*
X0090150Y0107535D01*
X0088615Y0107535D02*
X0087081Y0106000D01*
X0085546Y0106000D02*
X0082477Y0106000D01*
X0084011Y0106000D02*
X0084011Y0110604D01*
X0085546Y0109069D01*
X0080942Y0109837D02*
X0080175Y0110604D01*
X0078640Y0110604D01*
X0077873Y0109837D01*
X0077873Y0109069D01*
X0078640Y0108302D01*
X0077873Y0107535D01*
X0077873Y0106767D01*
X0078640Y0106000D01*
X0080175Y0106000D01*
X0080942Y0106767D01*
X0079408Y0108302D02*
X0078640Y0108302D01*
X0077524Y0110329D02*
X0075989Y0110329D01*
X0075222Y0111096D01*
X0075222Y0114933D01*
X0073687Y0114166D02*
X0072920Y0114933D01*
X0071385Y0114933D01*
X0070618Y0114166D01*
X0071385Y0112631D02*
X0072920Y0112631D01*
X0073687Y0113398D01*
X0073687Y0114166D01*
X0072153Y0115700D02*
X0072153Y0109562D01*
X0072920Y0110329D02*
X0071385Y0110329D01*
X0070618Y0111096D01*
X0070618Y0111864D01*
X0071385Y0112631D01*
X0069083Y0112631D02*
X0066014Y0112631D01*
X0066782Y0110329D02*
X0066782Y0114933D01*
X0069083Y0112631D01*
X0072920Y0110329D02*
X0073687Y0111096D01*
X0077524Y0110329D02*
X0078291Y0111096D01*
X0078291Y0114933D01*
X0077890Y0102604D02*
X0079425Y0102604D01*
X0080192Y0101837D01*
X0077890Y0102604D02*
X0077123Y0101837D01*
X0077123Y0101069D01*
X0080192Y0098000D01*
X0077123Y0098000D01*
X0081727Y0098000D02*
X0084796Y0098000D01*
X0083261Y0098000D02*
X0083261Y0102604D01*
X0084796Y0101069D01*
X0086331Y0100302D02*
X0087098Y0099535D01*
X0089400Y0099535D01*
X0087865Y0099535D02*
X0086331Y0098000D01*
X0086331Y0100302D02*
X0086331Y0101837D01*
X0087098Y0102604D01*
X0089400Y0102604D01*
X0089400Y0098000D01*
X0118467Y0069573D02*
X0117700Y0068806D01*
X0117700Y0067271D01*
X0118467Y0066504D01*
X0120002Y0066504D02*
X0120769Y0068039D01*
X0120769Y0068806D01*
X0120002Y0069573D01*
X0118467Y0069573D01*
X0120002Y0066504D02*
X0122304Y0066504D01*
X0122304Y0069573D01*
X0121537Y0064969D02*
X0120002Y0064969D01*
X0119235Y0064202D01*
X0119235Y0061900D01*
X0119235Y0063435D02*
X0117700Y0064969D01*
X0117700Y0061900D02*
X0122304Y0061900D01*
X0122304Y0064202D01*
X0121537Y0064969D01*
X0141700Y0064869D02*
X0143235Y0063335D01*
X0143235Y0064102D02*
X0143235Y0061800D01*
X0141700Y0061800D02*
X0146304Y0061800D01*
X0146304Y0064102D01*
X0145537Y0064869D01*
X0144002Y0064869D01*
X0143235Y0064102D01*
X0144002Y0066404D02*
X0144002Y0069473D01*
X0146304Y0068706D02*
X0144002Y0066404D01*
X0141700Y0068706D02*
X0146304Y0068706D01*
X0111500Y0164100D02*
X0111500Y0168704D01*
X0109198Y0168704D01*
X0108431Y0167937D01*
X0108431Y0166402D01*
X0109198Y0165635D01*
X0111500Y0165635D01*
X0109965Y0165635D02*
X0108431Y0164100D01*
X0106896Y0164867D02*
X0106129Y0164100D01*
X0104594Y0164100D01*
X0103827Y0164867D01*
X0103827Y0167937D01*
X0104594Y0168704D01*
X0106129Y0168704D01*
X0106896Y0167937D01*
X0106896Y0167169D01*
X0106129Y0166402D01*
X0103827Y0166402D01*
X0104594Y0188000D02*
X0106129Y0188000D01*
X0106896Y0188767D01*
X0106896Y0189535D01*
X0106129Y0190302D01*
X0104594Y0190302D01*
X0103827Y0189535D01*
X0103827Y0188767D01*
X0104594Y0188000D01*
X0104594Y0190302D02*
X0103827Y0191069D01*
X0103827Y0191837D01*
X0104594Y0192604D01*
X0106129Y0192604D01*
X0106896Y0191837D01*
X0106896Y0191069D01*
X0106129Y0190302D01*
X0108431Y0190302D02*
X0109198Y0189535D01*
X0111500Y0189535D01*
X0109965Y0189535D02*
X0108431Y0188000D01*
X0108431Y0190302D02*
X0108431Y0191837D01*
X0109198Y0192604D01*
X0111500Y0192604D01*
X0111500Y0188000D01*
X0169102Y0351500D02*
X0169102Y0356104D01*
X0171404Y0353802D01*
X0168335Y0353802D01*
X0172939Y0354569D02*
X0176008Y0351500D01*
X0172939Y0351500D01*
X0172939Y0354569D02*
X0172939Y0355337D01*
X0173706Y0356104D01*
X0175241Y0356104D01*
X0176008Y0355337D01*
X0177543Y0355337D02*
X0177543Y0353802D01*
X0178310Y0353035D01*
X0180612Y0353035D01*
X0179077Y0353035D02*
X0177543Y0351500D01*
X0180612Y0351500D02*
X0180612Y0356104D01*
X0178310Y0356104D01*
X0177543Y0355337D01*
X0177543Y0375400D02*
X0179077Y0376935D01*
X0178310Y0376935D02*
X0180612Y0376935D01*
X0180612Y0375400D02*
X0180612Y0380004D01*
X0178310Y0380004D01*
X0177543Y0379237D01*
X0177543Y0377702D01*
X0178310Y0376935D01*
X0176008Y0375400D02*
X0172939Y0378469D01*
X0172939Y0379237D01*
X0173706Y0380004D01*
X0175241Y0380004D01*
X0176008Y0379237D01*
X0176008Y0375400D02*
X0172939Y0375400D01*
X0171404Y0376167D02*
X0170637Y0375400D01*
X0169102Y0375400D01*
X0168335Y0376167D01*
X0168335Y0377702D01*
X0169102Y0378469D01*
X0169869Y0378469D01*
X0171404Y0377702D01*
X0171404Y0380004D01*
X0168335Y0380004D01*
X0136000Y0426600D02*
X0136000Y0431204D01*
X0133698Y0431204D01*
X0132931Y0430437D01*
X0132931Y0428902D01*
X0133698Y0428135D01*
X0136000Y0428135D01*
X0134465Y0428135D02*
X0132931Y0426600D01*
X0131396Y0427367D02*
X0130629Y0426600D01*
X0129094Y0426600D01*
X0128327Y0427367D01*
X0128327Y0428135D01*
X0129094Y0428902D01*
X0129861Y0428902D01*
X0129094Y0428902D02*
X0128327Y0429669D01*
X0128327Y0430437D01*
X0129094Y0431204D01*
X0130629Y0431204D01*
X0131396Y0430437D01*
X0126792Y0430437D02*
X0126025Y0431204D01*
X0124490Y0431204D01*
X0123723Y0430437D01*
X0123723Y0429669D01*
X0126792Y0426600D01*
X0123723Y0426600D01*
X0133190Y0442500D02*
X0134725Y0442500D01*
X0135492Y0443267D01*
X0132423Y0446337D01*
X0132423Y0443267D01*
X0133190Y0442500D01*
X0135492Y0443267D02*
X0135492Y0446337D01*
X0134725Y0447104D01*
X0133190Y0447104D01*
X0132423Y0446337D01*
X0137027Y0446337D02*
X0137027Y0445569D01*
X0137794Y0444802D01*
X0137027Y0444035D01*
X0137027Y0443267D01*
X0137794Y0442500D01*
X0139329Y0442500D01*
X0140096Y0443267D01*
X0141631Y0442500D02*
X0143165Y0444035D01*
X0142398Y0444035D02*
X0144700Y0444035D01*
X0144700Y0442500D02*
X0144700Y0447104D01*
X0142398Y0447104D01*
X0141631Y0446337D01*
X0141631Y0444802D01*
X0142398Y0444035D01*
X0140096Y0446337D02*
X0139329Y0447104D01*
X0137794Y0447104D01*
X0137027Y0446337D01*
X0137794Y0444802D02*
X0138561Y0444802D01*
X0152900Y0439677D02*
X0152900Y0436608D01*
X0152900Y0438142D02*
X0157504Y0438142D01*
X0155969Y0436608D01*
X0155969Y0435073D02*
X0155202Y0434306D01*
X0154435Y0435073D01*
X0153667Y0435073D01*
X0152900Y0434306D01*
X0152900Y0432771D01*
X0153667Y0432004D01*
X0152900Y0430469D02*
X0154435Y0428935D01*
X0154435Y0429702D02*
X0154435Y0427400D01*
X0152900Y0427400D02*
X0157504Y0427400D01*
X0157504Y0429702D01*
X0156737Y0430469D01*
X0155202Y0430469D01*
X0154435Y0429702D01*
X0156737Y0432004D02*
X0157504Y0432771D01*
X0157504Y0434306D01*
X0156737Y0435073D01*
X0155969Y0435073D01*
X0155202Y0434306D02*
X0155202Y0433539D01*
X0189685Y0434267D02*
X0189685Y0437337D01*
X0190452Y0438104D01*
X0191987Y0438104D01*
X0192754Y0437337D01*
X0192754Y0436569D01*
X0191987Y0435802D01*
X0189685Y0435802D01*
X0189685Y0434267D02*
X0190452Y0433500D01*
X0191987Y0433500D01*
X0192754Y0434267D01*
X0194289Y0433500D02*
X0197358Y0433500D01*
X0194289Y0436569D01*
X0194289Y0437337D01*
X0195056Y0438104D01*
X0196591Y0438104D01*
X0197358Y0437337D01*
X0198893Y0437337D02*
X0198893Y0435802D01*
X0199660Y0435035D01*
X0201962Y0435035D01*
X0201543Y0433775D02*
X0204613Y0433775D01*
X0204613Y0431473D01*
X0203078Y0432240D01*
X0202311Y0432240D01*
X0201543Y0431473D01*
X0201543Y0429938D01*
X0202311Y0429171D01*
X0203845Y0429171D01*
X0204613Y0429938D01*
X0206147Y0429171D02*
X0209217Y0429171D01*
X0207682Y0429171D02*
X0207682Y0433775D01*
X0209217Y0432240D01*
X0210751Y0433007D02*
X0211519Y0433775D01*
X0213053Y0433775D01*
X0213820Y0433007D01*
X0213820Y0432240D01*
X0213053Y0431473D01*
X0211519Y0431473D01*
X0210751Y0430705D01*
X0210751Y0429938D01*
X0211519Y0429171D01*
X0213053Y0429171D01*
X0213820Y0429938D01*
X0215355Y0429938D02*
X0215355Y0433775D01*
X0218424Y0433775D02*
X0218424Y0429938D01*
X0217657Y0429171D01*
X0216122Y0429171D01*
X0215355Y0429938D01*
X0212286Y0428404D02*
X0212286Y0434542D01*
X0201962Y0433500D02*
X0201962Y0438104D01*
X0199660Y0438104D01*
X0198893Y0437337D01*
X0200427Y0435035D02*
X0198893Y0433500D01*
X0199643Y0441500D02*
X0201177Y0443035D01*
X0200410Y0443035D02*
X0202712Y0443035D01*
X0202712Y0441500D02*
X0202712Y0446104D01*
X0200410Y0446104D01*
X0199643Y0445337D01*
X0199643Y0443802D01*
X0200410Y0443035D01*
X0198108Y0441500D02*
X0195039Y0444569D01*
X0195039Y0445337D01*
X0195806Y0446104D01*
X0197341Y0446104D01*
X0198108Y0445337D01*
X0198108Y0441500D02*
X0195039Y0441500D01*
X0193504Y0442267D02*
X0193504Y0443035D01*
X0192737Y0443802D01*
X0191202Y0443802D01*
X0190435Y0443035D01*
X0190435Y0442267D01*
X0191202Y0441500D01*
X0192737Y0441500D01*
X0193504Y0442267D01*
X0192737Y0443802D02*
X0193504Y0444569D01*
X0193504Y0445337D01*
X0192737Y0446104D01*
X0191202Y0446104D01*
X0190435Y0445337D01*
X0190435Y0444569D01*
X0191202Y0443802D01*
X0161004Y0468788D02*
X0161004Y0471090D01*
X0160237Y0471857D01*
X0158702Y0471857D01*
X0157935Y0471090D01*
X0157935Y0468788D01*
X0157935Y0470323D02*
X0156400Y0471857D01*
X0156400Y0473392D02*
X0159469Y0476461D01*
X0160237Y0476461D01*
X0161004Y0475694D01*
X0161004Y0474159D01*
X0160237Y0473392D01*
X0156400Y0473392D02*
X0156400Y0476461D01*
X0156400Y0477996D02*
X0156400Y0481065D01*
X0156400Y0479531D02*
X0161004Y0479531D01*
X0159469Y0477996D01*
X0161004Y0468788D02*
X0156400Y0468788D01*
X0137004Y0468888D02*
X0137004Y0471190D01*
X0136237Y0471957D01*
X0134702Y0471957D01*
X0133935Y0471190D01*
X0133935Y0468888D01*
X0133935Y0470423D02*
X0132400Y0471957D01*
X0132400Y0473492D02*
X0135469Y0476561D01*
X0136237Y0476561D01*
X0137004Y0475794D01*
X0137004Y0474259D01*
X0136237Y0473492D01*
X0132400Y0473492D02*
X0132400Y0476561D01*
X0133167Y0478096D02*
X0136237Y0481165D01*
X0133167Y0481165D01*
X0132400Y0480398D01*
X0132400Y0478863D01*
X0133167Y0478096D01*
X0136237Y0478096D01*
X0137004Y0478863D01*
X0137004Y0480398D01*
X0136237Y0481165D01*
X0137004Y0468888D02*
X0132400Y0468888D01*
X0046037Y0363165D02*
X0045269Y0363165D01*
X0044502Y0362398D01*
X0043735Y0363165D01*
X0042967Y0363165D01*
X0042200Y0362398D01*
X0042200Y0360863D01*
X0042967Y0360096D01*
X0042200Y0358561D02*
X0042200Y0355492D01*
X0045269Y0358561D01*
X0046037Y0358561D01*
X0046804Y0357794D01*
X0046804Y0356259D01*
X0046037Y0355492D01*
X0046037Y0353957D02*
X0044502Y0353957D01*
X0043735Y0353190D01*
X0043735Y0350888D01*
X0043735Y0352423D02*
X0042200Y0353957D01*
X0042200Y0350888D02*
X0046804Y0350888D01*
X0046804Y0353190D01*
X0046037Y0353957D01*
X0046037Y0360096D02*
X0046804Y0360863D01*
X0046804Y0362398D01*
X0046037Y0363165D01*
X0044502Y0362398D02*
X0044502Y0361631D01*
X0022804Y0362398D02*
X0022804Y0360863D01*
X0022037Y0360096D01*
X0022037Y0358561D02*
X0022804Y0357794D01*
X0022804Y0356259D01*
X0022037Y0355492D01*
X0022037Y0353957D02*
X0020502Y0353957D01*
X0019735Y0353190D01*
X0019735Y0350888D01*
X0019735Y0352423D02*
X0018200Y0353957D01*
X0018200Y0355492D02*
X0021269Y0358561D01*
X0022037Y0358561D01*
X0018200Y0358561D02*
X0018200Y0355492D01*
X0022037Y0353957D02*
X0022804Y0353190D01*
X0022804Y0350888D01*
X0018200Y0350888D01*
X0018200Y0360096D02*
X0021269Y0363165D01*
X0022037Y0363165D01*
X0022804Y0362398D01*
X0018200Y0363165D02*
X0018200Y0360096D01*
X0298900Y0093398D02*
X0303504Y0093398D01*
X0301202Y0091096D01*
X0301202Y0094165D01*
X0301202Y0089561D02*
X0299667Y0089561D01*
X0298900Y0088794D01*
X0298900Y0087259D01*
X0299667Y0086492D01*
X0301202Y0086492D02*
X0301969Y0088027D01*
X0301969Y0088794D01*
X0301202Y0089561D01*
X0303504Y0089561D02*
X0303504Y0086492D01*
X0301202Y0086492D01*
X0301202Y0084957D02*
X0300435Y0084190D01*
X0300435Y0081888D01*
X0300435Y0083423D02*
X0298900Y0084957D01*
X0301202Y0084957D02*
X0302737Y0084957D01*
X0303504Y0084190D01*
X0303504Y0081888D01*
X0298900Y0081888D01*
X0322900Y0081888D02*
X0327504Y0081888D01*
X0327504Y0084190D01*
X0326737Y0084957D01*
X0325202Y0084957D01*
X0324435Y0084190D01*
X0324435Y0081888D01*
X0324435Y0083423D02*
X0322900Y0084957D01*
X0323667Y0086492D02*
X0322900Y0087259D01*
X0322900Y0088794D01*
X0323667Y0089561D01*
X0325202Y0089561D01*
X0325969Y0088794D01*
X0325969Y0088027D01*
X0325202Y0086492D01*
X0327504Y0086492D01*
X0327504Y0089561D01*
X0327504Y0091096D02*
X0325202Y0091096D01*
X0325969Y0092631D01*
X0325969Y0093398D01*
X0325202Y0094165D01*
X0323667Y0094165D01*
X0322900Y0093398D01*
X0322900Y0091863D01*
X0323667Y0091096D01*
X0327504Y0091096D02*
X0327504Y0094165D01*
D12*
X0498020Y0217405D02*
X0525580Y0217405D01*
X0525580Y0242995D01*
X0498020Y0242995D01*
X0498020Y0217405D01*
X0504910Y0217405D02*
X0518690Y0217405D01*
X0518690Y0242995D01*
X0504910Y0242995D01*
X0504910Y0217405D01*
X0352280Y0281105D02*
X0352280Y0306695D01*
X0324720Y0306695D01*
X0324720Y0281105D01*
X0352280Y0281105D01*
X0345390Y0281105D02*
X0345390Y0306695D01*
X0331610Y0306695D01*
X0331610Y0281105D01*
X0345390Y0281105D01*
X0244880Y0486405D02*
X0217320Y0486405D01*
X0217320Y0511995D01*
X0244880Y0511995D01*
X0244880Y0486405D01*
X0237990Y0486405D02*
X0224210Y0486405D01*
X0224210Y0511995D01*
X0237990Y0511995D01*
X0237990Y0486405D01*
X0061380Y0057695D02*
X0033820Y0057695D01*
X0033820Y0032105D01*
X0061380Y0032105D01*
X0061380Y0057695D01*
X0054490Y0057695D02*
X0040710Y0057695D01*
X0040710Y0032105D01*
X0054490Y0032105D01*
X0054490Y0057695D01*
M02*
