G75*
%MOIN*%
%OFA0B0*%
%FSLAX25Y25*%
%IPPOS*%
%LPD*%
%AMOC8*
5,1,8,0,0,1.08239X$1,22.5*
%
%ADD10C,0.05543*%
%ADD11C,0.07087*%
%ADD12R,0.03937X0.04331*%
%ADD13R,0.07098X0.06299*%
%ADD14R,0.06299X0.07098*%
%ADD15R,0.09100X0.05100*%
%ADD16R,0.25600X0.23200*%
%ADD17C,0.04756*%
%ADD18R,0.05906X0.15748*%
%ADD19R,0.05906X0.03937*%
%ADD20R,0.04331X0.03937*%
%ADD21C,0.07400*%
%ADD22C,0.03100*%
%ADD23C,0.06000*%
%ADD24C,0.02800*%
%ADD25C,0.05000*%
%ADD26C,0.01000*%
%ADD27C,0.15000*%
%ADD28C,0.03118*%
%ADD29C,0.04000*%
%ADD30C,0.07500*%
%ADD31C,0.03000*%
%ADD32C,0.11000*%
%ADD33C,0.07500*%
%ADD34C,0.01500*%
%ADD35C,0.02500*%
%ADD36C,0.08000*%
D10*
X0033223Y0146026D03*
X0032364Y0165692D03*
X0252135Y0362408D03*
X0251277Y0382074D03*
X0328423Y0409826D03*
X0327564Y0429492D03*
X0545977Y0117674D03*
X0546835Y0098008D03*
D11*
X0557627Y0094538D03*
X0556425Y0122071D03*
X0262927Y0358938D03*
X0261725Y0386471D03*
X0317975Y0405429D03*
X0316773Y0432962D03*
X0021573Y0169162D03*
X0022775Y0141629D03*
D12*
X0074645Y0100029D03*
X0081338Y0100029D03*
X0086504Y0095700D03*
X0093196Y0095700D03*
X0092446Y0087700D03*
X0085754Y0087700D03*
X0134954Y0096700D03*
X0141646Y0096700D03*
X0143654Y0112600D03*
X0150346Y0112600D03*
X0380954Y0351500D03*
X0387646Y0351500D03*
X0388396Y0359500D03*
X0381704Y0359500D03*
X0376538Y0363829D03*
X0369845Y0363829D03*
X0430154Y0360500D03*
X0436846Y0360500D03*
X0438854Y0376400D03*
X0445546Y0376400D03*
X0486754Y0176000D03*
X0493446Y0176000D03*
X0492696Y0168000D03*
X0497862Y0163671D03*
X0504555Y0163671D03*
X0486004Y0168000D03*
X0444246Y0167000D03*
X0437554Y0167000D03*
X0435546Y0151100D03*
X0428854Y0151100D03*
X0140846Y0415500D03*
X0134154Y0415500D03*
X0142854Y0431400D03*
X0149546Y0431400D03*
X0191304Y0432400D03*
X0197996Y0432400D03*
X0203162Y0428071D03*
X0209855Y0428071D03*
X0198746Y0440400D03*
X0192054Y0440400D03*
D13*
X0170000Y0463402D03*
X0170000Y0474598D03*
X0146000Y0474698D03*
X0146000Y0463502D03*
X0055800Y0356698D03*
X0055800Y0345502D03*
X0031800Y0345502D03*
X0031800Y0356698D03*
X0228700Y0182598D03*
X0228700Y0171402D03*
X0252700Y0171402D03*
X0252700Y0182598D03*
X0326500Y0092298D03*
X0326500Y0081102D03*
X0350500Y0081102D03*
X0350500Y0092298D03*
X0440700Y0199102D03*
X0440700Y0210298D03*
X0464700Y0210198D03*
X0464700Y0199002D03*
X0433700Y0317202D03*
X0433700Y0328398D03*
X0409700Y0328498D03*
X0409700Y0317302D03*
X0523900Y0435202D03*
X0523900Y0446398D03*
X0547900Y0446398D03*
X0547900Y0435202D03*
X0138500Y0064598D03*
X0138500Y0053402D03*
X0114500Y0053502D03*
X0114500Y0064698D03*
D14*
X0114298Y0151300D03*
X0103102Y0151300D03*
X0103102Y0175200D03*
X0114298Y0175200D03*
X0170202Y0352900D03*
X0181398Y0352900D03*
X0181398Y0376800D03*
X0170202Y0376800D03*
X0398302Y0415100D03*
X0409498Y0415100D03*
X0409498Y0439000D03*
X0398302Y0439000D03*
X0464902Y0112400D03*
X0476098Y0112400D03*
X0476098Y0088500D03*
X0464902Y0088500D03*
D15*
X0419800Y0094350D03*
X0419800Y0112350D03*
X0159400Y0151350D03*
X0159400Y0169350D03*
X0125100Y0358750D03*
X0125100Y0376750D03*
X0454600Y0415150D03*
X0454600Y0433150D03*
D16*
X0429850Y0424150D03*
X0149850Y0367750D03*
X0134650Y0160350D03*
X0444550Y0103350D03*
D17*
X0435600Y0057000D03*
X0435600Y0049500D03*
X0435600Y0042000D03*
X0428100Y0042000D03*
X0428100Y0049500D03*
X0428100Y0057000D03*
X0384800Y0082500D03*
X0384800Y0090000D03*
X0384800Y0097500D03*
X0377300Y0097500D03*
X0377300Y0090000D03*
X0377300Y0082500D03*
X0374800Y0049600D03*
X0374800Y0042100D03*
X0320200Y0040200D03*
X0320200Y0047700D03*
X0320200Y0055200D03*
X0320200Y0062700D03*
X0201900Y0166200D03*
X0201900Y0173700D03*
X0201900Y0181200D03*
X0194400Y0181200D03*
X0194400Y0173700D03*
X0194400Y0166200D03*
X0151100Y0206700D03*
X0151100Y0214200D03*
X0143600Y0214200D03*
X0143600Y0206700D03*
X0143600Y0221700D03*
X0151100Y0221700D03*
X0204400Y0221600D03*
X0204400Y0214100D03*
X0259000Y0216000D03*
X0259000Y0208500D03*
X0259000Y0201000D03*
X0259000Y0223500D03*
X0140900Y0306400D03*
X0140900Y0313900D03*
X0140900Y0321400D03*
X0133400Y0321400D03*
X0133400Y0313900D03*
X0133400Y0306400D03*
X0090100Y0346900D03*
X0082600Y0346900D03*
X0082600Y0354400D03*
X0082600Y0361900D03*
X0090100Y0361900D03*
X0090100Y0354400D03*
X0080100Y0314000D03*
X0080100Y0306500D03*
X0025500Y0304600D03*
X0025500Y0312100D03*
X0025500Y0319600D03*
X0025500Y0327100D03*
X0438800Y0470500D03*
X0438800Y0478000D03*
X0438800Y0485500D03*
X0446300Y0485500D03*
X0446300Y0478000D03*
X0446300Y0470500D03*
X0489600Y0445000D03*
X0489600Y0437500D03*
X0497100Y0437500D03*
X0497100Y0445000D03*
X0497100Y0430000D03*
X0489600Y0430000D03*
X0499600Y0477900D03*
X0499600Y0485400D03*
X0554200Y0487300D03*
X0554200Y0479800D03*
X0554200Y0472300D03*
X0554200Y0464800D03*
D18*
X0036805Y0037300D03*
X0332005Y0301100D03*
X0247695Y0490800D03*
X0542395Y0226400D03*
D19*
X0516805Y0226400D03*
X0516805Y0217345D03*
X0516805Y0235455D03*
X0357595Y0292045D03*
X0357595Y0301100D03*
X0357595Y0310155D03*
X0222105Y0481745D03*
X0222105Y0490800D03*
X0222105Y0499855D03*
X0062395Y0046355D03*
X0062395Y0037300D03*
X0062395Y0028245D03*
D20*
X0130500Y0103454D03*
X0130500Y0110146D03*
X0425700Y0367254D03*
X0425700Y0373946D03*
X0448700Y0160246D03*
X0448700Y0153554D03*
X0154000Y0417954D03*
X0154000Y0424646D03*
D21*
X0200500Y0500700D03*
X0210500Y0500700D03*
X0256125Y0457297D03*
X0256474Y0447303D03*
X0323225Y0344597D03*
X0323574Y0334603D03*
X0369200Y0291200D03*
X0379200Y0291200D03*
X0495200Y0236300D03*
X0505200Y0236300D03*
X0550825Y0192897D03*
X0551174Y0182903D03*
X0438100Y0074700D03*
X0428100Y0074700D03*
X0151100Y0189000D03*
X0141100Y0189000D03*
X0028025Y0080797D03*
X0028374Y0070803D03*
X0074000Y0027400D03*
X0084000Y0027400D03*
X0133400Y0339100D03*
X0143400Y0339100D03*
X0436300Y0452800D03*
X0446300Y0452800D03*
D22*
X0456300Y0443600D03*
X0465800Y0446900D03*
X0464000Y0450800D03*
X0469200Y0443600D03*
X0477500Y0459600D03*
X0458300Y0471150D03*
X0451200Y0473400D03*
X0414700Y0456500D03*
X0409100Y0456300D03*
X0403100Y0456600D03*
X0396650Y0460700D03*
X0415350Y0441150D03*
X0419500Y0441300D03*
X0425300Y0438050D03*
X0390600Y0437400D03*
X0388300Y0421400D03*
X0380300Y0402600D03*
X0371300Y0407400D03*
X0358800Y0422800D03*
X0354200Y0430800D03*
X0345200Y0436750D03*
X0363850Y0431850D03*
X0392200Y0397000D03*
X0394200Y0385600D03*
X0388000Y0384200D03*
X0383600Y0386400D03*
X0377400Y0384700D03*
X0370800Y0373400D03*
X0374000Y0370400D03*
X0378900Y0370500D03*
X0383600Y0372100D03*
X0392200Y0373000D03*
X0401300Y0386900D03*
X0413550Y0392800D03*
X0434000Y0381400D03*
X0444400Y0381800D03*
X0432000Y0368900D03*
X0419100Y0369600D03*
X0418100Y0365800D03*
X0417100Y0362000D03*
X0395700Y0354100D03*
X0401000Y0338300D03*
X0405650Y0337000D03*
X0414700Y0334400D03*
X0433800Y0335800D03*
X0443100Y0338800D03*
X0449100Y0337000D03*
X0447400Y0333300D03*
X0456800Y0337200D03*
X0446300Y0357200D03*
X0460900Y0384900D03*
X0451200Y0400000D03*
X0451350Y0407650D03*
X0460600Y0403500D03*
X0481850Y0414700D03*
X0486550Y0417150D03*
X0487900Y0412400D03*
X0491850Y0417100D03*
X0489000Y0422300D03*
X0482850Y0421100D03*
X0513750Y0405500D03*
X0519150Y0404150D03*
X0522000Y0408250D03*
X0525450Y0403100D03*
X0515200Y0399400D03*
X0516100Y0423700D03*
X0515600Y0427800D03*
X0539250Y0424450D03*
X0550500Y0427500D03*
X0551600Y0422350D03*
X0543200Y0451700D03*
X0527700Y0452600D03*
X0523700Y0463200D03*
X0528200Y0464300D03*
X0518654Y0463400D03*
X0510400Y0469250D03*
X0436350Y0403700D03*
X0436200Y0398250D03*
X0375100Y0358400D03*
X0368000Y0357100D03*
X0365544Y0360256D03*
X0353300Y0358800D03*
X0350300Y0353100D03*
X0343400Y0349200D03*
X0342850Y0343800D03*
X0338350Y0336250D03*
X0330650Y0341200D03*
X0320300Y0362100D03*
X0343100Y0366300D03*
X0353700Y0371100D03*
X0361500Y0386400D03*
X0343900Y0385700D03*
X0334900Y0396800D03*
X0319600Y0415500D03*
X0259400Y0429800D03*
X0236600Y0425600D03*
X0226000Y0420800D03*
X0214156Y0431644D03*
X0211700Y0434800D03*
X0204600Y0433500D03*
X0202900Y0444300D03*
X0206300Y0450300D03*
X0210200Y0452800D03*
X0210037Y0446483D03*
X0192850Y0452250D03*
X0178700Y0453600D03*
X0174050Y0454900D03*
X0165000Y0457500D03*
X0145900Y0456100D03*
X0136600Y0453100D03*
X0130600Y0454900D03*
X0132300Y0458600D03*
X0122900Y0454700D03*
X0133400Y0434700D03*
X0147700Y0423000D03*
X0145700Y0410500D03*
X0135300Y0410100D03*
X0118800Y0407000D03*
X0128500Y0391900D03*
X0128350Y0384250D03*
X0119100Y0388400D03*
X0097850Y0377200D03*
X0093150Y0374750D03*
X0091800Y0379500D03*
X0087850Y0374800D03*
X0090700Y0369600D03*
X0096850Y0370800D03*
X0110500Y0348300D03*
X0113900Y0345000D03*
X0115700Y0341100D03*
X0123400Y0348300D03*
X0102200Y0332300D03*
X0121400Y0320750D03*
X0128500Y0318500D03*
X0165000Y0335400D03*
X0170600Y0335600D03*
X0176600Y0335300D03*
X0183050Y0331200D03*
X0164350Y0350750D03*
X0160200Y0350600D03*
X0154400Y0353850D03*
X0143350Y0388200D03*
X0143500Y0393650D03*
X0166150Y0399100D03*
X0178400Y0405000D03*
X0185500Y0406300D03*
X0191700Y0407700D03*
X0196100Y0405500D03*
X0202300Y0407200D03*
X0208900Y0418500D03*
X0205700Y0421500D03*
X0200800Y0421400D03*
X0196100Y0419800D03*
X0187500Y0418900D03*
X0184000Y0437800D03*
X0162600Y0429900D03*
X0161600Y0426100D03*
X0160600Y0422300D03*
X0187500Y0394900D03*
X0199400Y0389300D03*
X0208400Y0384500D03*
X0220900Y0369100D03*
X0225500Y0361100D03*
X0234500Y0355150D03*
X0215850Y0360050D03*
X0191400Y0370500D03*
X0189100Y0354500D03*
X0218200Y0405500D03*
X0235800Y0406200D03*
X0244800Y0395100D03*
X0260100Y0376400D03*
X0226400Y0433100D03*
X0229400Y0438800D03*
X0236300Y0442700D03*
X0236850Y0448100D03*
X0241350Y0455650D03*
X0249050Y0450700D03*
X0215500Y0475100D03*
X0211400Y0477400D03*
X0209900Y0470300D03*
X0205500Y0469400D03*
X0199300Y0463900D03*
X0193400Y0466100D03*
X0196400Y0470600D03*
X0180900Y0470950D03*
X0183900Y0492850D03*
X0186750Y0496800D03*
X0191300Y0499050D03*
X0186900Y0502100D03*
X0181400Y0500250D03*
X0173450Y0501150D03*
X0167550Y0501300D03*
X0160800Y0503050D03*
X0152950Y0504900D03*
X0149900Y0481100D03*
X0145200Y0481450D03*
X0123350Y0491700D03*
X0191100Y0493700D03*
X0064500Y0392500D03*
X0060550Y0387750D03*
X0057700Y0383650D03*
X0054250Y0388800D03*
X0065950Y0386400D03*
X0063600Y0368200D03*
X0064100Y0364100D03*
X0040450Y0367450D03*
X0029200Y0364400D03*
X0028100Y0369550D03*
X0036500Y0340200D03*
X0052000Y0339300D03*
X0056000Y0328700D03*
X0051500Y0327600D03*
X0061046Y0328500D03*
X0069300Y0322650D03*
X0156000Y0209600D03*
X0163100Y0207350D03*
X0182300Y0195800D03*
X0168800Y0187000D03*
X0170600Y0183100D03*
X0174000Y0179800D03*
X0161100Y0179800D03*
X0187650Y0157300D03*
X0191350Y0153350D03*
X0192700Y0148600D03*
X0196650Y0153300D03*
X0193800Y0158500D03*
X0186650Y0150900D03*
X0165400Y0139700D03*
X0156000Y0136200D03*
X0156150Y0143850D03*
X0141150Y0139900D03*
X0141000Y0134450D03*
X0138800Y0117600D03*
X0149200Y0118000D03*
X0165700Y0121100D03*
X0151100Y0093400D03*
X0136800Y0105100D03*
X0123900Y0105800D03*
X0122900Y0102000D03*
X0121900Y0098200D03*
X0100500Y0090300D03*
X0105800Y0074500D03*
X0110450Y0073200D03*
X0119500Y0070600D03*
X0103600Y0057150D03*
X0091100Y0062000D03*
X0088100Y0057500D03*
X0085200Y0064200D03*
X0079000Y0058700D03*
X0074600Y0057800D03*
X0073100Y0050700D03*
X0069000Y0053000D03*
X0074300Y0075300D03*
X0078200Y0077800D03*
X0074463Y0081617D03*
X0081600Y0083800D03*
X0079900Y0094600D03*
X0072800Y0093300D03*
X0070344Y0096456D03*
X0058100Y0095000D03*
X0055100Y0089300D03*
X0048200Y0085400D03*
X0047650Y0080000D03*
X0043150Y0072450D03*
X0035450Y0077400D03*
X0025100Y0098300D03*
X0047900Y0102500D03*
X0058500Y0107300D03*
X0066300Y0122600D03*
X0075600Y0109600D03*
X0078800Y0106600D03*
X0083700Y0106700D03*
X0088400Y0108300D03*
X0097000Y0109200D03*
X0092800Y0120400D03*
X0088400Y0122600D03*
X0082200Y0120900D03*
X0099000Y0121800D03*
X0106100Y0123100D03*
X0097000Y0133200D03*
X0085100Y0138800D03*
X0076100Y0143600D03*
X0063600Y0159000D03*
X0059000Y0167000D03*
X0068650Y0168050D03*
X0050000Y0172950D03*
X0024400Y0151700D03*
X0039700Y0133000D03*
X0048700Y0121900D03*
X0093100Y0157600D03*
X0095400Y0173600D03*
X0107900Y0192800D03*
X0113900Y0192500D03*
X0119500Y0192700D03*
X0120150Y0177350D03*
X0124300Y0177500D03*
X0130100Y0174250D03*
X0101450Y0196900D03*
X0118350Y0129000D03*
X0091650Y0075850D03*
X0134600Y0047000D03*
X0139300Y0046650D03*
X0161150Y0036400D03*
X0131550Y0023200D03*
X0123700Y0025050D03*
X0116950Y0026800D03*
X0111050Y0026950D03*
X0103100Y0027850D03*
X0097600Y0026000D03*
X0097750Y0031300D03*
X0100600Y0035250D03*
X0093400Y0034400D03*
X0093200Y0029050D03*
X0138600Y0072000D03*
X0147900Y0075000D03*
X0153900Y0073200D03*
X0152200Y0069500D03*
X0161600Y0073400D03*
X0220000Y0135600D03*
X0223950Y0140350D03*
X0226800Y0144450D03*
X0230250Y0139300D03*
X0218550Y0141700D03*
X0220900Y0159900D03*
X0220400Y0164000D03*
X0244050Y0160650D03*
X0255300Y0163700D03*
X0256400Y0158550D03*
X0248000Y0187900D03*
X0232500Y0188800D03*
X0228500Y0199400D03*
X0233000Y0200500D03*
X0223454Y0199600D03*
X0215200Y0205450D03*
X0322800Y0105150D03*
X0323900Y0100000D03*
X0335150Y0103050D03*
X0352400Y0119250D03*
X0355250Y0123350D03*
X0360650Y0122000D03*
X0359200Y0128100D03*
X0348950Y0124400D03*
X0358300Y0103800D03*
X0358800Y0099700D03*
X0382550Y0110400D03*
X0387850Y0110350D03*
X0386500Y0115100D03*
X0392550Y0112800D03*
X0391550Y0106400D03*
X0385400Y0105200D03*
X0405200Y0083900D03*
X0408600Y0080600D03*
X0410400Y0076700D03*
X0418100Y0083900D03*
X0396900Y0067900D03*
X0416100Y0056350D03*
X0423200Y0054100D03*
X0449100Y0089450D03*
X0454900Y0086200D03*
X0459050Y0086350D03*
X0459700Y0071000D03*
X0465300Y0071200D03*
X0471300Y0070900D03*
X0477750Y0066800D03*
X0483800Y0090100D03*
X0486100Y0106100D03*
X0494100Y0124900D03*
X0503100Y0120100D03*
X0515600Y0104700D03*
X0520200Y0096700D03*
X0510550Y0095650D03*
X0529200Y0090750D03*
X0554800Y0112000D03*
X0539500Y0130700D03*
X0530500Y0141800D03*
X0520700Y0156400D03*
X0531300Y0161200D03*
X0521100Y0168700D03*
X0524100Y0174400D03*
X0531000Y0178300D03*
X0531550Y0183700D03*
X0536050Y0191250D03*
X0543750Y0186300D03*
X0554100Y0165400D03*
X0512900Y0141100D03*
X0503600Y0154100D03*
X0500400Y0157100D03*
X0495500Y0157000D03*
X0490800Y0155400D03*
X0482200Y0154500D03*
X0486400Y0143300D03*
X0490800Y0141100D03*
X0497000Y0142800D03*
X0480200Y0141900D03*
X0473100Y0140600D03*
X0482200Y0130500D03*
X0460850Y0134700D03*
X0438200Y0129250D03*
X0438050Y0123800D03*
X0423200Y0127500D03*
X0413800Y0124000D03*
X0423050Y0119850D03*
X0413500Y0142600D03*
X0430000Y0145700D03*
X0440400Y0146100D03*
X0442400Y0158600D03*
X0455300Y0157900D03*
X0456300Y0161700D03*
X0457300Y0165500D03*
X0478700Y0173400D03*
X0473400Y0189200D03*
X0468750Y0190500D03*
X0459700Y0193100D03*
X0440600Y0191700D03*
X0431300Y0188700D03*
X0425300Y0190500D03*
X0427000Y0194200D03*
X0417600Y0190300D03*
X0428100Y0170300D03*
X0439900Y0217050D03*
X0444600Y0216700D03*
X0462250Y0236900D03*
X0468150Y0236750D03*
X0476100Y0235850D03*
X0481600Y0237700D03*
X0481450Y0232400D03*
X0478600Y0228450D03*
X0485800Y0229300D03*
X0486000Y0234650D03*
X0506100Y0213000D03*
X0510200Y0210700D03*
X0504600Y0205900D03*
X0500200Y0205000D03*
X0494000Y0199500D03*
X0488100Y0201700D03*
X0491100Y0206200D03*
X0475600Y0206550D03*
X0487550Y0187850D03*
X0497600Y0179900D03*
X0501000Y0185900D03*
X0504900Y0188400D03*
X0504737Y0182083D03*
X0506400Y0170400D03*
X0508856Y0167244D03*
X0499300Y0169100D03*
X0455500Y0238650D03*
X0447650Y0240500D03*
X0418050Y0227300D03*
X0426750Y0287000D03*
X0418900Y0288850D03*
X0412150Y0290600D03*
X0406250Y0290750D03*
X0398300Y0291650D03*
X0392800Y0289800D03*
X0392950Y0295100D03*
X0395800Y0299050D03*
X0388600Y0298200D03*
X0388400Y0292850D03*
X0368300Y0314500D03*
X0364200Y0316800D03*
X0369800Y0321600D03*
X0374200Y0322500D03*
X0380400Y0328000D03*
X0386300Y0325800D03*
X0383300Y0321300D03*
X0398800Y0320950D03*
X0386850Y0339650D03*
X0376800Y0347600D03*
X0373400Y0341600D03*
X0369500Y0339100D03*
X0369663Y0345417D03*
X0429800Y0310800D03*
X0434500Y0310450D03*
X0456350Y0300200D03*
X0346700Y0074900D03*
X0350700Y0064300D03*
X0346200Y0063200D03*
X0355746Y0064100D03*
X0364000Y0058250D03*
X0331200Y0075800D03*
D23*
X0340500Y0084650D02*
X0340600Y0087348D01*
X0335650Y0092298D01*
X0326500Y0092298D01*
X0335650Y0092298D02*
X0350500Y0092298D01*
X0252700Y0171402D02*
X0243550Y0171402D01*
X0238600Y0176352D01*
X0238700Y0179050D01*
X0243550Y0171402D02*
X0228700Y0171402D01*
X0118350Y0129000D02*
X0114298Y0133052D01*
X0114298Y0175200D01*
X0114298Y0151300D01*
X0114500Y0053502D02*
X0114600Y0053402D01*
X0128000Y0053402D01*
X0138500Y0053402D01*
X0138598Y0053500D01*
X0144300Y0042800D02*
X0146800Y0042800D01*
X0148950Y0044950D01*
X0150800Y0044950D01*
X0144300Y0042800D02*
X0143450Y0041950D01*
X0142250Y0041950D01*
X0141500Y0041200D01*
X0140700Y0041200D01*
X0140150Y0040650D01*
X0138350Y0040650D01*
X0136700Y0039000D01*
X0428400Y0218750D02*
X0430250Y0218750D01*
X0432400Y0220900D01*
X0434900Y0220900D01*
X0435750Y0221750D01*
X0436950Y0221750D01*
X0437700Y0222500D01*
X0438500Y0222500D01*
X0439050Y0223050D01*
X0440850Y0223050D01*
X0442500Y0224700D01*
X0440700Y0210298D02*
X0440602Y0210200D01*
X0440700Y0210298D02*
X0451200Y0210298D01*
X0464600Y0210298D01*
X0464700Y0210198D01*
X0460850Y0134700D02*
X0464902Y0130648D01*
X0464902Y0088500D01*
X0464902Y0112400D01*
X0431900Y0302800D02*
X0433550Y0304450D01*
X0435350Y0304450D01*
X0435900Y0305000D01*
X0436700Y0305000D01*
X0437450Y0305750D01*
X0438650Y0305750D01*
X0439500Y0306600D01*
X0442000Y0306600D01*
X0444150Y0308750D01*
X0446000Y0308750D01*
X0433798Y0317300D02*
X0433700Y0317202D01*
X0423200Y0317202D01*
X0409800Y0317202D01*
X0409700Y0317302D01*
X0413550Y0392800D02*
X0409498Y0396852D01*
X0409498Y0439000D01*
X0409498Y0415100D01*
X0523900Y0435202D02*
X0538750Y0435202D01*
X0533800Y0440152D01*
X0533900Y0442850D01*
X0538750Y0435202D02*
X0547900Y0435202D01*
X0170202Y0395048D02*
X0170202Y0352900D01*
X0170202Y0376800D01*
X0170202Y0395048D02*
X0166150Y0399100D01*
X0170000Y0474598D02*
X0169900Y0474698D01*
X0156500Y0474698D01*
X0146000Y0474698D01*
X0145902Y0474600D01*
X0142250Y0486150D02*
X0141050Y0486150D01*
X0140200Y0485300D01*
X0137700Y0485300D01*
X0135550Y0483150D01*
X0133700Y0483150D01*
X0142250Y0486150D02*
X0143000Y0486900D01*
X0143800Y0486900D01*
X0144350Y0487450D01*
X0146150Y0487450D01*
X0147800Y0489100D01*
X0055800Y0356698D02*
X0040950Y0356698D01*
X0045900Y0351748D01*
X0045800Y0349050D01*
X0040950Y0356698D02*
X0031800Y0356698D01*
D24*
X0041850Y0353050D03*
X0045800Y0353050D03*
X0045800Y0349050D03*
X0041850Y0349050D03*
X0156000Y0467200D03*
X0159950Y0467200D03*
X0159950Y0471150D03*
X0156000Y0471150D03*
X0242300Y0436050D03*
X0242300Y0431400D03*
X0246950Y0431400D03*
X0247000Y0436050D03*
X0177700Y0366800D03*
X0177700Y0362850D03*
X0173750Y0362850D03*
X0173750Y0366800D03*
X0332750Y0360500D03*
X0337400Y0360500D03*
X0337400Y0355850D03*
X0332700Y0355850D03*
X0402000Y0425100D03*
X0405950Y0425100D03*
X0405950Y0429050D03*
X0402000Y0429050D03*
X0419750Y0324700D03*
X0419750Y0320750D03*
X0423700Y0320750D03*
X0423700Y0324700D03*
X0450700Y0206750D03*
X0450700Y0202800D03*
X0454650Y0202800D03*
X0454650Y0206750D03*
X0537000Y0171650D03*
X0537000Y0167000D03*
X0541650Y0167000D03*
X0541700Y0171650D03*
X0472400Y0102400D03*
X0472400Y0098450D03*
X0468450Y0098450D03*
X0468450Y0102400D03*
X0340500Y0088650D03*
X0336550Y0088650D03*
X0336550Y0084650D03*
X0340500Y0084650D03*
X0242650Y0175050D03*
X0238700Y0175050D03*
X0238700Y0179050D03*
X0242650Y0179050D03*
X0128500Y0060900D03*
X0128500Y0056950D03*
X0124550Y0056950D03*
X0124550Y0060900D03*
X0042200Y0092050D03*
X0042200Y0096700D03*
X0037550Y0096700D03*
X0037500Y0092050D03*
X0106800Y0161300D03*
X0106800Y0165250D03*
X0110750Y0165250D03*
X0110750Y0161300D03*
X0533900Y0438850D03*
X0537850Y0438850D03*
X0537850Y0442850D03*
X0533900Y0442850D03*
D25*
X0483300Y0421000D02*
X0469100Y0435200D01*
X0454000Y0435200D01*
X0446300Y0442900D01*
X0446300Y0452800D01*
X0436300Y0452800D02*
X0436300Y0430600D01*
X0429850Y0424150D01*
X0419750Y0324700D02*
X0421300Y0319102D01*
X0423200Y0317202D01*
X0451200Y0210298D02*
X0453100Y0208398D01*
X0454650Y0202800D01*
X0391100Y0106500D02*
X0405300Y0092300D01*
X0420400Y0092300D01*
X0428100Y0084600D01*
X0428100Y0074700D01*
X0438100Y0074700D02*
X0438100Y0096900D01*
X0444550Y0103350D01*
X0188100Y0157200D02*
X0173900Y0171400D01*
X0158800Y0171400D01*
X0151100Y0179100D01*
X0151100Y0189000D01*
X0141100Y0189000D02*
X0141100Y0166800D01*
X0134650Y0160350D01*
X0124550Y0060900D02*
X0126100Y0055302D01*
X0128000Y0053402D01*
X0133400Y0339100D02*
X0133400Y0349000D01*
X0125700Y0356700D01*
X0110600Y0356700D01*
X0096400Y0370900D01*
X0143400Y0361300D02*
X0143400Y0339100D01*
X0143400Y0361300D02*
X0149850Y0367750D01*
X0159950Y0467200D02*
X0158400Y0472798D01*
X0156500Y0474698D01*
D26*
X0170000Y0474598D02*
X0174248Y0470350D01*
X0180900Y0470950D01*
X0199300Y0473900D02*
X0199300Y0463900D01*
X0199300Y0473900D02*
X0199900Y0474500D01*
X0208900Y0474500D01*
X0211400Y0477400D01*
X0216352Y0471502D02*
X0217568Y0472006D01*
X0217662Y0472100D01*
X0220500Y0472100D01*
X0220500Y0475050D01*
X0233150Y0475050D01*
X0233150Y0459000D01*
X0232050Y0459000D01*
X0224650Y0451600D01*
X0215800Y0451600D01*
X0213833Y0453567D01*
X0213294Y0454868D01*
X0212268Y0455894D01*
X0210967Y0456433D01*
X0210600Y0456800D01*
X0210600Y0465750D01*
X0216352Y0471502D01*
X0216149Y0471299D02*
X0233150Y0471299D01*
X0233150Y0472297D02*
X0220500Y0472297D01*
X0220500Y0473296D02*
X0233150Y0473296D01*
X0233150Y0474294D02*
X0220500Y0474294D01*
X0215150Y0470300D02*
X0233150Y0470300D01*
X0233150Y0469302D02*
X0214152Y0469302D01*
X0213153Y0468303D02*
X0233150Y0468303D01*
X0233150Y0467305D02*
X0212155Y0467305D01*
X0211156Y0466306D02*
X0233150Y0466306D01*
X0233150Y0465308D02*
X0210600Y0465308D01*
X0210600Y0464309D02*
X0233150Y0464309D01*
X0233150Y0463311D02*
X0210600Y0463311D01*
X0210600Y0462312D02*
X0233150Y0462312D01*
X0233150Y0461314D02*
X0210600Y0461314D01*
X0210600Y0460315D02*
X0233150Y0460315D01*
X0233150Y0459317D02*
X0210600Y0459317D01*
X0210600Y0458318D02*
X0231368Y0458318D01*
X0230370Y0457320D02*
X0210600Y0457320D01*
X0211237Y0456321D02*
X0229371Y0456321D01*
X0228373Y0455323D02*
X0212839Y0455323D01*
X0213519Y0454324D02*
X0227374Y0454324D01*
X0226376Y0453326D02*
X0214074Y0453326D01*
X0215073Y0452327D02*
X0225377Y0452327D01*
X0229400Y0438800D02*
X0219444Y0438744D01*
X0214156Y0431644D01*
X0220456Y0431644D01*
X0244800Y0407400D01*
X0244800Y0395100D01*
X0226000Y0413300D02*
X0218200Y0405500D01*
X0226000Y0413300D02*
X0226000Y0420800D01*
X0236600Y0425600D02*
X0229100Y0433100D01*
X0226400Y0433100D01*
X0236300Y0442700D02*
X0249800Y0442700D01*
X0259400Y0433100D01*
X0259400Y0429800D01*
X0209855Y0428071D02*
X0208600Y0422716D01*
X0208900Y0418500D01*
X0203162Y0428071D02*
X0201862Y0430000D01*
X0201862Y0430762D01*
X0203162Y0428071D02*
X0201533Y0427500D01*
X0197996Y0432400D02*
X0196846Y0432450D01*
X0198746Y0440400D01*
X0192054Y0440400D02*
X0192054Y0445100D01*
X0199500Y0447400D01*
X0204000Y0448700D01*
X0204700Y0448700D01*
X0206300Y0450300D01*
X0192054Y0445100D02*
X0182500Y0447000D01*
X0186900Y0442300D02*
X0187200Y0440600D01*
X0187600Y0437200D01*
X0190004Y0436000D01*
X0191304Y0432400D01*
X0169900Y0412700D02*
X0169900Y0405200D01*
X0169463Y0404763D01*
X0167443Y0405600D01*
X0164857Y0405600D01*
X0162468Y0404610D01*
X0160640Y0402782D01*
X0159650Y0400393D01*
X0159650Y0397807D01*
X0160640Y0395418D01*
X0161500Y0394558D01*
X0161500Y0393953D01*
X0160754Y0393207D01*
X0159650Y0390542D01*
X0159650Y0387658D01*
X0160754Y0384993D01*
X0161500Y0384247D01*
X0161500Y0384100D01*
X0162200Y0383400D01*
X0162200Y0380850D01*
X0150350Y0380850D01*
X0150350Y0368250D01*
X0149350Y0368250D01*
X0149350Y0380400D01*
X0149400Y0380400D01*
X0151100Y0382100D01*
X0151100Y0383392D01*
X0152350Y0386410D01*
X0152350Y0396590D01*
X0151100Y0399608D01*
X0151100Y0409000D01*
X0154585Y0412485D01*
X0156862Y0412485D01*
X0158148Y0413018D01*
X0159133Y0414002D01*
X0159665Y0415289D01*
X0159665Y0417250D01*
X0161605Y0417250D01*
X0161725Y0417300D01*
X0165300Y0417300D01*
X0169900Y0412700D01*
X0169900Y0412387D02*
X0154487Y0412387D01*
X0153488Y0411388D02*
X0169900Y0411388D01*
X0169900Y0410390D02*
X0152490Y0410390D01*
X0151491Y0409391D02*
X0169900Y0409391D01*
X0169900Y0408393D02*
X0151100Y0408393D01*
X0151100Y0407394D02*
X0169900Y0407394D01*
X0169900Y0406396D02*
X0151100Y0406396D01*
X0151100Y0405397D02*
X0164367Y0405397D01*
X0162256Y0404399D02*
X0151100Y0404399D01*
X0151100Y0403400D02*
X0161258Y0403400D01*
X0160482Y0402402D02*
X0151100Y0402402D01*
X0151100Y0401403D02*
X0160068Y0401403D01*
X0159655Y0400405D02*
X0151100Y0400405D01*
X0151184Y0399406D02*
X0159650Y0399406D01*
X0159650Y0398408D02*
X0151597Y0398408D01*
X0152011Y0397409D02*
X0159815Y0397409D01*
X0160228Y0396410D02*
X0152350Y0396410D01*
X0152350Y0395412D02*
X0160646Y0395412D01*
X0161500Y0394413D02*
X0152350Y0394413D01*
X0152350Y0393415D02*
X0160962Y0393415D01*
X0160426Y0392416D02*
X0152350Y0392416D01*
X0152350Y0391418D02*
X0160013Y0391418D01*
X0159650Y0390419D02*
X0152350Y0390419D01*
X0152350Y0389421D02*
X0159650Y0389421D01*
X0159650Y0388422D02*
X0152350Y0388422D01*
X0152350Y0387424D02*
X0159747Y0387424D01*
X0160161Y0386425D02*
X0152350Y0386425D01*
X0151943Y0385427D02*
X0160574Y0385427D01*
X0161319Y0384428D02*
X0151529Y0384428D01*
X0151116Y0383430D02*
X0162170Y0383430D01*
X0162200Y0382431D02*
X0151100Y0382431D01*
X0150433Y0381433D02*
X0162200Y0381433D01*
X0157500Y0375600D02*
X0149850Y0367950D01*
X0149850Y0367750D01*
X0150350Y0367250D02*
X0150350Y0356942D01*
X0150119Y0356711D01*
X0149350Y0354855D01*
X0149350Y0367250D01*
X0150350Y0367250D01*
X0150350Y0366455D02*
X0149350Y0366455D01*
X0149350Y0365457D02*
X0150350Y0365457D01*
X0150350Y0364458D02*
X0149350Y0364458D01*
X0149350Y0363460D02*
X0150350Y0363460D01*
X0150350Y0362461D02*
X0149350Y0362461D01*
X0149350Y0361463D02*
X0150350Y0361463D01*
X0150350Y0360464D02*
X0149350Y0360464D01*
X0149350Y0359466D02*
X0150350Y0359466D01*
X0150350Y0358467D02*
X0149350Y0358467D01*
X0149350Y0357469D02*
X0150350Y0357469D01*
X0150019Y0356470D02*
X0149350Y0356470D01*
X0149350Y0355472D02*
X0149606Y0355472D01*
X0149350Y0354650D02*
X0149350Y0352845D01*
X0150119Y0350989D01*
X0151539Y0349569D01*
X0153395Y0348800D01*
X0155405Y0348800D01*
X0155469Y0348827D01*
X0155919Y0347739D01*
X0157339Y0346319D01*
X0159195Y0345550D01*
X0161205Y0345550D01*
X0162200Y0345962D01*
X0162200Y0341300D01*
X0158200Y0337300D01*
X0152600Y0337300D01*
X0147000Y0331700D01*
X0141800Y0331700D01*
X0140000Y0333500D01*
X0140000Y0335146D01*
X0140012Y0335134D01*
X0140675Y0334653D01*
X0141404Y0334281D01*
X0142182Y0334028D01*
X0142900Y0333914D01*
X0142900Y0338600D01*
X0143900Y0338600D01*
X0143900Y0339600D01*
X0148586Y0339600D01*
X0148472Y0340318D01*
X0148219Y0341096D01*
X0147847Y0341825D01*
X0147366Y0342488D01*
X0146788Y0343066D01*
X0146125Y0343547D01*
X0145396Y0343919D01*
X0144618Y0344172D01*
X0143900Y0344286D01*
X0143900Y0339600D01*
X0142900Y0339600D01*
X0142900Y0344286D01*
X0142182Y0344172D01*
X0141404Y0343919D01*
X0140675Y0343547D01*
X0140012Y0343066D01*
X0140000Y0343054D01*
X0140000Y0343700D01*
X0139400Y0344300D01*
X0139400Y0350193D01*
X0138487Y0352399D01*
X0137600Y0353285D01*
X0137600Y0354650D01*
X0149350Y0354650D01*
X0149350Y0354473D02*
X0137600Y0354473D01*
X0137600Y0353474D02*
X0149350Y0353474D01*
X0149503Y0352476D02*
X0138409Y0352476D01*
X0138868Y0351477D02*
X0149917Y0351477D01*
X0150629Y0350479D02*
X0139282Y0350479D01*
X0139400Y0349480D02*
X0151753Y0349480D01*
X0155611Y0348482D02*
X0139400Y0348482D01*
X0139400Y0347483D02*
X0156175Y0347483D01*
X0157173Y0346485D02*
X0139400Y0346485D01*
X0139400Y0345486D02*
X0162200Y0345486D01*
X0162200Y0344488D02*
X0139400Y0344488D01*
X0140000Y0343489D02*
X0140595Y0343489D01*
X0142900Y0343489D02*
X0143900Y0343489D01*
X0143900Y0342491D02*
X0142900Y0342491D01*
X0142900Y0341492D02*
X0143900Y0341492D01*
X0143900Y0340494D02*
X0142900Y0340494D01*
X0143900Y0339495D02*
X0160395Y0339495D01*
X0159397Y0338497D02*
X0148569Y0338497D01*
X0148586Y0338600D02*
X0143900Y0338600D01*
X0143900Y0333914D01*
X0144618Y0334028D01*
X0145396Y0334281D01*
X0146125Y0334653D01*
X0146788Y0335134D01*
X0147366Y0335712D01*
X0147847Y0336375D01*
X0148219Y0337104D01*
X0148472Y0337882D01*
X0148586Y0338600D01*
X0148347Y0337498D02*
X0158398Y0337498D01*
X0161394Y0340494D02*
X0148415Y0340494D01*
X0148017Y0341492D02*
X0162200Y0341492D01*
X0162200Y0342491D02*
X0147363Y0342491D01*
X0146205Y0343489D02*
X0162200Y0343489D01*
X0165000Y0335400D02*
X0165000Y0328900D01*
X0161500Y0325400D01*
X0128800Y0325400D01*
X0123800Y0317500D01*
X0112300Y0317500D01*
X0129100Y0306400D01*
X0133400Y0306400D01*
X0112300Y0317500D02*
X0109500Y0322600D01*
X0102200Y0329900D01*
X0102200Y0332300D01*
X0105800Y0335900D01*
X0117200Y0335900D01*
X0123400Y0342100D01*
X0123400Y0348300D01*
X0119020Y0352476D02*
X0114880Y0352476D01*
X0115629Y0351727D02*
X0116076Y0350647D01*
X0117327Y0350129D01*
X0117526Y0349929D01*
X0118271Y0351727D01*
X0119973Y0353429D01*
X0122197Y0354350D01*
X0124603Y0354350D01*
X0126827Y0353429D01*
X0128529Y0351727D01*
X0129450Y0349503D01*
X0129450Y0347097D01*
X0128529Y0344873D01*
X0128400Y0344744D01*
X0128400Y0341105D01*
X0127639Y0339268D01*
X0126232Y0337861D01*
X0120571Y0332200D01*
X0131100Y0332200D01*
X0135000Y0332720D01*
X0135000Y0334152D01*
X0134618Y0334028D01*
X0133900Y0333914D01*
X0133900Y0338600D01*
X0132900Y0338600D01*
X0132900Y0333914D01*
X0132182Y0334028D01*
X0131404Y0334281D01*
X0130675Y0334653D01*
X0130012Y0335134D01*
X0129434Y0335712D01*
X0128953Y0336375D01*
X0128581Y0337104D01*
X0128328Y0337882D01*
X0128214Y0338600D01*
X0132900Y0338600D01*
X0132900Y0339600D01*
X0132900Y0344286D01*
X0132182Y0344172D01*
X0131404Y0343919D01*
X0130675Y0343547D01*
X0130012Y0343066D01*
X0129434Y0342488D01*
X0128953Y0341825D01*
X0128581Y0341096D01*
X0128328Y0340318D01*
X0128214Y0339600D01*
X0132900Y0339600D01*
X0133900Y0339600D01*
X0133900Y0342729D01*
X0133361Y0343268D01*
X0132600Y0345105D01*
X0132600Y0345659D01*
X0128229Y0354700D01*
X0125600Y0354700D01*
X0125600Y0358250D01*
X0124600Y0358250D01*
X0124600Y0354700D01*
X0120353Y0354700D01*
X0119971Y0354802D01*
X0119629Y0355000D01*
X0119350Y0355279D01*
X0119152Y0355621D01*
X0119050Y0356003D01*
X0119050Y0358250D01*
X0124600Y0358250D01*
X0124600Y0359250D01*
X0119050Y0359250D01*
X0119050Y0361497D01*
X0119152Y0361879D01*
X0119350Y0362221D01*
X0119629Y0362500D01*
X0119971Y0362698D01*
X0120353Y0362800D01*
X0124312Y0362800D01*
X0123347Y0364796D01*
X0120721Y0365500D01*
X0112528Y0365500D01*
X0111513Y0365489D01*
X0111485Y0365500D01*
X0111456Y0365500D01*
X0110517Y0365889D01*
X0109575Y0366267D01*
X0109553Y0366288D01*
X0109526Y0366299D01*
X0108808Y0367017D01*
X0104218Y0371509D01*
X0096811Y0378456D01*
X0084869Y0379069D01*
X0084300Y0378500D01*
X0084300Y0370500D01*
X0086100Y0368700D01*
X0086100Y0367895D01*
X0086350Y0367791D01*
X0088732Y0368778D01*
X0091468Y0368778D01*
X0093996Y0367731D01*
X0095931Y0365796D01*
X0096978Y0363268D01*
X0096978Y0360532D01*
X0095991Y0358150D01*
X0096978Y0355768D01*
X0096978Y0353032D01*
X0095931Y0350504D01*
X0093996Y0348569D01*
X0093663Y0348431D01*
X0093829Y0348031D01*
X0093978Y0347282D01*
X0093978Y0347089D01*
X0090289Y0347089D01*
X0090289Y0346711D01*
X0093978Y0346711D01*
X0093978Y0346518D01*
X0093829Y0345769D01*
X0093537Y0345063D01*
X0093112Y0344428D01*
X0092572Y0343888D01*
X0091937Y0343463D01*
X0091231Y0343171D01*
X0090482Y0343022D01*
X0090289Y0343022D01*
X0090289Y0346711D01*
X0089911Y0346711D01*
X0089911Y0343022D01*
X0089718Y0343022D01*
X0088969Y0343171D01*
X0088569Y0343337D01*
X0088431Y0343004D01*
X0087213Y0341787D01*
X0091514Y0337486D01*
X0103268Y0349239D01*
X0104563Y0349775D01*
X0105371Y0351727D01*
X0107073Y0353429D01*
X0109297Y0354350D01*
X0111703Y0354350D01*
X0113927Y0353429D01*
X0115629Y0351727D01*
X0115732Y0351477D02*
X0118168Y0351477D01*
X0117754Y0350479D02*
X0116482Y0350479D01*
X0113817Y0353474D02*
X0120083Y0353474D01*
X0119239Y0355472D02*
X0096978Y0355472D01*
X0096978Y0354473D02*
X0128338Y0354473D01*
X0128821Y0353474D02*
X0126717Y0353474D01*
X0127780Y0352476D02*
X0129304Y0352476D01*
X0129787Y0351477D02*
X0128632Y0351477D01*
X0129046Y0350479D02*
X0130270Y0350479D01*
X0130752Y0349480D02*
X0129450Y0349480D01*
X0129450Y0348482D02*
X0131235Y0348482D01*
X0131718Y0347483D02*
X0129450Y0347483D01*
X0129197Y0346485D02*
X0132201Y0346485D01*
X0132600Y0345486D02*
X0128783Y0345486D01*
X0128400Y0344488D02*
X0132856Y0344488D01*
X0132900Y0343489D02*
X0133269Y0343489D01*
X0132900Y0342491D02*
X0133900Y0342491D01*
X0133900Y0341492D02*
X0132900Y0341492D01*
X0132900Y0340494D02*
X0133900Y0340494D01*
X0132900Y0339495D02*
X0127733Y0339495D01*
X0128147Y0340494D02*
X0128385Y0340494D01*
X0128400Y0341492D02*
X0128783Y0341492D01*
X0128400Y0342491D02*
X0129437Y0342491D01*
X0128400Y0343489D02*
X0130595Y0343489D01*
X0132900Y0338497D02*
X0133900Y0338497D01*
X0133900Y0337498D02*
X0132900Y0337498D01*
X0132900Y0336500D02*
X0133900Y0336500D01*
X0133900Y0335501D02*
X0132900Y0335501D01*
X0132900Y0334503D02*
X0133900Y0334503D01*
X0135000Y0333504D02*
X0121875Y0333504D01*
X0120877Y0332506D02*
X0133393Y0332506D01*
X0130969Y0334503D02*
X0122874Y0334503D01*
X0123872Y0335501D02*
X0129645Y0335501D01*
X0128889Y0336500D02*
X0124871Y0336500D01*
X0125869Y0337498D02*
X0128453Y0337498D01*
X0128231Y0338497D02*
X0126868Y0338497D01*
X0115700Y0341100D02*
X0105200Y0341100D01*
X0084900Y0320800D01*
X0084900Y0311100D01*
X0080300Y0306500D01*
X0080100Y0306500D01*
X0080100Y0314000D02*
X0080100Y0319000D01*
X0106100Y0345000D01*
X0113900Y0345000D01*
X0104854Y0350479D02*
X0095906Y0350479D01*
X0096334Y0351477D02*
X0105268Y0351477D01*
X0106120Y0352476D02*
X0096748Y0352476D01*
X0096978Y0353474D02*
X0107183Y0353474D01*
X0103851Y0349480D02*
X0094907Y0349480D01*
X0093785Y0348482D02*
X0102511Y0348482D01*
X0101512Y0347483D02*
X0093938Y0347483D01*
X0093971Y0346485D02*
X0100514Y0346485D01*
X0099515Y0345486D02*
X0093712Y0345486D01*
X0093152Y0344488D02*
X0098517Y0344488D01*
X0097518Y0343489D02*
X0091976Y0343489D01*
X0090289Y0343489D02*
X0089911Y0343489D01*
X0089911Y0344488D02*
X0090289Y0344488D01*
X0090289Y0345486D02*
X0089911Y0345486D01*
X0089911Y0346485D02*
X0090289Y0346485D01*
X0087918Y0342491D02*
X0096520Y0342491D01*
X0095521Y0341492D02*
X0087508Y0341492D01*
X0088506Y0340494D02*
X0094523Y0340494D01*
X0093524Y0339495D02*
X0089505Y0339495D01*
X0090503Y0338497D02*
X0092526Y0338497D01*
X0091527Y0337498D02*
X0091502Y0337498D01*
X0096687Y0356470D02*
X0119050Y0356470D01*
X0119050Y0357469D02*
X0096274Y0357469D01*
X0096123Y0358467D02*
X0124600Y0358467D01*
X0124600Y0357469D02*
X0125600Y0357469D01*
X0125600Y0356470D02*
X0124600Y0356470D01*
X0124600Y0355472D02*
X0125600Y0355472D01*
X0119050Y0359466D02*
X0096536Y0359466D01*
X0096950Y0360464D02*
X0119050Y0360464D01*
X0119050Y0361463D02*
X0096978Y0361463D01*
X0096978Y0362461D02*
X0119590Y0362461D01*
X0120883Y0365457D02*
X0096071Y0365457D01*
X0096485Y0364458D02*
X0123511Y0364458D01*
X0123993Y0363460D02*
X0096899Y0363460D01*
X0095272Y0366455D02*
X0109370Y0366455D01*
X0108362Y0367454D02*
X0094273Y0367454D01*
X0092255Y0368452D02*
X0107342Y0368452D01*
X0106321Y0369451D02*
X0085349Y0369451D01*
X0086100Y0368452D02*
X0087945Y0368452D01*
X0084351Y0370449D02*
X0105301Y0370449D01*
X0104280Y0371448D02*
X0084300Y0371448D01*
X0084300Y0372446D02*
X0103218Y0372446D01*
X0102154Y0373445D02*
X0084300Y0373445D01*
X0084300Y0374443D02*
X0101089Y0374443D01*
X0100024Y0375442D02*
X0084300Y0375442D01*
X0084300Y0376440D02*
X0098960Y0376440D01*
X0097895Y0377439D02*
X0084300Y0377439D01*
X0084300Y0378437D02*
X0096830Y0378437D01*
X0118800Y0407000D02*
X0125654Y0407000D01*
X0134154Y0415500D01*
X0142854Y0424200D01*
X0142854Y0431400D01*
X0142854Y0432854D01*
X0144900Y0434900D01*
X0152600Y0434900D01*
X0154000Y0433900D01*
X0154000Y0424646D01*
X0149546Y0424846D02*
X0147700Y0423000D01*
X0149546Y0424846D02*
X0149546Y0431400D01*
X0154000Y0417954D02*
X0146446Y0410400D01*
X0145700Y0410500D01*
X0140846Y0415500D02*
X0136200Y0410854D01*
X0135300Y0410100D01*
X0158515Y0413385D02*
X0169215Y0413385D01*
X0168216Y0414384D02*
X0159290Y0414384D01*
X0159665Y0415382D02*
X0167218Y0415382D01*
X0166219Y0416381D02*
X0159665Y0416381D01*
X0167933Y0405397D02*
X0169900Y0405397D01*
X0185500Y0406300D02*
X0186900Y0407700D01*
X0191400Y0400800D02*
X0191400Y0370500D01*
X0196200Y0364000D02*
X0189100Y0356900D01*
X0189100Y0354500D01*
X0196200Y0364000D02*
X0196200Y0401100D01*
X0202300Y0407200D01*
X0196100Y0405500D02*
X0191400Y0400800D01*
X0199400Y0389300D02*
X0203600Y0389300D01*
X0208400Y0384500D01*
X0150350Y0380434D02*
X0149434Y0380434D01*
X0149350Y0379436D02*
X0150350Y0379436D01*
X0150350Y0378437D02*
X0149350Y0378437D01*
X0149350Y0377439D02*
X0150350Y0377439D01*
X0150350Y0376440D02*
X0149350Y0376440D01*
X0149350Y0375442D02*
X0150350Y0375442D01*
X0150350Y0374443D02*
X0149350Y0374443D01*
X0149350Y0373445D02*
X0150350Y0373445D01*
X0150350Y0372446D02*
X0149350Y0372446D01*
X0149350Y0371448D02*
X0150350Y0371448D01*
X0150350Y0370449D02*
X0149350Y0370449D01*
X0149350Y0369451D02*
X0150350Y0369451D01*
X0150350Y0368452D02*
X0149350Y0368452D01*
X0143900Y0338497D02*
X0142900Y0338497D01*
X0142900Y0337498D02*
X0143900Y0337498D01*
X0143900Y0336500D02*
X0142900Y0336500D01*
X0142900Y0335501D02*
X0143900Y0335501D01*
X0143900Y0334503D02*
X0142900Y0334503D01*
X0140969Y0334503D02*
X0140000Y0334503D01*
X0140000Y0333504D02*
X0148804Y0333504D01*
X0147806Y0332506D02*
X0140994Y0332506D01*
X0145831Y0334503D02*
X0149803Y0334503D01*
X0150801Y0335501D02*
X0147155Y0335501D01*
X0147911Y0336500D02*
X0151800Y0336500D01*
X0051500Y0327600D02*
X0036000Y0312100D01*
X0025500Y0312100D01*
X0123000Y0202700D02*
X0155700Y0202700D01*
X0160700Y0210600D01*
X0172200Y0210600D01*
X0155400Y0221700D01*
X0151100Y0221700D01*
X0172200Y0210600D02*
X0175000Y0205500D01*
X0182300Y0198200D01*
X0182300Y0195800D01*
X0178700Y0192200D01*
X0167300Y0192200D01*
X0161100Y0186000D01*
X0161100Y0179800D01*
X0155050Y0179734D02*
X0153209Y0179734D01*
X0152726Y0180732D02*
X0155050Y0180732D01*
X0155050Y0181003D02*
X0155050Y0178597D01*
X0155971Y0176373D01*
X0157673Y0174671D01*
X0159897Y0173750D01*
X0162303Y0173750D01*
X0164527Y0174671D01*
X0166229Y0176373D01*
X0166973Y0178170D01*
X0167173Y0177971D01*
X0168424Y0177453D01*
X0168871Y0176373D01*
X0170573Y0174671D01*
X0172797Y0173750D01*
X0175203Y0173750D01*
X0177427Y0174671D01*
X0179129Y0176373D01*
X0179937Y0178325D01*
X0181232Y0178861D01*
X0192986Y0190614D01*
X0197287Y0186313D01*
X0196069Y0185096D01*
X0195931Y0184763D01*
X0195531Y0184929D01*
X0194782Y0185078D01*
X0194589Y0185078D01*
X0194589Y0181389D01*
X0194211Y0181389D01*
X0194211Y0185078D01*
X0194018Y0185078D01*
X0193269Y0184929D01*
X0192563Y0184637D01*
X0191928Y0184212D01*
X0191388Y0183672D01*
X0190963Y0183037D01*
X0190671Y0182331D01*
X0190522Y0181582D01*
X0190522Y0181389D01*
X0194211Y0181389D01*
X0194211Y0181011D01*
X0190522Y0181011D01*
X0190522Y0180818D01*
X0190671Y0180069D01*
X0190837Y0179669D01*
X0190504Y0179531D01*
X0188569Y0177596D01*
X0187522Y0175068D01*
X0187522Y0172332D01*
X0188509Y0169950D01*
X0187522Y0167568D01*
X0187522Y0164832D01*
X0188569Y0162304D01*
X0190504Y0160369D01*
X0193032Y0159322D01*
X0195768Y0159322D01*
X0198150Y0160309D01*
X0198400Y0160205D01*
X0198400Y0159400D01*
X0200200Y0157600D01*
X0200200Y0149600D01*
X0199631Y0149031D01*
X0187689Y0149644D01*
X0180282Y0156591D01*
X0175692Y0161083D01*
X0174974Y0161801D01*
X0174947Y0161812D01*
X0174925Y0161833D01*
X0173983Y0162211D01*
X0173044Y0162600D01*
X0173015Y0162600D01*
X0172987Y0162611D01*
X0171972Y0162600D01*
X0163779Y0162600D01*
X0161153Y0163304D01*
X0160188Y0165300D01*
X0164147Y0165300D01*
X0164529Y0165402D01*
X0164871Y0165600D01*
X0165150Y0165879D01*
X0165348Y0166221D01*
X0165450Y0166603D01*
X0165450Y0168850D01*
X0159900Y0168850D01*
X0159900Y0169850D01*
X0158900Y0169850D01*
X0158900Y0173400D01*
X0156271Y0173400D01*
X0151900Y0182441D01*
X0151900Y0182995D01*
X0151139Y0184832D01*
X0150600Y0185371D01*
X0150600Y0188500D01*
X0151600Y0188500D01*
X0151600Y0189500D01*
X0150600Y0189500D01*
X0150600Y0194186D01*
X0149882Y0194072D01*
X0149500Y0193948D01*
X0149500Y0195380D01*
X0153400Y0195900D01*
X0163929Y0195900D01*
X0158268Y0190239D01*
X0156861Y0188832D01*
X0156100Y0186995D01*
X0156100Y0183356D01*
X0155971Y0183227D01*
X0155050Y0181003D01*
X0155351Y0181731D02*
X0152244Y0181731D01*
X0151900Y0182729D02*
X0155765Y0182729D01*
X0156100Y0183728D02*
X0151596Y0183728D01*
X0151600Y0183814D02*
X0152318Y0183928D01*
X0153096Y0184181D01*
X0153825Y0184553D01*
X0154488Y0185034D01*
X0155066Y0185612D01*
X0155547Y0186275D01*
X0155919Y0187004D01*
X0156172Y0187782D01*
X0156286Y0188500D01*
X0151600Y0188500D01*
X0151600Y0183814D01*
X0151600Y0184726D02*
X0151183Y0184726D01*
X0151600Y0185725D02*
X0150600Y0185725D01*
X0150600Y0186723D02*
X0151600Y0186723D01*
X0151600Y0187722D02*
X0150600Y0187722D01*
X0151600Y0188720D02*
X0156815Y0188720D01*
X0156286Y0189500D02*
X0156172Y0190218D01*
X0155919Y0190996D01*
X0155547Y0191725D01*
X0155066Y0192388D01*
X0154488Y0192966D01*
X0153825Y0193447D01*
X0153096Y0193819D01*
X0152318Y0194072D01*
X0151600Y0194186D01*
X0151600Y0189500D01*
X0156286Y0189500D01*
X0156251Y0189719D02*
X0157748Y0189719D01*
X0158746Y0190717D02*
X0156010Y0190717D01*
X0155552Y0191716D02*
X0159745Y0191716D01*
X0160743Y0192714D02*
X0154740Y0192714D01*
X0153305Y0193713D02*
X0161742Y0193713D01*
X0162740Y0194711D02*
X0149500Y0194711D01*
X0150600Y0193713D02*
X0151600Y0193713D01*
X0151600Y0192714D02*
X0150600Y0192714D01*
X0150600Y0191716D02*
X0151600Y0191716D01*
X0151600Y0190717D02*
X0150600Y0190717D01*
X0150600Y0189719D02*
X0151600Y0189719D01*
X0156152Y0187722D02*
X0156401Y0187722D01*
X0156100Y0186723D02*
X0155776Y0186723D01*
X0156100Y0185725D02*
X0155148Y0185725D01*
X0156100Y0184726D02*
X0154064Y0184726D01*
X0145100Y0183800D02*
X0145100Y0177907D01*
X0146013Y0175701D01*
X0146900Y0174815D01*
X0146900Y0173450D01*
X0135150Y0173450D01*
X0135150Y0175255D01*
X0134381Y0177111D01*
X0132961Y0178531D01*
X0131105Y0179300D01*
X0129095Y0179300D01*
X0129031Y0179273D01*
X0128581Y0180361D01*
X0127161Y0181781D01*
X0125305Y0182550D01*
X0123295Y0182550D01*
X0122300Y0182138D01*
X0122300Y0186800D01*
X0126300Y0190800D01*
X0131900Y0190800D01*
X0137500Y0196400D01*
X0142700Y0196400D01*
X0144500Y0194600D01*
X0144500Y0192954D01*
X0144488Y0192966D01*
X0143825Y0193447D01*
X0143096Y0193819D01*
X0142318Y0194072D01*
X0141600Y0194186D01*
X0141600Y0189500D01*
X0140600Y0189500D01*
X0140600Y0194186D01*
X0139882Y0194072D01*
X0139104Y0193819D01*
X0138375Y0193447D01*
X0137712Y0192966D01*
X0137134Y0192388D01*
X0136653Y0191725D01*
X0136281Y0190996D01*
X0136028Y0190218D01*
X0135914Y0189500D01*
X0140600Y0189500D01*
X0140600Y0188500D01*
X0141600Y0188500D01*
X0141600Y0183814D01*
X0142318Y0183928D01*
X0143096Y0184181D01*
X0143825Y0184553D01*
X0144488Y0185034D01*
X0144500Y0185046D01*
X0144500Y0184400D01*
X0145100Y0183800D01*
X0145100Y0183728D02*
X0122300Y0183728D01*
X0122300Y0184726D02*
X0138136Y0184726D01*
X0138375Y0184553D02*
X0139104Y0184181D01*
X0139882Y0183928D01*
X0140600Y0183814D01*
X0140600Y0188500D01*
X0135914Y0188500D01*
X0136028Y0187782D01*
X0136281Y0187004D01*
X0136653Y0186275D01*
X0137134Y0185612D01*
X0137712Y0185034D01*
X0138375Y0184553D01*
X0137052Y0185725D02*
X0122300Y0185725D01*
X0122300Y0186723D02*
X0136424Y0186723D01*
X0136048Y0187722D02*
X0123222Y0187722D01*
X0124220Y0188720D02*
X0140600Y0188720D01*
X0140600Y0187722D02*
X0141600Y0187722D01*
X0141600Y0186723D02*
X0140600Y0186723D01*
X0140600Y0185725D02*
X0141600Y0185725D01*
X0141600Y0184726D02*
X0140600Y0184726D01*
X0144064Y0184726D02*
X0144500Y0184726D01*
X0145100Y0182729D02*
X0122300Y0182729D01*
X0127211Y0181731D02*
X0145100Y0181731D01*
X0145100Y0180732D02*
X0128210Y0180732D01*
X0128841Y0179734D02*
X0145100Y0179734D01*
X0145100Y0178735D02*
X0132468Y0178735D01*
X0133755Y0177737D02*
X0145170Y0177737D01*
X0145584Y0176738D02*
X0134536Y0176738D01*
X0134949Y0175739D02*
X0145998Y0175739D01*
X0146900Y0174741D02*
X0135150Y0174741D01*
X0135150Y0173742D02*
X0146900Y0173742D01*
X0154175Y0177737D02*
X0155406Y0177737D01*
X0155050Y0178735D02*
X0153692Y0178735D01*
X0154657Y0176738D02*
X0155820Y0176738D01*
X0155140Y0175739D02*
X0156605Y0175739D01*
X0155623Y0174741D02*
X0157603Y0174741D01*
X0156106Y0173742D02*
X0187522Y0173742D01*
X0187522Y0172744D02*
X0165195Y0172744D01*
X0165150Y0172821D02*
X0164871Y0173100D01*
X0164529Y0173298D01*
X0164147Y0173400D01*
X0159900Y0173400D01*
X0159900Y0169850D01*
X0165450Y0169850D01*
X0165450Y0172097D01*
X0165348Y0172479D01*
X0165150Y0172821D01*
X0165450Y0171745D02*
X0187765Y0171745D01*
X0188179Y0170747D02*
X0165450Y0170747D01*
X0165450Y0168750D02*
X0188012Y0168750D01*
X0188425Y0169748D02*
X0159900Y0169748D01*
X0159900Y0170747D02*
X0158900Y0170747D01*
X0158900Y0171745D02*
X0159900Y0171745D01*
X0159900Y0172744D02*
X0158900Y0172744D01*
X0164597Y0174741D02*
X0170503Y0174741D01*
X0169505Y0175739D02*
X0165595Y0175739D01*
X0166380Y0176738D02*
X0168720Y0176738D01*
X0167739Y0177737D02*
X0166794Y0177737D01*
X0170600Y0183100D02*
X0178400Y0183100D01*
X0204400Y0209100D01*
X0204400Y0214100D01*
X0199600Y0217000D02*
X0199600Y0207300D01*
X0179300Y0187000D01*
X0168800Y0187000D01*
X0163739Y0195710D02*
X0151973Y0195710D01*
X0144389Y0194711D02*
X0135811Y0194711D01*
X0134813Y0193713D02*
X0138895Y0193713D01*
X0140600Y0193713D02*
X0141600Y0193713D01*
X0141600Y0192714D02*
X0140600Y0192714D01*
X0140600Y0191716D02*
X0141600Y0191716D01*
X0141600Y0190717D02*
X0140600Y0190717D01*
X0140600Y0189719D02*
X0141600Y0189719D01*
X0143305Y0193713D02*
X0144500Y0193713D01*
X0143390Y0195710D02*
X0136810Y0195710D01*
X0137460Y0192714D02*
X0133814Y0192714D01*
X0132816Y0191716D02*
X0136648Y0191716D01*
X0136190Y0190717D02*
X0126217Y0190717D01*
X0125219Y0189719D02*
X0135949Y0189719D01*
X0135150Y0173245D02*
X0135150Y0160850D01*
X0134150Y0160850D01*
X0134150Y0171158D01*
X0134381Y0171389D01*
X0135150Y0173245D01*
X0135150Y0172744D02*
X0134942Y0172744D01*
X0135150Y0171745D02*
X0134529Y0171745D01*
X0134150Y0170747D02*
X0135150Y0170747D01*
X0135150Y0169748D02*
X0134150Y0169748D01*
X0134150Y0168750D02*
X0135150Y0168750D01*
X0135150Y0167751D02*
X0134150Y0167751D01*
X0134150Y0166753D02*
X0135150Y0166753D01*
X0135150Y0165754D02*
X0134150Y0165754D01*
X0134150Y0164756D02*
X0135150Y0164756D01*
X0135150Y0163757D02*
X0134150Y0163757D01*
X0134150Y0162759D02*
X0135150Y0162759D01*
X0135150Y0161760D02*
X0134150Y0161760D01*
X0134650Y0160350D02*
X0134650Y0160150D01*
X0127000Y0152500D01*
X0122300Y0147250D02*
X0134150Y0147250D01*
X0134150Y0159850D01*
X0135150Y0159850D01*
X0135150Y0147700D01*
X0135100Y0147700D01*
X0133400Y0146000D01*
X0133400Y0144708D01*
X0132150Y0141690D01*
X0132150Y0131510D01*
X0133400Y0128492D01*
X0133400Y0119100D01*
X0129915Y0115615D01*
X0127638Y0115615D01*
X0126352Y0115082D01*
X0125367Y0114098D01*
X0124835Y0112811D01*
X0124835Y0110850D01*
X0122895Y0110850D01*
X0122775Y0110800D01*
X0119200Y0110800D01*
X0114600Y0115400D01*
X0114600Y0122900D01*
X0115037Y0123337D01*
X0117057Y0122500D01*
X0119643Y0122500D01*
X0122032Y0123490D01*
X0123860Y0125318D01*
X0124850Y0127707D01*
X0124850Y0130293D01*
X0123860Y0132682D01*
X0123000Y0133542D01*
X0123000Y0134147D01*
X0123746Y0134893D01*
X0124850Y0137558D01*
X0124850Y0140442D01*
X0123746Y0143107D01*
X0123000Y0143853D01*
X0123000Y0144000D01*
X0122300Y0144700D01*
X0122300Y0147250D01*
X0122300Y0146783D02*
X0134183Y0146783D01*
X0134150Y0147781D02*
X0135150Y0147781D01*
X0135150Y0148780D02*
X0134150Y0148780D01*
X0134150Y0149778D02*
X0135150Y0149778D01*
X0135150Y0150777D02*
X0134150Y0150777D01*
X0134150Y0151775D02*
X0135150Y0151775D01*
X0135150Y0152774D02*
X0134150Y0152774D01*
X0134150Y0153772D02*
X0135150Y0153772D01*
X0135150Y0154771D02*
X0134150Y0154771D01*
X0134150Y0155769D02*
X0135150Y0155769D01*
X0135150Y0156768D02*
X0134150Y0156768D01*
X0134150Y0157766D02*
X0135150Y0157766D01*
X0135150Y0158765D02*
X0134150Y0158765D01*
X0134150Y0159763D02*
X0135150Y0159763D01*
X0133400Y0145784D02*
X0122300Y0145784D01*
X0122300Y0144786D02*
X0133400Y0144786D01*
X0133019Y0143787D02*
X0123066Y0143787D01*
X0123878Y0142789D02*
X0132605Y0142789D01*
X0132191Y0141790D02*
X0124292Y0141790D01*
X0124705Y0140792D02*
X0132150Y0140792D01*
X0132150Y0139793D02*
X0124850Y0139793D01*
X0124850Y0138795D02*
X0132150Y0138795D01*
X0132150Y0137796D02*
X0124850Y0137796D01*
X0124535Y0136798D02*
X0132150Y0136798D01*
X0132150Y0135799D02*
X0124121Y0135799D01*
X0123654Y0134801D02*
X0132150Y0134801D01*
X0132150Y0133802D02*
X0123000Y0133802D01*
X0123739Y0132803D02*
X0132150Y0132803D01*
X0132150Y0131805D02*
X0124224Y0131805D01*
X0124637Y0130806D02*
X0132441Y0130806D01*
X0132855Y0129808D02*
X0124850Y0129808D01*
X0124850Y0128809D02*
X0133269Y0128809D01*
X0133400Y0127811D02*
X0124850Y0127811D01*
X0124479Y0126812D02*
X0133400Y0126812D01*
X0133400Y0125814D02*
X0124066Y0125814D01*
X0123358Y0124815D02*
X0133400Y0124815D01*
X0133400Y0123817D02*
X0122359Y0123817D01*
X0120412Y0122818D02*
X0133400Y0122818D01*
X0133400Y0121820D02*
X0114600Y0121820D01*
X0114600Y0122818D02*
X0116288Y0122818D01*
X0114600Y0120821D02*
X0133400Y0120821D01*
X0133400Y0119823D02*
X0114600Y0119823D01*
X0114600Y0118824D02*
X0133124Y0118824D01*
X0132126Y0117826D02*
X0114600Y0117826D01*
X0114600Y0116827D02*
X0131127Y0116827D01*
X0130129Y0115829D02*
X0114600Y0115829D01*
X0115170Y0114830D02*
X0126100Y0114830D01*
X0125257Y0113832D02*
X0116168Y0113832D01*
X0117167Y0112833D02*
X0124844Y0112833D01*
X0124835Y0111835D02*
X0118165Y0111835D01*
X0119164Y0110836D02*
X0122862Y0110836D01*
X0130500Y0110146D02*
X0138054Y0117700D01*
X0138800Y0117600D01*
X0143654Y0112600D02*
X0148300Y0117246D01*
X0149200Y0118000D01*
X0150346Y0112600D02*
X0141646Y0103900D01*
X0141646Y0096700D01*
X0141646Y0095246D01*
X0139600Y0093200D01*
X0131900Y0093200D01*
X0130500Y0094200D01*
X0130500Y0103454D01*
X0134954Y0103254D02*
X0134954Y0096700D01*
X0134954Y0103254D02*
X0136800Y0105100D01*
X0150346Y0112600D02*
X0158846Y0121100D01*
X0165700Y0121100D01*
X0187547Y0149778D02*
X0200200Y0149778D01*
X0200200Y0150777D02*
X0186482Y0150777D01*
X0185417Y0151775D02*
X0200200Y0151775D01*
X0200200Y0152774D02*
X0184353Y0152774D01*
X0183288Y0153772D02*
X0200200Y0153772D01*
X0200200Y0154771D02*
X0182223Y0154771D01*
X0181159Y0155769D02*
X0200200Y0155769D01*
X0200200Y0156768D02*
X0180102Y0156768D01*
X0179081Y0157766D02*
X0200034Y0157766D01*
X0199035Y0158765D02*
X0178061Y0158765D01*
X0177040Y0159763D02*
X0191967Y0159763D01*
X0190111Y0160762D02*
X0176020Y0160762D01*
X0175014Y0161760D02*
X0189113Y0161760D01*
X0188381Y0162759D02*
X0163186Y0162759D01*
X0160934Y0163757D02*
X0187967Y0163757D01*
X0187554Y0164756D02*
X0160451Y0164756D01*
X0165026Y0165754D02*
X0187522Y0165754D01*
X0187522Y0166753D02*
X0165450Y0166753D01*
X0165450Y0167751D02*
X0187598Y0167751D01*
X0187522Y0174741D02*
X0177497Y0174741D01*
X0178495Y0175739D02*
X0187800Y0175739D01*
X0188214Y0176738D02*
X0179280Y0176738D01*
X0179694Y0177737D02*
X0188710Y0177737D01*
X0189708Y0178735D02*
X0180928Y0178735D01*
X0182105Y0179734D02*
X0190810Y0179734D01*
X0190539Y0180732D02*
X0183103Y0180732D01*
X0184102Y0181731D02*
X0190552Y0181731D01*
X0190836Y0182729D02*
X0185100Y0182729D01*
X0186099Y0183728D02*
X0191443Y0183728D01*
X0192779Y0184726D02*
X0187097Y0184726D01*
X0188096Y0185725D02*
X0196698Y0185725D01*
X0196877Y0186723D02*
X0189094Y0186723D01*
X0190093Y0187722D02*
X0195878Y0187722D01*
X0194880Y0188720D02*
X0191091Y0188720D01*
X0192090Y0189719D02*
X0193881Y0189719D01*
X0194211Y0184726D02*
X0194589Y0184726D01*
X0194589Y0183728D02*
X0194211Y0183728D01*
X0194211Y0182729D02*
X0194589Y0182729D01*
X0194589Y0181731D02*
X0194211Y0181731D01*
X0196833Y0159763D02*
X0198400Y0159763D01*
X0233000Y0200500D02*
X0248500Y0216000D01*
X0259000Y0216000D01*
X0204400Y0221600D02*
X0204200Y0221600D01*
X0199600Y0217000D01*
X0123000Y0202700D02*
X0119500Y0199200D01*
X0119500Y0192700D01*
X0095400Y0173600D02*
X0095400Y0171200D01*
X0088300Y0164100D01*
X0088300Y0127000D01*
X0082200Y0120900D01*
X0088400Y0122600D02*
X0093100Y0127300D01*
X0093100Y0157600D01*
X0085100Y0138800D02*
X0080900Y0138800D01*
X0076100Y0143600D01*
X0066300Y0122600D02*
X0058500Y0114800D01*
X0058500Y0107300D01*
X0047900Y0102500D02*
X0055400Y0095000D01*
X0058100Y0095000D01*
X0064044Y0096456D02*
X0070344Y0096456D01*
X0065056Y0089356D01*
X0055100Y0089300D01*
X0048200Y0085400D02*
X0034700Y0085400D01*
X0025100Y0095000D01*
X0025100Y0098300D01*
X0039700Y0120700D02*
X0064044Y0096456D01*
X0074645Y0100029D02*
X0075900Y0105384D01*
X0075600Y0109600D01*
X0081338Y0100029D02*
X0082967Y0100600D01*
X0081338Y0100029D02*
X0082638Y0098100D01*
X0082638Y0097338D01*
X0086504Y0095700D02*
X0087654Y0095650D01*
X0085754Y0087700D01*
X0085000Y0080700D02*
X0092446Y0083000D01*
X0102000Y0081100D01*
X0097600Y0085800D02*
X0097300Y0087500D01*
X0096900Y0090900D01*
X0094496Y0092100D01*
X0093196Y0095700D01*
X0092446Y0087700D02*
X0092446Y0083000D01*
X0085000Y0080700D02*
X0080500Y0079400D01*
X0079800Y0079400D01*
X0078200Y0077800D01*
X0073533Y0071667D02*
X0073900Y0071300D01*
X0073900Y0062350D01*
X0068148Y0056598D01*
X0066932Y0056094D01*
X0066838Y0056000D01*
X0064000Y0056000D01*
X0064000Y0053050D01*
X0051350Y0053050D01*
X0051350Y0069100D01*
X0052450Y0069100D01*
X0059850Y0076500D01*
X0068700Y0076500D01*
X0070667Y0074533D01*
X0071206Y0073232D01*
X0072232Y0072206D01*
X0073533Y0071667D01*
X0072984Y0071894D02*
X0055244Y0071894D01*
X0054246Y0070896D02*
X0073900Y0070896D01*
X0073900Y0069897D02*
X0053247Y0069897D01*
X0051350Y0068899D02*
X0073900Y0068899D01*
X0073900Y0067900D02*
X0051350Y0067900D01*
X0051350Y0066902D02*
X0073900Y0066902D01*
X0073900Y0065903D02*
X0051350Y0065903D01*
X0051350Y0064905D02*
X0073900Y0064905D01*
X0073900Y0063906D02*
X0051350Y0063906D01*
X0051350Y0062908D02*
X0073900Y0062908D01*
X0073459Y0061909D02*
X0051350Y0061909D01*
X0051350Y0060911D02*
X0072461Y0060911D01*
X0071462Y0059912D02*
X0051350Y0059912D01*
X0051350Y0058914D02*
X0070464Y0058914D01*
X0069465Y0057915D02*
X0051350Y0057915D01*
X0051350Y0056917D02*
X0068467Y0056917D01*
X0064000Y0055918D02*
X0051350Y0055918D01*
X0051350Y0054920D02*
X0064000Y0054920D01*
X0064000Y0053921D02*
X0051350Y0053921D01*
X0056243Y0072893D02*
X0071545Y0072893D01*
X0070933Y0073891D02*
X0057241Y0073891D01*
X0058240Y0074890D02*
X0070310Y0074890D01*
X0069312Y0075888D02*
X0059238Y0075888D01*
X0075600Y0053600D02*
X0084600Y0053600D01*
X0085200Y0054200D01*
X0085200Y0064200D01*
X0075600Y0053600D02*
X0073100Y0050700D01*
X0103600Y0057150D02*
X0110252Y0057750D01*
X0114500Y0053502D01*
X0140550Y0041900D02*
X0123700Y0025050D01*
X0140550Y0041900D02*
X0155750Y0041900D01*
X0161150Y0036500D01*
X0161150Y0036400D01*
X0161600Y0073400D02*
X0156100Y0078900D01*
X0141498Y0078900D01*
X0099000Y0121800D02*
X0097600Y0120400D01*
X0039700Y0120700D02*
X0039700Y0133000D01*
X0320200Y0047700D02*
X0330700Y0047700D01*
X0346200Y0063200D01*
X0374800Y0054600D02*
X0374800Y0049600D01*
X0374800Y0054600D02*
X0400800Y0080600D01*
X0408600Y0080600D01*
X0410400Y0076700D02*
X0399900Y0076700D01*
X0379600Y0056400D01*
X0379600Y0046700D01*
X0375000Y0042100D01*
X0374800Y0042100D01*
X0396900Y0065500D02*
X0396900Y0067900D01*
X0400500Y0071500D01*
X0411900Y0071500D01*
X0418100Y0077700D01*
X0418100Y0083900D01*
X0424150Y0083876D02*
X0426034Y0083876D01*
X0426517Y0082878D02*
X0424150Y0082878D01*
X0424150Y0082697D02*
X0424150Y0085103D01*
X0423229Y0087327D01*
X0421527Y0089029D01*
X0419303Y0089950D01*
X0416897Y0089950D01*
X0414673Y0089029D01*
X0412971Y0087327D01*
X0412226Y0085529D01*
X0412027Y0085729D01*
X0410776Y0086247D01*
X0410329Y0087327D01*
X0408627Y0089029D01*
X0406403Y0089950D01*
X0403997Y0089950D01*
X0401773Y0089029D01*
X0400071Y0087327D01*
X0399263Y0085375D01*
X0397968Y0084839D01*
X0386214Y0073086D01*
X0381913Y0077387D01*
X0383131Y0078604D01*
X0383269Y0078937D01*
X0383669Y0078771D01*
X0384418Y0078622D01*
X0384611Y0078622D01*
X0384611Y0082311D01*
X0384989Y0082311D01*
X0384989Y0082689D01*
X0388678Y0082689D01*
X0388678Y0082882D01*
X0388529Y0083631D01*
X0388363Y0084031D01*
X0388696Y0084169D01*
X0390631Y0086104D01*
X0391678Y0088632D01*
X0391678Y0091368D01*
X0390691Y0093750D01*
X0391678Y0096132D01*
X0391678Y0098868D01*
X0390631Y0101396D01*
X0388696Y0103331D01*
X0386168Y0104378D01*
X0383432Y0104378D01*
X0381050Y0103391D01*
X0380800Y0103495D01*
X0380800Y0104300D01*
X0379000Y0106100D01*
X0379000Y0114100D01*
X0379569Y0114669D01*
X0391511Y0114056D01*
X0398918Y0107109D01*
X0403508Y0102617D01*
X0404226Y0101899D01*
X0404253Y0101888D01*
X0404275Y0101867D01*
X0405217Y0101489D01*
X0406156Y0101100D01*
X0406185Y0101100D01*
X0406213Y0101089D01*
X0407228Y0101100D01*
X0415421Y0101100D01*
X0418047Y0100396D01*
X0419012Y0098400D01*
X0415053Y0098400D01*
X0414671Y0098298D01*
X0414329Y0098100D01*
X0414050Y0097821D01*
X0413852Y0097479D01*
X0413750Y0097097D01*
X0413750Y0094850D01*
X0419300Y0094850D01*
X0419300Y0093850D01*
X0420300Y0093850D01*
X0420300Y0090300D01*
X0422929Y0090300D01*
X0427300Y0081259D01*
X0427300Y0080705D01*
X0428061Y0078868D01*
X0428600Y0078329D01*
X0428600Y0075200D01*
X0427600Y0075200D01*
X0427600Y0079886D01*
X0426882Y0079772D01*
X0426104Y0079519D01*
X0425375Y0079147D01*
X0424712Y0078666D01*
X0424134Y0078088D01*
X0423653Y0077425D01*
X0423281Y0076696D01*
X0423028Y0075918D01*
X0422914Y0075200D01*
X0427600Y0075200D01*
X0427600Y0074200D01*
X0428600Y0074200D01*
X0428600Y0069514D01*
X0429318Y0069628D01*
X0429700Y0069752D01*
X0429700Y0068320D01*
X0425800Y0067800D01*
X0415271Y0067800D01*
X0422339Y0074868D01*
X0423100Y0076705D01*
X0423100Y0080344D01*
X0423229Y0080473D01*
X0424150Y0082697D01*
X0423812Y0081879D02*
X0427000Y0081879D01*
X0427300Y0080881D02*
X0423398Y0080881D01*
X0423100Y0079882D02*
X0427580Y0079882D01*
X0427600Y0079882D02*
X0427641Y0079882D01*
X0427600Y0078884D02*
X0428055Y0078884D01*
X0427600Y0077885D02*
X0428600Y0077885D01*
X0428600Y0076887D02*
X0427600Y0076887D01*
X0427600Y0075888D02*
X0428600Y0075888D01*
X0427600Y0074890D02*
X0422348Y0074890D01*
X0422914Y0074200D02*
X0423028Y0073482D01*
X0423281Y0072704D01*
X0423653Y0071975D01*
X0424134Y0071312D01*
X0424712Y0070734D01*
X0425375Y0070253D01*
X0426104Y0069881D01*
X0426882Y0069628D01*
X0427600Y0069514D01*
X0427600Y0074200D01*
X0422914Y0074200D01*
X0422963Y0073891D02*
X0421362Y0073891D01*
X0420364Y0072893D02*
X0423220Y0072893D01*
X0423711Y0071894D02*
X0419365Y0071894D01*
X0418367Y0070896D02*
X0424550Y0070896D01*
X0426072Y0069897D02*
X0417368Y0069897D01*
X0416370Y0068899D02*
X0429700Y0068899D01*
X0428600Y0069897D02*
X0427600Y0069897D01*
X0427600Y0070896D02*
X0428600Y0070896D01*
X0428600Y0071894D02*
X0427600Y0071894D01*
X0427600Y0072893D02*
X0428600Y0072893D01*
X0428600Y0073891D02*
X0427600Y0073891D01*
X0423023Y0075888D02*
X0422762Y0075888D01*
X0423100Y0076887D02*
X0423378Y0076887D01*
X0423100Y0077885D02*
X0423987Y0077885D01*
X0423100Y0078884D02*
X0425012Y0078884D01*
X0434100Y0079900D02*
X0434100Y0085793D01*
X0433187Y0087999D01*
X0432300Y0088885D01*
X0432300Y0090250D01*
X0444050Y0090250D01*
X0444050Y0088445D01*
X0444819Y0086589D01*
X0446239Y0085169D01*
X0448095Y0084400D01*
X0450105Y0084400D01*
X0450169Y0084427D01*
X0450619Y0083339D01*
X0452039Y0081919D01*
X0453895Y0081150D01*
X0455905Y0081150D01*
X0456900Y0081562D01*
X0456900Y0076900D01*
X0452900Y0072900D01*
X0447300Y0072900D01*
X0441700Y0067300D01*
X0436500Y0067300D01*
X0434700Y0069100D01*
X0434700Y0070746D01*
X0434712Y0070734D01*
X0435375Y0070253D01*
X0436104Y0069881D01*
X0436882Y0069628D01*
X0437600Y0069514D01*
X0437600Y0074200D01*
X0438600Y0074200D01*
X0438600Y0075200D01*
X0443286Y0075200D01*
X0443172Y0075918D01*
X0442919Y0076696D01*
X0442547Y0077425D01*
X0442066Y0078088D01*
X0441488Y0078666D01*
X0440825Y0079147D01*
X0440096Y0079519D01*
X0439318Y0079772D01*
X0438600Y0079886D01*
X0438600Y0075200D01*
X0437600Y0075200D01*
X0437600Y0079886D01*
X0436882Y0079772D01*
X0436104Y0079519D01*
X0435375Y0079147D01*
X0434712Y0078666D01*
X0434700Y0078654D01*
X0434700Y0079300D01*
X0434100Y0079900D01*
X0434118Y0079882D02*
X0437580Y0079882D01*
X0437600Y0079882D02*
X0438600Y0079882D01*
X0438620Y0079882D02*
X0456900Y0079882D01*
X0456900Y0078884D02*
X0441188Y0078884D01*
X0442213Y0077885D02*
X0456900Y0077885D01*
X0456887Y0076887D02*
X0442822Y0076887D01*
X0443177Y0075888D02*
X0455888Y0075888D01*
X0454890Y0074890D02*
X0438600Y0074890D01*
X0438600Y0074200D02*
X0443286Y0074200D01*
X0443172Y0073482D01*
X0442919Y0072704D01*
X0442547Y0071975D01*
X0442066Y0071312D01*
X0441488Y0070734D01*
X0440825Y0070253D01*
X0440096Y0069881D01*
X0439318Y0069628D01*
X0438600Y0069514D01*
X0438600Y0074200D01*
X0438600Y0073891D02*
X0437600Y0073891D01*
X0437600Y0072893D02*
X0438600Y0072893D01*
X0438600Y0071894D02*
X0437600Y0071894D01*
X0437600Y0070896D02*
X0438600Y0070896D01*
X0438600Y0069897D02*
X0437600Y0069897D01*
X0436072Y0069897D02*
X0434700Y0069897D01*
X0434901Y0068899D02*
X0443299Y0068899D01*
X0444297Y0069897D02*
X0440128Y0069897D01*
X0441650Y0070896D02*
X0445296Y0070896D01*
X0446294Y0071894D02*
X0442489Y0071894D01*
X0442980Y0072893D02*
X0447293Y0072893D01*
X0443237Y0073891D02*
X0453891Y0073891D01*
X0459700Y0071000D02*
X0459700Y0064500D01*
X0456200Y0061000D01*
X0423500Y0061000D01*
X0418500Y0053100D01*
X0407000Y0053100D01*
X0423800Y0042000D01*
X0428100Y0042000D01*
X0407000Y0053100D02*
X0404200Y0058200D01*
X0396900Y0065500D01*
X0388019Y0074890D02*
X0384410Y0074890D01*
X0383412Y0075888D02*
X0389017Y0075888D01*
X0390016Y0076887D02*
X0382413Y0076887D01*
X0382412Y0077885D02*
X0391014Y0077885D01*
X0392013Y0078884D02*
X0386203Y0078884D01*
X0385931Y0078771D02*
X0386637Y0079063D01*
X0387272Y0079488D01*
X0387812Y0080028D01*
X0388237Y0080663D01*
X0388529Y0081369D01*
X0388678Y0082118D01*
X0388678Y0082311D01*
X0384989Y0082311D01*
X0384989Y0078622D01*
X0385182Y0078622D01*
X0385931Y0078771D01*
X0384989Y0078884D02*
X0384611Y0078884D01*
X0384611Y0079882D02*
X0384989Y0079882D01*
X0384989Y0080881D02*
X0384611Y0080881D01*
X0384611Y0081879D02*
X0384989Y0081879D01*
X0387667Y0079882D02*
X0393011Y0079882D01*
X0394010Y0080881D02*
X0388327Y0080881D01*
X0388630Y0081879D02*
X0395008Y0081879D01*
X0396007Y0082878D02*
X0388678Y0082878D01*
X0388427Y0083876D02*
X0397005Y0083876D01*
X0398055Y0084875D02*
X0389402Y0084875D01*
X0390400Y0085873D02*
X0399469Y0085873D01*
X0399883Y0086872D02*
X0390949Y0086872D01*
X0391363Y0087870D02*
X0400614Y0087870D01*
X0401613Y0088869D02*
X0391678Y0088869D01*
X0391678Y0089868D02*
X0403797Y0089868D01*
X0406603Y0089868D02*
X0416697Y0089868D01*
X0415053Y0090300D02*
X0419300Y0090300D01*
X0419300Y0093850D01*
X0413750Y0093850D01*
X0413750Y0091603D01*
X0413852Y0091221D01*
X0414050Y0090879D01*
X0414329Y0090600D01*
X0414671Y0090402D01*
X0415053Y0090300D01*
X0414063Y0090866D02*
X0391678Y0090866D01*
X0391472Y0091865D02*
X0413750Y0091865D01*
X0413750Y0092863D02*
X0391059Y0092863D01*
X0390738Y0093862D02*
X0419300Y0093862D01*
X0419300Y0092863D02*
X0420300Y0092863D01*
X0420300Y0091865D02*
X0419300Y0091865D01*
X0419300Y0090866D02*
X0420300Y0090866D01*
X0419503Y0089868D02*
X0423138Y0089868D01*
X0423621Y0088869D02*
X0421687Y0088869D01*
X0422685Y0087870D02*
X0424103Y0087870D01*
X0424586Y0086872D02*
X0423417Y0086872D01*
X0423831Y0085873D02*
X0425069Y0085873D01*
X0425552Y0084875D02*
X0424150Y0084875D01*
X0432316Y0088869D02*
X0444050Y0088869D01*
X0444050Y0089868D02*
X0432300Y0089868D01*
X0433240Y0087870D02*
X0444288Y0087870D01*
X0444702Y0086872D02*
X0433653Y0086872D01*
X0434067Y0085873D02*
X0445535Y0085873D01*
X0446949Y0084875D02*
X0434100Y0084875D01*
X0434100Y0083876D02*
X0450396Y0083876D01*
X0451080Y0082878D02*
X0434100Y0082878D01*
X0434100Y0081879D02*
X0452134Y0081879D01*
X0456900Y0080881D02*
X0434100Y0080881D01*
X0434700Y0078884D02*
X0435012Y0078884D01*
X0437600Y0078884D02*
X0438600Y0078884D01*
X0438600Y0077885D02*
X0437600Y0077885D01*
X0437600Y0076887D02*
X0438600Y0076887D01*
X0438600Y0075888D02*
X0437600Y0075888D01*
X0435900Y0067900D02*
X0442300Y0067900D01*
X0426552Y0067900D02*
X0415371Y0067900D01*
X0412369Y0085873D02*
X0411678Y0085873D01*
X0412783Y0086872D02*
X0410517Y0086872D01*
X0409785Y0087870D02*
X0413514Y0087870D01*
X0414513Y0088869D02*
X0408787Y0088869D01*
X0413750Y0094860D02*
X0391151Y0094860D01*
X0391565Y0095859D02*
X0413750Y0095859D01*
X0413750Y0096857D02*
X0391678Y0096857D01*
X0391678Y0097856D02*
X0414084Y0097856D01*
X0416350Y0100851D02*
X0390857Y0100851D01*
X0391270Y0099853D02*
X0418310Y0099853D01*
X0418793Y0098854D02*
X0391678Y0098854D01*
X0390177Y0101850D02*
X0404318Y0101850D01*
X0403272Y0102848D02*
X0389179Y0102848D01*
X0387451Y0103847D02*
X0402252Y0103847D01*
X0401231Y0104845D02*
X0380255Y0104845D01*
X0380800Y0103847D02*
X0382149Y0103847D01*
X0379256Y0105844D02*
X0400211Y0105844D01*
X0399190Y0106842D02*
X0379000Y0106842D01*
X0379000Y0107841D02*
X0398137Y0107841D01*
X0397073Y0108839D02*
X0379000Y0108839D01*
X0379000Y0109838D02*
X0396008Y0109838D01*
X0394943Y0110836D02*
X0379000Y0110836D01*
X0379000Y0111835D02*
X0393879Y0111835D01*
X0392814Y0112833D02*
X0379000Y0112833D01*
X0379000Y0113832D02*
X0391749Y0113832D01*
X0413500Y0142600D02*
X0420354Y0142600D01*
X0428854Y0151100D01*
X0437554Y0159800D01*
X0437554Y0167000D01*
X0437554Y0168454D01*
X0439600Y0170500D01*
X0447300Y0170500D01*
X0448700Y0169500D01*
X0448700Y0160246D01*
X0444246Y0160446D02*
X0444246Y0167000D01*
X0444246Y0160446D02*
X0442400Y0158600D01*
X0448700Y0153554D02*
X0441146Y0146000D01*
X0440400Y0146100D01*
X0445800Y0144600D02*
X0449285Y0148085D01*
X0451562Y0148085D01*
X0452848Y0148618D01*
X0453833Y0149602D01*
X0454365Y0150889D01*
X0454365Y0152850D01*
X0456305Y0152850D01*
X0456425Y0152900D01*
X0460000Y0152900D01*
X0464600Y0148300D01*
X0464600Y0140800D01*
X0464163Y0140363D01*
X0462143Y0141200D01*
X0459557Y0141200D01*
X0457168Y0140210D01*
X0455340Y0138382D01*
X0454350Y0135993D01*
X0454350Y0133407D01*
X0455340Y0131018D01*
X0456200Y0130158D01*
X0456200Y0129553D01*
X0455454Y0128807D01*
X0454350Y0126142D01*
X0454350Y0123258D01*
X0455454Y0120593D01*
X0456200Y0119847D01*
X0456200Y0119700D01*
X0456900Y0119000D01*
X0456900Y0116450D01*
X0445050Y0116450D01*
X0445050Y0103850D01*
X0444050Y0103850D01*
X0444050Y0116000D01*
X0444100Y0116000D01*
X0445800Y0117700D01*
X0445800Y0118992D01*
X0447050Y0122010D01*
X0447050Y0132190D01*
X0445800Y0135208D01*
X0445800Y0144600D01*
X0445986Y0144786D02*
X0464600Y0144786D01*
X0464600Y0145784D02*
X0446984Y0145784D01*
X0447983Y0146783D02*
X0464600Y0146783D01*
X0464600Y0147781D02*
X0448981Y0147781D01*
X0453010Y0148780D02*
X0464120Y0148780D01*
X0463122Y0149778D02*
X0453905Y0149778D01*
X0454319Y0150777D02*
X0462123Y0150777D01*
X0461125Y0151775D02*
X0454365Y0151775D01*
X0454365Y0152774D02*
X0460126Y0152774D01*
X0464600Y0143787D02*
X0445800Y0143787D01*
X0445800Y0142789D02*
X0464600Y0142789D01*
X0464600Y0141790D02*
X0445800Y0141790D01*
X0445800Y0140792D02*
X0458571Y0140792D01*
X0456751Y0139793D02*
X0445800Y0139793D01*
X0445800Y0138795D02*
X0455752Y0138795D01*
X0455097Y0137796D02*
X0445800Y0137796D01*
X0445800Y0136798D02*
X0454683Y0136798D01*
X0454350Y0135799D02*
X0445800Y0135799D01*
X0445969Y0134801D02*
X0454350Y0134801D01*
X0454350Y0133802D02*
X0446382Y0133802D01*
X0446796Y0132803D02*
X0454600Y0132803D01*
X0455014Y0131805D02*
X0447050Y0131805D01*
X0447050Y0130806D02*
X0455551Y0130806D01*
X0456200Y0129808D02*
X0447050Y0129808D01*
X0447050Y0128809D02*
X0455456Y0128809D01*
X0455041Y0127811D02*
X0447050Y0127811D01*
X0447050Y0126812D02*
X0454628Y0126812D01*
X0454350Y0125814D02*
X0447050Y0125814D01*
X0447050Y0124815D02*
X0454350Y0124815D01*
X0454350Y0123817D02*
X0447050Y0123817D01*
X0447050Y0122818D02*
X0454532Y0122818D01*
X0454946Y0121820D02*
X0446971Y0121820D01*
X0446558Y0120821D02*
X0455359Y0120821D01*
X0456200Y0119823D02*
X0446144Y0119823D01*
X0445800Y0118824D02*
X0456900Y0118824D01*
X0456900Y0117826D02*
X0445800Y0117826D01*
X0444927Y0116827D02*
X0456900Y0116827D01*
X0452200Y0111200D02*
X0444550Y0103550D01*
X0444550Y0103350D01*
X0445050Y0102850D02*
X0445050Y0092542D01*
X0444819Y0092311D01*
X0444050Y0090455D01*
X0444050Y0102850D01*
X0445050Y0102850D01*
X0445050Y0102848D02*
X0444050Y0102848D01*
X0444050Y0101850D02*
X0445050Y0101850D01*
X0445050Y0100851D02*
X0444050Y0100851D01*
X0444050Y0099853D02*
X0445050Y0099853D01*
X0445050Y0098854D02*
X0444050Y0098854D01*
X0444050Y0097856D02*
X0445050Y0097856D01*
X0445050Y0096857D02*
X0444050Y0096857D01*
X0444050Y0095859D02*
X0445050Y0095859D01*
X0445050Y0094860D02*
X0444050Y0094860D01*
X0444050Y0093862D02*
X0445050Y0093862D01*
X0445050Y0092863D02*
X0444050Y0092863D01*
X0444050Y0091865D02*
X0444634Y0091865D01*
X0444220Y0090866D02*
X0444050Y0090866D01*
X0444050Y0104845D02*
X0445050Y0104845D01*
X0445050Y0105844D02*
X0444050Y0105844D01*
X0444050Y0106842D02*
X0445050Y0106842D01*
X0445050Y0107841D02*
X0444050Y0107841D01*
X0444050Y0108839D02*
X0445050Y0108839D01*
X0445050Y0109838D02*
X0444050Y0109838D01*
X0444050Y0110836D02*
X0445050Y0110836D01*
X0445050Y0111835D02*
X0444050Y0111835D01*
X0444050Y0112833D02*
X0445050Y0112833D01*
X0445050Y0113832D02*
X0444050Y0113832D01*
X0444050Y0114830D02*
X0445050Y0114830D01*
X0445050Y0115829D02*
X0444050Y0115829D01*
X0463129Y0140792D02*
X0464592Y0140792D01*
X0480200Y0141900D02*
X0481600Y0143300D01*
X0486100Y0136400D02*
X0490800Y0141100D01*
X0490900Y0136700D02*
X0490900Y0099600D01*
X0483800Y0092500D01*
X0483800Y0090100D01*
X0486100Y0106100D02*
X0486100Y0136400D01*
X0490900Y0136700D02*
X0497000Y0142800D01*
X0503600Y0154100D02*
X0503300Y0158316D01*
X0504555Y0163671D01*
X0508856Y0167244D02*
X0515156Y0167244D01*
X0539500Y0143000D01*
X0539500Y0130700D01*
X0520700Y0148900D02*
X0512900Y0141100D01*
X0520700Y0148900D02*
X0520700Y0156400D01*
X0531300Y0161200D02*
X0523800Y0168700D01*
X0521100Y0168700D01*
X0524100Y0174400D02*
X0514144Y0174344D01*
X0508856Y0167244D01*
X0497862Y0163671D02*
X0496562Y0165600D01*
X0496562Y0166362D01*
X0497862Y0163671D02*
X0496233Y0163100D01*
X0492696Y0168000D02*
X0491546Y0168050D01*
X0493446Y0176000D01*
X0486754Y0176000D02*
X0486754Y0180700D01*
X0494200Y0183000D01*
X0498700Y0184300D01*
X0499400Y0184300D01*
X0501000Y0185900D01*
X0505667Y0192033D02*
X0505300Y0192400D01*
X0505300Y0201350D01*
X0511052Y0207102D01*
X0512268Y0207606D01*
X0512362Y0207700D01*
X0515200Y0207700D01*
X0515200Y0210650D01*
X0527850Y0210650D01*
X0527850Y0194600D01*
X0526750Y0194600D01*
X0519350Y0187200D01*
X0510500Y0187200D01*
X0508533Y0189167D01*
X0507994Y0190468D01*
X0506968Y0191494D01*
X0505667Y0192033D01*
X0505300Y0192714D02*
X0524864Y0192714D01*
X0523866Y0191716D02*
X0506433Y0191716D01*
X0507745Y0190717D02*
X0522867Y0190717D01*
X0521869Y0189719D02*
X0508305Y0189719D01*
X0508980Y0188720D02*
X0520870Y0188720D01*
X0519872Y0187722D02*
X0509978Y0187722D01*
X0505300Y0193713D02*
X0525863Y0193713D01*
X0527850Y0194711D02*
X0505300Y0194711D01*
X0505300Y0195710D02*
X0527850Y0195710D01*
X0527850Y0196708D02*
X0505300Y0196708D01*
X0505300Y0197707D02*
X0527850Y0197707D01*
X0527850Y0198705D02*
X0505300Y0198705D01*
X0505300Y0199704D02*
X0527850Y0199704D01*
X0527850Y0200702D02*
X0505300Y0200702D01*
X0505651Y0201701D02*
X0527850Y0201701D01*
X0527850Y0202699D02*
X0506649Y0202699D01*
X0507648Y0203698D02*
X0527850Y0203698D01*
X0527850Y0204696D02*
X0508646Y0204696D01*
X0509645Y0205695D02*
X0527850Y0205695D01*
X0527850Y0206693D02*
X0510643Y0206693D01*
X0512354Y0207692D02*
X0527850Y0207692D01*
X0527850Y0208690D02*
X0515200Y0208690D01*
X0515200Y0209689D02*
X0527850Y0209689D01*
X0506100Y0213000D02*
X0503600Y0210100D01*
X0494600Y0210100D01*
X0494000Y0209500D01*
X0494000Y0199500D01*
X0475600Y0206550D02*
X0468948Y0205950D01*
X0464700Y0210198D01*
X0438650Y0221800D02*
X0455500Y0238650D01*
X0438650Y0221800D02*
X0423450Y0221800D01*
X0418050Y0227200D01*
X0418050Y0227300D01*
X0417600Y0190300D02*
X0423100Y0184800D01*
X0437702Y0184800D01*
X0435546Y0151100D02*
X0430900Y0146454D01*
X0430000Y0145700D01*
X0477200Y0182600D02*
X0486754Y0180700D01*
X0481600Y0177900D02*
X0481900Y0176200D01*
X0482300Y0172800D01*
X0484704Y0171600D01*
X0486004Y0168000D01*
X0494100Y0124900D02*
X0498300Y0124900D01*
X0503100Y0120100D01*
X0554100Y0165400D02*
X0554100Y0168700D01*
X0544500Y0178300D01*
X0531000Y0178300D01*
X0418900Y0288850D02*
X0435750Y0305700D01*
X0450950Y0305700D01*
X0456350Y0300300D01*
X0456350Y0300200D01*
X0456800Y0337200D02*
X0451300Y0342700D01*
X0436698Y0342700D01*
X0434800Y0357000D02*
X0427100Y0357000D01*
X0425700Y0358000D01*
X0425700Y0367254D01*
X0430154Y0367054D02*
X0430154Y0360500D01*
X0434800Y0357000D02*
X0436846Y0359046D01*
X0436846Y0360500D01*
X0436846Y0367700D01*
X0445546Y0376400D01*
X0454046Y0384900D01*
X0460900Y0384900D01*
X0444400Y0381800D02*
X0443500Y0381046D01*
X0438854Y0376400D01*
X0434000Y0381400D02*
X0433254Y0381500D01*
X0425700Y0373946D01*
X0425115Y0379415D02*
X0422838Y0379415D01*
X0421552Y0378882D01*
X0420567Y0377898D01*
X0420035Y0376611D01*
X0420035Y0374650D01*
X0418095Y0374650D01*
X0417975Y0374600D01*
X0414400Y0374600D01*
X0409800Y0379200D01*
X0409800Y0386700D01*
X0410237Y0387137D01*
X0412257Y0386300D01*
X0414843Y0386300D01*
X0417232Y0387290D01*
X0419060Y0389118D01*
X0420050Y0391507D01*
X0420050Y0394093D01*
X0419060Y0396482D01*
X0418200Y0397342D01*
X0418200Y0397947D01*
X0418946Y0398693D01*
X0420050Y0401358D01*
X0420050Y0404242D01*
X0418946Y0406907D01*
X0418200Y0407653D01*
X0418200Y0407800D01*
X0417500Y0408500D01*
X0417500Y0411050D01*
X0429350Y0411050D01*
X0429350Y0423650D01*
X0430350Y0423650D01*
X0430350Y0411500D01*
X0430300Y0411500D01*
X0428600Y0409800D01*
X0428600Y0408508D01*
X0427350Y0405490D01*
X0427350Y0395310D01*
X0428600Y0392292D01*
X0428600Y0382900D01*
X0425115Y0379415D01*
X0425136Y0379436D02*
X0409800Y0379436D01*
X0409800Y0380434D02*
X0426134Y0380434D01*
X0427133Y0381433D02*
X0409800Y0381433D01*
X0409800Y0382431D02*
X0428131Y0382431D01*
X0428600Y0383430D02*
X0409800Y0383430D01*
X0409800Y0384428D02*
X0428600Y0384428D01*
X0428600Y0385427D02*
X0409800Y0385427D01*
X0409800Y0386425D02*
X0411954Y0386425D01*
X0415146Y0386425D02*
X0428600Y0386425D01*
X0428600Y0387424D02*
X0417366Y0387424D01*
X0418365Y0388422D02*
X0428600Y0388422D01*
X0428600Y0389421D02*
X0419186Y0389421D01*
X0419599Y0390419D02*
X0428600Y0390419D01*
X0428600Y0391418D02*
X0420013Y0391418D01*
X0420050Y0392416D02*
X0428548Y0392416D01*
X0428135Y0393415D02*
X0420050Y0393415D01*
X0419917Y0394413D02*
X0427721Y0394413D01*
X0427350Y0395412D02*
X0419504Y0395412D01*
X0419090Y0396410D02*
X0427350Y0396410D01*
X0427350Y0397409D02*
X0418200Y0397409D01*
X0418661Y0398408D02*
X0427350Y0398408D01*
X0427350Y0399406D02*
X0419241Y0399406D01*
X0419655Y0400405D02*
X0427350Y0400405D01*
X0427350Y0401403D02*
X0420050Y0401403D01*
X0420050Y0402402D02*
X0427350Y0402402D01*
X0427350Y0403400D02*
X0420050Y0403400D01*
X0419985Y0404399D02*
X0427350Y0404399D01*
X0427350Y0405397D02*
X0419572Y0405397D01*
X0419158Y0406396D02*
X0427725Y0406396D01*
X0428139Y0407394D02*
X0418459Y0407394D01*
X0417607Y0408393D02*
X0428552Y0408393D01*
X0428600Y0409391D02*
X0417500Y0409391D01*
X0417500Y0410390D02*
X0429190Y0410390D01*
X0429350Y0411388D02*
X0430188Y0411388D01*
X0430350Y0412387D02*
X0429350Y0412387D01*
X0429350Y0413385D02*
X0430350Y0413385D01*
X0430350Y0414384D02*
X0429350Y0414384D01*
X0429350Y0415382D02*
X0430350Y0415382D01*
X0430350Y0416381D02*
X0429350Y0416381D01*
X0429350Y0417379D02*
X0430350Y0417379D01*
X0430350Y0418378D02*
X0429350Y0418378D01*
X0429350Y0419376D02*
X0430350Y0419376D01*
X0430350Y0420375D02*
X0429350Y0420375D01*
X0429350Y0421373D02*
X0430350Y0421373D01*
X0430350Y0422372D02*
X0429350Y0422372D01*
X0429350Y0423370D02*
X0430350Y0423370D01*
X0429850Y0423950D02*
X0429850Y0424150D01*
X0429850Y0423950D02*
X0422200Y0416300D01*
X0429350Y0424650D02*
X0429350Y0434958D01*
X0429581Y0435189D01*
X0430350Y0437045D01*
X0430350Y0424650D01*
X0429350Y0424650D01*
X0429350Y0425367D02*
X0430350Y0425367D01*
X0430350Y0426366D02*
X0429350Y0426366D01*
X0429350Y0427364D02*
X0430350Y0427364D01*
X0430350Y0428363D02*
X0429350Y0428363D01*
X0429350Y0429361D02*
X0430350Y0429361D01*
X0430350Y0430360D02*
X0429350Y0430360D01*
X0429350Y0431358D02*
X0430350Y0431358D01*
X0430350Y0432357D02*
X0429350Y0432357D01*
X0429350Y0433355D02*
X0430350Y0433355D01*
X0430350Y0434354D02*
X0429350Y0434354D01*
X0429649Y0435352D02*
X0430350Y0435352D01*
X0430350Y0436351D02*
X0430062Y0436351D01*
X0430350Y0437250D02*
X0430350Y0439055D01*
X0429581Y0440911D01*
X0428161Y0442331D01*
X0426305Y0443100D01*
X0424295Y0443100D01*
X0424231Y0443073D01*
X0423781Y0444161D01*
X0422361Y0445581D01*
X0420505Y0446350D01*
X0418495Y0446350D01*
X0417500Y0445938D01*
X0417500Y0450600D01*
X0421500Y0454600D01*
X0427100Y0454600D01*
X0432700Y0460200D01*
X0437900Y0460200D01*
X0439700Y0458400D01*
X0439700Y0456754D01*
X0439688Y0456766D01*
X0439025Y0457247D01*
X0438296Y0457619D01*
X0437518Y0457872D01*
X0436800Y0457986D01*
X0436800Y0453300D01*
X0435800Y0453300D01*
X0435800Y0457986D01*
X0435082Y0457872D01*
X0434304Y0457619D01*
X0433575Y0457247D01*
X0432912Y0456766D01*
X0432334Y0456188D01*
X0431853Y0455525D01*
X0431481Y0454796D01*
X0431228Y0454018D01*
X0431114Y0453300D01*
X0435800Y0453300D01*
X0435800Y0452300D01*
X0436800Y0452300D01*
X0436800Y0447614D01*
X0437518Y0447728D01*
X0438296Y0447981D01*
X0439025Y0448353D01*
X0439688Y0448834D01*
X0439700Y0448846D01*
X0439700Y0448200D01*
X0440300Y0447600D01*
X0440300Y0441707D01*
X0441213Y0439501D01*
X0442100Y0438615D01*
X0442100Y0437250D01*
X0430350Y0437250D01*
X0430350Y0437349D02*
X0442100Y0437349D01*
X0442100Y0438348D02*
X0430350Y0438348D01*
X0430229Y0439346D02*
X0441368Y0439346D01*
X0440864Y0440345D02*
X0429815Y0440345D01*
X0429148Y0441343D02*
X0440450Y0441343D01*
X0440300Y0442342D02*
X0428134Y0442342D01*
X0424121Y0443341D02*
X0440300Y0443341D01*
X0440300Y0444339D02*
X0423603Y0444339D01*
X0422604Y0445338D02*
X0440300Y0445338D01*
X0440300Y0446336D02*
X0420538Y0446336D01*
X0418462Y0446336D02*
X0417500Y0446336D01*
X0417500Y0447335D02*
X0440300Y0447335D01*
X0439700Y0448333D02*
X0438987Y0448333D01*
X0436800Y0448333D02*
X0435800Y0448333D01*
X0435800Y0447614D02*
X0435800Y0452300D01*
X0431114Y0452300D01*
X0431228Y0451582D01*
X0431481Y0450804D01*
X0431853Y0450075D01*
X0432334Y0449412D01*
X0432912Y0448834D01*
X0433575Y0448353D01*
X0434304Y0447981D01*
X0435082Y0447728D01*
X0435800Y0447614D01*
X0435800Y0449332D02*
X0436800Y0449332D01*
X0436800Y0450330D02*
X0435800Y0450330D01*
X0435800Y0451329D02*
X0436800Y0451329D01*
X0435800Y0452327D02*
X0419227Y0452327D01*
X0418229Y0451329D02*
X0431310Y0451329D01*
X0431722Y0450330D02*
X0417500Y0450330D01*
X0417500Y0449332D02*
X0432415Y0449332D01*
X0433613Y0448333D02*
X0417500Y0448333D01*
X0420226Y0453326D02*
X0431118Y0453326D01*
X0431328Y0454324D02*
X0421224Y0454324D01*
X0427823Y0455323D02*
X0431749Y0455323D01*
X0432467Y0456321D02*
X0428821Y0456321D01*
X0429820Y0457320D02*
X0433716Y0457320D01*
X0435800Y0457320D02*
X0436800Y0457320D01*
X0436800Y0456321D02*
X0435800Y0456321D01*
X0435800Y0455323D02*
X0436800Y0455323D01*
X0436800Y0454324D02*
X0435800Y0454324D01*
X0435800Y0453326D02*
X0436800Y0453326D01*
X0438884Y0457320D02*
X0439700Y0457320D01*
X0439700Y0458318D02*
X0430818Y0458318D01*
X0431817Y0459317D02*
X0438783Y0459317D01*
X0444700Y0459180D02*
X0444700Y0457748D01*
X0445082Y0457872D01*
X0445800Y0457986D01*
X0445800Y0453300D01*
X0446800Y0453300D01*
X0446800Y0457986D01*
X0447518Y0457872D01*
X0448296Y0457619D01*
X0449025Y0457247D01*
X0449688Y0456766D01*
X0450266Y0456188D01*
X0450747Y0455525D01*
X0451119Y0454796D01*
X0451372Y0454018D01*
X0451486Y0453300D01*
X0446800Y0453300D01*
X0446800Y0452300D01*
X0451486Y0452300D01*
X0451372Y0451582D01*
X0451119Y0450804D01*
X0450747Y0450075D01*
X0450266Y0449412D01*
X0449688Y0448834D01*
X0449025Y0448353D01*
X0448296Y0447981D01*
X0447518Y0447728D01*
X0446800Y0447614D01*
X0446800Y0452300D01*
X0445800Y0452300D01*
X0445800Y0449171D01*
X0446339Y0448632D01*
X0447100Y0446795D01*
X0447100Y0446241D01*
X0451471Y0437200D01*
X0454100Y0437200D01*
X0454100Y0433650D01*
X0455100Y0433650D01*
X0455100Y0437200D01*
X0459347Y0437200D01*
X0459729Y0437098D01*
X0460071Y0436900D01*
X0460350Y0436621D01*
X0460548Y0436279D01*
X0460650Y0435897D01*
X0460650Y0433650D01*
X0455100Y0433650D01*
X0455100Y0432650D01*
X0460650Y0432650D01*
X0460650Y0430403D01*
X0460548Y0430021D01*
X0460350Y0429679D01*
X0460071Y0429400D01*
X0459729Y0429202D01*
X0459347Y0429100D01*
X0455388Y0429100D01*
X0456353Y0427104D01*
X0458979Y0426400D01*
X0467172Y0426400D01*
X0468187Y0426411D01*
X0468215Y0426400D01*
X0468244Y0426400D01*
X0469183Y0426011D01*
X0470125Y0425633D01*
X0470147Y0425612D01*
X0470174Y0425601D01*
X0470892Y0424883D01*
X0475482Y0420391D01*
X0482889Y0413444D01*
X0494831Y0412831D01*
X0495400Y0413400D01*
X0495400Y0421400D01*
X0493600Y0423200D01*
X0493600Y0424005D01*
X0493350Y0424109D01*
X0490968Y0423122D01*
X0488232Y0423122D01*
X0485704Y0424169D01*
X0483769Y0426104D01*
X0482722Y0428632D01*
X0482722Y0431368D01*
X0483709Y0433750D01*
X0482722Y0436132D01*
X0482722Y0438868D01*
X0483769Y0441396D01*
X0485704Y0443331D01*
X0486037Y0443469D01*
X0485871Y0443869D01*
X0485722Y0444618D01*
X0485722Y0444811D01*
X0489411Y0444811D01*
X0489411Y0445189D01*
X0489411Y0448878D01*
X0489218Y0448878D01*
X0488469Y0448729D01*
X0487763Y0448437D01*
X0487128Y0448012D01*
X0486588Y0447472D01*
X0486163Y0446837D01*
X0485871Y0446131D01*
X0485722Y0445382D01*
X0485722Y0445189D01*
X0489411Y0445189D01*
X0489789Y0445189D01*
X0489789Y0448878D01*
X0489982Y0448878D01*
X0490731Y0448729D01*
X0491131Y0448563D01*
X0491269Y0448896D01*
X0492487Y0450113D01*
X0488186Y0454414D01*
X0476432Y0442661D01*
X0475137Y0442125D01*
X0474329Y0440173D01*
X0472627Y0438471D01*
X0470403Y0437550D01*
X0467997Y0437550D01*
X0465773Y0438471D01*
X0464071Y0440173D01*
X0463624Y0441253D01*
X0462373Y0441771D01*
X0462173Y0441971D01*
X0461429Y0440173D01*
X0459727Y0438471D01*
X0457503Y0437550D01*
X0455097Y0437550D01*
X0452873Y0438471D01*
X0451171Y0440173D01*
X0450250Y0442397D01*
X0450250Y0444803D01*
X0451171Y0447027D01*
X0451300Y0447156D01*
X0451300Y0450795D01*
X0452061Y0452632D01*
X0453468Y0454039D01*
X0459129Y0459700D01*
X0448600Y0459700D01*
X0444700Y0459180D01*
X0444700Y0458318D02*
X0457747Y0458318D01*
X0456749Y0457320D02*
X0448884Y0457320D01*
X0450133Y0456321D02*
X0455750Y0456321D01*
X0454752Y0455323D02*
X0450851Y0455323D01*
X0451272Y0454324D02*
X0453753Y0454324D01*
X0452755Y0453326D02*
X0451482Y0453326D01*
X0451935Y0452327D02*
X0446800Y0452327D01*
X0446800Y0451329D02*
X0445800Y0451329D01*
X0445800Y0450330D02*
X0446800Y0450330D01*
X0446800Y0449332D02*
X0445800Y0449332D01*
X0446463Y0448333D02*
X0446800Y0448333D01*
X0446876Y0447335D02*
X0451300Y0447335D01*
X0451300Y0448333D02*
X0448987Y0448333D01*
X0450185Y0449332D02*
X0451300Y0449332D01*
X0451300Y0450330D02*
X0450878Y0450330D01*
X0451290Y0451329D02*
X0451521Y0451329D01*
X0456300Y0449800D02*
X0456300Y0443600D01*
X0451998Y0439346D02*
X0450434Y0439346D01*
X0450916Y0438348D02*
X0453170Y0438348D01*
X0451399Y0437349D02*
X0482722Y0437349D01*
X0482722Y0436351D02*
X0460506Y0436351D01*
X0460650Y0435352D02*
X0483045Y0435352D01*
X0483459Y0434354D02*
X0460650Y0434354D01*
X0460650Y0432357D02*
X0483132Y0432357D01*
X0482722Y0431358D02*
X0460650Y0431358D01*
X0460639Y0430360D02*
X0482722Y0430360D01*
X0482722Y0429361D02*
X0460005Y0429361D01*
X0456227Y0427364D02*
X0483247Y0427364D01*
X0483661Y0426366D02*
X0468327Y0426366D01*
X0470407Y0425367D02*
X0484506Y0425367D01*
X0485504Y0424369D02*
X0471417Y0424369D01*
X0472438Y0423370D02*
X0487633Y0423370D01*
X0491567Y0423370D02*
X0493600Y0423370D01*
X0494428Y0422372D02*
X0473458Y0422372D01*
X0474478Y0421373D02*
X0495400Y0421373D01*
X0495400Y0420375D02*
X0475500Y0420375D01*
X0476564Y0419376D02*
X0495400Y0419376D01*
X0495400Y0418378D02*
X0477629Y0418378D01*
X0478694Y0417379D02*
X0495400Y0417379D01*
X0495400Y0416381D02*
X0479758Y0416381D01*
X0480823Y0415382D02*
X0495400Y0415382D01*
X0495400Y0414384D02*
X0481888Y0414384D01*
X0484043Y0413385D02*
X0495385Y0413385D01*
X0482833Y0428363D02*
X0455744Y0428363D01*
X0455100Y0433355D02*
X0483545Y0433355D01*
X0482722Y0438348D02*
X0472330Y0438348D01*
X0473502Y0439346D02*
X0482920Y0439346D01*
X0483334Y0440345D02*
X0474400Y0440345D01*
X0474814Y0441343D02*
X0483747Y0441343D01*
X0484715Y0442342D02*
X0475662Y0442342D01*
X0477112Y0443341D02*
X0485727Y0443341D01*
X0485778Y0444339D02*
X0478110Y0444339D01*
X0479109Y0445338D02*
X0485722Y0445338D01*
X0485956Y0446336D02*
X0480107Y0446336D01*
X0481106Y0447335D02*
X0486496Y0447335D01*
X0487608Y0448333D02*
X0482104Y0448333D01*
X0483103Y0449332D02*
X0491705Y0449332D01*
X0492270Y0450330D02*
X0484101Y0450330D01*
X0485100Y0451329D02*
X0491271Y0451329D01*
X0490273Y0452327D02*
X0486098Y0452327D01*
X0487097Y0453326D02*
X0489274Y0453326D01*
X0488276Y0454324D02*
X0488095Y0454324D01*
X0489411Y0448333D02*
X0489789Y0448333D01*
X0489789Y0447335D02*
X0489411Y0447335D01*
X0489411Y0446336D02*
X0489789Y0446336D01*
X0489789Y0445338D02*
X0489411Y0445338D01*
X0474500Y0450800D02*
X0494800Y0471100D01*
X0494800Y0480800D01*
X0499400Y0485400D01*
X0499600Y0485400D01*
X0499600Y0477900D02*
X0499600Y0472900D01*
X0473600Y0446900D01*
X0465800Y0446900D01*
X0464000Y0450800D02*
X0474500Y0450800D01*
X0473900Y0456000D02*
X0462500Y0456000D01*
X0456300Y0449800D01*
X0450885Y0446336D02*
X0447100Y0446336D01*
X0447537Y0445338D02*
X0450471Y0445338D01*
X0450250Y0444339D02*
X0448020Y0444339D01*
X0448502Y0443341D02*
X0450250Y0443341D01*
X0450273Y0442342D02*
X0448985Y0442342D01*
X0449468Y0441343D02*
X0450686Y0441343D01*
X0451100Y0440345D02*
X0449951Y0440345D01*
X0454100Y0436351D02*
X0455100Y0436351D01*
X0455100Y0435352D02*
X0454100Y0435352D01*
X0454100Y0434354D02*
X0455100Y0434354D01*
X0459430Y0438348D02*
X0466070Y0438348D01*
X0464898Y0439346D02*
X0460602Y0439346D01*
X0461500Y0440345D02*
X0464000Y0440345D01*
X0463405Y0441343D02*
X0461914Y0441343D01*
X0473900Y0456000D02*
X0477500Y0459600D01*
X0477500Y0462000D01*
X0470200Y0469300D01*
X0467400Y0474400D01*
X0450600Y0485500D01*
X0446300Y0485500D01*
X0455900Y0474400D02*
X0467400Y0474400D01*
X0455900Y0474400D02*
X0450900Y0466500D01*
X0418200Y0466500D01*
X0414700Y0463000D01*
X0414700Y0456500D01*
X0390600Y0437400D02*
X0390600Y0435000D01*
X0383500Y0427900D01*
X0383500Y0390800D01*
X0377400Y0384700D01*
X0383600Y0386400D02*
X0388300Y0391100D01*
X0388300Y0421400D01*
X0380300Y0402600D02*
X0376100Y0402600D01*
X0371300Y0407400D01*
X0361500Y0386400D02*
X0353700Y0378600D01*
X0353700Y0371100D01*
X0343100Y0366300D02*
X0350600Y0358800D01*
X0353300Y0358800D01*
X0359244Y0360256D02*
X0365544Y0360256D01*
X0360256Y0353156D01*
X0350300Y0353100D01*
X0343400Y0349200D02*
X0329900Y0349200D01*
X0320300Y0358800D01*
X0320300Y0362100D01*
X0334900Y0384500D02*
X0359244Y0360256D01*
X0369845Y0363829D02*
X0371100Y0369184D01*
X0370800Y0373400D01*
X0376538Y0363829D02*
X0377838Y0361900D01*
X0377838Y0361138D01*
X0376538Y0363829D02*
X0378167Y0364400D01*
X0381704Y0359500D02*
X0382854Y0359450D01*
X0380954Y0351500D01*
X0387646Y0351500D02*
X0387646Y0346800D01*
X0380200Y0344500D01*
X0375700Y0343200D01*
X0375000Y0343200D01*
X0373400Y0341600D01*
X0368733Y0335467D02*
X0369100Y0335100D01*
X0369100Y0326150D01*
X0363348Y0320398D01*
X0362132Y0319894D01*
X0362038Y0319800D01*
X0359200Y0319800D01*
X0359200Y0316850D01*
X0346550Y0316850D01*
X0346550Y0332900D01*
X0347650Y0332900D01*
X0355050Y0340300D01*
X0363900Y0340300D01*
X0365867Y0338333D01*
X0366406Y0337032D01*
X0367432Y0336006D01*
X0368733Y0335467D01*
X0368650Y0335501D02*
X0350251Y0335501D01*
X0349253Y0334503D02*
X0369100Y0334503D01*
X0369100Y0333504D02*
X0348254Y0333504D01*
X0346550Y0332506D02*
X0369100Y0332506D01*
X0369100Y0331507D02*
X0346550Y0331507D01*
X0346550Y0330509D02*
X0369100Y0330509D01*
X0369100Y0329510D02*
X0346550Y0329510D01*
X0346550Y0328512D02*
X0369100Y0328512D01*
X0369100Y0327513D02*
X0346550Y0327513D01*
X0346550Y0326515D02*
X0369100Y0326515D01*
X0368466Y0325516D02*
X0346550Y0325516D01*
X0346550Y0324518D02*
X0367468Y0324518D01*
X0366469Y0323519D02*
X0346550Y0323519D01*
X0346550Y0322521D02*
X0365471Y0322521D01*
X0364472Y0321522D02*
X0346550Y0321522D01*
X0346550Y0320524D02*
X0363474Y0320524D01*
X0359200Y0319525D02*
X0346550Y0319525D01*
X0346550Y0318527D02*
X0359200Y0318527D01*
X0359200Y0317528D02*
X0346550Y0317528D01*
X0351250Y0336500D02*
X0366938Y0336500D01*
X0366213Y0337498D02*
X0352248Y0337498D01*
X0353247Y0338497D02*
X0365703Y0338497D01*
X0364705Y0339495D02*
X0354245Y0339495D01*
X0370800Y0317400D02*
X0379800Y0317400D01*
X0380400Y0318000D01*
X0380400Y0328000D01*
X0370800Y0317400D02*
X0368300Y0314500D01*
X0398800Y0320950D02*
X0405452Y0321550D01*
X0409700Y0317302D01*
X0397200Y0344900D02*
X0387646Y0346800D01*
X0392800Y0349600D02*
X0392500Y0351300D01*
X0392100Y0354700D01*
X0389696Y0355900D01*
X0388396Y0359500D01*
X0392800Y0384200D02*
X0394200Y0385600D01*
X0410563Y0378437D02*
X0421107Y0378437D01*
X0420377Y0377439D02*
X0411561Y0377439D01*
X0412560Y0376440D02*
X0420035Y0376440D01*
X0420035Y0375442D02*
X0413558Y0375442D01*
X0430154Y0367054D02*
X0432000Y0368900D01*
X0445800Y0453326D02*
X0446800Y0453326D01*
X0446800Y0454324D02*
X0445800Y0454324D01*
X0445800Y0455323D02*
X0446800Y0455323D01*
X0446800Y0456321D02*
X0445800Y0456321D01*
X0445800Y0457320D02*
X0446800Y0457320D01*
X0445725Y0459317D02*
X0458746Y0459317D01*
X0528200Y0464300D02*
X0543700Y0479800D01*
X0554200Y0479800D01*
X0334900Y0396800D02*
X0334900Y0384500D01*
X0160800Y0503050D02*
X0143950Y0486200D01*
X0128750Y0486200D01*
X0123350Y0491600D01*
X0123350Y0491700D01*
X0122900Y0454700D02*
X0128400Y0449200D01*
X0143002Y0449200D01*
X0383247Y0078884D02*
X0383396Y0078884D01*
X0385409Y0073891D02*
X0387020Y0073891D01*
D27*
X0405500Y0094350D02*
X0405500Y0094500D01*
X0387850Y0110350D01*
X0405500Y0094350D02*
X0419800Y0094350D01*
X0419800Y0112350D02*
X0418350Y0113800D01*
X0418350Y0132700D01*
X0191350Y0153350D02*
X0173700Y0169200D01*
X0173700Y0169350D01*
X0159400Y0169350D01*
X0159400Y0151350D02*
X0160850Y0149900D01*
X0160850Y0131000D01*
X0125100Y0358750D02*
X0110800Y0358750D01*
X0110800Y0358900D01*
X0093150Y0374750D01*
X0123650Y0378200D02*
X0123650Y0397100D01*
X0123650Y0378200D02*
X0125100Y0376750D01*
X0456050Y0394800D02*
X0456050Y0413700D01*
X0454600Y0415150D01*
X0454600Y0433150D02*
X0468900Y0433150D01*
X0468900Y0433000D01*
X0486550Y0417150D01*
D28*
X0472300Y0460000D03*
X0468000Y0459400D03*
X0411100Y0408500D03*
X0410900Y0396300D03*
X0399000Y0365100D03*
X0395000Y0358500D03*
X0392800Y0349600D03*
X0397200Y0344900D03*
X0376700Y0339200D03*
X0371200Y0354900D03*
X0335700Y0326000D03*
X0335700Y0316800D03*
X0348500Y0307900D03*
X0345400Y0301200D03*
X0365000Y0304300D03*
X0392600Y0310400D03*
X0481800Y0217100D03*
X0509400Y0223200D03*
X0525900Y0219600D03*
X0529000Y0226300D03*
X0538700Y0210700D03*
X0538700Y0201500D03*
X0497700Y0188300D03*
X0503200Y0172600D03*
X0481600Y0177900D03*
X0477200Y0182600D03*
X0479400Y0169000D03*
X0475400Y0162400D03*
X0463500Y0131200D03*
X0463300Y0119000D03*
X0406400Y0068100D03*
X0402100Y0067500D03*
X0177100Y0196200D03*
X0172800Y0195600D03*
X0115900Y0144700D03*
X0115700Y0132500D03*
X0103800Y0101300D03*
X0099800Y0094700D03*
X0097600Y0085800D03*
X0102000Y0081100D03*
X0081500Y0075400D03*
X0076000Y0091100D03*
X0040500Y0062200D03*
X0040500Y0053000D03*
X0053300Y0044100D03*
X0050200Y0037400D03*
X0069800Y0040500D03*
X0097400Y0046600D03*
X0107400Y0331900D03*
X0111700Y0332500D03*
X0168600Y0383400D03*
X0168800Y0395600D03*
X0180700Y0426800D03*
X0184700Y0433400D03*
X0186900Y0442300D03*
X0182500Y0447000D03*
X0203000Y0452700D03*
X0208500Y0437000D03*
X0244000Y0465900D03*
X0244000Y0475100D03*
X0231200Y0484000D03*
X0234300Y0490700D03*
X0214700Y0487600D03*
X0187100Y0481500D03*
D29*
X0187100Y0470200D01*
X0177200Y0459900D01*
X0174100Y0454950D01*
X0174050Y0454900D01*
X0197996Y0432400D02*
X0199196Y0430000D01*
X0201862Y0430000D01*
X0201862Y0430762D02*
X0204600Y0433500D01*
X0203162Y0428071D02*
X0199700Y0428200D01*
X0195700Y0424200D01*
X0195700Y0413300D01*
X0189900Y0407500D01*
X0191700Y0407700D02*
X0186900Y0407700D01*
X0204600Y0439600D02*
X0210037Y0446483D01*
X0213100Y0447500D01*
X0235750Y0447500D01*
X0236850Y0448100D01*
X0239450Y0450700D01*
X0249050Y0450700D01*
X0243995Y0458295D02*
X0241350Y0455650D01*
X0243995Y0458295D02*
X0243800Y0476800D01*
X0247695Y0480695D01*
X0247695Y0490800D01*
X0222105Y0490800D01*
X0222955Y0496755D02*
X0218100Y0496700D01*
X0214700Y0493300D01*
X0214700Y0487600D01*
X0222105Y0481745D02*
X0228945Y0481745D01*
X0231200Y0484000D01*
X0222105Y0481745D02*
X0203055Y0481745D01*
X0191100Y0493700D01*
X0222105Y0499855D02*
X0222955Y0496755D01*
X0139100Y0358400D02*
X0139100Y0354500D01*
X0141200Y0352400D01*
X0145700Y0354400D02*
X0145700Y0350200D01*
X0146800Y0348900D02*
X0149500Y0351600D01*
X0149500Y0358200D01*
X0145700Y0354400D01*
X0330650Y0341200D02*
X0340250Y0341200D01*
X0342850Y0343800D01*
X0343950Y0344400D01*
X0366600Y0344400D01*
X0369663Y0345417D01*
X0375100Y0352300D01*
X0375100Y0358400D02*
X0377838Y0361138D01*
X0377838Y0361900D02*
X0380504Y0361900D01*
X0381704Y0359500D01*
X0380000Y0363700D02*
X0376538Y0363829D01*
X0380000Y0363700D02*
X0384000Y0367700D01*
X0384000Y0378600D01*
X0389800Y0384400D01*
X0388000Y0384200D02*
X0392800Y0384200D01*
X0405650Y0337000D02*
X0405600Y0336950D01*
X0402500Y0332000D01*
X0392600Y0321700D01*
X0392600Y0310400D01*
X0388600Y0298200D02*
X0376645Y0310155D01*
X0357595Y0310155D01*
X0350755Y0310155D01*
X0348500Y0307900D01*
X0357595Y0301100D02*
X0332005Y0301100D01*
X0332005Y0311205D01*
X0335900Y0315100D01*
X0335705Y0333605D01*
X0338350Y0336250D01*
X0365000Y0304300D02*
X0365000Y0298600D01*
X0361600Y0295200D01*
X0356745Y0295145D01*
X0357595Y0292045D01*
X0471900Y0195500D02*
X0468800Y0190550D01*
X0468750Y0190500D01*
X0471900Y0195500D02*
X0481800Y0205800D01*
X0481800Y0217100D01*
X0485800Y0229300D02*
X0497755Y0217345D01*
X0516805Y0217345D01*
X0523645Y0217345D01*
X0525900Y0219600D01*
X0516805Y0226400D02*
X0542395Y0226400D01*
X0542395Y0216295D01*
X0538500Y0212400D01*
X0538695Y0193895D01*
X0536050Y0191250D01*
X0534150Y0186300D02*
X0543750Y0186300D01*
X0534150Y0186300D02*
X0531550Y0183700D01*
X0530450Y0183100D01*
X0507800Y0183100D01*
X0504737Y0182083D01*
X0499300Y0175200D01*
X0499300Y0169100D02*
X0496562Y0166362D01*
X0496562Y0165600D02*
X0493896Y0165600D01*
X0492696Y0168000D01*
X0494400Y0163800D02*
X0490400Y0159800D01*
X0490400Y0148900D01*
X0484600Y0143100D01*
X0486400Y0143300D02*
X0481600Y0143300D01*
X0494400Y0163800D02*
X0497862Y0163671D01*
X0509400Y0223200D02*
X0509400Y0228900D01*
X0512800Y0232300D01*
X0517655Y0232355D01*
X0516805Y0235455D01*
X0444200Y0093800D02*
X0440400Y0090000D01*
X0440400Y0085800D01*
X0441500Y0084500D02*
X0444200Y0087200D01*
X0444200Y0093800D01*
X0435900Y0088000D02*
X0433800Y0090100D01*
X0433800Y0094000D01*
X0145400Y0169700D02*
X0145400Y0173600D01*
X0143300Y0175700D01*
X0138800Y0173700D02*
X0138800Y0177900D01*
X0137700Y0179200D02*
X0135000Y0176500D01*
X0135000Y0169900D01*
X0138800Y0173700D01*
X0097600Y0120400D02*
X0092800Y0120400D01*
X0094600Y0120600D02*
X0088800Y0114800D01*
X0088800Y0103900D01*
X0084800Y0099900D01*
X0081338Y0100029D01*
X0082638Y0098100D02*
X0085304Y0098100D01*
X0086504Y0095700D01*
X0082638Y0097338D02*
X0079900Y0094600D01*
X0079900Y0088500D02*
X0074463Y0081617D01*
X0071400Y0080600D01*
X0048750Y0080600D01*
X0047650Y0080000D01*
X0045050Y0077400D01*
X0035450Y0077400D01*
X0040505Y0069805D02*
X0043150Y0072450D01*
X0040505Y0069805D02*
X0040700Y0051300D01*
X0036805Y0047405D01*
X0036805Y0037300D01*
X0062395Y0037300D01*
X0062395Y0046355D02*
X0055555Y0046355D01*
X0053300Y0044100D01*
X0062395Y0046355D02*
X0081445Y0046355D01*
X0093400Y0034400D01*
X0097400Y0046600D02*
X0097400Y0057900D01*
X0107300Y0068200D01*
X0110400Y0073150D01*
X0110450Y0073200D01*
X0069800Y0040500D02*
X0069800Y0034800D01*
X0066400Y0031400D01*
X0061545Y0031345D01*
X0062395Y0028245D01*
X0430200Y0433700D02*
X0434000Y0437500D01*
X0434000Y0441700D01*
X0432900Y0443000D02*
X0430200Y0440300D01*
X0430200Y0433700D01*
X0438500Y0439500D02*
X0440600Y0437400D01*
X0440600Y0433500D01*
D30*
X0412800Y0402800D03*
X0323900Y0374000D03*
X0255800Y0417900D03*
X0166900Y0389100D03*
X0114800Y0498900D03*
X0025500Y0336400D03*
X0117600Y0139000D03*
X0028700Y0110200D03*
X0169700Y0029200D03*
X0320200Y0072000D03*
X0259000Y0191700D03*
X0409500Y0234500D03*
X0464900Y0293000D03*
X0550500Y0153500D03*
X0461600Y0124700D03*
X0554200Y0455500D03*
D31*
X0375100Y0358400D02*
X0375100Y0352300D01*
X0204600Y0433500D02*
X0204600Y0439600D01*
X0499300Y0175200D02*
X0499300Y0169100D01*
X0079900Y0094600D02*
X0079900Y0088500D01*
D32*
X0131250Y0037500D02*
X0131250Y0031400D01*
X0131300Y0031350D01*
X0097750Y0031300D01*
X0150800Y0044950D02*
X0167850Y0062000D01*
X0171350Y0062000D01*
X0171350Y0061400D01*
X0171350Y0062000D02*
X0171350Y0101750D01*
X0169350Y0103750D02*
X0174700Y0109100D01*
X0174700Y0131000D01*
X0181700Y0131000D01*
X0184400Y0133700D01*
X0196800Y0133700D01*
X0209300Y0139200D01*
X0220100Y0139200D01*
X0223950Y0140350D01*
X0174700Y0131000D02*
X0160850Y0131000D01*
X0159050Y0129200D01*
X0145250Y0129200D01*
X0145100Y0129050D01*
X0145250Y0129200D02*
X0141150Y0133300D01*
X0141150Y0139900D01*
X0355250Y0123350D02*
X0359100Y0124500D01*
X0369900Y0124500D01*
X0382400Y0130000D01*
X0394800Y0130000D01*
X0397500Y0132700D01*
X0404500Y0132700D01*
X0404500Y0154600D01*
X0409850Y0159950D01*
X0407850Y0161950D02*
X0407850Y0201700D01*
X0411350Y0201700D01*
X0428400Y0218750D01*
X0407850Y0202300D02*
X0407850Y0201700D01*
X0447950Y0226200D02*
X0447950Y0232300D01*
X0447900Y0232350D01*
X0481450Y0232400D01*
X0426500Y0295150D02*
X0426450Y0295200D01*
X0426450Y0301300D01*
X0426500Y0295150D02*
X0392950Y0295100D01*
X0446000Y0308750D02*
X0463050Y0325800D01*
X0466550Y0325800D01*
X0466550Y0325200D01*
X0466550Y0325800D02*
X0466550Y0365550D01*
X0464550Y0367550D02*
X0469900Y0372900D01*
X0469900Y0394800D01*
X0476900Y0394800D01*
X0479600Y0397500D01*
X0492000Y0397500D01*
X0504500Y0403000D01*
X0515300Y0403000D01*
X0519150Y0404150D01*
X0469900Y0394800D02*
X0456050Y0394800D01*
X0454250Y0393000D01*
X0440450Y0393000D01*
X0440300Y0392850D01*
X0440450Y0393000D02*
X0436350Y0397100D01*
X0436350Y0403700D01*
X0186750Y0496800D02*
X0153200Y0496750D01*
X0153250Y0496700D01*
X0153250Y0490600D01*
X0133700Y0483150D02*
X0116650Y0466100D01*
X0113150Y0466100D01*
X0113150Y0466700D01*
X0113150Y0466100D02*
X0113150Y0426350D01*
X0115150Y0424350D02*
X0109800Y0419000D01*
X0109800Y0397100D01*
X0102800Y0397100D01*
X0100100Y0394400D01*
X0087700Y0394400D01*
X0075200Y0388900D01*
X0064400Y0388900D01*
X0060550Y0387750D01*
X0109800Y0397100D02*
X0123650Y0397100D01*
X0125450Y0398900D01*
X0139250Y0398900D01*
X0139400Y0399050D01*
X0139250Y0398900D02*
X0143350Y0394800D01*
X0143350Y0388200D01*
X0404500Y0132700D02*
X0418350Y0132700D01*
X0420150Y0134500D01*
X0433950Y0134500D01*
X0434100Y0134650D01*
X0433950Y0134500D02*
X0438050Y0130400D01*
X0438050Y0123800D01*
D33*
X0452200Y0124700D02*
X0452200Y0132950D01*
X0447800Y0137350D01*
X0448150Y0137350D01*
X0459550Y0148750D01*
X0446450Y0224700D02*
X0442500Y0224700D01*
X0446450Y0224700D02*
X0447950Y0226200D01*
X0426450Y0301300D02*
X0427950Y0302800D01*
X0431900Y0302800D01*
X0414850Y0378750D02*
X0426250Y0390150D01*
X0426600Y0390150D01*
X0422200Y0394550D01*
X0422200Y0402800D01*
X0164850Y0413150D02*
X0153450Y0401750D01*
X0153100Y0401750D01*
X0157500Y0397350D01*
X0157500Y0389100D01*
X0151750Y0489100D02*
X0147800Y0489100D01*
X0151750Y0489100D02*
X0153250Y0490600D01*
X0127000Y0139000D02*
X0127000Y0130750D01*
X0131400Y0126350D01*
X0131050Y0126350D01*
X0119650Y0114950D01*
X0132750Y0039000D02*
X0131250Y0037500D01*
X0132750Y0039000D02*
X0136700Y0039000D01*
D34*
X0135853Y0040700D02*
X0136528Y0040979D01*
X0138047Y0040350D01*
X0140553Y0040350D01*
X0142869Y0041309D01*
X0144641Y0043081D01*
X0145600Y0045397D01*
X0145600Y0047085D01*
X0146076Y0047561D01*
X0146799Y0049307D01*
X0146799Y0057496D01*
X0146176Y0059000D01*
X0146799Y0060504D01*
X0146799Y0066076D01*
X0146859Y0065931D01*
X0148631Y0064159D01*
X0150947Y0063200D01*
X0153453Y0063200D01*
X0155769Y0064159D01*
X0157541Y0065931D01*
X0158365Y0067921D01*
X0160347Y0067100D01*
X0162853Y0067100D01*
X0165169Y0068059D01*
X0166941Y0069831D01*
X0167900Y0072147D01*
X0167900Y0074653D01*
X0166941Y0076969D01*
X0165169Y0078741D01*
X0162853Y0079700D01*
X0162725Y0079700D01*
X0159074Y0083351D01*
X0157144Y0084150D01*
X0148473Y0084150D01*
X0150200Y0086250D01*
X0149821Y0087111D01*
X0149847Y0087100D01*
X0152353Y0087100D01*
X0154669Y0088059D01*
X0156441Y0089831D01*
X0157400Y0092147D01*
X0157400Y0094653D01*
X0156441Y0096969D01*
X0154669Y0098741D01*
X0152353Y0099700D01*
X0149847Y0099700D01*
X0148365Y0099086D01*
X0148365Y0099810D01*
X0147642Y0101556D01*
X0147184Y0102013D01*
X0150856Y0105685D01*
X0153260Y0105685D01*
X0155006Y0106408D01*
X0156342Y0107744D01*
X0157065Y0109490D01*
X0157065Y0111894D01*
X0161021Y0115850D01*
X0162040Y0115850D01*
X0162131Y0115759D01*
X0164447Y0114800D01*
X0166953Y0114800D01*
X0169269Y0115759D01*
X0171041Y0117531D01*
X0172000Y0119847D01*
X0172000Y0122353D01*
X0171041Y0124669D01*
X0169269Y0126441D01*
X0166953Y0127400D01*
X0164447Y0127400D01*
X0162131Y0126441D01*
X0162040Y0126350D01*
X0157802Y0126350D01*
X0155873Y0125551D01*
X0154396Y0124074D01*
X0153216Y0122894D01*
X0152769Y0123341D01*
X0150453Y0124300D01*
X0147947Y0124300D01*
X0145631Y0123341D01*
X0143859Y0121569D01*
X0143824Y0121485D01*
X0142369Y0122941D01*
X0140053Y0123900D01*
X0139585Y0123900D01*
X0139900Y0124659D01*
X0139900Y0128041D01*
X0138650Y0131059D01*
X0138650Y0142450D01*
X0145744Y0142450D01*
X0147674Y0143249D01*
X0148446Y0144021D01*
X0150141Y0144723D01*
X0151477Y0146059D01*
X0152200Y0147805D01*
X0152200Y0159362D01*
X0154672Y0157935D01*
X0157787Y0157100D01*
X0168840Y0157100D01*
X0184365Y0143158D01*
X0187241Y0141698D01*
X0190397Y0141031D01*
X0193618Y0141204D01*
X0196684Y0142205D01*
X0199133Y0143800D01*
X0200100Y0143750D01*
X0210950Y0143550D01*
X0216950Y0145000D01*
X0221600Y0147700D01*
X0229200Y0146700D01*
X0233500Y0144100D01*
X0233350Y0139900D01*
X0231000Y0137000D01*
X0226000Y0135600D01*
X0218900Y0133700D01*
X0211950Y0131200D01*
X0206200Y0128500D01*
X0198950Y0123650D01*
X0193550Y0118550D01*
X0189200Y0112850D01*
X0185750Y0107100D01*
X0184900Y0104400D01*
X0180650Y0080150D01*
X0179300Y0071900D01*
X0179150Y0061750D01*
X0179750Y0056950D01*
X0180300Y0052100D01*
X0182550Y0043500D01*
X0184600Y0038450D01*
X0185950Y0034450D01*
X0186500Y0030600D01*
X0187100Y0022100D01*
X0174641Y0022120D01*
X0176906Y0024385D01*
X0178200Y0027509D01*
X0178200Y0030891D01*
X0176906Y0034015D01*
X0174515Y0036406D01*
X0171391Y0037700D01*
X0168009Y0037700D01*
X0164885Y0036406D01*
X0162494Y0034015D01*
X0161200Y0030891D01*
X0161200Y0027509D01*
X0162494Y0024385D01*
X0164744Y0022135D01*
X0155730Y0022150D01*
X0156449Y0022868D01*
X0157851Y0025298D01*
X0158578Y0028008D01*
X0158578Y0030814D01*
X0157851Y0033524D01*
X0156449Y0035954D01*
X0154465Y0037938D01*
X0152035Y0039340D01*
X0149325Y0040067D01*
X0146519Y0040067D01*
X0143809Y0039340D01*
X0141379Y0037938D01*
X0139396Y0035954D01*
X0137993Y0033524D01*
X0137267Y0030814D01*
X0137267Y0028008D01*
X0137993Y0025298D01*
X0139396Y0022868D01*
X0140089Y0022175D01*
X0137850Y0022178D01*
X0137850Y0024453D01*
X0136891Y0026769D01*
X0135119Y0028541D01*
X0132803Y0029500D01*
X0130297Y0029500D01*
X0127981Y0028541D01*
X0126209Y0026769D01*
X0125250Y0024453D01*
X0125250Y0022198D01*
X0092600Y0022250D01*
X0091183Y0022659D01*
X0092450Y0025719D01*
X0092450Y0029081D01*
X0091164Y0032187D01*
X0088787Y0034564D01*
X0087174Y0035231D01*
X0095178Y0040214D01*
X0096057Y0039850D01*
X0098743Y0039850D01*
X0101224Y0040878D01*
X0103122Y0042776D01*
X0103427Y0043512D01*
X0109700Y0045729D01*
X0110006Y0045602D01*
X0118994Y0045602D01*
X0119114Y0045652D01*
X0128339Y0045652D01*
X0129259Y0043431D01*
X0131031Y0041659D01*
X0133347Y0040700D01*
X0135853Y0040700D01*
X0131513Y0041460D02*
X0101806Y0041460D01*
X0103198Y0042958D02*
X0129732Y0042958D01*
X0128834Y0044457D02*
X0106100Y0044457D01*
X0099011Y0039961D02*
X0146127Y0039961D01*
X0144518Y0042958D02*
X0182770Y0042958D01*
X0182300Y0044457D02*
X0145211Y0044457D01*
X0145600Y0045955D02*
X0181908Y0045955D01*
X0181516Y0047454D02*
X0145969Y0047454D01*
X0146652Y0048952D02*
X0181123Y0048952D01*
X0180731Y0050451D02*
X0146799Y0050451D01*
X0146799Y0051949D02*
X0180339Y0051949D01*
X0180147Y0053448D02*
X0146799Y0053448D01*
X0146799Y0054946D02*
X0179977Y0054946D01*
X0179807Y0056445D02*
X0146799Y0056445D01*
X0146614Y0057943D02*
X0179626Y0057943D01*
X0179438Y0059442D02*
X0146359Y0059442D01*
X0146799Y0060940D02*
X0179251Y0060940D01*
X0179160Y0062439D02*
X0146799Y0062439D01*
X0146799Y0063937D02*
X0149166Y0063937D01*
X0147354Y0065436D02*
X0146799Y0065436D01*
X0155234Y0063937D02*
X0179182Y0063937D01*
X0179204Y0065436D02*
X0157046Y0065436D01*
X0157956Y0066934D02*
X0179227Y0066934D01*
X0179249Y0068433D02*
X0165543Y0068433D01*
X0166982Y0069932D02*
X0179271Y0069932D01*
X0179293Y0071430D02*
X0167603Y0071430D01*
X0167900Y0072929D02*
X0179468Y0072929D01*
X0179714Y0074427D02*
X0167900Y0074427D01*
X0167373Y0075926D02*
X0179959Y0075926D01*
X0180204Y0077424D02*
X0166485Y0077424D01*
X0164730Y0078923D02*
X0180449Y0078923D01*
X0180698Y0080421D02*
X0162004Y0080421D01*
X0160505Y0081920D02*
X0180960Y0081920D01*
X0181223Y0083418D02*
X0158911Y0083418D01*
X0154317Y0087914D02*
X0182011Y0087914D01*
X0182273Y0089412D02*
X0156022Y0089412D01*
X0156888Y0090911D02*
X0182536Y0090911D01*
X0182799Y0092409D02*
X0157400Y0092409D01*
X0157400Y0093908D02*
X0183061Y0093908D01*
X0183324Y0095406D02*
X0157088Y0095406D01*
X0156467Y0096905D02*
X0183586Y0096905D01*
X0183849Y0098403D02*
X0155006Y0098403D01*
X0149568Y0104397D02*
X0184900Y0104397D01*
X0184637Y0102899D02*
X0148070Y0102899D01*
X0147706Y0101400D02*
X0184374Y0101400D01*
X0184112Y0099902D02*
X0148327Y0099902D01*
X0153770Y0105896D02*
X0185371Y0105896D01*
X0185927Y0107394D02*
X0155992Y0107394D01*
X0156818Y0108893D02*
X0186826Y0108893D01*
X0187725Y0110391D02*
X0157065Y0110391D01*
X0157065Y0111890D02*
X0188624Y0111890D01*
X0189611Y0113388D02*
X0158559Y0113388D01*
X0160058Y0114887D02*
X0164237Y0114887D01*
X0167163Y0114887D02*
X0190754Y0114887D01*
X0191898Y0116385D02*
X0169895Y0116385D01*
X0171187Y0117884D02*
X0193042Y0117884D01*
X0194431Y0119382D02*
X0171808Y0119382D01*
X0172000Y0120881D02*
X0196018Y0120881D01*
X0197605Y0122379D02*
X0171989Y0122379D01*
X0171368Y0123878D02*
X0199291Y0123878D01*
X0201531Y0125376D02*
X0170333Y0125376D01*
X0168221Y0126875D02*
X0203771Y0126875D01*
X0206011Y0128373D02*
X0139762Y0128373D01*
X0139900Y0126875D02*
X0163179Y0126875D01*
X0155698Y0125376D02*
X0139900Y0125376D01*
X0140106Y0123878D02*
X0146928Y0123878D01*
X0144670Y0122379D02*
X0142930Y0122379D01*
X0139141Y0129872D02*
X0209122Y0129872D01*
X0212424Y0131370D02*
X0138650Y0131370D01*
X0138650Y0132869D02*
X0216590Y0132869D01*
X0221394Y0134368D02*
X0138650Y0134368D01*
X0138650Y0135866D02*
X0226950Y0135866D01*
X0231295Y0137365D02*
X0138650Y0137365D01*
X0138650Y0138863D02*
X0232510Y0138863D01*
X0233366Y0140362D02*
X0138650Y0140362D01*
X0138650Y0141860D02*
X0186921Y0141860D01*
X0184142Y0143359D02*
X0147783Y0143359D01*
X0150275Y0144857D02*
X0182473Y0144857D01*
X0180804Y0146356D02*
X0151600Y0146356D01*
X0152200Y0147854D02*
X0153375Y0147854D01*
X0153450Y0147725D02*
X0153775Y0147400D01*
X0154175Y0147169D01*
X0154620Y0147050D01*
X0158875Y0147050D01*
X0158875Y0150825D01*
X0159925Y0150825D01*
X0159925Y0151875D01*
X0158875Y0151875D01*
X0158875Y0155650D01*
X0154620Y0155650D01*
X0154175Y0155531D01*
X0153775Y0155300D01*
X0153450Y0154975D01*
X0153219Y0154575D01*
X0153100Y0154130D01*
X0153100Y0151875D01*
X0158875Y0151875D01*
X0158875Y0150825D01*
X0153100Y0150825D01*
X0153100Y0148570D01*
X0153219Y0148125D01*
X0153450Y0147725D01*
X0153100Y0149353D02*
X0152200Y0149353D01*
X0152200Y0150851D02*
X0158875Y0150851D01*
X0159925Y0150851D02*
X0175798Y0150851D01*
X0174130Y0152350D02*
X0165700Y0152350D01*
X0165700Y0151875D02*
X0165700Y0154130D01*
X0165581Y0154575D01*
X0165350Y0154975D01*
X0165025Y0155300D01*
X0164625Y0155531D01*
X0164180Y0155650D01*
X0159925Y0155650D01*
X0159925Y0151875D01*
X0165700Y0151875D01*
X0165700Y0150825D02*
X0165700Y0148570D01*
X0165581Y0148125D01*
X0165350Y0147725D01*
X0165025Y0147400D01*
X0164625Y0147169D01*
X0164180Y0147050D01*
X0159925Y0147050D01*
X0159925Y0150825D01*
X0165700Y0150825D01*
X0165700Y0149353D02*
X0177467Y0149353D01*
X0179136Y0147854D02*
X0165425Y0147854D01*
X0159925Y0147854D02*
X0158875Y0147854D01*
X0158875Y0149353D02*
X0159925Y0149353D01*
X0159925Y0152350D02*
X0158875Y0152350D01*
X0158875Y0153848D02*
X0159925Y0153848D01*
X0159925Y0155347D02*
X0158875Y0155347D01*
X0153856Y0155347D02*
X0152200Y0155347D01*
X0152200Y0156845D02*
X0169124Y0156845D01*
X0170792Y0155347D02*
X0164944Y0155347D01*
X0165700Y0153848D02*
X0172461Y0153848D01*
X0153963Y0158344D02*
X0152200Y0158344D01*
X0152200Y0153848D02*
X0153100Y0153848D01*
X0153100Y0152350D02*
X0152200Y0152350D01*
X0151472Y0123878D02*
X0154200Y0123878D01*
X0150127Y0086415D02*
X0181748Y0086415D01*
X0181485Y0084917D02*
X0149104Y0084917D01*
X0143019Y0041460D02*
X0183378Y0041460D01*
X0183987Y0039961D02*
X0149718Y0039961D01*
X0153555Y0038463D02*
X0184595Y0038463D01*
X0185101Y0036964D02*
X0173167Y0036964D01*
X0175455Y0035466D02*
X0185607Y0035466D01*
X0186019Y0033967D02*
X0176926Y0033967D01*
X0177546Y0032469D02*
X0186233Y0032469D01*
X0186447Y0030970D02*
X0178167Y0030970D01*
X0178200Y0029472D02*
X0186580Y0029472D01*
X0186685Y0027973D02*
X0178200Y0027973D01*
X0177771Y0026475D02*
X0186791Y0026475D01*
X0186897Y0024976D02*
X0177151Y0024976D01*
X0175998Y0023478D02*
X0187003Y0023478D01*
X0166233Y0036964D02*
X0155438Y0036964D01*
X0156730Y0035466D02*
X0163945Y0035466D01*
X0162474Y0033967D02*
X0157595Y0033967D01*
X0158134Y0032469D02*
X0161854Y0032469D01*
X0161233Y0030970D02*
X0158536Y0030970D01*
X0158578Y0029472D02*
X0161200Y0029472D01*
X0161200Y0027973D02*
X0158568Y0027973D01*
X0158167Y0026475D02*
X0161629Y0026475D01*
X0162249Y0024976D02*
X0157666Y0024976D01*
X0156800Y0023478D02*
X0163402Y0023478D01*
X0139044Y0023478D02*
X0137850Y0023478D01*
X0137633Y0024976D02*
X0138179Y0024976D01*
X0137677Y0026475D02*
X0137013Y0026475D01*
X0137276Y0027973D02*
X0135686Y0027973D01*
X0137267Y0029472D02*
X0132871Y0029472D01*
X0130229Y0029472D02*
X0092288Y0029472D01*
X0092450Y0027973D02*
X0127414Y0027973D01*
X0126087Y0026475D02*
X0092450Y0026475D01*
X0092142Y0024976D02*
X0125467Y0024976D01*
X0125250Y0023478D02*
X0091522Y0023478D01*
X0091667Y0030970D02*
X0137308Y0030970D01*
X0137710Y0032469D02*
X0090881Y0032469D01*
X0089383Y0033967D02*
X0138249Y0033967D01*
X0139114Y0035466D02*
X0087551Y0035466D01*
X0089958Y0036964D02*
X0140406Y0036964D01*
X0142289Y0038463D02*
X0092364Y0038463D01*
X0094771Y0039961D02*
X0095789Y0039961D01*
X0195627Y0141860D02*
X0233420Y0141860D01*
X0233474Y0143359D02*
X0198455Y0143359D01*
X0216359Y0144857D02*
X0232248Y0144857D01*
X0229770Y0146356D02*
X0219285Y0146356D01*
X0345850Y0123800D02*
X0345700Y0119600D01*
X0350000Y0117000D01*
X0357600Y0116000D01*
X0362250Y0118700D01*
X0368250Y0120150D01*
X0379100Y0119950D01*
X0380067Y0119900D01*
X0382516Y0121495D01*
X0385582Y0122496D01*
X0388803Y0122669D01*
X0391959Y0122002D01*
X0394835Y0120542D01*
X0410360Y0106600D01*
X0421413Y0106600D01*
X0424528Y0105765D01*
X0427000Y0104338D01*
X0427000Y0115895D01*
X0427723Y0117641D01*
X0429059Y0118977D01*
X0430754Y0119679D01*
X0431526Y0120451D01*
X0433456Y0121250D01*
X0440550Y0121250D01*
X0440550Y0132641D01*
X0439300Y0135659D01*
X0439300Y0139041D01*
X0439614Y0139800D01*
X0439147Y0139800D01*
X0436831Y0140759D01*
X0435376Y0142215D01*
X0435341Y0142131D01*
X0433569Y0140359D01*
X0431253Y0139400D01*
X0428747Y0139400D01*
X0426431Y0140359D01*
X0425984Y0140806D01*
X0424804Y0139626D01*
X0423327Y0138149D01*
X0421398Y0137350D01*
X0417160Y0137350D01*
X0417069Y0137259D01*
X0414753Y0136300D01*
X0412247Y0136300D01*
X0409931Y0137259D01*
X0408159Y0139031D01*
X0407200Y0141347D01*
X0407200Y0143853D01*
X0408159Y0146169D01*
X0409931Y0147941D01*
X0412247Y0148900D01*
X0414753Y0148900D01*
X0417069Y0147941D01*
X0417160Y0147850D01*
X0418179Y0147850D01*
X0422135Y0151806D01*
X0422135Y0154210D01*
X0422858Y0155956D01*
X0424194Y0157292D01*
X0425940Y0158015D01*
X0428344Y0158015D01*
X0432016Y0161687D01*
X0431558Y0162144D01*
X0430835Y0163890D01*
X0430835Y0164614D01*
X0429353Y0164000D01*
X0426847Y0164000D01*
X0424531Y0164959D01*
X0422759Y0166731D01*
X0421800Y0169047D01*
X0421800Y0171553D01*
X0422759Y0173869D01*
X0424531Y0175641D01*
X0426847Y0176600D01*
X0429353Y0176600D01*
X0429379Y0176589D01*
X0429000Y0177450D01*
X0430727Y0179550D01*
X0422056Y0179550D01*
X0420126Y0180349D01*
X0416475Y0184000D01*
X0416347Y0184000D01*
X0414031Y0184959D01*
X0412259Y0186731D01*
X0411300Y0189047D01*
X0411300Y0191553D01*
X0412259Y0193869D01*
X0414031Y0195641D01*
X0416347Y0196600D01*
X0418853Y0196600D01*
X0420835Y0195779D01*
X0421659Y0197769D01*
X0423431Y0199541D01*
X0425747Y0200500D01*
X0428253Y0200500D01*
X0430569Y0199541D01*
X0432341Y0197769D01*
X0432401Y0197624D01*
X0432401Y0203196D01*
X0433024Y0204700D01*
X0432401Y0206204D01*
X0432401Y0214393D01*
X0433124Y0216139D01*
X0433600Y0216615D01*
X0433600Y0218303D01*
X0434559Y0220619D01*
X0436331Y0222391D01*
X0438647Y0223350D01*
X0441153Y0223350D01*
X0442672Y0222721D01*
X0443347Y0223000D01*
X0445853Y0223000D01*
X0448169Y0222041D01*
X0449941Y0220269D01*
X0450861Y0218048D01*
X0460086Y0218048D01*
X0460206Y0218098D01*
X0469194Y0218098D01*
X0469500Y0217971D01*
X0475773Y0220188D01*
X0476078Y0220924D01*
X0477976Y0222822D01*
X0480457Y0223850D01*
X0483143Y0223850D01*
X0484022Y0223486D01*
X0492026Y0228469D01*
X0490413Y0229136D01*
X0488036Y0231513D01*
X0486750Y0234619D01*
X0486750Y0237981D01*
X0488017Y0241041D01*
X0486600Y0241450D01*
X0453950Y0241502D01*
X0453950Y0239247D01*
X0452991Y0236931D01*
X0451219Y0235159D01*
X0448903Y0234200D01*
X0446397Y0234200D01*
X0444081Y0235159D01*
X0442309Y0236931D01*
X0441350Y0239247D01*
X0441350Y0241522D01*
X0439111Y0241525D01*
X0439804Y0240832D01*
X0441207Y0238402D01*
X0441933Y0235692D01*
X0441933Y0232886D01*
X0441207Y0230176D01*
X0439804Y0227746D01*
X0437821Y0225762D01*
X0435391Y0224360D01*
X0432681Y0223633D01*
X0429875Y0223633D01*
X0427165Y0224360D01*
X0424735Y0225762D01*
X0422751Y0227746D01*
X0421349Y0230176D01*
X0420622Y0232886D01*
X0420622Y0235692D01*
X0421349Y0238402D01*
X0422751Y0240832D01*
X0423470Y0241550D01*
X0414456Y0241565D01*
X0416706Y0239315D01*
X0418000Y0236191D01*
X0418000Y0232809D01*
X0416706Y0229685D01*
X0414315Y0227294D01*
X0411191Y0226000D01*
X0407809Y0226000D01*
X0404685Y0227294D01*
X0402294Y0229685D01*
X0401000Y0232809D01*
X0401000Y0236191D01*
X0402294Y0239315D01*
X0404559Y0241580D01*
X0392100Y0241600D01*
X0392700Y0233100D01*
X0393250Y0229250D01*
X0394600Y0225250D01*
X0396650Y0220200D01*
X0398900Y0211600D01*
X0399450Y0206750D01*
X0400050Y0201950D01*
X0399900Y0191800D01*
X0398550Y0183550D01*
X0394300Y0159300D01*
X0393450Y0156600D01*
X0390000Y0150850D01*
X0385650Y0145150D01*
X0380250Y0140050D01*
X0373000Y0135200D01*
X0367250Y0132500D01*
X0360300Y0130000D01*
X0353200Y0128100D01*
X0348200Y0126700D01*
X0345850Y0123800D01*
X0345913Y0123878D02*
X0440550Y0123878D01*
X0440550Y0125376D02*
X0347127Y0125376D01*
X0348825Y0126875D02*
X0440550Y0126875D01*
X0440550Y0128373D02*
X0354222Y0128373D01*
X0359822Y0129872D02*
X0440550Y0129872D01*
X0440550Y0131370D02*
X0364110Y0131370D01*
X0368036Y0132869D02*
X0440456Y0132869D01*
X0439835Y0134368D02*
X0371227Y0134368D01*
X0373996Y0135866D02*
X0439300Y0135866D01*
X0439300Y0137365D02*
X0421433Y0137365D01*
X0424041Y0138863D02*
X0439300Y0138863D01*
X0437791Y0140362D02*
X0433571Y0140362D01*
X0435070Y0141860D02*
X0435730Y0141860D01*
X0426429Y0140362D02*
X0425540Y0140362D01*
X0418183Y0147854D02*
X0417155Y0147854D01*
X0419682Y0149353D02*
X0388857Y0149353D01*
X0390001Y0150851D02*
X0421180Y0150851D01*
X0422135Y0152350D02*
X0390900Y0152350D01*
X0391799Y0153848D02*
X0422135Y0153848D01*
X0422606Y0155347D02*
X0392698Y0155347D01*
X0393527Y0156845D02*
X0423747Y0156845D01*
X0428673Y0158344D02*
X0393999Y0158344D01*
X0394395Y0159842D02*
X0430171Y0159842D01*
X0431670Y0161341D02*
X0394658Y0161341D01*
X0394920Y0162839D02*
X0431270Y0162839D01*
X0430835Y0164338D02*
X0430168Y0164338D01*
X0426031Y0164338D02*
X0395183Y0164338D01*
X0395446Y0165836D02*
X0423654Y0165836D01*
X0422509Y0167335D02*
X0395708Y0167335D01*
X0395971Y0168833D02*
X0421888Y0168833D01*
X0421800Y0170332D02*
X0396233Y0170332D01*
X0396496Y0171830D02*
X0421915Y0171830D01*
X0422536Y0173329D02*
X0396759Y0173329D01*
X0397021Y0174827D02*
X0423718Y0174827D01*
X0426185Y0176326D02*
X0397284Y0176326D01*
X0397547Y0177824D02*
X0429308Y0177824D01*
X0430540Y0179323D02*
X0397809Y0179323D01*
X0398072Y0180821D02*
X0419654Y0180821D01*
X0418155Y0182320D02*
X0398334Y0182320D01*
X0398594Y0183818D02*
X0416657Y0183818D01*
X0413674Y0185317D02*
X0398839Y0185317D01*
X0399084Y0186815D02*
X0412224Y0186815D01*
X0411604Y0188314D02*
X0399330Y0188314D01*
X0399575Y0189812D02*
X0411300Y0189812D01*
X0411300Y0191311D02*
X0399820Y0191311D01*
X0399915Y0192809D02*
X0411820Y0192809D01*
X0412698Y0194308D02*
X0399937Y0194308D01*
X0399959Y0195806D02*
X0414431Y0195806D01*
X0420769Y0195806D02*
X0420846Y0195806D01*
X0421467Y0197305D02*
X0399981Y0197305D01*
X0400003Y0198803D02*
X0422694Y0198803D01*
X0425269Y0200302D02*
X0400026Y0200302D01*
X0400048Y0201801D02*
X0432401Y0201801D01*
X0432443Y0203299D02*
X0399881Y0203299D01*
X0399694Y0204798D02*
X0432983Y0204798D01*
X0432401Y0206296D02*
X0399507Y0206296D01*
X0399332Y0207795D02*
X0432401Y0207795D01*
X0432401Y0209293D02*
X0399162Y0209293D01*
X0398992Y0210792D02*
X0432401Y0210792D01*
X0432401Y0212290D02*
X0398719Y0212290D01*
X0398327Y0213789D02*
X0432401Y0213789D01*
X0432771Y0215287D02*
X0397935Y0215287D01*
X0397543Y0216786D02*
X0433600Y0216786D01*
X0433600Y0218284D02*
X0397151Y0218284D01*
X0396759Y0219783D02*
X0434213Y0219783D01*
X0435222Y0221281D02*
X0396211Y0221281D01*
X0395603Y0222780D02*
X0437270Y0222780D01*
X0435087Y0224278D02*
X0485295Y0224278D01*
X0487702Y0225777D02*
X0437835Y0225777D01*
X0439333Y0227275D02*
X0490109Y0227275D01*
X0491289Y0228774D02*
X0440398Y0228774D01*
X0441233Y0230272D02*
X0489278Y0230272D01*
X0487930Y0231771D02*
X0441635Y0231771D01*
X0441933Y0233269D02*
X0487309Y0233269D01*
X0486750Y0234768D02*
X0450274Y0234768D01*
X0452326Y0236266D02*
X0486750Y0236266D01*
X0486750Y0237765D02*
X0453336Y0237765D01*
X0453950Y0239263D02*
X0487281Y0239263D01*
X0487902Y0240762D02*
X0453950Y0240762D01*
X0445026Y0234768D02*
X0441933Y0234768D01*
X0441780Y0236266D02*
X0442974Y0236266D01*
X0441964Y0237765D02*
X0441378Y0237765D01*
X0441350Y0239263D02*
X0440710Y0239263D01*
X0441350Y0240762D02*
X0439845Y0240762D01*
X0422711Y0240762D02*
X0415259Y0240762D01*
X0416727Y0239263D02*
X0421846Y0239263D01*
X0421178Y0237765D02*
X0417348Y0237765D01*
X0417969Y0236266D02*
X0420776Y0236266D01*
X0420622Y0234768D02*
X0418000Y0234768D01*
X0418000Y0233269D02*
X0420622Y0233269D01*
X0420921Y0231771D02*
X0417570Y0231771D01*
X0416949Y0230272D02*
X0421323Y0230272D01*
X0422158Y0228774D02*
X0415795Y0228774D01*
X0414269Y0227275D02*
X0423223Y0227275D01*
X0424721Y0225777D02*
X0394422Y0225777D01*
X0393916Y0227275D02*
X0404731Y0227275D01*
X0403205Y0228774D02*
X0393411Y0228774D01*
X0393104Y0230272D02*
X0402051Y0230272D01*
X0401430Y0231771D02*
X0392890Y0231771D01*
X0392688Y0233269D02*
X0401000Y0233269D01*
X0401000Y0234768D02*
X0392582Y0234768D01*
X0392477Y0236266D02*
X0401031Y0236266D01*
X0401652Y0237765D02*
X0392371Y0237765D01*
X0392265Y0239263D02*
X0402273Y0239263D01*
X0403741Y0240762D02*
X0392159Y0240762D01*
X0394995Y0224278D02*
X0427469Y0224278D01*
X0442530Y0222780D02*
X0442815Y0222780D01*
X0446385Y0222780D02*
X0477934Y0222780D01*
X0476435Y0221281D02*
X0448928Y0221281D01*
X0450142Y0219783D02*
X0474627Y0219783D01*
X0470386Y0218284D02*
X0450763Y0218284D01*
X0432401Y0200302D02*
X0428731Y0200302D01*
X0431306Y0198803D02*
X0432401Y0198803D01*
X0409845Y0147854D02*
X0387714Y0147854D01*
X0386570Y0146356D02*
X0408346Y0146356D01*
X0407616Y0144857D02*
X0385340Y0144857D01*
X0383753Y0143359D02*
X0407200Y0143359D01*
X0407200Y0141860D02*
X0382167Y0141860D01*
X0380580Y0140362D02*
X0407608Y0140362D01*
X0408327Y0138863D02*
X0378476Y0138863D01*
X0376236Y0137365D02*
X0409826Y0137365D01*
X0390174Y0122379D02*
X0440550Y0122379D01*
X0432565Y0120881D02*
X0394167Y0120881D01*
X0396126Y0119382D02*
X0430038Y0119382D01*
X0427966Y0117884D02*
X0397795Y0117884D01*
X0399463Y0116385D02*
X0414323Y0116385D01*
X0414175Y0116300D02*
X0413850Y0115975D01*
X0413619Y0115575D01*
X0413500Y0115130D01*
X0413500Y0112875D01*
X0419275Y0112875D01*
X0419275Y0116650D01*
X0415020Y0116650D01*
X0414575Y0116531D01*
X0414175Y0116300D01*
X0413500Y0114887D02*
X0401132Y0114887D01*
X0402801Y0113388D02*
X0413500Y0113388D01*
X0413500Y0111825D02*
X0413500Y0109570D01*
X0413619Y0109125D01*
X0413850Y0108725D01*
X0414175Y0108400D01*
X0414575Y0108169D01*
X0415020Y0108050D01*
X0419275Y0108050D01*
X0419275Y0111825D01*
X0420325Y0111825D01*
X0420325Y0112875D01*
X0419275Y0112875D01*
X0419275Y0111825D01*
X0413500Y0111825D01*
X0413500Y0110391D02*
X0406138Y0110391D01*
X0407807Y0108893D02*
X0413753Y0108893D01*
X0409476Y0107394D02*
X0427000Y0107394D01*
X0427000Y0105896D02*
X0424041Y0105896D01*
X0424580Y0108050D02*
X0425025Y0108169D01*
X0425425Y0108400D01*
X0425750Y0108725D01*
X0425981Y0109125D01*
X0426100Y0109570D01*
X0426100Y0111825D01*
X0420325Y0111825D01*
X0420325Y0108050D01*
X0424580Y0108050D01*
X0425847Y0108893D02*
X0427000Y0108893D01*
X0427000Y0110391D02*
X0426100Y0110391D01*
X0427000Y0111890D02*
X0420325Y0111890D01*
X0420325Y0112875D02*
X0426100Y0112875D01*
X0426100Y0115130D01*
X0425981Y0115575D01*
X0425750Y0115975D01*
X0425425Y0116300D01*
X0425025Y0116531D01*
X0424580Y0116650D01*
X0420325Y0116650D01*
X0420325Y0112875D01*
X0420325Y0113388D02*
X0419275Y0113388D01*
X0419275Y0111890D02*
X0404470Y0111890D01*
X0419275Y0110391D02*
X0420325Y0110391D01*
X0420325Y0108893D02*
X0419275Y0108893D01*
X0419275Y0114887D02*
X0420325Y0114887D01*
X0420325Y0116385D02*
X0419275Y0116385D01*
X0425277Y0116385D02*
X0427203Y0116385D01*
X0427000Y0114887D02*
X0426100Y0114887D01*
X0426100Y0113388D02*
X0427000Y0113388D01*
X0426898Y0104397D02*
X0427000Y0104397D01*
X0385226Y0122379D02*
X0345799Y0122379D01*
X0345746Y0120881D02*
X0381573Y0120881D01*
X0365074Y0119382D02*
X0346060Y0119382D01*
X0348538Y0117884D02*
X0360844Y0117884D01*
X0358264Y0116385D02*
X0354671Y0116385D01*
X0387800Y0286050D02*
X0386383Y0286459D01*
X0387650Y0289519D01*
X0387650Y0292881D01*
X0386364Y0295987D01*
X0383987Y0298364D01*
X0382374Y0299031D01*
X0390378Y0304014D01*
X0391257Y0303650D01*
X0393943Y0303650D01*
X0396424Y0304678D01*
X0398322Y0306576D01*
X0398627Y0307312D01*
X0404900Y0309529D01*
X0405206Y0309402D01*
X0414194Y0309402D01*
X0414314Y0309452D01*
X0423539Y0309452D01*
X0424459Y0307231D01*
X0426231Y0305459D01*
X0428547Y0304500D01*
X0431053Y0304500D01*
X0431728Y0304779D01*
X0433247Y0304150D01*
X0435753Y0304150D01*
X0438069Y0305109D01*
X0439841Y0306881D01*
X0440800Y0309197D01*
X0440800Y0310885D01*
X0441276Y0311361D01*
X0441999Y0313107D01*
X0441999Y0321296D01*
X0441376Y0322800D01*
X0441999Y0324304D01*
X0441999Y0329876D01*
X0442059Y0329731D01*
X0443831Y0327959D01*
X0446147Y0327000D01*
X0448653Y0327000D01*
X0450969Y0327959D01*
X0452741Y0329731D01*
X0453565Y0331721D01*
X0455547Y0330900D01*
X0458053Y0330900D01*
X0460369Y0331859D01*
X0462141Y0333631D01*
X0463100Y0335947D01*
X0463100Y0338453D01*
X0462141Y0340769D01*
X0460369Y0342541D01*
X0458053Y0343500D01*
X0457925Y0343500D01*
X0454274Y0347151D01*
X0452344Y0347950D01*
X0443673Y0347950D01*
X0445400Y0350050D01*
X0445021Y0350911D01*
X0445047Y0350900D01*
X0447553Y0350900D01*
X0449869Y0351859D01*
X0451641Y0353631D01*
X0452600Y0355947D01*
X0452600Y0358453D01*
X0451641Y0360769D01*
X0449869Y0362541D01*
X0447553Y0363500D01*
X0445047Y0363500D01*
X0443565Y0362886D01*
X0443565Y0363610D01*
X0442842Y0365356D01*
X0442384Y0365813D01*
X0446056Y0369485D01*
X0448460Y0369485D01*
X0450206Y0370208D01*
X0451542Y0371544D01*
X0452265Y0373290D01*
X0452265Y0375694D01*
X0456221Y0379650D01*
X0457240Y0379650D01*
X0457331Y0379559D01*
X0459647Y0378600D01*
X0462153Y0378600D01*
X0464469Y0379559D01*
X0466241Y0381331D01*
X0467200Y0383647D01*
X0467200Y0386153D01*
X0466241Y0388469D01*
X0464469Y0390241D01*
X0462153Y0391200D01*
X0459647Y0391200D01*
X0457331Y0390241D01*
X0457240Y0390150D01*
X0453002Y0390150D01*
X0451073Y0389351D01*
X0449596Y0387874D01*
X0448416Y0386694D01*
X0447969Y0387141D01*
X0445653Y0388100D01*
X0443147Y0388100D01*
X0440831Y0387141D01*
X0439059Y0385369D01*
X0439024Y0385285D01*
X0437569Y0386741D01*
X0435253Y0387700D01*
X0434785Y0387700D01*
X0435100Y0388459D01*
X0435100Y0391841D01*
X0433850Y0394859D01*
X0433850Y0406250D01*
X0440944Y0406250D01*
X0442874Y0407049D01*
X0443646Y0407821D01*
X0445341Y0408523D01*
X0446677Y0409859D01*
X0447400Y0411605D01*
X0447400Y0423162D01*
X0449872Y0421735D01*
X0452987Y0420900D01*
X0464040Y0420900D01*
X0479565Y0406958D01*
X0482441Y0405498D01*
X0485597Y0404831D01*
X0488818Y0405004D01*
X0491884Y0406005D01*
X0494333Y0407600D01*
X0495300Y0407550D01*
X0506150Y0407350D01*
X0512150Y0408800D01*
X0516800Y0411500D01*
X0524400Y0410500D01*
X0528700Y0407900D01*
X0528550Y0403700D01*
X0526200Y0400800D01*
X0521200Y0399400D01*
X0514100Y0397500D01*
X0507150Y0395000D01*
X0501400Y0392300D01*
X0494150Y0387450D01*
X0488750Y0382350D01*
X0484400Y0376650D01*
X0480950Y0370900D01*
X0480100Y0368200D01*
X0475850Y0343950D01*
X0474500Y0335700D01*
X0474350Y0325550D01*
X0474950Y0320750D01*
X0475500Y0315900D01*
X0477750Y0307300D01*
X0479800Y0302250D01*
X0481150Y0298250D01*
X0481700Y0294400D01*
X0482300Y0285900D01*
X0469841Y0285920D01*
X0472106Y0288185D01*
X0473400Y0291309D01*
X0473400Y0294691D01*
X0472106Y0297815D01*
X0469715Y0300206D01*
X0466591Y0301500D01*
X0463209Y0301500D01*
X0460085Y0300206D01*
X0457694Y0297815D01*
X0456400Y0294691D01*
X0456400Y0291309D01*
X0457694Y0288185D01*
X0459944Y0285935D01*
X0450930Y0285950D01*
X0451649Y0286668D01*
X0453051Y0289098D01*
X0453778Y0291808D01*
X0453778Y0294614D01*
X0453051Y0297324D01*
X0451649Y0299754D01*
X0449665Y0301738D01*
X0447235Y0303140D01*
X0444525Y0303867D01*
X0441719Y0303867D01*
X0439009Y0303140D01*
X0436579Y0301738D01*
X0434596Y0299754D01*
X0433193Y0297324D01*
X0432467Y0294614D01*
X0432467Y0291808D01*
X0433193Y0289098D01*
X0434596Y0286668D01*
X0435289Y0285975D01*
X0433050Y0285978D01*
X0433050Y0288253D01*
X0432091Y0290569D01*
X0430319Y0292341D01*
X0428003Y0293300D01*
X0425497Y0293300D01*
X0423181Y0292341D01*
X0421409Y0290569D01*
X0420450Y0288253D01*
X0420450Y0285998D01*
X0387800Y0286050D01*
X0386696Y0287216D02*
X0420450Y0287216D01*
X0420641Y0288714D02*
X0387317Y0288714D01*
X0387650Y0290213D02*
X0421262Y0290213D01*
X0422552Y0291711D02*
X0387650Y0291711D01*
X0387514Y0293210D02*
X0425279Y0293210D01*
X0428221Y0293210D02*
X0432467Y0293210D01*
X0432492Y0294708D02*
X0386893Y0294708D01*
X0386143Y0296207D02*
X0432893Y0296207D01*
X0433413Y0297705D02*
X0384645Y0297705D01*
X0382651Y0299204D02*
X0434278Y0299204D01*
X0435544Y0300702D02*
X0385058Y0300702D01*
X0387465Y0302201D02*
X0437382Y0302201D01*
X0438157Y0305198D02*
X0478603Y0305198D01*
X0477995Y0306696D02*
X0439656Y0306696D01*
X0440385Y0308195D02*
X0477516Y0308195D01*
X0477124Y0309693D02*
X0440800Y0309693D01*
X0441107Y0311192D02*
X0476732Y0311192D01*
X0476340Y0312690D02*
X0441827Y0312690D01*
X0441999Y0314189D02*
X0475948Y0314189D01*
X0475556Y0315687D02*
X0441999Y0315687D01*
X0441999Y0317186D02*
X0475354Y0317186D01*
X0475184Y0318684D02*
X0441999Y0318684D01*
X0441999Y0320183D02*
X0475014Y0320183D01*
X0474834Y0321681D02*
X0441840Y0321681D01*
X0441534Y0323180D02*
X0474646Y0323180D01*
X0474459Y0324678D02*
X0441999Y0324678D01*
X0441999Y0326177D02*
X0474359Y0326177D01*
X0474381Y0327675D02*
X0450284Y0327675D01*
X0452184Y0329174D02*
X0474404Y0329174D01*
X0474426Y0330672D02*
X0453131Y0330672D01*
X0460681Y0332171D02*
X0474448Y0332171D01*
X0474470Y0333670D02*
X0462157Y0333670D01*
X0462777Y0335168D02*
X0474492Y0335168D01*
X0474658Y0336667D02*
X0463100Y0336667D01*
X0463100Y0338165D02*
X0474903Y0338165D01*
X0475149Y0339664D02*
X0462599Y0339664D01*
X0461747Y0341162D02*
X0475394Y0341162D01*
X0475639Y0342661D02*
X0460080Y0342661D01*
X0457266Y0344159D02*
X0475887Y0344159D01*
X0476149Y0345658D02*
X0455767Y0345658D01*
X0454261Y0347156D02*
X0476412Y0347156D01*
X0476675Y0348655D02*
X0444253Y0348655D01*
X0445355Y0350153D02*
X0476937Y0350153D01*
X0477200Y0351652D02*
X0449368Y0351652D01*
X0451160Y0353150D02*
X0477462Y0353150D01*
X0477725Y0354649D02*
X0452062Y0354649D01*
X0452600Y0356147D02*
X0477988Y0356147D01*
X0478250Y0357646D02*
X0452600Y0357646D01*
X0452314Y0359144D02*
X0478513Y0359144D01*
X0478776Y0360643D02*
X0451693Y0360643D01*
X0450268Y0362141D02*
X0479038Y0362141D01*
X0479301Y0363640D02*
X0443553Y0363640D01*
X0442932Y0365138D02*
X0479563Y0365138D01*
X0479826Y0366637D02*
X0443208Y0366637D01*
X0444706Y0368135D02*
X0480089Y0368135D01*
X0480551Y0369634D02*
X0448820Y0369634D01*
X0451130Y0371132D02*
X0481089Y0371132D01*
X0481988Y0372631D02*
X0451992Y0372631D01*
X0452265Y0374129D02*
X0482888Y0374129D01*
X0483787Y0375628D02*
X0452265Y0375628D01*
X0453697Y0377126D02*
X0484764Y0377126D01*
X0485907Y0378625D02*
X0462213Y0378625D01*
X0459587Y0378625D02*
X0455196Y0378625D01*
X0465033Y0380123D02*
X0487051Y0380123D01*
X0488194Y0381622D02*
X0466361Y0381622D01*
X0466982Y0383120D02*
X0489566Y0383120D01*
X0491152Y0384619D02*
X0467200Y0384619D01*
X0467200Y0386117D02*
X0492739Y0386117D01*
X0494398Y0387616D02*
X0466594Y0387616D01*
X0465595Y0389114D02*
X0496638Y0389114D01*
X0498878Y0390613D02*
X0463570Y0390613D01*
X0458230Y0390613D02*
X0435100Y0390613D01*
X0435100Y0389114D02*
X0450836Y0389114D01*
X0449338Y0387616D02*
X0446822Y0387616D01*
X0441978Y0387616D02*
X0435456Y0387616D01*
X0438192Y0386117D02*
X0439808Y0386117D01*
X0434988Y0392111D02*
X0501118Y0392111D01*
X0504190Y0393610D02*
X0434367Y0393610D01*
X0433850Y0395108D02*
X0507452Y0395108D01*
X0511617Y0396607D02*
X0433850Y0396607D01*
X0433850Y0398105D02*
X0516363Y0398105D01*
X0521929Y0399604D02*
X0433850Y0399604D01*
X0433850Y0401103D02*
X0526445Y0401103D01*
X0527659Y0402601D02*
X0433850Y0402601D01*
X0433850Y0404100D02*
X0528564Y0404100D01*
X0528618Y0405598D02*
X0490637Y0405598D01*
X0493560Y0407097D02*
X0528671Y0407097D01*
X0527550Y0408595D02*
X0511302Y0408595D01*
X0514378Y0410094D02*
X0525072Y0410094D01*
X0482243Y0405598D02*
X0433850Y0405598D01*
X0442921Y0407097D02*
X0479411Y0407097D01*
X0477742Y0408595D02*
X0445413Y0408595D01*
X0446774Y0410094D02*
X0476074Y0410094D01*
X0474405Y0411592D02*
X0460589Y0411592D01*
X0460550Y0411525D02*
X0460781Y0411925D01*
X0460900Y0412370D01*
X0460900Y0414625D01*
X0455125Y0414625D01*
X0455125Y0415675D01*
X0454075Y0415675D01*
X0454075Y0419450D01*
X0449820Y0419450D01*
X0449375Y0419331D01*
X0448975Y0419100D01*
X0448650Y0418775D01*
X0448419Y0418375D01*
X0448300Y0417930D01*
X0448300Y0415675D01*
X0454075Y0415675D01*
X0454075Y0414625D01*
X0455125Y0414625D01*
X0455125Y0410850D01*
X0459380Y0410850D01*
X0459825Y0410969D01*
X0460225Y0411200D01*
X0460550Y0411525D01*
X0460900Y0413091D02*
X0472736Y0413091D01*
X0471067Y0414589D02*
X0460900Y0414589D01*
X0460900Y0415675D02*
X0460900Y0417930D01*
X0460781Y0418375D01*
X0460550Y0418775D01*
X0460225Y0419100D01*
X0459825Y0419331D01*
X0459380Y0419450D01*
X0455125Y0419450D01*
X0455125Y0415675D01*
X0460900Y0415675D01*
X0460900Y0416088D02*
X0469399Y0416088D01*
X0467730Y0417586D02*
X0460900Y0417586D01*
X0460240Y0419085D02*
X0466061Y0419085D01*
X0464393Y0420583D02*
X0447400Y0420583D01*
X0447400Y0419085D02*
X0448960Y0419085D01*
X0448300Y0417586D02*
X0447400Y0417586D01*
X0447400Y0416088D02*
X0448300Y0416088D01*
X0448300Y0414625D02*
X0448300Y0412370D01*
X0448419Y0411925D01*
X0448650Y0411525D01*
X0448975Y0411200D01*
X0449375Y0410969D01*
X0449820Y0410850D01*
X0454075Y0410850D01*
X0454075Y0414625D01*
X0448300Y0414625D01*
X0448300Y0414589D02*
X0447400Y0414589D01*
X0447400Y0413091D02*
X0448300Y0413091D01*
X0448611Y0411592D02*
X0447395Y0411592D01*
X0454075Y0411592D02*
X0455125Y0411592D01*
X0455125Y0413091D02*
X0454075Y0413091D01*
X0454075Y0414589D02*
X0455125Y0414589D01*
X0455125Y0416088D02*
X0454075Y0416088D01*
X0454075Y0417586D02*
X0455125Y0417586D01*
X0455125Y0419085D02*
X0454075Y0419085D01*
X0449271Y0422082D02*
X0447400Y0422082D01*
X0442616Y0329174D02*
X0441999Y0329174D01*
X0441999Y0327675D02*
X0444516Y0327675D01*
X0424060Y0308195D02*
X0401124Y0308195D01*
X0398372Y0306696D02*
X0424994Y0306696D01*
X0426862Y0305198D02*
X0396944Y0305198D01*
X0394062Y0303699D02*
X0441095Y0303699D01*
X0445149Y0303699D02*
X0479212Y0303699D01*
X0479817Y0302201D02*
X0448862Y0302201D01*
X0450700Y0300702D02*
X0461283Y0300702D01*
X0459083Y0299204D02*
X0451966Y0299204D01*
X0452831Y0297705D02*
X0457649Y0297705D01*
X0457028Y0296207D02*
X0453351Y0296207D01*
X0453752Y0294708D02*
X0456407Y0294708D01*
X0456400Y0293210D02*
X0453778Y0293210D01*
X0453752Y0291711D02*
X0456400Y0291711D01*
X0456854Y0290213D02*
X0453350Y0290213D01*
X0452830Y0288714D02*
X0457475Y0288714D01*
X0458664Y0287216D02*
X0451965Y0287216D01*
X0471136Y0287216D02*
X0482207Y0287216D01*
X0482101Y0288714D02*
X0472325Y0288714D01*
X0472946Y0290213D02*
X0481996Y0290213D01*
X0481890Y0291711D02*
X0473400Y0291711D01*
X0473400Y0293210D02*
X0481784Y0293210D01*
X0481656Y0294708D02*
X0473393Y0294708D01*
X0472772Y0296207D02*
X0481442Y0296207D01*
X0481228Y0297705D02*
X0472151Y0297705D01*
X0470717Y0299204D02*
X0480828Y0299204D01*
X0480322Y0300702D02*
X0468517Y0300702D01*
X0434280Y0287216D02*
X0433050Y0287216D01*
X0432859Y0288714D02*
X0433414Y0288714D01*
X0432894Y0290213D02*
X0432238Y0290213D01*
X0432493Y0291711D02*
X0430948Y0291711D01*
X0391138Y0303699D02*
X0389872Y0303699D01*
X0197326Y0492869D02*
X0189322Y0487886D01*
X0188443Y0488250D01*
X0185757Y0488250D01*
X0183276Y0487222D01*
X0181378Y0485324D01*
X0181073Y0484588D01*
X0174800Y0482371D01*
X0174494Y0482498D01*
X0165506Y0482498D01*
X0165386Y0482448D01*
X0156161Y0482448D01*
X0155241Y0484669D01*
X0153469Y0486441D01*
X0151153Y0487400D01*
X0148647Y0487400D01*
X0147972Y0487121D01*
X0146453Y0487750D01*
X0143947Y0487750D01*
X0141631Y0486791D01*
X0139859Y0485019D01*
X0138900Y0482703D01*
X0138900Y0481015D01*
X0138424Y0480539D01*
X0137701Y0478793D01*
X0137701Y0470604D01*
X0138324Y0469100D01*
X0137701Y0467596D01*
X0137701Y0462024D01*
X0137641Y0462169D01*
X0135869Y0463941D01*
X0133553Y0464900D01*
X0131047Y0464900D01*
X0128731Y0463941D01*
X0126959Y0462169D01*
X0126135Y0460179D01*
X0124153Y0461000D01*
X0121647Y0461000D01*
X0119331Y0460041D01*
X0117559Y0458269D01*
X0116600Y0455953D01*
X0116600Y0453447D01*
X0117559Y0451131D01*
X0119331Y0449359D01*
X0121647Y0448400D01*
X0121775Y0448400D01*
X0125426Y0444749D01*
X0127356Y0443950D01*
X0136027Y0443950D01*
X0134300Y0441850D01*
X0134679Y0440989D01*
X0134653Y0441000D01*
X0132147Y0441000D01*
X0129831Y0440041D01*
X0128059Y0438269D01*
X0127100Y0435953D01*
X0127100Y0433447D01*
X0128059Y0431131D01*
X0129831Y0429359D01*
X0132147Y0428400D01*
X0134653Y0428400D01*
X0136135Y0429014D01*
X0136135Y0428290D01*
X0136858Y0426544D01*
X0137316Y0426087D01*
X0133644Y0422415D01*
X0131240Y0422415D01*
X0129494Y0421692D01*
X0128158Y0420356D01*
X0127435Y0418610D01*
X0127435Y0416206D01*
X0123479Y0412250D01*
X0122460Y0412250D01*
X0122369Y0412341D01*
X0120053Y0413300D01*
X0117547Y0413300D01*
X0115231Y0412341D01*
X0113459Y0410569D01*
X0112500Y0408253D01*
X0112500Y0405747D01*
X0113459Y0403431D01*
X0115231Y0401659D01*
X0117547Y0400700D01*
X0120053Y0400700D01*
X0122369Y0401659D01*
X0122460Y0401750D01*
X0126698Y0401750D01*
X0128627Y0402549D01*
X0130104Y0404026D01*
X0131284Y0405206D01*
X0131731Y0404759D01*
X0134047Y0403800D01*
X0136553Y0403800D01*
X0138869Y0404759D01*
X0140641Y0406531D01*
X0140676Y0406615D01*
X0142131Y0405159D01*
X0144447Y0404200D01*
X0144915Y0404200D01*
X0144600Y0403441D01*
X0144600Y0400059D01*
X0145850Y0397041D01*
X0145850Y0385650D01*
X0138756Y0385650D01*
X0136826Y0384851D01*
X0136054Y0384079D01*
X0134359Y0383377D01*
X0133023Y0382041D01*
X0132300Y0380295D01*
X0132300Y0368738D01*
X0129828Y0370165D01*
X0126713Y0371000D01*
X0115660Y0371000D01*
X0100135Y0384942D01*
X0097259Y0386402D01*
X0094103Y0387069D01*
X0090882Y0386896D01*
X0087816Y0385895D01*
X0085367Y0384300D01*
X0084400Y0384350D01*
X0073550Y0384550D01*
X0067550Y0383100D01*
X0062900Y0380400D01*
X0055300Y0381400D01*
X0051000Y0384000D01*
X0051150Y0388200D01*
X0053500Y0391100D01*
X0058500Y0392500D01*
X0065600Y0394400D01*
X0072550Y0396900D01*
X0078300Y0399600D01*
X0085550Y0404450D01*
X0090950Y0409550D01*
X0095300Y0415250D01*
X0098750Y0421000D01*
X0099600Y0423700D01*
X0103850Y0447950D01*
X0105200Y0456200D01*
X0105350Y0466350D01*
X0104750Y0471150D01*
X0104200Y0476000D01*
X0101950Y0484600D01*
X0099900Y0489650D01*
X0098550Y0493650D01*
X0098000Y0497500D01*
X0097400Y0506000D01*
X0109859Y0505980D01*
X0107594Y0503715D01*
X0106300Y0500591D01*
X0106300Y0497209D01*
X0107594Y0494085D01*
X0109985Y0491694D01*
X0113109Y0490400D01*
X0116491Y0490400D01*
X0119615Y0491694D01*
X0122006Y0494085D01*
X0123300Y0497209D01*
X0123300Y0500591D01*
X0122006Y0503715D01*
X0119756Y0505965D01*
X0128770Y0505950D01*
X0128051Y0505232D01*
X0126649Y0502802D01*
X0125922Y0500092D01*
X0125922Y0497286D01*
X0126649Y0494576D01*
X0128051Y0492146D01*
X0130035Y0490162D01*
X0132465Y0488760D01*
X0135175Y0488033D01*
X0137981Y0488033D01*
X0140691Y0488760D01*
X0143121Y0490162D01*
X0145104Y0492146D01*
X0146507Y0494576D01*
X0147233Y0497286D01*
X0147233Y0500092D01*
X0146507Y0502802D01*
X0145104Y0505232D01*
X0144411Y0505925D01*
X0146650Y0505922D01*
X0146650Y0503647D01*
X0147609Y0501331D01*
X0149381Y0499559D01*
X0151697Y0498600D01*
X0154203Y0498600D01*
X0156519Y0499559D01*
X0158291Y0501331D01*
X0159250Y0503647D01*
X0159250Y0505902D01*
X0191900Y0505850D01*
X0193317Y0505441D01*
X0192050Y0502381D01*
X0192050Y0499019D01*
X0193336Y0495913D01*
X0195713Y0493536D01*
X0197326Y0492869D01*
X0196752Y0492512D02*
X0145315Y0492512D01*
X0146181Y0494010D02*
X0195240Y0494010D01*
X0193741Y0495509D02*
X0146757Y0495509D01*
X0147159Y0497007D02*
X0192883Y0497007D01*
X0192263Y0498506D02*
X0147233Y0498506D01*
X0147233Y0500004D02*
X0148936Y0500004D01*
X0147538Y0501503D02*
X0146855Y0501503D01*
X0146917Y0503001D02*
X0146392Y0503001D01*
X0146650Y0504500D02*
X0145527Y0504500D01*
X0156964Y0500004D02*
X0192050Y0500004D01*
X0192050Y0501503D02*
X0158362Y0501503D01*
X0158983Y0503001D02*
X0192307Y0503001D01*
X0192928Y0504500D02*
X0159250Y0504500D01*
X0143971Y0491013D02*
X0194345Y0491013D01*
X0191939Y0489515D02*
X0141999Y0489515D01*
X0141358Y0486518D02*
X0101172Y0486518D01*
X0100563Y0488016D02*
X0185193Y0488016D01*
X0182572Y0486518D02*
X0153283Y0486518D01*
X0154890Y0485019D02*
X0181252Y0485019D01*
X0178053Y0483521D02*
X0155716Y0483521D01*
X0139860Y0485019D02*
X0101780Y0485019D01*
X0102232Y0483521D02*
X0139239Y0483521D01*
X0138900Y0482022D02*
X0102624Y0482022D01*
X0103016Y0480524D02*
X0138418Y0480524D01*
X0137797Y0479025D02*
X0103409Y0479025D01*
X0103801Y0477527D02*
X0137701Y0477527D01*
X0137701Y0476028D02*
X0104193Y0476028D01*
X0104367Y0474530D02*
X0137701Y0474530D01*
X0137701Y0473031D02*
X0104537Y0473031D01*
X0104707Y0471533D02*
X0137701Y0471533D01*
X0137937Y0470034D02*
X0104890Y0470034D01*
X0105077Y0468536D02*
X0138090Y0468536D01*
X0137701Y0467037D02*
X0105264Y0467037D01*
X0105338Y0465539D02*
X0137701Y0465539D01*
X0137701Y0464040D02*
X0135629Y0464040D01*
X0137268Y0462541D02*
X0137701Y0462541D01*
X0128971Y0464040D02*
X0105316Y0464040D01*
X0105294Y0462541D02*
X0127332Y0462541D01*
X0126493Y0461043D02*
X0105272Y0461043D01*
X0105249Y0459544D02*
X0118835Y0459544D01*
X0117467Y0458046D02*
X0105227Y0458046D01*
X0105205Y0456547D02*
X0116846Y0456547D01*
X0116600Y0455049D02*
X0105012Y0455049D01*
X0104766Y0453550D02*
X0116600Y0453550D01*
X0117178Y0452052D02*
X0104521Y0452052D01*
X0104276Y0450553D02*
X0118137Y0450553D01*
X0120066Y0449055D02*
X0104031Y0449055D01*
X0103781Y0447556D02*
X0122619Y0447556D01*
X0124118Y0446058D02*
X0103518Y0446058D01*
X0103256Y0444559D02*
X0125885Y0444559D01*
X0129887Y0440064D02*
X0102468Y0440064D01*
X0102730Y0441562D02*
X0134427Y0441562D01*
X0135296Y0443061D02*
X0102993Y0443061D01*
X0102205Y0438565D02*
X0128356Y0438565D01*
X0127561Y0437067D02*
X0101943Y0437067D01*
X0101680Y0435568D02*
X0127100Y0435568D01*
X0127100Y0434070D02*
X0101417Y0434070D01*
X0101155Y0432571D02*
X0127463Y0432571D01*
X0128118Y0431073D02*
X0100892Y0431073D01*
X0100630Y0429574D02*
X0129616Y0429574D01*
X0136224Y0428076D02*
X0100367Y0428076D01*
X0100104Y0426577D02*
X0136844Y0426577D01*
X0136308Y0425079D02*
X0099842Y0425079D01*
X0099562Y0423580D02*
X0134809Y0423580D01*
X0130435Y0422082D02*
X0099091Y0422082D01*
X0098500Y0420583D02*
X0128385Y0420583D01*
X0127632Y0419085D02*
X0097601Y0419085D01*
X0096702Y0417586D02*
X0127435Y0417586D01*
X0127317Y0416088D02*
X0095803Y0416088D01*
X0094796Y0414589D02*
X0125818Y0414589D01*
X0124320Y0413091D02*
X0120559Y0413091D01*
X0117041Y0413091D02*
X0093652Y0413091D01*
X0092508Y0411592D02*
X0114483Y0411592D01*
X0113262Y0410094D02*
X0091365Y0410094D01*
X0089939Y0408595D02*
X0112642Y0408595D01*
X0112500Y0407097D02*
X0088352Y0407097D01*
X0086766Y0405598D02*
X0112562Y0405598D01*
X0113182Y0404100D02*
X0085026Y0404100D01*
X0082786Y0402601D02*
X0114289Y0402601D01*
X0116575Y0401103D02*
X0080546Y0401103D01*
X0078306Y0399604D02*
X0144789Y0399604D01*
X0144600Y0401103D02*
X0121025Y0401103D01*
X0128679Y0402601D02*
X0144600Y0402601D01*
X0144873Y0404100D02*
X0137276Y0404100D01*
X0139708Y0405598D02*
X0141692Y0405598D01*
X0145409Y0398105D02*
X0075117Y0398105D01*
X0071735Y0396607D02*
X0145850Y0396607D01*
X0145850Y0395108D02*
X0067570Y0395108D01*
X0062648Y0393610D02*
X0145850Y0393610D01*
X0145850Y0392111D02*
X0057112Y0392111D01*
X0053105Y0390613D02*
X0145850Y0390613D01*
X0145850Y0389114D02*
X0051891Y0389114D01*
X0051129Y0387616D02*
X0145850Y0387616D01*
X0145850Y0386117D02*
X0097820Y0386117D01*
X0100495Y0384619D02*
X0136594Y0384619D01*
X0134103Y0383120D02*
X0102163Y0383120D01*
X0103832Y0381622D02*
X0132850Y0381622D01*
X0132300Y0380123D02*
X0131195Y0380123D01*
X0131281Y0379975D02*
X0131050Y0380375D01*
X0130725Y0380700D01*
X0130325Y0380931D01*
X0129880Y0381050D01*
X0125625Y0381050D01*
X0125625Y0377275D01*
X0124575Y0377275D01*
X0124575Y0381050D01*
X0120320Y0381050D01*
X0119875Y0380931D01*
X0119475Y0380700D01*
X0119150Y0380375D01*
X0118919Y0379975D01*
X0118800Y0379530D01*
X0118800Y0377275D01*
X0124575Y0377275D01*
X0124575Y0376225D01*
X0125625Y0376225D01*
X0125625Y0377275D01*
X0131400Y0377275D01*
X0131400Y0379530D01*
X0131281Y0379975D01*
X0131400Y0378625D02*
X0132300Y0378625D01*
X0132300Y0377126D02*
X0125625Y0377126D01*
X0125625Y0376225D02*
X0131400Y0376225D01*
X0131400Y0373970D01*
X0131281Y0373525D01*
X0131050Y0373125D01*
X0130725Y0372800D01*
X0130325Y0372569D01*
X0129880Y0372450D01*
X0125625Y0372450D01*
X0125625Y0376225D01*
X0125625Y0375628D02*
X0124575Y0375628D01*
X0124575Y0376225D02*
X0124575Y0372450D01*
X0120320Y0372450D01*
X0119875Y0372569D01*
X0119475Y0372800D01*
X0119150Y0373125D01*
X0118919Y0373525D01*
X0118800Y0373970D01*
X0118800Y0376225D01*
X0124575Y0376225D01*
X0124575Y0377126D02*
X0108838Y0377126D01*
X0110507Y0375628D02*
X0118800Y0375628D01*
X0118800Y0374129D02*
X0112175Y0374129D01*
X0113844Y0372631D02*
X0119768Y0372631D01*
X0115513Y0371132D02*
X0132300Y0371132D01*
X0132300Y0369634D02*
X0130749Y0369634D01*
X0130432Y0372631D02*
X0132300Y0372631D01*
X0132300Y0374129D02*
X0131400Y0374129D01*
X0131400Y0375628D02*
X0132300Y0375628D01*
X0125625Y0374129D02*
X0124575Y0374129D01*
X0124575Y0372631D02*
X0125625Y0372631D01*
X0125625Y0378625D02*
X0124575Y0378625D01*
X0124575Y0380123D02*
X0125625Y0380123D01*
X0119005Y0380123D02*
X0105501Y0380123D01*
X0107169Y0378625D02*
X0118800Y0378625D01*
X0130178Y0404100D02*
X0133324Y0404100D01*
X0088497Y0386117D02*
X0051076Y0386117D01*
X0051022Y0384619D02*
X0085857Y0384619D01*
X0067634Y0383120D02*
X0052455Y0383120D01*
X0054933Y0381622D02*
X0065004Y0381622D01*
X0099955Y0489515D02*
X0131157Y0489515D01*
X0129185Y0491013D02*
X0117971Y0491013D01*
X0120433Y0492512D02*
X0127840Y0492512D01*
X0126975Y0494010D02*
X0121931Y0494010D01*
X0122596Y0495509D02*
X0126399Y0495509D01*
X0125997Y0497007D02*
X0123216Y0497007D01*
X0123300Y0498506D02*
X0125922Y0498506D01*
X0125922Y0500004D02*
X0123300Y0500004D01*
X0122922Y0501503D02*
X0126301Y0501503D01*
X0126764Y0503001D02*
X0122302Y0503001D01*
X0121221Y0504500D02*
X0127629Y0504500D01*
X0111629Y0491013D02*
X0099440Y0491013D01*
X0098934Y0492512D02*
X0109167Y0492512D01*
X0107669Y0494010D02*
X0098499Y0494010D01*
X0098284Y0495509D02*
X0107004Y0495509D01*
X0106384Y0497007D02*
X0098070Y0497007D01*
X0097929Y0498506D02*
X0106300Y0498506D01*
X0106300Y0500004D02*
X0097823Y0500004D01*
X0097717Y0501503D02*
X0106678Y0501503D01*
X0107298Y0503001D02*
X0097612Y0503001D01*
X0097506Y0504500D02*
X0108379Y0504500D01*
X0098462Y0505998D02*
X0097400Y0505998D01*
X0189007Y0488016D02*
X0189532Y0488016D01*
D35*
X0170000Y0463402D02*
X0170000Y0462500D01*
X0165000Y0457500D01*
X0146000Y0456200D02*
X0146000Y0463502D01*
X0146000Y0456200D02*
X0145900Y0456100D01*
X0181398Y0376800D02*
X0183300Y0376800D01*
X0191400Y0370500D01*
X0189100Y0354500D02*
X0187500Y0352900D01*
X0181398Y0352900D01*
X0055800Y0345502D02*
X0055800Y0343100D01*
X0052000Y0339300D01*
X0036500Y0340200D02*
X0031800Y0344900D01*
X0031800Y0345502D01*
X0097000Y0175200D02*
X0103102Y0175200D01*
X0097000Y0175200D02*
X0095400Y0173600D01*
X0093100Y0157600D02*
X0101200Y0151300D01*
X0103102Y0151300D01*
X0119500Y0070600D02*
X0114500Y0065600D01*
X0114500Y0064698D01*
X0138500Y0064598D02*
X0138500Y0071900D01*
X0138600Y0072000D01*
X0228700Y0182598D02*
X0228700Y0185000D01*
X0232500Y0188800D01*
X0248000Y0187900D02*
X0252700Y0183200D01*
X0252700Y0182598D01*
X0326500Y0081102D02*
X0326500Y0080500D01*
X0331200Y0075800D01*
X0346700Y0074900D02*
X0350500Y0078700D01*
X0350500Y0081102D01*
X0440600Y0191700D02*
X0440700Y0191800D01*
X0440700Y0199102D01*
X0459700Y0193100D02*
X0464700Y0198100D01*
X0464700Y0199002D01*
X0476098Y0112400D02*
X0478000Y0112400D01*
X0486100Y0106100D01*
X0483800Y0090100D02*
X0482200Y0088500D01*
X0476098Y0088500D01*
X0433700Y0328398D02*
X0433700Y0335700D01*
X0433800Y0335800D01*
X0414700Y0334400D02*
X0409700Y0329400D01*
X0409700Y0328498D01*
X0398302Y0415100D02*
X0396400Y0415100D01*
X0388300Y0421400D01*
X0390600Y0437400D02*
X0392200Y0439000D01*
X0398302Y0439000D01*
X0523900Y0446398D02*
X0523900Y0448800D01*
X0527700Y0452600D01*
X0543200Y0451700D02*
X0547900Y0447000D01*
X0547900Y0446398D01*
D36*
X0422200Y0416300D02*
X0422200Y0402800D01*
X0157500Y0389100D02*
X0157500Y0375600D01*
X0127000Y0152500D02*
X0127000Y0139000D01*
X0452200Y0124700D02*
X0452200Y0111200D01*
M02*
