G75*
%MOIN*%
%OFA0B0*%
%FSLAX25Y25*%
%IPPOS*%
%LPD*%
%AMOC8*
5,1,8,0,0,1.08239X$1,22.5*
%
%ADD10R,0.02362X0.03346*%
%ADD11R,0.02756X0.03150*%
%ADD12R,0.03346X0.02362*%
%ADD13R,0.03150X0.02756*%
%ADD14R,0.08268X0.08268*%
%ADD15C,0.01378*%
%ADD16R,0.01000X0.05906*%
%ADD17R,0.05906X0.01000*%
%ADD18R,0.03543X0.02756*%
%ADD19R,0.04331X0.03937*%
%ADD20R,0.03937X0.04331*%
%ADD21R,0.04724X0.05512*%
%ADD22R,0.01575X0.05315*%
%ADD23C,0.05543*%
%ADD24C,0.07087*%
%ADD25C,0.04500*%
%ADD26R,0.04724X0.01378*%
%ADD27R,0.02756X0.03543*%
%ADD28C,0.04756*%
%ADD29C,0.07400*%
%ADD30C,0.01000*%
%ADD31C,0.03100*%
%ADD32C,0.01500*%
%ADD33C,0.02800*%
%ADD34C,0.03118*%
%ADD35C,0.04000*%
%ADD36C,0.07500*%
%ADD37C,0.03000*%
%ADD38C,0.02500*%
%ADD39C,0.05000*%
%ADD40C,0.06000*%
%ADD41C,0.11000*%
%ADD42C,0.07500*%
%ADD43C,0.01310*%
%ADD44C,0.02000*%
D10*
G36*
X0162664Y0095027D02*
X0162254Y0092702D01*
X0158960Y0093283D01*
X0159370Y0095608D01*
X0162664Y0095027D01*
G37*
G36*
X0163484Y0099680D02*
X0163074Y0097355D01*
X0159780Y0097936D01*
X0160190Y0100261D01*
X0163484Y0099680D01*
G37*
G36*
X0164305Y0104332D02*
X0163895Y0102007D01*
X0160601Y0102588D01*
X0161011Y0104913D01*
X0164305Y0104332D01*
G37*
G36*
X0165125Y0108985D02*
X0164715Y0106660D01*
X0161421Y0107241D01*
X0161831Y0109566D01*
X0165125Y0108985D01*
G37*
G36*
X0165945Y0113638D02*
X0165535Y0111313D01*
X0162241Y0111894D01*
X0162651Y0114219D01*
X0165945Y0113638D01*
G37*
G36*
X0166766Y0118290D02*
X0166356Y0115965D01*
X0163062Y0116546D01*
X0163472Y0118871D01*
X0166766Y0118290D01*
G37*
G36*
X0127665Y0199760D02*
X0130022Y0199884D01*
X0130197Y0196544D01*
X0127840Y0196420D01*
X0127665Y0199760D01*
G37*
G36*
X0122947Y0199513D02*
X0125304Y0199637D01*
X0125479Y0196297D01*
X0123122Y0196173D01*
X0122947Y0199513D01*
G37*
G36*
X0118229Y0199265D02*
X0120586Y0199389D01*
X0120761Y0196049D01*
X0118404Y0195925D01*
X0118229Y0199265D01*
G37*
G36*
X0113511Y0199018D02*
X0115868Y0199142D01*
X0116043Y0195802D01*
X0113686Y0195678D01*
X0113511Y0199018D01*
G37*
G36*
X0108793Y0198771D02*
X0111150Y0198895D01*
X0111325Y0195555D01*
X0108968Y0195431D01*
X0108793Y0198771D01*
G37*
G36*
X0104075Y0198524D02*
X0106432Y0198648D01*
X0106607Y0195308D01*
X0104250Y0195184D01*
X0104075Y0198524D01*
G37*
G36*
X0076484Y0176138D02*
X0078841Y0176262D01*
X0079016Y0172922D01*
X0076659Y0172798D01*
X0076484Y0176138D01*
G37*
G36*
X0071766Y0175891D02*
X0074123Y0176015D01*
X0074298Y0172675D01*
X0071941Y0172551D01*
X0071766Y0175891D01*
G37*
G36*
X0067048Y0175643D02*
X0069405Y0175767D01*
X0069580Y0172427D01*
X0067223Y0172303D01*
X0067048Y0175643D01*
G37*
G36*
X0062330Y0175396D02*
X0064687Y0175520D01*
X0064862Y0172180D01*
X0062505Y0172056D01*
X0062330Y0175396D01*
G37*
G36*
X0057612Y0175149D02*
X0059969Y0175273D01*
X0060144Y0171933D01*
X0057787Y0171809D01*
X0057612Y0175149D01*
G37*
G36*
X0052894Y0174901D02*
X0055251Y0175025D01*
X0055426Y0171685D01*
X0053069Y0171561D01*
X0052894Y0174901D01*
G37*
G36*
X0167067Y0202461D02*
X0169424Y0202585D01*
X0169599Y0199245D01*
X0167242Y0199121D01*
X0167067Y0202461D01*
G37*
G36*
X0171785Y0202708D02*
X0174142Y0202832D01*
X0174317Y0199492D01*
X0171960Y0199368D01*
X0171785Y0202708D01*
G37*
G36*
X0176503Y0202955D02*
X0178860Y0203079D01*
X0179035Y0199739D01*
X0176678Y0199615D01*
X0176503Y0202955D01*
G37*
G36*
X0181221Y0203202D02*
X0183578Y0203326D01*
X0183753Y0199986D01*
X0181396Y0199862D01*
X0181221Y0203202D01*
G37*
G36*
X0185939Y0203450D02*
X0188296Y0203574D01*
X0188471Y0200234D01*
X0186114Y0200110D01*
X0185939Y0203450D01*
G37*
G36*
X0190657Y0203697D02*
X0193014Y0203821D01*
X0193189Y0200481D01*
X0190832Y0200357D01*
X0190657Y0203697D01*
G37*
X0219024Y0205395D03*
X0223749Y0205395D03*
X0228473Y0205395D03*
X0233198Y0205395D03*
X0237922Y0205395D03*
X0242646Y0205395D03*
G36*
X0180425Y0329576D02*
X0178068Y0329452D01*
X0177893Y0332792D01*
X0180250Y0332916D01*
X0180425Y0329576D01*
G37*
G36*
X0175707Y0329329D02*
X0173350Y0329205D01*
X0173175Y0332545D01*
X0175532Y0332669D01*
X0175707Y0329329D01*
G37*
G36*
X0170989Y0329082D02*
X0168632Y0328958D01*
X0168457Y0332298D01*
X0170814Y0332422D01*
X0170989Y0329082D01*
G37*
G36*
X0166271Y0328835D02*
X0163914Y0328711D01*
X0163739Y0332051D01*
X0166096Y0332175D01*
X0166271Y0328835D01*
G37*
G36*
X0161553Y0328587D02*
X0159196Y0328463D01*
X0159021Y0331803D01*
X0161378Y0331927D01*
X0161553Y0328587D01*
G37*
G36*
X0156835Y0328340D02*
X0154478Y0328216D01*
X0154303Y0331556D01*
X0156660Y0331680D01*
X0156835Y0328340D01*
G37*
G36*
X0117433Y0325639D02*
X0115076Y0325515D01*
X0114901Y0328855D01*
X0117258Y0328979D01*
X0117433Y0325639D01*
G37*
G36*
X0112715Y0325392D02*
X0110358Y0325268D01*
X0110183Y0328608D01*
X0112540Y0328732D01*
X0112715Y0325392D01*
G37*
G36*
X0107997Y0325145D02*
X0105640Y0325021D01*
X0105465Y0328361D01*
X0107822Y0328485D01*
X0107997Y0325145D01*
G37*
G36*
X0103279Y0324898D02*
X0100922Y0324774D01*
X0100747Y0328114D01*
X0103104Y0328238D01*
X0103279Y0324898D01*
G37*
G36*
X0098561Y0324650D02*
X0096204Y0324526D01*
X0096029Y0327866D01*
X0098386Y0327990D01*
X0098561Y0324650D01*
G37*
G36*
X0093843Y0324403D02*
X0091486Y0324279D01*
X0091311Y0327619D01*
X0093668Y0327743D01*
X0093843Y0324403D01*
G37*
X0065476Y0322705D03*
X0060751Y0322705D03*
X0056027Y0322705D03*
X0051302Y0322705D03*
X0046578Y0322705D03*
X0041854Y0322705D03*
G36*
X0117734Y0409810D02*
X0118144Y0412135D01*
X0121438Y0411554D01*
X0121028Y0409229D01*
X0117734Y0409810D01*
G37*
G36*
X0118555Y0414462D02*
X0118965Y0416787D01*
X0122259Y0416206D01*
X0121849Y0413881D01*
X0118555Y0414462D01*
G37*
G36*
X0119375Y0419115D02*
X0119785Y0421440D01*
X0123079Y0420859D01*
X0122669Y0418534D01*
X0119375Y0419115D01*
G37*
G36*
X0120195Y0423768D02*
X0120605Y0426093D01*
X0123899Y0425512D01*
X0123489Y0423187D01*
X0120195Y0423768D01*
G37*
G36*
X0121016Y0428420D02*
X0121426Y0430745D01*
X0124720Y0430164D01*
X0124310Y0427839D01*
X0121016Y0428420D01*
G37*
G36*
X0121836Y0433073D02*
X0122246Y0435398D01*
X0125540Y0434817D01*
X0125130Y0432492D01*
X0121836Y0433073D01*
G37*
G36*
X0208016Y0351962D02*
X0205659Y0351838D01*
X0205484Y0355178D01*
X0207841Y0355302D01*
X0208016Y0351962D01*
G37*
G36*
X0212734Y0352209D02*
X0210377Y0352085D01*
X0210202Y0355425D01*
X0212559Y0355549D01*
X0212734Y0352209D01*
G37*
G36*
X0217452Y0352457D02*
X0215095Y0352333D01*
X0214920Y0355673D01*
X0217277Y0355797D01*
X0217452Y0352457D01*
G37*
G36*
X0222170Y0352704D02*
X0219813Y0352580D01*
X0219638Y0355920D01*
X0221995Y0356044D01*
X0222170Y0352704D01*
G37*
G36*
X0226888Y0352951D02*
X0224531Y0352827D01*
X0224356Y0356167D01*
X0226713Y0356291D01*
X0226888Y0352951D01*
G37*
G36*
X0231606Y0353199D02*
X0229249Y0353075D01*
X0229074Y0356415D01*
X0231431Y0356539D01*
X0231606Y0353199D01*
G37*
G36*
X0348094Y0438701D02*
X0350451Y0438825D01*
X0350626Y0435485D01*
X0348269Y0435361D01*
X0348094Y0438701D01*
G37*
G36*
X0352812Y0438949D02*
X0355169Y0439073D01*
X0355344Y0435733D01*
X0352987Y0435609D01*
X0352812Y0438949D01*
G37*
G36*
X0357530Y0439196D02*
X0359887Y0439320D01*
X0360062Y0435980D01*
X0357705Y0435856D01*
X0357530Y0439196D01*
G37*
G36*
X0362248Y0439443D02*
X0364605Y0439567D01*
X0364780Y0436227D01*
X0362423Y0436103D01*
X0362248Y0439443D01*
G37*
G36*
X0366966Y0439691D02*
X0369323Y0439815D01*
X0369498Y0436475D01*
X0367141Y0436351D01*
X0366966Y0439691D01*
G37*
G36*
X0371684Y0439938D02*
X0374041Y0440062D01*
X0374216Y0436722D01*
X0371859Y0436598D01*
X0371684Y0439938D01*
G37*
G36*
X0399275Y0462324D02*
X0401632Y0462448D01*
X0401807Y0459108D01*
X0399450Y0458984D01*
X0399275Y0462324D01*
G37*
G36*
X0403993Y0462571D02*
X0406350Y0462695D01*
X0406525Y0459355D01*
X0404168Y0459231D01*
X0403993Y0462571D01*
G37*
G36*
X0408711Y0462818D02*
X0411068Y0462942D01*
X0411243Y0459602D01*
X0408886Y0459478D01*
X0408711Y0462818D01*
G37*
G36*
X0413429Y0463065D02*
X0415786Y0463189D01*
X0415961Y0459849D01*
X0413604Y0459725D01*
X0413429Y0463065D01*
G37*
G36*
X0418147Y0463313D02*
X0420504Y0463437D01*
X0420679Y0460097D01*
X0418322Y0459973D01*
X0418147Y0463313D01*
G37*
G36*
X0422865Y0463560D02*
X0425222Y0463684D01*
X0425397Y0460344D01*
X0423040Y0460220D01*
X0422865Y0463560D01*
G37*
G36*
X0462267Y0466261D02*
X0464624Y0466385D01*
X0464799Y0463045D01*
X0462442Y0462921D01*
X0462267Y0466261D01*
G37*
G36*
X0466985Y0466508D02*
X0469342Y0466632D01*
X0469517Y0463292D01*
X0467160Y0463168D01*
X0466985Y0466508D01*
G37*
G36*
X0471703Y0466755D02*
X0474060Y0466879D01*
X0474235Y0463539D01*
X0471878Y0463415D01*
X0471703Y0466755D01*
G37*
G36*
X0476421Y0467002D02*
X0478778Y0467126D01*
X0478953Y0463786D01*
X0476596Y0463662D01*
X0476421Y0467002D01*
G37*
G36*
X0481139Y0467250D02*
X0483496Y0467374D01*
X0483671Y0464034D01*
X0481314Y0463910D01*
X0481139Y0467250D01*
G37*
G36*
X0485857Y0467497D02*
X0488214Y0467621D01*
X0488389Y0464281D01*
X0486032Y0464157D01*
X0485857Y0467497D01*
G37*
X0514224Y0469195D03*
X0518949Y0469195D03*
X0523673Y0469195D03*
X0528398Y0469195D03*
X0533122Y0469195D03*
X0537846Y0469195D03*
G36*
X0461966Y0382090D02*
X0461556Y0379765D01*
X0458262Y0380346D01*
X0458672Y0382671D01*
X0461966Y0382090D01*
G37*
G36*
X0461145Y0377438D02*
X0460735Y0375113D01*
X0457441Y0375694D01*
X0457851Y0378019D01*
X0461145Y0377438D01*
G37*
G36*
X0460325Y0372785D02*
X0459915Y0370460D01*
X0456621Y0371041D01*
X0457031Y0373366D01*
X0460325Y0372785D01*
G37*
G36*
X0459505Y0368132D02*
X0459095Y0365807D01*
X0455801Y0366388D01*
X0456211Y0368713D01*
X0459505Y0368132D01*
G37*
G36*
X0458684Y0363480D02*
X0458274Y0361155D01*
X0454980Y0361736D01*
X0455390Y0364061D01*
X0458684Y0363480D01*
G37*
G36*
X0457864Y0358827D02*
X0457454Y0356502D01*
X0454160Y0357083D01*
X0454570Y0359408D01*
X0457864Y0358827D01*
G37*
G36*
X0416536Y0168673D02*
X0416946Y0170998D01*
X0420240Y0170417D01*
X0419830Y0168092D01*
X0416536Y0168673D01*
G37*
G36*
X0415716Y0164020D02*
X0416126Y0166345D01*
X0419420Y0165764D01*
X0419010Y0163439D01*
X0415716Y0164020D01*
G37*
G36*
X0414895Y0159368D02*
X0415305Y0161693D01*
X0418599Y0161112D01*
X0418189Y0158787D01*
X0414895Y0159368D01*
G37*
G36*
X0414075Y0154715D02*
X0414485Y0157040D01*
X0417779Y0156459D01*
X0417369Y0154134D01*
X0414075Y0154715D01*
G37*
G36*
X0413255Y0150062D02*
X0413665Y0152387D01*
X0416959Y0151806D01*
X0416549Y0149481D01*
X0413255Y0150062D01*
G37*
G36*
X0412434Y0145410D02*
X0412844Y0147735D01*
X0416138Y0147154D01*
X0415728Y0144829D01*
X0412434Y0145410D01*
G37*
G36*
X0451535Y0063940D02*
X0449178Y0063816D01*
X0449003Y0067156D01*
X0451360Y0067280D01*
X0451535Y0063940D01*
G37*
G36*
X0456253Y0064187D02*
X0453896Y0064063D01*
X0453721Y0067403D01*
X0456078Y0067527D01*
X0456253Y0064187D01*
G37*
G36*
X0460971Y0064435D02*
X0458614Y0064311D01*
X0458439Y0067651D01*
X0460796Y0067775D01*
X0460971Y0064435D01*
G37*
G36*
X0465689Y0064682D02*
X0463332Y0064558D01*
X0463157Y0067898D01*
X0465514Y0068022D01*
X0465689Y0064682D01*
G37*
G36*
X0470407Y0064929D02*
X0468050Y0064805D01*
X0467875Y0068145D01*
X0470232Y0068269D01*
X0470407Y0064929D01*
G37*
G36*
X0475125Y0065176D02*
X0472768Y0065052D01*
X0472593Y0068392D01*
X0474950Y0068516D01*
X0475125Y0065176D01*
G37*
G36*
X0502716Y0087562D02*
X0500359Y0087438D01*
X0500184Y0090778D01*
X0502541Y0090902D01*
X0502716Y0087562D01*
G37*
G36*
X0507434Y0087809D02*
X0505077Y0087685D01*
X0504902Y0091025D01*
X0507259Y0091149D01*
X0507434Y0087809D01*
G37*
G36*
X0512152Y0088057D02*
X0509795Y0087933D01*
X0509620Y0091273D01*
X0511977Y0091397D01*
X0512152Y0088057D01*
G37*
G36*
X0516870Y0088304D02*
X0514513Y0088180D01*
X0514338Y0091520D01*
X0516695Y0091644D01*
X0516870Y0088304D01*
G37*
G36*
X0521588Y0088551D02*
X0519231Y0088427D01*
X0519056Y0091767D01*
X0521413Y0091891D01*
X0521588Y0088551D01*
G37*
G36*
X0526306Y0088799D02*
X0523949Y0088675D01*
X0523774Y0092015D01*
X0526131Y0092139D01*
X0526306Y0088799D01*
G37*
G36*
X0412133Y0061239D02*
X0409776Y0061115D01*
X0409601Y0064455D01*
X0411958Y0064579D01*
X0412133Y0061239D01*
G37*
G36*
X0407415Y0060992D02*
X0405058Y0060868D01*
X0404883Y0064208D01*
X0407240Y0064332D01*
X0407415Y0060992D01*
G37*
G36*
X0402697Y0060745D02*
X0400340Y0060621D01*
X0400165Y0063961D01*
X0402522Y0064085D01*
X0402697Y0060745D01*
G37*
G36*
X0397979Y0060498D02*
X0395622Y0060374D01*
X0395447Y0063714D01*
X0397804Y0063838D01*
X0397979Y0060498D01*
G37*
G36*
X0393261Y0060250D02*
X0390904Y0060126D01*
X0390729Y0063466D01*
X0393086Y0063590D01*
X0393261Y0060250D01*
G37*
G36*
X0388543Y0060003D02*
X0386186Y0059879D01*
X0386011Y0063219D01*
X0388368Y0063343D01*
X0388543Y0060003D01*
G37*
X0360176Y0058305D03*
X0355451Y0058305D03*
X0350727Y0058305D03*
X0346002Y0058305D03*
X0341278Y0058305D03*
X0336554Y0058305D03*
D11*
X0330845Y0040194D03*
X0365884Y0040194D03*
G36*
X0383982Y0041727D02*
X0381231Y0041583D01*
X0381066Y0044727D01*
X0383817Y0044871D01*
X0383982Y0041727D01*
G37*
G36*
X0418973Y0043561D02*
X0416222Y0043417D01*
X0416057Y0046561D01*
X0418808Y0046705D01*
X0418973Y0043561D01*
G37*
G36*
X0446974Y0045664D02*
X0444223Y0045520D01*
X0444058Y0048664D01*
X0446809Y0048808D01*
X0446974Y0045664D01*
G37*
G36*
X0481965Y0047498D02*
X0479214Y0047354D01*
X0479049Y0050498D01*
X0481800Y0050642D01*
X0481965Y0047498D01*
G37*
G36*
X0498155Y0069286D02*
X0495404Y0069142D01*
X0495239Y0072286D01*
X0497990Y0072430D01*
X0498155Y0069286D01*
G37*
G36*
X0533146Y0071120D02*
X0530395Y0070976D01*
X0530230Y0074120D01*
X0532981Y0074264D01*
X0533146Y0071120D01*
G37*
G36*
X0399754Y0177229D02*
X0400233Y0179942D01*
X0403334Y0179395D01*
X0402855Y0176682D01*
X0399754Y0177229D01*
G37*
G36*
X0393670Y0142722D02*
X0394149Y0145435D01*
X0397250Y0144888D01*
X0396771Y0142175D01*
X0393670Y0142722D01*
G37*
X0248355Y0223506D03*
X0213316Y0223506D03*
G36*
X0195218Y0221973D02*
X0197969Y0222117D01*
X0198134Y0218973D01*
X0195383Y0218829D01*
X0195218Y0221973D01*
G37*
G36*
X0160227Y0220139D02*
X0162978Y0220283D01*
X0163143Y0217139D01*
X0160392Y0216995D01*
X0160227Y0220139D01*
G37*
G36*
X0132226Y0218036D02*
X0134977Y0218180D01*
X0135142Y0215036D01*
X0132391Y0214892D01*
X0132226Y0218036D01*
G37*
G36*
X0097235Y0216202D02*
X0099986Y0216346D01*
X0100151Y0213202D01*
X0097400Y0213058D01*
X0097235Y0216202D01*
G37*
G36*
X0081045Y0194414D02*
X0083796Y0194558D01*
X0083961Y0191414D01*
X0081210Y0191270D01*
X0081045Y0194414D01*
G37*
G36*
X0046054Y0192580D02*
X0048805Y0192724D01*
X0048970Y0189580D01*
X0046219Y0189436D01*
X0046054Y0192580D01*
G37*
X0036145Y0304594D03*
X0071184Y0304594D03*
G36*
X0089282Y0306127D02*
X0086531Y0305983D01*
X0086366Y0309127D01*
X0089117Y0309271D01*
X0089282Y0306127D01*
G37*
G36*
X0124273Y0307961D02*
X0121522Y0307817D01*
X0121357Y0310961D01*
X0124108Y0311105D01*
X0124273Y0307961D01*
G37*
G36*
X0152274Y0310064D02*
X0149523Y0309920D01*
X0149358Y0313064D01*
X0152109Y0313208D01*
X0152274Y0310064D01*
G37*
G36*
X0187265Y0311898D02*
X0184514Y0311754D01*
X0184349Y0314898D01*
X0187100Y0315042D01*
X0187265Y0311898D01*
G37*
G36*
X0203455Y0333686D02*
X0200704Y0333542D01*
X0200539Y0336686D01*
X0203290Y0336830D01*
X0203455Y0333686D01*
G37*
G36*
X0238446Y0335520D02*
X0235695Y0335376D01*
X0235530Y0338520D01*
X0238281Y0338664D01*
X0238446Y0335520D01*
G37*
G36*
X0341254Y0456380D02*
X0344005Y0456524D01*
X0344170Y0453380D01*
X0341419Y0453236D01*
X0341254Y0456380D01*
G37*
G36*
X0376245Y0458214D02*
X0378996Y0458358D01*
X0379161Y0455214D01*
X0376410Y0455070D01*
X0376245Y0458214D01*
G37*
G36*
X0392435Y0480002D02*
X0395186Y0480146D01*
X0395351Y0477002D01*
X0392600Y0476858D01*
X0392435Y0480002D01*
G37*
G36*
X0427426Y0481836D02*
X0430177Y0481980D01*
X0430342Y0478836D01*
X0427591Y0478692D01*
X0427426Y0481836D01*
G37*
G36*
X0455427Y0483939D02*
X0458178Y0484083D01*
X0458343Y0480939D01*
X0455592Y0480795D01*
X0455427Y0483939D01*
G37*
G36*
X0490418Y0485773D02*
X0493169Y0485917D01*
X0493334Y0482773D01*
X0490583Y0482629D01*
X0490418Y0485773D01*
G37*
X0508516Y0487306D03*
X0543555Y0487306D03*
G36*
X0480730Y0384778D02*
X0480251Y0382065D01*
X0477150Y0382612D01*
X0477629Y0385325D01*
X0480730Y0384778D01*
G37*
G36*
X0474646Y0350271D02*
X0474167Y0347558D01*
X0471066Y0348105D01*
X0471545Y0350818D01*
X0474646Y0350271D01*
G37*
G36*
X0185530Y0120978D02*
X0185051Y0118265D01*
X0181950Y0118812D01*
X0182429Y0121525D01*
X0185530Y0120978D01*
G37*
G36*
X0179446Y0086471D02*
X0178967Y0083758D01*
X0175866Y0084305D01*
X0176345Y0087018D01*
X0179446Y0086471D01*
G37*
G36*
X0098970Y0407122D02*
X0099449Y0409835D01*
X0102550Y0409288D01*
X0102071Y0406575D01*
X0098970Y0407122D01*
G37*
G36*
X0105054Y0441629D02*
X0105533Y0444342D01*
X0108634Y0443795D01*
X0108155Y0441082D01*
X0105054Y0441629D01*
G37*
D12*
X0125712Y0459319D03*
X0125712Y0464043D03*
X0125712Y0468768D03*
X0125712Y0473492D03*
X0125712Y0478217D03*
X0125712Y0482941D03*
X0420412Y0218541D03*
X0420412Y0213817D03*
X0420412Y0209092D03*
X0420412Y0204368D03*
X0420412Y0199643D03*
X0420412Y0194919D03*
X0453988Y0308959D03*
X0453988Y0313683D03*
X0453988Y0318408D03*
X0453988Y0323132D03*
X0453988Y0327857D03*
X0453988Y0332581D03*
X0158788Y0068781D03*
X0158788Y0064057D03*
X0158788Y0059332D03*
X0158788Y0054608D03*
X0158788Y0049883D03*
X0158788Y0045159D03*
D13*
X0176898Y0039450D03*
X0176898Y0074490D03*
X0402302Y0189210D03*
X0402302Y0224250D03*
X0472098Y0303250D03*
X0472098Y0338290D03*
X0107602Y0453610D03*
X0107602Y0488650D03*
D14*
X0157995Y0469161D03*
X0244609Y0433728D03*
X0175712Y0364831D03*
X0043822Y0351051D03*
X0240678Y0177049D03*
X0338522Y0086651D03*
X0452695Y0204761D03*
X0539309Y0169328D03*
X0470412Y0100431D03*
X0421705Y0322739D03*
X0335091Y0358172D03*
X0403988Y0427069D03*
X0535878Y0440849D03*
X0126505Y0058939D03*
X0039891Y0094372D03*
X0108788Y0163269D03*
D15*
X0107509Y0157069D02*
X0107509Y0151557D01*
X0110068Y0151557D02*
X0110068Y0157069D01*
X0112627Y0157069D02*
X0112627Y0151557D01*
X0104950Y0151557D02*
X0104950Y0157069D01*
X0102587Y0159431D02*
X0097075Y0159431D01*
X0097075Y0161990D02*
X0102587Y0161990D01*
X0102587Y0164549D02*
X0097075Y0164549D01*
X0097075Y0167108D02*
X0102587Y0167108D01*
X0104950Y0169470D02*
X0104950Y0174982D01*
X0107509Y0174982D02*
X0107509Y0169470D01*
X0110068Y0169470D02*
X0110068Y0174982D01*
X0112627Y0174982D02*
X0112627Y0169470D01*
X0114989Y0167108D02*
X0120501Y0167108D01*
X0120501Y0164549D02*
X0114989Y0164549D01*
X0114989Y0161990D02*
X0120501Y0161990D01*
X0120501Y0159431D02*
X0114989Y0159431D01*
X0051603Y0098210D02*
X0046091Y0098210D01*
X0046091Y0095651D02*
X0051603Y0095651D01*
X0051603Y0093092D02*
X0046091Y0093092D01*
X0046091Y0090533D02*
X0051603Y0090533D01*
X0043729Y0088171D02*
X0043729Y0082659D01*
X0041170Y0082659D02*
X0041170Y0088171D01*
X0038611Y0088171D02*
X0038611Y0082659D01*
X0036052Y0082659D02*
X0036052Y0088171D01*
X0033690Y0090533D02*
X0028178Y0090533D01*
X0028178Y0093092D02*
X0033690Y0093092D01*
X0033690Y0095651D02*
X0028178Y0095651D01*
X0028178Y0098210D02*
X0033690Y0098210D01*
X0036052Y0100572D02*
X0036052Y0106084D01*
X0038611Y0106084D02*
X0038611Y0100572D01*
X0041170Y0100572D02*
X0041170Y0106084D01*
X0043729Y0106084D02*
X0043729Y0100572D01*
X0114792Y0062777D02*
X0120304Y0062777D01*
X0120304Y0060218D02*
X0114792Y0060218D01*
X0114792Y0057659D02*
X0120304Y0057659D01*
X0120304Y0055100D02*
X0114792Y0055100D01*
X0122666Y0052738D02*
X0122666Y0047226D01*
X0125225Y0047226D02*
X0125225Y0052738D01*
X0127784Y0052738D02*
X0127784Y0047226D01*
X0130343Y0047226D02*
X0130343Y0052738D01*
X0132705Y0055100D02*
X0138217Y0055100D01*
X0138217Y0057659D02*
X0132705Y0057659D01*
X0132705Y0060218D02*
X0138217Y0060218D01*
X0138217Y0062777D02*
X0132705Y0062777D01*
X0130343Y0065139D02*
X0130343Y0070651D01*
X0127784Y0070651D02*
X0127784Y0065139D01*
X0125225Y0065139D02*
X0125225Y0070651D01*
X0122666Y0070651D02*
X0122666Y0065139D01*
X0228965Y0173210D02*
X0234477Y0173210D01*
X0234477Y0175769D02*
X0228965Y0175769D01*
X0228965Y0178328D02*
X0234477Y0178328D01*
X0234477Y0180887D02*
X0228965Y0180887D01*
X0236839Y0183250D02*
X0236839Y0188762D01*
X0239398Y0188762D02*
X0239398Y0183250D01*
X0241957Y0183250D02*
X0241957Y0188762D01*
X0244517Y0188762D02*
X0244517Y0183250D01*
X0246879Y0180887D02*
X0252391Y0180887D01*
X0252391Y0178328D02*
X0246879Y0178328D01*
X0246879Y0175769D02*
X0252391Y0175769D01*
X0252391Y0173210D02*
X0246879Y0173210D01*
X0244517Y0170848D02*
X0244517Y0165336D01*
X0241957Y0165336D02*
X0241957Y0170848D01*
X0239398Y0170848D02*
X0239398Y0165336D01*
X0236839Y0165336D02*
X0236839Y0170848D01*
X0326809Y0090490D02*
X0332321Y0090490D01*
X0332321Y0087931D02*
X0326809Y0087931D01*
X0326809Y0085372D02*
X0332321Y0085372D01*
X0332321Y0082813D02*
X0326809Y0082813D01*
X0334683Y0080450D02*
X0334683Y0074938D01*
X0337243Y0074938D02*
X0337243Y0080450D01*
X0339802Y0080450D02*
X0339802Y0074938D01*
X0342361Y0074938D02*
X0342361Y0080450D01*
X0344723Y0082813D02*
X0350235Y0082813D01*
X0350235Y0085372D02*
X0344723Y0085372D01*
X0344723Y0087931D02*
X0350235Y0087931D01*
X0350235Y0090490D02*
X0344723Y0090490D01*
X0342361Y0092852D02*
X0342361Y0098364D01*
X0339802Y0098364D02*
X0339802Y0092852D01*
X0337243Y0092852D02*
X0337243Y0098364D01*
X0334683Y0098364D02*
X0334683Y0092852D01*
X0448857Y0193049D02*
X0448857Y0198561D01*
X0451416Y0198561D02*
X0451416Y0193049D01*
X0453975Y0193049D02*
X0453975Y0198561D01*
X0456534Y0198561D02*
X0456534Y0193049D01*
X0458896Y0200923D02*
X0464408Y0200923D01*
X0464408Y0203482D02*
X0458896Y0203482D01*
X0458896Y0206041D02*
X0464408Y0206041D01*
X0464408Y0208600D02*
X0458896Y0208600D01*
X0456534Y0210962D02*
X0456534Y0216474D01*
X0453975Y0216474D02*
X0453975Y0210962D01*
X0451416Y0210962D02*
X0451416Y0216474D01*
X0448857Y0216474D02*
X0448857Y0210962D01*
X0446495Y0208600D02*
X0440983Y0208600D01*
X0440983Y0206041D02*
X0446495Y0206041D01*
X0446495Y0203482D02*
X0440983Y0203482D01*
X0440983Y0200923D02*
X0446495Y0200923D01*
X0527597Y0173167D02*
X0533109Y0173167D01*
X0533109Y0170608D02*
X0527597Y0170608D01*
X0527597Y0168049D02*
X0533109Y0168049D01*
X0533109Y0165490D02*
X0527597Y0165490D01*
X0535471Y0163128D02*
X0535471Y0157616D01*
X0538030Y0157616D02*
X0538030Y0163128D01*
X0540589Y0163128D02*
X0540589Y0157616D01*
X0543148Y0157616D02*
X0543148Y0163128D01*
X0545510Y0165490D02*
X0551022Y0165490D01*
X0551022Y0168049D02*
X0545510Y0168049D01*
X0545510Y0170608D02*
X0551022Y0170608D01*
X0551022Y0173167D02*
X0545510Y0173167D01*
X0543148Y0175529D02*
X0543148Y0181041D01*
X0540589Y0181041D02*
X0540589Y0175529D01*
X0538030Y0175529D02*
X0538030Y0181041D01*
X0535471Y0181041D02*
X0535471Y0175529D01*
X0474250Y0112143D02*
X0474250Y0106631D01*
X0471691Y0106631D02*
X0471691Y0112143D01*
X0469132Y0112143D02*
X0469132Y0106631D01*
X0466573Y0106631D02*
X0466573Y0112143D01*
X0464211Y0104269D02*
X0458699Y0104269D01*
X0458699Y0101710D02*
X0464211Y0101710D01*
X0464211Y0099151D02*
X0458699Y0099151D01*
X0458699Y0096592D02*
X0464211Y0096592D01*
X0466573Y0094230D02*
X0466573Y0088718D01*
X0469132Y0088718D02*
X0469132Y0094230D01*
X0471691Y0094230D02*
X0471691Y0088718D01*
X0474250Y0088718D02*
X0474250Y0094230D01*
X0476613Y0096592D02*
X0482125Y0096592D01*
X0482125Y0099151D02*
X0476613Y0099151D01*
X0476613Y0101710D02*
X0482125Y0101710D01*
X0482125Y0104269D02*
X0476613Y0104269D01*
X0425543Y0311026D02*
X0425543Y0316538D01*
X0422984Y0316538D02*
X0422984Y0311026D01*
X0420425Y0311026D02*
X0420425Y0316538D01*
X0417866Y0316538D02*
X0417866Y0311026D01*
X0415504Y0318900D02*
X0409992Y0318900D01*
X0409992Y0321459D02*
X0415504Y0321459D01*
X0415504Y0324018D02*
X0409992Y0324018D01*
X0409992Y0326577D02*
X0415504Y0326577D01*
X0417866Y0328939D02*
X0417866Y0334451D01*
X0420425Y0334451D02*
X0420425Y0328939D01*
X0422984Y0328939D02*
X0422984Y0334451D01*
X0425543Y0334451D02*
X0425543Y0328939D01*
X0427905Y0326577D02*
X0433417Y0326577D01*
X0433417Y0324018D02*
X0427905Y0324018D01*
X0427905Y0321459D02*
X0433417Y0321459D01*
X0433417Y0318900D02*
X0427905Y0318900D01*
X0346803Y0354333D02*
X0341291Y0354333D01*
X0341291Y0356892D02*
X0346803Y0356892D01*
X0346803Y0359451D02*
X0341291Y0359451D01*
X0341291Y0362010D02*
X0346803Y0362010D01*
X0338929Y0364372D02*
X0338929Y0369884D01*
X0336370Y0369884D02*
X0336370Y0364372D01*
X0333811Y0364372D02*
X0333811Y0369884D01*
X0331252Y0369884D02*
X0331252Y0364372D01*
X0328890Y0362010D02*
X0323378Y0362010D01*
X0323378Y0359451D02*
X0328890Y0359451D01*
X0328890Y0356892D02*
X0323378Y0356892D01*
X0323378Y0354333D02*
X0328890Y0354333D01*
X0331252Y0351971D02*
X0331252Y0346459D01*
X0333811Y0346459D02*
X0333811Y0351971D01*
X0336370Y0351971D02*
X0336370Y0346459D01*
X0338929Y0346459D02*
X0338929Y0351971D01*
X0400150Y0415357D02*
X0400150Y0420869D01*
X0402709Y0420869D02*
X0402709Y0415357D01*
X0405268Y0415357D02*
X0405268Y0420869D01*
X0407827Y0420869D02*
X0407827Y0415357D01*
X0410189Y0423231D02*
X0415701Y0423231D01*
X0415701Y0425790D02*
X0410189Y0425790D01*
X0410189Y0428349D02*
X0415701Y0428349D01*
X0415701Y0430908D02*
X0410189Y0430908D01*
X0407827Y0433270D02*
X0407827Y0438782D01*
X0405268Y0438782D02*
X0405268Y0433270D01*
X0402709Y0433270D02*
X0402709Y0438782D01*
X0400150Y0438782D02*
X0400150Y0433270D01*
X0397787Y0430908D02*
X0392275Y0430908D01*
X0392275Y0428349D02*
X0397787Y0428349D01*
X0397787Y0425790D02*
X0392275Y0425790D01*
X0392275Y0423231D02*
X0397787Y0423231D01*
X0524165Y0437010D02*
X0529677Y0437010D01*
X0529677Y0439569D02*
X0524165Y0439569D01*
X0524165Y0442128D02*
X0529677Y0442128D01*
X0529677Y0444687D02*
X0524165Y0444687D01*
X0532039Y0447050D02*
X0532039Y0452562D01*
X0534598Y0452562D02*
X0534598Y0447050D01*
X0537157Y0447050D02*
X0537157Y0452562D01*
X0539717Y0452562D02*
X0539717Y0447050D01*
X0542079Y0444687D02*
X0547591Y0444687D01*
X0547591Y0442128D02*
X0542079Y0442128D01*
X0542079Y0439569D02*
X0547591Y0439569D01*
X0547591Y0437010D02*
X0542079Y0437010D01*
X0539717Y0434648D02*
X0539717Y0429136D01*
X0537157Y0429136D02*
X0537157Y0434648D01*
X0534598Y0434648D02*
X0534598Y0429136D01*
X0532039Y0429136D02*
X0532039Y0434648D01*
X0256322Y0435008D02*
X0250810Y0435008D01*
X0250810Y0437567D02*
X0256322Y0437567D01*
X0256322Y0432449D02*
X0250810Y0432449D01*
X0250810Y0429890D02*
X0256322Y0429890D01*
X0248448Y0427528D02*
X0248448Y0422016D01*
X0245889Y0422016D02*
X0245889Y0427528D01*
X0243330Y0427528D02*
X0243330Y0422016D01*
X0240771Y0422016D02*
X0240771Y0427528D01*
X0238409Y0429890D02*
X0232897Y0429890D01*
X0232897Y0432449D02*
X0238409Y0432449D01*
X0238409Y0435008D02*
X0232897Y0435008D01*
X0232897Y0437567D02*
X0238409Y0437567D01*
X0240771Y0439929D02*
X0240771Y0445441D01*
X0243330Y0445441D02*
X0243330Y0439929D01*
X0245889Y0439929D02*
X0245889Y0445441D01*
X0248448Y0445441D02*
X0248448Y0439929D01*
X0179550Y0376543D02*
X0179550Y0371031D01*
X0176991Y0371031D02*
X0176991Y0376543D01*
X0174432Y0376543D02*
X0174432Y0371031D01*
X0171873Y0371031D02*
X0171873Y0376543D01*
X0169511Y0368669D02*
X0163999Y0368669D01*
X0163999Y0366110D02*
X0169511Y0366110D01*
X0169511Y0363551D02*
X0163999Y0363551D01*
X0163999Y0360992D02*
X0169511Y0360992D01*
X0171873Y0358630D02*
X0171873Y0353118D01*
X0174432Y0353118D02*
X0174432Y0358630D01*
X0176991Y0358630D02*
X0176991Y0353118D01*
X0179550Y0353118D02*
X0179550Y0358630D01*
X0181913Y0360992D02*
X0187425Y0360992D01*
X0187425Y0363551D02*
X0181913Y0363551D01*
X0181913Y0366110D02*
X0187425Y0366110D01*
X0187425Y0368669D02*
X0181913Y0368669D01*
X0161834Y0457449D02*
X0161834Y0462961D01*
X0159275Y0462961D02*
X0159275Y0457449D01*
X0156716Y0457449D02*
X0156716Y0462961D01*
X0154157Y0462961D02*
X0154157Y0457449D01*
X0151795Y0465323D02*
X0146283Y0465323D01*
X0146283Y0467882D02*
X0151795Y0467882D01*
X0151795Y0470441D02*
X0146283Y0470441D01*
X0146283Y0473000D02*
X0151795Y0473000D01*
X0154157Y0475362D02*
X0154157Y0480874D01*
X0156716Y0480874D02*
X0156716Y0475362D01*
X0159275Y0475362D02*
X0159275Y0480874D01*
X0161834Y0480874D02*
X0161834Y0475362D01*
X0164196Y0473000D02*
X0169708Y0473000D01*
X0169708Y0470441D02*
X0164196Y0470441D01*
X0164196Y0467882D02*
X0169708Y0467882D01*
X0169708Y0465323D02*
X0164196Y0465323D01*
X0047661Y0362764D02*
X0047661Y0357252D01*
X0045102Y0357252D02*
X0045102Y0362764D01*
X0042543Y0362764D02*
X0042543Y0357252D01*
X0039983Y0357252D02*
X0039983Y0362764D01*
X0037621Y0354890D02*
X0032109Y0354890D01*
X0032109Y0352331D02*
X0037621Y0352331D01*
X0037621Y0349772D02*
X0032109Y0349772D01*
X0032109Y0347213D02*
X0037621Y0347213D01*
X0039983Y0344850D02*
X0039983Y0339338D01*
X0042543Y0339338D02*
X0042543Y0344850D01*
X0045102Y0344850D02*
X0045102Y0339338D01*
X0047661Y0339338D02*
X0047661Y0344850D01*
X0050023Y0347213D02*
X0055535Y0347213D01*
X0055535Y0349772D02*
X0050023Y0349772D01*
X0050023Y0352331D02*
X0055535Y0352331D01*
X0055535Y0354890D02*
X0050023Y0354890D01*
D16*
X0182602Y0413059D03*
X0184570Y0413059D03*
X0186539Y0413059D03*
X0188507Y0413059D03*
X0190476Y0413059D03*
X0192444Y0413059D03*
X0194413Y0413059D03*
X0196381Y0413059D03*
X0198350Y0413059D03*
X0200318Y0413059D03*
X0202287Y0413059D03*
X0204255Y0413059D03*
X0206224Y0413059D03*
X0208192Y0413059D03*
X0210161Y0413059D03*
X0212129Y0413059D03*
X0212129Y0458335D03*
X0210161Y0458335D03*
X0208192Y0458335D03*
X0206224Y0458335D03*
X0204255Y0458335D03*
X0202287Y0458335D03*
X0200318Y0458335D03*
X0198350Y0458335D03*
X0196381Y0458335D03*
X0194413Y0458335D03*
X0192444Y0458335D03*
X0190476Y0458335D03*
X0188507Y0458335D03*
X0186539Y0458335D03*
X0184570Y0458335D03*
X0182602Y0458335D03*
X0367571Y0378841D03*
X0369539Y0378841D03*
X0371508Y0378841D03*
X0373476Y0378841D03*
X0375445Y0378841D03*
X0377413Y0378841D03*
X0379382Y0378841D03*
X0381350Y0378841D03*
X0383319Y0378841D03*
X0385287Y0378841D03*
X0387256Y0378841D03*
X0389224Y0378841D03*
X0391193Y0378841D03*
X0393161Y0378841D03*
X0395130Y0378841D03*
X0397098Y0378841D03*
X0397098Y0333565D03*
X0395130Y0333565D03*
X0393161Y0333565D03*
X0391193Y0333565D03*
X0389224Y0333565D03*
X0387256Y0333565D03*
X0385287Y0333565D03*
X0383319Y0333565D03*
X0381350Y0333565D03*
X0379382Y0333565D03*
X0377413Y0333565D03*
X0375445Y0333565D03*
X0373476Y0333565D03*
X0371508Y0333565D03*
X0369539Y0333565D03*
X0367571Y0333565D03*
X0477302Y0193935D03*
X0479270Y0193935D03*
X0481239Y0193935D03*
X0483207Y0193935D03*
X0485176Y0193935D03*
X0487144Y0193935D03*
X0489113Y0193935D03*
X0491081Y0193935D03*
X0493050Y0193935D03*
X0495018Y0193935D03*
X0496987Y0193935D03*
X0498955Y0193935D03*
X0500924Y0193935D03*
X0502892Y0193935D03*
X0504861Y0193935D03*
X0506829Y0193935D03*
X0506829Y0148659D03*
X0504861Y0148659D03*
X0502892Y0148659D03*
X0500924Y0148659D03*
X0498955Y0148659D03*
X0496987Y0148659D03*
X0495018Y0148659D03*
X0493050Y0148659D03*
X0491081Y0148659D03*
X0489113Y0148659D03*
X0487144Y0148659D03*
X0485176Y0148659D03*
X0483207Y0148659D03*
X0481239Y0148659D03*
X0479270Y0148659D03*
X0477302Y0148659D03*
X0101898Y0115041D03*
X0099930Y0115041D03*
X0097961Y0115041D03*
X0095993Y0115041D03*
X0094024Y0115041D03*
X0092056Y0115041D03*
X0090087Y0115041D03*
X0088119Y0115041D03*
X0086150Y0115041D03*
X0084182Y0115041D03*
X0082213Y0115041D03*
X0080245Y0115041D03*
X0078276Y0115041D03*
X0076308Y0115041D03*
X0074339Y0115041D03*
X0072371Y0115041D03*
X0072371Y0069765D03*
X0074339Y0069765D03*
X0076308Y0069765D03*
X0078276Y0069765D03*
X0080245Y0069765D03*
X0082213Y0069765D03*
X0084182Y0069765D03*
X0086150Y0069765D03*
X0088119Y0069765D03*
X0090087Y0069765D03*
X0092056Y0069765D03*
X0094024Y0069765D03*
X0095993Y0069765D03*
X0097961Y0069765D03*
X0099930Y0069765D03*
X0101898Y0069765D03*
D17*
X0109772Y0077639D03*
X0109772Y0079608D03*
X0109772Y0081576D03*
X0109772Y0083545D03*
X0109772Y0085513D03*
X0109772Y0087482D03*
X0109772Y0089450D03*
X0109772Y0091419D03*
X0109772Y0093387D03*
X0109772Y0095356D03*
X0109772Y0097324D03*
X0109772Y0099293D03*
X0109772Y0101261D03*
X0109772Y0103230D03*
X0109772Y0105198D03*
X0109772Y0107167D03*
X0064497Y0107167D03*
X0064497Y0105198D03*
X0064497Y0103230D03*
X0064497Y0101261D03*
X0064497Y0099293D03*
X0064497Y0097324D03*
X0064497Y0095356D03*
X0064497Y0093387D03*
X0064497Y0091419D03*
X0064497Y0089450D03*
X0064497Y0087482D03*
X0064497Y0085513D03*
X0064497Y0083545D03*
X0064497Y0081576D03*
X0064497Y0079608D03*
X0064497Y0077639D03*
X0359697Y0341439D03*
X0359697Y0343408D03*
X0359697Y0345376D03*
X0359697Y0347345D03*
X0359697Y0349313D03*
X0359697Y0351282D03*
X0359697Y0353250D03*
X0359697Y0355219D03*
X0359697Y0357187D03*
X0359697Y0359156D03*
X0359697Y0361124D03*
X0359697Y0363093D03*
X0359697Y0365061D03*
X0359697Y0367030D03*
X0359697Y0368998D03*
X0359697Y0370967D03*
X0404972Y0370967D03*
X0404972Y0368998D03*
X0404972Y0367030D03*
X0404972Y0365061D03*
X0404972Y0363093D03*
X0404972Y0361124D03*
X0404972Y0359156D03*
X0404972Y0357187D03*
X0404972Y0355219D03*
X0404972Y0353250D03*
X0404972Y0351282D03*
X0404972Y0349313D03*
X0404972Y0347345D03*
X0404972Y0345376D03*
X0404972Y0343408D03*
X0404972Y0341439D03*
X0469428Y0186061D03*
X0469428Y0184092D03*
X0469428Y0182124D03*
X0469428Y0180155D03*
X0469428Y0178187D03*
X0469428Y0176218D03*
X0469428Y0174250D03*
X0469428Y0172281D03*
X0469428Y0170313D03*
X0469428Y0168344D03*
X0469428Y0166376D03*
X0469428Y0164407D03*
X0469428Y0162439D03*
X0469428Y0160470D03*
X0469428Y0158502D03*
X0469428Y0156533D03*
X0514703Y0156533D03*
X0514703Y0158502D03*
X0514703Y0160470D03*
X0514703Y0162439D03*
X0514703Y0164407D03*
X0514703Y0166376D03*
X0514703Y0168344D03*
X0514703Y0170313D03*
X0514703Y0172281D03*
X0514703Y0174250D03*
X0514703Y0176218D03*
X0514703Y0178187D03*
X0514703Y0180155D03*
X0514703Y0182124D03*
X0514703Y0184092D03*
X0514703Y0186061D03*
X0220003Y0420933D03*
X0220003Y0422902D03*
X0220003Y0424870D03*
X0220003Y0426839D03*
X0220003Y0428807D03*
X0220003Y0430776D03*
X0220003Y0432744D03*
X0220003Y0434713D03*
X0220003Y0436681D03*
X0220003Y0438650D03*
X0220003Y0440618D03*
X0220003Y0442587D03*
X0220003Y0444555D03*
X0220003Y0446524D03*
X0220003Y0448492D03*
X0220003Y0450461D03*
X0174728Y0450461D03*
X0174728Y0448492D03*
X0174728Y0446524D03*
X0174728Y0444555D03*
X0174728Y0442587D03*
X0174728Y0440618D03*
X0174728Y0438650D03*
X0174728Y0436681D03*
X0174728Y0434713D03*
X0174728Y0432744D03*
X0174728Y0430776D03*
X0174728Y0428807D03*
X0174728Y0426839D03*
X0174728Y0424870D03*
X0174728Y0422902D03*
X0174728Y0420933D03*
D18*
X0195397Y0398886D03*
X0195397Y0393768D03*
X0203271Y0393768D03*
X0203271Y0398886D03*
X0211145Y0398886D03*
X0211145Y0393768D03*
X0219019Y0393768D03*
X0219019Y0398886D03*
X0228861Y0386343D03*
X0228861Y0381225D03*
X0236935Y0389994D03*
X0236935Y0395112D03*
X0230830Y0417390D03*
X0230830Y0422508D03*
X0230830Y0444949D03*
X0230830Y0450067D03*
X0137600Y0359859D03*
X0137600Y0354741D03*
X0146900Y0173359D03*
X0146900Y0168241D03*
X0089103Y0134332D03*
X0089103Y0129214D03*
X0081229Y0129214D03*
X0081229Y0134332D03*
X0073355Y0134332D03*
X0073355Y0129214D03*
X0065481Y0129214D03*
X0065481Y0134332D03*
X0055639Y0141757D03*
X0055639Y0146875D03*
X0047565Y0138106D03*
X0047565Y0132988D03*
X0053670Y0110710D03*
X0053670Y0105592D03*
X0053670Y0083151D03*
X0053670Y0078033D03*
X0348870Y0341833D03*
X0348870Y0346951D03*
X0348870Y0369392D03*
X0348870Y0374510D03*
X0360681Y0393014D03*
X0360681Y0398132D03*
X0368555Y0398132D03*
X0368555Y0393014D03*
X0376429Y0393014D03*
X0376429Y0398132D03*
X0384303Y0398132D03*
X0384303Y0393014D03*
X0350839Y0405557D03*
X0350839Y0410675D03*
X0342765Y0401906D03*
X0342765Y0396788D03*
X0442100Y0432041D03*
X0442100Y0437159D03*
X0525530Y0185667D03*
X0525530Y0180549D03*
X0525530Y0158108D03*
X0525530Y0152990D03*
X0513719Y0134486D03*
X0513719Y0129368D03*
X0505845Y0129368D03*
X0505845Y0134486D03*
X0497971Y0134486D03*
X0497971Y0129368D03*
X0490097Y0129368D03*
X0490097Y0134486D03*
X0523561Y0121943D03*
X0523561Y0116825D03*
X0531635Y0125594D03*
X0531635Y0130712D03*
X0432300Y0095459D03*
X0432300Y0090341D03*
D19*
X0044654Y0028600D03*
X0051346Y0028600D03*
X0080450Y0042154D03*
X0088400Y0042154D03*
X0088400Y0048846D03*
X0080450Y0048846D03*
X0107247Y0033248D03*
X0113940Y0033248D03*
X0119133Y0033264D03*
X0125826Y0033264D03*
X0223989Y0153558D03*
X0230682Y0153558D03*
X0235864Y0153578D03*
X0242557Y0153578D03*
X0336643Y0110122D03*
X0343336Y0110122D03*
X0348518Y0110142D03*
X0355211Y0110142D03*
X0453374Y0230436D03*
X0460067Y0230436D03*
X0465260Y0230452D03*
X0471953Y0230452D03*
X0490800Y0221546D03*
X0490800Y0214854D03*
X0498750Y0214854D03*
X0498750Y0221546D03*
X0527854Y0235100D03*
X0534546Y0235100D03*
X0421026Y0297064D03*
X0414333Y0297064D03*
X0409140Y0297048D03*
X0402447Y0297048D03*
X0383600Y0305954D03*
X0383600Y0312646D03*
X0375650Y0312646D03*
X0375650Y0305954D03*
X0346546Y0292400D03*
X0339854Y0292400D03*
X0519189Y0417358D03*
X0525882Y0417358D03*
X0531064Y0417378D03*
X0537757Y0417378D03*
X0239846Y0499500D03*
X0233154Y0499500D03*
X0204050Y0485946D03*
X0196100Y0485946D03*
X0196100Y0479254D03*
X0204050Y0479254D03*
X0177253Y0494852D03*
X0170560Y0494852D03*
X0165367Y0494836D03*
X0158674Y0494836D03*
X0060511Y0374542D03*
X0053818Y0374542D03*
X0048636Y0374522D03*
X0041943Y0374522D03*
D20*
X0035348Y0373164D03*
X0035348Y0379857D03*
G36*
X0135695Y0415244D02*
X0132912Y0418027D01*
X0135973Y0421088D01*
X0138756Y0418305D01*
X0135695Y0415244D01*
G37*
G36*
X0140427Y0410512D02*
X0137644Y0413295D01*
X0140705Y0416356D01*
X0143488Y0413573D01*
X0140427Y0410512D01*
G37*
G36*
X0146812Y0414673D02*
X0149595Y0417456D01*
X0152656Y0414395D01*
X0149873Y0411612D01*
X0146812Y0414673D01*
G37*
G36*
X0151544Y0419405D02*
X0154327Y0422188D01*
X0157388Y0419127D01*
X0154605Y0416344D01*
X0151544Y0419405D01*
G37*
G36*
X0139393Y0421999D02*
X0141056Y0425565D01*
X0144979Y0423735D01*
X0143316Y0420169D01*
X0139393Y0421999D01*
G37*
G36*
X0142221Y0428065D02*
X0143884Y0431631D01*
X0147807Y0429801D01*
X0146144Y0426235D01*
X0142221Y0428065D01*
G37*
X0150121Y0382120D03*
X0150121Y0375427D03*
X0150131Y0370194D03*
X0150131Y0363501D03*
X0150107Y0358344D03*
X0150107Y0351651D03*
X0213704Y0384516D03*
X0220397Y0384516D03*
X0243800Y0485754D03*
X0243800Y0492446D03*
X0152090Y0493374D03*
X0152090Y0500067D03*
X0359303Y0407384D03*
X0365996Y0407384D03*
G36*
X0428156Y0372495D02*
X0425373Y0369712D01*
X0422312Y0372773D01*
X0425095Y0375556D01*
X0428156Y0372495D01*
G37*
G36*
X0432888Y0377227D02*
X0430105Y0374444D01*
X0427044Y0377505D01*
X0429827Y0380288D01*
X0432888Y0377227D01*
G37*
G36*
X0439273Y0381388D02*
X0442056Y0378605D01*
X0438995Y0375544D01*
X0436212Y0378327D01*
X0439273Y0381388D01*
G37*
G36*
X0444005Y0376656D02*
X0446788Y0373873D01*
X0443727Y0370812D01*
X0440944Y0373595D01*
X0444005Y0376656D01*
G37*
G36*
X0440307Y0369901D02*
X0438644Y0366335D01*
X0434721Y0368165D01*
X0436384Y0371731D01*
X0440307Y0369901D01*
G37*
G36*
X0437479Y0363835D02*
X0435816Y0360269D01*
X0431893Y0362099D01*
X0433556Y0365665D01*
X0437479Y0363835D01*
G37*
X0429579Y0409780D03*
X0429579Y0416473D03*
X0429569Y0421706D03*
X0429569Y0428399D03*
X0429593Y0433556D03*
X0429593Y0440249D03*
X0544352Y0418736D03*
X0544352Y0412043D03*
X0427610Y0298526D03*
X0427610Y0291833D03*
X0446790Y0235667D03*
X0446790Y0228974D03*
G36*
X0436921Y0163665D02*
X0438584Y0167231D01*
X0442507Y0165401D01*
X0440844Y0161835D01*
X0436921Y0163665D01*
G37*
G36*
X0434093Y0157599D02*
X0435756Y0161165D01*
X0439679Y0159335D01*
X0438016Y0155769D01*
X0434093Y0157599D01*
G37*
G36*
X0430395Y0150844D02*
X0427612Y0153627D01*
X0430673Y0156688D01*
X0433456Y0153905D01*
X0430395Y0150844D01*
G37*
G36*
X0435127Y0146112D02*
X0432344Y0148895D01*
X0435405Y0151956D01*
X0438188Y0149173D01*
X0435127Y0146112D01*
G37*
G36*
X0441512Y0150273D02*
X0444295Y0153056D01*
X0447356Y0149995D01*
X0444573Y0147212D01*
X0441512Y0150273D01*
G37*
G36*
X0446244Y0155005D02*
X0449027Y0157788D01*
X0452088Y0154727D01*
X0449305Y0151944D01*
X0446244Y0155005D01*
G37*
X0444821Y0117720D03*
X0444821Y0111027D03*
X0444831Y0105794D03*
X0444831Y0099101D03*
X0444807Y0093944D03*
X0444807Y0087251D03*
X0508404Y0120116D03*
X0515097Y0120116D03*
X0538500Y0221354D03*
X0538500Y0228046D03*
X0335900Y0299454D03*
X0335900Y0306146D03*
X0249152Y0154936D03*
X0249152Y0148243D03*
X0330048Y0115457D03*
X0330048Y0108764D03*
G36*
X0148805Y0112856D02*
X0151588Y0110073D01*
X0148527Y0107012D01*
X0145744Y0109795D01*
X0148805Y0112856D01*
G37*
G36*
X0144073Y0117588D02*
X0146856Y0114805D01*
X0143795Y0111744D01*
X0141012Y0114527D01*
X0144073Y0117588D01*
G37*
G36*
X0137688Y0113427D02*
X0134905Y0110644D01*
X0131844Y0113705D01*
X0134627Y0116488D01*
X0137688Y0113427D01*
G37*
G36*
X0132956Y0108695D02*
X0130173Y0105912D01*
X0127112Y0108973D01*
X0129895Y0111756D01*
X0132956Y0108695D01*
G37*
G36*
X0145107Y0106101D02*
X0143444Y0102535D01*
X0139521Y0104365D01*
X0141184Y0107931D01*
X0145107Y0106101D01*
G37*
G36*
X0142279Y0100035D02*
X0140616Y0096469D01*
X0136693Y0098299D01*
X0138356Y0101865D01*
X0142279Y0100035D01*
G37*
X0134379Y0145980D03*
X0134379Y0152673D03*
X0134369Y0157906D03*
X0134369Y0164599D03*
X0134393Y0169756D03*
X0134393Y0176449D03*
X0070796Y0143584D03*
X0064103Y0143584D03*
X0040700Y0042346D03*
X0040700Y0035654D03*
X0132410Y0034726D03*
X0132410Y0028033D03*
D21*
X0060757Y0056576D03*
X0054457Y0056576D03*
X0054457Y0065238D03*
X0060757Y0065238D03*
X0349657Y0320376D03*
X0355957Y0320376D03*
X0355957Y0329038D03*
X0349657Y0329038D03*
X0230043Y0462862D03*
X0223743Y0462862D03*
X0223743Y0471524D03*
X0230043Y0471524D03*
X0518443Y0207124D03*
X0524743Y0207124D03*
X0524743Y0198462D03*
X0518443Y0198462D03*
D22*
G36*
X0548803Y0113856D02*
X0548871Y0112284D01*
X0543563Y0112052D01*
X0543495Y0113624D01*
X0548803Y0113856D01*
G37*
G36*
X0548915Y0111300D02*
X0548983Y0109728D01*
X0543675Y0109496D01*
X0543607Y0111068D01*
X0548915Y0111300D01*
G37*
G36*
X0549026Y0108743D02*
X0549094Y0107171D01*
X0543786Y0106939D01*
X0543718Y0108511D01*
X0549026Y0108743D01*
G37*
G36*
X0549138Y0106186D02*
X0549206Y0104614D01*
X0543898Y0104382D01*
X0543830Y0105954D01*
X0549138Y0106186D01*
G37*
G36*
X0549249Y0103630D02*
X0549317Y0102058D01*
X0544009Y0101826D01*
X0543941Y0103398D01*
X0549249Y0103630D01*
G37*
G36*
X0254549Y0368030D02*
X0254617Y0366458D01*
X0249309Y0366226D01*
X0249241Y0367798D01*
X0254549Y0368030D01*
G37*
G36*
X0254438Y0370586D02*
X0254506Y0369014D01*
X0249198Y0368782D01*
X0249130Y0370354D01*
X0254438Y0370586D01*
G37*
G36*
X0254326Y0373143D02*
X0254394Y0371571D01*
X0249086Y0371339D01*
X0249018Y0372911D01*
X0254326Y0373143D01*
G37*
G36*
X0254215Y0375700D02*
X0254283Y0374128D01*
X0248975Y0373896D01*
X0248907Y0375468D01*
X0254215Y0375700D01*
G37*
G36*
X0254103Y0378256D02*
X0254171Y0376684D01*
X0248863Y0376452D01*
X0248795Y0378024D01*
X0254103Y0378256D01*
G37*
G36*
X0325597Y0413644D02*
X0325529Y0415216D01*
X0330837Y0415448D01*
X0330905Y0413876D01*
X0325597Y0413644D01*
G37*
G36*
X0325485Y0416200D02*
X0325417Y0417772D01*
X0330725Y0418004D01*
X0330793Y0416432D01*
X0325485Y0416200D01*
G37*
G36*
X0325374Y0418757D02*
X0325306Y0420329D01*
X0330614Y0420561D01*
X0330682Y0418989D01*
X0325374Y0418757D01*
G37*
G36*
X0325262Y0421314D02*
X0325194Y0422886D01*
X0330502Y0423118D01*
X0330570Y0421546D01*
X0325262Y0421314D01*
G37*
G36*
X0325151Y0423870D02*
X0325083Y0425442D01*
X0330391Y0425674D01*
X0330459Y0424102D01*
X0325151Y0423870D01*
G37*
G36*
X0029951Y0160070D02*
X0029883Y0161642D01*
X0035191Y0161874D01*
X0035259Y0160302D01*
X0029951Y0160070D01*
G37*
G36*
X0030062Y0157514D02*
X0029994Y0159086D01*
X0035302Y0159318D01*
X0035370Y0157746D01*
X0030062Y0157514D01*
G37*
G36*
X0030174Y0154957D02*
X0030106Y0156529D01*
X0035414Y0156761D01*
X0035482Y0155189D01*
X0030174Y0154957D01*
G37*
G36*
X0030285Y0152400D02*
X0030217Y0153972D01*
X0035525Y0154204D01*
X0035593Y0152632D01*
X0030285Y0152400D01*
G37*
G36*
X0030397Y0149844D02*
X0030329Y0151416D01*
X0035637Y0151648D01*
X0035705Y0150076D01*
X0030397Y0149844D01*
G37*
D23*
X0033223Y0146026D03*
X0032364Y0165692D03*
X0252135Y0362408D03*
X0251277Y0382074D03*
X0328423Y0409826D03*
X0327564Y0429492D03*
X0545977Y0117674D03*
X0546835Y0098008D03*
D24*
X0557627Y0094538D03*
X0556425Y0122071D03*
X0262927Y0358938D03*
X0261725Y0386471D03*
X0317975Y0405429D03*
X0316773Y0432962D03*
X0021573Y0169162D03*
X0022775Y0141629D03*
D25*
X0033900Y0116100D03*
X0041859Y0116100D03*
X0047565Y0151195D03*
X0047939Y0158532D03*
X0102800Y0143300D03*
X0109100Y0056700D03*
X0213000Y0178200D03*
X0366200Y0085500D03*
X0476400Y0120400D03*
X0531635Y0112505D03*
X0531261Y0105168D03*
X0537341Y0147600D03*
X0545300Y0147600D03*
X0470100Y0207000D03*
X0404300Y0320500D03*
X0337059Y0379900D03*
X0329100Y0379900D03*
X0342765Y0414995D03*
X0343139Y0422332D03*
X0398000Y0407100D03*
X0508200Y0442000D03*
X0250600Y0412000D03*
X0242641Y0412000D03*
X0236935Y0376905D03*
X0236561Y0369568D03*
X0181700Y0384800D03*
X0175400Y0471400D03*
X0071500Y0349900D03*
D26*
X0105417Y0350831D03*
X0105417Y0348272D03*
X0105417Y0353390D03*
X0105417Y0355949D03*
X0105417Y0358508D03*
X0105417Y0361067D03*
X0105417Y0363626D03*
X0105417Y0366185D03*
X0128448Y0366185D03*
X0128448Y0363626D03*
X0128448Y0361067D03*
X0128448Y0358508D03*
X0128448Y0355949D03*
X0128448Y0353390D03*
X0128448Y0350831D03*
X0128448Y0348272D03*
X0156052Y0179828D03*
X0156052Y0177269D03*
X0156052Y0174710D03*
X0156052Y0172151D03*
X0156052Y0169592D03*
X0156052Y0167033D03*
X0156052Y0164474D03*
X0156052Y0161915D03*
X0179083Y0161915D03*
X0179083Y0164474D03*
X0179083Y0167033D03*
X0179083Y0169592D03*
X0179083Y0172151D03*
X0179083Y0174710D03*
X0179083Y0177269D03*
X0179083Y0179828D03*
X0400117Y0101785D03*
X0400117Y0099226D03*
X0400117Y0096667D03*
X0400117Y0094108D03*
X0400117Y0091549D03*
X0400117Y0088990D03*
X0400117Y0086431D03*
X0400117Y0083872D03*
X0423148Y0083872D03*
X0423148Y0086431D03*
X0423148Y0088990D03*
X0423148Y0091549D03*
X0423148Y0094108D03*
X0423148Y0096667D03*
X0423148Y0099226D03*
X0423148Y0101785D03*
X0451252Y0425715D03*
X0451252Y0428274D03*
X0451252Y0430833D03*
X0451252Y0433392D03*
X0451252Y0435951D03*
X0451252Y0438510D03*
X0451252Y0441069D03*
X0451252Y0443628D03*
X0474283Y0443628D03*
X0474283Y0441069D03*
X0474283Y0438510D03*
X0474283Y0435951D03*
X0474283Y0433392D03*
X0474283Y0430833D03*
X0474283Y0428274D03*
X0474283Y0425715D03*
D27*
X0398673Y0391636D03*
X0393555Y0391636D03*
X0396208Y0325846D03*
X0401326Y0325846D03*
X0473074Y0201654D03*
X0478192Y0201654D03*
X0475727Y0135864D03*
X0480845Y0135864D03*
X0186145Y0400264D03*
X0181027Y0400264D03*
X0183492Y0466054D03*
X0178374Y0466054D03*
X0103473Y0127836D03*
X0098355Y0127836D03*
X0101008Y0062046D03*
X0106126Y0062046D03*
D28*
X0194400Y0166200D03*
X0194400Y0173700D03*
X0194400Y0181200D03*
X0201900Y0181200D03*
X0201900Y0173700D03*
X0201900Y0166200D03*
X0204400Y0214100D03*
X0204400Y0221600D03*
X0151100Y0221700D03*
X0143600Y0221700D03*
X0143600Y0214200D03*
X0143600Y0206700D03*
X0151100Y0206700D03*
X0151100Y0214200D03*
X0140900Y0306400D03*
X0140900Y0313900D03*
X0140900Y0321400D03*
X0133400Y0321400D03*
X0133400Y0313900D03*
X0133400Y0306400D03*
X0090100Y0346900D03*
X0082600Y0346900D03*
X0082600Y0354400D03*
X0082600Y0361900D03*
X0090100Y0361900D03*
X0090100Y0354400D03*
X0080100Y0314000D03*
X0080100Y0306500D03*
X0025500Y0304600D03*
X0025500Y0312100D03*
X0025500Y0319600D03*
X0025500Y0327100D03*
X0259000Y0223500D03*
X0259000Y0216000D03*
X0259000Y0208500D03*
X0259000Y0201000D03*
X0377300Y0097500D03*
X0377300Y0090000D03*
X0377300Y0082500D03*
X0384800Y0082500D03*
X0384800Y0090000D03*
X0384800Y0097500D03*
X0428100Y0057000D03*
X0428100Y0049500D03*
X0428100Y0042000D03*
X0435600Y0042000D03*
X0435600Y0049500D03*
X0435600Y0057000D03*
X0374800Y0049600D03*
X0374800Y0042100D03*
X0320200Y0040200D03*
X0320200Y0047700D03*
X0320200Y0055200D03*
X0320200Y0062700D03*
X0489600Y0430000D03*
X0497100Y0430000D03*
X0497100Y0437500D03*
X0497100Y0445000D03*
X0489600Y0445000D03*
X0489600Y0437500D03*
X0499600Y0477900D03*
X0499600Y0485400D03*
X0446300Y0485500D03*
X0446300Y0478000D03*
X0446300Y0470500D03*
X0438800Y0470500D03*
X0438800Y0478000D03*
X0438800Y0485500D03*
X0554200Y0487300D03*
X0554200Y0479800D03*
X0554200Y0472300D03*
X0554200Y0464800D03*
D29*
X0446300Y0452800D03*
X0436300Y0452800D03*
X0323225Y0344597D03*
X0323574Y0334603D03*
X0369200Y0291200D03*
X0379200Y0291200D03*
X0495200Y0236300D03*
X0505200Y0236300D03*
X0550825Y0192897D03*
X0551174Y0182903D03*
X0438100Y0074700D03*
X0428100Y0074700D03*
X0151100Y0189000D03*
X0141100Y0189000D03*
X0028025Y0080797D03*
X0028374Y0070803D03*
X0074000Y0027400D03*
X0084000Y0027400D03*
X0133400Y0339100D03*
X0143400Y0339100D03*
X0256474Y0447303D03*
X0256125Y0457297D03*
X0210500Y0500700D03*
X0200500Y0500700D03*
D30*
X0194700Y0500256D02*
X0178744Y0500256D01*
X0178650Y0500350D02*
X0174750Y0500350D01*
X0172900Y0498500D01*
X0172900Y0498320D01*
X0171044Y0498320D01*
X0171044Y0495336D01*
X0170076Y0495336D01*
X0170076Y0498320D01*
X0168197Y0498320D01*
X0167934Y0498250D01*
X0167730Y0498305D01*
X0165851Y0498305D01*
X0165851Y0495321D01*
X0164883Y0495321D01*
X0164883Y0498305D01*
X0163004Y0498305D01*
X0162761Y0498239D01*
X0161150Y0499850D01*
X0158950Y0499850D01*
X0157750Y0501050D01*
X0157750Y0505400D01*
X0159950Y0507600D01*
X0190500Y0507600D01*
X0194850Y0503250D01*
X0194850Y0502216D01*
X0194700Y0501854D01*
X0194700Y0499546D01*
X0194850Y0499184D01*
X0194850Y0496350D01*
X0190150Y0491650D01*
X0184200Y0491650D01*
X0181600Y0494250D01*
X0181600Y0497400D01*
X0181518Y0497482D01*
X0181518Y0497690D01*
X0180288Y0498920D01*
X0180080Y0498920D01*
X0178650Y0500350D01*
X0179743Y0499257D02*
X0194820Y0499257D01*
X0194850Y0498259D02*
X0180950Y0498259D01*
X0181600Y0497260D02*
X0194850Y0497260D01*
X0194762Y0496262D02*
X0181600Y0496262D01*
X0181600Y0495263D02*
X0193763Y0495263D01*
X0192765Y0494265D02*
X0181600Y0494265D01*
X0182584Y0493266D02*
X0191766Y0493266D01*
X0190768Y0492268D02*
X0183582Y0492268D01*
X0172900Y0491383D02*
X0172900Y0489350D01*
X0167750Y0484200D01*
X0163250Y0484200D01*
X0162618Y0483568D01*
X0162389Y0483663D01*
X0161279Y0483663D01*
X0160254Y0483238D01*
X0159970Y0482954D01*
X0159566Y0483062D01*
X0159566Y0488316D01*
X0162699Y0491449D01*
X0163004Y0491368D01*
X0164883Y0491368D01*
X0164883Y0494352D01*
X0165851Y0494352D01*
X0165851Y0491368D01*
X0167730Y0491368D01*
X0167993Y0491438D01*
X0168197Y0491383D01*
X0170076Y0491383D01*
X0170076Y0494368D01*
X0171044Y0494368D01*
X0171044Y0491383D01*
X0172900Y0491383D01*
X0172900Y0491269D02*
X0162519Y0491269D01*
X0161521Y0490271D02*
X0172900Y0490271D01*
X0172822Y0489272D02*
X0160522Y0489272D01*
X0159566Y0488274D02*
X0171824Y0488274D01*
X0170825Y0487275D02*
X0159566Y0487275D01*
X0159566Y0486277D02*
X0169827Y0486277D01*
X0168828Y0485278D02*
X0159566Y0485278D01*
X0159300Y0484475D02*
X0160375Y0484575D01*
X0159566Y0484279D02*
X0167829Y0484279D01*
X0160357Y0483281D02*
X0159566Y0483281D01*
X0149900Y0481100D02*
X0149900Y0473861D01*
X0149039Y0473000D01*
X0148880Y0470600D02*
X0144800Y0470600D01*
X0143300Y0472100D01*
X0143300Y0474000D01*
X0145200Y0475900D01*
X0145200Y0481450D01*
X0141300Y0482900D02*
X0138050Y0486150D01*
X0128900Y0486150D01*
X0123350Y0491700D01*
X0141300Y0482900D02*
X0141300Y0470600D01*
X0144018Y0467882D01*
X0149039Y0467882D01*
X0149039Y0470441D02*
X0148880Y0470600D01*
X0131600Y0471500D02*
X0131600Y0466700D01*
X0136200Y0458300D01*
X0136600Y0453100D01*
X0130600Y0454900D02*
X0128900Y0456600D01*
X0128900Y0461200D01*
X0126357Y0464543D01*
X0125712Y0464043D01*
X0129600Y0464900D02*
X0132300Y0458600D01*
X0129600Y0464900D02*
X0129600Y0468100D01*
X0128932Y0468768D01*
X0125712Y0468768D01*
X0125712Y0473492D02*
X0125820Y0473600D01*
X0129500Y0473600D01*
X0131600Y0471500D01*
X0125712Y0459319D02*
X0125300Y0458907D01*
X0125300Y0457100D01*
X0122900Y0454700D01*
X0133400Y0434700D02*
X0130800Y0427000D01*
X0122587Y0424100D01*
X0122047Y0424640D01*
X0121240Y0420000D02*
X0121227Y0419987D01*
X0121240Y0420000D02*
X0131200Y0422900D01*
X0137900Y0436700D01*
X0159900Y0442200D01*
X0164792Y0448592D01*
X0174728Y0448492D01*
X0174728Y0446524D02*
X0166124Y0446524D01*
X0160800Y0440200D01*
X0139500Y0434800D01*
X0132700Y0420900D01*
X0125400Y0418500D01*
X0124200Y0414900D01*
X0120841Y0414900D01*
X0120407Y0415334D01*
X0119586Y0410682D02*
X0119886Y0410186D01*
X0118800Y0407000D01*
X0116650Y0394850D02*
X0138332Y0395600D01*
X0148459Y0395600D01*
X0148700Y0386650D01*
X0147844Y0386385D01*
X0147283Y0386385D01*
X0147031Y0386134D01*
X0146600Y0386000D01*
X0146600Y0385702D01*
X0146053Y0385155D01*
X0146053Y0379084D01*
X0146832Y0378305D01*
X0146755Y0378171D01*
X0146653Y0377790D01*
X0146653Y0375911D01*
X0149637Y0375911D01*
X0149637Y0374942D01*
X0150606Y0374942D01*
X0150606Y0375911D01*
X0153590Y0375911D01*
X0153590Y0377790D01*
X0153488Y0378171D01*
X0153471Y0378200D01*
X0154100Y0378200D01*
X0161500Y0370800D01*
X0161500Y0369924D01*
X0161210Y0369224D01*
X0161210Y0368115D01*
X0161500Y0367415D01*
X0161500Y0367200D01*
X0161914Y0366786D01*
X0161811Y0366401D01*
X0159520Y0366401D01*
X0159073Y0366438D01*
X0158957Y0366401D01*
X0158834Y0366401D01*
X0158420Y0366230D01*
X0157993Y0366093D01*
X0157900Y0366014D01*
X0157787Y0365967D01*
X0157770Y0365950D01*
X0154950Y0365950D01*
X0153480Y0367420D01*
X0153497Y0367449D01*
X0153599Y0367831D01*
X0153599Y0369709D01*
X0150615Y0369709D01*
X0150615Y0370678D01*
X0149646Y0370678D01*
X0149646Y0369709D01*
X0146662Y0369709D01*
X0146662Y0368350D01*
X0142550Y0368350D01*
X0124700Y0370050D01*
X0116250Y0376650D01*
X0116650Y0394850D01*
X0116640Y0394413D02*
X0148491Y0394413D01*
X0148518Y0393415D02*
X0116618Y0393415D01*
X0116597Y0392416D02*
X0148545Y0392416D01*
X0148572Y0391418D02*
X0116575Y0391418D01*
X0116553Y0390419D02*
X0148599Y0390419D01*
X0148626Y0389421D02*
X0116531Y0389421D01*
X0116509Y0388422D02*
X0148652Y0388422D01*
X0148679Y0387424D02*
X0116487Y0387424D01*
X0116465Y0386425D02*
X0147974Y0386425D01*
X0146325Y0385427D02*
X0116443Y0385427D01*
X0116421Y0384428D02*
X0146053Y0384428D01*
X0146053Y0383430D02*
X0116399Y0383430D01*
X0116377Y0382431D02*
X0146053Y0382431D01*
X0146053Y0381433D02*
X0116355Y0381433D01*
X0116333Y0380434D02*
X0146053Y0380434D01*
X0146053Y0379436D02*
X0116311Y0379436D01*
X0116289Y0378437D02*
X0146700Y0378437D01*
X0146653Y0377439D02*
X0116267Y0377439D01*
X0116519Y0376440D02*
X0146653Y0376440D01*
X0146653Y0374942D02*
X0146653Y0373064D01*
X0146725Y0372793D01*
X0146662Y0372557D01*
X0146662Y0370678D01*
X0149646Y0370678D01*
X0149646Y0373859D01*
X0149637Y0373859D01*
X0149637Y0374942D01*
X0146653Y0374942D01*
X0146653Y0374443D02*
X0119075Y0374443D01*
X0117797Y0375442D02*
X0149637Y0375442D01*
X0150606Y0375442D02*
X0156858Y0375442D01*
X0155860Y0376440D02*
X0153590Y0376440D01*
X0153590Y0377439D02*
X0154861Y0377439D01*
X0153590Y0374942D02*
X0153590Y0373064D01*
X0153526Y0372828D01*
X0153599Y0372557D01*
X0153599Y0370678D01*
X0150615Y0370678D01*
X0150615Y0371761D01*
X0150606Y0371761D01*
X0150606Y0374942D01*
X0153590Y0374942D01*
X0153590Y0374443D02*
X0157857Y0374443D01*
X0158855Y0373445D02*
X0153590Y0373445D01*
X0153599Y0372446D02*
X0159854Y0372446D01*
X0160852Y0371448D02*
X0153599Y0371448D01*
X0153599Y0369451D02*
X0161304Y0369451D01*
X0161210Y0368452D02*
X0153599Y0368452D01*
X0153498Y0367454D02*
X0161484Y0367454D01*
X0161825Y0366455D02*
X0154445Y0366455D01*
X0150615Y0370449D02*
X0161500Y0370449D01*
X0164601Y0363601D02*
X0166705Y0363501D01*
X0166755Y0363551D01*
X0166806Y0363500D01*
X0173000Y0363500D02*
X0174331Y0364831D01*
X0175712Y0364831D01*
X0177450Y0363500D02*
X0173000Y0363500D01*
X0177450Y0363500D02*
X0177700Y0362850D01*
X0176991Y0355874D02*
X0176991Y0348691D01*
X0175800Y0347500D01*
X0147350Y0347500D01*
X0146300Y0348550D01*
X0146300Y0367200D01*
X0149294Y0370194D01*
X0150131Y0370194D01*
X0149287Y0369350D01*
X0149646Y0370449D02*
X0124189Y0370449D01*
X0122911Y0371448D02*
X0146662Y0371448D01*
X0146662Y0372446D02*
X0121632Y0372446D01*
X0120354Y0373445D02*
X0146653Y0373445D01*
X0149646Y0373445D02*
X0150606Y0373445D01*
X0150606Y0374443D02*
X0149637Y0374443D01*
X0149646Y0372446D02*
X0150606Y0372446D01*
X0150615Y0371448D02*
X0149646Y0371448D01*
X0146662Y0369451D02*
X0130993Y0369451D01*
X0128448Y0366185D02*
X0134915Y0366185D01*
X0137600Y0363500D01*
X0137600Y0359859D01*
X0137600Y0354741D02*
X0136249Y0353390D01*
X0128448Y0353390D01*
X0124500Y0353390D01*
X0124500Y0351000D01*
X0128448Y0351000D01*
X0128448Y0350831D01*
X0128448Y0348272D02*
X0124500Y0348272D01*
X0124500Y0348300D01*
X0123400Y0348300D01*
X0124500Y0348300D02*
X0124500Y0351000D01*
X0120400Y0352300D02*
X0120400Y0337000D01*
X0132000Y0325400D01*
X0136900Y0325400D01*
X0140900Y0321400D01*
X0137200Y0317600D02*
X0140900Y0313900D01*
X0137200Y0317600D02*
X0129400Y0317600D01*
X0128500Y0318500D01*
X0133400Y0321400D02*
X0118600Y0336200D01*
X0118600Y0353500D01*
X0123608Y0358508D01*
X0128448Y0358508D01*
X0128448Y0355949D02*
X0124049Y0355949D01*
X0120400Y0352300D01*
X0115000Y0346100D02*
X0113900Y0345000D01*
X0115000Y0346100D02*
X0115000Y0360200D01*
X0111574Y0363626D01*
X0105417Y0363626D01*
X0105417Y0361067D02*
X0098333Y0361067D01*
X0093400Y0366000D01*
X0086700Y0366000D01*
X0082600Y0361900D01*
X0086300Y0358100D02*
X0082600Y0354400D01*
X0086300Y0358100D02*
X0093100Y0358100D01*
X0097810Y0353390D01*
X0105417Y0353390D01*
X0105417Y0350831D02*
X0093669Y0350831D01*
X0090100Y0354400D01*
X0090100Y0361900D02*
X0093400Y0361900D01*
X0096792Y0358508D01*
X0105417Y0358508D01*
X0105417Y0366185D02*
X0112015Y0366185D01*
X0116800Y0361400D01*
X0116800Y0342200D01*
X0115700Y0341100D01*
X0111700Y0332500D02*
X0111449Y0331649D01*
X0111449Y0327000D01*
X0107400Y0327422D02*
X0107400Y0331900D01*
X0107400Y0327422D02*
X0106731Y0326753D01*
X0102200Y0326693D02*
X0102200Y0332300D01*
X0102200Y0326693D02*
X0102013Y0326506D01*
X0105417Y0348272D02*
X0110100Y0348272D01*
X0110500Y0348300D01*
X0119915Y0366185D02*
X0109000Y0377100D01*
X0097950Y0377100D01*
X0097850Y0377200D01*
X0119915Y0366185D02*
X0128448Y0366185D01*
X0141477Y0368452D02*
X0146662Y0368452D01*
X0165174Y0355874D02*
X0160200Y0350600D01*
X0164350Y0350750D02*
X0173300Y0350200D01*
X0174432Y0351332D01*
X0174432Y0355874D01*
X0171873Y0355874D02*
X0165174Y0355874D01*
X0179550Y0355874D02*
X0179600Y0355874D01*
X0179600Y0373787D02*
X0179550Y0373787D01*
X0176991Y0373787D02*
X0176991Y0378591D01*
X0181700Y0383300D01*
X0181700Y0384800D01*
X0175300Y0380200D02*
X0174400Y0379300D01*
X0174400Y0373820D01*
X0174432Y0373787D01*
X0174500Y0373855D01*
X0171873Y0373787D02*
X0171873Y0380473D01*
X0173300Y0381900D01*
X0173300Y0413400D01*
X0192100Y0432200D01*
X0195600Y0432200D01*
X0205400Y0442000D01*
X0210800Y0442000D01*
X0213355Y0444555D01*
X0220003Y0444555D01*
X0220003Y0442587D02*
X0214287Y0442587D01*
X0211600Y0439900D01*
X0206200Y0439900D01*
X0196700Y0430400D01*
X0193300Y0430400D01*
X0175300Y0412400D01*
X0175300Y0380200D01*
X0171800Y0373861D02*
X0171873Y0373787D01*
X0187500Y0394900D02*
X0187500Y0398909D01*
X0186145Y0400264D01*
X0188507Y0402626D01*
X0188507Y0413059D01*
X0186539Y0413059D02*
X0186539Y0407339D01*
X0185500Y0406300D01*
X0182543Y0409100D02*
X0178400Y0405000D01*
X0181027Y0401827D02*
X0181027Y0400264D01*
X0182543Y0409100D02*
X0182602Y0413059D01*
X0184570Y0413059D02*
X0184570Y0417470D01*
X0187500Y0418900D01*
X0190476Y0416681D02*
X0190476Y0413059D01*
X0192444Y0413059D02*
X0192444Y0416739D01*
X0192505Y0416700D01*
X0194413Y0418887D02*
X0196100Y0419800D01*
X0194413Y0418887D02*
X0194413Y0413059D01*
X0194413Y0408813D01*
X0194000Y0408400D01*
X0195450Y0408400D01*
X0196350Y0409300D01*
X0196381Y0409519D01*
X0196381Y0413059D01*
X0198350Y0413059D02*
X0198350Y0407750D01*
X0196100Y0405500D01*
X0193300Y0407700D02*
X0191700Y0407700D01*
X0193300Y0407700D02*
X0194000Y0408400D01*
X0199311Y0402800D02*
X0204200Y0402800D01*
X0206224Y0404824D01*
X0206224Y0413059D01*
X0208192Y0413059D02*
X0208192Y0417208D01*
X0208900Y0418500D01*
X0205700Y0421500D02*
X0204255Y0420055D01*
X0204255Y0413059D01*
X0202287Y0413059D02*
X0202287Y0419913D01*
X0200800Y0421400D01*
X0200318Y0413059D02*
X0200318Y0409182D01*
X0202300Y0407200D01*
X0199311Y0402800D02*
X0195397Y0398886D01*
X0199400Y0397700D02*
X0199400Y0389300D01*
X0200600Y0385700D02*
X0197900Y0385700D01*
X0195397Y0388203D01*
X0195397Y0393768D01*
X0199400Y0397700D02*
X0200586Y0398886D01*
X0203271Y0398886D01*
X0203271Y0393768D02*
X0203000Y0393497D01*
X0203000Y0388100D01*
X0200600Y0385700D01*
X0208400Y0384500D02*
X0211304Y0384596D01*
X0213704Y0384516D01*
X0215000Y0385812D01*
X0215000Y0398886D01*
X0211145Y0398886D01*
X0210161Y0399870D01*
X0210161Y0407450D01*
X0212129Y0409419D01*
X0212129Y0413059D01*
X0210161Y0413059D02*
X0210161Y0407450D01*
X0208192Y0402592D02*
X0207500Y0401900D01*
X0207500Y0393768D01*
X0211145Y0393768D01*
X0207500Y0393768D02*
X0203271Y0393768D01*
X0208192Y0402592D02*
X0208192Y0413059D01*
X0218200Y0405500D02*
X0219500Y0405500D01*
X0222500Y0402500D01*
X0222500Y0395700D01*
X0220568Y0393768D01*
X0219019Y0393768D01*
X0219019Y0398886D02*
X0215000Y0398886D01*
X0220003Y0420933D02*
X0225867Y0420933D01*
X0226000Y0420800D01*
X0230830Y0422508D02*
X0225938Y0427400D01*
X0225500Y0427400D01*
X0223793Y0428807D01*
X0220003Y0428807D01*
X0211993Y0428807D01*
X0208600Y0431800D01*
X0206900Y0433500D01*
X0204600Y0433500D01*
X0208500Y0437000D02*
X0210200Y0438000D01*
X0212600Y0438000D01*
X0215400Y0440600D01*
X0216500Y0440600D01*
X0216518Y0440618D01*
X0220003Y0440618D01*
X0220003Y0438650D02*
X0217150Y0438650D01*
X0215600Y0437800D01*
X0215300Y0435200D01*
X0211700Y0434800D01*
X0214156Y0431644D02*
X0214944Y0431644D01*
X0216000Y0432700D01*
X0220003Y0432744D01*
X0220003Y0430776D02*
X0224524Y0430776D01*
X0225800Y0429800D01*
X0235563Y0429800D01*
X0235653Y0429890D01*
X0235404Y0432200D02*
X0230900Y0432200D01*
X0229100Y0434900D01*
X0226419Y0436681D01*
X0220003Y0436681D01*
X0220003Y0434713D02*
X0223887Y0434713D01*
X0226400Y0433100D01*
X0231500Y0435200D02*
X0229400Y0438800D01*
X0231500Y0435200D02*
X0235545Y0435200D01*
X0235653Y0435008D01*
X0235653Y0432449D02*
X0235404Y0432200D01*
X0244609Y0433728D02*
X0244609Y0436009D01*
X0245900Y0437300D01*
X0245900Y0442674D02*
X0245889Y0442685D01*
X0245889Y0447661D01*
X0242300Y0451250D01*
X0242300Y0454700D01*
X0241350Y0455650D01*
X0234050Y0452450D01*
X0230813Y0450050D01*
X0230830Y0450067D01*
X0230813Y0450050D02*
X0227650Y0450050D01*
X0226092Y0448492D01*
X0220003Y0448492D01*
X0219977Y0446550D02*
X0220003Y0446524D01*
X0225876Y0446524D01*
X0227300Y0445100D01*
X0230679Y0445100D01*
X0230830Y0444949D01*
X0231231Y0445350D01*
X0233450Y0445350D01*
X0236200Y0448100D01*
X0236850Y0448100D01*
X0236300Y0442700D02*
X0236315Y0442685D01*
X0240771Y0442685D01*
X0248448Y0442685D02*
X0248448Y0450098D01*
X0249050Y0450700D01*
X0230813Y0450050D02*
X0230663Y0449900D01*
X0220003Y0450461D02*
X0218600Y0451100D01*
X0212600Y0458300D02*
X0212335Y0458335D01*
X0212129Y0458335D01*
X0210161Y0458335D02*
X0210161Y0452839D01*
X0210200Y0452800D01*
X0208192Y0458335D02*
X0208192Y0464692D01*
X0209900Y0466400D01*
X0209900Y0470300D01*
X0210546Y0474254D02*
X0215500Y0475100D01*
X0210546Y0474254D02*
X0204050Y0479254D01*
X0202200Y0477404D01*
X0202200Y0468000D01*
X0204255Y0465945D01*
X0204255Y0458335D01*
X0204255Y0453345D01*
X0203000Y0452700D01*
X0199700Y0448300D02*
X0206700Y0446400D01*
X0210150Y0446550D01*
X0210037Y0446463D01*
X0210037Y0446483D01*
X0202900Y0444300D02*
X0200900Y0442300D01*
X0186900Y0442300D01*
X0183600Y0442800D01*
X0182481Y0441381D01*
X0179681Y0436681D01*
X0174728Y0436681D01*
X0174728Y0434713D02*
X0180913Y0434713D01*
X0184000Y0437800D01*
X0178550Y0438650D02*
X0182700Y0445600D01*
X0182500Y0447000D01*
X0188600Y0448300D02*
X0199700Y0448300D01*
X0192850Y0452250D02*
X0191950Y0453150D01*
X0187450Y0453150D01*
X0186539Y0454061D01*
X0186539Y0458335D01*
X0188507Y0458335D02*
X0188507Y0468393D01*
X0181900Y0475000D01*
X0173400Y0475000D01*
X0171800Y0473400D01*
X0171800Y0471400D01*
X0170841Y0470441D01*
X0166952Y0470441D01*
X0166952Y0473000D02*
X0170752Y0476800D01*
X0183100Y0476800D01*
X0190476Y0469424D01*
X0190476Y0458335D01*
X0194413Y0458335D02*
X0194413Y0465087D01*
X0193400Y0466100D01*
X0196381Y0470581D02*
X0196381Y0458335D01*
X0202287Y0458335D02*
X0202287Y0463913D01*
X0199900Y0466300D01*
X0199900Y0464500D01*
X0199300Y0463900D01*
X0199900Y0466300D02*
X0199900Y0475454D01*
X0196100Y0479254D01*
X0196400Y0470600D02*
X0196381Y0470581D01*
X0205500Y0469400D02*
X0206224Y0468676D01*
X0206224Y0458335D01*
X0222820Y0470000D02*
X0223743Y0471524D01*
X0230043Y0462862D02*
X0228800Y0461620D01*
X0253566Y0429890D02*
X0253656Y0429800D01*
X0259400Y0429800D01*
X0243330Y0424772D02*
X0243330Y0412764D01*
X0242641Y0412000D01*
X0240771Y0424772D02*
X0240800Y0424801D01*
X0240800Y0425600D01*
X0236600Y0425600D01*
X0244800Y0395100D02*
X0244800Y0377100D01*
X0247100Y0374800D01*
X0251697Y0374900D01*
X0251595Y0374798D01*
X0225622Y0360978D02*
X0225622Y0354559D01*
X0220904Y0354312D02*
X0220900Y0354316D01*
X0220900Y0369100D01*
X0225500Y0361100D02*
X0225622Y0360978D01*
X0216100Y0359800D02*
X0215850Y0360050D01*
X0216100Y0354151D02*
X0216186Y0354065D01*
X0176600Y0335300D02*
X0174400Y0331596D01*
X0174441Y0330937D01*
X0169723Y0330690D02*
X0169923Y0333623D01*
X0170600Y0335600D01*
X0165000Y0335400D02*
X0164900Y0330548D01*
X0165005Y0330443D01*
X0148464Y0395412D02*
X0132896Y0395412D01*
X0135300Y0410100D02*
X0140134Y0413634D01*
X0140566Y0413434D01*
X0145700Y0410500D02*
X0149734Y0414234D01*
X0149734Y0414534D01*
X0154466Y0419266D02*
X0157100Y0421900D01*
X0157100Y0423300D01*
X0158700Y0424900D01*
X0158700Y0427700D01*
X0159700Y0428700D01*
X0159700Y0431400D01*
X0161500Y0433200D01*
X0163000Y0433200D01*
X0170418Y0440618D01*
X0174728Y0440618D01*
X0174728Y0438650D02*
X0178550Y0438650D01*
X0174728Y0442587D02*
X0169287Y0442587D01*
X0161700Y0435000D01*
X0160300Y0435000D01*
X0157900Y0432600D01*
X0157900Y0431500D01*
X0155333Y0428933D01*
X0145014Y0428933D01*
X0142600Y0433200D02*
X0136600Y0422600D01*
X0136600Y0418933D01*
X0135834Y0418166D01*
X0142186Y0422867D02*
X0142319Y0423000D01*
X0147700Y0423000D01*
X0152600Y0433200D02*
X0142600Y0433200D01*
X0152600Y0433200D02*
X0156200Y0436800D01*
X0160500Y0436800D01*
X0168255Y0444555D01*
X0174728Y0444555D01*
X0174739Y0450461D02*
X0178700Y0453600D01*
X0182602Y0454298D02*
X0188600Y0448300D01*
X0182602Y0454298D02*
X0182602Y0458335D01*
X0182585Y0458335D01*
X0177485Y0458335D01*
X0174050Y0454900D01*
X0174728Y0450461D02*
X0174739Y0450461D01*
X0182585Y0458335D02*
X0182585Y0458815D01*
X0178450Y0462950D01*
X0178450Y0465978D01*
X0178374Y0466054D01*
X0183492Y0466054D02*
X0183492Y0467158D01*
X0180900Y0470950D01*
X0175400Y0471400D02*
X0171882Y0467882D01*
X0166952Y0467882D01*
X0166952Y0465323D02*
X0167900Y0465323D01*
X0168500Y0464723D01*
X0183492Y0466054D02*
X0184570Y0464976D01*
X0184570Y0458335D01*
X0174728Y0432744D02*
X0165444Y0432744D01*
X0162600Y0429900D01*
X0162900Y0426100D02*
X0167576Y0430776D01*
X0174728Y0430776D01*
X0174728Y0428807D02*
X0168507Y0428807D01*
X0162000Y0422300D01*
X0160600Y0422300D01*
X0161600Y0426100D02*
X0162900Y0426100D01*
X0169439Y0426839D02*
X0146500Y0403900D01*
X0092600Y0403900D01*
X0064500Y0375800D01*
X0064500Y0368200D01*
X0063600Y0368200D01*
X0066400Y0366400D02*
X0064100Y0364100D01*
X0066400Y0366400D02*
X0066400Y0375000D01*
X0093400Y0402000D01*
X0147500Y0402000D01*
X0170400Y0424900D01*
X0174557Y0424900D01*
X0174728Y0424870D01*
X0174728Y0422902D02*
X0174726Y0422900D01*
X0171300Y0422900D01*
X0148500Y0400100D01*
X0094200Y0400100D01*
X0068300Y0374200D01*
X0068300Y0364000D01*
X0059190Y0354890D01*
X0052779Y0354890D01*
X0052779Y0352331D02*
X0059431Y0352331D01*
X0070200Y0363100D01*
X0070200Y0373400D01*
X0095000Y0398200D01*
X0149500Y0398200D01*
X0172233Y0420933D01*
X0174728Y0420933D01*
X0174728Y0426839D02*
X0169439Y0426839D01*
X0186500Y0413020D02*
X0186539Y0413059D01*
X0171044Y0492268D02*
X0170076Y0492268D01*
X0170076Y0493266D02*
X0171044Y0493266D01*
X0171044Y0494265D02*
X0170076Y0494265D01*
X0170076Y0494368D02*
X0166894Y0494368D01*
X0166894Y0494352D01*
X0165851Y0494352D01*
X0165851Y0495320D01*
X0169032Y0495320D01*
X0169032Y0495336D01*
X0170076Y0495336D01*
X0170076Y0494368D01*
X0170076Y0495263D02*
X0165851Y0495263D01*
X0165367Y0494836D02*
X0165367Y0498483D01*
X0160800Y0503050D01*
X0157750Y0503251D02*
X0194849Y0503251D01*
X0194850Y0502253D02*
X0157750Y0502253D01*
X0157750Y0501254D02*
X0194700Y0501254D01*
X0193850Y0504250D02*
X0157750Y0504250D01*
X0157750Y0505248D02*
X0192852Y0505248D01*
X0191853Y0506247D02*
X0158597Y0506247D01*
X0159595Y0507245D02*
X0190855Y0507245D01*
X0174656Y0500256D02*
X0158544Y0500256D01*
X0161743Y0499257D02*
X0173657Y0499257D01*
X0171044Y0498259D02*
X0170076Y0498259D01*
X0170076Y0497260D02*
X0171044Y0497260D01*
X0171044Y0496262D02*
X0170076Y0496262D01*
X0167966Y0498259D02*
X0167902Y0498259D01*
X0165851Y0498259D02*
X0164883Y0498259D01*
X0164883Y0497260D02*
X0165851Y0497260D01*
X0165851Y0496262D02*
X0164883Y0496262D01*
X0165367Y0494836D02*
X0166900Y0494836D01*
X0165851Y0494265D02*
X0164883Y0494265D01*
X0164883Y0493266D02*
X0165851Y0493266D01*
X0165851Y0492268D02*
X0164883Y0492268D01*
X0162832Y0498259D02*
X0162741Y0498259D01*
X0068950Y0393350D02*
X0066600Y0395000D01*
X0053050Y0391500D01*
X0046250Y0385750D01*
X0046250Y0377984D01*
X0046273Y0377991D01*
X0048152Y0377991D01*
X0048152Y0375006D01*
X0049120Y0375006D01*
X0049120Y0377991D01*
X0050999Y0377991D01*
X0051190Y0377939D01*
X0051455Y0378010D01*
X0053334Y0378010D01*
X0053334Y0375026D01*
X0054302Y0375026D01*
X0054302Y0378010D01*
X0055700Y0378010D01*
X0055700Y0379400D01*
X0063050Y0379950D01*
X0068000Y0384000D01*
X0070400Y0387100D01*
X0068950Y0393350D01*
X0068857Y0393415D02*
X0060464Y0393415D01*
X0064329Y0394413D02*
X0067435Y0394413D01*
X0069167Y0392416D02*
X0056598Y0392416D01*
X0052953Y0391418D02*
X0069398Y0391418D01*
X0069630Y0390419D02*
X0051772Y0390419D01*
X0050591Y0389421D02*
X0069862Y0389421D01*
X0070093Y0388422D02*
X0049410Y0388422D01*
X0048230Y0387424D02*
X0070325Y0387424D01*
X0069878Y0386425D02*
X0047049Y0386425D01*
X0046250Y0385427D02*
X0069105Y0385427D01*
X0068332Y0384428D02*
X0046250Y0384428D01*
X0046250Y0383430D02*
X0067303Y0383430D01*
X0066083Y0382431D02*
X0046250Y0382431D01*
X0046250Y0381433D02*
X0064862Y0381433D01*
X0063642Y0380434D02*
X0046250Y0380434D01*
X0046250Y0379436D02*
X0056178Y0379436D01*
X0055700Y0378437D02*
X0046250Y0378437D01*
X0048152Y0377439D02*
X0049120Y0377439D01*
X0049120Y0376440D02*
X0048152Y0376440D01*
X0048152Y0375442D02*
X0049120Y0375442D01*
X0049121Y0375006D02*
X0052302Y0375006D01*
X0052302Y0375026D01*
X0053334Y0375026D01*
X0053334Y0374057D01*
X0054302Y0374057D01*
X0054302Y0371073D01*
X0055700Y0371073D01*
X0055700Y0369300D01*
X0052150Y0365750D01*
X0047250Y0365750D01*
X0047015Y0365515D01*
X0046081Y0365128D01*
X0045796Y0364844D01*
X0045393Y0364952D01*
X0045393Y0365924D01*
X0044959Y0366972D01*
X0044800Y0367130D01*
X0044800Y0370300D01*
X0044954Y0370454D01*
X0044979Y0370454D01*
X0045758Y0371233D01*
X0045892Y0371156D01*
X0046273Y0371054D01*
X0048152Y0371054D01*
X0048152Y0374038D01*
X0049120Y0374038D01*
X0049120Y0371054D01*
X0050999Y0371054D01*
X0051264Y0371125D01*
X0051455Y0371073D01*
X0053334Y0371073D01*
X0053334Y0374057D01*
X0050153Y0374057D01*
X0050153Y0374038D01*
X0049121Y0374038D01*
X0049121Y0375006D01*
X0049121Y0374443D02*
X0053334Y0374443D01*
X0053334Y0373445D02*
X0054302Y0373445D01*
X0054302Y0372446D02*
X0053334Y0372446D01*
X0053334Y0371448D02*
X0054302Y0371448D01*
X0055700Y0370449D02*
X0044949Y0370449D01*
X0044800Y0369451D02*
X0055700Y0369451D01*
X0054852Y0368452D02*
X0044800Y0368452D01*
X0044800Y0367454D02*
X0053854Y0367454D01*
X0052855Y0366455D02*
X0045173Y0366455D01*
X0045393Y0365457D02*
X0046874Y0365457D01*
X0048152Y0371448D02*
X0049120Y0371448D01*
X0049120Y0372446D02*
X0048152Y0372446D01*
X0048152Y0373445D02*
X0049120Y0373445D01*
X0051000Y0376900D02*
X0044100Y0383800D01*
X0031400Y0383800D01*
X0029750Y0382150D01*
X0029750Y0376200D01*
X0023150Y0370000D01*
X0022050Y0355050D01*
X0027328Y0349772D01*
X0034865Y0349772D01*
X0034865Y0352331D02*
X0028969Y0352331D01*
X0024600Y0356700D01*
X0025850Y0367100D01*
X0028100Y0369550D01*
X0029200Y0364400D02*
X0034865Y0358735D01*
X0034865Y0354890D01*
X0043822Y0351051D02*
X0043822Y0350978D01*
X0045800Y0349050D01*
X0052779Y0349772D02*
X0071372Y0349772D01*
X0071500Y0349900D01*
X0053009Y0352100D02*
X0052779Y0352331D01*
X0045200Y0342094D02*
X0045102Y0342094D01*
X0042543Y0342094D02*
X0042500Y0342094D01*
X0034865Y0347213D02*
X0032500Y0345913D01*
X0051500Y0327600D02*
X0051500Y0322902D01*
X0051302Y0322705D01*
X0056027Y0322705D02*
X0056027Y0326027D01*
X0056000Y0328700D01*
X0061046Y0328500D02*
X0060751Y0322705D01*
X0054302Y0375442D02*
X0053334Y0375442D01*
X0053334Y0376440D02*
X0054302Y0376440D01*
X0054302Y0377439D02*
X0053334Y0377439D01*
X0143600Y0214200D02*
X0147300Y0210500D01*
X0155100Y0210500D01*
X0156000Y0209600D01*
X0151100Y0206700D02*
X0165900Y0191900D01*
X0165900Y0174600D01*
X0160892Y0169592D01*
X0156052Y0169592D01*
X0156052Y0172151D02*
X0160451Y0172151D01*
X0164100Y0175800D01*
X0164100Y0191100D01*
X0152500Y0202700D01*
X0147600Y0202700D01*
X0143600Y0206700D01*
X0167700Y0185900D02*
X0168800Y0187000D01*
X0167700Y0185900D02*
X0167700Y0166700D01*
X0172485Y0161915D01*
X0179083Y0161915D01*
X0179083Y0164474D02*
X0172926Y0164474D01*
X0169500Y0167900D01*
X0169500Y0182000D01*
X0170600Y0183100D01*
X0174000Y0179800D02*
X0174400Y0179828D01*
X0179083Y0179828D01*
X0179083Y0177269D02*
X0190831Y0177269D01*
X0194400Y0173700D01*
X0191400Y0170000D02*
X0198200Y0170000D01*
X0201900Y0173700D01*
X0201900Y0166200D02*
X0197800Y0162100D01*
X0191100Y0162100D01*
X0186167Y0167033D01*
X0179083Y0167033D01*
X0179083Y0169592D02*
X0187708Y0169592D01*
X0191100Y0166200D01*
X0194400Y0166200D01*
X0191400Y0170000D02*
X0186690Y0174710D01*
X0179083Y0174710D01*
X0161100Y0179800D02*
X0160000Y0179800D01*
X0160000Y0179828D01*
X0156052Y0179828D01*
X0156052Y0177269D02*
X0156052Y0177100D01*
X0160000Y0177100D01*
X0160000Y0174710D01*
X0156052Y0174710D01*
X0148251Y0174710D01*
X0146900Y0173359D01*
X0146900Y0168241D02*
X0146900Y0164600D01*
X0149585Y0161915D01*
X0156052Y0161915D01*
X0164585Y0161915D01*
X0175500Y0151000D01*
X0186550Y0151000D01*
X0186650Y0150900D01*
X0168250Y0151450D02*
X0167850Y0133250D01*
X0146168Y0132500D01*
X0136041Y0132500D01*
X0135800Y0141450D01*
X0136656Y0141715D01*
X0137217Y0141715D01*
X0137469Y0141966D01*
X0137900Y0142100D01*
X0137900Y0142398D01*
X0138447Y0142945D01*
X0138447Y0149016D01*
X0137668Y0149795D01*
X0137745Y0149929D01*
X0137847Y0150310D01*
X0137847Y0152189D01*
X0134863Y0152189D01*
X0134863Y0153157D01*
X0137847Y0153157D01*
X0137847Y0155036D01*
X0137775Y0155307D01*
X0137838Y0155543D01*
X0137838Y0157422D01*
X0134854Y0157422D01*
X0134854Y0158391D01*
X0137838Y0158391D01*
X0137838Y0159750D01*
X0141950Y0159750D01*
X0159800Y0158050D01*
X0168250Y0151450D01*
X0167834Y0151775D02*
X0137847Y0151775D01*
X0137847Y0150777D02*
X0168235Y0150777D01*
X0168213Y0149778D02*
X0137685Y0149778D01*
X0138447Y0148780D02*
X0168191Y0148780D01*
X0168169Y0147781D02*
X0138447Y0147781D01*
X0138447Y0146783D02*
X0168147Y0146783D01*
X0168125Y0145784D02*
X0138447Y0145784D01*
X0138447Y0144786D02*
X0168104Y0144786D01*
X0168082Y0143787D02*
X0138447Y0143787D01*
X0138291Y0142789D02*
X0168060Y0142789D01*
X0168038Y0141790D02*
X0137292Y0141790D01*
X0135818Y0140792D02*
X0168016Y0140792D01*
X0167994Y0139793D02*
X0135845Y0139793D01*
X0135871Y0138795D02*
X0167972Y0138795D01*
X0167950Y0137796D02*
X0135898Y0137796D01*
X0135925Y0136798D02*
X0167928Y0136798D01*
X0167906Y0135799D02*
X0135952Y0135799D01*
X0135979Y0134801D02*
X0167884Y0134801D01*
X0167862Y0133802D02*
X0136006Y0133802D01*
X0136032Y0132803D02*
X0154942Y0132803D01*
X0149200Y0118000D02*
X0144366Y0114466D01*
X0143934Y0114666D01*
X0138800Y0117600D02*
X0134766Y0113866D01*
X0134766Y0113566D01*
X0130034Y0108834D02*
X0127400Y0106200D01*
X0127400Y0104800D01*
X0125800Y0103200D01*
X0125800Y0100400D01*
X0124800Y0099400D01*
X0124800Y0096700D01*
X0123000Y0094900D01*
X0121500Y0094900D01*
X0114082Y0087482D01*
X0109772Y0087482D01*
X0109772Y0089450D02*
X0105950Y0089450D01*
X0101800Y0082500D01*
X0102000Y0081100D01*
X0100900Y0085300D02*
X0097600Y0085800D01*
X0083600Y0085800D01*
X0081600Y0083800D01*
X0079100Y0086100D02*
X0088900Y0095900D01*
X0092400Y0095900D01*
X0111200Y0114700D01*
X0111200Y0146200D01*
X0112627Y0147627D01*
X0112627Y0154313D01*
X0112700Y0154239D01*
X0110100Y0154280D02*
X0110068Y0154313D01*
X0110000Y0154245D01*
X0110100Y0154280D02*
X0110100Y0148800D01*
X0109200Y0147900D01*
X0109200Y0115700D01*
X0091200Y0097700D01*
X0087800Y0097700D01*
X0078300Y0088200D01*
X0072900Y0088200D01*
X0070213Y0085513D01*
X0064497Y0085513D01*
X0064497Y0083545D02*
X0071145Y0083545D01*
X0073700Y0086100D01*
X0079100Y0086100D01*
X0077800Y0081700D02*
X0074350Y0081550D01*
X0074463Y0081637D01*
X0074463Y0081617D01*
X0077800Y0081700D02*
X0084800Y0079800D01*
X0095900Y0079800D01*
X0101898Y0073802D01*
X0101898Y0069765D01*
X0101915Y0069765D01*
X0107015Y0069765D01*
X0110450Y0073200D01*
X0109772Y0077639D02*
X0109761Y0077639D01*
X0105800Y0074500D01*
X0101915Y0069765D02*
X0101915Y0069285D01*
X0106050Y0065150D01*
X0106050Y0062122D01*
X0106126Y0062046D01*
X0101008Y0062046D02*
X0101008Y0060942D01*
X0103600Y0057150D01*
X0102600Y0053100D02*
X0095993Y0059707D01*
X0095993Y0069765D01*
X0097961Y0069765D02*
X0097961Y0074039D01*
X0097050Y0074950D01*
X0092550Y0074950D01*
X0091650Y0075850D01*
X0090087Y0069765D02*
X0090087Y0063013D01*
X0091100Y0062000D01*
X0094024Y0058676D02*
X0094024Y0069765D01*
X0088119Y0069765D02*
X0088119Y0057519D01*
X0088100Y0057500D01*
X0084600Y0061800D02*
X0084600Y0052646D01*
X0088400Y0048846D01*
X0082300Y0050696D02*
X0080450Y0048846D01*
X0073954Y0053846D01*
X0069000Y0053000D01*
X0074600Y0057800D02*
X0074600Y0061700D01*
X0076308Y0063408D01*
X0076308Y0069765D01*
X0078276Y0069765D02*
X0078276Y0059424D01*
X0079000Y0058700D01*
X0082300Y0060100D02*
X0082300Y0050696D01*
X0082300Y0060100D02*
X0080245Y0062155D01*
X0080245Y0069765D01*
X0080245Y0074755D01*
X0081500Y0075400D01*
X0082213Y0069765D02*
X0082213Y0064187D01*
X0084600Y0061800D01*
X0084600Y0063600D01*
X0085200Y0064200D01*
X0094024Y0058676D02*
X0101400Y0051300D01*
X0113748Y0051300D01*
X0117548Y0055100D01*
X0117548Y0057659D02*
X0113659Y0057659D01*
X0112700Y0056700D01*
X0112700Y0054700D01*
X0111100Y0053100D01*
X0102600Y0053100D01*
X0101008Y0062046D02*
X0099930Y0063124D01*
X0099930Y0069765D01*
X0109772Y0079608D02*
X0119708Y0079508D01*
X0124600Y0085900D01*
X0146600Y0091400D01*
X0153300Y0105200D01*
X0163260Y0108100D01*
X0163273Y0108113D01*
X0161913Y0104000D02*
X0153700Y0101100D01*
X0151100Y0093400D01*
X0145000Y0093300D02*
X0151800Y0107200D01*
X0159100Y0109600D01*
X0160300Y0113200D01*
X0163659Y0113200D01*
X0164093Y0112766D01*
X0164914Y0117418D02*
X0164614Y0117914D01*
X0165700Y0121100D01*
X0161913Y0104000D02*
X0162453Y0103460D01*
X0147900Y0105500D02*
X0147900Y0109167D01*
X0148666Y0109934D01*
X0147900Y0105500D02*
X0141900Y0094900D01*
X0131900Y0094900D01*
X0128300Y0091300D01*
X0124000Y0091300D01*
X0116245Y0083545D01*
X0109772Y0083545D01*
X0109772Y0085513D02*
X0115213Y0085513D01*
X0122800Y0093100D01*
X0124200Y0093100D01*
X0126600Y0095500D01*
X0126600Y0096600D01*
X0129167Y0099167D01*
X0139486Y0099167D01*
X0136800Y0105100D02*
X0142181Y0105100D01*
X0142314Y0105233D01*
X0145000Y0093300D02*
X0123700Y0087900D01*
X0118376Y0081576D01*
X0109772Y0081576D01*
X0102019Y0086719D02*
X0104819Y0091419D01*
X0109772Y0091419D01*
X0109772Y0093387D02*
X0103587Y0093387D01*
X0100500Y0090300D01*
X0102019Y0086719D02*
X0100900Y0085300D01*
X0109772Y0095356D02*
X0119056Y0095356D01*
X0121900Y0098200D01*
X0121600Y0102000D02*
X0116924Y0097324D01*
X0109772Y0097324D01*
X0109772Y0099293D02*
X0115993Y0099293D01*
X0122500Y0105800D01*
X0123900Y0105800D01*
X0122900Y0102000D02*
X0121600Y0102000D01*
X0115061Y0101261D02*
X0138000Y0124200D01*
X0191900Y0124200D01*
X0220000Y0152300D01*
X0220000Y0159900D01*
X0220900Y0159900D01*
X0218100Y0161700D02*
X0220400Y0164000D01*
X0218100Y0161700D02*
X0218100Y0153100D01*
X0191100Y0126100D01*
X0137000Y0126100D01*
X0114100Y0103200D01*
X0109943Y0103200D01*
X0109772Y0103230D01*
X0109772Y0105198D02*
X0109774Y0105200D01*
X0113200Y0105200D01*
X0136000Y0128000D01*
X0190300Y0128000D01*
X0216200Y0153900D01*
X0216200Y0164100D01*
X0225310Y0173210D01*
X0231721Y0173210D01*
X0231721Y0175769D02*
X0225069Y0175769D01*
X0214300Y0165000D01*
X0214300Y0154700D01*
X0189500Y0129900D01*
X0135000Y0129900D01*
X0112267Y0107167D01*
X0109772Y0107167D01*
X0109772Y0101261D02*
X0115061Y0101261D01*
X0099930Y0110630D02*
X0097000Y0109200D01*
X0099930Y0110630D02*
X0099930Y0115041D01*
X0098000Y0115080D02*
X0097961Y0115041D01*
X0097961Y0120761D01*
X0099000Y0121800D01*
X0101957Y0119000D02*
X0101898Y0115041D01*
X0101957Y0119000D02*
X0106100Y0123100D01*
X0103473Y0126273D02*
X0103473Y0127836D01*
X0098355Y0127836D02*
X0097000Y0129191D01*
X0097000Y0133200D01*
X0098355Y0127836D02*
X0095993Y0125474D01*
X0095993Y0115041D01*
X0094024Y0115041D02*
X0094024Y0111419D01*
X0092056Y0111361D02*
X0092056Y0115041D01*
X0090087Y0115041D02*
X0090087Y0109213D01*
X0088400Y0108300D01*
X0091995Y0111400D02*
X0092056Y0111361D01*
X0090087Y0115041D02*
X0090087Y0119287D01*
X0090500Y0119700D01*
X0089050Y0119700D01*
X0088150Y0118800D01*
X0088119Y0118581D01*
X0088119Y0115041D01*
X0086150Y0115041D02*
X0086150Y0120350D01*
X0088400Y0122600D01*
X0091200Y0120400D02*
X0092800Y0120400D01*
X0091200Y0120400D02*
X0090500Y0119700D01*
X0084182Y0118918D02*
X0084182Y0115041D01*
X0082213Y0115041D02*
X0082213Y0108187D01*
X0083700Y0106700D01*
X0080245Y0108045D02*
X0080245Y0115041D01*
X0078276Y0115041D02*
X0078276Y0123276D01*
X0080300Y0125300D01*
X0085189Y0125300D01*
X0089103Y0129214D01*
X0085100Y0130400D02*
X0085100Y0138800D01*
X0081500Y0140000D02*
X0083900Y0142400D01*
X0086600Y0142400D01*
X0089103Y0139897D01*
X0089103Y0134332D01*
X0085100Y0130400D02*
X0083914Y0129214D01*
X0081229Y0129214D01*
X0081229Y0134332D02*
X0077000Y0134332D01*
X0077000Y0126200D01*
X0076308Y0125508D01*
X0076308Y0115041D01*
X0076308Y0110892D01*
X0075600Y0109600D01*
X0078800Y0106600D02*
X0080245Y0108045D01*
X0074339Y0115041D02*
X0074339Y0120650D01*
X0072371Y0118681D01*
X0072371Y0115041D01*
X0074339Y0120650D02*
X0074339Y0128230D01*
X0073355Y0129214D01*
X0069500Y0129214D01*
X0069500Y0142288D01*
X0070796Y0143584D01*
X0073196Y0143504D01*
X0076100Y0143600D01*
X0081500Y0140000D02*
X0081500Y0134603D01*
X0081229Y0134332D01*
X0077000Y0134332D02*
X0073355Y0134332D01*
X0069500Y0129214D02*
X0065481Y0129214D01*
X0062000Y0132400D02*
X0062000Y0125600D01*
X0065000Y0122600D01*
X0066300Y0122600D01*
X0062000Y0132400D02*
X0063932Y0134332D01*
X0065481Y0134332D01*
X0082200Y0120900D02*
X0084182Y0118918D01*
X0064497Y0107167D02*
X0058633Y0107167D01*
X0058500Y0107300D01*
X0053670Y0105592D02*
X0058562Y0100700D01*
X0059000Y0100700D01*
X0060707Y0099293D01*
X0064497Y0099293D01*
X0072507Y0099293D01*
X0075900Y0096300D01*
X0077600Y0094600D01*
X0079900Y0094600D01*
X0076000Y0091100D02*
X0074300Y0090100D01*
X0071900Y0090100D01*
X0069100Y0087500D01*
X0068000Y0087500D01*
X0067982Y0087482D01*
X0064497Y0087482D01*
X0064497Y0089450D02*
X0067350Y0089450D01*
X0068900Y0090300D01*
X0069200Y0092900D01*
X0072800Y0093300D01*
X0070344Y0096456D02*
X0069556Y0096456D01*
X0068500Y0095400D01*
X0064497Y0095356D01*
X0064497Y0097324D02*
X0059976Y0097324D01*
X0058700Y0098300D01*
X0048937Y0098300D01*
X0048847Y0098210D01*
X0049096Y0095900D02*
X0053600Y0095900D01*
X0055400Y0093200D01*
X0058081Y0091419D01*
X0064497Y0091419D01*
X0064497Y0093387D02*
X0060613Y0093387D01*
X0058100Y0095000D01*
X0053000Y0092900D02*
X0055100Y0089300D01*
X0053000Y0092900D02*
X0048955Y0092900D01*
X0048847Y0093092D01*
X0048847Y0095651D02*
X0049096Y0095900D01*
X0047900Y0102500D02*
X0043700Y0102500D01*
X0043700Y0103299D01*
X0043729Y0103328D01*
X0041170Y0103328D02*
X0041170Y0115336D01*
X0041859Y0116100D01*
X0039700Y0133000D02*
X0039700Y0151000D01*
X0037400Y0153300D01*
X0032803Y0153200D01*
X0032905Y0153302D01*
X0058878Y0167122D02*
X0059000Y0167000D01*
X0058878Y0167122D02*
X0058878Y0173541D01*
X0063596Y0173788D02*
X0063600Y0173784D01*
X0063600Y0159000D01*
X0068650Y0168050D02*
X0068400Y0168300D01*
X0068400Y0173949D02*
X0068314Y0174035D01*
X0102800Y0144800D02*
X0102800Y0143300D01*
X0102800Y0144800D02*
X0107509Y0149509D01*
X0107509Y0154313D01*
X0104950Y0154313D02*
X0104900Y0154313D01*
X0108788Y0163269D02*
X0110169Y0163269D01*
X0111500Y0164600D01*
X0107050Y0164600D01*
X0106800Y0165250D01*
X0107509Y0172226D02*
X0107509Y0179409D01*
X0108700Y0180600D01*
X0137150Y0180600D01*
X0138200Y0179550D01*
X0138200Y0160900D01*
X0135206Y0157906D01*
X0134369Y0157906D01*
X0135213Y0158750D01*
X0134854Y0157766D02*
X0160163Y0157766D01*
X0161442Y0156768D02*
X0137838Y0156768D01*
X0137838Y0155769D02*
X0162720Y0155769D01*
X0163998Y0154771D02*
X0137847Y0154771D01*
X0137847Y0153772D02*
X0165277Y0153772D01*
X0166555Y0152774D02*
X0134863Y0152774D01*
X0134863Y0153158D02*
X0133894Y0153158D01*
X0133894Y0156339D01*
X0133885Y0156339D01*
X0133885Y0157422D01*
X0134854Y0157422D01*
X0134854Y0154241D01*
X0134863Y0154241D01*
X0134863Y0153158D01*
X0134863Y0153772D02*
X0133894Y0153772D01*
X0133894Y0153157D02*
X0133894Y0152189D01*
X0130910Y0152189D01*
X0130910Y0150310D01*
X0131012Y0149929D01*
X0131029Y0149900D01*
X0130400Y0149900D01*
X0123000Y0157300D01*
X0123000Y0158176D01*
X0123290Y0158876D01*
X0123290Y0159985D01*
X0123000Y0160685D01*
X0123000Y0160900D01*
X0122586Y0161314D01*
X0122689Y0161699D01*
X0124980Y0161699D01*
X0125427Y0161662D01*
X0125543Y0161699D01*
X0125666Y0161699D01*
X0126080Y0161870D01*
X0126507Y0162007D01*
X0126600Y0162086D01*
X0126713Y0162133D01*
X0126730Y0162150D01*
X0129550Y0162150D01*
X0131020Y0160680D01*
X0131003Y0160651D01*
X0130901Y0160269D01*
X0130901Y0158391D01*
X0133885Y0158391D01*
X0133885Y0157422D01*
X0130901Y0157422D01*
X0130901Y0155543D01*
X0130973Y0155272D01*
X0130910Y0155036D01*
X0130910Y0153157D01*
X0133894Y0153157D01*
X0133894Y0152774D02*
X0127526Y0152774D01*
X0126528Y0153772D02*
X0130910Y0153772D01*
X0130910Y0154771D02*
X0125529Y0154771D01*
X0124531Y0155769D02*
X0130901Y0155769D01*
X0130901Y0156768D02*
X0123532Y0156768D01*
X0123000Y0157766D02*
X0133885Y0157766D01*
X0133885Y0156768D02*
X0134854Y0156768D01*
X0134854Y0155769D02*
X0133894Y0155769D01*
X0133894Y0154771D02*
X0134854Y0154771D01*
X0130910Y0151775D02*
X0128525Y0151775D01*
X0129523Y0150777D02*
X0130910Y0150777D01*
X0130901Y0158765D02*
X0123244Y0158765D01*
X0123290Y0159763D02*
X0130901Y0159763D01*
X0130938Y0160762D02*
X0123000Y0160762D01*
X0125814Y0161760D02*
X0129940Y0161760D01*
X0137838Y0158765D02*
X0152295Y0158765D01*
X0160000Y0177100D02*
X0160000Y0179800D01*
X0172800Y0195600D02*
X0173051Y0196451D01*
X0173051Y0201100D01*
X0177100Y0200678D02*
X0177100Y0196200D01*
X0177100Y0200678D02*
X0177769Y0201347D01*
X0182300Y0201407D02*
X0182300Y0195800D01*
X0182300Y0201407D02*
X0182487Y0201594D01*
X0213000Y0178200D02*
X0213128Y0178328D01*
X0231721Y0178328D01*
X0231491Y0176000D02*
X0231721Y0175769D01*
X0238700Y0179050D02*
X0240678Y0177122D01*
X0240678Y0177049D01*
X0249635Y0178328D02*
X0257172Y0178328D01*
X0262450Y0173050D01*
X0261350Y0158100D01*
X0254750Y0151900D01*
X0254750Y0145950D01*
X0253100Y0144300D01*
X0240400Y0144300D01*
X0233500Y0151200D01*
X0233310Y0150161D02*
X0233501Y0150109D01*
X0235380Y0150109D01*
X0235380Y0153094D01*
X0236348Y0153094D01*
X0236348Y0150109D01*
X0238227Y0150109D01*
X0238250Y0150116D01*
X0238250Y0142350D01*
X0231450Y0136600D01*
X0217900Y0133100D01*
X0215550Y0134750D01*
X0214100Y0141000D01*
X0216500Y0144100D01*
X0221450Y0148150D01*
X0228800Y0148700D01*
X0228800Y0150090D01*
X0230198Y0150090D01*
X0230198Y0153074D01*
X0231166Y0153074D01*
X0231166Y0150090D01*
X0233045Y0150090D01*
X0233310Y0150161D01*
X0235380Y0150777D02*
X0236348Y0150777D01*
X0236348Y0151775D02*
X0235380Y0151775D01*
X0235380Y0152774D02*
X0236348Y0152774D01*
X0235379Y0153094D02*
X0232198Y0153094D01*
X0232198Y0153074D01*
X0231166Y0153074D01*
X0231166Y0154043D01*
X0230198Y0154043D01*
X0230198Y0157027D01*
X0228800Y0157027D01*
X0228800Y0158800D01*
X0232350Y0162350D01*
X0237250Y0162350D01*
X0237485Y0162585D01*
X0238419Y0162972D01*
X0238704Y0163256D01*
X0239107Y0163148D01*
X0239107Y0162176D01*
X0239541Y0161128D01*
X0239700Y0160970D01*
X0239700Y0157800D01*
X0239546Y0157646D01*
X0239521Y0157646D01*
X0238742Y0156867D01*
X0238608Y0156944D01*
X0238227Y0157046D01*
X0236348Y0157046D01*
X0236348Y0154062D01*
X0235380Y0154062D01*
X0235380Y0157046D01*
X0233501Y0157046D01*
X0233236Y0156975D01*
X0233045Y0157027D01*
X0231166Y0157027D01*
X0231166Y0154043D01*
X0234347Y0154043D01*
X0234347Y0154062D01*
X0235379Y0154062D01*
X0235379Y0153094D01*
X0235379Y0153772D02*
X0231166Y0153772D01*
X0231166Y0152774D02*
X0230198Y0152774D01*
X0230198Y0151775D02*
X0231166Y0151775D01*
X0231166Y0150777D02*
X0230198Y0150777D01*
X0228800Y0149778D02*
X0238250Y0149778D01*
X0238250Y0148780D02*
X0228800Y0148780D01*
X0230198Y0154771D02*
X0231166Y0154771D01*
X0231166Y0155769D02*
X0230198Y0155769D01*
X0230198Y0156768D02*
X0231166Y0156768D01*
X0228800Y0157766D02*
X0239666Y0157766D01*
X0239700Y0158765D02*
X0228800Y0158765D01*
X0229763Y0159763D02*
X0239700Y0159763D01*
X0239700Y0160762D02*
X0230762Y0160762D01*
X0231760Y0161760D02*
X0239279Y0161760D01*
X0239107Y0162759D02*
X0237905Y0162759D01*
X0236348Y0156768D02*
X0235380Y0156768D01*
X0235380Y0155769D02*
X0236348Y0155769D01*
X0236348Y0154771D02*
X0235380Y0154771D01*
X0238250Y0147781D02*
X0220999Y0147781D01*
X0219779Y0146783D02*
X0238250Y0146783D01*
X0238250Y0145784D02*
X0218558Y0145784D01*
X0217338Y0144786D02*
X0238250Y0144786D01*
X0238250Y0143787D02*
X0216258Y0143787D01*
X0215485Y0142789D02*
X0238250Y0142789D01*
X0237588Y0141790D02*
X0214712Y0141790D01*
X0214148Y0140792D02*
X0236407Y0140792D01*
X0235226Y0139793D02*
X0214380Y0139793D01*
X0214612Y0138795D02*
X0234045Y0138795D01*
X0232864Y0137796D02*
X0214843Y0137796D01*
X0215075Y0136798D02*
X0231684Y0136798D01*
X0228349Y0135799D02*
X0215307Y0135799D01*
X0215538Y0134801D02*
X0224483Y0134801D01*
X0220618Y0133802D02*
X0216900Y0133802D01*
X0256400Y0158550D02*
X0258650Y0161000D01*
X0259900Y0171400D01*
X0255531Y0175769D01*
X0249635Y0175769D01*
X0249635Y0173210D02*
X0249635Y0169365D01*
X0255300Y0163700D01*
X0249635Y0180887D02*
X0252000Y0182187D01*
X0242000Y0186006D02*
X0241957Y0186006D01*
X0239398Y0186006D02*
X0239300Y0186006D01*
X0228500Y0199400D02*
X0228473Y0202073D01*
X0228473Y0205395D01*
X0233000Y0205198D02*
X0233000Y0200500D01*
X0233000Y0205198D02*
X0233198Y0205395D01*
X0223749Y0205395D02*
X0223454Y0199600D01*
X0324450Y0117750D02*
X0324450Y0111800D01*
X0317850Y0105600D01*
X0316750Y0090650D01*
X0322028Y0085372D01*
X0329565Y0085372D01*
X0329565Y0087931D02*
X0323669Y0087931D01*
X0319300Y0092300D01*
X0320550Y0102700D01*
X0322800Y0105150D01*
X0323900Y0100000D02*
X0329565Y0094335D01*
X0329565Y0090490D01*
X0329565Y0082813D02*
X0327200Y0081513D01*
X0337200Y0077694D02*
X0337243Y0077694D01*
X0339802Y0077694D02*
X0339900Y0077694D01*
X0340500Y0084650D02*
X0338522Y0086578D01*
X0338522Y0086651D01*
X0347479Y0085372D02*
X0366072Y0085372D01*
X0366200Y0085500D01*
X0377300Y0090000D02*
X0381000Y0093700D01*
X0387800Y0093700D01*
X0392510Y0088990D01*
X0400117Y0088990D01*
X0400117Y0086431D02*
X0388369Y0086431D01*
X0384800Y0090000D01*
X0384800Y0097500D02*
X0388100Y0097500D01*
X0391492Y0094108D01*
X0400117Y0094108D01*
X0400117Y0096667D02*
X0393033Y0096667D01*
X0388100Y0101600D01*
X0381400Y0101600D01*
X0377300Y0097500D01*
X0364900Y0098700D02*
X0364900Y0109000D01*
X0389700Y0133800D01*
X0444200Y0133800D01*
X0466933Y0156533D01*
X0469428Y0156533D01*
X0469426Y0158500D02*
X0466000Y0158500D01*
X0443200Y0135700D01*
X0388900Y0135700D01*
X0363000Y0109800D01*
X0363000Y0099600D01*
X0353890Y0090490D01*
X0347479Y0090490D01*
X0347479Y0087931D02*
X0354131Y0087931D01*
X0364900Y0098700D01*
X0361100Y0102000D02*
X0358800Y0099700D01*
X0361100Y0102000D02*
X0361100Y0110600D01*
X0388100Y0137600D01*
X0442200Y0137600D01*
X0465100Y0160500D01*
X0469257Y0160500D01*
X0469428Y0160470D01*
X0469428Y0158502D02*
X0469426Y0158500D01*
X0469428Y0162439D02*
X0464139Y0162439D01*
X0441200Y0139500D01*
X0387300Y0139500D01*
X0359200Y0111400D01*
X0359200Y0103800D01*
X0358300Y0103800D01*
X0350400Y0104900D02*
X0350400Y0106673D01*
X0349002Y0106673D01*
X0349002Y0109657D01*
X0348034Y0109657D01*
X0348034Y0106673D01*
X0346155Y0106673D01*
X0345964Y0106725D01*
X0345699Y0106654D01*
X0343820Y0106654D01*
X0343820Y0109638D01*
X0342852Y0109638D01*
X0342852Y0106654D01*
X0340973Y0106654D01*
X0340592Y0106756D01*
X0340458Y0106833D01*
X0339679Y0106054D01*
X0339654Y0106054D01*
X0339500Y0105900D01*
X0339500Y0102730D01*
X0339659Y0102572D01*
X0340093Y0101524D01*
X0340093Y0100552D01*
X0340496Y0100444D01*
X0340781Y0100728D01*
X0341715Y0101115D01*
X0341950Y0101350D01*
X0346850Y0101350D01*
X0350400Y0104900D01*
X0350345Y0104845D02*
X0339500Y0104845D01*
X0339500Y0103847D02*
X0349347Y0103847D01*
X0348348Y0102848D02*
X0339500Y0102848D01*
X0339958Y0101850D02*
X0347350Y0101850D01*
X0350400Y0105844D02*
X0339500Y0105844D01*
X0342852Y0106842D02*
X0343820Y0106842D01*
X0343820Y0107841D02*
X0342852Y0107841D01*
X0342852Y0108839D02*
X0343820Y0108839D01*
X0343821Y0109638D02*
X0343821Y0110606D01*
X0347002Y0110606D01*
X0347002Y0110626D01*
X0348034Y0110626D01*
X0348034Y0113610D01*
X0346155Y0113610D01*
X0345890Y0113539D01*
X0345699Y0113591D01*
X0343820Y0113591D01*
X0343820Y0110606D01*
X0342852Y0110606D01*
X0342852Y0113591D01*
X0340973Y0113591D01*
X0340950Y0113584D01*
X0340950Y0121350D01*
X0347750Y0127100D01*
X0361300Y0130600D01*
X0363650Y0128950D01*
X0365100Y0122700D01*
X0362700Y0119600D01*
X0357750Y0115550D01*
X0350400Y0115000D01*
X0350400Y0113610D01*
X0349002Y0113610D01*
X0349002Y0110626D01*
X0348034Y0110626D01*
X0348034Y0109657D01*
X0344853Y0109657D01*
X0344853Y0109638D01*
X0343821Y0109638D01*
X0343821Y0109838D02*
X0348034Y0109838D01*
X0348034Y0110836D02*
X0349002Y0110836D01*
X0349002Y0111835D02*
X0348034Y0111835D01*
X0348034Y0112833D02*
X0349002Y0112833D01*
X0350400Y0113832D02*
X0340950Y0113832D01*
X0340950Y0114830D02*
X0350400Y0114830D01*
X0345700Y0112500D02*
X0338800Y0119400D01*
X0326100Y0119400D01*
X0324450Y0117750D01*
X0340950Y0117826D02*
X0360532Y0117826D01*
X0361752Y0118824D02*
X0340950Y0118824D01*
X0340950Y0119823D02*
X0362873Y0119823D01*
X0363646Y0120821D02*
X0340950Y0120821D01*
X0341506Y0121820D02*
X0364419Y0121820D01*
X0365073Y0122818D02*
X0342687Y0122818D01*
X0343867Y0123817D02*
X0364841Y0123817D01*
X0364609Y0124815D02*
X0345048Y0124815D01*
X0346229Y0125814D02*
X0364378Y0125814D01*
X0364146Y0126812D02*
X0347410Y0126812D01*
X0350502Y0127811D02*
X0363914Y0127811D01*
X0363683Y0128809D02*
X0354368Y0128809D01*
X0358234Y0129808D02*
X0362428Y0129808D01*
X0359311Y0116827D02*
X0340950Y0116827D01*
X0340950Y0115829D02*
X0358091Y0115829D01*
X0349002Y0108839D02*
X0348034Y0108839D01*
X0348034Y0107841D02*
X0349002Y0107841D01*
X0349002Y0106842D02*
X0348034Y0106842D01*
X0343820Y0110836D02*
X0342852Y0110836D01*
X0342852Y0111835D02*
X0343820Y0111835D01*
X0343820Y0112833D02*
X0342852Y0112833D01*
X0341078Y0100851D02*
X0340093Y0100851D01*
X0347479Y0087931D02*
X0347709Y0087700D01*
X0350700Y0064300D02*
X0350727Y0061627D01*
X0350727Y0058305D01*
X0346200Y0058502D02*
X0346200Y0063200D01*
X0346200Y0058502D02*
X0346002Y0058305D01*
X0355451Y0058305D02*
X0355746Y0064100D01*
X0396713Y0062106D02*
X0396900Y0062293D01*
X0396900Y0067900D01*
X0402100Y0067500D02*
X0402100Y0063022D01*
X0401431Y0062353D01*
X0406149Y0062600D02*
X0406149Y0067249D01*
X0406400Y0068100D01*
X0413300Y0071800D02*
X0428100Y0057000D01*
X0426700Y0061000D02*
X0415100Y0072600D01*
X0415100Y0087900D01*
X0418749Y0091549D01*
X0423148Y0091549D01*
X0423148Y0088990D02*
X0430949Y0088990D01*
X0432300Y0090341D01*
X0432300Y0095459D02*
X0432300Y0099100D01*
X0429615Y0101785D01*
X0423148Y0101785D01*
X0414615Y0101785D01*
X0403700Y0112700D01*
X0392650Y0112700D01*
X0392550Y0112800D01*
X0400117Y0101785D02*
X0406715Y0101785D01*
X0411500Y0097000D01*
X0411500Y0077800D01*
X0410400Y0076700D01*
X0408600Y0080600D02*
X0409700Y0081700D01*
X0409700Y0095800D01*
X0406274Y0099226D01*
X0400117Y0099226D01*
X0400117Y0083872D02*
X0404800Y0083872D01*
X0405200Y0083900D01*
X0413300Y0089100D02*
X0413300Y0071800D01*
X0418100Y0083900D02*
X0419200Y0083900D01*
X0419200Y0083872D01*
X0423148Y0083872D01*
X0423148Y0086431D02*
X0423148Y0086600D01*
X0419200Y0086600D01*
X0419200Y0088990D01*
X0423148Y0088990D01*
X0419200Y0086600D02*
X0419200Y0083900D01*
X0413300Y0089100D02*
X0418308Y0094108D01*
X0423148Y0094108D01*
X0427851Y0104845D02*
X0441362Y0104845D01*
X0441362Y0105309D02*
X0444346Y0105309D01*
X0444346Y0106278D01*
X0441362Y0106278D01*
X0441362Y0108157D01*
X0441425Y0108393D01*
X0441353Y0108664D01*
X0441353Y0110542D01*
X0444337Y0110542D01*
X0445306Y0110542D01*
X0445306Y0111511D01*
X0448290Y0111511D01*
X0448290Y0113390D01*
X0448188Y0113771D01*
X0448171Y0113800D01*
X0448800Y0113800D01*
X0456200Y0106400D01*
X0456200Y0105524D01*
X0455910Y0104824D01*
X0455910Y0103715D01*
X0456200Y0103015D01*
X0456200Y0102800D01*
X0456614Y0102386D01*
X0456511Y0102001D01*
X0454220Y0102001D01*
X0453773Y0102038D01*
X0453657Y0102001D01*
X0453534Y0102001D01*
X0453120Y0101830D01*
X0452693Y0101693D01*
X0452600Y0101614D01*
X0452487Y0101567D01*
X0452470Y0101550D01*
X0449650Y0101550D01*
X0448180Y0103020D01*
X0448197Y0103049D01*
X0448299Y0103431D01*
X0448299Y0105309D01*
X0445315Y0105309D01*
X0445315Y0106278D01*
X0444346Y0106278D01*
X0444346Y0109459D01*
X0444337Y0109459D01*
X0444337Y0110542D01*
X0444337Y0111511D01*
X0441353Y0111511D01*
X0441353Y0113390D01*
X0441455Y0113771D01*
X0441532Y0113905D01*
X0440753Y0114684D01*
X0440753Y0120755D01*
X0441300Y0121302D01*
X0441300Y0121600D01*
X0441731Y0121734D01*
X0441983Y0121985D01*
X0442544Y0121985D01*
X0443400Y0122250D01*
X0443159Y0131200D01*
X0433032Y0131200D01*
X0411350Y0130450D01*
X0410950Y0112250D01*
X0419400Y0105650D01*
X0437250Y0103950D01*
X0441362Y0103950D01*
X0441362Y0105309D01*
X0441362Y0106842D02*
X0417874Y0106842D01*
X0419152Y0105844D02*
X0444346Y0105844D01*
X0443994Y0105794D02*
X0444831Y0105794D01*
X0443987Y0104950D01*
X0443994Y0105794D02*
X0441000Y0102800D01*
X0441000Y0084150D01*
X0442050Y0083100D01*
X0470500Y0083100D01*
X0471691Y0084291D01*
X0471691Y0091474D01*
X0469132Y0091474D02*
X0469132Y0086932D01*
X0468000Y0085800D01*
X0459050Y0086350D01*
X0454900Y0086200D02*
X0459874Y0091474D01*
X0466573Y0091474D01*
X0474250Y0091474D02*
X0474300Y0091474D01*
X0472400Y0098450D02*
X0472150Y0099100D01*
X0467700Y0099100D01*
X0469031Y0100431D01*
X0470412Y0100431D01*
X0471691Y0109387D02*
X0471691Y0114191D01*
X0476400Y0118900D01*
X0476400Y0120400D01*
X0470000Y0115800D02*
X0469100Y0114900D01*
X0469100Y0109420D01*
X0469132Y0109387D01*
X0469200Y0109455D01*
X0466573Y0109387D02*
X0466573Y0116073D01*
X0468000Y0117500D01*
X0468000Y0149000D01*
X0486800Y0167800D01*
X0490300Y0167800D01*
X0500100Y0177600D01*
X0505500Y0177600D01*
X0508055Y0180155D01*
X0514703Y0180155D01*
X0514703Y0178187D02*
X0508987Y0178187D01*
X0506300Y0175500D01*
X0500900Y0175500D01*
X0491400Y0166000D01*
X0488000Y0166000D01*
X0470000Y0148000D01*
X0470000Y0115800D01*
X0466500Y0109461D02*
X0466573Y0109387D01*
X0474250Y0109387D02*
X0474300Y0109387D01*
X0461506Y0099100D02*
X0461455Y0099151D01*
X0461405Y0099101D01*
X0459301Y0099201D01*
X0456200Y0102848D02*
X0448352Y0102848D01*
X0448299Y0103847D02*
X0455910Y0103847D01*
X0455919Y0104845D02*
X0448299Y0104845D01*
X0448299Y0106278D02*
X0445315Y0106278D01*
X0445315Y0107361D01*
X0445306Y0107361D01*
X0445306Y0110542D01*
X0448290Y0110542D01*
X0448290Y0108664D01*
X0448226Y0108428D01*
X0448299Y0108157D01*
X0448299Y0106278D01*
X0448299Y0106842D02*
X0455758Y0106842D01*
X0456200Y0105844D02*
X0445315Y0105844D01*
X0445315Y0106842D02*
X0444346Y0106842D01*
X0444346Y0107841D02*
X0445306Y0107841D01*
X0445306Y0108839D02*
X0444346Y0108839D01*
X0444337Y0109838D02*
X0445306Y0109838D01*
X0445306Y0110836D02*
X0451764Y0110836D01*
X0452762Y0109838D02*
X0448290Y0109838D01*
X0448290Y0108839D02*
X0453761Y0108839D01*
X0454759Y0107841D02*
X0448299Y0107841D01*
X0448290Y0111835D02*
X0450765Y0111835D01*
X0449767Y0112833D02*
X0448290Y0112833D01*
X0444337Y0110836D02*
X0412760Y0110836D01*
X0414038Y0109838D02*
X0441353Y0109838D01*
X0441353Y0108839D02*
X0415317Y0108839D01*
X0416595Y0107841D02*
X0441362Y0107841D01*
X0441353Y0111835D02*
X0411482Y0111835D01*
X0410963Y0112833D02*
X0441353Y0112833D01*
X0441490Y0113832D02*
X0410985Y0113832D01*
X0411007Y0114830D02*
X0440753Y0114830D01*
X0440753Y0115829D02*
X0411029Y0115829D01*
X0411051Y0116827D02*
X0440753Y0116827D01*
X0440753Y0117826D02*
X0411073Y0117826D01*
X0411094Y0118824D02*
X0440753Y0118824D01*
X0440753Y0119823D02*
X0411116Y0119823D01*
X0411138Y0120821D02*
X0440819Y0120821D01*
X0441818Y0121820D02*
X0411160Y0121820D01*
X0411182Y0122818D02*
X0443385Y0122818D01*
X0443358Y0123817D02*
X0411204Y0123817D01*
X0411226Y0124815D02*
X0443331Y0124815D01*
X0443304Y0125814D02*
X0411248Y0125814D01*
X0411270Y0126812D02*
X0443277Y0126812D01*
X0443251Y0127811D02*
X0411292Y0127811D01*
X0411314Y0128809D02*
X0443224Y0128809D01*
X0443197Y0129808D02*
X0411336Y0129808D01*
X0421655Y0130806D02*
X0443170Y0130806D01*
X0440400Y0146100D02*
X0444434Y0149834D01*
X0444434Y0150134D01*
X0449166Y0154866D02*
X0451800Y0157500D01*
X0451800Y0158900D01*
X0453400Y0160500D01*
X0453400Y0163300D01*
X0454400Y0164300D01*
X0454400Y0167000D01*
X0456200Y0168800D01*
X0457700Y0168800D01*
X0465118Y0176218D01*
X0469428Y0176218D01*
X0469428Y0174250D02*
X0473250Y0174250D01*
X0477400Y0181200D01*
X0477200Y0182600D01*
X0478300Y0178400D02*
X0481600Y0177900D01*
X0495600Y0177900D01*
X0497600Y0179900D01*
X0501400Y0182000D02*
X0494400Y0183900D01*
X0483300Y0183900D01*
X0477302Y0189898D01*
X0477302Y0193935D01*
X0477285Y0193935D01*
X0472185Y0193935D01*
X0468750Y0190500D01*
X0469428Y0186061D02*
X0469439Y0186061D01*
X0473400Y0189200D01*
X0477285Y0193935D02*
X0477285Y0194415D01*
X0473150Y0198550D01*
X0473150Y0201578D01*
X0473074Y0201654D01*
X0478192Y0201654D02*
X0478192Y0202758D01*
X0475600Y0206550D01*
X0476600Y0210600D02*
X0483207Y0203993D01*
X0483207Y0193935D01*
X0481239Y0193935D02*
X0481239Y0189661D01*
X0482150Y0188750D01*
X0486650Y0188750D01*
X0487550Y0187850D01*
X0489113Y0193935D02*
X0489113Y0200687D01*
X0488100Y0201700D01*
X0485176Y0205024D02*
X0485176Y0193935D01*
X0491081Y0193935D02*
X0491081Y0206181D01*
X0491100Y0206200D01*
X0494600Y0201900D02*
X0494600Y0200100D01*
X0494000Y0199500D01*
X0494600Y0201900D02*
X0496987Y0199513D01*
X0496987Y0193935D01*
X0498955Y0193935D02*
X0498955Y0188945D01*
X0497700Y0188300D01*
X0498955Y0193935D02*
X0498955Y0201545D01*
X0496900Y0203600D01*
X0496900Y0213004D01*
X0498750Y0214854D01*
X0505246Y0209854D01*
X0510200Y0210700D01*
X0504600Y0205900D02*
X0504600Y0202000D01*
X0502892Y0200292D01*
X0502892Y0193935D01*
X0500924Y0193935D02*
X0500924Y0204276D01*
X0500200Y0205000D01*
X0494600Y0201900D02*
X0494600Y0211054D01*
X0490800Y0214854D01*
X0485176Y0205024D02*
X0477800Y0212400D01*
X0465452Y0212400D01*
X0461652Y0208600D01*
X0461652Y0206041D02*
X0465541Y0206041D01*
X0466500Y0207000D01*
X0466500Y0209000D01*
X0468100Y0210600D01*
X0476600Y0210600D01*
X0470100Y0207000D02*
X0466582Y0203482D01*
X0461652Y0203482D01*
X0461652Y0200923D02*
X0462600Y0200923D01*
X0463200Y0200323D01*
X0478192Y0201654D02*
X0479270Y0200576D01*
X0479270Y0193935D01*
X0469428Y0184092D02*
X0459492Y0184192D01*
X0454600Y0177800D01*
X0432600Y0172300D01*
X0425900Y0158500D01*
X0415940Y0155600D01*
X0415927Y0155587D01*
X0417287Y0159700D02*
X0425500Y0162600D01*
X0428100Y0170300D01*
X0434200Y0170400D02*
X0427400Y0156500D01*
X0420100Y0154100D01*
X0418900Y0150500D01*
X0415541Y0150500D01*
X0415107Y0150934D01*
X0414286Y0146282D02*
X0414586Y0145786D01*
X0413500Y0142600D01*
X0430000Y0145700D02*
X0434834Y0149234D01*
X0435266Y0149034D01*
X0430534Y0153766D02*
X0431300Y0154533D01*
X0431300Y0158200D01*
X0437300Y0168800D01*
X0447300Y0168800D01*
X0450900Y0172400D01*
X0455200Y0172400D01*
X0462955Y0180155D01*
X0469428Y0180155D01*
X0469428Y0178187D02*
X0463987Y0178187D01*
X0456400Y0170600D01*
X0455000Y0170600D01*
X0452600Y0168200D01*
X0452600Y0167100D01*
X0450033Y0164533D01*
X0439714Y0164533D01*
X0442400Y0158600D02*
X0437019Y0158600D01*
X0436886Y0158467D01*
X0434200Y0170400D02*
X0455500Y0175800D01*
X0460824Y0182124D01*
X0469428Y0182124D01*
X0477181Y0176981D02*
X0478300Y0178400D01*
X0477181Y0176981D02*
X0474381Y0172281D01*
X0469428Y0172281D01*
X0469428Y0170313D02*
X0475613Y0170313D01*
X0478700Y0173400D01*
X0469428Y0168344D02*
X0460144Y0168344D01*
X0457300Y0165500D01*
X0457600Y0161700D02*
X0456300Y0161700D01*
X0457600Y0161700D02*
X0462276Y0166376D01*
X0469428Y0166376D01*
X0469428Y0164407D02*
X0463207Y0164407D01*
X0456700Y0157900D01*
X0455300Y0157900D01*
X0473100Y0140600D02*
X0477243Y0144700D01*
X0477302Y0148659D01*
X0479270Y0148659D02*
X0479270Y0153070D01*
X0482200Y0154500D01*
X0485176Y0152281D02*
X0485176Y0148659D01*
X0487144Y0148659D02*
X0487144Y0152339D01*
X0487205Y0152300D01*
X0489113Y0154487D02*
X0489113Y0148659D01*
X0489113Y0144413D01*
X0488700Y0144000D01*
X0490150Y0144000D01*
X0491050Y0144900D01*
X0491081Y0145119D01*
X0491081Y0148659D01*
X0493050Y0148659D02*
X0493050Y0143350D01*
X0490800Y0141100D01*
X0488000Y0143300D02*
X0486400Y0143300D01*
X0488000Y0143300D02*
X0488700Y0144000D01*
X0495018Y0144782D02*
X0495018Y0148659D01*
X0496987Y0148659D02*
X0496987Y0155513D01*
X0495500Y0157000D01*
X0498955Y0155655D02*
X0498955Y0148659D01*
X0500924Y0148659D02*
X0500924Y0140424D01*
X0498900Y0138400D01*
X0494011Y0138400D01*
X0490097Y0134486D01*
X0494100Y0133300D02*
X0494100Y0124900D01*
X0495300Y0121300D02*
X0492600Y0121300D01*
X0490097Y0123803D01*
X0490097Y0129368D01*
X0494100Y0133300D02*
X0495286Y0134486D01*
X0497971Y0134486D01*
X0497971Y0129368D02*
X0497700Y0129097D01*
X0497700Y0123700D01*
X0495300Y0121300D01*
X0503100Y0120100D02*
X0506004Y0120196D01*
X0508404Y0120116D01*
X0509700Y0121412D01*
X0509700Y0134486D01*
X0505845Y0134486D01*
X0504861Y0135470D01*
X0504861Y0143050D01*
X0506829Y0145019D01*
X0506829Y0148659D01*
X0504861Y0148659D02*
X0504861Y0143050D01*
X0502892Y0138192D02*
X0502200Y0137500D01*
X0502200Y0129368D01*
X0505845Y0129368D01*
X0502200Y0129368D02*
X0497971Y0129368D01*
X0502892Y0138192D02*
X0502892Y0148659D01*
X0502892Y0152808D01*
X0503600Y0154100D01*
X0500400Y0157100D02*
X0498955Y0155655D01*
X0490800Y0155400D02*
X0489113Y0154487D01*
X0483207Y0148659D02*
X0483207Y0138226D01*
X0480845Y0135864D01*
X0482200Y0134509D01*
X0482200Y0130500D01*
X0475727Y0135864D02*
X0475727Y0137427D01*
X0480200Y0141900D02*
X0481239Y0142939D01*
X0481239Y0148659D01*
X0481200Y0148620D01*
X0495018Y0144782D02*
X0497000Y0142800D01*
X0509700Y0134486D02*
X0513719Y0134486D01*
X0517200Y0131300D02*
X0515268Y0129368D01*
X0513719Y0129368D01*
X0517200Y0131300D02*
X0517200Y0138100D01*
X0514200Y0141100D01*
X0512900Y0141100D01*
X0514703Y0156533D02*
X0520567Y0156533D01*
X0520700Y0156400D01*
X0525530Y0158108D02*
X0520638Y0163000D01*
X0520200Y0163000D01*
X0518493Y0164407D01*
X0514703Y0164407D01*
X0506693Y0164407D01*
X0503300Y0167400D01*
X0501600Y0169100D01*
X0499300Y0169100D01*
X0503200Y0172600D02*
X0504900Y0173600D01*
X0507300Y0173600D01*
X0510100Y0176200D01*
X0511200Y0176200D01*
X0511218Y0176218D01*
X0514703Y0176218D01*
X0514703Y0174250D02*
X0511850Y0174250D01*
X0510300Y0173400D01*
X0510000Y0170800D01*
X0506400Y0170400D01*
X0508856Y0167244D02*
X0509644Y0167244D01*
X0510700Y0168300D01*
X0514703Y0168344D01*
X0514703Y0166376D02*
X0519224Y0166376D01*
X0520500Y0165400D01*
X0530263Y0165400D01*
X0530353Y0165490D01*
X0530104Y0167800D02*
X0525600Y0167800D01*
X0523800Y0170500D01*
X0521119Y0172281D01*
X0514703Y0172281D01*
X0514703Y0170313D02*
X0518587Y0170313D01*
X0521100Y0168700D01*
X0526200Y0170800D02*
X0524100Y0174400D01*
X0526200Y0170800D02*
X0530245Y0170800D01*
X0530353Y0170608D01*
X0530353Y0168049D02*
X0530104Y0167800D01*
X0531300Y0161200D02*
X0535500Y0161200D01*
X0535500Y0160401D01*
X0535471Y0160372D01*
X0538030Y0160372D02*
X0538030Y0148364D01*
X0537341Y0147600D01*
X0548356Y0165400D02*
X0554100Y0165400D01*
X0548356Y0165400D02*
X0548266Y0165490D01*
X0539309Y0169328D02*
X0539309Y0171609D01*
X0540600Y0172900D01*
X0540600Y0178274D02*
X0540589Y0178285D01*
X0540589Y0183261D01*
X0537000Y0186850D01*
X0537000Y0190300D01*
X0536050Y0191250D01*
X0528750Y0188050D01*
X0525513Y0185650D01*
X0525530Y0185667D01*
X0525513Y0185650D02*
X0522350Y0185650D01*
X0520792Y0184092D01*
X0514703Y0184092D01*
X0514677Y0182150D02*
X0514703Y0182124D01*
X0520576Y0182124D01*
X0522000Y0180700D01*
X0525379Y0180700D01*
X0525530Y0180549D01*
X0525931Y0180950D01*
X0528150Y0180950D01*
X0530900Y0183700D01*
X0531550Y0183700D01*
X0531000Y0178300D02*
X0531015Y0178285D01*
X0535471Y0178285D01*
X0543148Y0178285D02*
X0543148Y0185698D01*
X0543750Y0186300D01*
X0525513Y0185650D02*
X0525363Y0185500D01*
X0514703Y0186061D02*
X0513300Y0186700D01*
X0504900Y0188400D02*
X0504861Y0188439D01*
X0504861Y0193935D01*
X0506829Y0193935D02*
X0507035Y0193935D01*
X0507300Y0193900D01*
X0504850Y0182150D02*
X0501400Y0182000D01*
X0504737Y0182063D02*
X0504737Y0182083D01*
X0504737Y0182063D02*
X0504850Y0182150D01*
X0523500Y0197220D02*
X0524743Y0198462D01*
X0517520Y0205600D02*
X0518443Y0207124D01*
X0489550Y0231950D02*
X0484850Y0227250D01*
X0478900Y0227250D01*
X0476300Y0229850D01*
X0476300Y0233000D01*
X0476218Y0233082D01*
X0476218Y0233290D01*
X0474988Y0234520D01*
X0474780Y0234520D01*
X0473350Y0235950D01*
X0469450Y0235950D01*
X0467600Y0234100D01*
X0467600Y0233920D01*
X0465744Y0233920D01*
X0465744Y0230936D01*
X0464776Y0230936D01*
X0464776Y0233920D01*
X0462897Y0233920D01*
X0462634Y0233850D01*
X0462430Y0233905D01*
X0460551Y0233905D01*
X0460551Y0230921D01*
X0459583Y0230921D01*
X0459583Y0233905D01*
X0457704Y0233905D01*
X0457461Y0233839D01*
X0455850Y0235450D01*
X0453650Y0235450D01*
X0452450Y0236650D01*
X0452450Y0241000D01*
X0454650Y0243200D01*
X0485200Y0243200D01*
X0489550Y0238850D01*
X0489550Y0237816D01*
X0489400Y0237454D01*
X0489400Y0235146D01*
X0489550Y0234784D01*
X0489550Y0231950D01*
X0489256Y0231656D02*
X0476300Y0231656D01*
X0476300Y0230658D02*
X0488258Y0230658D01*
X0487259Y0229659D02*
X0476491Y0229659D01*
X0477489Y0228661D02*
X0486261Y0228661D01*
X0485262Y0227662D02*
X0478488Y0227662D01*
X0476300Y0232655D02*
X0489550Y0232655D01*
X0489550Y0233653D02*
X0475855Y0233653D01*
X0474648Y0234652D02*
X0489550Y0234652D01*
X0489400Y0235650D02*
X0473650Y0235650D01*
X0469150Y0235650D02*
X0453450Y0235650D01*
X0452451Y0236649D02*
X0489400Y0236649D01*
X0489480Y0237647D02*
X0452450Y0237647D01*
X0452450Y0238646D02*
X0489550Y0238646D01*
X0488756Y0239644D02*
X0452450Y0239644D01*
X0452450Y0240643D02*
X0487757Y0240643D01*
X0486759Y0241641D02*
X0453091Y0241641D01*
X0454090Y0242640D02*
X0485760Y0242640D01*
X0468152Y0234652D02*
X0456648Y0234652D01*
X0459583Y0233653D02*
X0460551Y0233653D01*
X0460067Y0234083D02*
X0460067Y0230436D01*
X0461600Y0230436D01*
X0461594Y0229968D02*
X0461594Y0229952D01*
X0460551Y0229952D01*
X0460551Y0226968D01*
X0462430Y0226968D01*
X0462693Y0227038D01*
X0462897Y0226983D01*
X0464776Y0226983D01*
X0464776Y0229968D01*
X0465744Y0229968D01*
X0465744Y0226983D01*
X0467600Y0226983D01*
X0467600Y0224950D01*
X0462450Y0219800D01*
X0457950Y0219800D01*
X0457318Y0219168D01*
X0457089Y0219263D01*
X0455979Y0219263D01*
X0454954Y0218838D01*
X0454670Y0218554D01*
X0454266Y0218662D01*
X0454266Y0223916D01*
X0457399Y0227049D01*
X0457704Y0226968D01*
X0459583Y0226968D01*
X0459583Y0229952D01*
X0460551Y0229952D01*
X0460551Y0230920D01*
X0463732Y0230920D01*
X0463732Y0230936D01*
X0464776Y0230936D01*
X0464776Y0229968D01*
X0461594Y0229968D01*
X0460551Y0229659D02*
X0459583Y0229659D01*
X0459583Y0228661D02*
X0460551Y0228661D01*
X0460551Y0227662D02*
X0459583Y0227662D01*
X0457014Y0226664D02*
X0467600Y0226664D01*
X0467600Y0225665D02*
X0456015Y0225665D01*
X0455017Y0224667D02*
X0467317Y0224667D01*
X0466318Y0223668D02*
X0454266Y0223668D01*
X0454266Y0222670D02*
X0465320Y0222670D01*
X0464321Y0221671D02*
X0454266Y0221671D01*
X0454266Y0220672D02*
X0463322Y0220672D01*
X0457824Y0219674D02*
X0454266Y0219674D01*
X0454000Y0220075D02*
X0455075Y0220175D01*
X0454791Y0218675D02*
X0454266Y0218675D01*
X0444600Y0216700D02*
X0444600Y0209461D01*
X0443739Y0208600D01*
X0443580Y0206200D02*
X0439500Y0206200D01*
X0438000Y0207700D01*
X0438000Y0209600D01*
X0439900Y0211500D01*
X0439900Y0217050D01*
X0436000Y0218500D02*
X0432750Y0221750D01*
X0423600Y0221750D01*
X0418050Y0227300D01*
X0436000Y0218500D02*
X0436000Y0206200D01*
X0438718Y0203482D01*
X0443739Y0203482D01*
X0443739Y0206041D02*
X0443580Y0206200D01*
X0426300Y0207100D02*
X0426300Y0202300D01*
X0430900Y0193900D01*
X0431300Y0188700D01*
X0425300Y0190500D02*
X0423600Y0192200D01*
X0423600Y0196800D01*
X0421057Y0200143D01*
X0420412Y0199643D01*
X0424300Y0200500D02*
X0427000Y0194200D01*
X0420412Y0194919D02*
X0420000Y0194507D01*
X0420000Y0192700D01*
X0417600Y0190300D01*
X0424300Y0200500D02*
X0424300Y0203700D01*
X0423632Y0204368D01*
X0420412Y0204368D01*
X0420412Y0209092D02*
X0420520Y0209200D01*
X0424200Y0209200D01*
X0426300Y0207100D01*
X0459583Y0231656D02*
X0460551Y0231656D01*
X0460551Y0230658D02*
X0464776Y0230658D01*
X0464776Y0231656D02*
X0465744Y0231656D01*
X0465744Y0232655D02*
X0464776Y0232655D01*
X0464776Y0233653D02*
X0465744Y0233653D01*
X0465744Y0229659D02*
X0464776Y0229659D01*
X0464776Y0228661D02*
X0465744Y0228661D01*
X0465744Y0227662D02*
X0464776Y0227662D01*
X0460551Y0232655D02*
X0459583Y0232655D01*
X0460067Y0234083D02*
X0455500Y0238650D01*
X0419750Y0284300D02*
X0389200Y0284300D01*
X0384850Y0288650D01*
X0384850Y0289684D01*
X0385000Y0290046D01*
X0385000Y0292354D01*
X0384850Y0292716D01*
X0384850Y0295550D01*
X0389550Y0300250D01*
X0395500Y0300250D01*
X0398100Y0297650D01*
X0398100Y0294500D01*
X0398182Y0294418D01*
X0398182Y0294210D01*
X0399412Y0292980D01*
X0399620Y0292980D01*
X0401050Y0291550D01*
X0404950Y0291550D01*
X0406800Y0293400D01*
X0406800Y0293580D01*
X0408656Y0293580D01*
X0408656Y0296564D01*
X0409624Y0296564D01*
X0409624Y0293580D01*
X0411503Y0293580D01*
X0411766Y0293650D01*
X0411970Y0293595D01*
X0413849Y0293595D01*
X0413849Y0296579D01*
X0414817Y0296579D01*
X0414817Y0293595D01*
X0416696Y0293595D01*
X0416939Y0293661D01*
X0418550Y0292050D01*
X0420750Y0292050D01*
X0421950Y0290850D01*
X0421950Y0286500D01*
X0419750Y0284300D01*
X0420027Y0284577D02*
X0388923Y0284577D01*
X0387924Y0285576D02*
X0421026Y0285576D01*
X0421950Y0286574D02*
X0386926Y0286574D01*
X0385927Y0287573D02*
X0421950Y0287573D01*
X0421950Y0288571D02*
X0384929Y0288571D01*
X0384850Y0289570D02*
X0421950Y0289570D01*
X0421950Y0290568D02*
X0385000Y0290568D01*
X0385000Y0291567D02*
X0401033Y0291567D01*
X0400035Y0292565D02*
X0384912Y0292565D01*
X0384850Y0293564D02*
X0398828Y0293564D01*
X0398100Y0294562D02*
X0384850Y0294562D01*
X0384861Y0295561D02*
X0398100Y0295561D01*
X0398100Y0296559D02*
X0385859Y0296559D01*
X0386858Y0297558D02*
X0398100Y0297558D01*
X0397194Y0298556D02*
X0387856Y0298556D01*
X0388855Y0299555D02*
X0396195Y0299555D01*
X0404967Y0291567D02*
X0421233Y0291567D01*
X0418035Y0292565D02*
X0405965Y0292565D01*
X0406800Y0293564D02*
X0417036Y0293564D01*
X0414817Y0294562D02*
X0413849Y0294562D01*
X0413849Y0295561D02*
X0414817Y0295561D01*
X0414817Y0296559D02*
X0413849Y0296559D01*
X0413849Y0296580D02*
X0410668Y0296580D01*
X0410668Y0296564D01*
X0409624Y0296564D01*
X0409624Y0297532D01*
X0408656Y0297532D01*
X0408656Y0300517D01*
X0406800Y0300517D01*
X0406800Y0302550D01*
X0411950Y0307700D01*
X0416450Y0307700D01*
X0417082Y0308332D01*
X0417311Y0308237D01*
X0418421Y0308237D01*
X0419446Y0308662D01*
X0419730Y0308946D01*
X0420134Y0308838D01*
X0420134Y0303584D01*
X0417001Y0300451D01*
X0416696Y0300532D01*
X0414817Y0300532D01*
X0414817Y0297548D01*
X0413849Y0297548D01*
X0413849Y0300532D01*
X0411970Y0300532D01*
X0411707Y0300462D01*
X0411503Y0300517D01*
X0409624Y0300517D01*
X0409624Y0297532D01*
X0412805Y0297532D01*
X0412805Y0297548D01*
X0413849Y0297548D01*
X0413849Y0296580D01*
X0414333Y0297064D02*
X0414333Y0293417D01*
X0418900Y0288850D01*
X0414333Y0297064D02*
X0412800Y0297064D01*
X0413849Y0297558D02*
X0414817Y0297558D01*
X0414817Y0298556D02*
X0413849Y0298556D01*
X0413849Y0299555D02*
X0414817Y0299555D01*
X0417103Y0300553D02*
X0406800Y0300553D01*
X0406800Y0301552D02*
X0418102Y0301552D01*
X0419100Y0302550D02*
X0406800Y0302550D01*
X0407799Y0303549D02*
X0420099Y0303549D01*
X0420134Y0304547D02*
X0408797Y0304547D01*
X0409796Y0305546D02*
X0420134Y0305546D01*
X0420134Y0306544D02*
X0410794Y0306544D01*
X0411793Y0307543D02*
X0420134Y0307543D01*
X0420400Y0307425D02*
X0419325Y0307325D01*
X0419156Y0308541D02*
X0420134Y0308541D01*
X0429800Y0310800D02*
X0429800Y0318039D01*
X0430661Y0318900D01*
X0430820Y0321300D02*
X0434900Y0321300D01*
X0436400Y0319800D01*
X0436400Y0317900D01*
X0434500Y0316000D01*
X0434500Y0310450D01*
X0438400Y0309000D02*
X0441650Y0305750D01*
X0450800Y0305750D01*
X0456350Y0300200D01*
X0438400Y0309000D02*
X0438400Y0321300D01*
X0435682Y0324018D01*
X0430661Y0324018D01*
X0430661Y0321459D02*
X0430820Y0321300D01*
X0448100Y0320400D02*
X0448100Y0325200D01*
X0443500Y0333600D01*
X0443100Y0338800D01*
X0449100Y0337000D02*
X0450800Y0335300D01*
X0450800Y0330700D01*
X0453343Y0327357D01*
X0453988Y0327857D01*
X0450100Y0327000D02*
X0450100Y0323800D01*
X0450768Y0323132D01*
X0453988Y0323132D01*
X0453988Y0318408D02*
X0453880Y0318300D01*
X0450200Y0318300D01*
X0448100Y0320400D01*
X0450100Y0327000D02*
X0447400Y0333300D01*
X0453988Y0332581D02*
X0454400Y0332993D01*
X0454400Y0334800D01*
X0456800Y0337200D01*
X0446300Y0357200D02*
X0448900Y0364900D01*
X0457113Y0367800D01*
X0457653Y0367260D01*
X0458460Y0371900D02*
X0458473Y0371913D01*
X0458460Y0371900D02*
X0448500Y0369000D01*
X0441800Y0355200D01*
X0419800Y0349700D01*
X0414908Y0343308D01*
X0404972Y0343408D01*
X0404972Y0345376D02*
X0413576Y0345376D01*
X0418900Y0351700D01*
X0440200Y0357100D01*
X0447000Y0371000D01*
X0454300Y0373400D01*
X0455500Y0377000D01*
X0458859Y0377000D01*
X0459293Y0376566D01*
X0460114Y0381218D02*
X0459814Y0381714D01*
X0460900Y0384900D01*
X0463050Y0397050D02*
X0441368Y0396300D01*
X0431241Y0396300D01*
X0431000Y0405250D01*
X0431856Y0405515D01*
X0432417Y0405515D01*
X0432669Y0405766D01*
X0433100Y0405900D01*
X0433100Y0406198D01*
X0433647Y0406745D01*
X0433647Y0412816D01*
X0432868Y0413595D01*
X0432945Y0413729D01*
X0433047Y0414110D01*
X0433047Y0415989D01*
X0430063Y0415989D01*
X0430063Y0416957D01*
X0433047Y0416957D01*
X0433047Y0418836D01*
X0432975Y0419107D01*
X0433038Y0419343D01*
X0433038Y0421222D01*
X0430054Y0421222D01*
X0430054Y0422191D01*
X0433038Y0422191D01*
X0433038Y0423550D01*
X0437150Y0423550D01*
X0455000Y0421850D01*
X0463450Y0415250D01*
X0463050Y0397050D01*
X0463058Y0397409D02*
X0431211Y0397409D01*
X0431184Y0398408D02*
X0463080Y0398408D01*
X0463102Y0399406D02*
X0431157Y0399406D01*
X0431130Y0400405D02*
X0463124Y0400405D01*
X0463146Y0401403D02*
X0431103Y0401403D01*
X0431077Y0402402D02*
X0463168Y0402402D01*
X0463190Y0403400D02*
X0431050Y0403400D01*
X0431023Y0404399D02*
X0463212Y0404399D01*
X0463233Y0405397D02*
X0431475Y0405397D01*
X0433298Y0406396D02*
X0463255Y0406396D01*
X0463277Y0407394D02*
X0433647Y0407394D01*
X0433647Y0408393D02*
X0463299Y0408393D01*
X0463321Y0409391D02*
X0433647Y0409391D01*
X0433647Y0410390D02*
X0463343Y0410390D01*
X0463365Y0411388D02*
X0433647Y0411388D01*
X0433647Y0412387D02*
X0463387Y0412387D01*
X0463409Y0413385D02*
X0433078Y0413385D01*
X0433047Y0414384D02*
X0463431Y0414384D01*
X0463281Y0415382D02*
X0433047Y0415382D01*
X0433047Y0417379D02*
X0460724Y0417379D01*
X0462002Y0416381D02*
X0430063Y0416381D01*
X0430063Y0416958D02*
X0429094Y0416958D01*
X0429094Y0420139D01*
X0429085Y0420139D01*
X0429085Y0421222D01*
X0430054Y0421222D01*
X0430054Y0418041D01*
X0430063Y0418041D01*
X0430063Y0416958D01*
X0430063Y0417379D02*
X0429094Y0417379D01*
X0429094Y0416957D02*
X0429094Y0415989D01*
X0426110Y0415989D01*
X0426110Y0414110D01*
X0426212Y0413729D01*
X0426229Y0413700D01*
X0425600Y0413700D01*
X0418200Y0421100D01*
X0418200Y0421976D01*
X0418490Y0422676D01*
X0418490Y0423785D01*
X0418200Y0424485D01*
X0418200Y0424700D01*
X0417786Y0425114D01*
X0417889Y0425499D01*
X0420180Y0425499D01*
X0420627Y0425462D01*
X0420743Y0425499D01*
X0420866Y0425499D01*
X0421280Y0425670D01*
X0421707Y0425807D01*
X0421800Y0425886D01*
X0421913Y0425933D01*
X0421930Y0425950D01*
X0424750Y0425950D01*
X0426220Y0424480D01*
X0426203Y0424451D01*
X0426101Y0424069D01*
X0426101Y0422191D01*
X0429085Y0422191D01*
X0429085Y0421222D01*
X0426101Y0421222D01*
X0426101Y0419343D01*
X0426173Y0419072D01*
X0426110Y0418836D01*
X0426110Y0416957D01*
X0429094Y0416957D01*
X0429094Y0416381D02*
X0422919Y0416381D01*
X0421921Y0417379D02*
X0426110Y0417379D01*
X0426110Y0418378D02*
X0420922Y0418378D01*
X0419924Y0419376D02*
X0426101Y0419376D01*
X0426101Y0420375D02*
X0418925Y0420375D01*
X0418200Y0421373D02*
X0429085Y0421373D01*
X0429569Y0421706D02*
X0430406Y0421706D01*
X0433400Y0424700D01*
X0433400Y0443350D01*
X0432350Y0444400D01*
X0403900Y0444400D01*
X0402709Y0443209D01*
X0402709Y0436026D01*
X0405268Y0436026D02*
X0405268Y0440568D01*
X0406400Y0441700D01*
X0415350Y0441150D01*
X0419500Y0441300D02*
X0414526Y0436026D01*
X0407827Y0436026D01*
X0406700Y0428400D02*
X0402250Y0428400D01*
X0402000Y0429050D01*
X0403988Y0427069D02*
X0405369Y0427069D01*
X0406700Y0428400D01*
X0412894Y0428400D02*
X0412945Y0428349D01*
X0412995Y0428399D01*
X0415099Y0428299D01*
X0417854Y0425367D02*
X0425333Y0425367D01*
X0426181Y0424369D02*
X0418248Y0424369D01*
X0418490Y0423370D02*
X0426101Y0423370D01*
X0426101Y0422372D02*
X0418364Y0422372D01*
X0423918Y0415382D02*
X0426110Y0415382D01*
X0426110Y0414384D02*
X0424916Y0414384D01*
X0429094Y0418378D02*
X0430054Y0418378D01*
X0430054Y0419376D02*
X0429094Y0419376D01*
X0429085Y0420375D02*
X0430054Y0420375D01*
X0430054Y0421373D02*
X0455610Y0421373D01*
X0456889Y0420375D02*
X0433038Y0420375D01*
X0433038Y0419376D02*
X0458167Y0419376D01*
X0459446Y0418378D02*
X0433047Y0418378D01*
X0433038Y0422372D02*
X0449521Y0422372D01*
X0451252Y0425715D02*
X0444785Y0425715D01*
X0442100Y0428400D01*
X0442100Y0432041D01*
X0442100Y0437159D02*
X0443451Y0438510D01*
X0451252Y0438510D01*
X0455200Y0438510D01*
X0455200Y0440900D01*
X0451252Y0440900D01*
X0451252Y0441069D01*
X0451252Y0443628D02*
X0455200Y0443628D01*
X0455200Y0443600D01*
X0456300Y0443600D01*
X0455200Y0443600D02*
X0455200Y0440900D01*
X0459300Y0439600D02*
X0455651Y0435951D01*
X0451252Y0435951D01*
X0451252Y0433392D02*
X0456092Y0433392D01*
X0461100Y0438400D01*
X0461100Y0455700D01*
X0446300Y0470500D01*
X0447700Y0466500D02*
X0442800Y0466500D01*
X0438800Y0470500D01*
X0442500Y0474300D02*
X0438800Y0478000D01*
X0442500Y0474300D02*
X0450300Y0474300D01*
X0451200Y0473400D01*
X0447700Y0466500D02*
X0459300Y0454900D01*
X0459300Y0439600D01*
X0464700Y0445800D02*
X0465800Y0446900D01*
X0464700Y0445800D02*
X0464700Y0431700D01*
X0468126Y0428274D01*
X0474283Y0428274D01*
X0474283Y0430833D02*
X0481367Y0430833D01*
X0486300Y0425900D01*
X0493000Y0425900D01*
X0497100Y0430000D01*
X0493400Y0433800D02*
X0486600Y0433800D01*
X0481890Y0438510D01*
X0474283Y0438510D01*
X0474283Y0441069D02*
X0486031Y0441069D01*
X0489600Y0437500D01*
X0493400Y0433800D02*
X0497100Y0437500D01*
X0489600Y0430000D02*
X0486300Y0430000D01*
X0482908Y0433392D01*
X0474283Y0433392D01*
X0474283Y0425715D02*
X0467685Y0425715D01*
X0462900Y0430500D01*
X0462900Y0449700D01*
X0464000Y0450800D01*
X0469200Y0443600D02*
X0469600Y0443628D01*
X0474283Y0443628D01*
X0477500Y0459600D02*
X0477500Y0465207D01*
X0477687Y0465394D01*
X0472969Y0465147D02*
X0472300Y0464478D01*
X0472300Y0460000D01*
X0468251Y0460251D02*
X0468251Y0464900D01*
X0468251Y0460251D02*
X0468000Y0459400D01*
X0459785Y0425715D02*
X0451252Y0425715D01*
X0459785Y0425715D02*
X0470700Y0414800D01*
X0481750Y0414800D01*
X0481850Y0414700D01*
X0484700Y0393700D02*
X0509500Y0418500D01*
X0509500Y0428800D01*
X0520269Y0439569D01*
X0526921Y0439569D01*
X0526691Y0439800D01*
X0526921Y0442128D02*
X0508328Y0442128D01*
X0508200Y0442000D01*
X0520510Y0437010D02*
X0511400Y0427900D01*
X0511400Y0417700D01*
X0485500Y0391800D01*
X0431200Y0391800D01*
X0408400Y0369000D01*
X0404974Y0369000D01*
X0404972Y0368998D01*
X0404972Y0367030D02*
X0405143Y0367000D01*
X0409300Y0367000D01*
X0432200Y0389900D01*
X0486300Y0389900D01*
X0513300Y0416900D01*
X0513300Y0425500D01*
X0515600Y0427800D01*
X0515200Y0423700D02*
X0516100Y0423700D01*
X0515200Y0423700D02*
X0515200Y0416100D01*
X0487100Y0388000D01*
X0433200Y0388000D01*
X0410261Y0365061D01*
X0404972Y0365061D01*
X0404972Y0363093D02*
X0411193Y0363093D01*
X0417700Y0369600D01*
X0419100Y0369600D01*
X0421000Y0367000D02*
X0422600Y0368600D01*
X0422600Y0370000D01*
X0425234Y0372634D01*
X0429966Y0377366D02*
X0429966Y0377666D01*
X0434000Y0381400D01*
X0439134Y0378466D02*
X0439566Y0378266D01*
X0444400Y0381800D01*
X0443866Y0373734D02*
X0443100Y0372967D01*
X0443100Y0369300D01*
X0437100Y0358700D01*
X0427100Y0358700D01*
X0423500Y0355100D01*
X0419200Y0355100D01*
X0411445Y0347345D01*
X0404972Y0347345D01*
X0404972Y0349313D02*
X0410413Y0349313D01*
X0418000Y0356900D01*
X0419400Y0356900D01*
X0421800Y0359300D01*
X0421800Y0360400D01*
X0424367Y0362967D01*
X0434686Y0362967D01*
X0432000Y0368900D02*
X0437381Y0368900D01*
X0437514Y0369033D01*
X0421000Y0367000D02*
X0421000Y0364200D01*
X0420000Y0363200D01*
X0420000Y0360500D01*
X0418200Y0358700D01*
X0416700Y0358700D01*
X0409282Y0351282D01*
X0404972Y0351282D01*
X0404972Y0353250D02*
X0401150Y0353250D01*
X0397000Y0346300D01*
X0397200Y0344900D01*
X0396100Y0349100D02*
X0392800Y0349600D01*
X0378800Y0349600D01*
X0376800Y0347600D01*
X0374300Y0349900D02*
X0368900Y0349900D01*
X0366345Y0347345D01*
X0359697Y0347345D01*
X0359697Y0349313D02*
X0365413Y0349313D01*
X0368100Y0352000D01*
X0373500Y0352000D01*
X0383000Y0361500D01*
X0386400Y0361500D01*
X0404400Y0379500D01*
X0404400Y0411700D01*
X0405300Y0412600D01*
X0405300Y0418080D01*
X0405268Y0418113D01*
X0405200Y0418045D01*
X0402709Y0418113D02*
X0402709Y0413309D01*
X0398000Y0408600D01*
X0398000Y0407100D01*
X0406400Y0410000D02*
X0407827Y0411427D01*
X0407827Y0418113D01*
X0407900Y0418039D01*
X0400150Y0418113D02*
X0400100Y0418113D01*
X0406400Y0410000D02*
X0406400Y0378500D01*
X0387600Y0359700D01*
X0384100Y0359700D01*
X0374300Y0349900D01*
X0373000Y0345500D02*
X0369550Y0345350D01*
X0369663Y0345437D01*
X0369663Y0345417D01*
X0373000Y0345500D02*
X0380000Y0343600D01*
X0391100Y0343600D01*
X0397098Y0337602D01*
X0397098Y0333565D01*
X0397115Y0333565D01*
X0402215Y0333565D01*
X0405650Y0337000D01*
X0404972Y0341439D02*
X0404961Y0341439D01*
X0401000Y0338300D01*
X0397115Y0333565D02*
X0397115Y0333085D01*
X0401250Y0328950D01*
X0401250Y0325922D01*
X0401326Y0325846D01*
X0396208Y0325846D02*
X0395130Y0326924D01*
X0395130Y0333565D01*
X0393161Y0333565D02*
X0393161Y0337839D01*
X0392250Y0338750D01*
X0387750Y0338750D01*
X0386850Y0339650D01*
X0385287Y0333565D02*
X0385287Y0326813D01*
X0386300Y0325800D01*
X0389224Y0322476D02*
X0389224Y0333565D01*
X0391193Y0333565D02*
X0391193Y0323507D01*
X0397800Y0316900D01*
X0406300Y0316900D01*
X0407900Y0318500D01*
X0407900Y0320500D01*
X0408859Y0321459D01*
X0412748Y0321459D01*
X0412748Y0318900D02*
X0408948Y0315100D01*
X0396600Y0315100D01*
X0389224Y0322476D01*
X0383319Y0321319D02*
X0383319Y0333565D01*
X0380400Y0328000D02*
X0379800Y0327400D01*
X0379800Y0325600D01*
X0379800Y0316446D01*
X0383600Y0312646D01*
X0383300Y0321300D02*
X0383319Y0321319D01*
X0379800Y0325600D02*
X0377413Y0327987D01*
X0377413Y0333565D01*
X0375445Y0333565D02*
X0375445Y0338555D01*
X0376700Y0339200D01*
X0375445Y0333565D02*
X0375445Y0325955D01*
X0377500Y0323900D01*
X0377500Y0314496D01*
X0375650Y0312646D01*
X0369154Y0317646D01*
X0364200Y0316800D01*
X0369800Y0321600D02*
X0369800Y0325500D01*
X0371508Y0327208D01*
X0371508Y0333565D01*
X0373476Y0333565D02*
X0373476Y0323224D01*
X0374200Y0322500D01*
X0369539Y0333565D02*
X0369539Y0339061D01*
X0369500Y0339100D01*
X0367571Y0333565D02*
X0367365Y0333565D01*
X0367100Y0333600D01*
X0361100Y0340800D02*
X0359697Y0341439D01*
X0359697Y0343408D02*
X0353608Y0343408D01*
X0352050Y0341850D01*
X0348887Y0341850D01*
X0345650Y0339450D01*
X0338350Y0336250D01*
X0337400Y0337200D01*
X0337400Y0340650D01*
X0333811Y0344239D01*
X0333811Y0349215D01*
X0333800Y0349226D01*
X0331252Y0349215D02*
X0331252Y0341802D01*
X0330650Y0341200D01*
X0338929Y0349215D02*
X0343385Y0349215D01*
X0343400Y0349200D01*
X0346250Y0346550D02*
X0343500Y0343800D01*
X0342850Y0343800D01*
X0346250Y0346550D02*
X0348469Y0346550D01*
X0348870Y0346951D01*
X0349021Y0346800D01*
X0352400Y0346800D01*
X0353824Y0345376D01*
X0359697Y0345376D01*
X0359723Y0345350D01*
X0359697Y0351282D02*
X0363182Y0351282D01*
X0363200Y0351300D01*
X0364300Y0351300D01*
X0367100Y0353900D01*
X0369500Y0353900D01*
X0371200Y0354900D01*
X0372800Y0358400D02*
X0371100Y0360100D01*
X0367707Y0363093D01*
X0359697Y0363093D01*
X0355907Y0363093D01*
X0354200Y0364500D01*
X0353762Y0364500D01*
X0348870Y0369392D01*
X0353700Y0371100D02*
X0353833Y0370967D01*
X0359697Y0370967D01*
X0359697Y0361124D02*
X0355176Y0361124D01*
X0353900Y0362100D01*
X0344137Y0362100D01*
X0344047Y0362010D01*
X0344296Y0359700D02*
X0348800Y0359700D01*
X0350600Y0357000D01*
X0353281Y0355219D01*
X0359697Y0355219D01*
X0359697Y0357187D02*
X0355813Y0357187D01*
X0353300Y0358800D01*
X0348200Y0356700D02*
X0350300Y0353100D01*
X0348200Y0356700D02*
X0344155Y0356700D01*
X0344047Y0356892D01*
X0344047Y0359451D02*
X0344296Y0359700D01*
X0343100Y0366300D02*
X0338900Y0366300D01*
X0338900Y0367099D01*
X0338929Y0367128D01*
X0336370Y0367128D02*
X0336370Y0379136D01*
X0337059Y0379900D01*
X0334900Y0396800D02*
X0334900Y0414800D01*
X0332600Y0417100D01*
X0328003Y0417000D01*
X0328105Y0417102D01*
X0354078Y0430922D02*
X0354200Y0430800D01*
X0354078Y0430922D02*
X0354078Y0437341D01*
X0358796Y0437588D02*
X0358800Y0437584D01*
X0358800Y0422800D01*
X0363850Y0431850D02*
X0363600Y0432100D01*
X0363600Y0437749D02*
X0363514Y0437835D01*
X0365996Y0407384D02*
X0368396Y0407304D01*
X0371300Y0407400D01*
X0365996Y0407384D02*
X0364700Y0406088D01*
X0364700Y0393014D01*
X0368555Y0393014D01*
X0369539Y0392030D01*
X0369539Y0384450D01*
X0367571Y0382481D01*
X0367571Y0378841D01*
X0369539Y0378841D02*
X0369539Y0384450D01*
X0373476Y0387076D02*
X0373476Y0378841D01*
X0371508Y0378841D02*
X0371508Y0374692D01*
X0370800Y0373400D01*
X0374000Y0370400D02*
X0375445Y0371845D01*
X0375445Y0378841D01*
X0377413Y0378841D02*
X0377413Y0371987D01*
X0378900Y0370500D01*
X0383600Y0372100D02*
X0385287Y0373013D01*
X0385287Y0378841D01*
X0385287Y0383087D01*
X0385700Y0383500D01*
X0384250Y0383500D01*
X0383350Y0382600D01*
X0383319Y0382381D01*
X0383319Y0378841D01*
X0381350Y0378841D02*
X0381350Y0384150D01*
X0383600Y0386400D01*
X0386400Y0384200D02*
X0388000Y0384200D01*
X0386400Y0384200D02*
X0385700Y0383500D01*
X0387256Y0378841D02*
X0387256Y0375161D01*
X0387195Y0375200D01*
X0389224Y0375219D02*
X0389224Y0378841D01*
X0391193Y0378841D02*
X0391193Y0389274D01*
X0393555Y0391636D01*
X0392200Y0392991D01*
X0392200Y0397000D01*
X0384303Y0398132D02*
X0384303Y0403697D01*
X0381800Y0406200D01*
X0379100Y0406200D01*
X0376700Y0403800D01*
X0376700Y0398403D01*
X0376429Y0398132D01*
X0372200Y0398132D01*
X0372200Y0390000D01*
X0371508Y0389308D01*
X0371508Y0378841D01*
X0377400Y0384700D02*
X0379382Y0382718D01*
X0379382Y0378841D01*
X0373476Y0387076D02*
X0375500Y0389100D01*
X0380389Y0389100D01*
X0384303Y0393014D01*
X0380300Y0394200D02*
X0380300Y0402600D01*
X0372200Y0398132D02*
X0368555Y0398132D01*
X0364700Y0393014D02*
X0360681Y0393014D01*
X0357200Y0396200D02*
X0357200Y0389400D01*
X0360200Y0386400D01*
X0361500Y0386400D01*
X0357200Y0396200D02*
X0359132Y0398132D01*
X0360681Y0398132D01*
X0376429Y0393014D02*
X0379114Y0393014D01*
X0380300Y0394200D01*
X0393161Y0384561D02*
X0393161Y0378841D01*
X0393200Y0378880D01*
X0395130Y0378841D02*
X0395130Y0374430D01*
X0392200Y0373000D01*
X0397098Y0378841D02*
X0397157Y0382800D01*
X0401300Y0386900D01*
X0398673Y0390073D02*
X0398673Y0391636D01*
X0394200Y0385600D02*
X0393161Y0384561D01*
X0404972Y0370967D02*
X0407467Y0370967D01*
X0430200Y0393700D01*
X0484700Y0393700D01*
X0510551Y0399406D02*
X0522802Y0399406D01*
X0526650Y0400400D02*
X0513100Y0396900D01*
X0510750Y0398550D01*
X0509300Y0404800D01*
X0511700Y0407900D01*
X0516650Y0411950D01*
X0524000Y0412500D01*
X0524000Y0413890D01*
X0525398Y0413890D01*
X0525398Y0416874D01*
X0526366Y0416874D01*
X0526366Y0413890D01*
X0528245Y0413890D01*
X0528510Y0413961D01*
X0528701Y0413909D01*
X0530580Y0413909D01*
X0530580Y0416894D01*
X0531548Y0416894D01*
X0531548Y0413909D01*
X0533427Y0413909D01*
X0533450Y0413916D01*
X0533450Y0406150D01*
X0526650Y0400400D01*
X0526655Y0400405D02*
X0510320Y0400405D01*
X0510088Y0401403D02*
X0527836Y0401403D01*
X0529017Y0402402D02*
X0509856Y0402402D01*
X0509625Y0403400D02*
X0530198Y0403400D01*
X0531379Y0404399D02*
X0509393Y0404399D01*
X0509762Y0405397D02*
X0532560Y0405397D01*
X0533450Y0406396D02*
X0510535Y0406396D01*
X0511308Y0407394D02*
X0533450Y0407394D01*
X0533450Y0408393D02*
X0512302Y0408393D01*
X0513522Y0409391D02*
X0533450Y0409391D01*
X0533450Y0410390D02*
X0514743Y0410390D01*
X0515963Y0411388D02*
X0533450Y0411388D01*
X0533450Y0412387D02*
X0522485Y0412387D01*
X0524000Y0413385D02*
X0533450Y0413385D01*
X0531548Y0414384D02*
X0530580Y0414384D01*
X0530580Y0415382D02*
X0531548Y0415382D01*
X0531548Y0416381D02*
X0530580Y0416381D01*
X0530579Y0416894D02*
X0527398Y0416894D01*
X0527398Y0416874D01*
X0526366Y0416874D01*
X0526366Y0417843D01*
X0525398Y0417843D01*
X0525398Y0420827D01*
X0524000Y0420827D01*
X0524000Y0422600D01*
X0527550Y0426150D01*
X0532450Y0426150D01*
X0532685Y0426385D01*
X0533619Y0426772D01*
X0533904Y0427056D01*
X0534307Y0426948D01*
X0534307Y0425976D01*
X0534741Y0424928D01*
X0534900Y0424770D01*
X0534900Y0421600D01*
X0534746Y0421446D01*
X0534721Y0421446D01*
X0533942Y0420667D01*
X0533808Y0420744D01*
X0533427Y0420846D01*
X0531548Y0420846D01*
X0531548Y0417862D01*
X0530580Y0417862D01*
X0530580Y0420846D01*
X0528701Y0420846D01*
X0528436Y0420775D01*
X0528245Y0420827D01*
X0526366Y0420827D01*
X0526366Y0417843D01*
X0529547Y0417843D01*
X0529547Y0417862D01*
X0530579Y0417862D01*
X0530579Y0416894D01*
X0530579Y0417379D02*
X0526366Y0417379D01*
X0526366Y0416381D02*
X0525398Y0416381D01*
X0525398Y0415382D02*
X0526366Y0415382D01*
X0526366Y0414384D02*
X0525398Y0414384D01*
X0528700Y0415000D02*
X0535600Y0408100D01*
X0548300Y0408100D01*
X0549950Y0409750D01*
X0549950Y0415700D01*
X0556550Y0421900D01*
X0557650Y0436850D01*
X0552372Y0442128D01*
X0544835Y0442128D01*
X0544835Y0439569D02*
X0550731Y0439569D01*
X0555100Y0435200D01*
X0553850Y0424800D01*
X0551600Y0422350D01*
X0550500Y0427500D02*
X0544835Y0433165D01*
X0544835Y0437010D01*
X0544835Y0444687D02*
X0547200Y0445987D01*
X0537200Y0449806D02*
X0537157Y0449806D01*
X0534598Y0449806D02*
X0534500Y0449806D01*
X0533900Y0442850D02*
X0535878Y0440922D01*
X0535878Y0440849D01*
X0526921Y0437010D02*
X0520510Y0437010D01*
X0526767Y0425367D02*
X0534559Y0425367D01*
X0534307Y0426366D02*
X0532666Y0426366D01*
X0534900Y0424369D02*
X0525769Y0424369D01*
X0524770Y0423370D02*
X0534900Y0423370D01*
X0534900Y0422372D02*
X0524000Y0422372D01*
X0524000Y0421373D02*
X0534648Y0421373D01*
X0531548Y0420375D02*
X0530580Y0420375D01*
X0530580Y0419376D02*
X0531548Y0419376D01*
X0531548Y0418378D02*
X0530580Y0418378D01*
X0526366Y0418378D02*
X0525398Y0418378D01*
X0525398Y0419376D02*
X0526366Y0419376D01*
X0526366Y0420375D02*
X0525398Y0420375D01*
X0518936Y0398408D02*
X0510953Y0398408D01*
X0512375Y0397409D02*
X0515071Y0397409D01*
X0518654Y0463400D02*
X0518949Y0469195D01*
X0523673Y0469195D02*
X0523673Y0465873D01*
X0523700Y0463200D01*
X0528200Y0464300D02*
X0528200Y0468998D01*
X0528398Y0469195D01*
X0444562Y0396410D02*
X0431238Y0396410D01*
X0429569Y0421706D02*
X0430413Y0422550D01*
X0433038Y0423370D02*
X0439037Y0423370D01*
X0414700Y0456500D02*
X0414800Y0461352D01*
X0414695Y0461457D01*
X0409977Y0461210D02*
X0409777Y0458277D01*
X0409100Y0456300D01*
X0405300Y0460304D02*
X0405259Y0460963D01*
X0405300Y0460304D02*
X0403100Y0456600D01*
X0400150Y0436026D02*
X0400100Y0436026D01*
X0416800Y0365800D02*
X0412124Y0361124D01*
X0404972Y0361124D01*
X0404972Y0359156D02*
X0414256Y0359156D01*
X0417100Y0362000D01*
X0416800Y0365800D02*
X0418100Y0365800D01*
X0404972Y0357187D02*
X0398787Y0357187D01*
X0395700Y0354100D01*
X0397219Y0350519D02*
X0400019Y0355219D01*
X0404972Y0355219D01*
X0397219Y0350519D02*
X0396100Y0349100D01*
X0375100Y0358400D02*
X0372800Y0358400D01*
X0368000Y0357100D02*
X0364400Y0356700D01*
X0364100Y0354100D01*
X0362550Y0353250D01*
X0359697Y0353250D01*
X0359697Y0359156D02*
X0363700Y0359200D01*
X0364756Y0360256D01*
X0365544Y0360256D01*
X0349037Y0342000D02*
X0348887Y0341850D01*
X0348870Y0341833D01*
X0350900Y0330280D02*
X0349657Y0329038D01*
X0356880Y0321900D02*
X0355957Y0320376D01*
X0396208Y0324742D02*
X0398800Y0320950D01*
X0396208Y0324742D02*
X0396208Y0325846D01*
X0404300Y0320500D02*
X0407818Y0324018D01*
X0412748Y0324018D01*
X0412748Y0326577D02*
X0411800Y0326577D01*
X0411200Y0327177D01*
X0409624Y0299555D02*
X0408656Y0299555D01*
X0408656Y0298556D02*
X0409624Y0298556D01*
X0409624Y0297558D02*
X0408656Y0297558D01*
X0408656Y0296559D02*
X0409624Y0296559D01*
X0409624Y0295561D02*
X0408656Y0295561D01*
X0408656Y0294562D02*
X0409624Y0294562D01*
X0335091Y0355891D02*
X0335091Y0358172D01*
X0335091Y0355891D02*
X0333800Y0354600D01*
X0326134Y0362010D02*
X0326044Y0362100D01*
X0320300Y0362100D01*
X0119600Y0197552D02*
X0119500Y0192700D01*
X0119600Y0197552D02*
X0119495Y0197657D01*
X0114777Y0197410D02*
X0114577Y0194477D01*
X0113900Y0192500D01*
X0110100Y0196504D02*
X0110059Y0197163D01*
X0110100Y0196504D02*
X0107900Y0192800D01*
X0111200Y0177900D02*
X0120150Y0177350D01*
X0124300Y0177500D02*
X0119326Y0172226D01*
X0112627Y0172226D01*
X0110068Y0172226D02*
X0110068Y0176768D01*
X0111200Y0177900D01*
X0104950Y0172226D02*
X0104900Y0172226D01*
X0117694Y0164600D02*
X0117745Y0164549D01*
X0117795Y0164599D01*
X0119899Y0164499D01*
X0039891Y0094372D02*
X0039891Y0092091D01*
X0038600Y0090800D01*
X0038600Y0085426D02*
X0038611Y0085415D01*
X0038611Y0080439D01*
X0042200Y0076850D01*
X0042200Y0073400D01*
X0043150Y0072450D01*
X0050450Y0075650D01*
X0053687Y0078050D01*
X0053670Y0078033D01*
X0053687Y0078050D02*
X0056850Y0078050D01*
X0058408Y0079608D01*
X0064497Y0079608D01*
X0064523Y0081550D02*
X0064497Y0081576D01*
X0058624Y0081576D01*
X0057200Y0083000D01*
X0053821Y0083000D01*
X0053670Y0083151D01*
X0053269Y0082750D01*
X0051050Y0082750D01*
X0048300Y0080000D01*
X0047650Y0080000D01*
X0048200Y0085400D02*
X0048185Y0085415D01*
X0043729Y0085415D01*
X0036052Y0085415D02*
X0036052Y0078002D01*
X0035450Y0077400D01*
X0053687Y0078050D02*
X0053837Y0078200D01*
X0064497Y0077639D02*
X0065900Y0077000D01*
X0074300Y0075300D02*
X0074339Y0075261D01*
X0074339Y0069765D01*
X0072371Y0069765D02*
X0072165Y0069765D01*
X0071900Y0069800D01*
X0061680Y0058100D02*
X0060757Y0056576D01*
X0054457Y0065238D02*
X0055700Y0066480D01*
X0030934Y0098210D02*
X0030844Y0098300D01*
X0025100Y0098300D01*
X0090852Y0032952D02*
X0102900Y0032952D01*
X0102900Y0033850D02*
X0102900Y0030700D01*
X0102982Y0030618D01*
X0102982Y0030410D01*
X0104212Y0029180D01*
X0104420Y0029180D01*
X0105850Y0027750D01*
X0109750Y0027750D01*
X0111600Y0029600D01*
X0111600Y0029780D01*
X0113456Y0029780D01*
X0113456Y0032764D01*
X0114424Y0032764D01*
X0114424Y0029780D01*
X0116303Y0029780D01*
X0116566Y0029850D01*
X0116770Y0029795D01*
X0118649Y0029795D01*
X0118649Y0032779D01*
X0119617Y0032779D01*
X0119617Y0029795D01*
X0121496Y0029795D01*
X0121739Y0029861D01*
X0123350Y0028250D01*
X0125550Y0028250D01*
X0126750Y0027050D01*
X0126750Y0022700D01*
X0124550Y0020500D01*
X0094000Y0020500D01*
X0089650Y0024850D01*
X0089650Y0025884D01*
X0089800Y0026246D01*
X0089800Y0028554D01*
X0089650Y0028916D01*
X0089650Y0031750D01*
X0094350Y0036450D01*
X0100300Y0036450D01*
X0102900Y0033850D01*
X0102799Y0033951D02*
X0091851Y0033951D01*
X0092849Y0034949D02*
X0101801Y0034949D01*
X0100802Y0035948D02*
X0093848Y0035948D01*
X0089854Y0031954D02*
X0102900Y0031954D01*
X0102900Y0030955D02*
X0089650Y0030955D01*
X0089650Y0029957D02*
X0103435Y0029957D01*
X0104642Y0028958D02*
X0089650Y0028958D01*
X0089800Y0027960D02*
X0105640Y0027960D01*
X0109960Y0027960D02*
X0125840Y0027960D01*
X0126750Y0026961D02*
X0089800Y0026961D01*
X0089683Y0025963D02*
X0126750Y0025963D01*
X0126750Y0024964D02*
X0089650Y0024964D01*
X0090534Y0023966D02*
X0126750Y0023966D01*
X0126750Y0022967D02*
X0091533Y0022967D01*
X0092531Y0021969D02*
X0126019Y0021969D01*
X0125020Y0020970D02*
X0093530Y0020970D01*
X0110958Y0028958D02*
X0122642Y0028958D01*
X0119617Y0029957D02*
X0118649Y0029957D01*
X0119133Y0029617D02*
X0119133Y0033264D01*
X0117600Y0033264D01*
X0117605Y0033732D02*
X0117605Y0033748D01*
X0118649Y0033748D01*
X0118649Y0036732D01*
X0116770Y0036732D01*
X0116507Y0036662D01*
X0116303Y0036717D01*
X0114424Y0036717D01*
X0114424Y0033732D01*
X0113456Y0033732D01*
X0113456Y0036717D01*
X0111600Y0036717D01*
X0111600Y0038750D01*
X0116750Y0043900D01*
X0121250Y0043900D01*
X0121882Y0044532D01*
X0122111Y0044437D01*
X0123221Y0044437D01*
X0124246Y0044862D01*
X0124530Y0045146D01*
X0124934Y0045038D01*
X0124934Y0039784D01*
X0121801Y0036651D01*
X0121496Y0036732D01*
X0119617Y0036732D01*
X0119617Y0033748D01*
X0118649Y0033748D01*
X0118649Y0032780D01*
X0115468Y0032780D01*
X0115468Y0032764D01*
X0114424Y0032764D01*
X0114424Y0033732D01*
X0117605Y0033732D01*
X0118649Y0033951D02*
X0119617Y0033951D01*
X0119617Y0034949D02*
X0118649Y0034949D01*
X0118649Y0035948D02*
X0119617Y0035948D01*
X0122096Y0036946D02*
X0111600Y0036946D01*
X0111600Y0037945D02*
X0123095Y0037945D01*
X0124093Y0038943D02*
X0111793Y0038943D01*
X0112792Y0039942D02*
X0124934Y0039942D01*
X0124934Y0040940D02*
X0113790Y0040940D01*
X0114789Y0041939D02*
X0124934Y0041939D01*
X0124934Y0042937D02*
X0115787Y0042937D01*
X0121286Y0043936D02*
X0124934Y0043936D01*
X0125200Y0043625D02*
X0124125Y0043525D01*
X0124319Y0044934D02*
X0124934Y0044934D01*
X0134600Y0047000D02*
X0134600Y0054239D01*
X0135461Y0055100D01*
X0135620Y0057500D02*
X0139700Y0057500D01*
X0141200Y0056000D01*
X0141200Y0054100D01*
X0139300Y0052200D01*
X0139300Y0046650D01*
X0143200Y0045200D02*
X0146450Y0041950D01*
X0155600Y0041950D01*
X0161150Y0036400D01*
X0143200Y0045200D02*
X0143200Y0057500D01*
X0140482Y0060218D01*
X0135461Y0060218D01*
X0135461Y0057659D02*
X0135620Y0057500D01*
X0152900Y0056600D02*
X0152900Y0061400D01*
X0148300Y0069800D01*
X0147900Y0075000D01*
X0153900Y0073200D02*
X0155600Y0071500D01*
X0155600Y0066900D01*
X0158143Y0063557D01*
X0158788Y0064057D01*
X0154900Y0063200D02*
X0152200Y0069500D01*
X0158788Y0068781D02*
X0159200Y0069193D01*
X0159200Y0071000D01*
X0161600Y0073400D01*
X0154900Y0063200D02*
X0154900Y0060000D01*
X0155568Y0059332D01*
X0158788Y0059332D01*
X0158788Y0054608D02*
X0158680Y0054500D01*
X0155000Y0054500D01*
X0152900Y0056600D01*
X0117548Y0060218D02*
X0112618Y0060218D01*
X0109100Y0056700D01*
X0116000Y0063377D02*
X0116600Y0062777D01*
X0117548Y0062777D01*
X0114424Y0035948D02*
X0113456Y0035948D01*
X0113456Y0034949D02*
X0114424Y0034949D01*
X0114424Y0033951D02*
X0113456Y0033951D01*
X0114424Y0032952D02*
X0118649Y0032952D01*
X0118649Y0031954D02*
X0119617Y0031954D01*
X0119617Y0030955D02*
X0118649Y0030955D01*
X0119133Y0029617D02*
X0123700Y0025050D01*
X0114424Y0029957D02*
X0113456Y0029957D01*
X0113456Y0030955D02*
X0114424Y0030955D01*
X0114424Y0031954D02*
X0113456Y0031954D01*
X0416747Y0160240D02*
X0417287Y0159700D01*
X0449350Y0101850D02*
X0453168Y0101850D01*
X0459700Y0071000D02*
X0459600Y0066148D01*
X0459705Y0066043D01*
X0464423Y0066290D02*
X0464623Y0069223D01*
X0465300Y0071200D01*
X0469100Y0067196D02*
X0469141Y0066537D01*
X0469100Y0067196D02*
X0471300Y0070900D01*
X0435600Y0057000D02*
X0431600Y0061000D01*
X0426700Y0061000D01*
X0423200Y0054100D02*
X0424100Y0053200D01*
X0431900Y0053200D01*
X0435600Y0049500D01*
X0510800Y0089751D02*
X0510886Y0089665D01*
X0515600Y0089916D02*
X0515604Y0089912D01*
X0515600Y0089916D02*
X0515600Y0104700D01*
X0520200Y0096700D02*
X0520322Y0096578D01*
X0520322Y0090159D01*
X0510800Y0095400D02*
X0510550Y0095650D01*
X0539500Y0112700D02*
X0541800Y0110400D01*
X0546397Y0110500D01*
X0546295Y0110398D01*
X0539500Y0112700D02*
X0539500Y0130700D01*
D31*
X0539500Y0130700D03*
X0530500Y0141800D03*
X0520700Y0156400D03*
X0531300Y0161200D03*
X0521100Y0168700D03*
X0524100Y0174400D03*
X0531000Y0178300D03*
X0531550Y0183700D03*
X0536050Y0191250D03*
X0543750Y0186300D03*
X0554100Y0165400D03*
X0512900Y0141100D03*
X0503600Y0154100D03*
X0500400Y0157100D03*
X0495500Y0157000D03*
X0490800Y0155400D03*
X0482200Y0154500D03*
X0486400Y0143300D03*
X0490800Y0141100D03*
X0497000Y0142800D03*
X0480200Y0141900D03*
X0473100Y0140600D03*
X0482200Y0130500D03*
X0494100Y0124900D03*
X0503100Y0120100D03*
X0515600Y0104700D03*
X0520200Y0096700D03*
X0510550Y0095650D03*
X0529200Y0090750D03*
X0554800Y0112000D03*
X0508856Y0167244D03*
X0506400Y0170400D03*
X0499300Y0169100D03*
X0497600Y0179900D03*
X0501000Y0185900D03*
X0504900Y0188400D03*
X0504737Y0182083D03*
X0487550Y0187850D03*
X0494000Y0199500D03*
X0488100Y0201700D03*
X0491100Y0206200D03*
X0500200Y0205000D03*
X0504600Y0205900D03*
X0506100Y0213000D03*
X0510200Y0210700D03*
X0485800Y0229300D03*
X0481450Y0232400D03*
X0478600Y0228450D03*
X0476100Y0235850D03*
X0481600Y0237700D03*
X0486000Y0234650D03*
X0468150Y0236750D03*
X0462250Y0236900D03*
X0455500Y0238650D03*
X0447650Y0240500D03*
X0444600Y0216700D03*
X0439900Y0217050D03*
X0418050Y0227300D03*
X0427000Y0194200D03*
X0425300Y0190500D03*
X0431300Y0188700D03*
X0440600Y0191700D03*
X0459700Y0193100D03*
X0468750Y0190500D03*
X0473400Y0189200D03*
X0478700Y0173400D03*
X0457300Y0165500D03*
X0456300Y0161700D03*
X0455300Y0157900D03*
X0442400Y0158600D03*
X0440400Y0146100D03*
X0430000Y0145700D03*
X0413500Y0142600D03*
X0423200Y0127500D03*
X0413800Y0124000D03*
X0423050Y0119850D03*
X0438050Y0123800D03*
X0438200Y0129250D03*
X0460850Y0134700D03*
X0486100Y0106100D03*
X0483800Y0090100D03*
X0471300Y0070900D03*
X0465300Y0071200D03*
X0459700Y0071000D03*
X0459050Y0086350D03*
X0454900Y0086200D03*
X0449100Y0089450D03*
X0418100Y0083900D03*
X0408600Y0080600D03*
X0410400Y0076700D03*
X0405200Y0083900D03*
X0396900Y0067900D03*
X0416100Y0056350D03*
X0423200Y0054100D03*
X0385400Y0105200D03*
X0387850Y0110350D03*
X0386500Y0115100D03*
X0382550Y0110400D03*
X0391550Y0106400D03*
X0392550Y0112800D03*
X0360650Y0122000D03*
X0355250Y0123350D03*
X0352400Y0119250D03*
X0348950Y0124400D03*
X0359200Y0128100D03*
X0358300Y0103800D03*
X0358800Y0099700D03*
X0335150Y0103050D03*
X0323900Y0100000D03*
X0322800Y0105150D03*
X0331200Y0075800D03*
X0346700Y0074900D03*
X0350700Y0064300D03*
X0346200Y0063200D03*
X0355746Y0064100D03*
X0364000Y0058250D03*
X0256400Y0158550D03*
X0255300Y0163700D03*
X0244050Y0160650D03*
X0226800Y0144450D03*
X0223950Y0140350D03*
X0218550Y0141700D03*
X0220000Y0135600D03*
X0230250Y0139300D03*
X0220900Y0159900D03*
X0220400Y0164000D03*
X0196650Y0153300D03*
X0191350Y0153350D03*
X0192700Y0148600D03*
X0186650Y0150900D03*
X0187650Y0157300D03*
X0193800Y0158500D03*
X0174000Y0179800D03*
X0170600Y0183100D03*
X0168800Y0187000D03*
X0161100Y0179800D03*
X0182300Y0195800D03*
X0163100Y0207350D03*
X0156000Y0209600D03*
X0130100Y0174250D03*
X0124300Y0177500D03*
X0120150Y0177350D03*
X0119500Y0192700D03*
X0113900Y0192500D03*
X0107900Y0192800D03*
X0101450Y0196900D03*
X0095400Y0173600D03*
X0093100Y0157600D03*
X0085100Y0138800D03*
X0076100Y0143600D03*
X0063600Y0159000D03*
X0059000Y0167000D03*
X0068650Y0168050D03*
X0050000Y0172950D03*
X0024400Y0151700D03*
X0039700Y0133000D03*
X0048700Y0121900D03*
X0058500Y0107300D03*
X0047900Y0102500D03*
X0058100Y0095000D03*
X0055100Y0089300D03*
X0048200Y0085400D03*
X0047650Y0080000D03*
X0043150Y0072450D03*
X0035450Y0077400D03*
X0025100Y0098300D03*
X0066300Y0122600D03*
X0075600Y0109600D03*
X0078800Y0106600D03*
X0083700Y0106700D03*
X0088400Y0108300D03*
X0097000Y0109200D03*
X0092800Y0120400D03*
X0088400Y0122600D03*
X0082200Y0120900D03*
X0099000Y0121800D03*
X0106100Y0123100D03*
X0097000Y0133200D03*
X0118350Y0129000D03*
X0141000Y0134450D03*
X0141150Y0139900D03*
X0156000Y0136200D03*
X0165400Y0139700D03*
X0156150Y0143850D03*
X0165700Y0121100D03*
X0149200Y0118000D03*
X0138800Y0117600D03*
X0136800Y0105100D03*
X0123900Y0105800D03*
X0122900Y0102000D03*
X0121900Y0098200D03*
X0100500Y0090300D03*
X0105800Y0074500D03*
X0110450Y0073200D03*
X0119500Y0070600D03*
X0103600Y0057150D03*
X0091100Y0062000D03*
X0088100Y0057500D03*
X0085200Y0064200D03*
X0079000Y0058700D03*
X0074600Y0057800D03*
X0073100Y0050700D03*
X0069000Y0053000D03*
X0074300Y0075300D03*
X0078200Y0077800D03*
X0074463Y0081617D03*
X0081600Y0083800D03*
X0079900Y0094600D03*
X0072800Y0093300D03*
X0070344Y0096456D03*
X0091650Y0075850D03*
X0134600Y0047000D03*
X0139300Y0046650D03*
X0161150Y0036400D03*
X0131550Y0023200D03*
X0123700Y0025050D03*
X0116950Y0026800D03*
X0111050Y0026950D03*
X0103100Y0027850D03*
X0097600Y0026000D03*
X0097750Y0031300D03*
X0100600Y0035250D03*
X0093400Y0034400D03*
X0093200Y0029050D03*
X0138600Y0072000D03*
X0147900Y0075000D03*
X0153900Y0073200D03*
X0152200Y0069500D03*
X0161600Y0073400D03*
X0151100Y0093400D03*
X0232500Y0188800D03*
X0228500Y0199400D03*
X0233000Y0200500D03*
X0223454Y0199600D03*
X0215200Y0205450D03*
X0248000Y0187900D03*
X0368300Y0314500D03*
X0364200Y0316800D03*
X0369800Y0321600D03*
X0374200Y0322500D03*
X0380400Y0328000D03*
X0386300Y0325800D03*
X0383300Y0321300D03*
X0398800Y0320950D03*
X0405650Y0337000D03*
X0401000Y0338300D03*
X0414700Y0334400D03*
X0433800Y0335800D03*
X0443100Y0338800D03*
X0449100Y0337000D03*
X0447400Y0333300D03*
X0456800Y0337200D03*
X0446300Y0357200D03*
X0432000Y0368900D03*
X0434000Y0381400D03*
X0444400Y0381800D03*
X0460900Y0384900D03*
X0451200Y0400000D03*
X0451350Y0407650D03*
X0460600Y0403500D03*
X0481850Y0414700D03*
X0486550Y0417150D03*
X0487900Y0412400D03*
X0491850Y0417100D03*
X0489000Y0422300D03*
X0482850Y0421100D03*
X0469200Y0443600D03*
X0465800Y0446900D03*
X0464000Y0450800D03*
X0456300Y0443600D03*
X0477500Y0459600D03*
X0458300Y0471150D03*
X0451200Y0473400D03*
X0414700Y0456500D03*
X0409100Y0456300D03*
X0403100Y0456600D03*
X0396650Y0460700D03*
X0415350Y0441150D03*
X0419500Y0441300D03*
X0425300Y0438050D03*
X0390600Y0437400D03*
X0388300Y0421400D03*
X0380300Y0402600D03*
X0371300Y0407400D03*
X0358800Y0422800D03*
X0354200Y0430800D03*
X0345200Y0436750D03*
X0363850Y0431850D03*
X0392200Y0397000D03*
X0394200Y0385600D03*
X0388000Y0384200D03*
X0383600Y0386400D03*
X0377400Y0384700D03*
X0370800Y0373400D03*
X0374000Y0370400D03*
X0378900Y0370500D03*
X0383600Y0372100D03*
X0392200Y0373000D03*
X0401300Y0386900D03*
X0413550Y0392800D03*
X0436200Y0398250D03*
X0436350Y0403700D03*
X0419100Y0369600D03*
X0418100Y0365800D03*
X0417100Y0362000D03*
X0395700Y0354100D03*
X0386850Y0339650D03*
X0376800Y0347600D03*
X0373400Y0341600D03*
X0369500Y0339100D03*
X0369663Y0345417D03*
X0368000Y0357100D03*
X0365544Y0360256D03*
X0375100Y0358400D03*
X0353300Y0358800D03*
X0350300Y0353100D03*
X0343400Y0349200D03*
X0342850Y0343800D03*
X0338350Y0336250D03*
X0330650Y0341200D03*
X0320300Y0362100D03*
X0343100Y0366300D03*
X0353700Y0371100D03*
X0361500Y0386400D03*
X0343900Y0385700D03*
X0334900Y0396800D03*
X0319600Y0415500D03*
X0259400Y0429800D03*
X0236600Y0425600D03*
X0226000Y0420800D03*
X0214156Y0431644D03*
X0211700Y0434800D03*
X0204600Y0433500D03*
X0202900Y0444300D03*
X0206300Y0450300D03*
X0210200Y0452800D03*
X0210037Y0446483D03*
X0192850Y0452250D03*
X0178700Y0453600D03*
X0174050Y0454900D03*
X0165000Y0457500D03*
X0145900Y0456100D03*
X0136600Y0453100D03*
X0130600Y0454900D03*
X0132300Y0458600D03*
X0122900Y0454700D03*
X0133400Y0434700D03*
X0147700Y0423000D03*
X0145700Y0410500D03*
X0135300Y0410100D03*
X0118800Y0407000D03*
X0128500Y0391900D03*
X0128350Y0384250D03*
X0119100Y0388400D03*
X0097850Y0377200D03*
X0093150Y0374750D03*
X0091800Y0379500D03*
X0087850Y0374800D03*
X0090700Y0369600D03*
X0096850Y0370800D03*
X0110500Y0348300D03*
X0113900Y0345000D03*
X0115700Y0341100D03*
X0123400Y0348300D03*
X0102200Y0332300D03*
X0121400Y0320750D03*
X0128500Y0318500D03*
X0165000Y0335400D03*
X0170600Y0335600D03*
X0176600Y0335300D03*
X0183050Y0331200D03*
X0164350Y0350750D03*
X0160200Y0350600D03*
X0154400Y0353850D03*
X0143350Y0388200D03*
X0143500Y0393650D03*
X0166150Y0399100D03*
X0178400Y0405000D03*
X0185500Y0406300D03*
X0191700Y0407700D03*
X0196100Y0405500D03*
X0202300Y0407200D03*
X0208900Y0418500D03*
X0205700Y0421500D03*
X0200800Y0421400D03*
X0196100Y0419800D03*
X0187500Y0418900D03*
X0184000Y0437800D03*
X0162600Y0429900D03*
X0161600Y0426100D03*
X0160600Y0422300D03*
X0187500Y0394900D03*
X0199400Y0389300D03*
X0208400Y0384500D03*
X0220900Y0369100D03*
X0225500Y0361100D03*
X0234500Y0355150D03*
X0215850Y0360050D03*
X0191400Y0370500D03*
X0189100Y0354500D03*
X0218200Y0405500D03*
X0235800Y0406200D03*
X0244800Y0395100D03*
X0260100Y0376400D03*
X0226400Y0433100D03*
X0229400Y0438800D03*
X0236300Y0442700D03*
X0236850Y0448100D03*
X0241350Y0455650D03*
X0249050Y0450700D03*
X0215500Y0475100D03*
X0211400Y0477400D03*
X0209900Y0470300D03*
X0205500Y0469400D03*
X0199300Y0463900D03*
X0193400Y0466100D03*
X0196400Y0470600D03*
X0180900Y0470950D03*
X0183900Y0492850D03*
X0186750Y0496800D03*
X0191300Y0499050D03*
X0186900Y0502100D03*
X0181400Y0500250D03*
X0173450Y0501150D03*
X0167550Y0501300D03*
X0160800Y0503050D03*
X0152950Y0504900D03*
X0149900Y0481100D03*
X0145200Y0481450D03*
X0123350Y0491700D03*
X0191100Y0493700D03*
X0064500Y0392500D03*
X0060550Y0387750D03*
X0057700Y0383650D03*
X0054250Y0388800D03*
X0065950Y0386400D03*
X0063600Y0368200D03*
X0064100Y0364100D03*
X0040450Y0367450D03*
X0029200Y0364400D03*
X0028100Y0369550D03*
X0036500Y0340200D03*
X0052000Y0339300D03*
X0056000Y0328700D03*
X0051500Y0327600D03*
X0061046Y0328500D03*
X0069300Y0322650D03*
X0388600Y0298200D03*
X0392950Y0295100D03*
X0395800Y0299050D03*
X0398300Y0291650D03*
X0392800Y0289800D03*
X0388400Y0292850D03*
X0406250Y0290750D03*
X0412150Y0290600D03*
X0418900Y0288850D03*
X0426750Y0287000D03*
X0429800Y0310800D03*
X0434500Y0310450D03*
X0456350Y0300200D03*
X0475600Y0206550D03*
X0428100Y0170300D03*
X0417600Y0190300D03*
X0477750Y0066800D03*
X0515200Y0399400D03*
X0519150Y0404150D03*
X0522000Y0408250D03*
X0525450Y0403100D03*
X0513750Y0405500D03*
X0516100Y0423700D03*
X0515600Y0427800D03*
X0539250Y0424450D03*
X0550500Y0427500D03*
X0551600Y0422350D03*
X0543200Y0451700D03*
X0527700Y0452600D03*
X0523700Y0463200D03*
X0528200Y0464300D03*
X0518654Y0463400D03*
X0510400Y0469250D03*
D32*
X0510455Y0469195D01*
X0514224Y0469195D01*
X0531245Y0451700D02*
X0532039Y0449806D01*
X0534500Y0449806D02*
X0534500Y0455400D01*
X0537200Y0453100D02*
X0538200Y0456400D01*
X0537200Y0453100D02*
X0537200Y0449806D01*
X0539717Y0449806D02*
X0540611Y0452100D01*
X0526700Y0445387D02*
X0526921Y0444687D01*
X0532039Y0431892D02*
X0530247Y0430100D01*
X0526600Y0430100D01*
X0519189Y0422689D01*
X0519189Y0417358D01*
X0528000Y0417378D02*
X0528850Y0418228D01*
X0537157Y0417977D02*
X0537757Y0417378D01*
X0537757Y0422957D01*
X0539250Y0424450D01*
X0537157Y0426543D01*
X0537157Y0431892D01*
X0534598Y0431892D02*
X0534598Y0426398D01*
X0533800Y0426300D01*
X0539717Y0431892D02*
X0544352Y0427257D01*
X0544352Y0418736D01*
X0544352Y0412043D02*
X0539457Y0412043D01*
X0537800Y0413700D01*
X0537800Y0417335D01*
X0537757Y0417378D01*
X0463533Y0464653D02*
X0463136Y0465050D01*
X0460200Y0465400D01*
X0458300Y0471150D01*
X0429500Y0441600D02*
X0423700Y0441593D01*
X0421493Y0438243D01*
X0420400Y0437400D01*
X0415737Y0430900D01*
X0412945Y0430908D01*
X0412945Y0428349D02*
X0420299Y0428349D01*
X0425300Y0438050D01*
X0423550Y0429750D01*
X0427900Y0428300D01*
X0429569Y0428399D01*
X0429569Y0433556D01*
X0429593Y0433556D01*
X0429593Y0440249D02*
X0429500Y0441600D01*
X0418060Y0425790D02*
X0412945Y0425790D01*
X0412945Y0423231D02*
X0412900Y0419531D01*
X0424400Y0409800D01*
X0429600Y0409780D01*
X0429579Y0409780D01*
X0429563Y0421700D02*
X0429569Y0421706D01*
X0419100Y0425050D02*
X0418060Y0425790D01*
X0400100Y0418113D02*
X0396800Y0417900D01*
X0394901Y0422400D02*
X0395031Y0423231D01*
X0395031Y0425790D02*
X0388700Y0425790D01*
X0386600Y0427200D01*
X0390500Y0428349D02*
X0388300Y0431400D01*
X0390500Y0428349D02*
X0395031Y0428349D01*
X0395031Y0430908D02*
X0393500Y0431539D01*
X0400100Y0436026D02*
X0400100Y0441600D01*
X0400541Y0460716D02*
X0396666Y0460716D01*
X0396650Y0460700D01*
X0349360Y0437093D02*
X0349200Y0436933D01*
X0349200Y0427000D01*
X0349050Y0426850D01*
X0349050Y0423850D01*
X0359303Y0413597D01*
X0359303Y0407384D01*
X0343900Y0385700D02*
X0335800Y0386600D01*
X0329100Y0379900D01*
X0335800Y0386600D02*
X0340250Y0386600D01*
X0345300Y0381550D01*
X0345300Y0378080D01*
X0348870Y0374510D01*
X0337400Y0360500D02*
X0337400Y0355850D01*
X0332700Y0355850D01*
X0332750Y0358172D02*
X0332750Y0360500D01*
X0337400Y0360500D01*
X0335091Y0358172D02*
X0332750Y0358172D01*
X0328217Y0414546D02*
X0320554Y0414546D01*
X0319600Y0415500D01*
X0345200Y0436750D02*
X0345543Y0437093D01*
X0349360Y0437093D01*
X0260100Y0376400D02*
X0259146Y0377354D01*
X0251483Y0377354D01*
X0230650Y0368050D02*
X0220397Y0378303D01*
X0220397Y0384516D01*
X0230650Y0368050D02*
X0230650Y0365050D01*
X0230500Y0364900D01*
X0230500Y0354967D01*
X0230340Y0354807D01*
X0234157Y0354807D01*
X0234500Y0355150D01*
X0193100Y0364700D02*
X0191000Y0366110D01*
X0184669Y0366110D01*
X0184669Y0363551D02*
X0189200Y0363551D01*
X0191400Y0360500D01*
X0186200Y0360361D02*
X0184669Y0360992D01*
X0179600Y0355874D02*
X0179600Y0350300D01*
X0166755Y0360992D02*
X0163963Y0361000D01*
X0159300Y0354500D01*
X0158207Y0353657D01*
X0156000Y0350307D01*
X0150200Y0350300D01*
X0150107Y0351651D01*
X0154400Y0353850D02*
X0159401Y0363551D01*
X0166755Y0363551D01*
X0166755Y0366110D02*
X0161640Y0366110D01*
X0160600Y0366850D01*
X0166755Y0368669D02*
X0166800Y0372369D01*
X0155300Y0382100D01*
X0150100Y0382120D01*
X0150121Y0382120D01*
X0150137Y0370200D02*
X0150131Y0370194D01*
X0150131Y0363501D02*
X0150131Y0358344D01*
X0150107Y0358344D01*
X0150131Y0363501D02*
X0151800Y0363600D01*
X0156150Y0362150D01*
X0154400Y0353850D01*
X0179600Y0373787D02*
X0182900Y0374000D01*
X0184799Y0369500D02*
X0184669Y0368669D01*
X0183050Y0331200D02*
X0183034Y0331184D01*
X0179159Y0331184D01*
X0121400Y0320750D02*
X0119500Y0326500D01*
X0116564Y0326850D01*
X0116167Y0327247D01*
X0069300Y0322650D02*
X0069245Y0322705D01*
X0065476Y0322705D01*
X0048455Y0340200D02*
X0047661Y0342094D01*
X0045200Y0342094D02*
X0045200Y0336500D01*
X0042500Y0338800D02*
X0041500Y0335500D01*
X0042500Y0338800D02*
X0042500Y0342094D01*
X0039983Y0342094D02*
X0039089Y0339800D01*
X0053000Y0346513D02*
X0052779Y0347213D01*
X0047661Y0360008D02*
X0049453Y0361800D01*
X0053100Y0361800D01*
X0060511Y0369211D01*
X0060511Y0374542D01*
X0051700Y0374522D02*
X0050850Y0373672D01*
X0042543Y0373923D02*
X0041943Y0374522D01*
X0041943Y0368943D01*
X0040450Y0367450D01*
X0042543Y0365357D01*
X0042543Y0360008D01*
X0045102Y0360008D02*
X0045102Y0365502D01*
X0045900Y0365600D01*
X0039983Y0360008D02*
X0035348Y0364643D01*
X0035348Y0373164D01*
X0041900Y0374565D02*
X0041943Y0374522D01*
X0041900Y0374565D02*
X0041900Y0378200D01*
X0040243Y0379857D01*
X0035348Y0379857D01*
X0142400Y0465200D02*
X0143600Y0465323D01*
X0149039Y0465323D01*
X0154157Y0460205D02*
X0153452Y0457800D01*
X0156716Y0455684D02*
X0156716Y0460205D01*
X0159275Y0460205D02*
X0159275Y0453980D01*
X0159200Y0453905D01*
X0156800Y0449900D01*
X0154700Y0453800D02*
X0156800Y0455600D01*
X0156716Y0455684D01*
X0162739Y0458200D02*
X0161834Y0460205D01*
X0159950Y0467200D02*
X0157995Y0468755D01*
X0157995Y0469161D01*
X0156716Y0478118D02*
X0156716Y0492878D01*
X0158674Y0494836D01*
X0153443Y0500067D01*
X0152090Y0500067D01*
X0152950Y0500927D01*
X0152950Y0504900D01*
X0152090Y0493374D02*
X0152200Y0493264D01*
X0152200Y0488300D01*
X0154157Y0486343D01*
X0154157Y0478118D01*
X0159275Y0478118D02*
X0159300Y0481900D01*
X0159300Y0484475D01*
X0161834Y0478118D02*
X0166918Y0478118D01*
X0176200Y0487400D01*
X0176200Y0493799D01*
X0177253Y0494852D01*
X0242300Y0436050D02*
X0242300Y0431400D01*
X0246950Y0431400D01*
X0246950Y0433728D01*
X0244609Y0433728D01*
X0242300Y0436050D02*
X0247000Y0436050D01*
X0230830Y0417390D02*
X0234400Y0413820D01*
X0234400Y0410350D01*
X0239450Y0405300D01*
X0243900Y0405300D01*
X0250600Y0412000D01*
X0243900Y0405300D02*
X0235800Y0406200D01*
X0403500Y0304500D02*
X0403500Y0298101D01*
X0402447Y0297048D01*
X0403500Y0304500D02*
X0412782Y0313782D01*
X0417866Y0313782D01*
X0420425Y0313782D02*
X0420400Y0310000D01*
X0420400Y0307425D01*
X0425543Y0305557D02*
X0427500Y0303600D01*
X0427500Y0298636D01*
X0427610Y0298526D01*
X0422984Y0299022D02*
X0421026Y0297064D01*
X0426257Y0291833D01*
X0427610Y0291833D01*
X0426750Y0290973D01*
X0426750Y0287000D01*
X0422984Y0299022D02*
X0422984Y0313782D01*
X0425543Y0313782D02*
X0425543Y0305557D01*
X0421705Y0322739D02*
X0421705Y0323145D01*
X0419750Y0324700D01*
X0420425Y0331695D02*
X0420425Y0337920D01*
X0420500Y0337995D01*
X0422900Y0342000D01*
X0425000Y0338100D02*
X0422900Y0336300D01*
X0422984Y0336216D01*
X0422984Y0331695D01*
X0425543Y0331695D02*
X0426248Y0334100D01*
X0417866Y0331695D02*
X0416961Y0333700D01*
X0430661Y0326577D02*
X0436100Y0326577D01*
X0437300Y0326700D01*
X0447650Y0240500D02*
X0447650Y0236527D01*
X0446790Y0235667D01*
X0448143Y0235667D01*
X0453374Y0230436D01*
X0451416Y0228478D01*
X0451416Y0213718D01*
X0453975Y0213718D02*
X0454000Y0217500D01*
X0454000Y0220075D01*
X0448857Y0221943D02*
X0448857Y0213718D01*
X0456534Y0213718D02*
X0461618Y0213718D01*
X0470900Y0223000D01*
X0470900Y0229399D01*
X0471953Y0230452D01*
X0448857Y0221943D02*
X0446900Y0223900D01*
X0446900Y0228864D01*
X0446790Y0228974D01*
X0452695Y0204761D02*
X0452695Y0204355D01*
X0454650Y0202800D01*
X0453975Y0195805D02*
X0453975Y0189580D01*
X0453900Y0189505D01*
X0451500Y0185500D01*
X0449400Y0189400D02*
X0451500Y0191200D01*
X0451416Y0191284D01*
X0451416Y0195805D01*
X0448857Y0195805D02*
X0448152Y0193400D01*
X0456534Y0195805D02*
X0457439Y0193800D01*
X0443739Y0200923D02*
X0438300Y0200923D01*
X0437100Y0200800D01*
X0525530Y0152990D02*
X0529100Y0149420D01*
X0529100Y0145950D01*
X0534150Y0140900D01*
X0538600Y0140900D01*
X0545300Y0147600D01*
X0538600Y0140900D02*
X0530500Y0141800D01*
X0515097Y0120116D02*
X0515097Y0113903D01*
X0525350Y0103650D01*
X0525350Y0100650D01*
X0525200Y0100500D01*
X0525200Y0090567D01*
X0525040Y0090407D01*
X0528857Y0090407D01*
X0529200Y0090750D01*
X0546183Y0112954D02*
X0553846Y0112954D01*
X0554800Y0112000D01*
X0541650Y0167000D02*
X0537000Y0167000D01*
X0537000Y0171650D01*
X0541700Y0171650D01*
X0541650Y0169328D02*
X0541650Y0167000D01*
X0541650Y0169328D02*
X0539309Y0169328D01*
X0477600Y0109600D02*
X0474300Y0109387D01*
X0479499Y0105100D02*
X0479369Y0104269D01*
X0479369Y0101710D02*
X0485700Y0101710D01*
X0487800Y0100300D01*
X0483900Y0099151D02*
X0479369Y0099151D01*
X0479369Y0096592D02*
X0480900Y0095961D01*
X0483900Y0099151D02*
X0486100Y0096100D01*
X0474300Y0091474D02*
X0474300Y0085900D01*
X0461455Y0096592D02*
X0458663Y0096600D01*
X0454000Y0090100D01*
X0452907Y0089257D01*
X0450700Y0085907D01*
X0444900Y0085900D01*
X0444807Y0087251D01*
X0449100Y0089450D02*
X0454101Y0099151D01*
X0461455Y0099151D01*
X0461455Y0101710D02*
X0456340Y0101710D01*
X0455300Y0102450D01*
X0461455Y0104269D02*
X0461500Y0107969D01*
X0450000Y0117700D01*
X0444800Y0117720D01*
X0444821Y0117720D01*
X0444837Y0105800D02*
X0444831Y0105794D01*
X0444831Y0099101D02*
X0444831Y0093944D01*
X0444807Y0093944D01*
X0444831Y0099101D02*
X0446500Y0099200D01*
X0450850Y0097750D01*
X0449100Y0089450D01*
X0473859Y0066784D02*
X0477734Y0066784D01*
X0477750Y0066800D01*
X0416100Y0056350D02*
X0414200Y0062100D01*
X0411264Y0062450D01*
X0410867Y0062847D01*
X0364000Y0058250D02*
X0363945Y0058305D01*
X0360176Y0058305D01*
X0343155Y0075800D02*
X0342361Y0077694D01*
X0339900Y0077694D02*
X0339900Y0072100D01*
X0337200Y0074400D02*
X0336200Y0071100D01*
X0337200Y0074400D02*
X0337200Y0077694D01*
X0334683Y0077694D02*
X0333789Y0075400D01*
X0347700Y0082113D02*
X0347479Y0082813D01*
X0342361Y0095608D02*
X0344153Y0097400D01*
X0347800Y0097400D01*
X0355211Y0104811D01*
X0355211Y0110142D01*
X0346400Y0110122D02*
X0345550Y0109272D01*
X0340600Y0101200D02*
X0339802Y0101102D01*
X0339802Y0095608D01*
X0337243Y0095608D02*
X0337243Y0100957D01*
X0335150Y0103050D01*
X0336643Y0104543D01*
X0336643Y0110122D01*
X0336600Y0110165D01*
X0336600Y0113800D01*
X0334943Y0115457D01*
X0330048Y0115457D01*
X0330048Y0108764D02*
X0330048Y0100243D01*
X0334683Y0095608D01*
X0337243Y0109523D02*
X0336643Y0110122D01*
X0249152Y0148243D02*
X0244257Y0148243D01*
X0242600Y0149900D01*
X0242600Y0153535D01*
X0242557Y0153578D01*
X0242557Y0159157D01*
X0244050Y0160650D01*
X0241957Y0162743D01*
X0241957Y0168092D01*
X0239398Y0168092D02*
X0239398Y0162598D01*
X0238600Y0162500D01*
X0235047Y0166300D02*
X0231400Y0166300D01*
X0223989Y0158889D01*
X0223989Y0153558D01*
X0232800Y0153578D02*
X0233650Y0154428D01*
X0241957Y0154177D02*
X0242557Y0153578D01*
X0249152Y0154936D02*
X0249152Y0163457D01*
X0244517Y0168092D01*
X0236839Y0168092D02*
X0235047Y0166300D01*
X0231721Y0180887D02*
X0231500Y0181587D01*
X0236839Y0186006D02*
X0236045Y0187900D01*
X0239300Y0186006D02*
X0239300Y0191600D01*
X0242000Y0189300D02*
X0243000Y0192600D01*
X0242000Y0189300D02*
X0242000Y0186006D01*
X0244517Y0186006D02*
X0245411Y0188300D01*
X0219024Y0205395D02*
X0215255Y0205395D01*
X0215200Y0205450D01*
X0168333Y0200853D02*
X0167936Y0201250D01*
X0165000Y0201600D01*
X0163100Y0207350D01*
X0134300Y0177800D02*
X0128500Y0177793D01*
X0126293Y0174443D01*
X0125200Y0173600D01*
X0120537Y0167100D01*
X0117745Y0167108D01*
X0117745Y0164549D02*
X0125099Y0164549D01*
X0130100Y0174250D01*
X0128350Y0165950D01*
X0132700Y0164500D01*
X0134369Y0164599D01*
X0134369Y0169756D01*
X0134393Y0169756D01*
X0134393Y0176449D02*
X0134300Y0177800D01*
X0122860Y0161990D02*
X0117745Y0161990D01*
X0117745Y0159431D02*
X0117700Y0155731D01*
X0129200Y0146000D01*
X0134400Y0145980D01*
X0134379Y0145980D01*
X0134363Y0157900D02*
X0134369Y0157906D01*
X0123900Y0161250D02*
X0122860Y0161990D01*
X0104900Y0154313D02*
X0101600Y0154100D01*
X0099701Y0158600D02*
X0099831Y0159431D01*
X0099831Y0161990D02*
X0093500Y0161990D01*
X0091400Y0163400D01*
X0095300Y0164549D02*
X0099831Y0164549D01*
X0099831Y0167108D02*
X0098300Y0167739D01*
X0095300Y0164549D02*
X0093100Y0167600D01*
X0104900Y0172226D02*
X0104900Y0177800D01*
X0105341Y0196916D02*
X0101466Y0196916D01*
X0101450Y0196900D01*
X0054160Y0173293D02*
X0054000Y0173133D01*
X0054000Y0163200D01*
X0053850Y0163050D01*
X0053850Y0160050D01*
X0064103Y0149797D01*
X0064103Y0143584D01*
X0048700Y0121900D02*
X0040600Y0122800D01*
X0033900Y0116100D01*
X0040600Y0122800D02*
X0045050Y0122800D01*
X0050100Y0117750D01*
X0050100Y0114280D01*
X0053670Y0110710D01*
X0042200Y0096700D02*
X0037550Y0096700D01*
X0037550Y0094372D01*
X0039891Y0094372D01*
X0042200Y0092050D02*
X0037500Y0092050D01*
X0042200Y0092050D02*
X0042200Y0096700D01*
X0033017Y0150746D02*
X0025354Y0150746D01*
X0024400Y0151700D01*
X0050000Y0172950D02*
X0050343Y0173293D01*
X0054160Y0173293D01*
X0127700Y0078200D02*
X0125300Y0074195D01*
X0125225Y0074120D01*
X0125225Y0067895D01*
X0122666Y0067895D02*
X0121761Y0069900D01*
X0127784Y0067895D02*
X0127784Y0072416D01*
X0127700Y0072500D01*
X0129800Y0074300D01*
X0131048Y0070300D02*
X0130343Y0067895D01*
X0135461Y0062777D02*
X0140900Y0062777D01*
X0142100Y0062900D01*
X0126505Y0059345D02*
X0124550Y0060900D01*
X0126505Y0059345D02*
X0126505Y0058939D01*
X0127784Y0049982D02*
X0127784Y0035222D01*
X0125826Y0033264D01*
X0131057Y0028033D01*
X0132410Y0028033D01*
X0131550Y0027173D01*
X0131550Y0023200D01*
X0132410Y0034726D02*
X0132300Y0034836D01*
X0132300Y0039800D01*
X0130343Y0041757D01*
X0130343Y0049982D01*
X0125225Y0049982D02*
X0125200Y0046200D01*
X0125200Y0043625D01*
X0122666Y0049982D02*
X0117582Y0049982D01*
X0108300Y0040700D01*
X0108300Y0034301D01*
X0107247Y0033248D01*
D33*
X0124550Y0056950D03*
X0124550Y0060900D03*
X0128500Y0060900D03*
X0128500Y0056950D03*
X0042200Y0092050D03*
X0042200Y0096700D03*
X0037550Y0096700D03*
X0037500Y0092050D03*
X0106800Y0161300D03*
X0106800Y0165250D03*
X0110750Y0165250D03*
X0110750Y0161300D03*
X0238700Y0175050D03*
X0242650Y0175050D03*
X0242650Y0179050D03*
X0238700Y0179050D03*
X0336550Y0088650D03*
X0340500Y0088650D03*
X0340500Y0084650D03*
X0336550Y0084650D03*
X0450700Y0202800D03*
X0450700Y0206750D03*
X0454650Y0206750D03*
X0454650Y0202800D03*
X0537000Y0171650D03*
X0537000Y0167000D03*
X0541650Y0167000D03*
X0541700Y0171650D03*
X0472400Y0102400D03*
X0472400Y0098450D03*
X0468450Y0098450D03*
X0468450Y0102400D03*
X0423700Y0320750D03*
X0423700Y0324700D03*
X0419750Y0324700D03*
X0419750Y0320750D03*
X0337400Y0355850D03*
X0337400Y0360500D03*
X0332750Y0360500D03*
X0332700Y0355850D03*
X0402000Y0425100D03*
X0405950Y0425100D03*
X0405950Y0429050D03*
X0402000Y0429050D03*
X0533900Y0438850D03*
X0537850Y0438850D03*
X0537850Y0442850D03*
X0533900Y0442850D03*
X0247000Y0436050D03*
X0246950Y0431400D03*
X0242300Y0431400D03*
X0242300Y0436050D03*
X0177700Y0366800D03*
X0177700Y0362850D03*
X0173750Y0362850D03*
X0173750Y0366800D03*
X0159950Y0467200D03*
X0156000Y0467200D03*
X0156000Y0471150D03*
X0159950Y0471150D03*
X0045800Y0353050D03*
X0041850Y0353050D03*
X0041850Y0349050D03*
X0045800Y0349050D03*
D34*
X0107400Y0331900D03*
X0111700Y0332500D03*
X0168600Y0383400D03*
X0168800Y0395600D03*
X0180700Y0426800D03*
X0184700Y0433400D03*
X0186900Y0442300D03*
X0182500Y0447000D03*
X0203000Y0452700D03*
X0208500Y0437000D03*
X0244000Y0465900D03*
X0244000Y0475100D03*
X0231200Y0484000D03*
X0234300Y0490700D03*
X0214700Y0487600D03*
X0187100Y0481500D03*
X0335700Y0326000D03*
X0335700Y0316800D03*
X0348500Y0307900D03*
X0345400Y0301200D03*
X0365000Y0304300D03*
X0392600Y0310400D03*
X0376700Y0339200D03*
X0371200Y0354900D03*
X0392800Y0349600D03*
X0397200Y0344900D03*
X0395000Y0358500D03*
X0399000Y0365100D03*
X0410900Y0396300D03*
X0411100Y0408500D03*
X0468000Y0459400D03*
X0472300Y0460000D03*
X0509400Y0223200D03*
X0525900Y0219600D03*
X0529000Y0226300D03*
X0538700Y0210700D03*
X0538700Y0201500D03*
X0497700Y0188300D03*
X0503200Y0172600D03*
X0481600Y0177900D03*
X0477200Y0182600D03*
X0479400Y0169000D03*
X0475400Y0162400D03*
X0463500Y0131200D03*
X0463300Y0119000D03*
X0406400Y0068100D03*
X0402100Y0067500D03*
X0481800Y0217100D03*
X0177100Y0196200D03*
X0172800Y0195600D03*
X0115900Y0144700D03*
X0115700Y0132500D03*
X0103800Y0101300D03*
X0099800Y0094700D03*
X0097600Y0085800D03*
X0102000Y0081100D03*
X0081500Y0075400D03*
X0076000Y0091100D03*
X0040500Y0062200D03*
X0040500Y0053000D03*
X0053300Y0044100D03*
X0050200Y0037400D03*
X0069800Y0040500D03*
X0097400Y0046600D03*
D35*
X0092800Y0042000D01*
X0089000Y0042000D01*
X0088400Y0042154D02*
X0080450Y0042154D01*
X0065746Y0042154D01*
X0056400Y0049300D01*
X0049400Y0049300D01*
X0047100Y0053800D01*
X0047100Y0064700D01*
X0040200Y0068300D01*
X0038000Y0072750D01*
X0035450Y0077400D01*
X0040700Y0042346D02*
X0047754Y0044100D01*
X0053300Y0044100D01*
X0050200Y0037400D02*
X0044454Y0035246D01*
X0044654Y0028600D01*
X0051346Y0028600D02*
X0056954Y0035654D01*
X0069800Y0040500D01*
X0069700Y0041800D01*
X0072600Y0042000D01*
X0050200Y0037400D02*
X0048554Y0035254D01*
X0040700Y0035654D01*
X0335900Y0299454D02*
X0343754Y0299054D01*
X0345400Y0301200D01*
X0339654Y0299046D01*
X0339854Y0292400D01*
X0346546Y0292400D02*
X0352154Y0299454D01*
X0365000Y0304300D01*
X0364900Y0305600D01*
X0367800Y0305800D01*
X0360946Y0305954D02*
X0351600Y0313100D01*
X0344600Y0313100D01*
X0342300Y0317600D01*
X0342300Y0328500D01*
X0335400Y0332100D01*
X0333200Y0336550D01*
X0330650Y0341200D01*
X0335900Y0306146D02*
X0342954Y0307900D01*
X0348500Y0307900D01*
X0360946Y0305954D02*
X0375650Y0305954D01*
X0383600Y0305954D01*
X0384200Y0305800D02*
X0388000Y0305800D01*
X0392600Y0310400D01*
X0481800Y0217100D02*
X0486400Y0221700D01*
X0490200Y0221700D01*
X0490800Y0221546D02*
X0498750Y0221546D01*
X0513454Y0221546D01*
X0522800Y0214400D01*
X0529800Y0214400D01*
X0532100Y0209900D01*
X0532100Y0199000D01*
X0539000Y0195400D01*
X0541200Y0190950D01*
X0543750Y0186300D01*
X0538500Y0221354D02*
X0531446Y0219600D01*
X0525900Y0219600D01*
X0529000Y0226300D02*
X0534746Y0228454D01*
X0534546Y0235100D01*
X0527854Y0235100D02*
X0522246Y0228046D01*
X0509400Y0223200D01*
X0509500Y0221900D01*
X0506600Y0221700D01*
X0529000Y0226300D02*
X0530646Y0228446D01*
X0538500Y0228046D01*
X0249050Y0450700D02*
X0246500Y0455350D01*
X0244300Y0459800D01*
X0237400Y0463400D01*
X0237400Y0474300D01*
X0235100Y0478800D01*
X0228100Y0478800D01*
X0218754Y0485946D01*
X0204050Y0485946D01*
X0196100Y0485946D01*
X0195500Y0486100D02*
X0191700Y0486100D01*
X0187100Y0481500D01*
X0211900Y0486100D02*
X0214800Y0486300D01*
X0214700Y0487600D01*
X0227546Y0492446D01*
X0233154Y0499500D01*
X0239846Y0499500D02*
X0240046Y0492854D01*
X0234300Y0490700D01*
X0235946Y0492846D01*
X0243800Y0492446D01*
X0243800Y0485754D02*
X0236746Y0484000D01*
X0231200Y0484000D01*
D36*
X0255800Y0417900D03*
X0323900Y0374000D03*
X0412800Y0402800D03*
X0464900Y0293000D03*
X0409500Y0234500D03*
X0461600Y0124700D03*
X0550500Y0153500D03*
X0320200Y0072000D03*
X0259000Y0191700D03*
X0117600Y0139000D03*
X0028700Y0110200D03*
X0169700Y0029200D03*
X0025500Y0336400D03*
X0166900Y0389100D03*
X0114800Y0498900D03*
X0554200Y0455500D03*
D37*
X0533800Y0426300D02*
X0532950Y0423900D01*
X0421900Y0423800D02*
X0419100Y0425050D01*
X0398673Y0397027D02*
X0398673Y0391636D01*
X0398673Y0390073D02*
X0398000Y0388600D01*
X0395000Y0385600D01*
X0394200Y0385600D01*
X0398673Y0397027D02*
X0363850Y0431850D01*
X0363600Y0432100D02*
X0363600Y0437749D01*
X0419325Y0307325D02*
X0417700Y0305500D01*
X0456700Y0222000D02*
X0455075Y0220175D01*
X0479400Y0141900D02*
X0480200Y0141900D01*
X0479400Y0141900D02*
X0476400Y0138900D01*
X0475727Y0137427D01*
X0475727Y0135864D02*
X0475727Y0130473D01*
X0510550Y0095650D01*
X0510800Y0095400D02*
X0510800Y0089751D01*
X0455300Y0102450D02*
X0452500Y0103700D01*
X0341450Y0103600D02*
X0340600Y0101200D01*
X0237750Y0160100D02*
X0238600Y0162500D01*
X0126700Y0160000D02*
X0123900Y0161250D01*
X0103473Y0133227D02*
X0103473Y0127836D01*
X0103473Y0126273D02*
X0102800Y0124800D01*
X0099800Y0121800D01*
X0099000Y0121800D01*
X0103473Y0133227D02*
X0068650Y0168050D01*
X0068400Y0168300D02*
X0068400Y0173949D01*
X0124125Y0043525D02*
X0122500Y0041700D01*
X0216100Y0354151D02*
X0216100Y0359800D01*
X0215850Y0360050D02*
X0181027Y0394873D01*
X0181027Y0400264D01*
X0181027Y0401827D02*
X0181700Y0403300D01*
X0184700Y0406300D01*
X0185500Y0406300D01*
X0160600Y0366850D02*
X0157800Y0368100D01*
X0046750Y0368000D02*
X0045900Y0365600D01*
X0160375Y0484575D02*
X0162000Y0486400D01*
D38*
X0168500Y0464723D02*
X0170900Y0461000D01*
X0168500Y0454300D01*
X0162700Y0451400D01*
X0160700Y0448100D01*
X0158300Y0445400D01*
X0145800Y0441500D01*
X0136400Y0439400D01*
X0131000Y0439400D01*
X0128900Y0437600D01*
X0128000Y0430700D01*
X0124700Y0428900D01*
X0122868Y0429200D01*
X0122868Y0429292D01*
X0123688Y0433945D02*
X0123688Y0439700D01*
X0127400Y0443600D01*
X0134000Y0443600D01*
X0144800Y0445700D01*
X0156800Y0449900D01*
X0154700Y0453800D02*
X0142900Y0449600D01*
X0138200Y0462200D01*
X0134300Y0468800D01*
X0134300Y0477200D01*
X0133400Y0478217D01*
X0125712Y0478217D01*
X0125712Y0482900D02*
X0125712Y0482941D01*
X0125712Y0482900D02*
X0136400Y0482900D01*
X0138500Y0480800D01*
X0138500Y0470000D01*
X0140300Y0466700D01*
X0142400Y0465200D01*
X0145900Y0456100D02*
X0153452Y0457800D01*
X0162739Y0458200D02*
X0165000Y0457500D01*
X0191700Y0377500D02*
X0206000Y0362900D01*
X0211168Y0358100D01*
X0211468Y0353817D01*
X0206750Y0353570D02*
X0206750Y0355700D01*
X0193100Y0364700D01*
X0191400Y0360500D02*
X0194900Y0354300D01*
X0185500Y0340600D01*
X0162400Y0340600D01*
X0160400Y0337700D01*
X0160400Y0332900D01*
X0160287Y0332900D01*
X0160287Y0330195D01*
X0155569Y0329948D02*
X0155569Y0336800D01*
X0155600Y0339200D01*
X0155600Y0340600D01*
X0160100Y0344900D01*
X0179600Y0344900D01*
X0179600Y0350300D01*
X0189100Y0354500D02*
X0186200Y0360361D01*
X0184799Y0369500D02*
X0191400Y0370500D01*
X0191700Y0377500D02*
X0182900Y0374000D01*
X0096895Y0330200D02*
X0097295Y0326258D01*
X0096895Y0330200D02*
X0075100Y0330200D01*
X0066900Y0338400D01*
X0060400Y0342200D01*
X0057800Y0345800D01*
X0053000Y0346513D01*
X0052000Y0339300D02*
X0048455Y0340200D01*
X0046600Y0335700D02*
X0045200Y0336500D01*
X0046600Y0335700D02*
X0050000Y0333800D01*
X0064800Y0333800D01*
X0072600Y0326000D01*
X0092577Y0326000D01*
X0092577Y0326011D01*
X0046578Y0329000D02*
X0046578Y0322705D01*
X0041854Y0322705D02*
X0041854Y0324000D01*
X0036200Y0329500D01*
X0036200Y0334500D01*
X0031500Y0336800D01*
X0031300Y0342900D01*
X0032500Y0345913D01*
X0036500Y0340200D02*
X0039089Y0339800D01*
X0041500Y0335500D02*
X0041500Y0333500D01*
X0044700Y0330500D01*
X0046578Y0329000D01*
X0187205Y0201842D02*
X0187605Y0197900D01*
X0209400Y0197900D01*
X0217600Y0189700D01*
X0224100Y0185900D01*
X0226700Y0182300D01*
X0231500Y0181587D01*
X0232500Y0188800D02*
X0236045Y0187900D01*
X0237900Y0192400D02*
X0234500Y0194300D01*
X0219700Y0194300D01*
X0211900Y0202100D01*
X0191923Y0202100D01*
X0191923Y0202089D01*
X0237922Y0199100D02*
X0237922Y0205395D01*
X0242646Y0205395D02*
X0242646Y0204100D01*
X0248300Y0198600D01*
X0248300Y0193600D01*
X0253000Y0191300D01*
X0253200Y0185200D01*
X0252000Y0182187D01*
X0248000Y0187900D02*
X0245411Y0188300D01*
X0243000Y0192600D02*
X0243000Y0194600D01*
X0239800Y0197600D01*
X0237922Y0199100D01*
X0237900Y0192400D02*
X0239300Y0191600D01*
X0161632Y0098900D02*
X0159800Y0099200D01*
X0156500Y0097400D01*
X0155600Y0090500D01*
X0153500Y0088700D01*
X0148100Y0088700D01*
X0138700Y0086600D01*
X0126200Y0082700D01*
X0123800Y0080000D01*
X0121800Y0076700D01*
X0116000Y0073800D01*
X0113600Y0067100D01*
X0116000Y0063377D01*
X0119500Y0070600D02*
X0121761Y0069900D01*
X0129800Y0074300D02*
X0141600Y0078500D01*
X0146300Y0065900D01*
X0150200Y0059300D01*
X0150200Y0050900D01*
X0151100Y0049883D01*
X0158788Y0049883D01*
X0158788Y0045200D02*
X0158788Y0045159D01*
X0158788Y0045200D02*
X0148100Y0045200D01*
X0146000Y0047300D01*
X0146000Y0058100D01*
X0144200Y0061400D01*
X0142100Y0062900D01*
X0138600Y0072000D02*
X0131048Y0070300D01*
X0127700Y0078200D02*
X0139700Y0082400D01*
X0150500Y0084500D01*
X0157100Y0084500D01*
X0160812Y0088400D01*
X0160812Y0094155D01*
X0161632Y0098808D02*
X0161632Y0098900D01*
X0101600Y0154100D02*
X0092800Y0150600D01*
X0078500Y0165200D01*
X0073332Y0170000D01*
X0073032Y0174283D01*
X0077750Y0174530D02*
X0077750Y0172400D01*
X0091400Y0163400D01*
X0093100Y0167600D02*
X0089600Y0173800D01*
X0099000Y0187500D01*
X0122100Y0187500D01*
X0124100Y0190400D01*
X0124100Y0195200D01*
X0124213Y0195200D01*
X0124213Y0197905D01*
X0128931Y0198152D02*
X0128931Y0191300D01*
X0128900Y0188900D01*
X0128900Y0187500D01*
X0124400Y0183200D01*
X0104900Y0183200D01*
X0104900Y0177800D01*
X0095400Y0173600D02*
X0098300Y0167739D01*
X0099701Y0158600D02*
X0093100Y0157600D01*
X0326000Y0078500D02*
X0326200Y0072400D01*
X0330900Y0070100D01*
X0330900Y0065100D01*
X0336554Y0059600D01*
X0336554Y0058305D01*
X0341278Y0058305D02*
X0341278Y0064600D01*
X0339400Y0066100D01*
X0336200Y0069100D01*
X0336200Y0071100D01*
X0339900Y0072100D02*
X0341300Y0071300D01*
X0344700Y0069400D01*
X0359500Y0069400D01*
X0367300Y0061600D01*
X0387277Y0061600D01*
X0387277Y0061611D01*
X0391995Y0061858D02*
X0391595Y0065800D01*
X0369800Y0065800D01*
X0361600Y0074000D01*
X0355100Y0077800D01*
X0352500Y0081400D01*
X0347700Y0082113D01*
X0346700Y0074900D02*
X0343155Y0075800D01*
X0333789Y0075400D02*
X0331200Y0075800D01*
X0326000Y0078500D02*
X0327200Y0081513D01*
X0417568Y0164800D02*
X0417568Y0164892D01*
X0417568Y0164800D02*
X0419400Y0164500D01*
X0422700Y0166300D01*
X0423600Y0173200D01*
X0425700Y0175000D01*
X0431100Y0175000D01*
X0440500Y0177100D01*
X0453000Y0181000D01*
X0455400Y0183700D01*
X0457400Y0187000D01*
X0463200Y0189900D01*
X0465600Y0196600D01*
X0463200Y0200323D01*
X0459700Y0193100D02*
X0457439Y0193800D01*
X0449400Y0189400D02*
X0437600Y0185200D01*
X0432900Y0197800D01*
X0429000Y0204400D01*
X0429000Y0212800D01*
X0428100Y0213817D01*
X0420412Y0213817D01*
X0420412Y0218500D02*
X0420412Y0218541D01*
X0420412Y0218500D02*
X0431100Y0218500D01*
X0433200Y0216400D01*
X0433200Y0205600D01*
X0435000Y0202300D01*
X0437100Y0200800D01*
X0440600Y0191700D02*
X0448152Y0193400D01*
X0451500Y0185500D02*
X0439500Y0181300D01*
X0428700Y0179200D01*
X0422100Y0179200D01*
X0418388Y0175300D01*
X0418388Y0169545D01*
X0477600Y0109600D02*
X0486400Y0113100D01*
X0500700Y0098500D01*
X0505868Y0093700D01*
X0506168Y0089417D01*
X0501450Y0089170D02*
X0501450Y0091300D01*
X0487800Y0100300D01*
X0486100Y0096100D02*
X0489600Y0089900D01*
X0480200Y0076200D01*
X0457100Y0076200D01*
X0455100Y0073300D01*
X0455100Y0068500D01*
X0454987Y0068500D01*
X0454987Y0065795D01*
X0450269Y0065548D02*
X0450269Y0072400D01*
X0450300Y0074800D01*
X0450300Y0076200D01*
X0454800Y0080500D01*
X0474300Y0080500D01*
X0474300Y0085900D01*
X0483800Y0090100D02*
X0480900Y0095961D01*
X0479499Y0105100D02*
X0486100Y0106100D01*
X0453988Y0308959D02*
X0453988Y0309000D01*
X0443300Y0309000D01*
X0441200Y0311100D01*
X0441200Y0321900D01*
X0439400Y0325200D01*
X0437300Y0326700D01*
X0441500Y0329700D02*
X0445400Y0323100D01*
X0445400Y0314700D01*
X0446300Y0313683D01*
X0453988Y0313683D01*
X0441500Y0329700D02*
X0436800Y0342300D01*
X0425000Y0338100D01*
X0426248Y0334100D02*
X0433800Y0335800D01*
X0434900Y0346200D02*
X0445700Y0348300D01*
X0452300Y0348300D01*
X0456012Y0352200D01*
X0456012Y0357955D01*
X0456832Y0362608D02*
X0456832Y0362700D01*
X0455000Y0363000D01*
X0451700Y0361200D01*
X0450800Y0354300D01*
X0448700Y0352500D01*
X0443300Y0352500D01*
X0433900Y0350400D01*
X0421400Y0346500D01*
X0419000Y0343800D01*
X0417000Y0340500D01*
X0411200Y0337600D01*
X0408800Y0330900D01*
X0411200Y0327177D01*
X0414700Y0334400D02*
X0416961Y0333700D01*
X0422900Y0342000D02*
X0434900Y0346200D01*
X0396800Y0417900D02*
X0388000Y0414400D01*
X0373700Y0429000D01*
X0368532Y0433800D01*
X0368232Y0438083D01*
X0372950Y0438330D02*
X0372950Y0436200D01*
X0386600Y0427200D01*
X0388300Y0431400D02*
X0384800Y0437600D01*
X0394200Y0451300D01*
X0417300Y0451300D01*
X0419300Y0454200D01*
X0419300Y0459000D01*
X0419413Y0459000D01*
X0419413Y0461705D01*
X0424131Y0461952D02*
X0424131Y0455100D01*
X0424100Y0452700D01*
X0424100Y0451300D01*
X0419600Y0447000D01*
X0400100Y0447000D01*
X0400100Y0441600D01*
X0390600Y0437400D02*
X0393500Y0431539D01*
X0394901Y0422400D02*
X0388300Y0421400D01*
X0482805Y0461700D02*
X0482405Y0465642D01*
X0482805Y0461700D02*
X0504600Y0461700D01*
X0512800Y0453500D01*
X0519300Y0449700D01*
X0521900Y0446100D01*
X0526700Y0445387D01*
X0527700Y0452600D02*
X0531245Y0451700D01*
X0533100Y0456200D02*
X0529700Y0458100D01*
X0514900Y0458100D01*
X0507100Y0465900D01*
X0487123Y0465900D01*
X0487123Y0465889D01*
X0533122Y0462900D02*
X0533122Y0469195D01*
X0537846Y0469195D02*
X0537846Y0467900D01*
X0543500Y0462400D01*
X0543500Y0457400D01*
X0548200Y0455100D01*
X0548400Y0449000D01*
X0547200Y0445987D01*
X0543200Y0451700D02*
X0540611Y0452100D01*
X0538200Y0456400D02*
X0538200Y0458400D01*
X0535000Y0461400D01*
X0533122Y0462900D01*
X0533100Y0456200D02*
X0534500Y0455400D01*
D39*
X0532950Y0423900D02*
X0529500Y0419850D01*
X0528850Y0418228D01*
X0528000Y0417378D02*
X0531064Y0417378D01*
X0528000Y0417378D02*
X0525902Y0417378D01*
X0525882Y0417358D01*
X0429579Y0416473D02*
X0429569Y0416483D01*
X0429569Y0421706D01*
X0429563Y0421700D02*
X0425350Y0421700D01*
X0421900Y0423800D01*
X0417700Y0305500D02*
X0415400Y0305500D01*
X0412800Y0302900D01*
X0412800Y0297064D01*
X0414317Y0297048D02*
X0411250Y0297048D01*
X0409140Y0297048D01*
X0414317Y0297048D02*
X0414333Y0297064D01*
X0460083Y0230452D02*
X0463150Y0230452D01*
X0465260Y0230452D01*
X0461600Y0230436D02*
X0461600Y0224600D01*
X0459000Y0222000D01*
X0456700Y0222000D01*
X0460067Y0230436D02*
X0460083Y0230452D01*
X0444821Y0111027D02*
X0444831Y0111017D01*
X0444831Y0105794D01*
X0444837Y0105800D02*
X0449050Y0105800D01*
X0452500Y0103700D01*
X0348518Y0110142D02*
X0348498Y0110122D01*
X0346400Y0110122D01*
X0343336Y0110122D01*
X0345550Y0109272D02*
X0344900Y0107650D01*
X0341450Y0103600D01*
X0235864Y0153578D02*
X0232800Y0153578D01*
X0230702Y0153578D01*
X0230682Y0153558D01*
X0233650Y0154428D02*
X0234300Y0156050D01*
X0237750Y0160100D01*
X0134369Y0157906D02*
X0134369Y0152683D01*
X0134379Y0152673D01*
X0134363Y0157900D02*
X0130150Y0157900D01*
X0126700Y0160000D01*
X0122500Y0041700D02*
X0120200Y0041700D01*
X0117600Y0039100D01*
X0117600Y0033264D01*
X0119117Y0033248D02*
X0116050Y0033248D01*
X0113940Y0033248D01*
X0119117Y0033248D02*
X0119133Y0033264D01*
X0157800Y0368100D02*
X0154350Y0370200D01*
X0150137Y0370200D01*
X0150131Y0370194D02*
X0150131Y0375417D01*
X0150121Y0375427D01*
X0053818Y0374542D02*
X0053798Y0374522D01*
X0051700Y0374522D01*
X0048636Y0374522D01*
X0050850Y0373672D02*
X0050200Y0372050D01*
X0046750Y0368000D01*
X0162000Y0486400D02*
X0164300Y0486400D01*
X0166900Y0489000D01*
X0166900Y0494836D01*
X0165383Y0494852D02*
X0168450Y0494852D01*
X0170560Y0494852D01*
X0165383Y0494852D02*
X0165367Y0494836D01*
D40*
X0143350Y0388200D02*
X0143250Y0388100D01*
X0143250Y0377400D01*
X0145223Y0375427D01*
X0150121Y0375427D01*
X0060550Y0387750D02*
X0054150Y0387750D01*
X0051000Y0381900D01*
X0051000Y0376900D01*
X0051000Y0375222D01*
X0051700Y0374522D01*
X0232800Y0153578D02*
X0233500Y0152878D01*
X0233500Y0151200D01*
X0233500Y0146200D01*
X0230350Y0140350D01*
X0223950Y0140350D01*
X0141250Y0140000D02*
X0141150Y0139900D01*
X0141250Y0140000D02*
X0141250Y0150700D01*
X0139277Y0152673D01*
X0134379Y0152673D01*
X0345700Y0117500D02*
X0345700Y0112500D01*
X0345700Y0110822D01*
X0346400Y0110122D01*
X0345700Y0117500D02*
X0348850Y0123350D01*
X0355250Y0123350D01*
X0437950Y0123700D02*
X0437950Y0113000D01*
X0439923Y0111027D01*
X0444821Y0111027D01*
X0437950Y0123700D02*
X0438050Y0123800D01*
X0436350Y0403700D02*
X0436450Y0403800D01*
X0436450Y0414500D01*
X0434477Y0416473D01*
X0429579Y0416473D01*
X0519150Y0404150D02*
X0525550Y0404150D01*
X0528700Y0410000D01*
X0528700Y0415000D01*
X0528700Y0416678D01*
X0528000Y0417378D01*
D41*
X0393000Y0296000D02*
X0393000Y0290950D01*
X0392950Y0295100D02*
X0393000Y0296000D01*
X0481400Y0236550D02*
X0481400Y0231500D01*
X0481450Y0232400D01*
X0186700Y0495900D02*
X0186700Y0500950D01*
X0186750Y0496800D02*
X0186700Y0495900D01*
X0097800Y0032200D02*
X0097800Y0027150D01*
X0097750Y0031300D02*
X0097800Y0032200D01*
D42*
X0097800Y0027150D02*
X0099550Y0025350D01*
X0113100Y0025350D01*
X0116050Y0026850D01*
X0116050Y0033248D01*
X0393000Y0290950D02*
X0394750Y0289150D01*
X0408300Y0289150D01*
X0411250Y0290650D01*
X0411250Y0297048D01*
X0463150Y0236850D02*
X0466100Y0238350D01*
X0479650Y0238350D01*
X0481400Y0236550D01*
X0463150Y0236850D02*
X0463150Y0230452D01*
X0168450Y0494852D02*
X0168450Y0501250D01*
X0171400Y0502750D01*
X0184950Y0502750D01*
X0186700Y0500950D01*
D43*
X0194384Y0426805D02*
X0190495Y0422916D01*
X0190495Y0416700D01*
X0190476Y0416681D01*
X0192505Y0416700D02*
X0192505Y0422084D01*
X0195216Y0424795D01*
X0206984Y0424795D01*
X0231395Y0400384D01*
X0231395Y0392077D01*
X0228861Y0386343D01*
X0233705Y0386763D02*
X0233705Y0378500D01*
X0235300Y0376905D01*
X0236935Y0376905D01*
X0239100Y0373840D01*
X0239900Y0373805D01*
X0241316Y0373805D01*
X0242916Y0372205D01*
X0247800Y0372205D01*
X0247836Y0372241D01*
X0251706Y0372241D01*
X0251818Y0369684D02*
X0248311Y0369684D01*
X0247800Y0370195D01*
X0242084Y0370195D01*
X0240484Y0371795D01*
X0238789Y0371795D01*
X0236561Y0369568D01*
X0233361Y0373139D01*
X0231700Y0374800D01*
X0231700Y0378495D01*
X0231695Y0378500D01*
X0231695Y0381400D01*
X0229187Y0380900D01*
X0228861Y0381225D01*
X0233705Y0386763D02*
X0236935Y0389994D01*
X0236935Y0395112D02*
X0235547Y0396500D01*
X0233405Y0396500D01*
X0233405Y0401216D01*
X0207816Y0426805D01*
X0194384Y0426805D01*
X0327882Y0422216D02*
X0331389Y0422216D01*
X0331900Y0421705D01*
X0337616Y0421705D01*
X0339216Y0420105D01*
X0340911Y0420105D01*
X0343139Y0422332D01*
X0346339Y0418761D01*
X0348000Y0417100D01*
X0348000Y0413405D01*
X0348005Y0413400D01*
X0348005Y0410500D01*
X0350513Y0411000D01*
X0350839Y0410675D01*
X0350839Y0405557D02*
X0348305Y0399823D01*
X0348305Y0391516D01*
X0372716Y0367105D01*
X0384484Y0367105D01*
X0387195Y0369816D01*
X0387195Y0375200D01*
X0389205Y0375200D02*
X0389205Y0368984D01*
X0385316Y0365095D01*
X0371884Y0365095D01*
X0346295Y0390684D01*
X0346295Y0395400D01*
X0344153Y0395400D01*
X0342765Y0396788D01*
X0342765Y0401906D02*
X0345995Y0405137D01*
X0345995Y0413400D01*
X0344400Y0414995D01*
X0342765Y0414995D01*
X0340600Y0418060D01*
X0339800Y0418095D01*
X0338384Y0418095D01*
X0336784Y0419695D01*
X0331900Y0419695D01*
X0331864Y0419659D01*
X0327994Y0419659D01*
X0389205Y0375200D02*
X0389224Y0375219D01*
X0489084Y0162405D02*
X0485195Y0158516D01*
X0485195Y0152300D01*
X0485176Y0152281D01*
X0487205Y0152300D02*
X0487205Y0157684D01*
X0489916Y0160395D01*
X0501684Y0160395D01*
X0526095Y0135984D01*
X0526095Y0127677D01*
X0523561Y0121943D01*
X0528405Y0122363D02*
X0528405Y0114100D01*
X0530000Y0112505D01*
X0531635Y0112505D01*
X0533800Y0109440D01*
X0534600Y0109405D01*
X0536016Y0109405D01*
X0537616Y0107805D01*
X0542500Y0107805D01*
X0542536Y0107841D01*
X0546406Y0107841D01*
X0546518Y0105284D02*
X0543011Y0105284D01*
X0542500Y0105795D01*
X0536784Y0105795D01*
X0535184Y0107395D01*
X0533489Y0107395D01*
X0531261Y0105168D01*
X0528061Y0108739D01*
X0526400Y0110400D01*
X0526400Y0114095D01*
X0526395Y0114100D01*
X0526395Y0117000D01*
X0523887Y0116500D01*
X0523561Y0116825D01*
X0528405Y0122363D02*
X0531635Y0125594D01*
X0531635Y0130712D02*
X0530247Y0132100D01*
X0528105Y0132100D01*
X0528105Y0136816D01*
X0502516Y0162405D01*
X0489084Y0162405D01*
X0094024Y0111419D02*
X0094005Y0111400D01*
X0094005Y0105184D01*
X0090116Y0101295D01*
X0076684Y0101295D01*
X0051095Y0126884D01*
X0051095Y0131600D01*
X0048953Y0131600D01*
X0047565Y0132988D01*
X0047565Y0138106D02*
X0050795Y0141337D01*
X0050795Y0149600D01*
X0049200Y0151195D01*
X0047565Y0151195D01*
X0045400Y0154260D01*
X0044600Y0154295D01*
X0043184Y0154295D01*
X0041584Y0155895D01*
X0036700Y0155895D01*
X0036664Y0155859D01*
X0032794Y0155859D01*
X0032682Y0158416D02*
X0036189Y0158416D01*
X0036700Y0157905D01*
X0042416Y0157905D01*
X0044016Y0156305D01*
X0045711Y0156305D01*
X0047939Y0158532D01*
X0051139Y0154961D01*
X0052800Y0153300D01*
X0052800Y0149605D01*
X0052805Y0149600D01*
X0052805Y0146700D01*
X0055313Y0147200D01*
X0055639Y0146875D01*
X0055639Y0141757D02*
X0053105Y0136023D01*
X0053105Y0127716D01*
X0077516Y0103305D01*
X0089284Y0103305D01*
X0091995Y0106016D01*
X0091995Y0111400D01*
D44*
X0065900Y0077000D02*
X0063897Y0077000D01*
X0055700Y0068900D01*
X0055700Y0066480D01*
X0061680Y0058100D02*
X0066200Y0058100D01*
X0071900Y0063671D01*
X0071900Y0069800D01*
X0350900Y0330280D02*
X0350900Y0332700D01*
X0359097Y0340800D01*
X0361100Y0340800D01*
X0367100Y0333600D02*
X0367100Y0327471D01*
X0361400Y0321900D01*
X0356880Y0321900D01*
X0228800Y0459200D02*
X0220603Y0451100D01*
X0218600Y0451100D01*
X0212600Y0458300D02*
X0212600Y0464429D01*
X0218300Y0470000D01*
X0222820Y0470000D01*
X0228800Y0461620D02*
X0228800Y0459200D01*
X0507300Y0200029D02*
X0513000Y0205600D01*
X0517520Y0205600D01*
X0523500Y0197220D02*
X0523500Y0194800D01*
X0515303Y0186700D01*
X0513300Y0186700D01*
X0507300Y0193900D02*
X0507300Y0200029D01*
M02*
