G75*
%MOIN*%
%OFA0B0*%
%FSLAX25Y25*%
%IPPOS*%
%LPD*%
%AMOC8*
5,1,8,0,0,1.08239X$1,22.5*
%
%ADD10C,0.12611*%
%ADD11C,0.06343*%
%ADD12C,0.07887*%
%ADD13R,0.04737X0.05131*%
%ADD14R,0.07898X0.07099*%
%ADD15R,0.07099X0.07898*%
%ADD16C,0.03900*%
%ADD17R,0.04762X0.04762*%
D10*
X0134622Y0012811D03*
X0014268Y0167929D03*
X0241157Y0223638D03*
D11*
X0019064Y0149092D03*
X0019923Y0129426D03*
D12*
X0009475Y0125029D03*
X0008273Y0152562D03*
D13*
X0062645Y0083429D03*
X0069338Y0083429D03*
D14*
X0101200Y0048098D03*
X0101200Y0036902D03*
X0125200Y0036802D03*
X0125200Y0047998D03*
X0215400Y0154802D03*
X0215400Y0165998D03*
X0239400Y0165998D03*
X0239400Y0154802D03*
D15*
X0100998Y0158600D03*
X0089802Y0158600D03*
X0089802Y0134700D03*
X0100998Y0134700D03*
D16*
X0061300Y0041200D03*
X0065700Y0042100D03*
X0074800Y0040900D03*
X0077800Y0045400D03*
X0084200Y0059100D03*
X0089000Y0064500D03*
X0106200Y0054000D03*
X0125300Y0055400D03*
X0134600Y0058400D03*
X0140600Y0056600D03*
X0138900Y0052900D03*
X0148300Y0056800D03*
X0137800Y0076800D03*
X0141000Y0097800D03*
X0145100Y0101100D03*
X0153500Y0104600D03*
X0174500Y0107000D03*
X0179500Y0108000D03*
X0201000Y0131500D03*
X0204000Y0135400D03*
X0207200Y0142500D03*
X0207600Y0147300D03*
X0219200Y0172200D03*
X0210300Y0180600D03*
X0202700Y0181400D03*
X0201700Y0189400D03*
X0219700Y0183900D03*
X0234700Y0171300D03*
X0242000Y0147100D03*
X0244300Y0143100D03*
X0169000Y0179200D03*
X0151000Y0184900D03*
X0112800Y0159100D03*
X0108200Y0160800D03*
X0106200Y0176100D03*
X0100600Y0175900D03*
X0094600Y0176200D03*
X0087400Y0181900D03*
X0082100Y0157000D03*
X0079800Y0141000D03*
X0062800Y0127000D03*
X0071800Y0122200D03*
X0085000Y0115900D03*
X0075100Y0106000D03*
X0079500Y0103800D03*
X0085700Y0105200D03*
X0092800Y0101400D03*
X0085200Y0091200D03*
X0075500Y0091000D03*
X0070400Y0090100D03*
X0065500Y0090000D03*
X0062300Y0093000D03*
X0068900Y0104300D03*
X0053000Y0106000D03*
X0045200Y0090700D03*
X0034600Y0085900D03*
X0044800Y0078400D03*
X0041800Y0072700D03*
X0034900Y0068800D03*
X0035500Y0064900D03*
X0045100Y0061300D03*
X0059200Y0065200D03*
X0057900Y0069100D03*
X0058600Y0073000D03*
X0059500Y0076700D03*
X0057044Y0079856D03*
X0066600Y0078000D03*
X0065800Y0069500D03*
X0065800Y0065500D03*
X0061000Y0058700D03*
X0023800Y0061300D03*
X0011800Y0081700D03*
X0036100Y0099400D03*
X0018100Y0106000D03*
X0026400Y0116400D03*
X0013600Y0133900D03*
X0036100Y0158500D03*
X0045700Y0150400D03*
X0050300Y0142400D03*
X0050800Y0134500D03*
X0055350Y0151450D03*
X0121300Y0030400D03*
X0126000Y0028600D03*
D17*
X0110400Y0008450D03*
X0147850Y0019800D03*
X0159100Y0036900D03*
X0105050Y0112400D03*
X0127850Y0123300D03*
X0193550Y0154550D03*
X0193802Y0154802D03*
X0207500Y0123300D03*
M02*
